<svg viewBox="0 0 100.05 100" xmlns="http://www.w3.org/2000/svg"><path d="m43.18 53.8a1.45 1.45 0 0 1-.44-.11l-.2-.07a.45.45 0 0 1-.28-.21c-.24-.45-.5-.89-.76-1.34a12.11 12.11 0 0 1-1.82-4.29c-.08-.55-.15-1.11-.21-1.67s-.16-1.35-.27-2c-.08-.44-.18-1-.46-1.17s-.5 0-.9.28l-.09.06h-.17a2.22 2.22 0 0 1-1-.83c-.4-.73-.78-1.5-1.14-2.23-.28-.57-.57-1.14-.86-1.71a.66.66 0 0 0-.31-.21c-.17.09-.41.19-.64.28a10.41 10.41 0 0 0-2.26 1.16c-.69.52-1.35 1.13-2 1.71a26.15 26.15 0 0 1-2.07 1.77 2.57 2.57 0 0 0-1.09 2 10.49 10.49 0 0 1-1 3.34 1.13 1.13 0 0 1-1.05.74c-.42 0-.78-.38-1-1-.3-.87-.68-1.73-1.05-2.57a16.24 16.24 0 0 1-1.74-5.85 1.21 1.21 0 0 0-.57-.41c-1.4.43-1.88-.67-2.15-1.26a3.08 3.08 0 0 0-3.56-2.12l-.75.1h-.27a.75.75 0 0 1-.74-.33.76.76 0 0 1  0-.81c.21-.37.27-.56.19-.64a8.31 8.31 0 0 1-1.06-4.7 7.36 7.36 0 0 0-.74-3.71c-.54-1.08-1.72-1-3.09-1h-.53a1.36 1.36 0 0 1-1.36-1.07 15 15 0 0 0-1.2-3.66l-.23-.45c-.73-1.37-.69-1.51.72-2.6l.07-.06a.62.62 0 0 0  .14-.59.7.7 0 0 0-.46-.5.72.72 0 0 0-.27 0 3.45 3.45 0 0 0-.92.2 1.47 1.47 0 0 1-1.59-.41l-1.42-1.48a1.24 1.24 0 0 1-.44-1.53 1.44 1.44 0 0 1  1.26-1 1.72 1.72 0 0 0  .79-.42 3.75 3.75 0 0 1  .46-.31 2.57 2.57 0 0 1  1.94-.66 3.3 3.3 0 0 1  2.09.91h.15a2.24 2.24 0 0 1 1 0c .39.06.65.09.86-.09a.63.63 0 0 1  .45-.14.64.64 0 0 1  .44.23 4.18 4.18 0 0 0  .3.32 1.33 1.33 0 0 0  1-.06 1.26 1.26 0 0 0  .55-.68 1.06 1.06 0 0 1-.66-1.47l.6-1.27a.47.47 0 0 1  .21-.6 16.65 16.65 0 0 1  3.86-1.26 22.16 22.16 0 0 0  3.08-.9.59.59 0 0 1  .8.41l.05.21a2.45 2.45 0 0 1  .13 1.06 4.29 4.29 0 0 1  1.71.15c.54.13 1 .23 1.27 0a .78.78 0 0 1  .69-.17.76.76 0 0 1  .52.44 5.4 5.4 0 0 0  5 3.3h.08a.91.91 0 0 1  .7.32.89.89 0 0 1  .19.74c0 .06 0 .07 0 .07 1.26.84 2.22.39 3.32-.13a4.1 4.1 0 0 1 3.23-.52 3.55 3.55 0 0 1  1 .29 3.25 3.25 0 0 0  1.48.34.22.22 0 0 0  .19-.2.2.2 0 0 0-.11-.22h-.15l-.09-.15a1.52 1.52 0 0 1  .34-1.74h.06a2.91 2.91 0 0 1 2.66.16 1.78 1.78 0 0 1  .88 1.27 12.25 12.25 0 0 1  3.49.88c1.64.59 3.05 1.09 4 .33a2.67 2.67 0 0 1 2.91-.4c.5.14.93.27 1.18.1 1-.49 1.17-1.54 1.39-2.65a5 5 0 0 1 1.09-2.71.93.93 0 0 1  1-.22 1 1 0 0 1  .65.82.44.44 0 0 0  .19.38c1.64.23 2.08 1.66 2.5 3a7.74 7.74 0 0 0  .82 2 2.39 2.39 0 0 0  .86 0 5.05 5.05 0 0 1  .68-.07c.89.21.83.84.79 1.26s0 .64.22.82a1.35 1.35 0 0 0 1.74-.3.76.76 0 0 1  1-.12.77.77 0 0 1  .3 1c-.07.17-.15.33-.23.47l-.09.18a4.49 4.49 0 0 0-.36.71c-.32.75-.72 1.69-2.19 1.46 0 .1-.06.26-.09.38a.89.89 0 0 0  .48 1h .08l.07.2v.74l-.13.07a5.57 5.57 0 0 0-.73.5l-.45.33a.74.74 0 0 0-.09.19.86.86 0 0 1-.27.42 2.21 2.21 0 0 0-1 1.42 2.51 2.51 0 0 0  .72 1.84 1.53 1.53 0 0 1  .15 1.54 3.1 3.1 0 0 1-.78.64 1.06 1.06 0 0 1-1 0 1 1 0 0 1-.54-.79.67.67 0 0 1  0-.27c.24-.72-.15-1.15-.6-1.65a2.52 2.52 0 0 1-.78-1.38 1.51 1.51 0 0 0-.4 0 2.29 2.29 0 0 0-.49.14c-.37.13-.78.29-1.06 0s-.26-.49-.18-1h0a .93.93 0 0 0-.41 0 8 8 0 0 0-1.54 1.22 2.1 2.1 0 0 0-.42.78 3.54 3.54 0 0 0  1.05.66l.18-.06a1.34 1.34 0 0 1  .43-.1 1.45 1.45 0 0 1  .55.18l.18.08.28.11-.16.25-.09.16a1 1 0 0 1-.37.38c-.6.38-.92.72-1 1.09a1.89 1.89 0 0 0  .46 1.38 5 5 0 0 1  .7 4.41 8.5 8.5 0 0 1-4.57 5l-.71.3c-.46.2-.94.41-1.43.57a5.8 5.8 0 0 0-.61.26 2.41 2.41 0 0 1-2.38.15 1.58 1.58 0 0 0-1.24.51 2.35 2.35 0 0 0-.36 1.7 2.85 2.85 0 0 0  .85 1.12l.32.32a3.16 3.16 0 0 1 1 2.33 3.34 3.34 0 0 1-1.41 2.29c-.68.56-1.25 1-1.85.87a1.81 1.81 0 0 1-1.16-1 2.07 2.07 0 0 0-.67-.76 15.29 15.29 0 0 0-1.44-.71l-.33-.15c0 .19-.1.38-.15.56a3.55 3.55 0 0 0-.18 1.76 4 4 0 0 0  .93 1.44 8.32 8.32 0 0 1  .71.91 17.61 17.61 0 0 1  1.24 2.37 1 1 0 0 1-.3 1 .34.34 0 0 1-.24.08zm-.5-.65l.23.07.23.07a.69.69 0 0 0  .14-.39 17.18 17.18 0 0 0-1.2-2.3 8.17 8.17 0 0 0-.67-.86 4.38 4.38 0 0 1-1-1.64 3.94 3.94 0 0 1  .23-2c .08-.28.16-.56.21-.83l.06-.32.29.14.6.28a15.8 15.8 0 0 1 1.49.74 2.59 2.59 0 0 1  .85.94c.28.49.54.75.82.8s.87-.29 1.45-.76a2.88 2.88 0 0 0 1.23-1.94 2.69 2.69 0 0 0-.91-2l-.31-.31a3.15 3.15 0 0 1-1-1.36 2.82 2.82 0 0 1  .44-2.11 2 2 0 0 1  1.87-.66 1.94 1.94 0 0 0  1.94-.16 6.25 6.25 0 0 1  .66-.28c.47-.16.94-.36 1.39-.55l.72-.3a8 8 0 0 0 4.28-4.7 4.47 4.47 0 0 0-.63-4 2.29 2.29 0 0 1-.56-1.72 2.3 2.3 0 0 1  1.22-1.41.58.58 0 0 0  .14-.2.94.94 0 0 0-.32-.11h0a .8.8 0 0 0-.22.07.74.74 0 0 1-.54.06 3.8 3.8 0 0 1-1.42-.83c-.32-.34.32-1.25.48-1.41a8.5 8.5 0 0 1 1.64-1.29 1.09 1.09 0 0 1  .75-.06h.26.3l-.06.29c-.15.69 0 .8 0 .8s.42-.08.57-.13a2.6 2.6 0 0 1  .62-.17 1.58 1.58 0 0 1  .84.19l.08.07v.13a1.9 1.9 0 0 0  .66 1.21 2 2 0 0 1  .7 2.14.22.22 0 0 0  0 .08.47.47 0 0 0  .27.39.57.57 0 0 0  .56 0 2.61 2.61 0 0 0  .66-.53 1.18 1.18 0 0 0-.16-.92 3 3 0 0 1-.82-2.22 2.67 2.67 0 0 1  1.24-1.76.66.66 0 0 0  .1-.19.82.82 0 0 1  .28-.42l.43-.31a7.21 7.21 0 0 1  .68-.47v-.3a1.38 1.38 0 0 1-.61-1.45c.1-.46.16-.76.4-.83a.32.32 0 0 1  .28 0c1.06.15 1.31-.43 1.63-1.17a4.71 4.71 0 0 1  .39-.77l.08-.17c.07-.14.15-.28.21-.43a.28.28 0 0 0-.46-.3 1.85 1.85 0 0 1-2.39.42 1.21 1.21 0 0 1-.47-1.3c0-.47 0-.62-.35-.72l-.55.07c-.53.07-1 .14-1.31-.13a8 8 0 0 1-.92-2.17c-.4-1.35-.78-2.52-2.14-2.69h-.08a.92.92 0 0 1-.49-.79.47.47 0 0 0-.32-.4.43.43 0 0 0-.45.1 4.67 4.67 0 0 0-1 2.46c-.23 1.18-.46 2.4-1.63 3-.41.28-1 .12-1.57 0a2.19 2.19 0 0 0-2.43.29c-1.15 1-2.76.38-4.47-.23a11 11 0 0 0-3.55-.86h-.25v-.33a1.27 1.27 0 0 0-.66-1.09 2.42 2.42 0 0 0-2.14-.16 1.05 1.05 0 0 0-.26 1h .06a.69.69 0 0 1  .38.75.72.72 0 0 1-.61.62 3.68 3.68 0 0 1-1.72-.37 3.1 3.1 0 0 0-.89-.26h-.08a3.64 3.64 0 0 0-2.89.48c-1.13.54-2.31 1.09-3.85.07a.55.55 0 0 1-.18-.55.39.39 0 0 0-.08-.33.41.41 0 0 0-.32-.15h-.07a5.89 5.89 0 0 1-5.44-3.61.26.26 0 0 0-.18-.16.3.3 0 0 0-.26.07c-.45.37-1.06.23-1.7.08a3.6 3.6 0 0 0-1.59-.13.44.44 0 0 1-.4-.12.43.43 0 0 1-.1-.41 1.86 1.86 0 0 0-.1-.9l-.05-.13a.1.1 0 0 0-.05-.07.09.09 0 0 0-.08 0 22.75 22.75 0 0 1-3.15.92 16.07 16.07 0 0 0-3.75 1.15l.14.12-.07.12-.66 1.4a.56.56 0 0 0  .51.81h.32l-.06.31a1.89 1.89 0 0 1-.88 1.24 1.84 1.84 0 0 1-1.48.08l-.1-.06a5.17 5.17 0 0 1-.38-.41.14.14 0 0 0-.1 0 .13.13 0 0 0-.08 0 1.44 1.44 0 0 1-1.26.2 1.76 1.76 0 0 0-.83 0h-.46l-.07-.07a2.81 2.81 0 0 0-1.83-.84 2 2 0 0 0-1.57.58h-.06a2.89 2.89 0 0 0-.41.28 2.11 2.11 0 0 1-1 .52.94.94 0 0 0-.91.72c-.15.51-.07.78.28 1l1.45 1.52a1 1 0 0 0 1.06.23 3.94 3.94 0 0 1  1.06-.23 1.18 1.18 0 0 1  .46.06 1.2 1.2 0 0 1  .79.85 1.12 1.12 0 0 1-.26 1.05l-.13.12c-1.16.89-1.16.89-.58 2l .25.4a15.45 15.45 0 0 1 1.23 3.8.87.87 0 0 0  .87.68h.51c1.41 0 2.87-.09 3.54 1.25a7.7 7.7 0 0 1  .78 4 8 8 0 0 0  .94 4.4c.35.34 0 .9-.14 1.2a.27.27 0 0 0 0 .29.25.25 0 0 0  .26.11h.27l.76-.1a3.55 3.55 0 0 1 4.09 2.37c.38.85.73 1.24 1.57 1a .9.9 0 0 1  .7.22c.14.1.48.37.49.65a15.84 15.84 0 0 0 1.7 5.67c.37.85.76 1.72 1.07 2.61.13.37.33.61.54.62a.77.77 0 0 0  .57-.47 10 10 0 0 0  1-3.18 3.07 3.07 0 0 1  1.25-2.33 25.87 25.87 0 0 0  2-1.74c.64-.59 1.31-1.21 2-1.74a10.76 10.76 0 0 1 2.36-1.22l.69-.29c.29-.13.77.22.89.45.3.57.58 1.14.87 1.72.36.73.74 1.49 1.14 2.21a2 2 0 0 0  .61.57 1.4 1.4 0 0 1  1.29-.27c.53.23.65 1 .75 1.55s.2 1.37.27 2 .13 1.1.21 1.65a11.58 11.58 0 0 0 1.76 4.11c.35.48.6.92.84 1.36z"/><path d="m74.93 86.59a7.15 7.15 0 0 1-1.2-.14l-.48-.08c-1.13-.16-2.37-.47-2.83-2.07a8.08 8.08 0 0 0-1-2l-.21-.3a1.14 1.14 0 0 0-.46.16 1.22 1.22 0 0 1-.85.46c-.32 0-.56-.29-.81-.68a3.64 3.64 0 0 0-4.65-1.5c-.58.2-1.16.46-1.72.7a18.36 18.36 0 0 1-2.12.86 33.82 33.82 0 0 1-4.6 1 1.32 1.32 0 0 1-1.07-.24 1.53 1.53 0 0 1-.48-1.18 25.17 25.17 0 0 0-.46-3.47c-.15-.8-.33-1.62-.51-2.4-.11-.49-.22-1-.33-1.48-.33-1.56.36-2.65 2-3.26a13.34 13.34 0 0 1 1.3-.37c.36-.09.73-.18 1.08-.3l.29-.09c.35-.1.87-.26.95-.45a6.3 6.3 0 0 1 1.87-2.27c.25-.22.5-.44.74-.68l.21-.22c.65-.67 1.38-1.42 2.66-.55a1.52 1.52 0 0 0  .9-.44c1.34-1.65 2.32-2 4.42-1.4a1.28 1.28 0 0 1  .93.68 1 1 0 0 1-.12.95c-.35.61-.23.76.37 1.12 1.28.75 2.29 1.31 2.72 1.09s.59-1.37.75-2.85c0-.06 0-.12 0-.18a1.58 1.58 0 0 1  .06-.44v-.11a.68.68 0 0 1  .6-.44.65.65 0 0 1  .63.36c.25.5.48 1 .71 1.51a22.92 22.92 0 0 0 1.7 3.11h0a11.76 11.76 0 0 0 2 2.12c.29.26.57.51.85.77a8.18 8.18 0 0 1 2.56 5.89v.08c-.09.28-.17.57-.25.86-.18.63-.36 1.29-.6 1.91-.12.3-.23.61-.34.92a12.49 12.49 0 0 1-1.5 3.18 6.12 6.12 0 0 1-2.95 1.76 2.27 2.27 0 0 1-.76.1zm-5.64-5.12h.18l.11.12.28.45a8.41 8.41 0 0 1 1 2.1c.34 1.19 1.14 1.53 2.42 1.72l.49.08a3.7 3.7 0 0 0 1.7 0 5.72 5.72 0 0 0  2.71-1.58 12.11 12.11 0 0 0  1.44-3.06c.11-.31.23-.62.35-.93.23-.6.42-1.25.59-1.87.08-.28.16-.55.24-.83a7.7 7.7 0 0 0-2.41-5.5c-.27-.26-.55-.51-.83-.76a12.13 12.13 0 0 1-2.09-2.21h0a23.17 23.17 0 0 1-1.65-3.2c-.23-.5-.46-1-.7-1.48a.17.17 0 0 0-.16-.09.18.18 0 0 0-.16.12v.08a1.14 1.14 0 0 0 0 .32c0 .07 0 .15 0 .22-.22 2-.41 2.94-1 3.24s-1.5-.12-3.19-1.11c-.75-.44-1.08-.87-.56-1.79a.61.61 0 0 0-.05-.51.84.84 0 0 0-.6-.39c-1.92-.52-2.69-.27-3.91 1.23-.28.34-1.18.81-1.56.54-.93-.64-1.37-.19-2 .48l-.22.22c-.24.24-.5.47-.76.7a5.84 5.84 0 0 0-1.74 2.09c-.17.4-.75.58-1.26.73l-.27.08c-.37.12-.75.22-1.11.31s-.85.21-1.26.36c-1.45.52-2 1.38-1.72 2.69.1.49.21 1 .32 1.47.18.79.36 1.61.51 2.42a25.68 25.68 0 0 1  .47 3.54 1.08 1.08 0 0 0  .3.82.84.84 0 0 0  .68.13 33.44 33.44 0 0 0  4.57-1 18.28 18.28 0 0 0  2.07-.82c.57-.25 1.16-.51 1.75-.72a4.14 4.14 0 0 1 5.22 1.7c.07.11.3.45.45.46s.19 0 .45-.31a1.49 1.49 0 0 1  .91-.25z"/><path d="m77.36 62.9a.25.25 0 0 1-.14 0 10.46 10.46 0 0 1-1.53-1.12 1.4 1.4 0 0 0-2.1-.18 2.64 2.64 0 0 1-1.7.21h-.41a1.26 1.26 0 0 1-.56-.21.77.77 0 0 0-.33-.14c-.5 0-.82 0-1-.22s-.06-.57.13-1a5.12 5.12 0 0 0-1.29-1.24 4.13 4.13 0 0 0-1.05-.39 4.4 4.4 0 0 1-1.22-.48 4.7 4.7 0 0 1-1.26-1.47l-.17-.26a.35.35 0 0 1 0-.36.86.86 0 0 1  .65-.51.91.91 0 0 1  .83.28 2.6 2.6 0 0 1  .49.67c.23.5.42.74.61.78s.47-.09.83-.39h0a2.51 2.51 0 0 1 2-.34l1 .28c1.76.48 3.58 1 4.85 2.57.62.77 1.19 1.61 1.73 2.41l.25.36c.12.18 0 .33-.11.41-.21.24-.37.34-.5.34zm-2.8-2.23a2.18 2.18 0 0 1 1.46.7 9.36 9.36 0 0 0  1.33 1l .12-.1-.14-.2c-.54-.8-1.1-1.62-1.71-2.38-1.17-1.46-2.84-1.92-4.6-2.4l-1.02-.29a2 2 0 0 0-1.58.25 1.52 1.52 0 0 1-1.25.49c-.45-.1-.73-.57-1-1.06a2.22 2.22 0 0 0-.41-.54.43.43 0 0 0-.38-.13.36.36 0 0 0-.26.18l.12.19a4.33 4.33 0 0 0 1.11 1.32 3.9 3.9 0 0 0  1.09.42 4.61 4.61 0 0 1  1.18.45c.23.14 1.76 1.26 1.5 1.83-.19.41-.17.51-.16.52h.49a1.07 1.07 0 0 1  .66.2.92.92 0 0 0  .33.14h.43a2.38 2.38 0 0 0 1.36-.12 2.18 2.18 0 0 1  1.34-.47z"/><path d="m51.7 57.94a6.53 6.53 0 0 1-2.52-.61h0c-.61-.29-.93-1.07-1.24-1.83-.09-.21-.17-.41-.26-.6-.19-.41.63-1 .64-1l .12-.08c1.45-1.06 2.94-2.15 4.46-3.14a1.73 1.73 0 0 1 1-.16h.41.26v.63c0 .3 0 .61 0 .91v1.45 1.13a8.26 8.26 0 0 0-.32.8 4.45 4.45 0 0 1-1.41 2.28 2.14 2.14 0 0 1-1.14.22zm-2.31-1.06c1.07.5 2.55.78 3.19.37a4.06 4.06 0 0 0 1.21-2c .11-.29.21-.56.32-.79v-2.46c0-.3 0-.61 0-.91v-.09h-.21a1.41 1.41 0 0 0-.73.07c-1.51 1-3 2.08-4.44 3.13l-.12.08a2 2 0 0 0-.45.48c.08.18.16.37.24.56.26.64.56 1.37 1 1.57z"/><path d="m44.51 59.44a1.38 1.38 0 0 1-.94-.47 30.5 30.5 0 0 1-2.22-2.59l-.75-.94q-1.23-1.51-2.43-3a3.66 3.66 0 0 1-.32-.52l-.12-.22-.22-.36h.42.28a1 1 0 0 1  .79.08c1.62 1.23 3.18 2.48 4.63 3.69a1.87 1.87 0 0 1  .47.81c.11.3.22.58.42.67a.94.94 0 0 0  .69-.11c.22-.1.32.08.47.39v.08.05l-.11.49a7.07 7.07 0 0 0-.15.77c-.09.78-.43 1.06-.7 1.15a.8.8 0 0 1-.21.03zm-6.18-7.7a2.7 2.7 0 0 0  .22.35q1.2 1.53 2.43 3l .76.95a30.26 30.26 0 0 0 2.18 2.55c.25.25.51.37.69.31s.32-.33.36-.74a7.47 7.47 0 0 1  .16-.83l.09-.4 0 0a1.21 1.21 0 0 1-.88 0 1.47 1.47 0 0 1-.7-.95 1.54 1.54 0 0 0-.33-.61h0c-1.45-1.21-3-2.45-4.61-3.68a.87.87 0 0 0-.37.04z"/><path d="m64.27 30.57l-.27-.26-.14-.12a.77.77 0 0 1-.36-.5c0-.71 0-1.16.27-1.33h0l .18-.11a12.09 12.09 0 0 1 3-1.46 7.42 7.42 0 0 0  3.85-3.79 2.64 2.64 0 0 1  .43-.78c.07-.1.14-.2.2-.3l.2-.33.84 1.22v.08a5 5 0 0 1-3.24 5 2.44 2.44 0 0 0-.53.36c-.3.24-.52.42-.73.27-.65-.46-.95-.16-1.39.3-.11.11-.22.22-.33.32a.63.63 0 0 1-.69 0 6 6 0 0 0-.49-.35 4.72 4.72 0 0 0-.15.46 4.08 4.08 0 0 1-.34.79l-.16.3zm-.21-1.79c0 .05-.08.24 0 .88l.1.09 0 0a3.46 3.46 0 0 0  .29-.64 3.67 3.67 0 0 1  .23-.65l-.42.25zm1.01-.6c.19 0 .4.18.76.45a.31.31 0 0 0  .14.06l.26-.26c.42-.43 1-1 1.93-.42l.23-.18a2.73 2.73 0 0 1  .67-.44 4.52 4.52 0 0 0  2.94-4.45l-.33-.47v0a2.19 2.19 0 0 0-.36.63 7.79 7.79 0 0 1-4.17 4.16 8.88 8.88 0 0 0-2.07.92z"/><path d="m92.94 94.66l-.15-.08c-.18-.1-.36-.19-.54-.27-.42-.19-.82-.38-1-.73s.31-1.25.6-1.58a39.88 39.88 0 0 1 3.15-3.18 1.67 1.67 0 0 1  1.07-.28 4 4 0 0 0  .45 0l .34-.05-.05.34c0 .11 0 .23 0 .34a1.88 1.88 0 0 1-.19.86c-.8 1.38-1.51 2.51-2.23 3.53a3.12 3.12 0 0 1-.84.73c-.14.1-.29.2-.43.31zm3.33-5.66h-.19a1.4 1.4 0 0 0-.76.16 38.91 38.91 0 0 0-3.05 3.14h0a1.72 1.72 0 0 0-.52 1.06c.07.17.4.32.71.46l.43.21.32-.23a2.79 2.79 0 0 0  .71-.61c.71-1 1.41-2.13 2.21-3.5a1.55 1.55 0 0 0  .12-.64z"/><path d="m98 88.77h-.09c-.23 0-.37-.08-.43-.21l-.16-.33a5.76 5.76 0 0 1-.58-1.54 3.67 3.67 0 0 1  .1-1.28c0-.16.06-.31.08-.47a1.28 1.28 0 0 1  .1-.32l.14-.38 2.84 1.62-.46.75c-.43.71-.82 1.36-1.24 2a .43.43 0 0 1-.3.16zm-.11-.5h.11c.4-.61.77-1.24 1.18-1.92l.19-.31-2-1.09v.05c0 .16-.05.33-.09.49a3.22 3.22 0 0 0-.09 1.1 5.37 5.37 0 0 0  .55 1.41z"/><path d="m58.12 59.26l-.64-.39a5.65 5.65 0 0 0-.52-.31 1.67 1.67 0 0 0-.4-.17 1.88 1.88 0 0 0-.4.36l-.16.25-.31.29-.1-.42c0-.17-.09-.34-.14-.51a3.79 3.79 0 0 1-.28-1.36h0a1.89 1.89 0 0 1 1-1.2 1.71 1.71 0 0 1  .92-.14h.65l.08.13a.68.68 0 0 1  .2.4c0 .34 0 .68 0 1s0 .44 0 .66 0 .42 0 .63zm-1.56-1.36a1.41 1.41 0 0 1  .58.2l.4.23c0-.16 0-.32 0-.48s0-.44 0-.67 0-.66 0-1v-.05h-.54a1.41 1.41 0 0 0-.65.07 1.47 1.47 0 0 0-.71.82h0a3.36 3.36 0 0 0  .21 1.16v.12a1.71 1.71 0 0 1  .45-.35.43.43 0 0 1  .26-.06z"/><path d="m72.47 20.79l-.06-.21h-1.71l.29-.4c.11-.14.22-.28.34-.42a3.3 3.3 0 0 0  .6-.88l.09-.24c.18-.48.33-.89.71-1s .7.09 1.28.59.82.88.77 1.22-.48.67-1 .93a3.65 3.65 0 0 1-.75.25l-.32.09zm-.76-.71h1.08v.1h.1a3.23 3.23 0 0 0  .65-.21c.37-.18.71-.38.73-.54s-.08-.33-.61-.79-.76-.5-.83-.49-.25.36-.36.68l-.09.25a3.71 3.71 0 0 1-.68 1z"/><path d="m50.12 61.66l-1.12-.22c-1.07-.21-2.08-.41-3.1-.65-.23-.06-.37-.28-.48-.49a2 2 0 0 0-.12-.2l-.23-.31.38-.08.19-.05a1.29 1.29 0 0 1  .54-.08l.58.06c1.1.12 2.25.25 3.36.45h0a2.7 2.7 0 0 1 1 .48l.38.24.51.29zm-4.23-1.55a.75.75 0 0 0  .14.2c1 .23 2 .43 3.07.64l1 .2.66-.2a2.12 2.12 0 0 0-.73-.36c-1.1-.2-2.23-.33-3.32-.45l-.58-.06a.72.72 0 0 0-.24.03z"/><path d="m75.82 91.27l-1.43-2.35.24-.12.27-.16a1.19 1.19 0 0 1  .79-.29h0a4.86 4.86 0 0 1 1.19.39l.45.18.15.06v.81zm-.74-2.17l.86 1.4 1.06-.93v-.25l-.31-.13a4.42 4.42 0 0 0-1.07-.36h0c-.11 0-.29.11-.45.22z"/><path d="m56.87 46.17l-.25-.29 0 0a .47.47 0 0 1-.19-.3l-.06-.63c-.08-.84-.16-1.71-.18-2.57 0-.25.18-.45.43-.72s.27-.29.43-.48l.3-.37.13.46c.07.23.14.44.2.61a2 2 0 0 1  .19 1 17.81 17.81 0 0 1-.46 2l-.18.67a1.27 1.27 0 0 1-.12.29zm.23-4.39l-.16.17a1.48 1.48 0 0 0-.3.37c0 .84.1 1.7.18 2.53v.07l.08-.28a17.62 17.62 0 0 0  .44-1.93 1.68 1.68 0 0 0-.17-.71z"/><path d="m59.61 50.93l-.14-.27a2.89 2.89 0 0 0-.17-.27c-.18-.27-.37-.55-.28-.82a2.33 2.33 0 0 1  .61-.81l.26-.27.17-.19 1.28 1.2zm-.12-1.19a1.63 1.63 0 0 0  .22.38v.06l.84-.69-.5-.47-.11.11a2 2 0 0 0-.45.61z"/><path d="m26.69 51l-.17-.27-.21-.3a2.6 2.6 0 0 1-.47-.84h0a1.6 1.6 0 0 1  .11-.87c.05-.18.12-.4.18-.66l.15-.65.31.59.37.69a6.52 6.52 0 0 1  .57 1.2c.08.25-.15.45-.41.68l-.22.2zm-.24-2.21v.08a1.39 1.39 0 0 0-.11.59h0a2.22 2.22 0 0 0  .39.67l.06.09 0 0a3.1 3.1 0 0 0  .21-.22 6.91 6.91 0 0 0-.51-1z"/><path d="m56.48 38.42l-.18-.35-.08-.12a.61.61 0 0 1-.15-.52h0a3.06 3.06 0 0 1  .33-.63l.13-.22.15-.26.86.72zm.34-1.35a3.54 3.54 0 0 0-.21.37l.26-.33z"/><path d="m48.22 41.36a.76.76 0 0 1-.4-.19l-.13-.09-.28-.17.24-.23.18-.18a3.74 3.74 0 0 1  .53-.47c.15-.1.32-.05.53 0l .33.09.49.11-.39.32-.33.28a3.91 3.91 0 0 1-.62.47.29.29 0 0 1-.15.06zm0-.53h0a4.43 4.43 0 0 0  .43-.34h0a3.4 3.4 0 0 0-.44.34z"/><path d="m0 0h100v100h-100z" fill="none"/></svg>