<?xml version="1.0" encoding="utf-8"?>
<!-- Generator: Adobe Illustrator 16.0.0, SVG Export Plug-In . SVG Version: 6.00 Build 0)  -->
<!DOCTYPE svg PUBLIC "-//W3C//DTD SVG 1.1//EN" "http://www.w3.org/Graphics/SVG/1.1/DTD/svg11.dtd">
<svg version="1.1" id="Layer_1" xmlns="http://www.w3.org/2000/svg" xmlns:xlink="http://www.w3.org/1999/xlink" x="0px" y="0px"
	 width="376px" height="55.233px" viewBox="0 0 376 55.233" enable-background="new 0 0 376 55.233" xml:space="preserve">
<g>
	<path fill="#009ED5" d="M20.927,49.888c3.258,3.61,6.452,4.987,11.151,3c-5.299,3.896-10.36,2.361-14.864-2.626
		c-4.038-4.475-4.245-10.218-1.082-15.032c0.593-0.908,1.208-1.865,2.053-2.624c0,0,1.353-1.712,2.947-0.29
		c0.626,0.55,0.239,1.741-0.142,2.217C17.22,39.456,16.677,45.18,20.927,49.888"/>
	<path fill="#009ED5" d="M36.666,49.251c4.807,0.715,8.148-0.247,10.516-4.77c-1.617,6.375-6.501,8.406-13.143,7.418
		c-5.962-0.888-9.774-5.196-10.391-10.921c-0.117-1.076-0.25-2.209-0.08-3.331c0,0-0.043-2.185,2.096-2.104
		c0.828,0.03,1.289,1.203,1.297,1.809C27.177,43.546,30.393,48.314,36.666,49.251"/>
	<path fill="#009ED5" d="M48.411,38.759c4.171-2.504,6.136-5.369,5.096-10.359c2.798,5.949,0.319,10.616-5.439,14.072
		c-5.17,3.102-10.848,2.201-14.964-1.83c-0.773-0.761-1.596-1.547-2.18-2.521c0,0-1.416-1.656,0.283-2.951
		c0.664-0.504,1.763,0.102,2.154,0.563C37.464,40.383,42.974,42.024,48.411,38.759"/>
	<path fill="#009ED5" d="M50.819,23.195c1.632-4.583,1.324-8.046-2.651-11.242c5.941,2.817,6.994,8.003,4.742,14.327
		c-2.019,5.682-6.979,8.588-12.713,8.095c-1.08-0.095-2.214-0.181-3.287-0.563c0,0-2.148-0.376-1.653-2.46
		c0.187-0.81,1.425-1.038,2.02-0.929C43.396,31.405,48.697,29.171,50.819,23.195"/>
	<path fill="#009ED5" d="M42.787,9.645c-1.653-4.578-4.084-7.059-9.188-6.996c6.38-1.598,10.485,1.733,12.769,8.052
		c2.043,5.667,0.065,11.064-4.678,14.327c-0.896,0.616-1.829,1.265-2.897,1.652c0,0-1.898,1.076-2.841-0.845
		c-0.369-0.746,0.445-1.708,0.968-2C42.276,20.699,44.944,15.607,42.787,9.645"/>
	<path fill="#009ED5" d="M27.979,4.281c-4.182-2.479-7.637-2.847-11.543,0.44c3.911-5.293,9.202-5.324,14.978-1.894
		c5.182,3.072,7.082,8.502,5.487,14.037c-0.298,1.038-0.602,2.14-1.182,3.117c0,0-0.788,2.031-2.737,1.148
		c-0.756-0.343-0.74-1.596-0.519-2.158C34.603,13.149,33.432,7.52,27.979,4.281"/>
	<path fill="#009ED5" d="M13.138,9.551c-4.81,0.748-7.714,2.657-8.64,7.672C4.159,10.655,8.225,7.271,14.86,6.248
		c5.961-0.918,10.874,2.062,13.158,7.35c0.431,0.995,0.891,2.041,1.065,3.158c0,0,0.69,2.071-1.379,2.629
		c-0.799,0.216-1.587-0.766-1.778-1.339C23.887,12.188,19.403,8.589,13.138,9.551"/>
	<path fill="#009ED5" d="M5.019,23.053c-3.239,3.626-4.264,6.95-1.792,11.41c-4.44-4.854-3.45-10.054,1.026-15.059
		c4.015-4.497,9.708-5.308,14.831-2.685c0.965,0.499,1.984,1.008,2.831,1.766c0,0,1.846,1.161,0.604,2.904
		c-0.485,0.674-1.711,0.425-2.224,0.094C14.998,18.259,9.248,18.33,5.019,23.053"/>
	<path fill="#009ED5" d="M7.336,38.637c-0.202,4.858,1.118,8.077,5.861,9.947c-6.51-0.932-9.051-5.57-8.777-12.275
		c0.25-6.028,4.124-10.273,9.749-11.5c1.061-0.227,2.171-0.481,3.307-0.436c0,0,2.16-0.277,2.307,1.855
		c0.06,0.83-1.05,1.417-1.653,1.489C11.994,28.593,7.591,32.298,7.336,38.637"/>
</g>
<g>
	<path fill="#6D6E70" d="M79.348,41.102l0.775,3.558l-1.208,0.403c-0.4-0.85-0.854-1.471-1.361-1.864
		c-0.508-0.395-1.047-0.592-1.62-0.592c-0.37,0-0.661,0.089-0.874,0.267s-0.319,0.375-0.319,0.594c0,0.248,0.097,0.479,0.291,0.692
		c0.189,0.213,0.538,0.403,1.046,0.57l1.732,0.594c0.96,0.324,1.646,0.756,2.055,1.293c0.405,0.543,0.607,1.175,0.607,1.895
		c0,0.918-0.31,1.694-0.931,2.328c-0.693,0.7-1.555,1.05-2.584,1.05c-0.478,0-0.917-0.072-1.318-0.217
		c-0.4-0.145-0.818-0.387-1.253-0.726l-0.284,0.76h-0.963l-0.64-4.112l1.208-0.343c0.284,0.837,0.727,1.535,1.328,2.095
		s1.261,0.84,1.98,0.84c0.323,0,0.591-0.048,0.805-0.145c0.213-0.096,0.374-0.23,0.481-0.402c0.108-0.172,0.162-0.35,0.162-0.532
		c0-0.304-0.125-0.564-0.375-0.782c-0.254-0.219-0.698-0.434-1.331-0.646l-1.507-0.517c-0.228-0.076-0.537-0.219-0.927-0.43
		c-0.39-0.21-0.689-0.429-0.898-0.657c-0.208-0.229-0.382-0.521-0.52-0.878c-0.138-0.357-0.207-0.734-0.207-1.13
		c0-0.563,0.133-1.08,0.397-1.555c0.265-0.474,0.664-0.857,1.195-1.151c0.532-0.294,1.121-0.441,1.768-0.441
		c0.779,0,1.484,0.238,2.113,0.715l0.252-0.532H79.348z"/>
	<path fill="#6D6E70" d="M84.806,43.938c0.737,0,1.378,0.169,1.926,0.509c0.547,0.34,0.968,0.802,1.263,1.388
		c0.295,0.585,0.442,1.271,0.442,2.056c0,1.187-0.327,2.149-0.982,2.889c-0.655,0.74-1.529,1.11-2.624,1.11
		c-1.116,0-2.003-0.373-2.662-1.117c-0.638-0.71-0.956-1.67-0.956-2.882c0-0.795,0.145-1.479,0.436-2.052
		c0.291-0.573,0.712-1.033,1.263-1.38C83.464,44.11,84.096,43.938,84.806,43.938z M84.832,45.602c-0.246,0-0.476,0.087-0.691,0.259
		s-0.382,0.426-0.5,0.76c-0.119,0.335-0.178,0.761-0.178,1.277c0,0.532,0.058,0.973,0.174,1.323c0.116,0.35,0.277,0.607,0.481,0.775
		c0.205,0.167,0.43,0.25,0.675,0.25c0.379,0,0.704-0.188,0.976-0.565c0.271-0.378,0.407-0.965,0.407-1.761
		c0-0.77-0.126-1.349-0.378-1.736S85.224,45.602,84.832,45.602z"/>
	<path fill="#6D6E70" d="M92.248,40.547v8.894c0,0.3,0.011,0.477,0.032,0.532c0.03,0.102,0.097,0.175,0.201,0.221
		c0.064,0.03,0.239,0.046,0.523,0.046h0.227v1.467h-4v-1.467h0.246c0.258,0,0.424-0.02,0.498-0.058s0.127-0.099,0.162-0.183
		c0.034-0.083,0.052-0.27,0.052-0.559v-6.78H89.23v-1.468c0.771-0.062,1.568-0.276,2.391-0.646H92.248z"/>
	<path fill="#6D6E70" d="M93.629,44.119l3.018-0.068v4.934c0,0.35,0.018,0.583,0.055,0.699c0.036,0.117,0.103,0.212,0.2,0.285
		c0.097,0.074,0.218,0.11,0.365,0.11c0.215,0,0.444-0.061,0.685-0.183c0.095-0.05,0.347-0.23,0.756-0.539v-2.965
		c0-0.259-0.017-0.436-0.052-0.532s-0.085-0.166-0.15-0.209s-0.191-0.064-0.377-0.064h-0.377v-1.468l3.03-0.068v5.443
		c0,0.283,0.014,0.462,0.042,0.536c0.028,0.073,0.073,0.126,0.136,0.159s0.212,0.05,0.449,0.05h0.342v1.467l-2.836,0.091V50.9
		c-0.379,0.329-0.759,0.576-1.142,0.741c-0.383,0.164-0.768,0.247-1.155,0.247c-0.31,0-0.595-0.06-0.855-0.179
		s-0.479-0.278-0.655-0.479c-0.176-0.199-0.308-0.434-0.394-0.703c-0.086-0.269-0.129-0.612-0.129-1.033v-3.132
		c0-0.289-0.014-0.472-0.042-0.548s-0.075-0.133-0.14-0.171c-0.065-0.038-0.204-0.057-0.416-0.057h-0.358V44.119z"/>
	<path fill="#6D6E70" d="M105.362,41.512v2.607h2.081v1.619h-2.081v2.646c0,0.599,0.027,0.982,0.081,1.152s0.154,0.305,0.3,0.406
		c0.194,0.137,0.416,0.205,0.666,0.205c0.444,0,0.885-0.17,1.325-0.509v1.627c-0.375,0.207-0.714,0.353-1.018,0.437
		s-0.632,0.126-0.985,0.126c-0.401,0-0.755-0.061-1.063-0.179c-0.308-0.119-0.571-0.289-0.788-0.51
		c-0.218-0.221-0.369-0.455-0.453-0.703s-0.126-0.608-0.126-1.079v-3.619h-0.969v-1.459c0.345-0.132,0.64-0.32,0.885-0.566
		s0.443-0.541,0.591-0.886s0.251-0.783,0.307-1.315H105.362z"/>
	<path fill="#6D6E70" d="M111.512,43.938v5.617c0,0.269,0.013,0.434,0.039,0.494s0.072,0.107,0.139,0.141s0.217,0.05,0.449,0.05
		h0.349v1.467h-3.994v-1.467h0.343c0.224,0,0.367-0.015,0.43-0.042c0.063-0.028,0.108-0.075,0.139-0.141
		c0.03-0.066,0.045-0.198,0.045-0.396v-3.626h-0.957v-1.429c0.34-0.021,0.667-0.063,0.979-0.13c0.313-0.065,0.591-0.145,0.837-0.235
		c0.159-0.061,0.355-0.162,0.588-0.304H111.512z M110.465,40.547c0.327,0,0.606,0.136,0.836,0.406c0.23,0.271,0.346,0.6,0.346,0.984
		c0,0.391-0.115,0.722-0.346,0.992c-0.23,0.271-0.509,0.407-0.836,0.407c-0.328,0-0.606-0.136-0.837-0.407
		c-0.23-0.271-0.346-0.6-0.346-0.984c0-0.38,0.118-0.708,0.355-0.984C109.875,40.685,110.15,40.547,110.465,40.547z"/>
	<path fill="#6D6E70" d="M116.763,43.938c0.737,0,1.378,0.169,1.926,0.509c0.547,0.34,0.968,0.802,1.263,1.388
		c0.295,0.585,0.442,1.271,0.442,2.056c0,1.187-0.327,2.149-0.982,2.889c-0.655,0.74-1.529,1.11-2.624,1.11
		c-1.116,0-2.003-0.373-2.662-1.117c-0.638-0.71-0.956-1.67-0.956-2.882c0-0.795,0.145-1.479,0.436-2.052
		c0.291-0.573,0.712-1.033,1.263-1.38C115.421,44.11,116.053,43.938,116.763,43.938z M116.789,45.602
		c-0.246,0-0.476,0.087-0.691,0.259s-0.382,0.426-0.5,0.76c-0.119,0.335-0.178,0.761-0.178,1.277c0,0.532,0.058,0.973,0.174,1.323
		c0.116,0.35,0.277,0.607,0.481,0.775c0.205,0.167,0.43,0.25,0.675,0.25c0.379,0,0.704-0.188,0.976-0.565
		c0.271-0.378,0.407-0.965,0.407-1.761c0-0.77-0.126-1.349-0.378-1.736S117.181,45.602,116.789,45.602z"/>
	<path fill="#6D6E70" d="M124.18,43.938v1.011c0.487-0.391,0.904-0.656,1.25-0.799c0.347-0.142,0.701-0.212,1.063-0.212
		c0.417,0,0.787,0.104,1.108,0.312s0.555,0.467,0.701,0.779c0.146,0.312,0.22,0.754,0.22,1.326v3.162
		c0,0.269,0.016,0.441,0.048,0.517c0.032,0.076,0.083,0.132,0.152,0.168c0.052,0.025,0.207,0.038,0.465,0.038h0.316v1.467h-3.792
		v-1.467c0.288-0.005,0.45-0.013,0.484-0.023c0.107-0.035,0.179-0.093,0.213-0.174c0.034-0.081,0.052-0.256,0.052-0.524v-2.785
		c0-0.358-0.033-0.592-0.097-0.698c-0.104-0.177-0.267-0.265-0.491-0.265c-0.185,0-0.383,0.048-0.594,0.144
		c-0.211,0.097-0.496,0.294-0.853,0.592v3.013c0,0.329,0.03,0.531,0.091,0.607s0.207,0.114,0.437,0.114h0.208v1.467h-3.754v-1.467
		h0.188c0.297,0,0.481-0.016,0.552-0.046c0.071-0.03,0.125-0.083,0.162-0.159s0.055-0.226,0.055-0.448v-3.535h-0.957v-1.468
		c0.773-0.112,1.498-0.328,2.172-0.646H124.18z"/>
	<path fill="#6D6E70" d="M140.725,44.72h3.166v1.46h-0.388c-0.22,0-0.373,0.025-0.458,0.076c-0.086,0.051-0.157,0.137-0.213,0.258
		c-0.035,0.066-0.105,0.35-0.213,0.852c-0.073,0.319-0.187,0.676-0.342,1.068s-0.328,0.749-0.517,1.068
		c0.189,0.339,0.348,0.563,0.475,0.669s0.255,0.159,0.384,0.159c0.151,0,0.278-0.06,0.381-0.179s0.155-0.272,0.155-0.46
		c0-0.183-0.065-0.402-0.194-0.661c-0.125-0.233-0.188-0.436-0.188-0.608c0-0.258,0.086-0.485,0.258-0.68
		c0.172-0.195,0.379-0.293,0.621-0.293c0.314,0,0.578,0.148,0.792,0.444c0.213,0.297,0.32,0.716,0.32,1.258
		c0,0.791-0.238,1.445-0.714,1.962c-0.476,0.517-1.106,0.775-1.89,0.775c-0.392,0-0.717-0.059-0.976-0.175
		c-0.259-0.117-0.539-0.34-0.84-0.669c-0.689,0.563-1.49,0.844-2.404,0.844c-0.973,0-1.764-0.329-2.371-0.988
		s-0.911-1.465-0.911-2.418c0-0.795,0.194-1.487,0.582-2.075c0.306-0.466,0.818-0.935,1.538-1.406
		c-0.302-0.228-0.529-0.492-0.682-0.794s-0.229-0.638-0.229-1.008c0-0.633,0.21-1.172,0.63-1.615s0.968-0.665,1.645-0.665
		c0.689,0,1.228,0.204,1.615,0.612s0.582,0.921,0.582,1.539c0,0.517-0.11,0.958-0.33,1.323c-0.172,0.283-0.433,0.529-0.782,0.737
		c0.241,0.126,0.431,0.261,0.568,0.402c0.19,0.198,0.381,0.469,0.575,0.813c0.125,0.218,0.368,0.761,0.73,1.627
		c0.25-0.669,0.375-1.147,0.375-1.437c0-0.081-0.021-0.153-0.064-0.217c-0.043-0.063-0.102-0.103-0.175-0.118
		c-0.051-0.015-0.222-0.022-0.51-0.022V44.72z M138.108,45.921c-0.418,0.254-0.735,0.569-0.95,0.946
		c-0.215,0.378-0.323,0.782-0.323,1.213c0,0.558,0.16,1.03,0.481,1.418c0.321,0.388,0.708,0.581,1.16,0.581
		c0.349,0,0.7-0.094,1.053-0.281c-0.099-0.192-0.181-0.402-0.246-0.631l-0.349-1.422c-0.125-0.496-0.226-0.844-0.304-1.041
		c-0.077-0.197-0.153-0.35-0.226-0.456S138.232,46.032,138.108,45.921z M138.127,42.325c-0.198,0-0.359,0.093-0.484,0.277
		c-0.125,0.186-0.188,0.455-0.188,0.81c0,0.314,0.064,0.564,0.194,0.749c0.129,0.186,0.282,0.277,0.459,0.277
		c0.112,0,0.224-0.042,0.336-0.125c0.112-0.084,0.191-0.194,0.239-0.331c0.069-0.177,0.104-0.38,0.104-0.608
		c0-0.354-0.064-0.618-0.194-0.79S138.308,42.325,138.127,42.325z"/>
	<path fill="#6D6E70" d="M149.58,41.102h4.4v1.467h-0.401c-0.232,0-0.386,0.024-0.462,0.072c-0.075,0.049-0.131,0.125-0.168,0.229
		s-0.055,0.303-0.055,0.597v5.868c0,0.319,0.015,0.524,0.045,0.616c0.03,0.091,0.082,0.157,0.155,0.197
		c0.09,0.062,0.226,0.092,0.407,0.092h0.478v1.467h-4.4v-1.467h0.357c0.256,0,0.423-0.021,0.5-0.065
		c0.078-0.043,0.135-0.111,0.172-0.205c0.037-0.094,0.055-0.279,0.055-0.559v-5.892c0-0.329-0.019-0.546-0.055-0.649
		c-0.037-0.104-0.099-0.184-0.185-0.239c-0.061-0.041-0.208-0.062-0.442-0.062h-0.403V41.102z"/>
	<path fill="#6D6E70" d="M155.491,40.744h0.853l0.09,0.357h5.079l0.11-0.357h0.859l1.118,3.718l-1.202,0.494
		c-0.267-0.618-0.458-1.021-0.575-1.209c-0.228-0.37-0.491-0.661-0.788-0.874c-0.224-0.162-0.446-0.243-0.666-0.243
		c-0.104,0-0.174,0.029-0.213,0.087c-0.039,0.059-0.058,0.191-0.058,0.399v6.097c0,0.359,0.011,0.585,0.033,0.677
		c0.021,0.091,0.058,0.163,0.11,0.216c0.052,0.054,0.124,0.089,0.214,0.106c0.091,0.019,0.334,0.027,0.728,0.027v1.467h-4.4v-1.467
		h0.267c0.295,0,0.483-0.021,0.565-0.065c0.083-0.043,0.146-0.118,0.188-0.228c0.043-0.109,0.065-0.336,0.065-0.681v-6.233
		c0-0.177-0.018-0.289-0.052-0.334c-0.035-0.046-0.108-0.068-0.22-0.068c-0.224,0-0.474,0.099-0.75,0.296
		c-0.276,0.198-0.521,0.477-0.737,0.836c-0.086,0.143-0.269,0.54-0.549,1.194l-1.182-0.494L155.491,40.744z"/>
	<path fill="#6D6E70" d="M168.495,41.102h7.527l1.028,3.353l-1.169,0.494c-0.198-0.548-0.43-0.988-0.695-1.323
		c-0.265-0.334-0.558-0.556-0.879-0.665c-0.321-0.108-0.694-0.163-1.121-0.163h-1.376v2.646h0.452c0.34,0,0.57-0.029,0.688-0.088
		c0.119-0.058,0.204-0.149,0.255-0.273s0.078-0.371,0.078-0.741v-0.402h1.15v4.492h-1.15v-0.458c0-0.312-0.031-0.538-0.094-0.681
		s-0.147-0.239-0.255-0.29c-0.107-0.051-0.347-0.076-0.717-0.076h-0.407v2.438c0,0.259,0.011,0.417,0.032,0.473
		s0.063,0.099,0.126,0.129c0.063,0.031,0.197,0.046,0.404,0.046h0.756c0.564,0,1.041-0.096,1.428-0.286
		c0.388-0.191,0.734-0.499,1.038-0.924c0.304-0.426,0.538-0.931,0.702-1.517l1.18,0.479l-1.183,3.942h-7.798v-1.467h0.226
		c0.302,0,0.504-0.025,0.607-0.076c0.104-0.051,0.177-0.14,0.22-0.267c0.021-0.075,0.032-0.291,0.032-0.646v-5.777
		c0-0.314-0.018-0.52-0.055-0.616c-0.037-0.096-0.094-0.168-0.171-0.217c-0.078-0.048-0.23-0.072-0.458-0.072h-0.401V41.102z"/>
	<path fill="#6D6E70" d="M180.815,43.938v1.011c0.487-0.391,0.904-0.656,1.25-0.799c0.347-0.142,0.701-0.212,1.063-0.212
		c0.417,0,0.787,0.104,1.108,0.312s0.555,0.467,0.701,0.779c0.146,0.312,0.22,0.754,0.22,1.326v3.162
		c0,0.269,0.016,0.441,0.048,0.517c0.032,0.076,0.083,0.132,0.152,0.168c0.052,0.025,0.207,0.038,0.465,0.038h0.316v1.467h-3.792
		v-1.467c0.288-0.005,0.45-0.013,0.484-0.023c0.107-0.035,0.179-0.093,0.213-0.174c0.034-0.081,0.052-0.256,0.052-0.524v-2.785
		c0-0.358-0.033-0.592-0.097-0.698c-0.104-0.177-0.267-0.265-0.491-0.265c-0.185,0-0.383,0.048-0.594,0.144
		c-0.211,0.097-0.496,0.294-0.853,0.592v3.013c0,0.329,0.03,0.531,0.091,0.607s0.207,0.114,0.437,0.114h0.208v1.467h-3.754v-1.467
		h0.188c0.297,0,0.481-0.016,0.552-0.046c0.071-0.03,0.125-0.083,0.162-0.159S179,49.809,179,49.586v-3.535h-0.957v-1.468
		c0.773-0.112,1.498-0.328,2.172-0.646H180.815z"/>
	<path fill="#6D6E70" d="M191.863,44.563c0.228-0.381,0.457-0.652,0.685-0.812c0.229-0.16,0.47-0.24,0.724-0.24
		c0.254,0,0.455,0.087,0.601,0.262s0.22,0.399,0.22,0.673c0,0.248-0.07,0.455-0.21,0.619c-0.14,0.165-0.313,0.247-0.52,0.247
		l-0.213-0.007l-0.22-0.008c-0.116,0-0.232,0.051-0.349,0.152c0.237,0.462,0.355,0.903,0.355,1.325c0,0.447-0.117,0.881-0.352,1.302
		c-0.235,0.422-0.56,0.749-0.976,0.982c-0.416,0.234-0.915,0.351-1.496,0.351c-0.168,0-0.337-0.012-0.507-0.034
		c-0.17-0.022-0.342-0.057-0.514-0.103c-0.116,0.086-0.205,0.17-0.265,0.251c-0.061,0.081-0.09,0.156-0.09,0.228
		c0,0.157,0.138,0.258,0.414,0.304l2.675,0.447c0.797,0.132,1.372,0.383,1.725,0.752c0.354,0.374,0.53,0.82,0.53,1.336
		c0,0.456-0.133,0.877-0.4,1.265c-0.267,0.387-0.703,0.704-1.309,0.952c-0.605,0.248-1.369,0.372-2.291,0.372
		c-0.81,0-1.479-0.092-2.009-0.276c-0.53-0.186-0.906-0.418-1.128-0.699c-0.222-0.281-0.333-0.548-0.333-0.801
		c0-0.289,0.083-0.548,0.249-0.778c0.166-0.23,0.507-0.495,1.024-0.794c-0.319-0.137-0.558-0.304-0.717-0.502
		c-0.215-0.264-0.323-0.535-0.323-0.813c0-0.305,0.1-0.604,0.301-0.897c0.2-0.294,0.5-0.586,0.901-0.875
		c-0.224-0.162-0.4-0.338-0.527-0.528s-0.23-0.422-0.31-0.695c-0.08-0.274-0.12-0.556-0.12-0.845c0-0.761,0.264-1.407,0.792-1.939
		s1.222-0.798,2.084-0.798c0.383,0,0.733,0.052,1.05,0.156C191.33,44.198,191.613,44.354,191.863,44.563z M189.091,52.195
		c-0.228,0.207-0.374,0.365-0.436,0.475c-0.063,0.108-0.094,0.229-0.094,0.36c0,0.248,0.172,0.441,0.517,0.58
		c0.345,0.14,0.786,0.209,1.325,0.209c0.392,0,0.739-0.04,1.04-0.121c0.302-0.081,0.502-0.18,0.601-0.296
		c0.064-0.076,0.097-0.18,0.097-0.312c0-0.146-0.065-0.27-0.194-0.368c-0.129-0.099-0.442-0.184-0.937-0.254L189.091,52.195z
		 M190.028,45.396c-0.275,0-0.503,0.119-0.682,0.357s-0.268,0.56-0.268,0.966c0,0.375,0.086,0.674,0.258,0.896
		c0.172,0.224,0.395,0.335,0.666,0.335c0.267,0,0.49-0.115,0.669-0.347c0.179-0.23,0.268-0.528,0.268-0.893
		c0-0.405-0.085-0.727-0.255-0.962C190.514,45.515,190.295,45.396,190.028,45.396z"/>
	<path fill="#6D6E70" d="M197.529,43.938v5.617c0,0.269,0.012,0.434,0.037,0.494c0.027,0.061,0.072,0.107,0.141,0.141
		c0.066,0.033,0.215,0.05,0.447,0.05h0.35v1.467h-3.993v-1.467h0.343c0.225,0,0.367-0.015,0.43-0.042
		c0.063-0.028,0.109-0.075,0.139-0.141c0.029-0.066,0.045-0.198,0.045-0.396v-3.626h-0.956v-1.429
		c0.34-0.021,0.667-0.063,0.979-0.13c0.313-0.065,0.592-0.145,0.836-0.235c0.16-0.061,0.355-0.162,0.588-0.304H197.529z
		 M196.482,40.547c0.326,0,0.605,0.136,0.836,0.406c0.23,0.271,0.346,0.6,0.346,0.984c0,0.391-0.115,0.722-0.346,0.992
		c-0.23,0.271-0.51,0.407-0.836,0.407c-0.328,0-0.607-0.136-0.838-0.407c-0.23-0.271-0.346-0.6-0.346-0.984
		c0-0.38,0.119-0.708,0.355-0.984S196.168,40.547,196.482,40.547z"/>
	<path fill="#6D6E70" d="M202.057,43.938v1.011c0.486-0.391,0.903-0.656,1.25-0.799c0.347-0.142,0.701-0.212,1.063-0.212
		c0.418,0,0.787,0.104,1.108,0.312s0.555,0.467,0.701,0.779c0.146,0.312,0.22,0.754,0.22,1.326v3.162
		c0,0.269,0.017,0.441,0.049,0.517c0.032,0.076,0.082,0.132,0.151,0.168c0.052,0.025,0.207,0.038,0.465,0.038h0.317v1.467h-3.793
		v-1.467c0.288-0.005,0.45-0.013,0.484-0.023c0.107-0.035,0.179-0.093,0.213-0.174c0.035-0.081,0.052-0.256,0.052-0.524v-2.785
		c0-0.358-0.032-0.592-0.097-0.698c-0.104-0.177-0.268-0.265-0.491-0.265c-0.186,0-0.383,0.048-0.595,0.144
		c-0.211,0.097-0.495,0.294-0.853,0.592v3.013c0,0.329,0.03,0.531,0.092,0.607c0.061,0.076,0.206,0.114,0.437,0.114h0.208v1.467
		h-3.754v-1.467h0.188c0.297,0,0.481-0.016,0.553-0.046c0.07-0.03,0.125-0.083,0.161-0.159c0.037-0.076,0.055-0.226,0.055-0.448
		v-3.535h-0.956v-1.468c0.773-0.112,1.498-0.328,2.173-0.646H202.057z"/>
	<path fill="#6D6E70" d="M213.97,48.894l0.885,1.049c-0.508,0.685-1.026,1.18-1.554,1.486s-1.098,0.46-1.709,0.46
		c-0.982,0-1.81-0.392-2.481-1.175s-1.008-1.729-1.008-2.839c0-0.73,0.15-1.397,0.452-2.003s0.72-1.08,1.254-1.422
		s1.139-0.513,1.815-0.513c0.431,0,0.823,0.073,1.176,0.22c0.354,0.147,0.662,0.357,0.928,0.631c0.265,0.274,0.478,0.604,0.64,0.992
		c0.161,0.388,0.272,0.79,0.333,1.205c0.025,0.208,0.038,0.537,0.038,0.988h-4.349c0.009,0.644,0.169,1.164,0.481,1.563
		c0.313,0.397,0.695,0.597,1.147,0.597c0.288,0,0.603-0.103,0.943-0.309C213.302,49.619,213.638,49.309,213.97,48.894z
		 M212.678,46.696c-0.03-0.304-0.092-0.543-0.186-0.718c-0.093-0.175-0.218-0.314-0.375-0.419c-0.158-0.104-0.323-0.155-0.496-0.155
		c-0.182,0-0.356,0.053-0.525,0.159c-0.168,0.106-0.304,0.251-0.405,0.434s-0.167,0.416-0.197,0.699H212.678z"/>
	<path fill="#6D6E70" d="M221.58,48.894l0.885,1.049c-0.508,0.685-1.026,1.18-1.554,1.486s-1.098,0.46-1.709,0.46
		c-0.982,0-1.81-0.392-2.481-1.175s-1.008-1.729-1.008-2.839c0-0.73,0.15-1.397,0.452-2.003s0.72-1.08,1.254-1.422
		s1.139-0.513,1.815-0.513c0.431,0,0.823,0.073,1.176,0.22c0.354,0.147,0.662,0.357,0.928,0.631c0.265,0.274,0.478,0.604,0.64,0.992
		c0.161,0.388,0.272,0.79,0.333,1.205c0.025,0.208,0.038,0.537,0.038,0.988H218c0.009,0.644,0.169,1.164,0.481,1.563
		c0.313,0.397,0.695,0.597,1.147,0.597c0.288,0,0.603-0.103,0.943-0.309C220.912,49.619,221.248,49.309,221.58,48.894z
		 M220.288,46.696c-0.03-0.304-0.092-0.543-0.186-0.718c-0.093-0.175-0.218-0.314-0.375-0.419c-0.158-0.104-0.323-0.155-0.496-0.155
		c-0.182,0-0.356,0.053-0.525,0.159c-0.168,0.106-0.304,0.251-0.405,0.434s-0.167,0.416-0.197,0.699H220.288z"/>
	<path fill="#6D6E70" d="M226.205,43.938v1.102c0.346-0.426,0.645-0.716,0.897-0.87c0.252-0.154,0.495-0.231,0.729-0.231
		c0.211,0,0.4,0.057,0.566,0.171c0.166,0.113,0.298,0.277,0.396,0.49c0.097,0.213,0.146,0.44,0.146,0.684
		c0,0.319-0.09,0.608-0.269,0.867c-0.18,0.258-0.432,0.388-0.755,0.388c-0.087,0-0.163-0.008-0.23-0.023
		c-0.066-0.015-0.208-0.065-0.424-0.151c-0.112-0.041-0.205-0.062-0.279-0.062c-0.112,0-0.298,0.084-0.557,0.251v2.973
		c0,0.253,0.017,0.418,0.049,0.494s0.085,0.132,0.158,0.167c0.073,0.036,0.232,0.054,0.478,0.054h0.284v1.467h-3.986v-1.467h0.332
		c0.238,0,0.387-0.016,0.445-0.046s0.104-0.084,0.134-0.16c0.03-0.075,0.045-0.245,0.045-0.509v-3.489h-0.956v-1.46
		c0.702-0.05,1.433-0.263,2.19-0.638H226.205z"/>
	<path fill="#6D6E70" d="M232.4,43.938v5.617c0,0.269,0.013,0.434,0.038,0.494c0.026,0.061,0.072,0.107,0.14,0.141
		c0.066,0.033,0.216,0.05,0.448,0.05h0.35v1.467h-3.993v-1.467h0.342c0.225,0,0.367-0.015,0.43-0.042
		c0.063-0.028,0.109-0.075,0.14-0.141c0.029-0.066,0.045-0.198,0.045-0.396v-3.626h-0.956v-1.429c0.34-0.021,0.666-0.063,0.979-0.13
		c0.313-0.065,0.592-0.145,0.837-0.235c0.159-0.061,0.355-0.162,0.588-0.304H232.4z M231.354,40.547
		c0.327,0,0.606,0.136,0.837,0.406c0.23,0.271,0.346,0.6,0.346,0.984c0,0.391-0.115,0.722-0.346,0.992
		c-0.23,0.271-0.51,0.407-0.837,0.407c-0.328,0-0.606-0.136-0.837-0.407c-0.23-0.271-0.346-0.6-0.346-0.984
		c0-0.38,0.118-0.708,0.355-0.984C230.763,40.685,231.039,40.547,231.354,40.547z"/>
	<path fill="#6D6E70" d="M236.928,43.938v1.011c0.486-0.391,0.903-0.656,1.25-0.799c0.347-0.142,0.701-0.212,1.063-0.212
		c0.418,0,0.787,0.104,1.108,0.312s0.555,0.467,0.701,0.779c0.146,0.312,0.22,0.754,0.22,1.326v3.162
		c0,0.269,0.017,0.441,0.049,0.517c0.032,0.076,0.082,0.132,0.151,0.168c0.052,0.025,0.207,0.038,0.465,0.038h0.317v1.467h-3.793
		v-1.467c0.288-0.005,0.45-0.013,0.484-0.023c0.107-0.035,0.179-0.093,0.213-0.174c0.035-0.081,0.052-0.256,0.052-0.524v-2.785
		c0-0.358-0.032-0.592-0.097-0.698c-0.104-0.177-0.268-0.265-0.491-0.265c-0.186,0-0.383,0.048-0.595,0.144
		c-0.211,0.097-0.495,0.294-0.853,0.592v3.013c0,0.329,0.03,0.531,0.092,0.607c0.061,0.076,0.206,0.114,0.437,0.114h0.208v1.467
		h-3.754v-1.467h0.188c0.297,0,0.481-0.016,0.553-0.046c0.07-0.03,0.125-0.083,0.161-0.159c0.037-0.076,0.055-0.226,0.055-0.448
		v-3.535h-0.956v-1.468c0.773-0.112,1.498-0.328,2.173-0.646H236.928z"/>
	<path fill="#6D6E70" d="M247.975,44.563c0.229-0.381,0.457-0.652,0.686-0.812c0.228-0.16,0.469-0.24,0.724-0.24
		c0.254,0,0.454,0.087,0.601,0.262s0.22,0.399,0.22,0.673c0,0.248-0.07,0.455-0.21,0.619c-0.14,0.165-0.313,0.247-0.521,0.247
		l-0.213-0.007l-0.22-0.008c-0.116,0-0.232,0.051-0.349,0.152c0.236,0.462,0.355,0.903,0.355,1.325c0,0.447-0.118,0.881-0.353,1.302
		c-0.234,0.422-0.56,0.749-0.976,0.982c-0.416,0.234-0.914,0.351-1.496,0.351c-0.168,0-0.337-0.012-0.507-0.034
		c-0.171-0.022-0.342-0.057-0.514-0.103c-0.116,0.086-0.205,0.17-0.266,0.251c-0.06,0.081-0.09,0.156-0.09,0.228
		c0,0.157,0.138,0.258,0.413,0.304l2.676,0.447c0.797,0.132,1.371,0.383,1.725,0.752c0.354,0.374,0.53,0.82,0.53,1.336
		c0,0.456-0.134,0.877-0.4,1.265c-0.268,0.387-0.704,0.704-1.309,0.952c-0.605,0.248-1.369,0.372-2.291,0.372
		c-0.81,0-1.479-0.092-2.01-0.276c-0.529-0.186-0.905-0.418-1.127-0.699c-0.223-0.281-0.333-0.548-0.333-0.801
		c0-0.289,0.083-0.548,0.249-0.778c0.165-0.23,0.507-0.495,1.023-0.794c-0.318-0.137-0.558-0.304-0.717-0.502
		c-0.216-0.264-0.323-0.535-0.323-0.813c0-0.305,0.101-0.604,0.301-0.897s0.501-0.586,0.901-0.875
		c-0.225-0.162-0.399-0.338-0.526-0.528c-0.128-0.19-0.23-0.422-0.311-0.695c-0.08-0.274-0.119-0.556-0.119-0.845
		c0-0.761,0.264-1.407,0.791-1.939s1.223-0.798,2.084-0.798c0.384,0,0.733,0.052,1.05,0.156S247.725,44.354,247.975,44.563z
		 M245.203,52.195c-0.229,0.207-0.374,0.365-0.437,0.475c-0.063,0.108-0.094,0.229-0.094,0.36c0,0.248,0.173,0.441,0.518,0.58
		c0.344,0.14,0.785,0.209,1.324,0.209c0.392,0,0.738-0.04,1.04-0.121s0.502-0.18,0.602-0.296c0.064-0.076,0.097-0.18,0.097-0.312
		c0-0.146-0.064-0.27-0.194-0.368c-0.129-0.099-0.441-0.184-0.937-0.254L245.203,52.195z M246.14,45.396
		c-0.275,0-0.503,0.119-0.682,0.357s-0.268,0.56-0.268,0.966c0,0.375,0.086,0.674,0.258,0.896c0.173,0.224,0.395,0.335,0.666,0.335
		c0.267,0,0.489-0.115,0.668-0.347c0.179-0.23,0.269-0.528,0.269-0.893c0-0.405-0.085-0.727-0.255-0.962
		C246.625,45.515,246.407,45.396,246.14,45.396z"/>
	<path fill="#6D6E70" d="M261.839,41.102l0.775,3.558l-1.208,0.403c-0.4-0.85-0.854-1.471-1.361-1.864
		c-0.508-0.395-1.048-0.592-1.619-0.592c-0.37,0-0.662,0.089-0.874,0.267c-0.214,0.178-0.319,0.375-0.319,0.594
		c0,0.248,0.097,0.479,0.29,0.692c0.189,0.213,0.539,0.403,1.047,0.57l1.731,0.594c0.961,0.324,1.646,0.756,2.055,1.293
		c0.405,0.543,0.607,1.175,0.607,1.895c0,0.918-0.31,1.694-0.93,2.328c-0.694,0.7-1.556,1.05-2.585,1.05
		c-0.479,0-0.918-0.072-1.318-0.217s-0.818-0.387-1.253-0.726l-0.285,0.76h-0.962l-0.64-4.112l1.208-0.343
		c0.284,0.837,0.727,1.535,1.328,2.095c0.601,0.56,1.261,0.84,1.98,0.84c0.322,0,0.591-0.048,0.804-0.145
		c0.214-0.096,0.374-0.23,0.481-0.402s0.162-0.35,0.162-0.532c0-0.304-0.125-0.564-0.375-0.782
		c-0.254-0.219-0.698-0.434-1.331-0.646l-1.507-0.517c-0.229-0.076-0.537-0.219-0.927-0.43c-0.39-0.21-0.688-0.429-0.897-0.657
		s-0.383-0.521-0.521-0.878s-0.206-0.734-0.206-1.13c0-0.563,0.132-1.08,0.397-1.555c0.265-0.474,0.663-0.857,1.195-1.151
		c0.531-0.294,1.121-0.441,1.767-0.441c0.78,0,1.484,0.238,2.113,0.715l0.252-0.532H261.839z"/>
	<path fill="#6D6E70" d="M269.552,48.894l0.885,1.049c-0.508,0.685-1.026,1.18-1.554,1.486s-1.098,0.46-1.709,0.46
		c-0.982,0-1.81-0.392-2.481-1.175s-1.008-1.729-1.008-2.839c0-0.73,0.15-1.397,0.452-2.003s0.72-1.08,1.254-1.422
		s1.139-0.513,1.815-0.513c0.431,0,0.823,0.073,1.176,0.22c0.354,0.147,0.662,0.357,0.928,0.631c0.265,0.274,0.478,0.604,0.64,0.992
		c0.161,0.388,0.272,0.79,0.333,1.205c0.025,0.208,0.038,0.537,0.038,0.988h-4.349c0.009,0.644,0.169,1.164,0.481,1.563
		c0.313,0.397,0.695,0.597,1.147,0.597c0.288,0,0.603-0.103,0.943-0.309C268.884,49.619,269.22,49.309,269.552,48.894z
		 M268.26,46.696c-0.03-0.304-0.092-0.543-0.186-0.718c-0.093-0.175-0.218-0.314-0.375-0.419c-0.158-0.104-0.323-0.155-0.496-0.155
		c-0.182,0-0.356,0.053-0.525,0.159c-0.168,0.106-0.304,0.251-0.405,0.434s-0.167,0.416-0.197,0.699H268.26z"/>
	<path fill="#6D6E70" d="M274.177,43.938v1.102c0.346-0.426,0.645-0.716,0.897-0.87c0.252-0.154,0.495-0.231,0.729-0.231
		c0.211,0,0.4,0.057,0.566,0.171c0.166,0.113,0.298,0.277,0.396,0.49c0.097,0.213,0.146,0.44,0.146,0.684
		c0,0.319-0.09,0.608-0.269,0.867c-0.18,0.258-0.432,0.388-0.755,0.388c-0.087,0-0.163-0.008-0.23-0.023
		c-0.066-0.015-0.208-0.065-0.424-0.151c-0.112-0.041-0.205-0.062-0.279-0.062c-0.112,0-0.298,0.084-0.557,0.251v2.973
		c0,0.253,0.017,0.418,0.049,0.494s0.085,0.132,0.158,0.167c0.073,0.036,0.232,0.054,0.478,0.054h0.284v1.467h-3.986v-1.467h0.332
		c0.238,0,0.387-0.016,0.445-0.046s0.104-0.084,0.134-0.16c0.03-0.075,0.045-0.245,0.045-0.509v-3.489h-0.956v-1.46
		c0.702-0.05,1.433-0.263,2.19-0.638H274.177z"/>
	<path fill="#6D6E70" d="M281.348,44.119h3.431v1.468c-0.288,0.005-0.456,0.015-0.504,0.03c-0.073,0.025-0.149,0.086-0.229,0.183
		c-0.079,0.096-0.16,0.245-0.242,0.448l-2.113,5.458h-1.737l-2.205-5.625c-0.052-0.127-0.118-0.235-0.2-0.327
		c-0.064-0.071-0.135-0.116-0.213-0.137c-0.052-0.021-0.208-0.03-0.471-0.03v-1.468h3.961v1.468h-0.207
		c-0.254,0-0.411,0.022-0.472,0.068c-0.082,0.061-0.123,0.14-0.123,0.235c0,0.076,0.028,0.195,0.084,0.357l1.003,2.957l1.046-2.957
		c0.061-0.167,0.09-0.291,0.09-0.373c0-0.101-0.045-0.177-0.135-0.228c-0.069-0.041-0.223-0.061-0.459-0.061h-0.304V44.119z"/>
	<path fill="#6D6E70" d="M288.247,43.938v5.617c0,0.269,0.013,0.434,0.038,0.494c0.026,0.061,0.072,0.107,0.14,0.141
		c0.066,0.033,0.216,0.05,0.448,0.05h0.35v1.467h-3.993v-1.467h0.342c0.225,0,0.367-0.015,0.43-0.042
		c0.063-0.028,0.109-0.075,0.14-0.141c0.029-0.066,0.045-0.198,0.045-0.396v-3.626h-0.956v-1.429c0.34-0.021,0.666-0.063,0.979-0.13
		c0.313-0.065,0.592-0.145,0.837-0.235c0.159-0.061,0.355-0.162,0.588-0.304H288.247z M287.2,40.547
		c0.327,0,0.606,0.136,0.837,0.406c0.23,0.271,0.346,0.6,0.346,0.984c0,0.391-0.115,0.722-0.346,0.992
		c-0.23,0.271-0.51,0.407-0.837,0.407c-0.328,0-0.606-0.136-0.837-0.407c-0.23-0.271-0.346-0.6-0.346-0.984
		c0-0.38,0.118-0.708,0.355-0.984C286.609,40.685,286.886,40.547,287.2,40.547z"/>
	<path fill="#6D6E70" d="M295.806,48.833l0.949,0.98c-0.508,0.725-1.035,1.252-1.583,1.581c-0.547,0.329-1.133,0.494-1.757,0.494
		c-1,0-1.834-0.383-2.504-1.148c-0.67-0.765-1.005-1.697-1.005-2.797c0-0.745,0.156-1.427,0.469-2.045
		c0.312-0.618,0.74-1.1,1.285-1.444s1.188-0.517,1.929-0.517c0.888,0,1.612,0.241,2.175,0.726c0.562,0.484,0.843,0.994,0.843,1.531
		c0,0.229-0.044,0.433-0.132,0.612c-0.089,0.18-0.224,0.326-0.404,0.438s-0.372,0.167-0.575,0.167c-0.163,0-0.31-0.038-0.439-0.114
		c-0.129-0.076-0.236-0.172-0.323-0.289c-0.038-0.05-0.113-0.207-0.226-0.471c-0.143-0.33-0.252-0.548-0.33-0.654
		c-0.077-0.106-0.17-0.188-0.277-0.247c-0.107-0.058-0.23-0.087-0.368-0.087c-0.225,0-0.438,0.085-0.644,0.255
		c-0.204,0.169-0.372,0.427-0.504,0.771c-0.131,0.345-0.196,0.729-0.196,1.155c0,0.466,0.077,0.886,0.232,1.258
		c0.155,0.373,0.362,0.655,0.623,0.848s0.548,0.289,0.863,0.289c0.301,0,0.604-0.097,0.91-0.289
		C295.123,49.644,295.452,49.309,295.806,48.833z"/>
	<path fill="#6D6E70" d="M303.364,48.894l0.885,1.049c-0.508,0.685-1.026,1.18-1.554,1.486s-1.098,0.46-1.709,0.46
		c-0.982,0-1.81-0.392-2.481-1.175s-1.008-1.729-1.008-2.839c0-0.73,0.15-1.397,0.452-2.003s0.72-1.08,1.254-1.422
		s1.139-0.513,1.815-0.513c0.431,0,0.823,0.073,1.176,0.22c0.354,0.147,0.662,0.357,0.928,0.631c0.265,0.274,0.478,0.604,0.64,0.992
		c0.161,0.388,0.272,0.79,0.333,1.205c0.025,0.208,0.038,0.537,0.038,0.988h-4.349c0.009,0.644,0.169,1.164,0.481,1.563
		c0.313,0.397,0.695,0.597,1.147,0.597c0.288,0,0.603-0.103,0.943-0.309C302.696,49.619,303.032,49.309,303.364,48.894z
		 M302.072,46.696c-0.03-0.304-0.092-0.543-0.186-0.718c-0.093-0.175-0.218-0.314-0.375-0.419c-0.158-0.104-0.323-0.155-0.496-0.155
		c-0.182,0-0.356,0.053-0.525,0.159c-0.168,0.106-0.304,0.251-0.405,0.434s-0.167,0.416-0.197,0.699H302.072z"/>
	<path fill="#6D6E70" d="M316.512,41.102h0.916l0.885,3.809l-1.201,0.41c-0.401-0.907-0.778-1.551-1.131-1.931
		c-0.491-0.521-1.023-0.783-1.597-0.783c-0.417,0-0.809,0.137-1.172,0.411c-0.364,0.273-0.653,0.676-0.866,1.208
		s-0.32,1.156-0.32,1.87c0,1.09,0.245,2.027,0.733,2.813c0.489,0.786,1.13,1.179,1.923,1.179c0.504,0,0.988-0.17,1.454-0.51
		c0.581-0.42,1.083-0.985,1.505-1.694l1.002,0.874c-0.65,1.044-1.244,1.771-1.782,2.182c-0.831,0.634-1.757,0.95-2.776,0.95
		c-0.849,0-1.615-0.239-2.302-0.719c-0.687-0.479-1.234-1.148-1.644-2.011c-0.409-0.861-0.613-1.802-0.613-2.82
		c0-1.014,0.199-1.937,0.597-2.771c0.398-0.834,0.94-1.483,1.627-1.95c0.687-0.466,1.452-0.699,2.296-0.699
		c0.856,0,1.607,0.213,2.254,0.639L316.512,41.102z"/>
	<path fill="#6D6E70" d="M322.873,43.938c0.736,0,1.378,0.169,1.925,0.509c0.548,0.34,0.969,0.802,1.264,1.388
		c0.295,0.585,0.442,1.271,0.442,2.056c0,1.187-0.327,2.149-0.982,2.889c-0.654,0.74-1.528,1.11-2.623,1.11
		c-1.115,0-2.003-0.373-2.662-1.117c-0.638-0.71-0.956-1.67-0.956-2.882c0-0.795,0.146-1.479,0.436-2.052
		c0.291-0.573,0.712-1.033,1.264-1.38C321.531,44.11,322.162,43.938,322.873,43.938z M322.898,45.602
		c-0.245,0-0.476,0.087-0.691,0.259c-0.215,0.172-0.382,0.426-0.501,0.76c-0.118,0.335-0.178,0.761-0.178,1.277
		c0,0.532,0.059,0.973,0.175,1.323c0.116,0.35,0.276,0.607,0.481,0.775c0.204,0.167,0.43,0.25,0.675,0.25
		c0.38,0,0.705-0.188,0.977-0.565c0.271-0.378,0.406-0.965,0.406-1.761c0-0.77-0.126-1.349-0.378-1.736
		S323.29,45.602,322.898,45.602z"/>
	<path fill="#6D6E70" d="M330.367,43.938v1.011c0.374-0.34,0.756-0.593,1.143-0.761c0.388-0.167,0.781-0.25,1.182-0.25
		c0.254,0,0.498,0.044,0.733,0.133c0.234,0.089,0.43,0.204,0.587,0.346s0.301,0.334,0.43,0.578c0.417-0.375,0.817-0.646,1.201-0.81
		c0.383-0.165,0.772-0.247,1.168-0.247c0.345,0,0.656,0.073,0.937,0.22c0.279,0.147,0.507,0.346,0.682,0.597
		c0.174,0.251,0.287,0.523,0.339,0.817c0.034,0.183,0.052,0.448,0.052,0.798v3.147c0,0.259,0.016,0.426,0.048,0.502
		s0.087,0.134,0.165,0.175c0.056,0.03,0.213,0.046,0.472,0.046h0.284v1.467h-3.767v-1.467c0.277,0,0.452-0.017,0.524-0.05
		c0.073-0.033,0.126-0.086,0.16-0.16c0.034-0.073,0.052-0.234,0.052-0.483v-2.764c0-0.32-0.019-0.532-0.056-0.636
		c-0.036-0.104-0.107-0.193-0.214-0.267c-0.105-0.074-0.231-0.11-0.379-0.11c-0.169,0-0.35,0.044-0.544,0.133
		c-0.195,0.089-0.482,0.283-0.862,0.582v2.978c0,0.295,0.017,0.48,0.051,0.557c0.034,0.075,0.094,0.134,0.18,0.175
		c0.051,0.025,0.22,0.041,0.506,0.046v1.467h-3.534v-1.467c0.293-0.005,0.472-0.023,0.536-0.054s0.114-0.086,0.148-0.167
		s0.052-0.266,0.052-0.554v-2.604c0-0.399-0.03-0.665-0.091-0.796c-0.095-0.197-0.264-0.296-0.506-0.296
		c-0.12,0-0.248,0.018-0.382,0.053s-0.266,0.091-0.396,0.167c-0.069,0.04-0.246,0.172-0.531,0.395l-0.149,0.114v2.967
		c0,0.283,0.013,0.461,0.039,0.531c0.025,0.071,0.076,0.129,0.151,0.175c0.075,0.045,0.206,0.068,0.391,0.068h0.175v1.467h-3.773
		v-1.467h0.252c0.268,0,0.434-0.017,0.501-0.05c0.066-0.032,0.117-0.091,0.151-0.175c0.035-0.083,0.052-0.267,0.052-0.55v-3.414
		h-0.956v-1.468c0.79-0.087,1.52-0.303,2.189-0.646H330.367z"/>
	<path fill="#6D6E70" d="M343.373,43.938v0.844c0.49-0.355,0.866-0.584,1.127-0.688c0.261-0.104,0.54-0.155,0.837-0.155
		c0.754,0,1.368,0.326,1.842,0.98c0.543,0.75,0.813,1.708,0.813,2.873c0,1.115-0.236,2.048-0.71,2.798
		c-0.543,0.866-1.271,1.3-2.185,1.3c-0.293,0-0.549-0.039-0.769-0.118c-0.22-0.078-0.459-0.222-0.718-0.43v1.528
		c0,0.304,0.014,0.486,0.039,0.547c0.03,0.076,0.079,0.131,0.146,0.164s0.233,0.049,0.501,0.049h0.304v1.468h-4.007v-1.468h0.219
		c0.295,0,0.474-0.014,0.536-0.041c0.062-0.028,0.111-0.087,0.147-0.175c0.036-0.089,0.055-0.271,0.055-0.544v-6.812h-0.957v-1.475
		c0.464-0.065,0.858-0.146,1.184-0.243c0.326-0.096,0.656-0.23,0.991-0.402H343.373z M343.611,46.309v2.479
		c0,0.391,0.031,0.668,0.094,0.832c0.063,0.165,0.171,0.299,0.323,0.403c0.153,0.104,0.329,0.155,0.526,0.155
		c0.35,0,0.639-0.189,0.869-0.569c0.23-0.381,0.346-0.958,0.346-1.733c0-0.72-0.1-1.253-0.3-1.601
		c-0.2-0.347-0.447-0.521-0.74-0.521C344.394,45.754,344.021,45.938,343.611,46.309z"/>
	<path fill="#6D6E70" d="M352.901,47.107v-0.563c0-0.335-0.023-0.565-0.071-0.692c-0.047-0.127-0.134-0.231-0.259-0.315
		s-0.279-0.125-0.465-0.125c-0.143,0-0.271,0.027-0.388,0.083s-0.209,0.127-0.277,0.213c-0.069,0.087-0.149,0.254-0.239,0.502
		c-0.116,0.314-0.256,0.54-0.417,0.677s-0.353,0.205-0.572,0.205c-0.275,0-0.502-0.102-0.678-0.304
		c-0.177-0.203-0.266-0.454-0.266-0.753c0-0.34,0.091-0.641,0.271-0.904c0.241-0.35,0.602-0.637,1.079-0.859
		c0.479-0.223,1.017-0.334,1.615-0.334s1.108,0.113,1.528,0.342c0.42,0.228,0.713,0.5,0.879,0.817
		c0.166,0.316,0.249,0.799,0.249,1.448v2.721c0,0.335,0.015,0.549,0.045,0.643s0.095,0.176,0.194,0.247
		c0.099,0.071,0.209,0.106,0.329,0.106c0.121,0,0.282-0.04,0.484-0.122v1.482c-0.366,0.137-0.717,0.206-1.053,0.206
		c-0.396,0-0.734-0.076-1.015-0.229s-0.515-0.38-0.704-0.685c-0.431,0.33-0.822,0.564-1.173,0.703c-0.352,0.14-0.69,0.21-1.018,0.21
		c-0.616,0-1.114-0.204-1.493-0.612s-0.568-0.911-0.568-1.509c0-0.34,0.065-0.651,0.197-0.936c0.131-0.283,0.327-0.532,0.588-0.745
		s0.663-0.401,1.208-0.565C351.459,47.296,352.121,47.178,352.901,47.107z M352.901,48.369c-0.564,0.096-0.963,0.193-1.195,0.292
		c-0.232,0.1-0.398,0.224-0.498,0.373c-0.099,0.149-0.148,0.303-0.148,0.46c0,0.202,0.064,0.372,0.194,0.509
		c0.129,0.137,0.304,0.206,0.523,0.206c0.142,0,0.307-0.044,0.494-0.13s0.397-0.213,0.63-0.38V48.369z"/>
	<path fill="#6D6E70" d="M359.472,43.938v1.011c0.486-0.391,0.903-0.656,1.25-0.799c0.347-0.142,0.701-0.212,1.063-0.212
		c0.418,0,0.787,0.104,1.108,0.312s0.555,0.467,0.701,0.779c0.146,0.312,0.22,0.754,0.22,1.326v3.162
		c0,0.269,0.017,0.441,0.049,0.517c0.032,0.076,0.082,0.132,0.151,0.168c0.052,0.025,0.207,0.038,0.465,0.038h0.317v1.467h-3.793
		v-1.467c0.288-0.005,0.45-0.013,0.484-0.023c0.107-0.035,0.179-0.093,0.213-0.174c0.035-0.081,0.052-0.256,0.052-0.524v-2.785
		c0-0.358-0.032-0.592-0.097-0.698c-0.104-0.177-0.268-0.265-0.491-0.265c-0.186,0-0.383,0.048-0.595,0.144
		c-0.211,0.097-0.495,0.294-0.853,0.592v3.013c0,0.329,0.03,0.531,0.092,0.607c0.061,0.076,0.206,0.114,0.437,0.114h0.208v1.467
		h-3.754v-1.467h0.188c0.297,0,0.481-0.016,0.553-0.046c0.07-0.03,0.125-0.083,0.161-0.159c0.037-0.076,0.055-0.226,0.055-0.448
		v-3.535h-0.956v-1.468c0.773-0.112,1.498-0.328,2.173-0.646H359.472z"/>
	<path fill="#6D6E70" d="M365.149,44.119h4.032v1.468h-0.267c-0.242,0-0.395,0.019-0.457,0.057
		c-0.063,0.038-0.094,0.093-0.094,0.164c0,0.062,0.045,0.221,0.135,0.48l0.971,2.747l1.017-2.749
		c0.078-0.208,0.116-0.357,0.116-0.448c0-0.081-0.032-0.144-0.097-0.187s-0.213-0.064-0.446-0.064h-0.368v-1.468h3.489v1.468
		c-0.308,0.005-0.487,0.018-0.54,0.038c-0.073,0.02-0.134,0.058-0.182,0.113c-0.048,0.057-0.126,0.211-0.234,0.464l-2.921,7.047
		c-0.306,0.735-0.64,1.249-1.001,1.543c-0.366,0.294-0.802,0.441-1.306,0.441c-0.491,0-0.889-0.153-1.192-0.46
		s-0.455-0.652-0.455-1.038c0-0.304,0.091-0.566,0.271-0.786c0.181-0.221,0.398-0.331,0.652-0.331c0.173,0,0.341,0.051,0.504,0.152
		c0.107,0.065,0.218,0.177,0.33,0.334c0.068,0.102,0.123,0.166,0.164,0.194c0.041,0.027,0.081,0.042,0.12,0.042
		c0.09,0,0.179-0.051,0.265-0.152c0.129-0.157,0.275-0.443,0.439-0.859l0.245-0.623l-2.196-5.42
		c-0.107-0.273-0.19-0.446-0.249-0.517c-0.058-0.071-0.124-0.119-0.197-0.145s-0.256-0.038-0.549-0.038V44.119z"/>
</g>
<g>
	<g>
		<path fill="#005281" d="M82.14,2.606h5.801l7.75,22.153c0.419,1.18,0.793,1.906,1.12,2.18c0.327,0.275,0.929,0.405,1.805,0.391
			v3.97H86.398v-3.97l0.741-0.021c0.679,0,1.154-0.1,1.426-0.299c0.271-0.198,0.408-0.442,0.408-0.73
			c0-0.247-0.118-0.754-0.352-1.522l-0.77-2.612h-7.852l-0.968,2.9c-0.197,0.617-0.296,1.021-0.296,1.213
			c0,0.22,0.071,0.418,0.213,0.597c0.142,0.178,0.373,0.308,0.694,0.39c0.21,0.056,0.79,0.083,1.74,0.083v3.97h-9.997v-3.97
			c0.642,0,1.11-0.062,1.406-0.186c0.296-0.123,0.54-0.308,0.731-0.555c0.191-0.247,0.404-0.707,0.639-1.378L82.14,2.606z
			 M81.365,18.054h5.129l-2.499-7.88L81.365,18.054z"/>
		<path fill="#005281" d="M108.262,10.279v2.982c0.99-1.152,1.846-1.937,2.57-2.355c0.724-0.418,1.419-0.627,2.087-0.627
			c0.606,0,1.147,0.154,1.624,0.463c0.476,0.309,0.854,0.75,1.132,1.327c0.278,0.576,0.418,1.193,0.418,1.851
			c0,0.864-0.257,1.646-0.771,2.345c-0.514,0.699-1.234,1.049-2.162,1.049c-0.248,0-0.467-0.021-0.659-0.062
			c-0.191-0.041-0.597-0.178-1.215-0.412c-0.322-0.109-0.588-0.165-0.798-0.165c-0.322,0-0.854,0.227-1.596,0.679v8.043
			c0,0.686,0.046,1.131,0.139,1.337c0.092,0.206,0.243,0.357,0.453,0.453s0.667,0.144,1.37,0.144h0.814v3.97h-11.422v-3.97h0.95
			c0.683,0,1.109-0.042,1.277-0.124s0.295-0.226,0.382-0.432c0.086-0.206,0.13-0.665,0.13-1.378v-9.441h-2.74v-3.949
			c2.011-0.137,4.103-0.713,6.275-1.728H108.262z"/>
		<path fill="#005281" d="M134.401,23.525l2.721,2.654c-1.457,1.961-2.968,3.387-4.536,4.278c-1.567,0.892-3.246,1.338-5.035,1.338
			c-2.864,0-5.255-1.036-7.174-3.106c-1.919-2.07-2.879-4.594-2.879-7.569c0-2.016,0.447-3.86,1.342-5.533
			c0.895-1.673,2.123-2.976,3.684-3.908c1.561-0.933,3.403-1.399,5.526-1.399c2.542,0,4.619,0.655,6.229,1.964
			c1.611,1.31,2.416,2.691,2.416,4.145c0,0.617-0.127,1.169-0.379,1.656c-0.253,0.487-0.639,0.881-1.157,1.183
			s-1.068,0.453-1.647,0.453c-0.469,0-0.889-0.103-1.259-0.309c-0.371-0.206-0.679-0.466-0.926-0.782
			c-0.111-0.137-0.327-0.562-0.648-1.275c-0.407-0.891-0.722-1.481-0.944-1.769c-0.222-0.288-0.487-0.511-0.796-0.668
			c-0.309-0.157-0.66-0.236-1.055-0.236c-0.642,0-1.256,0.229-1.842,0.689c-0.586,0.459-1.068,1.155-1.444,2.088
			s-0.564,1.975-0.564,3.126c0,1.262,0.222,2.396,0.667,3.404s1.04,1.772,1.787,2.293c0.746,0.521,1.57,0.782,2.471,0.782
			c0.864,0,1.734-0.26,2.61-0.782C132.445,25.72,133.389,24.814,134.401,23.525z"/>
		<path fill="#005281" d="M148.286,1.105v11.416c1.222-0.823,2.302-1.402,3.24-1.738c0.938-0.336,1.845-0.504,2.722-0.504
			c1.172,0,2.218,0.278,3.138,0.833s1.595,1.251,2.027,2.088c0.432,0.836,0.647,1.954,0.647,3.353v8.578
			c0,0.836,0.031,1.344,0.093,1.522c0.099,0.261,0.284,0.453,0.555,0.577c0.161,0.068,0.599,0.103,1.314,0.103h0.87v3.97h-10.904
			v-3.97h0.556c0.53,0,0.895-0.055,1.092-0.165c0.197-0.109,0.333-0.264,0.408-0.462c0.074-0.199,0.111-0.682,0.111-1.45v-7.097
			c0-0.932-0.052-1.553-0.157-1.861c-0.104-0.309-0.292-0.562-0.563-0.761c-0.271-0.199-0.609-0.298-1.015-0.298
			c-0.578,0-1.184,0.131-1.818,0.391c-0.633,0.261-1.405,0.74-2.316,1.44v8.187c0,0.782,0.037,1.269,0.11,1.46
			c0.073,0.192,0.214,0.343,0.422,0.452c0.208,0.11,0.6,0.165,1.175,0.165h0.404v3.97h-10.756v-3.97h1.037
			c0.604,0,0.99-0.044,1.157-0.134c0.167-0.09,0.293-0.241,0.379-0.453c0.086-0.213,0.129-0.635,0.129-1.267V6.823h-2.703v-3.97
			c1.024-0.068,2.175-0.264,3.453-0.586s2.428-0.71,3.453-1.162H148.286z"/>
		<path fill="#005281" d="M173.981,10.279v15.201c0,0.727,0.037,1.172,0.111,1.337c0.074,0.165,0.207,0.291,0.398,0.381
			s0.621,0.134,1.287,0.134h1v3.97h-11.441v-3.97h0.981c0.642,0,1.052-0.038,1.231-0.113c0.179-0.075,0.312-0.202,0.398-0.38
			s0.129-0.535,0.129-1.07v-9.812h-2.74v-3.867c0.975-0.055,1.91-0.171,2.805-0.35c0.895-0.178,1.694-0.391,2.397-0.638
			c0.457-0.165,1.018-0.438,1.685-0.823H173.981z M170.982,1.105c0.938,0,1.737,0.367,2.397,1.1c0.66,0.734,0.99,1.622,0.99,2.664
			c0,1.056-0.33,1.951-0.99,2.684c-0.661,0.734-1.46,1.101-2.397,1.101c-0.938,0-1.737-0.367-2.397-1.101
			c-0.66-0.733-0.99-1.622-0.99-2.664c0-1.028,0.339-1.916,1.018-2.664S170.081,1.105,170.982,1.105z"/>
		<path fill="#005281" d="M187.255,3.717v7.055h5.961v4.381h-5.961v7.158c0,1.618,0.077,2.657,0.231,3.116s0.441,0.826,0.861,1.101
			c0.556,0.37,1.191,0.555,1.907,0.555c1.271,0,2.536-0.459,3.795-1.378v4.401c-1.074,0.563-2.046,0.957-2.916,1.183
			c-0.87,0.227-1.811,0.34-2.823,0.34c-1.148,0-2.163-0.161-3.045-0.483c-0.883-0.322-1.636-0.781-2.259-1.378
			s-1.055-1.23-1.296-1.903c-0.24-0.672-0.361-1.645-0.361-2.92v-9.791h-2.777v-3.949c0.987-0.356,1.833-0.867,2.536-1.533
			c0.704-0.665,1.268-1.463,1.694-2.396s0.719-2.119,0.879-3.559H187.255z"/>
		<path fill="#005281" d="M213.117,23.69l2.535,2.839c-1.457,1.851-2.939,3.192-4.451,4.021c-1.514,0.83-3.145,1.245-4.896,1.245
			c-2.814,0-5.184-1.06-7.109-3.179c-1.926-2.118-2.889-4.679-2.889-7.683c0-1.975,0.432-3.781,1.297-5.42
			c0.863-1.639,2.061-2.921,3.59-3.847c1.531-0.925,3.266-1.388,5.203-1.388c1.234,0,2.357,0.199,3.369,0.597
			s1.898,0.967,2.656,1.707c0.76,0.741,1.371,1.635,1.832,2.685c0.463,1.049,0.781,2.136,0.955,3.26
			c0.074,0.562,0.109,1.454,0.109,2.674h-12.457c0.023,1.742,0.482,3.151,1.379,4.227c0.895,1.077,1.99,1.615,3.285,1.615
			c0.826,0,1.729-0.278,2.703-0.833C211.203,25.654,212.166,24.814,213.117,23.69z M209.414,17.746
			c-0.088-0.823-0.264-1.471-0.529-1.944s-0.625-0.85-1.076-1.131c-0.453-0.281-0.926-0.422-1.422-0.422
			c-0.52,0-1.021,0.144-1.504,0.432s-0.869,0.679-1.16,1.172s-0.48,1.125-0.566,1.893H209.414z"/>
		<path fill="#005281" d="M235.257,23.525l2.722,2.654c-1.456,1.961-2.969,3.387-4.535,4.278c-1.568,0.892-3.246,1.338-5.036,1.338
			c-2.863,0-5.255-1.036-7.173-3.106c-1.92-2.07-2.879-4.594-2.879-7.569c0-2.016,0.447-3.86,1.342-5.533
			c0.895-1.673,2.123-2.976,3.684-3.908c1.562-0.933,3.403-1.399,5.526-1.399c2.542,0,4.619,0.655,6.229,1.964
			s2.416,2.691,2.416,4.145c0,0.617-0.127,1.169-0.38,1.656s-0.639,0.881-1.156,1.183c-0.519,0.302-1.068,0.453-1.648,0.453
			c-0.469,0-0.889-0.103-1.259-0.309s-0.679-0.466-0.926-0.782c-0.11-0.137-0.327-0.562-0.647-1.275
			c-0.407-0.891-0.722-1.481-0.944-1.769c-0.222-0.288-0.487-0.511-0.796-0.668c-0.309-0.157-0.66-0.236-1.056-0.236
			c-0.642,0-1.256,0.229-1.842,0.689s-1.067,1.155-1.443,2.088c-0.377,0.933-0.565,1.975-0.565,3.126
			c0,1.262,0.223,2.396,0.667,3.404s1.039,1.772,1.786,2.293c0.747,0.521,1.57,0.782,2.472,0.782c0.863,0,1.733-0.26,2.61-0.782
			C233.301,25.72,234.245,24.814,235.257,23.525z"/>
		<path fill="#005281" d="M248.679,3.717v7.055h5.961v4.381h-5.961v7.158c0,1.618,0.077,2.657,0.231,3.116s0.441,0.826,0.861,1.101
			c0.555,0.37,1.19,0.555,1.906,0.555c1.271,0,2.536-0.459,3.795-1.378v4.401c-1.073,0.563-2.045,0.957-2.915,1.183
			c-0.87,0.227-1.812,0.34-2.823,0.34c-1.147,0-2.163-0.161-3.046-0.483c-0.882-0.322-1.635-0.781-2.258-1.378
			c-0.624-0.597-1.056-1.23-1.296-1.903c-0.241-0.672-0.361-1.645-0.361-2.92v-9.791h-2.776v-3.949
			c0.986-0.356,1.832-0.867,2.536-1.533c0.703-0.665,1.268-1.463,1.693-2.396s0.719-2.119,0.88-3.559H248.679z"/>
	</g>
	<g>
		<path fill="#0098D0" d="M273.001,15.997h12.607v4.011h-0.944c-0.617,0-1.04,0.062-1.269,0.185s-0.397,0.319-0.509,0.586
			c-0.111,0.268-0.166,0.779-0.166,1.533v8.989h-3.793l-0.98-2.057c-1.159,0.851-2.361,1.487-3.607,1.913
			c-1.245,0.425-2.54,0.638-3.885,0.638c-2.355,0-4.501-0.638-6.438-1.913s-3.469-3.058-4.597-5.349
			c-1.129-2.29-1.692-4.854-1.692-7.693c0-2.811,0.558-5.327,1.674-7.549s2.676-3.973,4.68-5.255
			c2.005-1.282,4.178-1.923,6.521-1.923c1.135,0,2.266,0.161,3.395,0.483c1.128,0.322,2.094,0.75,2.895,1.286l0.685-1.275h2.59
			l2.331,9.503l-3.406,1.234c-1.16-2.084-2.076-3.504-2.749-4.258c-0.673-0.754-1.444-1.344-2.314-1.769
			c-0.87-0.425-1.719-0.638-2.545-0.638c-1.173,0-2.268,0.377-3.286,1.131c-1.019,0.754-1.823,1.854-2.416,3.301
			s-0.889,3.199-0.889,5.255c0,2.263,0.324,4.224,0.972,5.883c0.648,1.66,1.497,2.89,2.546,3.692s2.203,1.203,3.462,1.203
			c0.889,0,1.73-0.198,2.526-0.596c0.797-0.397,1.343-0.843,1.639-1.337s0.444-1.159,0.444-1.996v-1.049
			c0-0.727-0.043-1.186-0.13-1.378c-0.136-0.274-0.317-0.473-0.546-0.596s-0.676-0.185-1.342-0.185h-1.463V15.997z"/>
		<path fill="#0098D0" d="M295.55,10.279v2.982c0.989-1.152,1.846-1.937,2.569-2.355s1.42-0.627,2.088-0.627
			c0.606,0,1.147,0.154,1.624,0.463c0.476,0.309,0.854,0.75,1.132,1.327c0.278,0.576,0.417,1.193,0.417,1.851
			c0,0.864-0.257,1.646-0.77,2.345c-0.515,0.699-1.234,1.049-2.163,1.049c-0.247,0-0.467-0.021-0.658-0.062
			c-0.192-0.041-0.598-0.178-1.216-0.412c-0.322-0.109-0.588-0.165-0.798-0.165c-0.322,0-0.854,0.227-1.597,0.679v8.043
			c0,0.686,0.047,1.131,0.139,1.337c0.093,0.206,0.244,0.357,0.454,0.453c0.209,0.096,0.666,0.144,1.37,0.144h0.814v3.97h-11.423
			v-3.97h0.951c0.683,0,1.108-0.042,1.276-0.124s0.295-0.226,0.382-0.432s0.131-0.665,0.131-1.378v-9.441h-2.74v-3.949
			c2.012-0.137,4.104-0.713,6.276-1.728H295.55z"/>
		<path fill="#0098D0" d="M315.08,10.279c2.11,0,3.949,0.459,5.517,1.378c1.567,0.919,2.773,2.17,3.619,3.754
			c0.845,1.584,1.268,3.439,1.268,5.564c0,3.208-0.938,5.814-2.813,7.816c-1.876,2.003-4.382,3.004-7.516,3.004
			c-3.197,0-5.739-1.009-7.628-3.024c-1.826-1.919-2.739-4.518-2.739-7.795c0-2.153,0.416-4.004,1.249-5.554
			c0.833-1.55,2.04-2.794,3.619-3.733C311.235,10.749,313.043,10.279,315.08,10.279z M315.154,14.784
			c-0.704,0-1.364,0.233-1.981,0.699s-1.096,1.152-1.435,2.057c-0.34,0.905-0.509,2.057-0.509,3.456c0,1.44,0.166,2.633,0.5,3.579
			c0.333,0.946,0.792,1.646,1.379,2.098c0.586,0.452,1.23,0.679,1.935,0.679c1.086,0,2.018-0.511,2.795-1.533
			c0.777-1.021,1.167-2.608,1.167-4.762c0-2.084-0.361-3.651-1.083-4.7C317.199,15.308,316.276,14.784,315.154,14.784z"/>
		<path fill="#0098D0" d="M327.854,10.772l8.646-0.185v13.35c0,0.946,0.052,1.577,0.157,1.892c0.104,0.316,0.296,0.573,0.573,0.771
			c0.278,0.199,0.627,0.298,1.046,0.298c0.617,0,1.271-0.165,1.963-0.494c0.271-0.137,0.993-0.624,2.166-1.46v-8.022
			c0-0.7-0.05-1.179-0.149-1.44c-0.1-0.26-0.242-0.449-0.429-0.566c-0.187-0.116-0.547-0.175-1.081-0.175h-1.081v-3.97l8.683-0.185
			v14.728c0,0.768,0.04,1.251,0.12,1.45c0.08,0.199,0.21,0.342,0.389,0.432s0.608,0.134,1.287,0.134h0.98v3.97l-8.127,0.247V29.12
			c-1.084,0.892-2.175,1.561-3.271,2.006s-2.199,0.669-3.309,0.669c-0.888,0-1.704-0.162-2.449-0.483
			c-0.746-0.322-1.371-0.755-1.877-1.296c-0.505-0.542-0.881-1.176-1.127-1.903c-0.246-0.727-0.37-1.659-0.37-2.797V16.84
			c0-0.782-0.04-1.275-0.121-1.481s-0.215-0.36-0.4-0.463c-0.187-0.103-0.584-0.154-1.193-0.154h-1.024V10.772z"/>
		<path fill="#0098D0" d="M361.306,10.279v2.283c1.407-0.959,2.483-1.581,3.23-1.861c0.747-0.281,1.546-0.422,2.397-0.422
			c2.159,0,3.918,0.884,5.276,2.653c1.555,2.03,2.332,4.622,2.332,7.775c0,3.017-0.679,5.54-2.036,7.57
			c-1.555,2.345-3.641,3.518-6.257,3.518c-0.84,0-1.574-0.106-2.203-0.319c-0.63-0.213-1.314-0.6-2.055-1.162v4.135
			c0,0.822,0.036,1.316,0.11,1.48c0.087,0.206,0.226,0.354,0.417,0.442s0.669,0.134,1.435,0.134h0.87v3.97h-11.478v-3.97h0.625
			c0.846,0,1.357-0.038,1.535-0.113s0.318-0.233,0.423-0.473c0.104-0.24,0.156-0.73,0.156-1.471V16.018h-2.739v-3.99
			c1.326-0.178,2.456-0.398,3.39-0.658c0.935-0.261,1.88-0.624,2.838-1.09H361.306z M361.991,16.696v6.706
			c0,1.056,0.089,1.807,0.268,2.252c0.179,0.446,0.487,0.81,0.926,1.09s0.941,0.421,1.509,0.421c1,0,1.83-0.514,2.49-1.542
			s0.99-2.592,0.99-4.69c0-1.947-0.287-3.39-0.86-4.33c-0.574-0.939-1.281-1.409-2.12-1.409
			C364.23,15.195,363.163,15.696,361.991,16.696z"/>
	</g>
</g>
</svg>
