<?xml version="1.0" encoding="utf-8"?>
<!-- Generator: Adobe Illustrator 19.2.1, SVG Export Plug-In . SVG Version: 6.00 Build 0)  -->
<svg version="1.1" id="Layer_1" xmlns="http://www.w3.org/2000/svg" xmlns:xlink="http://www.w3.org/1999/xlink" x="0px" y="0px"
	 viewBox="0 0 368 116" style="enable-background:new 0 0 368 116;" xml:space="preserve">
<style type="text/css">
	.st0{fill:#F22B04;}
	.st1{fill:#F6CC16;}
	.st2{fill:#F96422;}
	.st3{fill:#F6952F;}
	.st4{fill:#4A4849;}
	.st5{opacity:0.2;}
	.st6{opacity:0.3;}
	.st7{fill:none;stroke:#000000;stroke-miterlimit:10;}
	.st8{opacity:0.5;}
</style>
<path class="st0" d="M111.2,65.8c0-33.1,26.8-60,60-60c19.7,0,37.1,9.5,48,24.1C208.7,12,189.3,0,167,0c-33.4,0-60.5,27.1-60.5,60.5
	c0,17.1,7.1,32.6,18.6,43.6C116.4,93.7,111.2,80.4,111.2,65.8z"/>
<path class="st1" d="M169.6,106.7c-20.5-9.2-29.6-33.2-20.4-53.7c5.5-12.1,16.2-20.3,28.2-23c-14,1.5-26.8,10.2-33,23.9
	c-9.3,20.6-0.1,44.9,20.6,54.2c10.6,4.8,22.1,4.6,32.1,0.6C188.2,111.3,178.6,110.8,169.6,106.7z"/>
<path class="st2" d="M126.9,85.1c-10.2-27.3,2.3-57.2,28-66.8c15.3-5.7,31.7-3,44.7,5.9c-13.7-11.7-32.5-16-49.8-9.5
	c-25.9,9.7-38.6,39.9-28.3,67.5c5.3,14.1,15.6,24.8,27.9,30.5C139.6,106.5,131.4,97.1,126.9,85.1z"/>
<path class="st3" d="M148.2,103c-18.2-17.9-18.3-47.4-0.2-65.9c10.8-11,25.6-15.6,39.6-13.8c-15.6-3.8-32.9,0.5-45.1,13
	c-18.3,18.7-18.3,48.4,0.2,66.5c9.4,9.3,21.9,13.6,34.2,13.2C166.4,115.2,156.2,110.9,148.2,103z"/>
<g>
	<path class="st4" d="M163.5,93.5c-0.2,0.6-0.7,1.6-1,2.1c-0.4,0.1-1.2,0.3-2.2,0.3c-2.2,0-3.8-1.2-3.8-3.5c0-3.1,2.5-4.9,5.4-4.9
		c1.1,0,1.9,0.3,2.2,0.3c0,0.7-0.1,1.4-0.1,2.1l-0.4,0c-0.2-1.5-0.9-2-1.9-2c-1.8,0-3.3,1.9-3.3,4.3c0,1.9,0.8,3.1,2.1,3.1
		c1,0,1.7-0.7,2.7-2L163.5,93.5z"/>
	<path class="st4" d="M164.1,91.4c0.7-0.7,1.6-1.3,2.1-1.3c0.4,0,0.5,0.4,0.3,1.4l-0.1,0.6h0c0.6-1.1,1.2-2,1.8-2
		c0.2,0,0.5,0.1,0.6,0.3c0.2,0.2,0.1,0.5,0,0.8c-0.2,0.2-0.3,0.4-0.4,0.5c-0.1,0.1-0.2,0.1-0.3,0c-0.2-0.1-0.4-0.2-0.5-0.2
		c-0.1,0-0.2,0-0.5,0.4c-0.3,0.5-0.6,1-0.7,1.4c-0.2,0.7-0.4,1.7-0.5,2.4c-0.5,0-1,0.2-1.4,0.3l-0.1-0.1c0.3-1.3,0.6-2.6,0.8-3.9
		c0.1-0.4,0.1-0.6,0-0.6c-0.1,0-0.5,0.2-0.7,0.4L164.1,91.4z"/>
	<path class="st4" d="M173.3,94.3c-1.1,1.2-2.1,1.6-2.9,1.6c-0.7,0-1.5-0.4-1.5-1.9c0-1.2,0.5-2.4,1.4-3.1c0.5-0.4,1.4-0.8,2-0.8
		c0.9,0,1.3,0.5,1.3,1.1c0,1.3-2,1.9-3.2,2.2c0,0.1,0,0.2,0,0.3c0,0.6,0.2,1.2,0.9,1.2c0.5,0,1.2-0.3,1.8-0.9L173.3,94.3z
		 M171.4,90.8c-0.3,0.2-0.8,0.9-0.9,2.1c1.3-0.4,1.8-0.9,1.8-1.6c0-0.5-0.3-0.7-0.5-0.7C171.7,90.7,171.5,90.7,171.4,90.8z"/>
	<path class="st4" d="M179.9,94.4c-0.8,1-1.8,1.5-2.2,1.5c-0.3,0-0.6-0.2-0.4-1.3l0.1-0.7h0c-0.4,0.6-0.9,1-1.2,1.3
		c-0.4,0.3-0.9,0.6-1.3,0.6c-0.5,0-0.9-0.5-0.9-1.5c0-1.2,0.5-2.4,1.4-3.2c0.6-0.5,1.6-1.1,2.7-1.1c0.2,0,0.5,0,0.8,0.1
		c0.3,0.1,0.5,0.1,0.7,0.1l0.1,0c-0.3,1.1-0.6,2.4-0.8,3.9c-0.1,0.4,0,0.5,0,0.5c0.1,0,0.5-0.3,0.8-0.6L179.9,94.4z M177.6,92.9
		c0.1-0.6,0.4-1.7,0.4-2c-0.2-0.1-0.5-0.2-0.7-0.2c-0.2,0-0.4,0-0.5,0.2c-0.8,0.6-1.2,2.1-1.2,3.2c0,0.5,0.1,0.7,0.3,0.7
		C176.3,94.8,177.4,93.4,177.6,92.9z"/>
	<path class="st4" d="M184,90.8l-1.2,0.1l-0.6,3.2c-0.1,0.5-0.1,0.7,0.1,0.7c0.2,0,0.7-0.3,1-0.6l0.2,0.3c-0.5,0.7-1.6,1.4-2.3,1.4
		c-0.4,0-0.7-0.4-0.4-1.8l0.7-3.2h-0.9l-0.1-0.1l0.3-0.5h0.7l0.3-1.1l1.4-0.9l0.2,0.1l-0.4,1.9h1.4L184,90.8z"/>
	<path class="st4" d="M187.2,94.5c-0.9,1-1.8,1.4-2.2,1.4c-0.4,0-0.6-0.2-0.4-1.3l0.6-2.8c0.1-0.3,0.1-0.4,0-0.4
		c-0.1,0-0.5,0.2-0.8,0.4l-0.2-0.3c0.9-0.8,1.8-1.3,2.3-1.3c0.4,0,0.4,0.5,0.2,1.2l-0.7,2.9c-0.1,0.4,0,0.5,0,0.5
		c0.1,0,0.4-0.2,0.8-0.5L187.2,94.5z M187.4,88.4c0,0.5-0.4,1-0.9,1c-0.4,0-0.7-0.3-0.7-0.8c0-0.4,0.3-0.9,0.9-0.9
		C187.2,87.6,187.4,88,187.4,88.4z"/>
	<path class="st4" d="M190.6,94.2c0.6-0.8,1.4-1.8,1.4-2.7c0-0.2-0.1-0.5-0.2-0.6c0-0.1,0-0.2,0-0.3c0.1-0.3,0.4-0.6,0.8-0.6
		c0.4,0,0.7,0.3,0.7,0.8c0,0.4-0.2,0.8-0.8,1.7c-0.8,1-2,2.6-2.7,3.3h-0.5c-0.1-1-0.2-3.1-0.4-3.9c-0.1-0.5-0.1-0.7-0.2-0.7
		c-0.1,0-0.4,0.2-0.7,0.5l-0.2-0.3c0.6-0.8,1.3-1.4,1.8-1.4c0.4,0,0.6,0.5,0.7,1.5C190.4,92.5,190.5,93.6,190.6,94.2L190.6,94.2z"/>
	<path class="st4" d="M198,94.3c-1.1,1.2-2.1,1.6-2.9,1.6c-0.7,0-1.5-0.4-1.5-1.9c0-1.2,0.5-2.4,1.4-3.1c0.5-0.4,1.4-0.8,2-0.8
		c0.9,0,1.3,0.5,1.3,1.1c0,1.3-2,1.9-3.2,2.2c0,0.1,0,0.2,0,0.3c0,0.6,0.2,1.2,0.9,1.2c0.5,0,1.2-0.3,1.8-0.9L198,94.3z M196.1,90.8
		c-0.3,0.2-0.8,0.9-0.9,2.1c1.3-0.4,1.8-0.9,1.8-1.6c0-0.5-0.3-0.7-0.5-0.7C196.4,90.7,196.2,90.7,196.1,90.8z"/>
	<path class="st4" d="M207.4,94.4c-0.8,1-1.8,1.5-2.2,1.5c-0.3,0-0.6-0.2-0.4-1.3l0.1-0.7h0c-0.4,0.6-0.9,1-1.2,1.3
		c-0.4,0.3-0.9,0.6-1.3,0.6c-0.5,0-0.9-0.5-0.9-1.5c0-1.2,0.5-2.4,1.4-3.2c0.6-0.5,1.6-1.1,2.7-1.1c0.2,0,0.5,0,0.8,0.1
		c0.3,0.1,0.5,0.1,0.7,0.1l0.1,0c-0.3,1.1-0.6,2.4-0.8,3.9c-0.1,0.4,0,0.5,0,0.5c0.1,0,0.5-0.3,0.8-0.6L207.4,94.4z M205.1,92.9
		c0.1-0.6,0.4-1.7,0.4-2c-0.2-0.1-0.5-0.2-0.7-0.2c-0.2,0-0.4,0-0.5,0.2c-0.8,0.6-1.2,2.1-1.2,3.2c0,0.5,0.1,0.7,0.3,0.7
		C203.8,94.8,204.9,93.4,205.1,92.9z"/>
	<path class="st4" d="M213.9,94.6c-0.9,1-1.7,1.3-2.1,1.3c-0.3,0-0.6-0.3-0.4-1.3c0.2-0.9,0.4-1.7,0.6-2.6c0.1-0.6,0.1-0.8-0.1-0.8
		c-0.4,0-1.5,1.3-2,2.1c-0.2,0.7-0.4,1.6-0.5,2.4c-0.5,0-1,0.2-1.4,0.3l-0.1-0.1c0.3-1.3,0.6-2.6,0.9-4c0.1-0.4,0.1-0.5,0-0.5
		c-0.1,0-0.6,0.2-0.8,0.5l-0.2-0.4c0.9-0.8,1.6-1.3,2.1-1.3c0.4,0,0.5,0.4,0.2,1.6l-0.1,0.6h0c0.6-0.8,1.3-1.4,1.8-1.8
		c0.3-0.3,0.7-0.4,1-0.4c0.4,0,0.8,0.2,0.4,1.9c-0.2,0.7-0.3,1.5-0.5,2.2c-0.1,0.3-0.1,0.4,0,0.4c0.1,0,0.5-0.2,0.8-0.5L213.9,94.6z
		"/>
	<path class="st4" d="M220.6,94.5c-0.8,1-1.8,1.4-2.2,1.4c-0.3,0-0.6-0.2-0.4-1.2l0.2-0.8h0c-0.5,0.6-1,1.1-1.4,1.5
		c-0.4,0.3-0.8,0.5-1.2,0.5c-0.5,0-1-0.5-1-1.6c0-1.2,0.6-2.5,1.4-3.2c0.6-0.5,1.7-1,2.3-1c0.2,0,0.4,0,0.7,0.1l0.3-1.7
		c0.1-0.5,0-0.6-0.6-0.6h-0.2l0.1-0.4c1.3-0.1,2.1-0.4,2.3-0.4c0.1,0,0.2,0.1,0.1,0.4c-0.5,2.4-1,4.5-1.4,6.8
		c-0.1,0.4-0.1,0.5,0,0.5c0.1,0,0.4-0.2,0.8-0.5L220.6,94.5z M218.4,92.8l0.4-1.8c-0.3-0.2-0.6-0.4-0.9-0.4c-0.2,0-0.4,0-0.5,0.2
		c-0.8,0.6-1.2,2.3-1.2,3.2c0,0.5,0.1,0.7,0.3,0.7C217,94.8,218,93.5,218.4,92.8z"/>
	<path class="st4" d="M224.4,93.1c0.1,0.8,0.7,2.3,2,2.3c0.9,0,1.3-0.7,1.3-1.4c0-0.6-0.3-1.1-1-1.6l-0.4-0.3
		c-0.8-0.6-1.5-1.3-1.5-2.3c0-1.5,1.2-2.4,2.7-2.4c0.5,0,1,0.1,1.4,0.2c0.2,0.1,0.4,0.1,0.5,0.2c-0.1,0.5-0.1,1.1-0.1,1.9l-0.4,0
		c-0.1-0.8-0.4-1.9-1.5-1.9c-0.8,0-1.2,0.7-1.2,1.3c0,0.6,0.3,1,1,1.5l0.4,0.3c0.9,0.6,1.6,1.3,1.6,2.4c0,1.6-1.3,2.5-3,2.5
		c-1,0-1.9-0.4-2.3-0.8c0-0.3,0-1,0-2L224.4,93.1z"/>
	<path class="st4" d="M232.9,94.5c-0.9,1-1.8,1.4-2.2,1.4c-0.4,0-0.6-0.2-0.4-1.3l0.6-2.8c0.1-0.3,0.1-0.4,0-0.4
		c-0.1,0-0.5,0.2-0.8,0.4l-0.2-0.3c0.9-0.8,1.8-1.3,2.3-1.3c0.4,0,0.4,0.5,0.2,1.2l-0.7,2.9c-0.1,0.4-0.1,0.5,0,0.5
		c0.1,0,0.4-0.2,0.8-0.5L232.9,94.5z M233.1,88.4c0,0.5-0.4,1-0.9,1c-0.4,0-0.7-0.3-0.7-0.8c0-0.4,0.3-0.9,0.9-0.9
		C232.8,87.6,233.1,88,233.1,88.4z"/>
	<path class="st4" d="M239.6,94.6c-0.9,1-1.7,1.3-2.1,1.3c-0.3,0-0.6-0.3-0.4-1.3c0.2-0.9,0.4-1.7,0.6-2.6c0.1-0.6,0.1-0.8-0.1-0.8
		c-0.4,0-1.5,1.3-2,2.1c-0.2,0.7-0.4,1.6-0.5,2.4c-0.5,0-1,0.2-1.4,0.3l-0.1-0.1c0.3-1.3,0.6-2.6,0.9-4c0.1-0.4,0.1-0.5,0-0.5
		c-0.1,0-0.6,0.2-0.8,0.5l-0.2-0.4c0.9-0.8,1.6-1.3,2.1-1.3c0.4,0,0.5,0.4,0.2,1.6l-0.1,0.6h0c0.6-0.8,1.3-1.4,1.8-1.8
		c0.3-0.3,0.7-0.4,1-0.4c0.4,0,0.8,0.2,0.4,1.9c-0.2,0.7-0.3,1.5-0.5,2.2c-0.1,0.3-0.1,0.4,0,0.4c0.1,0,0.5-0.2,0.8-0.5L239.6,94.6z
		"/>
	<path class="st4" d="M244.5,94.5c-0.9,1-1.8,1.4-2.6,1.4c-1,0-1.5-0.7-1.5-1.9c0-1,0.4-2.2,1.4-3c0.5-0.5,1.4-0.9,2.1-0.9
		c0.6,0,1.1,0.3,1.1,0.7c0,0.2-0.1,0.5-0.5,0.8c-0.1,0.1-0.3,0.1-0.4-0.1c-0.4-0.5-0.7-0.8-1-0.8c-0.2,0-0.4,0.2-0.6,0.6
		c-0.3,0.5-0.5,1.4-0.5,2.3c0,0.9,0.3,1.3,0.8,1.3c0.5,0,1.2-0.5,1.5-0.8L244.5,94.5z"/>
	<path class="st4" d="M249.7,94.3c-1.1,1.2-2.1,1.6-2.9,1.6c-0.7,0-1.5-0.4-1.5-1.9c0-1.2,0.5-2.4,1.4-3.1c0.5-0.4,1.4-0.8,2-0.8
		c0.9,0,1.3,0.5,1.3,1.1c0,1.3-2,1.9-3.2,2.2c0,0.1,0,0.2,0,0.3c0,0.6,0.2,1.2,0.9,1.2c0.5,0,1.2-0.3,1.8-0.9L249.7,94.3z
		 M247.8,90.8c-0.3,0.2-0.8,0.9-0.9,2.1c1.3-0.4,1.8-0.9,1.8-1.6c0-0.5-0.3-0.7-0.5-0.7C248.1,90.7,247.9,90.7,247.8,90.8z"/>
	<path class="st4" d="M250.6,91.4c0.7-0.7,1.6-1.3,2.1-1.3c0.4,0,0.5,0.4,0.3,1.4l-0.1,0.6h0c0.6-1.1,1.2-2,1.8-2
		c0.2,0,0.5,0.1,0.6,0.3c0.2,0.2,0.1,0.5,0,0.8c-0.2,0.2-0.3,0.4-0.4,0.5c-0.1,0.1-0.2,0.1-0.3,0c-0.2-0.1-0.4-0.2-0.5-0.2
		c-0.1,0-0.3,0-0.5,0.4c-0.3,0.5-0.6,1-0.7,1.4c-0.2,0.7-0.4,1.7-0.5,2.4c-0.5,0-1,0.2-1.4,0.3l-0.1-0.1c0.3-1.3,0.6-2.6,0.8-3.9
		c0.1-0.4,0.1-0.6,0-0.6s-0.5,0.2-0.7,0.4L250.6,91.4z"/>
	<path class="st4" d="M259.8,94.3c-1.1,1.2-2.1,1.6-2.9,1.6c-0.7,0-1.5-0.4-1.5-1.9c0-1.2,0.5-2.4,1.4-3.1c0.5-0.4,1.4-0.8,2-0.8
		c0.9,0,1.3,0.5,1.3,1.1c0,1.3-2,1.9-3.2,2.2c0,0.1,0,0.2,0,0.3c0,0.6,0.2,1.2,0.9,1.2c0.5,0,1.2-0.3,1.8-0.9L259.8,94.3z
		 M257.9,90.8c-0.3,0.2-0.8,0.9-0.9,2.1c1.3-0.4,1.8-0.9,1.8-1.6c0-0.5-0.3-0.7-0.5-0.7C258.1,90.7,258,90.7,257.9,90.8z"/>
</g>
<g>
	<path class="st4" d="M168.1,76.8c-4.8-4.3-5.9-9.9-5.9-14.5c0-3.3,1.1-9,5.5-13.4c2.9-2.9,7.4-5.3,15-5.3c2,0,4.7,0.1,7.1,0.6
		c1.9,0.3,3.4,0.5,5.2,0.7c0.3,0,0.4,0.2,0.4,0.5c0,0.4-0.1,1-0.2,2.8c-0.1,1.6-0.1,4.3-0.1,5.1c0,0.7-0.1,1-0.4,1
		c-0.3,0-0.4-0.3-0.4-1c0-1.9-0.8-3.9-2.1-5c-1.7-1.5-5.5-2.8-9.8-2.8c-6.5,0-9.6,1.9-11.3,3.6c-3.6,3.4-4.4,7.8-4.4,12.8
		c0,9.4,7.2,18,17.7,18c3.7,0,6.6-0.4,8.5-2.5c1-1.1,1.7-3.2,1.8-4.1c0.1-0.5,0.2-0.7,0.5-0.7c0.2,0,0.3,0.3,0.3,0.7
		c0,0.3-0.6,4.6-1.1,6.3c-0.3,0.9-0.4,1-1.3,1.4c-2,0.8-5.7,1.1-8.8,1.1C176.9,82.1,171.9,80.3,168.1,76.8z"/>
</g>
<path class="st4" d="M165.6,79.6c-4.7-4.2-7.2-10.2-7.2-17.3c0-2.2,0.5-9.9,6.6-16.1c0.3-0.3,0.7-0.7,1.1-1
	c-2.3,0.9-4.1,2.2-5.5,3.6c-4.4,4.4-5.5,10.1-5.5,13.4c0,4.7,1.2,10.3,5.9,14.5c1.6,1.4,3.3,2.5,5.3,3.4
	C166.1,80,165.8,79.8,165.6,79.6z"/>
<g>
	<path class="st4" d="M250.6,58.5l-6-1.9c-4.6-1-7.5-3.5-7.5-5.2c0-2.3,3.5-6.9,10.8-6.2c4.4,0.4,7.5,2.9,8.7,4.5
		c0.9,1.1,1,2.4,1.1,2.8c0.1,0.8,0.4,0.9,0.7,0.9c0.5,0,0.7-0.3,0.7-1.2c0-4.4,0.1-6.7,0.2-8.3c0-0.4-0.2-0.5-0.8-0.7
		c-1-0.2-2-0.4-3-0.6c-2.6-0.4-4.4-0.5-7.1-0.5c-2.6,0-5.2,0.4-7.7,1.2c-2,0.7-4.8,1.5-5.8,3.5c-0.5,1-0.6,2.2-0.5,3.3
		c0.5,4.5,3.9,7.7,8.1,8.9c1.5,0.4,14.9,4.4,15.8,10.9c0.5,3.3,0,6.3-0.9,8.9c2.8-2.3,4-5.4,4-8.1C261.5,66,259.8,61.4,250.6,58.5z"
		/>
	<path class="st4" d="M255.7,70.6c-0.1-0.2-0.1-0.4-0.2-0.6c-1.9-4.8-9.1-7-13.7-8.3c-0.4-0.1-8.4-2.8-9.6-8.9
		c-0.2-1.1-0.3-2.1-0.3-3.1c-0.8,1.3-1.3,2.7-1.3,4.1c0,4.3,1.5,8.9,11.7,12l4.7,2.1c5.2,2.8,5.4,4.5,5.4,6.5c0,2.1-2.4,5.8-8.2,5.8
		c-4.8,0-9.4-3.4-10.5-7.4c-0.2-0.6-0.2-1-0.3-1.5c-0.1-0.4-0.1-0.8-0.6-0.8c-0.4,0-0.6,0.3-0.7,1.2c-0.2,1.4-0.4,3.2-0.4,7.2
		c0,1,0.3,1.6,1.4,2c2.4,0.9,5.7,2.3,10.3,2.3c2.8,0,6.5-0.2,9.1-1.5C256.3,79.6,256.9,74.2,255.7,70.6z"/>
</g>
<path class="st4" d="M225.1,81.3c-0.8-0.2-1.4-0.4-1.9-0.6c-0.4-0.2-1-0.7-1.7-1.3c-0.7-0.6-1.6-1.6-2.7-2.8c0.6-0.7,1-1.4,1.4-2.1
	c0.4-0.7,0.8-1.3,1.1-1.9c0.3-0.5,0.6-1,0.9-1.5c0.3-0.5,0.6-0.9,0.8-1.1c0.5-0.5,1-0.8,1.5-1c0.5-0.2,1.3-0.3,2.4-0.4v-1.3H217v1.3
	c1,0.2,1.7,0.4,2.2,0.6c0.5,0.2,0.8,0.5,0.8,0.9c0,0.6-0.2,1.4-0.6,2.3c-0.4,0.9-0.9,1.9-1.7,3c-1.2-1.4-2.1-2.4-2.8-3.3
	c-0.7-0.8-1.7-2.1-3-3.7c1.6-0.9,2.7-1.9,3.4-2.9c0.7-1,1-2.1,1-3.3c0-1.4-0.6-2.6-1.7-3.5c-1.1-0.9-2.6-1.3-4.5-1.3
	c-1.2,0-2.4,0.2-3.4,0.7c-0.7,0.7-1.1,1.6-1.1,2.7c0,0.8,0.2,1.6,0.5,2.4c0.4,0.8,1.1,1.9,2.1,3.2L222.3,83h5.2v-1.4
	C226.7,81.5,225.9,81.4,225.1,81.3z M209.2,64c-0.4-0.9-0.7-1.6-0.7-2.3c0-0.8,0.2-1.4,0.7-1.9c0.5-0.5,1.1-0.7,1.9-0.7
	c0.8,0,1.4,0.3,1.9,0.9c0.5,0.6,0.7,1.4,0.7,2.4c0,0.9-0.2,1.8-0.6,2.6c-0.4,0.8-1.1,1.6-2,2.2C210.3,65.9,209.6,64.8,209.2,64z"/>
<g>
	<path class="st4" d="M206.5,67.8c-1.1-1.5-1.9-2.7-2.4-3.7c-0.4-0.9-0.6-1.7-0.7-2.6c-0.2,0.5-0.3,1.1-0.3,1.7c0,1,0.2,2,0.6,2.9
		c0.4,0.9,1.2,2.1,2.2,3.4c-0.9,0.4-1.8,0.9-2.5,1.4c-0.1,0.1-0.1,0.3-0.2,0.4c-0.3,0.8-0.4,1.8-0.4,3c0,2.3,0.7,4,2.3,5.4
		c1.5,1.4,3.5,2.1,6,2.1c0.8,0,1.6-0.1,2.4-0.3c0.5-0.3,0.9-0.7,1.4-1.1c0.3,0.4,0.7,0.9,1.1,1.4c0.4,0.5,0.8,0.9,1.1,1.2h2
		L206.5,67.8z M212.2,80.2c-0.5,0.2-1.2,0.3-1.9,0.3c-1.5,0-2.8-0.5-3.8-1.5c-1-1-1.5-2.3-1.5-3.8c0-0.8,0.1-1.6,0.4-2.5
		c0.3-0.8,0.7-1.5,1.3-2.1c1.1,1.4,2.3,2.9,3.7,4.5c1.3,1.6,2.5,3,3.4,4.1C213.3,79.7,212.8,80,212.2,80.2z"/>
	<path class="st4" d="M203.4,81.5c-2-1.9-3.1-4.3-3.1-7.3c0-0.1,0-0.1,0-0.1c-0.1,0.2-0.2,0.4-0.3,0.7c-0.3,0.7-0.4,1.5-0.4,2.5
		c0,1.9,0.7,3.4,2.1,4.6c1.3,1.1,3.1,1.7,5.2,1.8C205.6,83.1,204.4,82.4,203.4,81.5z"/>
</g>
</svg>
