<svg viewBox="0 0 100.04 100" xmlns="http://www.w3.org/2000/svg"><path d="m11.99 49h-.6l.85-.84v.84z"/><path d="m21.07 93h-.21a1.66 1.66 0 0 1-1.27-.83c-.28-.65-.49-1.33-.71-2-.16-.48-.31-1-.49-1.44s-.42-1-.64-1.56a24.14 24.14 0 0 1-1-2.6 3.26 3.26 0 0 1  .25-2.36c.7-1.2.26-2.23-.21-3.31l-.17-.41a2.79 2.79 0 0 0-.68-.92 2 2 0 0 1-.56-2.1 2.33 2.33 0 0 0  .11-1 2.32 2.32 0 0 0-1-.23 1.29 1.29 0 0 1-.82-.5 1 1 0 0 0-1.5-.35 7.19 7.19 0 0 1-4.28.61 4.28 4.28 0 0 1-2.21-1.24l-.55-.45a2.76 2.76 0 0 1-.6-.73 3.09 3.09 0 0 0-.4-.58 2.32 2.32 0 0 1-.69-2.76 2.89 2.89 0 0 0  0-1.29c0-.21 0-.42 0-.62a1.41 1.41 0 0 0 0-.26.89.89 0 0 1  0-.63c.11-.21.21-.42.31-.63a5.87 5.87 0 0 1 2-2.66 2.48 2.48 0 0 0  .65-.88c.09-.17.19-.34.29-.5l.4-.62.49-.75c.08-.13.18-.25.27-.37a2.91 2.91 0 0 0  .42-.66l.07-.17h.18a1.5 1.5 0 0 0  .42-.08 2.62 2.62 0 0 1-.9-.28c-1.2-.27-1.22-1.09-1.14-1.84 0-.15 0-.3.05-.45a4.3 4.3 0 0 0  .06-1 1.11 1.11 0 0 1  .21-.88 1.07 1.07 0 0 1  .78-.31 6.71 6.71 0 0 1  .78.06c.25 0 .49 0 .73.06a2.65 2.65 0 0 0  .81-.12 2.75 2.75 0 0 0  0-1.42c0-.14-.25-.3-.44-.44a3.78 3.78 0 0 1-.35-.29c-.11-.11-.21-.23-.32-.35l-.36-.41.3-.14.21-.09a1 1 0 0 0  .31-.16 2.17 2.17 0 0 1  1-.48c.59-.17.93-.29 1-.87v-.09l.51-.45c.32-.29.65-.58 1-.86l.21-.18a2.29 2.29 0 0 1  .92-.59 1 1 0 0 0  .66-.38 1.15 1.15 0 0 0-.07-.88 1.55 1.55 0 0 1  0-1.13 2 2 0 0 1  .61-.62l.25-.21.28-.25.12.35.1.27a3.67 3.67 0 0 1  .22.71.74.74 0 0 1  0 .11c.1-.13.24-.31.23-.38a6.58 6.58 0 0 0-.59-1.61h-.22a1.77 1.77 0 0 0-.37.27 3.51 3.51 0 0 1-.28.23 1 1 0 0 1-1 .19 1 1 0 0 1-.55-.79l-.09-.46c-.07-.36-.13-.73-.23-1.08a1.81 1.81 0 0 1  .56-1.88c.75-.77 1.47-1.6 2.16-2.46a5.67 5.67 0 0 0  .56-.92c.09-.17.18-.34.27-.5l1.44-2.46h-.22-.43l.1-.29.07-.22a3.16 3.16 0 0 1  .23-.62c.1-.2.36-.19.59-.18h.07a.67.67 0 0 1  .18 0l .45-.62.4-.55s.32-.41.58-.26c.47.26.73.06 1.15-.3a1.71 1.71 0 0 1 1-.54 3.19 3.19 0 0 0  .78-.18 1.81 1.81 0 0 1  2.06.26.92.92 0 0 1  .15 1v .06h.21a4.66 4.66 0 0 1  .82.35l.23.11a.77.77 0 0 1  .19.14l0 0h0a3.35 3.35 0 0 1 2.28 1.18 8.15 8.15 0 0 0  .67.56 1.32 1.32 0 0 1  .53 1.87l-.12.19a1.63 1.63 0 0 1 1-.2c.16 0 .21 0 .21 0v-.21a1.93 1.93 0 0 1 0-.22 4.56 4.56 0 0 0-.07-.53 3.79 3.79 0 0 1-.08-.8 1 1 0 0 1  .62-.76.89.89 0 0 1  .88.35 1 1 0 0 1  .06.64c0 .07 0 .13 0 .19s0 .28 0 .42a1.63 1.63 0 0 0  .35-.17c.51-.36 1-.73 1.53-1.09l1-.71a.56.56 0 0 1  .49-.05 1.78 1.78 0 0 0  1.67 0h .12a.84.84 0 0 1  .39-.1 2.52 2.52 0 0 0  .7 0 2.83 2.83 0 0 0-.09-.66l0 0c-.23-.16-.45-.32-.67-.49s-.06-.33 0-.49l.23-.36.81.88a4 4 0 0 1 2.67.9l.46.29a1.32 1.32 0 0 0  .32.13.78.78 0 0 0-.1-.33 2.85 2.85 0 0 1-.09-3.56 2.25 2.25 0 0 0  .25-.76c0-.09 0-.18.06-.27a1.31 1.31 0 0 1  .56-.87 1.28 1.28 0 0 1  1-.09c.87.22.85.87.83 1.49 0 0 0 .05 0 .08.09-.18.19-.35.29-.51l.2-.33a.87.87 0 0 1  .14-.17l.24-.28.19.24a.58.58 0 0 1  .2.33c0 .13 0 .27 0 .4s0 .19 0 .28l.09-.1c.83-.89 1.14-1 2-.26a2.07 2.07 0 0 1-.24-1.16 3.56 3.56 0 0 0  0-.46c-.06-.46.93-.82.94-.83a2.71 2.71 0 0 1  .68-.1 2.33 2.33 0 0 0  .55-.07 1 1 0 0 0  .39-.3c-.27-1.26.57-1.83 1.25-2.28.17-.11.34-.23.49-.35a7.25 7.25 0 0 1 1.94-1 1.8 1.8 0 0 0  .25-.13 1 1 0 0 1  1.39.06.87.87 0 0 0  .55 0s .14-.09.14-.37v-.19h.19c.51-.14.65-.54.82-1a2 2 0 0 1  .68-1.09 2.23 2.23 0 0 1  1.26-.3c.25 0 .34.27.44.61 0 .1.06.2.1.28a2.44 2.44 0 0 0  .16.35c.06.1.12.21.18.33s.22.43.29.46.3-.09.44-.16.53-.26.75-.11a4.58 4.58 0 0 1 1.73 1.71 2 2 0 0 1-.72 2.23 4 4 0 0 0-.84.75 6.44 6.44 0 0 0  1.09.45 2.8 2.8 0 0 0  1.06.14 2.08 2.08 0 0 1  1.9.75 1.92 1.92 0 0 0  1.07.34l.42.07a1.13 1.13 0 0 0  .06-.33 1 1 0 0 1  .29-.87 1 1 0 0 1  .94.06 4.35 4.35 0 0 0  .91.3c1 .22 1.1 1.41 1.14 2.37a2.62 2.62 0 0 1 0 .33.88.88 0 0 0  0 .4 2.09 2.09 0 0 0  .46.5l0 0a3.91 3.91 0 0 1  .35-.53c.06-.07.34-.42.68-.39l1.48.08 1.25.07a.52.52 0 0 0 0-.17 1.33 1.33 0 0 1  .27-1.2 1.3 1.3 0 0 1  1.15-.31c.35 0 .7.12 1 .19l.51.11a12.58 12.58 0 0 1 1.35.33c.27.09.8.35.85.71s.21.41.44.58a2.45 2.45 0 0 1  .34.29 1.49 1.49 0 0 0  1.45.36h.31c1.42-.11 1.77.15 2.12 1.51a7.79 7.79 0 0 0  .3.87h0a1.31 1.31 0 0 1 1.57-.5 2.5 2.5 0 0 0  .88.06 1.09 1.09 0 0 1  1.29.58.79.79 0 0 0  .32.17 1.38 1.38 0 0 0  0-.33.94.94 0 0 1  .23-.78.87.87 0 0 1  .72-.26 6.31 6.31 0 0 1  4.22 1.68c.41.4.81.81 1.22 1.22l1 1h .09a1.74 1.74 0 0 1 1.78.81l.16.18a.79.79 0 0 1 0 .85 11.36 11.36 0 0 1-1.28 1.56c-.2.19-.47 0-1-.32l-.23-.15-.71-.46-.74-.47v0a2.24 2.24 0 0 0-.16.27c-.13.25-.27.51-.53.59s-.37.14-.43.27.05.42.17.68v.09c.19.42.32.77.17 1.07s-.54.44-1.06.55a5.9 5.9 0 0 0-2.24 1.34l-.57.45a1 1 0 0 1-.74.2h-.19a6.09 6.09 0 0 0-2.41.55c-.42.22-.43.86-.3 1.39a3.27 3.27 0 0 1-1 3 7.67 7.67 0 0 0-.71 1c-.16.24-.31.48-.48.71a2.11 2.11 0 0 1-.34.34.61.61 0 0 1-.51.13.62.62 0 0 1-.42-.32 1.55 1.55 0 0 1-.15-.41l-.06-.3c-.28-1.45-.57-2.94.57-4.27.5-.58 1-1.13 1.57-1.67.32-.33.65-.65 1-1a2.35 2.35 0 0 0  .34-.45 4.67 4.67 0 0 1-.76.61.47.47 0 0 1-.37 0 .79.79 0 0 1-.48-.32c-.16-.29-.35-.47-.53-.48a.56.56 0 0 0-.43.28 3.35 3.35 0 0 1-.46.49c-.3.28-.56.53-.56.89a.66.66 0 0 1-.48.64h-.17c-.47.13-.92.26-1.22 0a1 1 0 0 0-1-.19 5.11 5.11 0 0 1-1.76.12 1.92 1.92 0 0 0-1.69.74q-1.19 1.41-2.31 2.66a.32.32 0 0 0 0 .08l.17.13a2.24 2.24 0 0 0  .54.35 1.44 1.44 0 0 1  1.51.39h.1c.25-.24.54-.47.81-.35s.28.5.28.78a1.09 1.09 0 0 0 0 .18 13.94 13.94 0 0 1  .25 1.92v.14a1.15 1.15 0 0 1-.18.94 1 1 0 0 0-.24 1.2.42.42 0 0 1  0 .31.54.54 0 0 1-.54.31.49.49 0 0 1-.44-.36v-.11c0-.47 0-.95 0-1.42s0-.84 0-1.27a.31.31 0 0 0 0-.09l0 0a5.69 5.69 0 0 1-1.61 3.75c-.25.32-.5.66-.72 1a2.1 2.1 0 0 1-1.52 1 1.09 1.09 0 0 1-.74-.19l-.29-.1a.84.84 0 0 1-.43-.92v-.09c.06-.3.11-.52.31-.58a.29.29 0 0 1  .23 0c .56.08.69-.21.88-.67a3 3 0 0 1  .25-.49v-.08a1.12 1.12 0 0 0  .2-.6 1.28 1.28 0 0 1-1.76.5.84.84 0 0 1-.34-.89c0-.29 0-.3-.14-.34h-.3c-.33 0-.68.1-.89-.11a4.9 4.9 0 0 1-.59-1.38c-.29-.93-.5-1.5-1.24-1.6h-.08a.84.84 0 0 1-.35-.92c-.62.33-.74 1-.88 1.7s-.29 1.53-1.05 1.91a1.27 1.27 0 0 1-1 0c-.5-.14-1-.28-1.41.16-.76.63-1.78.27-2.86-.12a8.49 8.49 0 0 0-1.79-.5.84.84 0 0 1-.67-.52.89.89 0 0 0-.54-.45 1.39 1.39 0 0 0-1 0 .56.56 0 0 0-.14.49l.09.05a.54.54 0 0 1  .22.54.51.51 0 0 1-.38.4 2.12 2.12 0 0 1-1.21-.21 1.91 1.91 0 0 0-.52-.16h-.08a2.17 2.17 0 0 0-1.71.29 2.21 2.21 0 0 1-2.47 0 .51.51 0 0 1-.09-.62 3.73 3.73 0 0 1-3.75-2.37c-.31.36-.81.24-1.21.15a3 3 0 0 0-.77-.11.57.57 0 0 1-.41-.15.52.52 0 0 1-.17-.38 1.66 1.66 0 0 0-.08-.4v-.08a17.91 17.91 0 0 1-1.91.53 10.56 10.56 0 0 0-2.17.69.47.47 0 0 1  0 .16.48.48 0 0 1-.2.44 1.33 1.33 0 0 0-.36.57l-.09.2h0a .56.56 0 0 1  .42.38.58.58 0 0 1-.12.57 1.14 1.14 0 0 1-1.26.27l-.1-.06c-.08-.08-.17-.17-.24-.26a.93.93 0 0 1-.83.14 1 1 0 0 0-.47 0h-.36l-.07-.07a1.64 1.64 0 0 0-1.07-.49 1.16 1.16 0 0 0-.91.31h-.06a1.68 1.68 0 0 0-.24.16 1.1 1.1 0 0 1-.94.32.07.07 0 0 0-.06 0c-.2.5-.22.67 0 .83a3.4 3.4 0 0 1 1.3 1.47l.08.18-.16.12a1.45 1.45 0 0 0-.41 1.7 2.46 2.46 0 0 0  .26.49 3 3 0 0 1  .31.59 2.41 2.41 0 0 1  .19 1.34 1.05 1.05 0 0 0  .14.93 1.14 1.14 0 0 0  .9.39l.08-.07a2 2 0 0 0  .29-.26l-.1-.45h.33a8.36 8.36 0 0 0  .87 0c .91 0 1.83-.06 2.27.83a4.89 4.89 0 0 1  .49 2.51 4.85 4.85 0 0 0  .57 2.66c.26.26 0 .64-.19 1-.07.11-.14.24-.2.36l-.06.13h-.14-.35a2.36 2.36 0 0 1-1.88-.81c-1.42.4-2.28-.42-3-1.38a.86.86 0 0 0-.36-.12.84.84 0 0 0  .06.37 10.33 10.33 0 0 0  1.43 1.9 1.46 1.46 0 0 0  .87-.22 1 1 0 0 1  1.43.1l.08.07c1.34 1.2 1.35 1.36.28 2.82a3.32 3.32 0 0 1-1.13 1c-1.7.84-3.41 1.6-4.86 2.23a1 1 0 0 1-.62 0 .84.84 0 0 0  .22.46c.11.07.38 0 .79-.06l.55-.11a7.38 7.38 0 0 0  .92-.2c.54-.17.8 0 .93.14a.81.81 0 0 1 0 .91 25.84 25.84 0 0 1-2.21 3.35 14.31 14.31 0 0 1-1.52 1.53c-.33.3-.67.61-1 .93-.83.85-.74 1.81-.36 3a7.17 7.17 0 0 1  .37 2.43c0 .43-.41.8-.75 1.13l-.13.13a6 6 0 0 1-.78.61l-.37.26a1 1 0 0 0-.4 1.33 1.38 1.38 0 0 1-.74 1.89.66.66 0 0 0-.31.38c-.1 2.03-1.2 3.03-2.26 4.03l-.15.14a2.44 2.44 0 0 1-1.27.51h-.16a10.27 10.27 0 0 1-1.9.35zm-8.34-20.33a1.59 1.59 0 0 1 1.3.73.8.8 0 0 0  .47.3c.75.09 1.16.14 1.37.44s.13.69 0 1.43a1.53 1.53 0 0 0  .42 1.64 3.27 3.27 0 0 1  .8 1.09l.17.4c.49 1.15 1 2.34.18 3.76a2.76 2.76 0 0 0-.16 1.95 23.68 23.68 0 0 0  1 2.54c.22.52.45 1 .65 1.58s.34 1 .5 1.47c.21.65.42 1.32.69 1.95a1.2 1.2 0 0 0  .83.53 8.78 8.78 0 0 0  2-.23h.16a2.19 2.19 0 0 0 1-.37l.15-.15c1-1 2-2 2.18-3.46a1.12 1.12 0 0 1  .59-.78.9.9 0 0 0  .49-1.26 1.48 1.48 0 0 1  .57-1.9l.39-.28a5.52 5.52 0 0 0  .72-.56l.13-.13c.25-.24.59-.57.6-.79a6.68 6.68 0 0 0-.34-2.26 3.19 3.19 0 0 1  .41-3.53c.32-.33.67-.65 1-.95a14 14 0 0 0 1.47-1.48 25.37 25.37 0 0 0  2.17-3.29c.1-.18.1-.32.07-.35s-.13-.06-.39 0a8.12 8.12 0 0 1-1 .22l-.53.1a1.57 1.57 0 0 1-1.17 0 1.47 1.47 0 0 1-.49-1h0l-.13-.08a7.41 7.41 0 0 1-2.82-4 7.54 7.54 0 0 0-.8-1.74c-.17-.31-.34-.61-.49-.92a1.55 1.55 0 0 1-.12-.5c0-.06 0-.13 0-.19l-.07-.38.38.1h.25a1 1 0 0 1  .68.27 22 22 0 0 1  1.54 2.22 26.38 26.38 0 0 1  1.34 2.48c.23.5.42 1 .6 1.53l.25.68.06.17a.52.52 0 0 0  .35 0c1.45-.63 3.15-1.39 4.84-2.22a2.83 2.83 0 0 0  .95-.89c.87-1.18.87-1.18-.22-2.15l-.08-.07c-.36-.32-.45-.33-.8-.07s-1.19.48-1.5.17a10.45 10.45 0 0 1-1.47-1.94 1.31 1.31 0 0 1-.17-.73c0-.08 0-.17 0-.25v-.38l.37.12.26.06a1.07 1.07 0 0 1  .69.31c.73 1 1.4 1.51 2.5 1.19a.43.43 0 0 1  .43.11 1.88 1.88 0 0 0  1.65.69h.08l.16-.27a1.53 1.53 0 0 0  .16-.45 5.17 5.17 0 0 1-.71-2.9 4.48 4.48 0 0 0-.43-2.28c-.3-.59-.89-.6-1.82-.57h-.63a1.1 1.1 0 0 1-.47.58l-.12.1-.07.07h-.12a1.63 1.63 0 0 1-1.37-.58 1.54 1.54 0 0 1-.26-1.39 2.14 2.14 0 0 0-.18-1 2.55 2.55 0 0 0-.26-.49 3 3 0 0 1-.31-.59 2 2 0 0 1  .42-2.12 2.89 2.89 0 0 0-1-1.1c-.62-.41-.37-1-.21-1.43a.56.56 0 0 1  .64-.35c.16 0 .31-.06.53-.23a2.44 2.44 0 0 1  .28-.19 1.71 1.71 0 0 1  1.26-.43 2.13 2.13 0 0 1  1.32.56h0a1.5 1.5 0 0 1  .66 0c .23 0 .35.05.45 0a .48.48 0 0 1  .68.07l.16.17a.65.65 0 0 0  .68-.15.09.09 0 0 0  0-.08.06.06 0 0 0  0 0 .78.78 0 0 1-.42-.23l-.13-.13.08-.16c.07-.14.13-.26.18-.38a1.7 1.7 0 0 1  .52-.77.24.24 0 0 1-.18-.24v-.15l.16-.13a9.87 9.87 0 0 1 2.52-.85 14.35 14.35 0 0 0  1.8-.52.55.55 0 0 1  .72.37 2.22 2.22 0 0 1  .11.57 4.71 4.71 0 0 1  1 .15c.54.13.69.13.79-.09a.38.38 0 0 1  .36-.22.37.37 0 0 1  .33.26 3.25 3.25 0 0 0  3.72 2.22l.32-.17v.3a.81.81 0 0 1-.13.37 1.55 1.55 0 0 0-.09.18 1.75 1.75 0 0 0  1.91-.12 2.65 2.65 0 0 1  2-.33 2.33 2.33 0 0 1  .65.19 1.78 1.78 0 0 0  .92.19v-.07h-.16v-.13a1 1 0 0 1  .23-1.18h.06a1.86 1.86 0 0 1 1.42 0 1.37 1.37 0 0 1  .82.71.35.35 0 0 0  .27.23 8.87 8.87 0 0 1  1.9.53c1 .35 1.83.66 2.35.22a1.72 1.72 0 0 1 1.85-.36c.27.08.53.15.65.07.57-.29.68-.88.81-1.58.17-.88.36-1.89 1.59-2.22l.31-.09v.32a2.86 2.86 0 0 1 0 .31c0 .26 0 .45 0 .52 1.05.16 1.34 1.1 1.6 1.94a4.73 4.73 0 0 0  .5 1.21l.44-.07a3.15 3.15 0 0 1  .43 0 .7.7 0 0 1  .58.88c0 .25 0 .34.1.42s.76.37 1.25-.62l.13-.25.23.16c.67.45.32 1.11.14 1.47l-.05.1a2.8 2.8 0 0 0-.22.43c-.19.45-.45 1.07-1.37 1v .15.09a.34.34 0 0 0  .18.37l.28.17a.55.55 0 0 0  .39.11 1.61 1.61 0 0 0  1.17-.81c.23-.35.49-.7.75-1a5.28 5.28 0 0 0 1.51-3.46.68.68 0 0 1  .28-.49l.12-.12.28-.34.15.42.06.15a1.12 1.12 0 0 1  .14.47c0 .43 0 .85 0 1.28 0 .08 0 .15 0 .23a1.61 1.61 0 0 1  .4-.54s.05-.12 0-.53v-.14a13.51 13.51 0 0 0-.23-1.85 1.31 1.31 0 0 1  0-.29 2.6 2.6 0 0 0  0-.27 1.81 1.81 0 0 0-.27.23.64.64 0 0 1-.74 0 1 1 0 0 0-1-.29c-.33.09-.66-.17-1-.43l-.26-.2-.09-.06v-.14a.82.82 0 0 1  .17-.53q1.11-1.28 2.26-2.53a2.39 2.39 0 0 1 2.1-.9 4.66 4.66 0 0 0  1.59-.1 1.45 1.45 0 0 1  1.48.27c.1.08.53 0 .79-.12h.18a.16.16 0 0 0  .11-.16 1.72 1.72 0 0 1  .72-1.26 2.93 2.93 0 0 0  .39-.41 1 1 0 0 1  .86-.49 1.22 1.22 0 0 1  .94.75.56.56 0 0 0  .19.08 4.91 4.91 0 0 0  .79-.68l.1-.12a.41.41 0 0 1  .5-.11.4.4 0 0 1  .22.45 1.94 1.94 0 0 1-.08.29 2.51 2.51 0 0 1-.53.8c-.32.34-.64.67-1 1-.52.53-1.06 1.07-1.55 1.64-1 1.15-.73 2.46-.46 3.85l.06.3a1 1 0 0 0  .11.28.12.12 0 0 0  .08.06.11.11 0 0 0  .1 0 1.64 1.64 0 0 0  .26-.26c.16-.22.31-.45.46-.68a8.1 8.1 0 0 1  .76-1.05 2.81 2.81 0 0 0  .87-2.58c-.22-.91 0-1.66.56-1.95a6.58 6.58 0 0 1 2.61-.6h.12a.48.48 0 0 0  .41-.1l.56-.44a6.27 6.27 0 0 1 2.46-1.44c.53-.11.69-.22.72-.28s-.09-.46-.18-.64v-.09a1.35 1.35 0 0 1-.17-1.09 1.09 1.09 0 0 1  .74-.54c.07 0 .18-.23.25-.35a3 3 0 0 1  .19-.32c.1-.14.31-.36.52-.24l.9.57.71.45.24.16c.12.08.32.22.45.28a11.42 11.42 0 0 0 1.21-1.44.48.48 0 0 0  0-.24l-.15-.17c-.38-.42-.7-.8-1.29-.65a.54.54 0 0 1-.57-.21l-1-1c-.4-.41-.8-.81-1.21-1.21a5.85 5.85 0 0 0-3.91-1.54.39.39 0 0 0-.32.11.46.46 0 0 0-.1.38 2.1 2.1 0 0 1  0 .55c0 .07 0 .14 0 .21v.37l-.33-.16-.23-.1a1.08 1.08 0 0 1-.61-.39.61.61 0 0 0-.77-.34 3 3 0 0 1-1.07-.06c-.72-.14-1 0-1.11.49a.54.54 0 0 1-.14.24l-.23.33-.23-.32a1.25 1.25 0 0 1-.1-.18l-.19-.38a8.58 8.58 0 0 1-.32-.93c-.3-1.14-.44-1.23-1.6-1.14h-.29a2 2 0 0 1-1.87-.51 2 2 0 0 0-.28-.23 1.3 1.3 0 0 1-.64-.91 1.15 1.15 0 0 0-.51-.31 12.47 12.47 0 0 0-1.29-.32l-.52-.11c-.32-.07-.66-.14-1-.18a.87.87 0 0 0-.73.17.94.94 0 0 0-.14.78 1 1 0 0 1-.19.65l-.07.04h-.14-1.4l-1.46-.11a.64.64 0 0 0-.28.21 3.72 3.72 0 0 0-.33.5l-.14.23-.17.27-.22-.22-.24-.22a2.51 2.51 0 0 1-.57-.64 1.2 1.2 0 0 1-.08-.68 2.36 2.36 0 0 0  0-.27c0-1.07-.12-1.78-.74-1.91a4.83 4.83 0 0 1-1-.33c-.35-.16-.45-.11-.46-.1s-.09.07-.07.43a1.62 1.62 0 0 1-.09.52c0 .06 0 .12 0 .19l-.06.25-.25-.06a5.77 5.77 0 0 0-.61-.11 2.18 2.18 0 0 1-1.37-.51 1.59 1.59 0 0 0-1.5-.57 3.53 3.53 0 0 1-1.25-.17c-.9-.33-1.35-.49-1.41-.86s.3-.64 1-1.21a1.54 1.54 0 0 0  .52-1.87 4.21 4.21 0 0 0-1.55-1.5s-.15.1-.25.15a1.19 1.19 0 0 1-.77.2c-.3-.07-.47-.4-.62-.72-.05-.1-.1-.2-.16-.29a2.68 2.68 0 0 1-.18-.37c-.06-.14-.1-.26-.13-.37s-.06-.19-.09-.27a1.59 1.59 0 0 0-.86.22 1.65 1.65 0 0 0-.5.85 1.81 1.81 0 0 1-1 1.27.78.78 0 0 1-.47.66 1.21 1.21 0 0 1-1.1-.11c-.27-.27-.45-.19-.79 0a2.4 2.4 0 0 1-.32.16 6.8 6.8 0 0 0-1.81 1c-.16.13-.34.25-.52.37-.68.45-1.26.85-1 1.82.08.35-.48.75-.74.83a2.74 2.74 0 0 1-.67.09 2.33 2.33 0 0 0-.56.07 1.76 1.76 0 0 0-.59.35 4.56 4.56 0 0 1  0 .46c0 .55 0 .9.44 1.16a1.07 1.07 0 0 1  .37.49l.1.18.38.62-.86-.32-.55-.21a.46.46 0 0 1-.18-.14c-.91-.78-.91-.77-1.62 0-.17.18-.18.26-.18.27s0 .08.19.22a1.21 1.21 0 0 1  .21.24l.06.09.46.58-.72-.18h-.12a.56.56 0 0 1-.43-.2 2.6 2.6 0 0 1-.39-.86 3.58 3.58 0 0 1-.06-.64s0 0 0-.06l-.07.12c-.4.65-.71 1.16-.25 1.88a1.07 1.07 0 0 1  .05.75 2.48 2.48 0 0 0  0 .27 3.11 3.11 0 0 1  0 .31.93.93 0 0 0  0 .42 1.24 1.24 0 0 0  .35.28c.23.15.47.3.48.56a1.4 1.4 0 0 1-.33.8 2.31 2.31 0 0 0-.23.38c-.08.2-.15.41-.21.61a5.38 5.38 0 0 1-.33.87 1.08 1.08 0 0 1-.55.42l-.22.11-.6.36.24-.66.07-.21a2.24 2.24 0 0 1  .22-.53 2.92 2.92 0 0 0  .28-2.24 21.89 21.89 0 0 1-.18-4.27c0-.67 0-.88-.46-1a .82.82 0 0 0-.62 0 .85.85 0 0 0-.33.56l-.05.26a2.65 2.65 0 0 1-.32.93 2.37 2.37 0 0 0  .07 3 1.38 1.38 0 0 1  .21.66c0 .09 0 .17 0 .25l.1.43-.42-.14-.17-.05a2.16 2.16 0 0 1-.58-.21l-.47-.3a3.67 3.67 0 0 0-2.28-.84c.1.53.12.79 0 1s-.48.21-1.07.2a.5.5 0 0 0-.21.06l-.22.09a2.16 2.16 0 0 1-2 0c-.37.22-.7.46-1 .7-.51.37-1 .74-1.54 1.1a2.48 2.48 0 0 1-.57.27l-.23.09-.36.16v-.6c0-.2 0-.4 0-.59s0-.16 0-.23a.8.8 0 0 0 0-.32.54.54 0 0 0-.31-.14.57.57 0 0 0-.27.31 3.38 3.38 0 0 0  .07.69 5.15 5.15 0 0 1  .21.56 1.13 1.13 0 0 0  0 .16.71.71 0 0 1-.09.65.69.69 0 0 1-.62.15 1.1 1.1 0 0 0-.95.34 1 1 0 0 0-.21.89.62.62 0 0 1-.09.62c-.18.16-.42.08-.62 0l-.29-.12a1.84 1.84 0 0 0-.28-.11h-.23a1.54 1.54 0 0 0 0 .24 1.73 1.73 0 0 0  .12.3l.07.16.19.48-.49-.15h-.16a1 1 0 0 1-.5-.2 2.09 2.09 0 0 1-.62-.85 2.44 2.44 0 0 1-.1-.64 1.52 1.52 0 0 0-.37-1l-.18-.27-.33-.65.63.19 1.18.36.21.06a3.3 3.3 0 0 1  .41.13 1 1 0 0 0  1.32-.56c.18-.31.29-.72-.39-1.22a8.31 8.31 0 0 1-.71-.6 2.92 2.92 0 0 0-2-1h0a .48.48 0 0 1-.33-.17l-.06-.06-.23-.13a4.16 4.16 0 0 0-.73-.31h-.16a.5.5 0 0 1-.45-.25.64.64 0 0 1  .18-.6.66.66 0 0 0-.09-.34c-.46-.45-.89-.35-1.56-.14a3.66 3.66 0 0 1-.9.2 1.32 1.32 0 0 0-.71.42 1.38 1.38 0 0 1-1.6.42l-.06.06-.4.54c-.18.26-.37.51-.56.76a.33.33 0 0 1-.41.06h-.09-.24a3 3 0 0 0-.14.39h.12.16l.63-.15-.3.58-.11.21-1.52 2.6c-.09.16-.18.32-.26.48a6.15 6.15 0 0 1-.61 1c-.7.87-1.43 1.71-2.19 2.49a1.32 1.32 0 0 0-.34 1.4c.1.37.17.75.24 1.12l.08.45a.54.54 0 0 0  .25.42.6.6 0 0 0  .52-.14l.24-.2a2 2 0 0 1  .53-.47.77.77 0 0 1  .85.3 7 7 0 0 1  .63 1.74c.05.3-.18.59-.39.84l-.14.18-.07.07a.52.52 0 0 0 0 .49c.1 0 .26-.14.54-.43l.11-.11a2.34 2.34 0 0 1  .69-.42c.54-.24.86-.39.64-1.1v-.1-.09l.17-.34a5.43 5.43 0 0 1  .43-.78l.06-.08c.39-.54.54-.8.1-1.29a1.59 1.59 0 0 1-.36-1.2 2.77 2.77 0 0 1  1-1.85 2.16 2.16 0 0 0  1-1.5c0-.41.51-.78.89-1s .81.08 1 .27.1.73 0 .94a13.66 13.66 0 0 1-1.16 1.62 2.29 2.29 0 0 0-.07 2.53.76.76 0 0 0  1 .27 5.83 5.83 0 0 1  1.33-.4.85.85 0 0 1  .57.21l.16.1.29.15-.22.24-.1.13a.81.81 0 0 1-.41.35 3.9 3.9 0 0 1-.75.1h-.32c-.36 0-.58.12-.65.23s-.06.33.05.67.23.72 0 .95-.57.13-.85 0a .48.48 0 0 0-.38 0c-.15.11-.16.51-.17.65a1.77 1.77 0 0 1-.47 1.43 1.39 1.39 0 0 1-1.22.11.37.37 0 0 0-.26.08 1.78 1.78 0 0 1-1.83.38 2.25 2.25 0 0 0-.91 0c-.22.05-.43-.11-.6-.26l-.12-.1c-.17-.13-.08-.32 0-.44v-.07l.14-.47c0-.05 0-.13 0-.2a.92.92 0 0 0  .05-.34 3.14 3.14 0 0 0-.18-.57h0a1.65 1.65 0 0 0-.47.46 1.09 1.09 0 0 0  0 .73 1.61 1.61 0 0 1  0 1.29 1.4 1.4 0 0 1-1 .63 2 2 0 0 0-.71.48l-.22.19c-.33.27-.65.56-1 .84l-.37.33c-.15.85-.81 1-1.35 1.19a1.78 1.78 0 0 0-.78.35 1.06 1.06 0 0 1-.35.22l.2.21a3.19 3.19 0 0 0  .31.25 1.48 1.48 0 0 1  .62.71 3.24 3.24 0 0 1  0 1.74c0 .1-.12.4-1.26.42a6.18 6.18 0 0 1-.8-.06 6.21 6.21 0 0 0-.69-.01.61.61 0 0 0-.45.14.65.65 0 0 0-.09.5 4.75 4.75 0 0 1-.06 1.12c0 .14 0 .29-.05.43-.07.78 0 1.15.68 1.33l.13.06a2.57 2.57 0 0 0 1.47.23h.2c.79-.31 1.27-.55 1.26-1.34a1.45 1.45 0 0 1  .5-1l .31-.23a1.72 1.72 0 0 0  .87-1c .06-.25.34-.3.67-.37l.27-.06.22-.06.07.18.1-.05a3.48 3.48 0 0 1  .89-.37 1.53 1.53 0 0 1  1.18.2 13.46 13.46 0 0 1  1.17 1.11l.53.53.24.2a2.09 2.09 0 0 1  .45.42 2 2 0 0 1  .26.49l.18-.37a.51.51 0 0 1  .13-.31l.14-.13-.09-.08-.11-.1a22 22 0 0 1-1.84-1.8.87.87 0 0 1-.14-.65 2.09 2.09 0 0 0  0-.22v-.42l.38.18.17.07a1.74 1.74 0 0 1  .45.23l.27.21a19.85 19.85 0 0 1 1.59 1.35 2.53 2.53 0 0 1  .49.8l.14.29.35.7c.25.5.5 1 .77 1.48h.17a1.33 1.33 0 0 1  .26-.33c.21-.21.26-.26.09-.49h-.07a.67.67 0 0 1-.35-.5.71.71 0 0 1  .34-.56c.3-.24.7-.5 1.07-.36s.49.57.57 1a1.21 1.21 0 0 0  .09.24 2.16 2.16 0 0 1  .09.23c.39 1.19.39 1.19 1.57 1h .11a6.8 6.8 0 0 1 1.46 0h .54a.57.57 0 0 1  .36.2l.07.08v.15c0 .15 0 .3-.06.45a8.71 8.71 0 0 1-.29 1.56 1.28 1.28 0 0 1-1 .76 29.1 29.1 0 0 1-3.43-.15 5 5 0 0 1-1.4-.43l-.19-.08a.85.85 0 0 0-.68-.08c-.13.07-.22.25-.27.54a.84.84 0 0 1-.38.66.78.78 0 0 1-.7 0c-.27-.12-.53-.27-.8-.41s-.51-.27-.77-.39a10.31 10.31 0 0 0-1.3-.47c-.5-.16-.58-.33-.71-.76 0-.11-.08-.25-.14-.41a1.42 1.42 0 0 0-.95-.7l-.85-.06a5.2 5.2 0 0 0-3.48.48.87.87 0 0 1-.61.13c-.28-.06-.55-.13-.82-.21h-.13l0 0a2.62 2.62 0 0 1-.51.13 4.06 4.06 0 0 1-.42.63c-.09.11-.18.23-.25.35l-.48.74-.45.58c-.1.15-.18.31-.27.46a2.82 2.82 0 0 1-.82 1.06 5.42 5.42 0 0 0-1.78 2.41c-.1.22-.2.43-.31.65a.86.86 0 0 0 0 .29 1.74 1.74 0 0 1  .06.36c0 .19 0 .39 0 .58a3.25 3.25 0 0 1-.07 1.52 1.81 1.81 0 0 0  .58 2.23 3.52 3.52 0 0 1  .46.61 2.34 2.34 0 0 0  .48.6l.57.46a4 4 0 0 0 1.93 1.13 6.81 6.81 0 0 0  4-.57 1.68 1.68 0 0 1  .9-.19zm14.54-9.85a.74.74 0 0 0  .06.22c.14.3.31.6.48.89a8.05 8.05 0 0 1  .85 1.86 6.83 6.83 0 0 0  2.5 3.65l-.16-.44c-.18-.5-.36-1-.58-1.49a25.74 25.74 0 0 0-1.32-2.43 21.49 21.49 0 0 0-1.5-2.17.83.83 0 0 0-.33-.09zm-14.41-5.16c.46 0 .92 0 1.37.08l.83.06a1.86 1.86 0 0 1 1.37.94c.07.18.11.32.15.44.11.35.11.35.39.44a11 11 0 0 1 1.36.5c.27.12.53.27.8.41s.51.27.77.39.23.07.26.06.08-.05.12-.3a1.16 1.16 0 0 1  .52-.89 1.26 1.26 0 0 1  1.11.06l.19.08a4.62 4.62 0 0 0 1.26.4 28.19 28.19 0 0 0  3.37.14.83.83 0 0 0  .53-.41 8.37 8.37 0 0 0  .27-1.47v-.32l-.5-.05a6.43 6.43 0 0 0-1.35 0h-.08c-1.5.19-1.62.11-2.11-1.38 0-.06 0-.12-.07-.18a1.57 1.57 0 0 1-.13-.35c-.1-.49-.2-.6-.25-.62s-.18 0-.59.29c-.14.11-.15.16-.15.16l.14.1a.77.77 0 0 1  .18.15.76.76 0 0 1-.13 1.14c-.09.09-.18.18-.18.25v.25l-.31-.03h-.17c-.22 0-.45 0-.56-.18-.29-.52-.56-1-.82-1.57l-.35-.69-.1-.33a2.14 2.14 0 0 0-.39-.65 19.52 19.52 0 0 0-1.61-1.32l-.22-.26a.8.8 0 0 0-.17-.1.54.54 0 0 0  0 .19 21.54 21.54 0 0 0  1.8 1.76l.11.09c.19.16.31.26.31.44s-.12.3-.32.49a.49.49 0 0 1 0 .19l-.19.38a10.34 10.34 0 0 1-.67 1.21c-.19.29-.79.16-1 .11a.75.75 0 0 1-.39-.32l-.09-.11-.24-.26.95-.38.28-.09.24-.08a1.18 1.18 0 0 0-.22-.52 1.68 1.68 0 0 0-.35-.32 3.54 3.54 0 0 1-.28-.24l-.55-.5a13.1 13.1 0 0 0-1.12-1.07 1.09 1.09 0 0 0-.76-.11 3.1 3.1 0 0 0-.76.33l-.36.18-.24.11-.11-.27h-.09l-.29.07a2.25 2.25 0 0 1-1.05 1.25l-.29.21a1 1 0 0 0-.3.65c0 1.18-.84 1.51-1.59 1.81h-.11-.44c.23.07.46.13.69.18a.42.42 0 0 0  .24-.05 4.25 4.25 0 0 1  2.44-.57zm4.91-.34l0 0a1.34 1.34 0 0 0  .44 0l .18-.29h-.11l-.24.08zm59.6-6.17h.22l-.22-.11a.14.14 0 0 0 0 .11zm0-.15v.13h0zm-60.1-5.16l.29.05c.61.11 1 .16 1.38-.23a.85.85 0 0 1  .74-.22 1 1 0 0 0  .8 0c .22-.17.26-.62.28-1a1.31 1.31 0 0 1  .38-1 .88.88 0 0 1  .82-.06c.28.09.36.07.37.07a3.6 3.6 0 0 1-.14-.39 1.35 1.35 0 0 1  0-1.13.83.83 0 0 1  .33-.28 1.21 1.21 0 0 1-1.24-.65 2.77 2.77 0 0 1  .08-3.17 13.27 13.27 0 0 0  1.12-1.56.65.65 0 0 0  .07-.36.72.72 0 0 0-.38-.14c-.41.26-.62.51-.63.64a2.64 2.64 0 0 1-1.15 1.83 2.26 2.26 0 0 0-.83 1.5 1.1 1.1 0 0 0  .24.83c.72.81.3 1.39-.07 1.91l-.06.08a4.86 4.86 0 0 0-.39.71l-.13.26c.27 1-.42 1.37-.94 1.6a2 2 0 0 0-.55.32l-.09.1c-.1.1-.2.2-.3.29zm6.84-4.84a5.4 5.4 0 0 0-1.18.36h.26.34a3.47 3.47 0 0 0  .66-.09.45.45 0 0 0  .1-.1.71.71 0 0 0-.18-.17zm3.28-6.22a1.71 1.71 0 0 1  .16.35 2.6 2.6 0 0 1  .09.61 2.1 2.1 0 0 0  .08.51 1.64 1.64 0 0 0  .46.62v-.06a2.58 2.58 0 0 1 0-.44v-.47h.47a2.25 2.25 0 0 1  .44.06 2.37 2.37 0 0 1  .35.14l.24.1h.09v-.08a1.48 1.48 0 0 1  .18-1.13 1.44 1.44 0 0 1-1.33 0 2.73 2.73 0 0 0-.35-.11l-.36.12zm18.08-3.78v.3a4.06 4.06 0 0 1 0 1.14v0a2.75 2.75 0 0 1  .27-.46 1.11 1.11 0 0 0  .25-.5l-.25-.16a2.24 2.24 0 0 1-.27-.32zm-.15-2q0 .33 0 .66v-.15a1 1 0 0 0 0-.4zm-15.73 26.52h-.09l-.43-.08a2.56 2.56 0 0 1-.67-.18 2.81 2.81 0 0 0-2.32-.09 2.11 2.11 0 0 1-1.11 0l-.44-.07h-.25v-.25c0-.13 0-.26 0-.39a7.93 7.93 0 0 1  .14-1 1.34 1.34 0 0 1  .26-.49 2 2 0 0 0  .13-.19c.41-.72.65-1.1 1-1.12h0c .34 0 .6.33 1.06.95a.73.73 0 0 0  .32.18 1.49 1.49 0 0 1  .55-.21l-.74-.58.67-.33c.29-.14.57-.29.87-.4h0a .46.46 0 0 1  .53.15.45.45 0 0 1  0 .55 4.42 4.42 0 0 1-.45.5l-.09.09a3.43 3.43 0 0 1  .71.39 3.77 3.77 0 0 1  .82.66 4.53 4.53 0 0 1  .46.7l.17.29.14.23zm-2.43-1.08a3.34 3.34 0 0 1 1.46.35 2.27 2.27 0 0 0  .54.14l.36.07.62-.32v-.07a4 4 0 0 0-.44-.61 3.22 3.22 0 0 0-.68-.54c-.58-.39-1-.59-1.49-.25-.27.17-.79-.11-.95-.32s-.55-.74-.66-.75-.43.58-.6.87a2.75 2.75 0 0 1-.16.23 1 1 0 0 0-.18.3 7.46 7.46 0 0 0-.13.9v.16h.24a1.79 1.79 0 0 0  .85 0 3.63 3.63 0 0 1  1.22-.15zm.9-2.37l.19.11 0 0c .11-.12.22-.23.32-.34zm21.65-22.18l-.16-.31-.05-.08a.57.57 0 0 1-.13-.4 1.39 1.39 0 0 1  .16-.43l.06-.13.21-.47.58 1.13zm11.47-4.05l-.73-.6.4-.34c.25-.22.51-.43.77-.63s.34 0 .48.15l.3.27z"/><path d="m37.34 29.75l-.11-.07-.3-.17a4.14 4.14 0 0 1-.7-.44 7.07 7.07 0 0 1-.9-1s-.32-.4-.21-.7c.2-.57.44-1.13.66-1.67l.22-.4c.08-.2.18-.39.27-.59a4 4 0 0 0  .44-1.19 3.21 3.21 0 0 1  1.27-2.23c.2-.16.38-.33.56-.51a3.26 3.26 0 0 1 2.19-1.18 1.67 1.67 0 0 0  .78-.47l.33-.26h.05a1.36 1.36 0 0 1 1-.4.77.77 0 0 1  .5.41c.21.37 0 .93-.22 1.37v.07a1.13 1.13 0 0 1-.65.49h-.06c-2 .89-3.48 2.5-4.71 5.23a2.48 2.48 0 0 0  .25 2.54c.13.19.32.55.14.75a1.13 1.13 0 0 1-.46.28l-.21.09zm5.39-10.84a1.4 1.4 0 0 0-.58.31h-.05l-.3.24a2 2 0 0 1-1.08.59 2.83 2.83 0 0 0-1.87 1c-.19.19-.39.37-.6.54a2.71 2.71 0 0 0-1.09 1.9 4.51 4.51 0 0 1-.49 1.35c-.09.19-.18.37-.26.56l-.19.45c-.22.54-.45 1.1-.65 1.65a1 1 0 0 0  .13.22h0a6.6 6.6 0 0 0  .83.89 3.73 3.73 0 0 0  .62.39l.2.11h.11l.2-.09a1.24 1.24 0 0 0-.11-.2 3 3 0 0 1-.33-3 10 10 0 0 1  5-5.49h.07c.11 0 .36-.15.39-.22v-.07c.11-.25.33-.78.24-.94s-.11-.16-.17-.17z"/><path d="m19.07 19.81l-.19-.06s-.33-.13-.37-.35a1.1 1.1 0 0 0-.37-.48c-.34-.32-.84-.8-.27-1.53a.78.78 0 0 1-.36-.53c0-.3.2-.51.41-.69l.13-.12h0a1.25 1.25 0 0 1-1-.12l0 0 .07.67-.49-.45-.09-.07a.58.58 0 0 1-.28-.36 3.82 3.82 0 0 1  0-.65v-.6h.08a5.75 5.75 0 0 1-.11-.73v-.05h0v-.19c0-.4-.09-.86.17-1.11a1.45 1.45 0 0 1 1-.27h.34a2.45 2.45 0 0 1  .36 0h .27a.91.91 0 0 1  .61-.46c.33-.05.57.19.79.39l.13.12.11.13v.11a2.45 2.45 0 0 0 1 1.79c.25.19.49.42.48.71s-.3.5-.57.65a1.31 1.31 0 0 0-.47.69c-.19.59-.35 1.2-.5 1.79-.11.4-.21.8-.32 1.19a1.11 1.11 0 0 1-.38.5zm.13-4.81l-.34.64-.09.18a2 2 0 0 1-.28.47 2.64 2.64 0 0 1-.24.24c-.09.08-.25.22-.24.28s0 .09.27.25a.32.32 0 0 1  .14.24.36.36 0 0 1-.08.29c-.41.44-.24.61.13 1a1.61 1.61 0 0 1  .49.67.4.4 0 0 0  .11-.15c.11-.39.22-.79.32-1.18.16-.59.32-1.21.51-1.81a1.78 1.78 0 0 1  .69-1c .3-.17.32-.25.32-.26s0-.08-.28-.29a3 3 0 0 1-1.16-2.08h0l-.12-.1c-.14-.13-.3-.28-.39-.26s-.13 0-.28.28-.41.2-.68.19a2 2 0 0 0-.29 0h-.38a1.24 1.24 0 0 0-.65.13c-.08.08 0 .5 0 .71s0 .16 0 .23a6.1 6.1 0 0 0  .12.77l.06.31.14.25a1.89 1.89 0 0 0  .37.53s.11.07.56 0a1.31 1.31 0 0 0  .37-.15l.21-.1z"/><path d="m57 14.91h-.13l-.36-.14a4 4 0 0 1-1.51-.9 1.49 1.49 0 0 1  0-2.11 1.09 1.09 0 0 0  0-.16 3.59 3.59 0 0 0-.43-.2c-.37-.16-.67-.28-.66-.56a4.22 4.22 0 0 1  .33-1.39l.13-.37a.59.59 0 0 1  .3-.3h.07l1.26-.9.28.74c.17.44.33.88.5 1.32a.68.68 0 0 1 0 .29s0 .1 0 .17v.07a.76.76 0 0 0 0 .59.82.82 0 0 0  .54.33 1 1 0 0 1  .61.83 13.51 13.51 0 0 1-.18 2.14c0 .22-.29.38-.4.44a.72.72 0 0 1-.35.11zm-1.7-3.69a.44.44 0 0 1  .16.34.75.75 0 0 1-.13.54 1 1 0 0 0  0 1.43 3.66 3.66 0 0 0  1.36.75l.33.13a.64.64 0 0 0  .24-.16 13.55 13.55 0 0 0  .16-2 .59.59 0 0 0-.24-.35 1.29 1.29 0 0 1-.85-.56 1.21 1.21 0 0 1-.08-.94c0-.06 0-.12 0-.16s0-.09 0-.1c-.16-.43-.33-.87-.49-1.31l-.06-.15-.7.47-.1.06-.1.06c0 .09-.07.22-.12.35a4.14 4.14 0 0 0-.3 1.15 3.34 3.34 0 0 0  .36.17 3.34 3.34 0 0 1  .56.28z"/><path d="m8.91 49.2a.57.57 0 0 1-.34-.2h-.08l-.32-.2.32-.21c.28-.19.26-.39.19-.78a1.35 1.35 0 0 1  .06-.93l.15-.26c.12-.19.29-.47.26-.58h0c0-.09-.19-.21-.34-.31a1.9 1.9 0 0 1-.47-.41 2.74 2.74 0 0 1  0-2.84 1.68 1.68 0 0 1  .59-.33l.23-.1.29-.14.06.32c0 .06 0 .12 0 .18a1.06 1.06 0 0 0  .06.29s0 0 0 0a .65.65 0 0 1  .25.17l0 0c .23.28.44.54.31.77-.22.41-.08.65.25 1.09l.12.16a10.46 10.46 0 0 1 1.26 1.93 2 2 0 0 1  0 1.1c0 .15 0 .3 0 .44v.19l-.76.16c-.71.15-1.42.3-2.13.43zm.7-3.33a1.33 1.33 0 0 1-.31 1l-.14.24a1 1 0 0 0 0 .61 1.3 1.3 0 0 1-.1 1l1.95-.4.39-.08c0-.1 0-.2 0-.3a1.69 1.69 0 0 0 0-.83 10.06 10.06 0 0 0-1.2-1.83l-.12-.16a1.38 1.38 0 0 1-.33-1.55 3.11 3.11 0 0 0-.22-.3v-.05h-.07a.52.52 0 0 1-.28-.23 1.06 1.06 0 0 1-.09-.3 1.21 1.21 0 0 0-.39.21 2.35 2.35 0 0 0  .04 2.1 1.55 1.55 0 0 0  .35.29 1.15 1.15 0 0 1  .53.59z"/><path d="m11.38 49v-.85h.85z"/><path d="m32.38 88a1.13 1.13 0 0 1-.36-.06 1.94 1.94 0 0 1-.88-.91c-.09-.15-.19-.3-.29-.43l-.21-.26.48-.19v-.42c.08-.7.16-1.41.24-2.11a.65.65 0 0 1  .32-.5 3.4 3.4 0 0 0  1.76-1.57c0-.09.16-.2.54-.14.09 0 .29 0 .33.23s.05.22.09.33a2.25 2.25 0 0 1  .12 1.14c-.21.85-.49 1.69-.76 2.5-.12.36-.24.73-.36 1.1v.09a1.75 1.75 0 0 1-.69 1.13.79.79 0 0 1-.33.07zm-.94-1.44l.13.21c.19.31.39.63.61.7a.42.42 0 0 0  .34 0c .21-.11.34-.51.44-.84v-.09c.12-.37.24-.74.36-1.1.27-.81.54-1.64.75-2.47a1.93 1.93 0 0 0-.07-.87l-.06-.21h0a3.86 3.86 0 0 1-2 1.69h0s0 .06 0 .1c-.09.7-.16 1.4-.24 2.1l-.08.72z"/><path d="m2.68 38.24c-1.31 0-1.91-.65-1.95-2.11l-.08-.07a3 3 0 0 0-.28-.19l-.37-.23.32-.4a3.86 3.86 0 0 1  .51-.57l.09-.08h.15a1.09 1.09 0 0 1  .61.44l.09.18.23-.09a4.33 4.33 0 0 1 1.69-.58h.22a1 1 0 0 1  .93.43 2.56 2.56 0 0 1  .46 1.49h0c-.15.85-1.78 1.82-2.56 1.82zm-1.95-2.72l.22.16a.6.6 0 0 1  .27.43c0 1.19.42 1.64 1.45 1.64h0c .61 0 2-.86 2.07-1.41h0a2.18 2.18 0 0 0-.38-1.13.51.51 0 0 0-.36-.21h-.22a4 4 0 0 0-1.5.5.77.77 0 0 1-.6.21c-.19 0-.28-.21-.38-.4a.67.67 0 0 0-.21-.2 4.21 4.21 0 0 0-.36.41z"/><path d="m21.9 14a1.35 1.35 0 0 1-.62-.22l-.23-.12c-.26-.11-.54-.26-.59-.54a.58.58 0 0 1  .12-.44h-1l-.07-.11v-.05l-.11-.12.92-1.83c.1-.1.25-.25.43-.11l.11.09c.37.3.54.44 1 .1.28-.22.72 0 1.23.24.16.08.33.16.47.21s.5.23.43.48-.07.3-.1.45a4.16 4.16 0 0 1-.48 1.39 2 2 0 0 1-1.41.58zm-1.12-1.82h.86l-.38.47a1.51 1.51 0 0 1-.16.19c-.1.16-.1.16-.1.16s0 .06.29.17l.27.14a.94.94 0 0 0  .4.16c.58-.08.93-.2 1-.36a3.77 3.77 0 0 0  .41-1.23l.07-.32h-.09c-.15-.06-.33-.14-.51-.23a2.66 2.66 0 0 0-.74-.28 1 1 0 0 1-1.5-.06l-.6 1.17z"/><path d="m75.51 23h-.15c-.37-.09-.55-.47-.69-.78a1.78 1.78 0 0 1  .46-2.12c.25-.13.43-.14.54 0s .52.27 1 .23a1.64 1.64 0 0 1 1.11.19 4.64 4.64 0 0 1  .68.62l.27.27.22.21-.57.41c-.32.23-.64.47-1 .69a.59.59 0 0 1-.49 0h-.35a.92.92 0 0 0-.37 0 1.11 1.11 0 0 1-.66.28zm-.11-2.49l0 0a1.35 1.35 0 0 0-.29 1.49c.1.2.22.47.36.51s.22 0 .39-.16h0a1 1 0 0 1  .69-.12h.32.15.12c.28-.19.59-.42.91-.65l.1-.07-.08-.08a4.24 4.24 0 0 0-.61-.55 1.22 1.22 0 0 0-.8-.1 1.56 1.56 0 0 1-1.26-.23z"/><path d="m57.87 16.61a.75.75 0 0 1-.48-.29.46.46 0 0 1-.15-.43 19.81 19.81 0 0 1  .88-2.38.82.82 0 0 1  .63-.52.75.75 0 0 1  .7.38l.78 1.09.57.8-.18.15-.32.29a2.33 2.33 0 0 1-.68.49 7.62 7.62 0 0 1-1.69.43zm-.14-.61a.76.76 0 0 0  .16.15 7 7 0 0 0  1.53-.39 2 2 0 0 0  .53-.4l.17-.15-.3-.42-.82-1.13c-.09-.12-.19-.22-.25-.18s-.17.1-.23.24a18.79 18.79 0 0 0-.79 2.28z"/><path d="m33.54 11.75a.46.46 0 0 1-.23-.08s-.62-.41-.59-.77 0-.28 0-.29h0a .74.74 0 0 0-.28 0h0a .82.82 0 0 1-.52-.15l-.15-.07-.26-.11.13-.24a1.81 1.81 0 0 0  .08-.17.87.87 0 0 1  .35-.48 1.91 1.91 0 0 1  1.21-.34 2 2 0 0 1  .4.16c.33.16.44.19.64-.06l.16-.21 1.39 1.22-.7.52c-.53.39-1 .73-1.47 1a .26.26 0 0 1-.16.07zm-.92-1.64a.6.6 0 0 1  .43.14.81.81 0 0 1  .17.69 2.11 2.11 0 0 0  .32.28c.44-.27.85-.58 1.33-.94l.2-.15-.55-.48a.9.9 0 0 1-1.06 0 1.6 1.6 0 0 0-.31-.12 1.69 1.69 0 0 0-.86.29.72.72 0 0 0-.12.22.6.6 0 0 0  .18.07h0z"/><path d="m6.72 48.12a.63.63 0 0 1-.32-.12c-.19-.11-.2-.35-.2-.58a1.64 1.64 0 0 0 0-.21 2.09 2.09 0 0 1  .8-2.11 1.26 1.26 0 0 1  1-.21 1 1 0 0 1  .48.52l.05.07v.12c0 1-.09 2.11-1.33 2.43a2.15 2.15 0 0 1-.48.09zm0-.5a1.7 1.7 0 0 0  .41-.07c.83-.21.91-.83 1-1.9v0c-.08-.16-.15-.26-.2-.27a.8.8 0 0 0-.56.15 1.58 1.58 0 0 0-.62 1.67 2.13 2.13 0 0 1  0 .28s-.05.09-.05.14z"/><path d="m21.85 18.07a5.4 5.4 0 0 1-.57 0h0a .37.37 0 0 1-.26-.18.74.74 0 0 1-.14-.52 9.59 9.59 0 0 1  .27-.93l.13-.41.29-.22.15.13.3.25a6 6 0 0 1  .83.78.46.46 0 0 1  0 .42s-.15.52-.44.63a1.7 1.7 0 0 1-.56.05zm-.46-.53a2.1 2.1 0 0 0  .87 0 1.06 1.06 0 0 0  .14-.32 5.93 5.93 0 0 0-.72-.65h-.06v.07a9 9 0 0 0-.26.88z"/><path d="m37.38 10.19h-.14a1.47 1.47 0 0 1-1-1 .6.6 0 0 1  .15-.58c.25-.22.62-.11.9 0a7.72 7.72 0 0 1  .84.32l.33.14.16.07v.61l-.14.06-.31.16a1.7 1.7 0 0 1-.79.22zm0-.5c.13 0 .36-.1.57-.21l.16-.08-.12-.05a7.34 7.34 0 0 0-.78-.3 1.14 1.14 0 0 0-.49-.05s0 0 0 .12a1 1 0 0 0  .61.59z"/><path d="m39 11.09l-.11-.34c0-.09-.07-.19-.1-.28a1.76 1.76 0 0 1-.18-.78 2 2 0 0 1  .4-.91l.06-.1a.41.41 0 0 1  .35-.14.56.56 0 0 1  .47.19 2.5 2.5 0 0 1  .25.55l.06.16v.07.07c0 .07 0 .14 0 .21a.82.82 0 0 1-.16.48h0a3.18 3.18 0 0 1-.53.44l-.2.15zm.43-2v0a1.62 1.62 0 0 0-.32.67 1.4 1.4 0 0 0  .15.55 2.47 2.47 0 0 0  .4-.33.83.83 0 0 0  0-.21c0-.06 0-.12 0-.18v-.11a2.36 2.36 0 0 0-.16-.4z"/><path d="m80.68 23h-.13 0a6 6 0 0 1-1.21-.69.54.54 0 0 1-.18-.44s0-.08 0-.11l-.05-.25.7-.14h.06l.32.09a3.94 3.94 0 0 1  .75.25 1 1 0 0 1  .38.41l.1.15.16.22-.24.14-.17.12a.89.89 0 0 1-.49.25zm-1.02-1.1a5.53 5.53 0 0 0 1 .59l.18-.13h0a .67.67 0 0 0-.16-.21 3.55 3.55 0 0 0-.68-.15l-.28-.08h-.11z"/><path d="m40.58 9.67l-.14-.24-.12-.18c-.15-.21-.31-.43-.2-.65a4 4 0 0 1  .54-.79l.21-.26.21-.28.92 1.4zm0-.91a2.26 2.26 0 0 0  .13.2l.59-.42-.3-.41h0a3.92 3.92 0 0 0-.41.64z"/><path d="m94.48 29.37l-.78-.71.21-.22.26-.2a3.25 3.25 0 0 1  .79-.49c.24-.09.44.11.65.32l.19.17.29.23zm0-.71l.11.1.67-.38-.16-.14a3.25 3.25 0 0 0-.59.39z"/><path d="m77.2 25.65l-1.36-.74.25-.23.21-.22c.25-.28.45-.5.69-.41h0a1.86 1.86 0 0 1  .67.53l.21.21.22.2zm-.54-.86l.49.27.17-.12 0 0a1.92 1.92 0 0 0-.41-.36l-.23.24z"/><path d="m37.44 11.76c-.15 0-.26-.15-.4-.33l-.11-.14-.17-.2.44-.34a6.2 6.2 0 0 1  .73-.52h0c .19-.11.35 0 .57.21l.28.22.3.23-.66.38a8.47 8.47 0 0 1-.87.47zm0-.59l0 0c .21-.1.42-.23.67-.37h0l-.11-.09c-.19.12-.37.26-.56.41z"/><path d="m54.25 12.62a.24.24 0 0 1-.16-.07 3.59 3.59 0 0 1-.61-.75.3.3 0 0 1  .06-.36c.23-.29.37-.29.48-.25a6.89 6.89 0 0 1  .7.33l.65.33-.37.25-.31.25c-.18.16-.32.27-.44.27zm-.25-.88a3.1 3.1 0 0 0  .25.31l.13-.1h0z"/><path d="m33.91 32a .4.4 0 0 1-.25-.12c-.17-.16-.36-.39-.28-.59h0a1.12 1.12 0 0 1  .57-.6c.19-.08.36 0 .55.17l.25.16.32.19-.52.41a2.9 2.9 0 0 1-.55.38zm0-.62l.06.07.27-.2-.12-.08a.66.66 0 0 0-.24.23z"/><path d="m37.36 8.57a.55.55 0 0 1-.3-.15l-.06-.05-.23-.15.32-.39c.19-.24.39-.48.59-.71s.32-.06.52.07l.25.16.3.18-.51.43c-.26.22-.48.4-.71.57h0a .25.25 0 0 1-.17.04z"/><path d="m99.4 38.33a.52.52 0 0 1-.18 0 6.16 6.16 0 0 1-.57-.25l-.65-.34.43-.24.11-.07a.57.57 0 0 1  .49-.16h0a2.84 2.84 0 0 1  .6.28l.2.11.18.09-.14.53h-.28z"/><path d="m21.45 16.48l-1-.93 1.15-.55.18 1.08c0 .13-.07.22-.16.29z"/><path d="m63.47 24.1h-.11a.87.87 0 0 1-.38-.34l-.09-.12-.21-.23.27-.15.1-.07a.75.75 0 0 1  .42-.17h0a .69.69 0 0 1  .42.23l.16.13.3.22-.32.19-.19.13a.73.73 0 0 1-.37.18zm0-.58v.06l0 0h-.07z"/><path d="m15.45 57l-.18-.42-.1-.21a2.11 2.11 0 0 1-.23-.6.82.82 0 0 1  .14-.52l.07-.14.06-.15h.6l.07.15.1.17a.9.9 0 0 1  .18.59h0a1.36 1.36 0 0 1-.32.58l-.14.18zm.08-1.52h0a .76.76 0 0 0-.09.21 1.26 1.26 0 0 0  .11.32.65.65 0 0 0  .13-.24.89.89 0 0 0-.12-.26z"/><path d="m .04 0h100v100h-100z" fill="none"/></svg>