<?xml version="1.0" encoding="utf-8"?>
<!-- Generator: Adobe Illustrator 19.2.1, SVG Export Plug-In . SVG Version: 6.00 Build 0)  -->
<svg version="1.1" id="Layer_1" xmlns="http://www.w3.org/2000/svg" xmlns:xlink="http://www.w3.org/1999/xlink" x="0px" y="0px"
	 viewBox="0 0 368 116" style="enable-background:new 0 0 368 116;" xml:space="preserve">
<style type="text/css">
	.st0{fill:#B92432;}
	.st1{fill:#939292;}
</style>
<g>
	<g>
		<path class="st0" d="M40,59.7V14.5h11.6v45.2H40z"/>
		<path class="st1" d="M87.4,59.7L69.2,37.5v22.2h-9.4v-36h8.8l18.2,22.2V23.7h9.4v36H87.4z"/>
		<path class="st0" d="M126.3,23.7v36h-11.6v-36h-13.6v-9.3H140v9.3L126.3,23.7L126.3,23.7z"/>
		<path class="st0" d="M156.6,23.5v8.9h21.7v9.1h-21.7v9.1h24.8v9.1H145V14.5h35.6v9.1L156.6,23.5L156.6,23.5z"/>
		<path class="st0" d="M220.6,59.7l-20.9-27.9v27.9h-10.9V14.5H199l21,27.9V14.5h10.8v45.2L220.6,59.7L220.6,59.7z"/>
		<path class="st0" d="M275.4,19l-4.4,9c-4.8-2.8-10.9-4.7-14.6-4.7c-3,0-5,1.1-5,3.3c0,7.8,24.1,3.4,24.1,19.7
			c0,9.1-8,13.8-18.2,13.8c-7.6,0-15.4-2.8-20.8-7.3L241,44c4.7,4.1,11.7,6.8,16.4,6.8c3.6,0,5.9-1.4,5.9-3.9
			c0-8-24.1-3.2-24.1-19.2c0-8.3,7.2-13.6,18.1-13.6C264,14,270.6,16,275.4,19z"/>
		<path class="st0" d="M328,37c0,13.2-10.5,23.2-24.7,23.2c-14.1,0-24.6-10-24.6-23.2c0-13.2,10.5-22.9,24.6-22.9
			C317.5,14.1,328,23.9,328,37z M290.7,37.1c0,7.6,5.9,13.5,12.9,13.5c7,0,12.6-5.9,12.6-13.5c0-7.6-5.6-13.4-12.6-13.4
			C296.5,23.7,290.7,29.5,290.7,37.1z"/>
		<path class="st1" d="M43,89.2v12.7h-1.6V89.2H43z"/>
		<path class="st1" d="M70.5,90.6h-3.8v-1.4H76v1.4h-3.9v11.3h-1.6V90.6z"/>
		<path class="st1" d="M132.5,95.9h-4.9v4.6h5.4v1.4H126V89.2h6.8v1.4h-5.2v4h4.9V95.9z"/>
		<path class="st1" d="M164.4,101.9l-1.6-2.8c-0.7-1.1-1-1.7-1.4-2.5h-0.1c-0.3,0.7-0.7,1.4-1.4,2.5l-1.5,2.8h-1.9l3.9-6.4l-3.7-6.3
			h1.9l1.6,3c0.5,0.8,0.8,1.5,1.1,2.1h0.1c0.3-0.7,0.7-1.4,1.1-2.1l1.7-3h1.9l-3.8,6.2l3.9,6.5H164.4z"/>
		<path class="st1" d="M190.5,89.3c0.8-0.2,1.8-0.3,3.1-0.3c1.6,0,2.8,0.4,3.5,1.1c0.7,0.6,1.1,1.5,1.1,2.6s-0.3,2-1,2.7
			c-0.9,0.9-2.3,1.4-3.9,1.4c-0.5,0-0.9,0-1.3-0.1v5.1h-1.6L190.5,89.3L190.5,89.3z M192.2,95.4c0.3,0.1,0.8,0.1,1.4,0.1
			c2,0,3.2-1,3.2-2.7c0-1.7-1.2-2.5-2.9-2.5c-0.7,0-1.2,0.1-1.5,0.1L192.2,95.4L192.2,95.4z"/>
		<path class="st1" d="M229.3,95.9h-4.9v4.6h5.4v1.4h-7.1V89.2h6.8v1.4h-5.2v4h4.9V95.9z"/>
		<path class="st1" d="M254.3,89.4c0.8-0.2,2-0.3,3.1-0.3c1.8,0,2.9,0.3,3.6,1.1c0.6,0.6,1,1.4,1,2.4c0,1.6-1.1,2.8-2.4,3.2v0.1
			c1,0.3,1.5,1.2,1.9,2.6c0.4,1.7,0.7,3,1,3.5h-1.7c-0.2-0.4-0.5-1.5-0.8-3c-0.4-1.7-1.1-2.4-2.6-2.5h-1.5v5.5h-1.6V89.4z
			 M255.9,95.1h1.6c1.8,0,2.8-1,2.8-2.4c0-1.6-1.2-2.4-2.9-2.4c-0.8,0-1.3,0.1-1.6,0.2L255.9,95.1L255.9,95.1z"/>
		<path class="st1" d="M289.2,90.6h-3.8v-1.4h9.3v1.4h-3.9v11.3h-1.6V90.6z"/>
		<path class="st1" d="M318.1,99.9c0.7,0.5,1.8,0.8,2.9,0.8c1.6,0,2.6-0.8,2.6-2.1c0-1.2-0.7-1.9-2.4-2.5c-2-0.7-3.3-1.8-3.3-3.6
			c0-2,1.6-3.4,4.1-3.4c1.2,0,2.2,0.3,2.8,0.6l-0.5,1.4c-0.4-0.2-1.2-0.6-2.4-0.6c-1.7,0-2.4,1-2.4,1.9c0,1.2,0.7,1.7,2.5,2.4
			c2.1,0.8,3.2,1.9,3.2,3.7c0,1.9-1.4,3.7-4.4,3.7c-1.2,0-2.6-0.4-3.2-0.8L318.1,99.9z"/>
	</g>
</g>
</svg>
