<svg viewBox="0 0 100 100.08" xmlns="http://www.w3.org/2000/svg"><path d="m46.03 25.6v-.01l.23-.11.13-.21-.13.21h.24-.24z"/><path d="m58.63 100h-2.16l-.07-.09a4.53 4.53 0 0 1-.29-.41c-.16-.26-.33-.52-.51-.58a4.53 4.53 0 0 1-3.37-4.19c-.12-1-.26-2-.4-3-.2-1.38-.41-2.81-.54-4.24a5.16 5.16 0 0 1 1-3.27 3.47 3.47 0 0 0  .77-2.77v-.17a10.55 10.55 0 0 1-.43-2.28c0-.48 0-1-.06-1.45a14.27 14.27 0 0 1  .25-4.55c.14-.49.29-1 .44-1.46a16.5 16.5 0 0 0 1-5.44 35.51 35.51 0 0 1  .74-6.9c.14-.8.28-1.6.39-2.39.56-3.77.12-4.6-3.36-6.34a6.35 6.35 0 0 1-2.38-2.28c-1.57-2.49-3-5-4.38-7.6a3.38 3.38 0 0 1-.14-1.89c0-.2 0-.39.05-.58a1.64 1.64 0 0 1  .21-.6 2 2 0 0 0  .11-.26c-1.19-1.79 0-3 1-4l .1-.1c1.87-1.89 2.25-3.83 1.16-5.93a3.7 3.7 0 0 0-1.06-1.07c-.21-.16-.42-.33-.6-.5l-.76-.7 1 .28c1.9.53 3.14-.32 4.72-1.4l.36-.25c1.37-.93 3.72-.56 5.61-.27.53.08 1 .19 1.47.29a7.17 7.17 0 0 0 3.85.16c1.17-.35 1.81.34 2.47 1.22 1.35 1.78 2.91 3.45 5.23 3.65 3.26.28 4.58 1.31 5.43 4.25a2.65 2.65 0 0 0 2.32 2 10.3 10.3 0 0 1  2.11.84l.72.34a3.66 3.66 0 0 1  .53.32 1.59 1.59 0 0 0  .68.33c2.52-.08 4.55 1 6.52 2.15l1 .54a2.51 2.51 0 0 1 1.17 1.66 3.43 3.43 0 0 1-.53 2.75 5.35 5.35 0 0 1-.64.73 6.15 6.15 0 0 0-.51.56l-.27.34c-1.06 1.36-2.06 2.64-2 4.54a9.63 9.63 0 0 1-.73 3.37l-.14.42a5.25 5.25 0 0 1-4.16 4c-3.15.69-4.62 2.29-4.49 4.9a3.54 3.54 0 0 1-.89 2c-.75 1-1.52 2.06-2.26 3-.51.67-1 1.34-1.52 2-1.2 1.62-2.72 1.23-4.06.75a.94.94 0 0 0-.36 0l .15.3c.82 1.48 1 2.55.66 3.35s-1.34 1.34-3 1.66h-.17c-1.1.21-1.9.36-2 1.68 0 .33-.4.5-.85.69a3.33 3.33 0 0 0-.65.34 5.31 5.31 0 0 0-.83.85c1.26 1.75.06 3.05-.82 4l-.37.42-.13.15c-.57.67-1 1.19-1 1.67s.35.72.94 1.14-.38 2.17-.39 2.19a17.73 17.73 0 0 1-1 1.53 10.48 10.48 0 0 0-1.3 2.32c-.59 1.69 0 3.24 1.95 4.88.58.49 1 .87.87 1.28s-.43.52-1.21.68c0 0 0 .1-.07.15a1.88 1.88 0 0 1-.12.19zm-1.92-.5h1.65l0 0c .09-.17.2-.36.4-.4.78-.16.83-.32.83-.32s-.22-.35-.71-.78c-2.07-1.77-2.76-3.54-2.1-5.42a11.07 11.07 0 0 1 1.36-2.43 17.24 17.24 0 0 0  .93-1.48 4.55 4.55 0 0 0  .52-1.67 2.27 2.27 0 0 1-1.1-1.45c-.09-.7.42-1.3 1.07-2.06l.13-.15.39-.43c.91-1 1.85-2 .7-3.49l-.06-.08v-.12c0-.29.81-1 1.06-1.23a3.65 3.65 0 0 1  .76-.4 2 2 0 0 0  .56-.3c.11-1.67 1.27-1.89 2.39-2.11h.17c1.52-.29 2.36-.73 2.67-1.38s.1-1.57-.64-2.9c-.08-.15-.16-.3-.23-.46l-.29-.57h.67a1.68 1.68 0 0 1  .66.06c1.53.56 2.59.64 3.49-.57.5-.68 1-1.35 1.53-2 .74-1 1.51-2 2.23-3a3.32 3.32 0 0 0  .82-1.68c-.14-2.85 1.5-4.67 4.88-5.41a4.74 4.74 0 0 0 3.79-3.64l.15-.42a9.26 9.26 0 0 0  .7-3.19c-.07-2.08 1-3.5 2.09-4.86l.26-.34a6.37 6.37 0 0 1  .56-.62 5 5 0 0 0  .59-.66 2.92 2.92 0 0 0  .41-2.31 2 2 0 0 0-.92-1.34h0l-1-.54c-2-1.12-3.88-2.19-6.26-2.09a1.78 1.78 0 0 1-1-.41 3.3 3.3 0 0 0-.45-.27l-.73-.35a9.93 9.93 0 0 0-2-.8 3.15 3.15 0 0 1-2.64-2.43c-.79-2.76-1.91-3.63-5-3.89-2.51-.21-4.17-2-5.58-3.84-.69-.91-1.14-1.29-1.93-1a7.71 7.71 0 0 1-4.11-.15c-.45-.1-.92-.21-1.39-.28-1.76-.27-4.1-.63-5.31.18l-.36.24c-1.32.93-2.58 1.74-4.17 1.64a3.66 3.66 0 0 1 1 1.11c1.19 2.28.77 4.47-1.25 6.51l-.1.1c-1 1-1.9 1.92-.9 3.39.14.21 0 .47-.1.72a1.36 1.36 0 0 0-.16.41c0 .2 0 .4-.05.61a3.09 3.09 0 0 0  .08 1.61c1.33 2.55 2.79 5.09 4.36 7.56a5.93 5.93 0 0 0 2.23 2.08c3.68 1.84 4.23 2.86 3.63 6.86-.12.8-.26 1.6-.4 2.4a35.16 35.16 0 0 0-.73 6.81 16.88 16.88 0 0 1-1 5.6c-.15.48-.29 1-.43 1.45a13.89 13.89 0 0 0-.23 4.36c0 .49 0 1 .06 1.46a10.26 10.26 0 0 0  .39 2.25v.17a3.94 3.94 0 0 1-.82 3.14 4.7 4.7 0 0 0-1 3c .13 1.41.33 2.83.53 4.21.14 1 .29 2 .4 3a4 4 0 0 0 3 3.77 1.69 1.69 0 0 1  .77.78z"/><path d="m45 27.05a2.26 2.26 0 0 1-1.33-.57l-1.57-1.24c-.85-.67-1.7-1.34-2.55-2l-.26-.24a28.94 28.94 0 0 0-2.58-1.84c-1.12-.68-2.33-1.27-3.49-1.85l-.22-.05-.4-.21a2.65 2.65 0 0 0-1.35-.47c-3.08.38-5.48-1.05-7.8-2.44-.55-.33-1.1-.65-1.65-1a2.53 2.53 0 0 1-.8-1.14l-.13-.28c-.21-.41-.39-.85-.56-1.27a9.85 9.85 0 0 0-1.12-2.19c-.76-1-1.63-2-2.47-2.89-.62-.68-1.27-1.39-1.86-2.12a6.05 6.05 0 0 1-.76-1.25 6.15 6.15 0 0 0-.61-1.06 3.29 3.29 0 0 0-.93-.72l-.11-.06c0 .05 0 .1 0 .16a2.48 2.48 0 0 0  .14 1.14c.5.93 1.07 1.85 1.62 2.74.38.61.76 1.21 1.11 1.83a1.76 1.76 0 0 1  .17.83c0 .11 0 .23 0 .33l.09.67-.5-.45-.24-.19a2.05 2.05 0 0 1-.55-.55q-1-1.63-1.94-3.26c-.92-1.61-1.9-3.27-2.89-4.88l-.32-.53.6.16 1.66.46a23.45 23.45 0 0 0 8.42 1.27h.37l-.12.36c-.13.39.08.56.49.87a1.32 1.32 0 0 1  .72 1.16 3.7 3.7 0 0 0  1.36-.17c.65-.16 1.31-.33 1.62.21a16.08 16.08 0 0 1 1.24 1.43c.93 1.19 1.73 2.22 3.19 2.36h.27l-.05.27a7.47 7.47 0 0 0 1 6 3.27 3.27 0 0 0  2.77 1.62 3.63 3.63 0 0 0  3-1.93 3.08 3.08 0 0 1  1.55-1 7.89 7.89 0 0 0  .75-.34l.31-.17.16 1c .1.56.19 1.13.26 1.7a.8.8 0 0 1-.15.49 1.23 1.23 0 0 0-.08.16c-.49 1.32-.79 2.12-.61 2.39s1 .29 2.32.32a2.64 2.64 0 0 1 2.05.69 2.87 2.87 0 0 1  .38 2.3c-.19 1.59 0 2.59.54 3.16s1.54.73 3.09.54h.39l-.12.37a2 2 0 0 1-1.16 1.32 1.13 1.13 0 0 1-.36.05zm-13.63-9a3.38 3.38 0 0 1 1.49.53l.39.2.17.09c1.17.58 2.39 1.18 3.53 1.87a28.85 28.85 0 0 1 2.63 1.87l.27.21c.86.66 1.71 1.33 2.56 2l1.59 1.27a1.46 1.46 0 0 0 1.22.44 1.22 1.22 0 0 0  .67-.75 3.72 3.72 0 0 1-3.1-.72c-.68-.68-.9-1.81-.68-3.57a2.46 2.46 0 0 0-.27-1.91 2.25 2.25 0 0 0-1.69-.52c-1.65 0-2.4-.07-2.72-.54s-.05-1.22.55-2.84a1.65 1.65 0 0 1  .11-.22.74.74 0 0 0  .09-.19c-.07-.56-.16-1.12-.26-1.67v-.29l-.49.21a2.78 2.78 0 0 0-1.31.82 4.12 4.12 0 0 1-3.36 2.17 3.79 3.79 0 0 1-3.24-1.8 7.81 7.81 0 0 1-1.08-6.11c-1.57-.28-2.44-1.38-3.33-2.54a15.39 15.39 0 0 0-1.23-1.46v-.06c-.1-.21-.42-.15-1.07 0a3.36 3.36 0 0 1-1.85.11l-.24-.08.08-.24c.13-.39-.08-.56-.49-.87a1.38 1.38 0 0 1-.73-1.08 22.29 22.29 0 0 1-7.43-1.07l.23.16c.15.11.32.21.48.3a3.69 3.69 0 0 1 1.06.84 6.52 6.52 0 0 1  .66 1.15 5.65 5.65 0 0 0  .65 1.12c.59.72 1.23 1.42 1.85 2.1.85.93 1.72 1.9 2.5 2.93a10.43 10.43 0 0 1 1.18 2.29c.17.41.35.84.55 1.23l.14.29a2.23 2.23 0 0 0  .67 1c .56.31 1.11.64 1.67 1 2.35 1.41 4.58 2.73 7.48 2.38zm-21.16-17.25c.88 1.45 1.75 2.92 2.6 4.36q1 1.63 1.93 3.26a1.13 1.13 0 0 0  .25.27 1 1 0 0 0-.09-.4c-.36-.61-.73-1.22-1.11-1.82-.56-.9-1.13-1.82-1.64-2.77a2.84 2.84 0 0 1-.15-1.39c0-.2 0-.4 0-.59v-.44l-.65-.18z"/><path d="m50.13 14.6a.37.37 0 0 1-.15 0c-1.5-.68-3.13-1.45-5.12-2.41-.23-.11-.25-.5-.25-.51v-.18l.14-.1a6 6 0 0 1  .58-.26l.34-.14 1.09.56c1.23.63 2.47 1.27 3.7 1.92a.73.73 0 0 1  .3.43 1.08 1.08 0 0 0  .06.14l.13.25-.26.1-.14.07a.89.89 0 0 1-.42.13zm-5-2.85c2 .94 3.55 1.69 5 2.36 0 0 0 0 .08-.07a.55.55 0 0 0-.06-.13c-1.15-.65-2.41-1.29-3.64-1.91l-.88-.45-.13.05z"/><path d="m54.61 16.58a1.86 1.86 0 0 1-1-.5 4.52 4.52 0 0 0-.39-.28l-.29-.18 1.64-1.43 2.43 1.38-.43.2c-.17.08-.34.18-.51.27a3.48 3.48 0 0 1-1.35.53zm-.88-1l .16.12a1.6 1.6 0 0 0  .74.39 3.1 3.1 0 0 0  1.15-.47l.13-.07-1.3-.74z"/><path d="m66.49 94.59l-1.22-.89.4-.17.32-.15a3 3 0 0 1  .88-.32 1 1 0 0 1  .67.28l.2.14.38.22zm-.23-.79l.27.2.62-.33a.6.6 0 0 0-.21-.11h0a2.34 2.34 0 0 0-.68.24z"/><path d="m0 .08h100v100h-100z" fill="none"/></svg>