<?xml version="1.0" encoding="utf-8"?>
<!-- Generator: Adobe Illustrator 19.2.1, SVG Export Plug-In . SVG Version: 6.00 Build 0)  -->
<svg version="1.1" id="Layer_1" xmlns:sketch="http://www.bohemiancoding.com/sketch/ns"
	 xmlns="http://www.w3.org/2000/svg" xmlns:xlink="http://www.w3.org/1999/xlink" x="0px" y="0px" viewBox="0 0 810 886"
	 style="enable-background:new 0 0 810 886;" xml:space="preserve">
<style type="text/css">
	.st0{fill:#E24329;}
	.st1{fill:none;stroke:#E5E5E4;stroke-width:2;stroke-linecap:round;stroke-linejoin:round;stroke-miterlimit:10;}
	.st2{fill:#8C929D;}
	.st3{fill:#FC6D26;}
	.st4{fill:#FCA326;}
	.st5{fill:#444444;}
	.st6{fill:#554488;}
	.st7{fill:#4887C5;}
	.st8{fill:url(#SVGID_1_);}
	.st9{fill:url(#SVGID_2_);}
	.st10{fill:#FFFFFF;}
	.st11{opacity:0.1;}
	.st12{fill:#5C5C5C;}
	.st13{fill:#787878;}
	.st14{fill:#A1A1A1;}
	.st15{opacity:0.15;}
	.st16{fill:#373D47;}
	.st17{fill:none;stroke:#000000;stroke-miterlimit:10;}
	.st18{fill:none;stroke:#FC6D26;stroke-width:1.8;stroke-linecap:round;stroke-linejoin:round;stroke-miterlimit:10;}
	.st19{fill:none;stroke:#E24329;stroke-width:1.8;stroke-linecap:round;stroke-linejoin:round;stroke-miterlimit:10;}
	.st20{fill:none;stroke:#FCA326;stroke-width:1.8;stroke-linecap:round;stroke-linejoin:round;stroke-miterlimit:10;}
	.st21{fill:none;stroke:#E5E5E4;stroke-width:1.8;stroke-linecap:round;stroke-linejoin:round;stroke-miterlimit:10;}
	.st22{fill:#2B2B2B;}
	.st23{fill:#FFFFFF;stroke:#E5E5E4;stroke-width:2;stroke-linecap:round;stroke-linejoin:round;stroke-miterlimit:10;}
	.st24{fill:#E5E5E4;}
	.st25{fill:none;stroke:#E5E5E4;stroke-width:1.8353;stroke-linecap:round;stroke-linejoin:round;stroke-miterlimit:10;}
	.st26{fill:none;stroke:#E14329;stroke-width:2;stroke-linecap:round;stroke-linejoin:round;stroke-miterlimit:10;}
	.st27{fill:#FFFFFF;stroke:#E14329;stroke-width:2;stroke-linecap:round;stroke-linejoin:round;stroke-miterlimit:10;}
	.st28{fill:none;stroke:#E14329;stroke-width:1.9627;stroke-linecap:round;stroke-linejoin:round;stroke-miterlimit:10;}
	.st29{fill:#E14329;}
	.st30{fill:none;stroke:#E14329;stroke-width:2.1099;stroke-linecap:round;stroke-linejoin:round;stroke-miterlimit:10;}
	.st31{fill:none;stroke:#FCA326;stroke-width:2;stroke-linecap:round;stroke-linejoin:round;stroke-miterlimit:10;}
	.st32{fill:none;stroke:#E14329;stroke-width:4;stroke-linecap:round;stroke-linejoin:round;stroke-miterlimit:10;}
	.st33{fill:none;stroke:#E14329;stroke-width:1.8353;stroke-linecap:round;stroke-linejoin:round;stroke-miterlimit:10;}
	.st34{fill:none;stroke:#E14329;stroke-width:2.055;stroke-linecap:round;stroke-linejoin:round;stroke-miterlimit:10;}
	.st35{fill:#463675;}
	.st36{fill:none;stroke:#FFFFFF;stroke-width:2;stroke-miterlimit:10;}
	.st37{fill:none;stroke:#FFFFFF;stroke-width:2.0065;stroke-miterlimit:10;}
	.st38{fill:none;stroke:#E14329;stroke-width:2.1111;stroke-linecap:round;stroke-linejoin:round;stroke-miterlimit:10;}
	.st39{fill:none;stroke:#E14329;stroke-width:2.0295;stroke-linecap:round;stroke-linejoin:round;stroke-miterlimit:10;}
	.st40{fill:#FFB6CA;}
	.st41{fill:none;stroke:#E24329;stroke-width:2;stroke-linecap:round;stroke-linejoin:round;stroke-miterlimit:10;}
	.st42{fill:none;stroke:#E14329;stroke-width:2.0074;stroke-linecap:round;stroke-linejoin:round;stroke-miterlimit:10;}
	.st43{fill:none;stroke:#E14329;stroke-width:1.9282;stroke-linecap:round;stroke-linejoin:round;stroke-miterlimit:10;}
	.st44{fill:none;stroke:#E14329;stroke-width:2.0019;stroke-linecap:round;stroke-linejoin:round;stroke-miterlimit:10;}
	.st45{fill:none;stroke:#E14329;stroke-width:2.0013;stroke-linecap:round;stroke-linejoin:round;stroke-miterlimit:10;}
	.st46{fill:none;stroke:#E14329;stroke-width:2.0821;stroke-linecap:round;stroke-linejoin:round;stroke-miterlimit:10;}
	.st47{fill:none;stroke:#E14329;stroke-width:1.8741;stroke-linecap:round;stroke-linejoin:round;stroke-miterlimit:10;}
	.st48{fill:none;stroke:#E14329;stroke-width:1.9965;stroke-linecap:round;stroke-linejoin:round;stroke-miterlimit:10;}
	.st49{fill:none;stroke:#E14329;stroke-width:2.1108;stroke-linecap:round;stroke-linejoin:round;stroke-miterlimit:10;}
	.st50{fill:none;stroke:#E14329;stroke-width:2.1;stroke-linecap:round;stroke-linejoin:round;stroke-miterlimit:10;}
	.st51{fill:none;stroke:#E14329;stroke-width:2.1103;stroke-linecap:round;stroke-linejoin:round;stroke-miterlimit:10;}
	.st52{fill:none;stroke:#E14329;stroke-width:1.9134;stroke-linecap:round;stroke-linejoin:round;stroke-miterlimit:10;}
	.st53{fill:none;stroke:#E14329;stroke-width:1.8373;stroke-linecap:round;stroke-linejoin:round;stroke-miterlimit:10;}
	.st54{fill:none;stroke:#E24329;stroke-width:2.0215;stroke-linecap:round;stroke-linejoin:round;stroke-miterlimit:10;}
	.st55{fill:none;stroke:#E24329;stroke-width:2.1768;stroke-linecap:round;stroke-linejoin:round;stroke-miterlimit:10;}
	.st56{fill:#FFFFFF;stroke:#E14329;stroke-width:1.8373;stroke-linecap:round;stroke-linejoin:round;stroke-miterlimit:10;}
	.st57{fill:#FFFFFF;stroke:#E14329;stroke-width:1.725;stroke-linecap:round;stroke-linejoin:round;stroke-miterlimit:10;}
	.st58{fill:none;stroke:#000000;stroke-width:2;stroke-miterlimit:10;}
	.st59{fill:none;stroke:#373D47;stroke-width:2;stroke-linecap:round;stroke-linejoin:round;stroke-miterlimit:10;}
	.st60{fill:#FFFFFF;stroke:#373D47;stroke-width:2;stroke-linecap:round;stroke-linejoin:round;stroke-miterlimit:10;}
</style>
<g>
	<path id="path14_21_" class="st2" d="M411.7,582.8h-21.8l0.1,162.5h88.3v-20.1h-66.5L411.7,582.8L411.7,582.8z"/>
	<g id="g24_21_" transform="translate(977.327440, 143.284396)" sketch:type="MSLayerGroup">
		<path id="path26_21_" sketch:type="MSShapeGroup" class="st2" d="M-415,573.5c-5.5,5.7-14.6,11.4-27,11.4
			c-16.6,0-23.3-8.2-23.3-18.9c0-16.1,11.2-23.8,35-23.8c4.5,0,11.7,0.5,15.4,1.2L-415,573.5L-415,573.5z M-437.6,475
			c-17.6,0-33.8,6.2-46.4,16.7l7.7,13.4c8.9-5.2,19.8-10.4,35.5-10.4c17.9,0,25.8,9.2,25.8,24.6v7.9c-3.5-0.7-10.7-1.2-15.1-1.2
			c-38.2,0-57.6,13.4-57.6,41.4c0,25.1,15.4,37.7,38.7,37.7c15.7,0,30.8-7.2,36-18.9l4,15.9h15.4v-83.2
			C-393.7,492.6-405.1,475-437.6,475L-437.6,475z"/>
	</g>
	<g id="g28_21_" transform="translate(1099.766904, 143.128930)" sketch:type="MSLayerGroup">
		<path id="path30_21_" sketch:type="MSShapeGroup" class="st2" d="M-445.7,585.8c-8.2,0-15.4-1-20.8-3.5V515v-7.8
			c7.4-6.2,16.6-10.7,28.3-10.7c21.1,0,29.2,14.9,29.2,39C-409,569.7-422.1,585.8-445.7,585.8 M-436.5,475.2
			c-19.5,0-30,13.3-30,13.3v-21l-0.1-27.8h-9.8h-11.5l0.1,158.5c10.7,4.5,25.3,6.9,41.2,6.9c40.7,0,60.3-26,60.3-70.9
			C-386.4,498.7-404.5,475.2-436.5,475.2"/>
	</g>
	<g id="g32_21_" transform="translate(584.042117, 143.630796)" sketch:type="MSLayerGroup">
		<path id="path34_21_" sketch:type="MSShapeGroup" class="st2" d="M-409.7,456.8c19.3,0,31.8,6.4,39.9,12.9l9.4-16.3
			c-12.7-11.2-29.9-17.2-48.3-17.2c-46.4,0-78.9,28.3-78.9,85.4c0,59.8,35.1,83.1,75.2,83.1c20.1,0,37.2-4.7,48.4-9.4l-0.5-63.9
			v-7.5v-12.6H-424v20.1h38l0.5,48.5c-5,2.5-13.6,4.5-25.3,4.5c-32.2,0-53.8-20.3-53.8-63C-464.7,477.9-442.4,456.8-409.7,456.8"/>
	</g>
	<g id="g36_21_" transform="translate(793.569045, 142.577463)" sketch:type="MSLayerGroup">
		<path id="path38_21_" sketch:type="MSShapeGroup" class="st2" d="M-465.7,440.2H-487l0.1,27.3v11.2v6.5v11.4v65v0.2
			c0,26.3,11.4,43.9,43.9,43.9c4.5,0,8.9-0.4,13.1-1.2v-19.1c-3.1,0.5-6.4,0.7-9.9,0.7c-17.9,0-25.8-9.2-25.8-24.6v-65h35.7v-17.8
			h-35.7L-465.7,440.2L-465.7,440.2z"/>
	</g>
	<path id="path40_21_" sketch:type="MSShapeGroup" class="st2" d="M252.4,745.3h21.3v-124h-21.3V745.3L252.4,745.3z"/>
	<path id="path42_21_" sketch:type="MSShapeGroup" class="st2" d="M252.4,604.2h21.3v-21.3h-21.3V604.2L252.4,604.2z"/>
	<g id="g44_99_" transform="translate(0.532000, 0.774933)" sketch:type="MSLayerGroup">
		<path id="path46_248_" sketch:type="MSShapeGroup" class="st3" d="M649.8,327.9l-27.6-84.8L567.6,74.9c-2.8-8.6-15-8.6-17.9,0
			L495.1,243H313.7L259.1,74.9c-2.8-8.6-15-8.6-17.9,0L186.7,243l-27.6,84.9c-2.5,7.7,0.2,16.2,6.8,21l238.5,173.3l238.5-173.3
			C649.5,344.1,652.3,335.6,649.8,327.9"/>
	</g>
	<g id="g48_52_" transform="translate(155.197863, 1.160267)" sketch:type="MSLayerGroup">
		<path id="path50_52_" sketch:type="MSShapeGroup" class="st0" d="M249.8,521.7L249.8,521.7l90.7-279.1H159.1L249.8,521.7
			L249.8,521.7z"/>
	</g>
	<g id="g56_56_" transform="translate(28.531199, 1.160800)" sketch:type="MSLayerGroup">
		<path id="path58_56_" sketch:type="MSShapeGroup" class="st3" d="M376.4,521.7l-90.7-279.1h-127L376.4,521.7L376.4,521.7z"/>
	</g>
	<g id="g64_57_" transform="translate(0.088533, 0.255867)" sketch:type="MSLayerGroup">
		<path id="path66_57_" sketch:type="MSShapeGroup" class="st4" d="M187.1,243.6L187.1,243.6l-27.6,84.8c-2.5,7.7,0.2,16.2,6.8,21
			l238.5,173.3L187.1,243.6L187.1,243.6z"/>
	</g>
	<g id="g72_43_" transform="translate(29.421866, 280.255593)" sketch:type="MSLayerGroup">
		<path id="path74_43_" sketch:type="MSShapeGroup" class="st0" d="M157.8-36.4h127.1l-54.7-168.1c-2.8-8.6-15-8.6-17.9,0
			L157.8-36.4L157.8-36.4z"/>
	</g>
	<g id="g76_46_" transform="translate(247.197860, 1.160800)" sketch:type="MSLayerGroup">
		<path id="path78_46_" sketch:type="MSShapeGroup" class="st3" d="M157.8,521.7l90.7-279.1h127.1L157.8,521.7L157.8,521.7z"/>
	</g>
	<g id="g80_47_" transform="translate(246.307061, 0.255867)" sketch:type="MSLayerGroup">
		<path id="path82_47_" sketch:type="MSShapeGroup" class="st4" d="M376.4,243.6L376.4,243.6l27.6,84.8c2.5,7.7-0.2,16.2-6.8,21
			L158.7,522.6L376.4,243.6L376.4,243.6z"/>
	</g>
	<g id="g84_53_" transform="translate(336.973725, 280.255593)" sketch:type="MSLayerGroup">
		<path id="path86_53_" sketch:type="MSShapeGroup" class="st0" d="M285.8-36.4H158.7l54.6-168.1c2.8-8.6,15-8.6,17.9,0L285.8-36.4
			L285.8-36.4z"/>
	</g>
	<g>
		<path class="st16" d="M117.2,802.1h11.4v4h-11.4V802.1z"/>
		<path class="st16" d="M163.7,807.7h-10.5l-2.4,8.5H145l10.3-31.4h6.5l10.2,31.4h-5.9L163.7,807.7z M162.5,803.3l-1.1-3.8
			c-1-3.3-1.9-6.9-2.8-10.4h-0.2c-0.9,3.5-1.8,7.1-2.8,10.4l-1.1,3.8H162.5z"/>
		<path class="st16" d="M176.8,784.8h5.6v18c0,6.8,2.6,9.1,6.4,9.1c3.8,0,6.5-2.3,6.5-9.1v-18h5.4v17.6c0,10.3-4.6,14.4-11.9,14.4
			c-7.3,0-12-4-12-14.4V784.8z"/>
		<path class="st16" d="M216.2,789.5h-9.1v-4.7h23.7v4.7h-9v26.7h-5.6V789.5z"/>
		<path class="st16" d="M237.4,784.8h5.6v12.6h12.7v-12.6h5.6v31.4h-5.6v-13.9H243v13.9h-5.6V784.8z"/>
		<path class="st16" d="M269.3,800.4c0-10.1,5.7-16.1,13.9-16.1c8.2,0,13.8,6,13.8,16.1c0,10.2-5.7,16.4-13.8,16.4
			C274.9,816.8,269.3,810.5,269.3,800.4z M291.2,800.4c0-7-3.2-11.3-8.1-11.3c-4.9,0-8.2,4.3-8.2,11.3c0,7.1,3.2,11.6,8.2,11.6
			C288,811.9,291.2,807.4,291.2,800.4z"/>
		<path class="st16" d="M322.1,816.2l-6.8-12.3h-4.8v12.3H305v-31.4h10.6c6.5,0,11.6,2.3,11.6,9.3c0,4.8-2.5,7.7-6.3,9l7.5,13.1
			H322.1z M310.5,799.5h4.4c4.3,0,6.6-1.8,6.6-5.4c0-3.6-2.3-4.8-6.6-4.8h-4.4V799.5z"/>
		<path class="st16" d="M335.2,784.8h5.6v31.4h-5.6V784.8z"/>
		<path class="st16" d="M351.1,808.4c2.3,2.1,5.3,3.6,8.2,3.6c3.5,0,5.5-1.6,5.5-4c0-2.6-2-3.4-4.9-4.6l-4.3-1.9
			c-3.1-1.3-6.3-3.7-6.3-8.4c0-5,4.4-8.8,10.5-8.8c3.7,0,7.2,1.5,9.7,4l-2.9,3.6c-2-1.7-4.1-2.7-6.8-2.7c-3,0-4.9,1.4-4.9,3.7
			c0,2.4,2.4,3.4,5,4.4l4.2,1.8c3.7,1.6,6.3,3.9,6.3,8.5c0,5.1-4.2,9.3-11.3,9.3c-4.2,0-8.3-1.7-11.3-4.6L351.1,808.4z"/>
		<path class="st16" d="M377.9,784.8h18.9v4.7h-13.3v8h11.3v4.7h-11.3v9.3h13.8v4.7h-19.3V784.8z"/>
		<path class="st16" d="M404.9,784.8h8.4c9.6,0,15.3,5.2,15.3,15.6c0,10.4-5.7,15.8-15,15.8h-8.6V784.8z M412.9,811.7
			c6.3,0,10-3.6,10-11.3c0-7.7-3.6-11-10-11h-2.4v22.4H412.9z"/>
		<path class="st16" d="M466.6,816.2l-6.8-12.3h-4.8v12.3h-5.6v-31.4H460c6.5,0,11.6,2.3,11.6,9.3c0,4.8-2.5,7.7-6.3,9l7.5,13.1
			H466.6z M455.1,799.5h4.4c4.3,0,6.6-1.8,6.6-5.4c0-3.6-2.3-4.8-6.6-4.8h-4.4V799.5z"/>
		<path class="st16" d="M479.8,784.8h18.9v4.7h-13.3v8h11.3v4.7h-11.3v9.3h13.8v4.7h-19.3V784.8z"/>
		<path class="st16" d="M508.5,808.4c2.3,2.1,5.3,3.6,8.2,3.6c3.5,0,5.5-1.6,5.5-4c0-2.6-2-3.4-4.9-4.6l-4.3-1.9
			c-3.1-1.3-6.3-3.7-6.3-8.4c0-5,4.4-8.8,10.5-8.8c3.7,0,7.2,1.5,9.7,4l-2.9,3.6c-2-1.7-4.1-2.7-6.8-2.7c-3,0-4.9,1.4-4.9,3.7
			c0,2.4,2.4,3.4,5,4.4l4.2,1.8c3.7,1.6,6.3,3.9,6.3,8.5c0,5.1-4.2,9.3-11.3,9.3c-4.2,0-8.3-1.7-11.3-4.6L508.5,808.4z"/>
		<path class="st16" d="M535.3,784.8h18.9v4.7h-13.3v8h11.3v4.7h-11.3v9.3h13.8v4.7h-19.3V784.8z"/>
		<path class="st16" d="M562.4,784.8h5.6v26.7h13v4.7h-18.6V784.8z"/>
		<path class="st16" d="M587.7,784.8h5.6v26.7h13v4.7h-18.6V784.8z"/>
		<path class="st16" d="M613,784.8h18.9v4.7h-13.3v8h11.3v4.7h-11.3v9.3h13.8v4.7H613V784.8z"/>
		<path class="st16" d="M657.2,816.2l-6.8-12.3h-4.8v12.3h-5.6v-31.4h10.6c6.5,0,11.6,2.3,11.6,9.3c0,4.8-2.5,7.7-6.3,9l7.5,13.1
			H657.2z M645.7,799.5h4.4c4.3,0,6.6-1.8,6.6-5.4c0-3.6-2.3-4.8-6.6-4.8h-4.4V799.5z"/>
		<path class="st16" d="M681.4,802.1h11.4v4h-11.4V802.1z"/>
	</g>
</g>
</svg>
