<?xml version="1.0" encoding="utf-8"?>
<!-- Generator: Adobe Illustrator 19.2.1, SVG Export Plug-In . SVG Version: 6.00 Build 0)  -->
<svg version="1.1" id="Layer_1" xmlns="http://www.w3.org/2000/svg" xmlns:xlink="http://www.w3.org/1999/xlink" x="0px" y="0px"
	 viewBox="0 0 368 116" style="enable-background:new 0 0 368 116;" xml:space="preserve">
<style type="text/css">
	.st0{fill:#1C1B1A;}
	.st1{fill-rule:evenodd;clip-rule:evenodd;fill:#A7C919;}
	.st2{fill-rule:evenodd;clip-rule:evenodd;fill:#E36A1C;}
	.st3{fill-rule:evenodd;clip-rule:evenodd;fill:#1C1B1A;}
</style>
<g>
	<path class="st0" d="M147.2,115.8v-12.1h1.3v12.1H147.2L147.2,115.8z M150.7,115.8v-12.1h1.3l5.2,9.5v-9.5h1.3v12.1h-1.3l-5.2-9.5
		v9.5H150.7L150.7,115.8z M160.8,115.8v-12.1h6.7v1.4h-5.4v3.7h4.6v1.4h-4.6v5.5H160.8L160.8,115.8z M168.8,109.9
		c0-2.1,0.5-3.6,1.4-4.7c0.9-1.1,2-1.7,3.4-1.7c0.9,0,1.7,0.2,2.4,0.7c0.7,0.5,1.3,1.2,1.7,2.2c0.4,0.9,0.6,2.1,0.6,3.4
		c0,1.8-0.4,3.2-1.2,4.4c-0.9,1.2-2.1,1.9-3.5,1.9c-1.5,0-2.6-0.6-3.5-1.9C169.2,112.9,168.8,111.5,168.8,109.9L168.8,109.9z
		 M170.2,109.9c0,1.5,0.3,2.6,1,3.5c0.7,0.8,1.5,1.2,2.4,1.2c1,0,1.8-0.4,2.4-1.2c0.6-0.8,1-2,1-3.7c0-1-0.2-2-0.5-2.8
		c-0.3-0.6-0.6-1.1-1.2-1.5c-0.5-0.4-1.1-0.6-1.7-0.6c-1,0-1.8,0.4-2.4,1.2C170.5,106.9,170.2,108.2,170.2,109.9L170.2,109.9z
		 M179.5,111.9l1.2-0.1c0.1,0.7,0.2,1.2,0.4,1.6c0.2,0.4,0.6,0.7,1,0.9c0.4,0.2,0.9,0.3,1.5,0.3c0.8,0,1.4-0.2,1.8-0.6
		c0.4-0.4,0.6-0.9,0.6-1.5c0-0.4-0.1-0.7-0.2-0.9c-0.2-0.3-0.4-0.5-0.7-0.7c-0.3-0.2-1-0.4-2-0.7c-0.9-0.3-1.6-0.6-2-0.8
		c-0.4-0.3-0.7-0.6-0.9-1.1c-0.2-0.4-0.3-0.9-0.3-1.5c0-1,0.3-1.8,0.9-2.4c0.6-0.6,1.5-0.9,2.6-0.9c0.7,0,1.4,0.1,1.9,0.4
		c0.5,0.3,1,0.7,1.3,1.2c0.3,0.5,0.5,1.2,0.5,1.9l-1.3,0.1c-0.1-0.8-0.3-1.4-0.7-1.7c-0.4-0.4-1-0.6-1.7-0.6c-0.7,0-1.3,0.2-1.7,0.5
		c-0.4,0.3-0.6,0.8-0.6,1.3c0,0.5,0.1,0.9,0.4,1.1c0.3,0.3,0.9,0.5,1.9,0.8c1,0.3,1.7,0.5,2.1,0.7c0.6,0.3,1.1,0.7,1.4,1.2
		c0.3,0.5,0.5,1.1,0.5,1.8c0,0.7-0.2,1.3-0.5,1.9c-0.3,0.6-0.8,1-1.3,1.3c-0.6,0.3-1.2,0.4-2,0.4c-1.2,0-2.2-0.4-2.9-1.1
		C179.9,114.2,179.5,113.2,179.5,111.9L179.5,111.9z M191.9,115.8v-5.1l-3.8-7h1.6l1.9,3.6c0.4,0.7,0.7,1.4,1,2
		c0.3-0.6,0.6-1.3,1.1-2.1l1.9-3.5h1.5l-3.9,7v5.1H191.9L191.9,115.8z M197.9,111.9l1.2-0.1c0.1,0.7,0.2,1.2,0.4,1.6
		c0.2,0.4,0.6,0.7,1,0.9c0.4,0.2,0.9,0.3,1.5,0.3c0.8,0,1.4-0.2,1.8-0.6c0.4-0.4,0.6-0.9,0.6-1.5c0-0.4-0.1-0.7-0.2-0.9
		c-0.2-0.3-0.4-0.5-0.7-0.7c-0.3-0.2-1-0.4-2-0.7c-0.9-0.3-1.6-0.6-2-0.8c-0.4-0.3-0.7-0.6-0.9-1.1c-0.2-0.4-0.3-0.9-0.3-1.5
		c0-1,0.3-1.8,0.9-2.4c0.6-0.6,1.5-0.9,2.6-0.9c0.7,0,1.4,0.1,1.9,0.4c0.5,0.3,1,0.7,1.3,1.2c0.3,0.5,0.5,1.2,0.5,1.9l-1.3,0.1
		c-0.1-0.8-0.3-1.4-0.7-1.7c-0.4-0.4-1-0.6-1.7-0.6c-0.7,0-1.3,0.2-1.7,0.5c-0.4,0.3-0.6,0.8-0.6,1.3c0,0.5,0.1,0.9,0.4,1.1
		c0.3,0.3,0.9,0.5,1.9,0.8c1,0.3,1.7,0.5,2.1,0.7c0.6,0.3,1.1,0.7,1.4,1.2c0.3,0.5,0.5,1.1,0.5,1.8c0,0.7-0.2,1.3-0.5,1.9
		c-0.3,0.6-0.8,1-1.3,1.3c-0.6,0.3-1.2,0.4-2,0.4c-1.2,0-2.2-0.4-2.9-1.1C198.3,114.2,197.9,113.2,197.9,111.9L197.9,111.9z
		 M210.1,115.8v-10.6h-3.3v-1.4h7.8v1.4h-3.3v10.6H210.1L210.1,115.8z M216,115.8v-12.1h7.1v1.4h-5.8v3.7h5.5v1.4h-5.5v4.1h6.1v1.4
		H216L216,115.8z M225.2,115.8v-12.1h2l2.3,8.5l0.5,1.8c0.1-0.4,0.3-1.1,0.5-1.9l2.4-8.4h1.8v12.1h-1.3v-10.1l-2.9,10.1h-1.2
		l-2.9-10.3v10.3H225.2L225.2,115.8z M236.3,111.9l1.2-0.1c0.1,0.7,0.2,1.2,0.4,1.6c0.2,0.4,0.6,0.7,1,0.9c0.4,0.2,0.9,0.3,1.5,0.3
		c0.8,0,1.4-0.2,1.8-0.6c0.4-0.4,0.6-0.9,0.6-1.5c0-0.4-0.1-0.7-0.2-0.9c-0.2-0.3-0.4-0.5-0.7-0.7c-0.3-0.2-1-0.4-2-0.7
		c-0.9-0.3-1.6-0.6-2-0.8c-0.4-0.3-0.7-0.6-0.9-1.1c-0.2-0.4-0.3-0.9-0.3-1.5c0-1,0.3-1.8,0.9-2.4c0.6-0.6,1.5-0.9,2.6-0.9
		c0.7,0,1.4,0.1,1.9,0.4c0.6,0.3,1,0.7,1.3,1.2c0.3,0.5,0.5,1.2,0.5,1.9l-1.3,0.1c-0.1-0.8-0.3-1.4-0.7-1.7c-0.4-0.4-1-0.6-1.7-0.6
		c-0.7,0-1.3,0.2-1.7,0.5c-0.4,0.3-0.6,0.8-0.6,1.3c0,0.5,0.1,0.9,0.4,1.1c0.3,0.3,0.9,0.5,1.9,0.8c1,0.3,1.7,0.5,2.1,0.7
		c0.6,0.3,1.1,0.7,1.4,1.2c0.3,0.5,0.5,1.1,0.5,1.8c0,0.7-0.2,1.3-0.5,1.9c-0.3,0.6-0.8,1-1.3,1.3c-0.6,0.3-1.2,0.4-2,0.4
		c-1.2,0-2.2-0.4-2.9-1.1C236.7,114.2,236.3,113.2,236.3,111.9L236.3,111.9z"/>
	<path class="st1" d="M247.2,33.4c-20.8-2.1-30.3-14.8-33.5-33.4c-2,18.4-11.2,31-33.3,33.4c19.8,2.8,31.3,13.7,33.5,33.4
		C216.9,46.4,228.5,35.8,247.2,33.4L247.2,33.4z"/>
	<path class="st2" d="M214.2,67c20.8-2.1,30.3-14.8,33.5-33.4c2,18.4,11.2,31,33.3,33.4c-19.8,2.8-31.3,13.7-33.5,33.4
		C244.5,80,232.9,69.4,214.2,67L214.2,67z"/>
	<path class="st3" d="M109.4,65.9c3.6,4.6,8.7,3.5,16.4-7.1c2.9-4,6.1-8.7,2.2-13.4c-2.1-2.6-6-3.7-9.5-2.5c-7.1,2.6-12.7,8-16,14.1
		c-3.2,5.9-5.8,14.5,1.4,18.7c5,2.9,12.8,0.6,23-8.3c4.6-9.6,10.6-17.3,18-23.3c4.9-2.7,7.8-0.2,4.6,5.2
		c-4.2,6.1-9.5,11.3-15.6,15.9c-3.6,9.9-9.4,15.7-17.3,17.5c5.1,3.1,11.3,5.5,19,4.1c-1.9-2.1-2.1-4.8-0.4-8.3l5.9-10h6.1L139,81.7
		c-1.7,2.7,0.1,4.1,2.4,1.6l10-15.1h6.2l-8.7,15.1c5.6-2.1,10-9.7,15.1-14.5c1.6-1.2,3.4-1.5,5.5-0.8l1.7,2.7
		c1.8-2.9,4.3-3.7,7.3-3.1l0,3.5c-2.6,0.2-5.2,2-7.9,4.5c-0.3,2.6,1.1,3.5,3.2,3c4.2-5.5,8.6-8.7,13.3-10.2c2.1-1,5.9-1.2,10.8-0.8
		c1.4,0.2,1.4,0.8,0.3,2.3l-6.9,12.4c-1.4,2.3,0.2,2.8,2.3,0.8c2.6-2.4,4.8-5,6.9-7.9l1.8,1.4c-8,11.4-12.5,13.2-16.6,7.5
		c-6.1,6.4-11.4,2-10.3-4c-3.8,1-6.2,0.4-7.3-2l-5.6,8H157l8-13.3c0.5-1.3-0.3-1.8-1.5-0.4c-5.8,5.2-9,13-17.5,15.7
		c-5.4,10.6-11.4,16.2-17.7,18.9c-6.6,2.8-11.8-1-6.2-7.6c4.7-4.7,9.9-7.7,15.3-10c-11,1-20.6-0.4-28.7-3.9c-6.9,1.5-13.8,2-20,0.1
		c-3.2-1.5-1.6-5.7,2.1-5.9c7.8-0.5,15.1,0.4,22,2.4c3.8-1.8,6.5-4.1,8.3-6.9c-9.2,5.3-17.8,4.7-22.4,0c-6-6.3-3.1-16.9,1.6-23
		c3.9-5.1,9.7-9.5,16.2-11.5c8.9-1.8,13.8,0.8,15.1,5.8c1.6,6.3-1.9,12.7-5.9,17.3c-6.9,7.9-15,8.6-18.7,3.5
		c-1.7-3.9-0.1-7.2,4.2-7.1C115.2,60.5,114.5,65.7,109.4,65.9L109.4,65.9z M137.3,58.1c2.8-4.6,6-8.7,9.9-11.8
		c1.7-1.3,2.4-0.6,1.3,1.2C145.3,51.9,141.7,55.6,137.3,58.1L137.3,58.1z M104.8,83.2c-4.2-1.3-8.5-1.8-12.7-1
		c-2.1,0.5-2.9,1.5-0.6,2C96.1,84.6,100.5,84.4,104.8,83.2L104.8,83.2z M137.5,92.9c-3.4,6.3-7,10.5-10.7,12.4
		c-4.3,1.9-6-1.4-2.1-5.3C128.9,96.4,133.2,94,137.5,92.9L137.5,92.9z M191,72.3c-2.2,3.7-4.8,7.2-8,10.4c-2.6,3.2-4.2,2.4-3.3-0.7
		c1.5-4.1,4.3-7.8,8.1-11C190.8,68.7,192.2,69.4,191,72.3L191,72.3z"/>
</g>
</svg>
