<?xml version="1.0" encoding="utf-8"?>
<!-- Generator: Adobe Illustrator 19.2.1, SVG Export Plug-In . SVG Version: 6.00 Build 0)  -->
<svg version="1.1" id="Layer_1" xmlns="http://www.w3.org/2000/svg" xmlns:xlink="http://www.w3.org/1999/xlink" x="0px" y="0px"
	 viewBox="0 0 368 116" style="enable-background:new 0 0 368 116;" xml:space="preserve">
<style type="text/css">
	.st0{fill:#007EC3;}
	.st1{fill:#535250;}
</style>
<g>
	<g>
		<path class="st0" d="M99.3,9c-11.5,0-20.9,9.4-20.9,21c0,11.6,9.3,21,20.9,21c11.5,0,20.9-9.4,20.9-21C120.2,18.4,110.8,9,99.3,9
			 M99.3,40.6c-5.8,0-10.4-4.7-10.4-10.5c0-5.8,4.7-10.5,10.4-10.5c5.8,0,10.4,4.7,10.4,10.5C109.7,35.9,105.1,40.6,99.3,40.6"/>
		<path class="st0" d="M32,51h40.2V10.5H32V51z M61,39.7H43.2v-18H61V39.7z"/>
		<polygon class="st1" points="133,15.9 142,15.9 148.8,37 148.9,37 155.3,15.9 164.4,15.9 164.4,46.5 158.4,46.5 158.4,24.8 
			158.3,24.8 151.1,46.5 146.2,46.5 139,25 139,25 139,46.5 133,46.5 		"/>
		<path class="st1" d="M183,15.2c9,0,14.3,7.1,14.3,16.2c0,8.8-5.3,15.9-14.3,15.9c-9,0-14.3-7.1-14.3-15.9
			C168.7,22.2,174,15.2,183,15.2 M183,41.6c5.8,0,7.9-5.1,7.9-10.3c0-5.4-2.2-10.5-7.9-10.5c-5.8,0-7.9,5.2-7.9,10.5
			C175.1,36.5,177.3,41.6,183,41.6"/>
		<path class="st1" d="M226.5,35c0,8.3-4.6,12.3-12.5,12.3c-7.8,0-12.4-4-12.4-12.3V15.9h6.4V35c0,3.3,0.8,6.7,6,6.7
			c4.6,0,6-2.1,6-6.7V15.9h6.4V35z"/>
		<path class="st1" d="M236.3,36.4c0,4.1,3,5.7,6.4,5.7c2.2,0,5.7-0.7,5.7-3.8c0-3.3-4.4-3.9-8.7-5.1c-4.3-1.2-8.7-3-8.7-8.7
			c0-6.3,5.6-9.3,10.9-9.3c6.1,0,11.7,2.8,11.7,9.9h-6.2c-0.2-3.7-2.7-4.6-5.8-4.6c-2,0-4.4,0.9-4.4,3.5c0,2.4,1.4,2.7,8.7,4.6
			c2.1,0.6,8.7,2,8.7,8.9c0,5.6-4.2,9.8-12.1,9.8c-6.5,0-12.5-3.3-12.4-10.9H236.3z"/>
		<path class="st1" d="M271.5,15.2c9,0,14.3,7.1,14.3,16.2c0,8.8-5.3,15.9-14.3,15.9c-9,0-14.3-7.1-14.3-15.9
			C257.2,22.2,262.5,15.2,271.5,15.2 M271.5,41.6c5.8,0,7.9-5.1,7.9-10.3c0-5.4-2.2-10.5-7.9-10.5c-5.8,0-7.9,5.2-7.9,10.5
			C263.6,36.5,265.8,41.6,271.5,41.6"/>
		<polygon class="st1" points="290.2,15.9 310.7,15.9 310.7,21.6 296.6,21.6 296.6,28.6 308.8,28.6 308.8,33.9 296.6,33.9 
			296.6,46.5 290.2,46.5 		"/>
		<polygon class="st1" points="320.9,21.6 312.1,21.6 312.1,15.9 336,15.9 336,21.6 327.3,21.6 327.3,46.5 320.9,46.5 		"/>
	</g>
	<g>
		<g>
			<path class="st0" d="M98.4,65.5c-11.4,0-20.6,9.3-20.6,20.8c0,11.5,9.2,20.8,20.6,20.8c11.4,0,20.6-9.3,20.6-20.8
				C119,74.8,109.8,65.5,98.4,65.5z M98.4,96.7c-5.7,0-10.3-4.7-10.3-10.4c0-5.7,4.6-10.4,10.3-10.4c5.7,0,10.3,4.6,10.3,10.4
				C108.7,92,104.1,96.7,98.4,96.7z"/>
			<path class="st0" d="M32,67.1v38.2h39.5V67.1H32z M60,95.3H43.5V77.1H60V95.3z"/>
		</g>
		<g>
			<path class="st1" d="M145.4,96.5h8.5c1.1,0,2.1,0,3.1,0c1,0,2.1-0.1,3.1-0.2v4.4c-1.1-0.1-2.1-0.1-3.1-0.2c-1,0-2.1,0-3.1,0
				h-21.6c-1.1,0-2.1,0-3.1,0c-1,0-2.1,0.1-3.1,0.2v-4.4c1.1,0.1,2.1,0.1,3.1,0.2c1,0,2.1,0,3.1,0h8.5v-9h-10.3V72.6
				c0-0.8,0-1.5,0-2.2c0-0.7-0.1-1.5-0.1-2.3h25.5c-0.1,0.8-0.1,1.6-0.1,2.3c0,0.7,0,1.4,0,2.2v14.9h-10.3V96.5z M151.4,72.1h-16.5
				v11.4h16.5V72.1z"/>
			<path class="st1" d="M182.3,100.7c0,0.6,0,1.3,0,2.1c0,0.8,0.1,1.5,0.1,2.1h-4.8c0.1-0.7,0.1-1.3,0.1-2.1c0-0.7,0-1.4,0-2.1V92
				h-8.6c-1.1,0-2.1,0-3.1,0c-1,0-2.1,0.1-3.1,0.1v-4.4c1.1,0.1,2.1,0.1,3.1,0.2c1,0,2.1,0,3.1,0h21.6c1.1,0,2.1,0,3.1,0
				c1,0,2.1-0.1,3.1-0.2v4.4c-1.1-0.1-2.1-0.1-3.1-0.1c-1,0-2.1,0-3.1,0h-8.5V100.7z M174.3,83.9c-1.7-0.5-3.1-1.1-4.3-1.9
				c-1.1-0.8-2-1.7-2.6-2.8c-0.6-1.1-0.9-2.3-0.9-3.5c0-1.2,0.3-2.4,0.9-3.5c0.6-1.1,1.5-2.1,2.6-2.9c1.2-0.8,2.6-1.4,4.3-1.9
				c1.7-0.5,3.6-0.7,5.7-0.7s4,0.2,5.7,0.7c1.7,0.5,3.1,1.1,4.3,1.9c1.2,0.8,2.1,1.7,2.7,2.8c0.6,1.1,0.9,2.3,0.9,3.5
				c0,1.3-0.3,2.4-0.9,3.5c-0.6,1.1-1.5,2-2.7,2.9c-1.1,0.8-2.6,1.4-4.2,1.9c-1.7,0.5-3.6,0.7-5.7,0.7
				C177.8,84.6,175.9,84.4,174.3,83.9z M173.6,79.2c1.6,0.9,3.7,1.4,6.3,1.4c2.5,0,4.6-0.4,6.3-1.3c1.6-0.9,2.5-2,2.5-3.5
				c0-1.5-0.8-2.8-2.4-3.7c-1.6-0.9-3.7-1.4-6.3-1.4c-2.6,0-4.7,0.5-6.3,1.4c-1.6,0.9-2.4,2.1-2.4,3.6
				C171.2,77.1,172,78.3,173.6,79.2z"/>
			<g>
				<path class="st1" d="M216.9,93.5c0-0.6,0-1.2,0-1.9c0-0.7-0.1-1.3-0.1-1.9h4.9c-0.1,0.6-0.1,1.2-0.2,1.9c0,0.7,0,1.3,0,1.9v4.6
					h8.6c1.1,0,2.1,0,3.1,0c1,0,2.1-0.1,3.1-0.2v4.3c-1.1-0.1-2.1-0.1-3.1-0.1c-1,0-2.1,0-3.1,0h-21.7c-1.1,0-2.1,0-3.1,0
					c-1,0-2.1,0.1-3.1,0.1v-4.3c1.1,0.1,2.1,0.1,3.1,0.2c1,0,2.1,0,3.1,0h8.5V93.5z M222.7,77.6c0.8,1.6,1.8,3,3.1,4.3
					c1.2,1.3,2.6,2.4,4.2,3.3c1.6,0.9,3.2,1.6,4.8,2c-0.6,0.6-1.1,1.2-1.6,1.8c-0.5,0.6-1,1.2-1.3,1.7c-1.2-0.4-2.4-0.9-3.6-1.6
					c-1.3-0.7-2.5-1.6-3.7-2.5c-1.1-0.9-2.2-1.9-3.2-3c-1-1.1-1.8-2.3-2.3-3.5c-0.6,1.3-1.3,2.4-2.2,3.5c-0.9,1.1-1.9,2.1-3,3
					c-1.1,0.9-2.3,1.8-3.6,2.5c-1.3,0.7-2.6,1.3-3.9,1.7c-0.4-0.5-0.9-1-1.4-1.6c-0.5-0.6-1.1-1.3-1.7-1.9c1.9-0.5,3.6-1.3,5.3-2.3
					c1.7-0.9,3.1-2.1,4.3-3.4c1.2-1.2,2.1-2.6,2.8-4.1c0.7-1.5,1.1-3.1,1.1-4.8c0-0.5,0-1.1,0-1.6c0-0.6-0.1-1.1-0.1-1.7h5.1
					c-0.1,0.5-0.1,1.1-0.1,1.7c0,0.6,0,1.1,0,1.7C221.5,74.4,221.9,76,222.7,77.6z"/>
				<path class="st1" d="M245.1,101.6c-1.1,0-2.1,0-3.1,0c-1,0-2.1,0.1-3.1,0.1v-4.3c1.1,0.1,2.1,0.1,3.1,0.2c1,0,2.1,0,3.1,0h21.7
					c1.1,0,2.1,0,3.1,0c1,0,2.1-0.1,3.1-0.2v4.3c-1.1-0.1-2.1-0.1-3.1-0.1c-1,0-2.1,0-3.1,0H245.1z M265.1,86.2h1.2
					c0.7,0,1.4,0,1.9,0c0.6,0,1.2-0.1,2-0.2v4.4c-0.7-0.1-1.4-0.1-2.1-0.2c-0.6,0-1.3,0-2,0h-20.5c-0.7,0-1.4,0-2,0
					c-0.6,0-1.2,0.1-1.9,0.2V86c0.7,0.1,1.4,0.1,1.9,0.2c0.6,0,1.2,0,2,0h1.1l-0.1-12.4h-0.1c-0.7,0-1.4,0-2,0
					c-0.6,0-1.2,0.1-1.9,0.2v-4.3c0.7,0.1,1.3,0.1,1.9,0.2c0.6,0,1.2,0,2,0h19c0.7,0,1.4,0,1.9,0c0.6,0,1.2-0.1,2-0.2v4.3
					c-0.7-0.1-1.4-0.1-2.1-0.2c-0.6,0-1.3,0-2,0L265.1,86.2z M251,73.8l0.1,12.4h9.6l0.1-12.4H251z"/>
				<path class="st1" d="M281.9,101.6c-1.1,0-2.1,0-3.1,0c-1,0-2.1,0.1-3.1,0.1v-4.3c1.1,0.1,2.1,0.1,3.1,0.2c1,0,2.1,0,3.1,0h21.7
					c1.1,0,2.1,0,3.1,0c1,0,2.1-0.1,3.1-0.2v4.3c-1.1-0.1-2.1-0.1-3.1-0.1c-1,0-2.1,0-3.1,0H281.9z M280.1,71.8
					c0-0.7-0.1-1.5-0.2-2.2h20.7c0.7,0,1.4,0,2.1,0c0.8,0,1.6,0,2.5-0.1v4.3c-0.9-0.1-1.7-0.1-2.5-0.1c-0.8,0-1.5,0-2.1,0h-16v5.3
					h20.5v3.9h-20.5v5.2h21.1v4h-25.6V74C280.2,73.3,280.2,72.6,280.1,71.8z"/>
			</g>
		</g>
	</g>
</g>
</svg>
