<svg viewBox="0 0 100 100" xmlns="http://www.w3.org/2000/svg"><path d="m80.3 63.13a1.15 1.15 0 0 1-.82-.46l-.12-.14c-.07-.09-.21-.25-.27-.27-1.56-.16-2.2-1.29-2.77-2.3a10.23 10.23 0 0 0-.55-.9 1.92 1.92 0 0 1-.09-1.33v-.08a1.77 1.77 0 0 1  .17-.47l.15-.18a2.52 2.52 0 0 0-.43.1c-.21.07-.45-.13-.54-.22a.35.35 0 0 1-.13-.33 1.47 1.47 0 0 0-.15-.89 1.44 1.44 0 0 1  .17-1.74l-.08-.09-.2-.13c-.26-.16-.54-.33-.5-.61s.38-.43.75-.54a1 1 0 0 0-.12-.54l-.12-.1-.35-.31.37-.15.11-.06a1.46 1.46 0 0 1  .41-.13h0c-.09-.07-.23-.2.09-.89.08-.18.18-.36.28-.54a3.45 3.45 0 0 0  .4-.92 1.09 1.09 0 0 0-.08-.9.85.85 0 0 0-.68-.24 1.54 1.54 0 0 1-.81-.35 1.34 1.34 0 0 1-.39-.42l-.09-.13-.29-.38h.48.17a2.12 2.12 0 0 1  .44 0l .73.11c-.13-.28-.27-.56-.41-.84a3.05 3.05 0 0 0-.22-.34c-.07-.1-.15-.21-.21-.32s-.26-.45-.38-.69a5.2 5.2 0 0 1-.39.41 1.51 1.51 0 0 1-.38.23l-.14.07-.26.14-.05-.26a1.85 1.85 0 0 0-.08-.19.83.83 0 0 1-.12-.63c.78-2.11 0-3.88-.85-5.75-.22-.49-.44-1-.64-1.5a4 4 0 0 0-1.49-2.13 4.52 4.52 0 0 0-4.26-.27c-.92.32-1.2-.3-1.39-.71l-.17-.24c-.14-.26-.27-.52-.4-.79s-.2-.42-.31-.63a1.46 1.46 0 0 0-.2-.26l-.09-.14-.23-.29.35-.1.19-.07a1.54 1.54 0 0 1  .54-.13h0a7.25 7.25 0 0 1  .75.06c.21 0 .41.05.62.06a.69.69 0 0 0  .53-.14 1.2 1.2 0 0 0  .11-.86c0-.29-.1-.33-.1-.34s-.27.05-.39.1l-.26.1a3 3 0 0 1-2-.43c-.34-.18-1.15-.67-1.33-1.31a1.47 1.47 0 0 1  .36-1.36l.37-.28a10.69 10.69 0 0 1 2.73-1.65c.93-.33 1.06-.94 1.22-1.71 0-.19.08-.38.14-.58.15-.55 0-.62-.49-.76a2.78 2.78 0 0 1-.41-.16 1.15 1.15 0 0 1-.7-.71 1.23 1.23 0 0 1  .38-1 10.47 10.47 0 0 0  .68-1c .2-.31.41-.63.64-.93a1.83 1.83 0 0 1  .93-.53c1.08-.28 1.41-.88 1.12-2a1.7 1.7 0 0 1  .09-.88c0-.11.06-.22.08-.33l.06-.32.29.14.34.15a3.59 3.59 0 0 1  .82.42l0 0a1.39 1.39 0 0 1-.36-1.23c.11-.37.47-.65 1.08-.85h.1c.92-.39 1.53-.56 2-.28s.53.92.56 1.94c0 .05 0 .1 0 .16s0 .11 0 .16h0c .05-.15.09-.3.13-.46l.14-.52.5.27a5.41 5.41 0 0 1  .51.29c.18.12.36.26.54.4v-.1a4.26 4.26 0 0 0  .07-1 8.71 8.71 0 0 0-.26-1.31c0-.19-.1-.39-.14-.58l-.14-.62 1 .69c.41.28.82.56 1.22.86a3.39 3.39 0 0 1  .41.37l.24.24.95.8 0 0 .24-1.15a.46.46 0 0 0 0-.07.35.35 0 0 1  .18-.35c.57-.23.62-.37.62-.37a1.55 1.55 0 0 0-.36-.29c-.26-.17-.52-.35-.57-.62s-.1-.48-.16-.72l-.15-.66h.34.38a2.92 2.92 0 0 1 1 .15 3.18 3.18 0 0 1  .75.47 4.16 4.16 0 0 0  .44.31.85.85 0 0 0  .25.08.87.87 0 0 0-.07-.28 8.7 8.7 0 0 0-1-.52c-.27-.13-.55-.26-.81-.41a6.89 6.89 0 0 1-1.22-.92.31.31 0 0 1  0-.36c0-.07.27-.67.6-.67h0a4 4 0 0 1 1.48.27 1.2 1.2 0 0 1  .47.43 1.06 1.06 0 0 0  .26.27 4.26 4.26 0 0 0  .83.32h.07a1.51 1.51 0 0 1  .42-.55c.16-.15.32-.31.32-.43s0-.18-.32-.39c-.12-.09-.16-.25-.14-.52 0 0 .09-.87.48-1.06a7.11 7.11 0 0 1 1.46-.46c.28-.07.55-.13.82-.22a.82.82 0 0 0  .15-.19l.14-.19.04-.05h2.71l.07.06.43.35a11.87 11.87 0 0 1 1 .88 3 3 0 0 1  .48.71l.17.3.15.24-.25.12a3.65 3.65 0 0 0-.35.21 1.36 1.36 0 0 1-1 .33c-1.4-.32-2.48.35-3.61 1.05l-.22.14a.52.52 0 0 0-.12.11.46.46 0 0 0  .18 0l .34-.12a3.47 3.47 0 0 0 1.24-.59 2.21 2.21 0 0 1  2.54-.42 1.67 1.67 0 0 0  .54.07 3.13 3.13 0 0 1  .5 0 1.57 1.57 0 0 1  .74.37l.06.09v.12a.9.9 0 0 0 0 .68c.12.18.43.22.75.27a3.72 3.72 0 0 1  .55.11 1.39 1.39 0 0 1  1 1 1.13 1.13 0 0 1-.51 1.1l-.33.25c-.85.65-1.82 1.39-3.16.77a.87.87 0 0 0-.35-.12h-.51a2.72 2.72 0 0 0-1.19.18 2.76 2.76 0 0 0-.83 1l-.23.35h0s0 .06 0 .11l.3-.07c.31-.1.61-.22.92-.35a6.14 6.14 0 0 1 2.14-.58c.68 0 1.09.15 1.24.48s0 .83-.5 1.41l-.16.16a.91.91 0 0 0-.16.17 1.94 1.94 0 0 0-.11.22h.11c.3-.28.58-.6.86-.9s.43-.47.65-.7a4.42 4.42 0 0 1  .56-.46l.34-.1.23-.18.14.26a2.81 2.81 0 0 0  .18.27 1.09 1.09 0 0 1  .3.81c-.24 1-.53 2.08-.81 3.09l-.36 1.3c.31-.52.66-1.12 1-1.75l.08-.17c.41-.88.88-1.88 2.34-1.51a3 3 0 0 0  .26-.29 3.31 3.31 0 0 1  .36-.4c.1-.09.21-.2.32-.31.33-.34.68-.69 1.07-.69h0a2.71 2.71 0 0 1 1.85.92h0a2 2 0 0 1-.16 1.82 5 5 0 0 1-3.7 2.7 2 2 0 0 1  .56.09 3.13 3.13 0 0 1  .65.35l.24.15.34.2-.33.22a3 3 0 0 0-.27.21 1.24 1.24 0 0 1-.81.4c-.76-.06-1 .09-1.1.66a.72.72 0 0 0 0 .16 1.33 1.33 0 0 1  .25-.09c.23-.06.47-.1.71-.13l.86-.15-.49.72-.4.58a3.32 3.32 0 0 1-.22.28 1.28 1.28 0 0 0-.29.43c-.48 1.85-.92 3.72-1.24 5.15v.15a2.22 2.22 0 0 0-.06.25 1.28 1.28 0 0 0  .25-.08c.25-.1.57.18.58.18l.12.12-.06.16a.86.86 0 0 0 0 .64c.12.24.48.36.86.49l.17.06a.94.94 0 0 1  .45.82c0 .32-.47.54-.63.58a.86.86 0 0 1-.41 0 .51.51 0 0 0-.18 0c-.38.11-.75.26-1.12.41l-.19.07.11.21c.17.33.34.66.53 1s .27.44.41.65.42.65.6 1a .83.83 0 0 1 0 .62.52.52 0 0 1-.3.33c-.52.16-.62.32-.64.38s.14.41.31.64a3.4 3.4 0 0 1  .3.45 1.2 1.2 0 0 0  .2.24l.13.14.37.43h-.56-.21a.73.73 0 0 0-.26 0l-.17.07a1.74 1.74 0 0 0-.75.44 2.15 2.15 0 0 0  .31.71.82.82 0 0 0  .28.21l.21.13.51.36-.62.09a4.08 4.08 0 0 0-.42.1c-.41.11-.8.22-1.06 0-.54-.44-.82-.43-1.27 0s-.6.82 0 1.55a.41.41 0 0 1 0 .41v.09a1.24 1.24 0 0 0  .24.44c.17.15.34.29.52.43a6.16 6.16 0 0 1  .75.65 2.91 2.91 0 0 1  .54 1.07 3.36 3.36 0 0 1  .13.69c0 .09 0 .19 0 .28l.06.38-.37-.1-.38-.08a2.15 2.15 0 0 1-.92-.31c-.34-.25-.67-.53-1-.8l-.15.1-.23.14a1.59 1.59 0 0 0-.39.28 9.25 9.25 0 0 0-.61.81l-.1.14a2 2 0 0 1  .24.31c.21.31.27.41.61.19a1.3 1.3 0 0 1  .9-.2 4.63 4.63 0 0 1  .86.28l.33.13.27.1-.14.25-.15.29a5.72 5.72 0 0 1-.37.64c-1.19 1.73-3 1.9-4.73 1.84a.59.59 0 0 0-.17.16l-.99 1.26c-.4.63-.81 1.25-1.22 1.87a1 1 0 0 1-.71.41c-1.93.15-2.65 1-2.56 3a1.33 1.33 0 0 1-.07.45l-.32 1c-.29 1-.59 2-.94 2.94-.17.48-.43.77-.75.83zm-4.3-6.63a.46.46 0 0 1  .37.14c.19.21.05.5-.07.75a1.54 1.54 0 0 0-.13.33v.08c0 .31-.12.79 0 1a10.81 10.81 0 0 1  .58.95c.56 1 1.08 1.92 2.39 2a1 1 0 0 1  .6.45l.1.12c.19.21.36.31.48.29s.28-.22.38-.51c.34-1 .64-2 .93-2.91l.32-1a .83.83 0 0 0 0-.28c-.1-2.3.8-3.35 3-3.52a.55.55 0 0 0  .34-.2c.41-.62.82-1.24 1.22-1.86l.9-1.39a.82.82 0 0 1  .59-.39h0c1.86.08 3.3-.18 4.3-1.62a5.26 5.26 0 0 0  .33-.59l0 0h-.08a4.34 4.34 0 0 0-.77-.26.87.87 0 0 0-.54.13.82.82 0 0 1-1.29-.32c-.09-.13-.18-.26-.26-.29l-.31-.11.19-.27.24-.34a9.55 9.55 0 0 1  .64-.85 1.54 1.54 0 0 1  .35-.29l-.33-.19a2.52 2.52 0 0 1-.6-.52.81.81 0 0 1-.13-.44 1.13 1.13 0 0 0  0-.13l.05-.46h.34.13a.69.69 0 0 1  .45.12c.29.24.58.49.86.74.46.41.94.83 1.44 1.2a1.77 1.77 0 0 0  .71.22h.06a2.61 2.61 0 0 0-.1-.53 2.51 2.51 0 0 0-.43-.89 5.6 5.6 0 0 0-.69-.59c-.19-.15-.38-.3-.56-.46a1.6 1.6 0 0 1-.38-.69.57.57 0 0 1  0-.35h0a1.36 1.36 0 0 1  .08-2.15 1.25 1.25 0 0 1  1.94-.07 1.28 1.28 0 0 0  .51-.07.74.74 0 0 1-.16-.19c-.36-.64-.44-1-.28-1.23a2 2 0 0 1 1-.62l.16-.07h.11l0 0a3 3 0 0 0-.26-.38c-.24-.33-.52-.69-.39-1.09s.39-.51.92-.68a.63.63 0 0 0  .08-.28c-.16-.3-.37-.62-.57-.94s-.28-.44-.42-.67-.37-.67-.54-1l-.37-.7.7-.27c.37-.15.76-.3 1.15-.42a.86.86 0 0 1  .44 0 .55.55 0 0 0  .19 0 .66.66 0 0 0  .24-.14.62.62 0 0 0-.13-.31h-.15a1.78 1.78 0 0 1-1.14-.75 1.18 1.18 0 0 1  0-.82.7.7 0 0 1-.72 0c-.22-.2-.14-.52-.06-.78v-.13c.33-1.43.76-3.3 1.25-5.16a1.63 1.63 0 0 1  .39-.63 2.94 2.94 0 0 0  .19-.24l.23-.34-.4.08a1.44 1.44 0 0 0-.3.14l-.17.09-.33.16v-.36c0-.06 0-.11 0-.17a1.65 1.65 0 0 1 0-.47c.17-1 .92-1.13 1.64-1.07.09 0 .3-.16.45-.29l0 0a2.52 2.52 0 0 0-.49-.27 1.72 1.72 0 0 0-.45-.06h-.37a2.77 2.77 0 0 1-.42-.11l-.72-.31.46-.29.13-.1a.73.73 0 0 1  .49-.23 4.36 4.36 0 0 0  3.72-2.52 1.63 1.63 0 0 0  .19-1.25h0a2.19 2.19 0 0 0-1.44-.73c-.18 0-.48.3-.72.54s-.23.24-.35.34a3 3 0 0 0-.3.33c-.24.29-.45.54-.71.47-1.06-.29-1.37.25-1.82 1.22l-.1.22c-.32.69-.7 1.34-1 1.89a1.46 1.46 0 0 1-.4.4l-.16.13-.5.44.09-.66c0-.07 0-.14 0-.21a3.26 3.26 0 0 1  .08-.52c.12-.45.25-.91.37-1.36.28-1 .57-2 .8-3.07 0-.07-.14-.29-.23-.41l-.05-.12 0 0a4 4 0 0 0-.5.41c-.22.22-.43.45-.64.68s-.58.63-.89.93a.87.87 0 0 1-.6.17h-.2l-.45.07.26-.59a3.36 3.36 0 0 1  .23-.48 1.33 1.33 0 0 1  .24-.27l.12-.12c.4-.46.48-.75.43-.87s-.31-.19-.79-.2a5.69 5.69 0 0 0-2 .55c-.32.13-.63.26-1 .36a3.48 3.48 0 0 1-.41.1l-.44.09v-.27a1.39 1.39 0 0 0 0-.16.67.67 0 0 1  0-.56l.22-.33a3.09 3.09 0 0 1 1-1.14 3.06 3.06 0 0 1  1.42-.22h.48a1.28 1.28 0 0 1  .58.16c1.08.51 1.85-.08 2.66-.7l.34-.25a.64.64 0 0 0  .31-.62.9.9 0 0 0-.68-.64 3.07 3.07 0 0 0-.47-.09 1.47 1.47 0 0 1-1.08-.52 1.2 1.2 0 0 1-.14-.89 1.64 1.64 0 0 0-.34-.11 2.58 2.58 0 0 0-.42 0 2.07 2.07 0 0 1-.71-.1 1.71 1.71 0 0 0-2 .33 3.81 3.81 0 0 1-1.42.69l-.33.11a1.17 1.17 0 0 1-.61 0h-.21-.48l.31-.37.12-.15a1.4 1.4 0 0 1  .36-.51l.22-.14c1.17-.73 2.38-1.48 4-1.12.13 0 .38-.13.59-.26l.17-.1-.05-.1a2.61 2.61 0 0 0-.4-.6 11.6 11.6 0 0 0-1-.85l-.36-.3h-2.28v.06a.83.83 0 0 1-.41.38c-.28.09-.57.16-.86.23a6.62 6.62 0 0 0-1.36.43 1.65 1.65 0 0 0-.2.77 1 1 0 0 1  .47.72 1.09 1.09 0 0 1-.47.82c-.24.22-.33.33-.29.43l.21.52-.52-.19-.38-.12a4.66 4.66 0 0 1-.93-.36 1.42 1.42 0 0 1-.42-.42.88.88 0 0 0-.26-.27 3.41 3.41 0 0 0-1.24-.23 1.54 1.54 0 0 0-.17.27 6.13 6.13 0 0 0  1 .75c.25.14.52.27.78.4a9 9 0 0 1 1.05.56.9.9 0 0 1  .29.69 2.29 2.29 0 0 0  0 .26l.1.41-.41-.1h-.2a1.66 1.66 0 0 1-.54-.17 4.8 4.8 0 0 1-.49-.34 2.76 2.76 0 0 0-.63-.4 2.52 2.52 0 0 0-.79-.11h-.07c.05.24.11.49.16.73 0 .07.24.22.36.3.29.2.62.42.58.76s-.27.49-.8.72a.66.66 0 0 1 0 .1l-.39 2-.68-.57-1-.81-.27-.26a3.15 3.15 0 0 0-.35-.32c-.38-.28-.77-.54-1.16-.81a8.92 8.92 0 0 1  .26 1.33 4.79 4.79 0 0 1-.08 1.13c0 .16 0 .31-.06.47v.44l-.62-.47c-.19-.15-.39-.3-.59-.44a4.25 4.25 0 0 0-.41-.24c0 .13-.07.27-.12.4s-.16.46-.25.68l-.45 1.21-.18-1.24c0-.24-.07-.47-.1-.7a1.88 1.88 0 0 1 0-.27s0-.09 0-.13c0-.66-.07-1.37-.33-1.53s-.89.07-1.49.32l-.14.05c-.44.14-.7.32-.76.52s0 .48.32.83a3.89 3.89 0 0 1  .49 1c .06.14.11.28.17.41l.61 1.32-1-1-.32-.45a5.41 5.41 0 0 0-.7-.69 3.2 3.2 0 0 0-.71-.36h-.09v.07a1.36 1.36 0 0 0-.09.62 1.88 1.88 0 0 1-1.48 2.62 1.31 1.31 0 0 0-.67.35c-.22.28-.42.59-.62.89a10.62 10.62 0 0 1-.72 1c-.21.26-.3.46-.27.6s.17.27.43.4a2.18 2.18 0 0 0  .34.13c.44.14 1.1.35.81 1.36-.05.18-.09.36-.13.54a2.3 2.3 0 0 1-1.55 2.08 10.35 10.35 0 0 0-2.6 1.58l-.38.28a1 1 0 0 0-.18.82 2.23 2.23 0 0 0  1.09 1 2.63 2.63 0 0 0  1.65.39l.23-.08a.93.93 0 0 1  .83-.06.9.9 0 0 1  .34.71 1.55 1.55 0 0 1-.25 1.25 1.13 1.13 0 0 1-.91.3c-.22 0-.44 0-.66-.06a6.75 6.75 0 0 0-.7-.06.67.67 0 0 0-.24.05 1.44 1.44 0 0 1  .14.21c.11.21.22.43.32.64s.25.51.39.76c0 .09.09.18.13.27.19.42.28.61.78.44a5 5 0 0 1 4.69.32 4.47 4.47 0 0 1  1.68 2.37c.19.49.41 1 .63 1.47.84 1.88 1.71 3.82.87 6.12a1.28 1.28 0 0 0  .1.24.75.75 0 0 0  .18-.11 5.25 5.25 0 0 0  .41-.43l.42-.46.31.58c.13.24.25.47.39.7s.12.19.19.28a3.57 3.57 0 0 1  .26.39c.16.3.3.6.45.91l.39.81-.82-.14-.83-.1h-.07l0 0a1.24 1.24 0 0 0  .53.26 1.31 1.31 0 0 1  1.06.42 1.54 1.54 0 0 1  .22 1.32 3.89 3.89 0 0 1-.41 1.07c-.09.17-.19.34-.26.51a2.6 2.6 0 0 0-.14.37c.22.17.39.35.32.56s-.44.26-.72.25a1.3 1.3 0 0 1  .15.86.48.48 0 0 1-.35.38 2.09 2.09 0 0 0-.33.13l.2.13.22.14a1.06 1.06 0 0 1  .35.55v.13l-.1.08c-.48.38-.38.73-.17 1.31a2.11 2.11 0 0 1  .2 1.07h.07a2.14 2.14 0 0 1  .56-.04zm14.35-11.94v.05a2.06 2.06 0 0 0  .49.41l.19.11-.67-.58z"/><path d="m45.7 95h-.23a3.46 3.46 0 0 1-2.37-1.7 9.9 9.9 0 0 0-.8-.94v-.07c0-.08-.35 0-.6.05a2.28 2.28 0 0 1-1.26.07l-.24-.08.08-.24c.06-.18 0-.26-.29-.47a1.06 1.06 0 0 1-.51-.68 16.33 16.33 0 0 1-5.38-.94l-1.1-.25h-.1l-.13-.21a2.77 2.77 0 0 0-.89-.86c-2-1.26-3.15-3.22-3.52-6.17-.16-1.3-.21-2.64-.27-3.93 0-.63-.05-1.26-.09-1.89a.7.7 0 0 0-.05-.29 5.3 5.3 0 0 1-2-3.14 7.35 7.35 0 0 0-.95-2.1 2.78 2.78 0 0 1-.3-.56 2 2 0 0 0-.27-.5 4.55 4.55 0 0 0-.61-.56c-.16-.13-.33-.27-.48-.42a1.08 1.08 0 0 1-.22-.38 1.24 1.24 0 0 0-.08-.17c-.15-.25-.31-.5-.48-.74l-.11-.1a.6.6 0 0 1-.27-.38c-.16-1.33-.48-2-1.74-1.85a1.3 1.3 0 0 1-1.07-.58 2.86 2.86 0 0 0-2.15-1.29c-.25-.06-.5-.12-.75-.2-.49-.16-1-.35-1.45-.54s-1-.4-1.49-.55a1.33 1.33 0 0 0-.85.23s0 .1 0 .16a.75.75 0 0 1-.24.49 10.6 10.6 0 0 1-1.13.68l-.44.24-.39.22v-.87c0-.35 0-.71.05-1.06 0-.06 0-.12 0-.18h-.07a3.72 3.72 0 0 1-.63.89 1.81 1.81 0 0 0-.65 1.62c0 .16 0 .42-.54.91-.93.85-1.77 1.58-2.55 2.22a1.91 1.91 0 0 1-.63.3l-.25.09-.67.28.46-.56.13-.25a4.32 4.32 0 0 1  .34-.58 5.83 5.83 0 0 1  .39-.46 3.08 3.08 0 0 0  .49-.71c.17-.34.21-.6.13-.73s-.35-.19-.56-.2c-.46-.01-.92-.07-1.37-.07s-.67-.15-.7-.19l-.07-.08v-.1c.06-.73-.31-.86-.87-1.06a3 3 0 0 1-.73-.33 2.68 2.68 0 0 1-1-2.25 4.18 4.18 0 0 1  1.63-2.1 5.6 5.6 0 0 1  .49-.31c.63-.38 1-.6.75-1.3a.63.63 0 0 0-.37-.2h0a3.73 3.73 0 0 0-.67.11 2 2 0 0 1-1.23 0 4.25 4.25 0 0 1-1.38-1.19l-.32-.36a.37.37 0 0 1 0-.36s.15-.52.45-.6a1.51 1.51 0 0 0  .47-.37 1.21 1.21 0 0 1  1.75-.19 1.2 1.2 0 0 0  .63 0h .11v-.1a1.71 1.71 0 0 0-.27-.69 17.73 17.73 0 0 0-1.46-1.33l-.51-.47a1.16 1.16 0 0 1-.46-.87 1.3 1.3 0 0 1  .68-.87 6.44 6.44 0 0 0  1.6-1.61 7 7 0 0 1  4-2.61 2.73 2.73 0 0 1  1.7.34c.22.09.44.18.64.25l1.72.56c1 .33 2.06.68 3.1 1 .5.14 1 .25 1.53.34s1.12.22 1.67.38a10.85 10.85 0 0 1 1.74.75l.51.25.42.23c.34.19.69.4.92.31s.33-.31.45-.7l.05-.16h.17a2.5 2.5 0 0 0 1.24-.59 2.31 2.31 0 0 1  2.23-.58.65.65 0 0 0  .33 0 .93.93 0 0 1  .74-.43c.35 0 .54.39.74.76.28.53.6.48 1.2.32a2 2 0 0 1 1.05-.08 2.94 2.94 0 0 0  .69.08 3.11 3.11 0 0 1  .86.11c.62.2 1.24.45 1.83.68.43.17.87.34 1.31.5l.21.07c.33.11.68.21.81.54a1.06 1.06 0 0 1-.14.89 1.29 1.29 0 0 0  .31.39 1.69 1.69 0 0 0  1.05.07 2 2 0 0 1  2.85 1.15h0a .37.37 0 0 0 0-.12 2.68 2.68 0 0 0  0-.41 1.43 1.43 0 0 1  .12-.88 3.79 3.79 0 0 1  .27-.36l.1-.12h-.44a.68.68 0 0 1-.26 0l-.33-.07.12-.31v-.07a.58.58 0 0 1  .22-.29c.58-.34 1.29-.76 2 .28a2.7 2.7 0 0 0 1.86 1.1 3.1 3.1 0 0 0  2.37-.58 1 1 0 0 1  1-.32c.39.13.52.6.65 1.06a1.2 1.2 0 0 0  .07.18l.13-.23.07-.12a3.48 3.48 0 0 1  .42-.62 1.54 1.54 0 0 0  .4-1.23 1.58 1.58 0 0 0-.69-1.13 2.67 2.67 0 0 1-.83-2.2 2.48 2.48 0 0 1  .89-2.09 1.1 1.1 0 0 1  1.16.22 3.2 3.2 0 0 1  .7 1.31 20.67 20.67 0 0 0  1.39 3.89h.19 0a1.78 1.78 0 0 0  .42-.27l.21-.16.26-.18.11.29.15.36a4.62 4.62 0 0 1  .32.91 3.59 3.59 0 0 1  .05.69 4.52 4.52 0 0 0  0 .45h.42a4.16 4.16 0 0 1  .48-1.28 2.93 2.93 0 0 0  .47-1.83 1.24 1.24 0 0 0-.86-1.14l-.17-.09a2.43 2.43 0 0 0-.44-.16c-.36-.1-.77-.22-.88-.58s0-.58.38-1a .54.54 0 0 0-.08-.12 3.58 3.58 0 0 1-.87-3 3.45 3.45 0 0 1  1.5-2.66 1.75 1.75 0 0 1  .95-.12h.36.34l-.14.6c0 .2-.1.39-.13.59l-.07.41c-.1.57-.2 1.17-.24 1.75a.66.66 0 0 0  .11.3h0a1.61 1.61 0 0 0  .27-.41c-.48-1.41.46-2 1.21-2.52l.37-.25c.15-.11.37-.22.53-.08.37.31.76.22 1.22.12a2 2 0 0 1 1.21 0 2.49 2.49 0 0 1  1.2.87c.4.67.76 1.38 1.1 2.06.17.34.34.69.52 1a .85.85 0 0 0  .15.21h0a2.76 2.76 0 0 1 2.08 1.2c.13.14.26.28.39.41a4.73 4.73 0 0 1  .64.85l.21.32a.44.44 0 0 1  .06.14c.47.07.75.21.87.45s0 .69-.2 1a1.38 1.38 0 0 0-.2.47v.07c0 .62 0 1 .6 1.35a19.3 19.3 0 0 1 2.7 2l .56.46a1 1 0 0 1  .15 1.08 13 13 0 0 1-1 1.18l-.37.42-.18.21-.13-.26-.19-.2a4.16 4.16 0 0 0-.38-.38 12.4 12.4 0 0 0-1.16-.89 1.63 1.63 0 0 0-.25.25 6.41 6.41 0 0 0  .59 1.54 6.91 6.91 0 0 0  .53.77 6.83 6.83 0 0 1  .6.9 1.15 1.15 0 0 1  0 .8 2.78 2.78 0 0 0-.06.28v.25l-.56-.08-.62-.1-.44-.08.26.4.32.45.49.68-.81-.1c-.19 0-.38 0-.56-.08a4.63 4.63 0 0 1-3.41-2.41c-.37-.72-.78-.89-1.65-.65a2.12 2.12 0 0 1-1-.07l-.4-.08-.49-.11.37-.35a4.41 4.41 0 0 0  .31-.34 2 2 0 0 1  .87-.71 3 3 0 0 0  1.94-2.07 3.19 3.19 0 0 0-.6-3l-.21-.24c-.63-.72-1.28-1.47-1.9-2.23-.3-.37-.41-.47-.93-.25a5 5 0 0 1-1.79.27c-.27 0-.54 0-.81 0l-.32.06a.27.27 0 0 0  .07.09 2 2 0 0 1  .9 2.62 1 1 0 0 0  .05.44 1.72 1.72 0 0 1  .05.62c0 .12 0 .24 0 .37a2.5 2.5 0 0 1-.43 1.55 1.89 1.89 0 0 1-1.23.38 4.48 4.48 0 0 0-.62.08c-.45.11-.53.19-.54.21a9.55 9.55 0 0 0-.34 1.08c-.08.31-.17.62-.28.92-.17.48-.36 1-.72 1.08a4.21 4.21 0 0 0-2.07 2 8.72 8.72 0 0 1-1 1.27 5.82 5.82 0 0 0-1.07 2.38l-.06.21a1.8 1.8 0 0 0  .36 1.16 10.69 10.69 0 0 0  .79 1.25l.35.51.09.14.06.1a3.34 3.34 0 0 1 2.58 1 5.13 5.13 0 0 0  1.21.75 5.43 5.43 0 0 1  2.82 3.17 2.59 2.59 0 0 0  .51.88 3.26 3.26 0 0 0  .64.47l.09.06.11-.18a2.71 2.71 0 0 0  .39-.87 2 2 0 0 0-.08-.71 3.08 3.08 0 0 1-.1-.73 2.09 2.09 0 0 1  .41-1.26c1.18-1.28 1.24-2.31.23-3.79-.14-.21-.45-.73-.21-.95.66-.6.55-1.27.41-2.05a3.37 3.37 0 0 1 0-1.58c.11-.34.49-.85.87-.89a7 7 0 0 1 1.93.12c1 .18 3 2.53 3 3.54 0 .85.39 1.44 1 1.47h0c .2 0 .58-.48.83-.79.13-.16.25-.32.37-.45a1.68 1.68 0 0 0  .25-.44c0-.09.08-.17.12-.26l.17-.33.24.28.19.21a2 2 0 0 1  .44.58c.2.46.38.92.57 1.39.28.71.57 1.45.92 2.14a4.68 4.68 0 0 0 1 1.15l.27.26a18.81 18.81 0 0 0 1.58 1.43c1.24 1 1 2.3.68 3.43-.22.71 0 .91.67 1.38h0a3.5 3.5 0 0 1 1 1.34c.09.19.19.37.29.54l.08.14-.09.15s-.26.34-.53.32h-.33a25.25 25.25 0 0 1-2.54-.45.85.85 0 0 1-.45-.42 1 1 0 0 1-.15-.68 10.53 10.53 0 0 1  .52-1.3c.12-.26.24-.53.34-.79a1 1 0 0 0 0-.35.92.92 0 0 0-.26 0 3.47 3.47 0 0 1-3.2.83 3.23 3.23 0 0 0-2.87 1l-.08.1h.11l.36-.09a3.71 3.71 0 0 1  .89-.14c.14 0 .27.1.39.3s.28.46.17.71a1.68 1.68 0 0 0 0 1.35 2 2 0 0 0  1.11 1 4.93 4.93 0 0 1  .52.25l.63.33-.62.35-.53.29-.29.13-.27.12-.74.42-.91.52.05-.79.11-.28a4.77 4.77 0 0 0  .23-.64.48.48 0 0 0-.13-.11 5 5 0 0 0-3.21 2.61c0 .08-.24.74-.65.82-.85.16-1.23.79-1.65 1.47a3.78 3.78 0 0 1-1.23 1.42.56.56 0 0 0  0 .2c.58 1.54-.5 2.38-1.29 3-2.18 1.74-2.18 1.74-1.37 4.48a2.71 2.71 0 0 1  .14.95.85.85 0 0 1-.47.7.84.84 0 0 1-.78-.3 1.75 1.75 0 0 1-.46-.9c-.11-1.57-1.2-1.84-2.47-2.14l-.44-.11a1.74 1.74 0 0 0-.84-.06 2.11 2.11 0 0 1-2.34.65c-.21 0-.42-.07-.63-.08-1.58-.08-2.46 1.25-2.74 2.56zm6-4.11a3.17 3.17 0 0 1  .74.11l.43.11c1.27.31 2.71.66 2.85 2.59a1.47 1.47 0 0 0  .35.62.48.48 0 0 0  .25.14h0a .57.57 0 0 0  .11-.25 2.18 2.18 0 0 0-.11-.77c-.93-3-.9-3.12 1.56-5 .94-.73 1.57-1.33 1.15-2.44-.06-.16-.11-.63.15-.77a3.25 3.25 0 0 0 1.11-1.28 3 3 0 0 1  2-1.7 1.12 1.12 0 0 0  .27-.47 5.33 5.33 0 0 1  3.74-3 .71.71 0 0 1  .48.28.43.43 0 0 1  .12.36 3.21 3.21 0 0 1-.12.4l.44-.24.32-.14.25-.11.33-.18-.3-.15a2.46 2.46 0 0 1-1.38-1.21 2.16 2.16 0 0 1  0-1.75 1.26 1.26 0 0 0-.18-.33 3 3 0 0 0-.69.13l-.39.09-.47.08-.75.11.31-.47.11-.18a2.61 2.61 0 0 1  .3-.44 3.73 3.73 0 0 1  3.32-1.14c1 .09 2 .18 2.81-.68a.82.82 0 0 1  .59-.21h.21.3v.3c0 .07 0 .14 0 .21a1.44 1.44 0 0 1-.06.57c-.11.28-.23.55-.35.82a9.88 9.88 0 0 0-.5 1.22.84.84 0 0 0  .26.48c.8.2 1.65.32 2.48.44h.27 0l-.22-.41a3.09 3.09 0 0 0-.79-1.13h0c-.65-.46-1.21-.85-.86-1.94s.44-2.13-.51-2.89a19.32 19.32 0 0 1-1.63-1.48l-.26-.26a5.07 5.07 0 0 1-1.06-1.29c-.35-.71-.65-1.45-.94-2.18-.18-.46-.37-.92-.56-1.37a1.42 1.42 0 0 0-.29-.38 1.81 1.81 0 0 1-.29.47c-.11.13-.23.27-.35.42-.4.51-.77 1-1.22 1h0a1.73 1.73 0 0 1-1.49-2 5.36 5.36 0 0 0-2.54-3 6.59 6.59 0 0 0-1.79-.12 1 1 0 0 0-.45.54 3 3 0 0 0  0 1.35 2.46 2.46 0 0 1-.48 2.42 2 2 0 0 0  .2.38c1.14 1.68 1.06 3-.27 4.41a1.54 1.54 0 0 0-.28.93 2.64 2.64 0 0 0  .09.61 2.36 2.36 0 0 1  .08.9 3.09 3.09 0 0 1-.46 1c-.08.13-.16.27-.22.4l-.13.25-.23-.16-.31-.2a3.72 3.72 0 0 1-.73-.55 3.14 3.14 0 0 1-.62-1 4.85 4.85 0 0 0-2.53-2.88 5.56 5.56 0 0 1-1.33-.82 2.85 2.85 0 0 0-2.31-.85c-.22 0-.34-.16-.45-.35l-.07-.12-.35-.5a11.1 11.1 0 0 1-.83-1.31 2.26 2.26 0 0 1-.34-1.57l.06-.21a6.15 6.15 0 0 1 1.19-2.59 8.25 8.25 0 0 0  .89-1.2 4.66 4.66 0 0 1  2.33-2.17c.16-.06.35-.6.42-.77s.18-.59.26-.88a10 10 0 0 1  .36-1.14c.11-.29.51-.41.88-.5a4.82 4.82 0 0 1  .69-.09 1.64 1.64 0 0 0  .91-.23 2.24 2.24 0 0 0  .3-1.24c0-.13 0-.26 0-.38a1.34 1.34 0 0 0-.06-.42 1.3 1.3 0 0 1  0-.71c.32-1 .13-1.59-.66-2a .88.88 0 0 1-.33-.41l-.08-.14-.2-.3.35-.08.2-.05a3.54 3.54 0 0 1  .5-.1c.28 0 .56 0 .84 0a4.62 4.62 0 0 0 1.62-.23 1.08 1.08 0 0 1  1.51.4c.61.75 1.26 1.5 1.89 2.22l.21.24a3.69 3.69 0 0 1  .7 3.47 3.45 3.45 0 0 1-2.28 2.4 1.7 1.7 0 0 0-.64.56l0 0h0a1.75 1.75 0 0 0  .78.08 1.67 1.67 0 0 1  2.23.91 4.16 4.16 0 0 0  3 2.19h.21l-.15-.22-.43-.66-.47-.73.86.17.71.14.6.09h.07v-.09a1 1 0 0 0 0-.45 6.34 6.34 0 0 0-.56-.83 7.54 7.54 0 0 1-.56-.82 6.94 6.94 0 0 1-.66-1.73c-.07-.3.36-.64.5-.73a.36.36 0 0 1  .4-.07 11.67 11.67 0 0 1  1.33 1 4.56 4.56 0 0 1  .41.41l.2-.22a12.27 12.27 0 0 0  .93-1.13.66.66 0 0 0-.06-.42l-.56-.46a19.08 19.08 0 0 0-2.63-2 1.66 1.66 0 0 1-.85-1.79v-.07a1.61 1.61 0 0 1  .26-.7c.1-.18.24-.44.19-.53s-.11-.15-.65-.2c-.2 0-.24-.22-.25-.29a.32.32 0 0 0 0-.06l-.2-.31a4.26 4.26 0 0 0-.57-.76c-.14-.14-.28-.29-.41-.44-.49-.54-1-1.08-1.76-1-.25 0-.48-.33-.56-.48-.18-.34-.35-.69-.52-1-.34-.68-.68-1.37-1.08-2a2 2 0 0 0-1-.66 1.63 1.63 0 0 0-.92 0 1.78 1.78 0 0 1-1.55-.14l0 0-.39.26c-.76.5-1.37.9-1 2 .09.28-.13.56-.36.85a3.49 3.49 0 0 0-.22.29l-.25.4-.11-.45c0-.07-.08-.15-.12-.22a1.22 1.22 0 0 1-.23-.67 17.8 17.8 0 0 1  .24-1.8l.07-.41c0-.19.08-.39.13-.58h-.25a1 1 0 0 0-.48.08 3 3 0 0 0-1.25 2.29 3.08 3.08 0 0 0  .72 2.58s.43.45.2.71c-.39.44-.37.59-.36.62s.33.19.54.24a2.76 2.76 0 0 1  .54.2l.16.09a1.72 1.72 0 0 1 1.09 1.51 3.41 3.41 0 0 1-.52 2.13 3.24 3.24 0 0 0-.48 1.31v.21h-.26c-1 .12-1.06-.07-1.09-.2a3.39 3.39 0 0 1-.06-.72 3.19 3.19 0 0 0  0-.6 4.16 4.16 0 0 0-.29-.81v-.08a1.89 1.89 0 0 1-.5.3.77.77 0 0 1-.83-.28 21.11 21.11 0 0 1-1.42-4 2.7 2.7 0 0 0-.55-1.06.73.73 0 0 0-.51-.12 2.08 2.08 0 0 0-.65 1.68 2.2 2.2 0 0 0  .61 1.78 2.11 2.11 0 0 1  .91 1.48 2.06 2.06 0 0 1-.53 1.62 3.11 3.11 0 0 0-.36.54l-.07.12c-.08.14-.15.29-.23.43l-.33.65-.22-.45-.1-.19a2.31 2.31 0 0 1-.22-.49c-.08-.31-.19-.7-.33-.74s-.17 0-.49.24a3.6 3.6 0 0 1-2.75.69 3.2 3.2 0 0 1-2.2-1.31c-.34-.51-.59-.52-1-.31.32 0 .53 0 .63.21s-.06.47-.26.72a3.2 3.2 0 0 0-.24.31 1.14 1.14 0 0 0  0 .58 3.08 3.08 0 0 1  0 .48 1 1 0 0 1-.15.39l-.06.11-.12.25-.33-.13-.11-.05a.63.63 0 0 1-.36-.3c-.43-1-1.08-1.29-2.19-.9a2.17 2.17 0 0 1-1.4-.07 1.24 1.24 0 0 1-.56-.66.5.5 0 0 1  0-.42c.15-.29.14-.42.12-.47s-.28-.19-.5-.26l-.22-.07c-.44-.16-.88-.33-1.32-.51s-1.2-.47-1.8-.67a2.7 2.7 0 0 0-.72-.09 3.28 3.28 0 0 1-.81-.1 1.66 1.66 0 0 0-.79.08c-.54.14-1.28.33-1.76-.57-.1-.18-.26-.49-.35-.5s-.1 0-.34.28-.66.18-.85.11c-.71-.24-1.21.11-1.78.51a3.2 3.2 0 0 1-1.33.66 1.33 1.33 0 0 1-.69.86 1.61 1.61 0 0 1-1.34-.34l-.38-.21-.52-.26a10.48 10.48 0 0 0-1.66-.72c-.53-.16-1.08-.27-1.62-.37s-1.05-.21-1.57-.35c-1-.3-2.1-.65-3.12-1l-1.74-.55c-.22-.07-.45-.17-.69-.26a2.51 2.51 0 0 0-1.37-.34 6.48 6.48 0 0 0-3.76 2.42 6.94 6.94 0 0 1-1.72 1.74c-.3.2-.45.37-.46.49s.09.27.31.47l.51.46a18.13 18.13 0 0 1 1.46 1.42 2.07 2.07 0 0 1  .38.9c0 .13.06.25.1.37l.12.34h-.36a3.34 3.34 0 0 0-.39 0 1.42 1.42 0 0 1-1-.14c-.47-.36-.7-.2-1.13.17a1.87 1.87 0 0 1-.71.45s-.06.14-.09.22l.26.29a3.89 3.89 0 0 0 1.25 1.13 1.72 1.72 0 0 0  .92-.06 4.17 4.17 0 0 1  .77-.12h0a1 1 0 0 1  .85.56c.32 1.1-.4 1.53-1 1.87-.15.09-.3.18-.45.28a3.53 3.53 0 0 0-1.44 1.8 2.2 2.2 0 0 0  .81 1.74 2.59 2.59 0 0 0  .61.27c.54.19 1.19.42 1.21 1.36h.31c.45 0 .89.09 1.34.11a1.09 1.09 0 0 1 1 .44 1.27 1.27 0 0 1-.12 1.21 3.49 3.49 0 0 1-.61.81 5.33 5.33 0 0 0-.36.42l-.12.19.12-.08c.78-.64 1.6-1.36 2.53-2.21.3-.27.38-.43.38-.46a2.27 2.27 0 0 1  .77-2 3.41 3.41 0 0 0  .56-.79.78.78 0 0 1  .54-.35l.19-.07.42-.19-.11.64a3 3 0 0 0-.05.36c0 .34 0 .69-.05 1h .06a9.78 9.78 0 0 0 1.08-.64s0-.12 0-.19a.66.66 0 0 1  .26-.49 1.77 1.77 0 0 1  1.24-.27c.52.16 1 .37 1.53.57s.94.38 1.41.53c.23.07.47.13.71.19a3.29 3.29 0 0 1 2.47 1.54.76.76 0 0 0  .58.32c1.82-.19 2.14 1.08 2.29 2.28 0 0 .05 0 .09.06a1.11 1.11 0 0 1  .2.2c.18.25.34.51.5.77a1.78 1.78 0 0 1  .11.24.71.71 0 0 0  .11.21c.14.14.29.26.44.39a5 5 0 0 1  .67.63 2.46 2.46 0 0 1  .35.62 2.38 2.38 0 0 0  .24.46 7.84 7.84 0 0 1  1 2.22 4.88 4.88 0 0 0  1.91 2.9.82.82 0 0 1  .26.66c0 .63.06 1.26.09 1.89.05 1.28.1 2.6.26 3.89.35 2.78 1.39 4.63 3.29 5.8a3.24 3.24 0 0 1 1 1l0 0 1 .27a15.17 15.17 0 0 0 5.47.82h.38l-.12.36c-.06.18 0 .26.29.47a1 1 0 0 1  .51.75 2.81 2.81 0 0 0  .77-.12c.43-.11.91-.23 1.15.17a10.62 10.62 0 0 1  .82 1 3.32 3.32 0 0 0  1.8 1.48h0c .4-1.89 1.67-3.07 3.26-2.95.22 0 .45.05.67.09.75.12 1.34.22 1.88-.48a.75.75 0 0 1  .67-.23zm-22.25-13.3l-1.61-2.84.35-.06h.12c.17 0 .38-.11.51.05a10.49 10.49 0 0 1 1 1.32c.11.18 0 .38-.07.63s-.1.24-.15.39zm-.63-2.12l.52.92.05-.14a8.2 8.2 0 0 0-.59-.81zm28.9-31.74a1.22 1.22 0 0 1-.45-.09 5.87 5.87 0 0 1-.63-.31l-.26-.14-.15-.08.07-.82.13-.06.19-.12a.86.86 0 0 1  .66-.21c.76.19 1.18.44 1.23.74a1 1 0 0 1-.29.92.78.78 0 0 1-.5.17zm-1-.9l.12.07a5.39 5.39 0 0 0  .58.28.47.47 0 0 0  .45 0 .48.48 0 0 0  .11-.45 2.29 2.29 0 0 0-.86-.35 1.2 1.2 0 0 0-.26.15l-.12.07z"/><path d="m56 38.5a1.89 1.89 0 0 1-.46-.06h-4.86a1.73 1.73 0 0 1-1.21-.62 2.13 2.13 0 0 1-.6-1.57c.11-1.37-.09-2.15-1.5-2.35-.43-.06-.74-.57-1-1l-.09-.15c-.13-.2 0-.53.12-.7s.19-.28.36-.28h.17a2.6 2.6 0 0 1 1.36.29 2.86 2.86 0 0 0  2.24.39 2.31 2.31 0 0 0  1.47-1.09 1 1 0 0 0-.05-.48 2.87 2.87 0 0 1-.08-.43 5.34 5.34 0 0 1  0-.56v-.55l.31.09.26.06a1.87 1.87 0 0 1  .7.24 1.1 1.1 0 0 1  .33.44 1 1 0 0 0  .12.21 1.39 1.39 0 0 0  .47 0 .77.77 0 0 1-.13-.2 3.69 3.69 0 0 1-.2-.68c-.15-.66-.24-1.1-1.18-1.05a.4.4 0 0 1-.41-.38 1.87 1.87 0 0 1  1.2-1.77 4.08 4.08 0 0 1  1-.05 5.87 5.87 0 0 0  .61 0 .4.4 0 0 0  .15-.05 1.06 1.06 0 0 1-.1-.2c-.69-1.3-1.43-2.69-2.11-4.08-.09-.18 0-.35.2-.5.44-.45.61-.37.69-.33a3.51 3.51 0 0 1 1.78 1.45c-.52-1-.31-1.21.91-2h .06a8.77 8.77 0 0 0 1-.81l.41-.36.46-.4a4.34 4.34 0 0 0-1.1.05c-.08 0-.19.16-.28.28a1.42 1.42 0 0 1-.48.44 2.13 2.13 0 0 1-.94.14h-.25a.89.89 0 0 1-.25-.06 1.62 1.62 0 0 1-2 .27 3.58 3.58 0 0 0-.57-.16 1.81 1.81 0 0 1-.86-.52c-.1-.09-.2-.18-.31-.25l-.36-.35 1.26-.52.28-.11a2.25 2.25 0 0 0  .56-.26.7.7 0 0 0  .14-.14 1 1 0 0 0-.23.07c-.73.35-1.13.53-1.44.37s-.38-.54-.52-1.3h.24-.24c0-.07 0-.14 0-.22-.09-.63-.21-1-.84-1a .84.84 0 0 1-.48-.2l-.13-.09-.23-.13.13-.28.07-.13c.07-.16.17-.35.37-.38a1.91 1.91 0 0 0  .79-.45 1.66 1.66 0 0 1  1.93-.4.89.89 0 0 0  .44.05 3 3 0 0 0-.26-.37c-.21-.25 0-.65.37-1.37l.06-.1h.13a1.6 1.6 0 0 1  .9.26c.34.25.45.28.5.29a1.23 1.23 0 0 0  .09-.49v-.09c0-.28 0-.75.36-.92a.75.75 0 0 1  .7.08 1.89 1.89 0 0 1  .56-.59 1.16 1.16 0 0 0  .24-.21 2.77 2.77 0 0 1  1.83-1.46 2.67 2.67 0 0 1  2.23.52.49.49 0 0 0  .27 0 3.84 3.84 0 0 1  4.05-.24c.23.17.16.52.1.89v.14a1.21 1.21 0 0 1 0 .16h0c1.56-.84 1.77-.79 2.87.69l.07.09.09.11c.11.15.25.32.4.49.47.55.78.92.6 1.21a9.79 9.79 0 0 1-2.05 2.36 3 3 0 0 1-1.77.64.66.66 0 0 0-.46.14c-.11.12-.1.35-.08.6 0 0 0 .09 0 .13l.23.12.12-.06 1.52-.56.75-.28-.52.63-.28.41c-.2.3-.41.61-.65.9-.86 1-1.73 2.06-2.61 3.08l-.69.81a1 1 0 0 1-.16.14h0c .31 1.7-.81 2-1.71 2.21a3.3 3.3 0 0 0-1 .35l-.08.05c-.19.12-.5.33-.53.47a.91.91 0 0 0  .27.69 2.15 2.15 0 0 1  .8 1.79 2.28 2.28 0 0 1-1.09 1.78c-.45.29-.62.52-.62.6a1.55 1.55 0 0 1-.45 1.22 1.79 1.79 0 0 1-1.32.31h.06l.94.66.56.4-.15.2-.24.34a7.72 7.72 0 0 1-.69.9c-.18.19-.51.15-.86.08a6 6 0 0 1-.74-.21c-.41-.14-.88-.3-1.1-.17a3.22 3.22 0 0 1-2.46.15h-.19a1.74 1.74 0 0 0-1.25.22 1.14 1.14 0 0 0-.17 1 1.82 1.82 0 0 0  1 .85h.06a2.16 2.16 0 0 0 2.18-.23 2.58 2.58 0 0 1  2.1-.5 2.12 2.12 0 0 1  1.31 1.54 1.94 1.94 0 0 1-.5 1.69 1.17 1.17 0 0 1-.74.27zm-3.32-.55h2.92a.93.93 0 0 0  .86-.1 1.5 1.5 0 0 0  .32-1.27 1.66 1.66 0 0 0-.95-1.11 2.1 2.1 0 0 0-1.64.35 2.62 2.62 0 0 1-2.62.33 2.34 2.34 0 0 1-1.45-1.15 1.56 1.56 0 0 1  .31-1.57 2.2 2.2 0 0 1  1.66-.31h.19a2.74 2.74 0 0 0 2.12-.11 2 2 0 0 1  1.5.14 5.5 5.5 0 0 0  .68.2 1.47 1.47 0 0 0  .44 0 8.8 8.8 0 0 0  .61-.82l.1-.15-.15-.11-.92-.65a3 3 0 0 0-.37-.2l-.2-.1-.54-.28.58-.18.18-.07a1.23 1.23 0 0 1  .54-.12 1.32 1.32 0 0 0  1-.18 1.1 1.1 0 0 0  .27-.83c0-.39.47-.77.85-1a1.78 1.78 0 0 0  .86-1.39 1.65 1.65 0 0 0-.61-1.27 1.39 1.39 0 0 1-.44-1.18c.07-.34.43-.57.75-.78l.08-.05a3.71 3.71 0 0 1 1.13-.42c.93-.24 1.61-.41 1.33-1.75 0-.19.11-.31.21-.39l.09-.07.69-.81c.87-1 1.75-2 2.6-3.07.16-.2.32-.41.46-.62l-.79.29c-.13.08-.27.17-.42.09h-.08c-.25-.12-.51-.25-.52-.5v-.19a1.26 1.26 0 0 1  .22-1 1.1 1.1 0 0 1  .81-.3 2.53 2.53 0 0 0  1.47-.52 9.38 9.38 0 0 0  1.92-2.18 4.72 4.72 0 0 0-.52-.69c-.16-.18-.31-.37-.42-.52l-.15-.2c-.93-1.26-.92-1.26-2.23-.55a1.37 1.37 0 0 1-.44.13h-.16l-.46.11.17-.44.08-.18a1.3 1.3 0 0 0  .11-.31v-.15a2.53 2.53 0 0 0  .05-.43 3.41 3.41 0 0 0-3.42.34.81.81 0 0 1-.88 0 2.16 2.16 0 0 0-1.81-.43 2.27 2.27 0 0 0-1.5 1.2 1.27 1.27 0 0 1-.37.38 1.06 1.06 0 0 0-.48.59v.28l-.3-.09a.52.52 0 0 1-.19-.07c-.26-.18-.35-.15-.35-.15s-.08.1-.09.49v.14c0 .38-.08.78-.38.92s-.63-.07-1-.34a1.34 1.34 0 0 0-.43-.16 2.52 2.52 0 0 0-.32.72c.16.19.5.64.25 1s-.89.16-1.05.09c-.56-.27-.9 0-1.41.34a2.42 2.42 0 0 1-1 .53v.08a.58.58 0 0 0  .14.09c1.15 0 1.28.92 1.35 1.45 0 .07 0 .14 0 .21h0a2.65 2.65 0 0 0  .25.95c.12.05.67-.21 1-.37a2.13 2.13 0 0 1  .66-.16h.26l.63-.13-.38.52-.14.21a1.78 1.78 0 0 1-.43.52 2.66 2.66 0 0 1-.68.33l-.26.1-.47.19h0a1.51 1.51 0 0 0  .61.4 4.07 4.07 0 0 1  .65.18c.67.23 1.1.33 1.53-.25.14-.18.34-.08.41 0l .12.06h.25a1.8 1.8 0 0 0  .73-.09 1.11 1.11 0 0 0  .3-.3 1.08 1.08 0 0 1  .57-.46 5.22 5.22 0 0 1  1.33-.06h1.18l-.77.68-.67.58-.4.35a9.45 9.45 0 0 1-1.06.86h-.06c-1.13.75-1.13.75-.41 1.95a.94.94 0 0 0  .11.14 1.1 1.1 0 0 1  .2.27 1.12 1.12 0 0 1  .1.38v.12l.07.38-.3-.28h-.15a.67.67 0 0 1-.5-.21c-.16-.21-.29-.43-.43-.66a5.51 5.51 0 0 0-.61-.87 3.67 3.67 0 0 0-1.11-.74 1.93 1.93 0 0 0-.26.24c.66 1.34 1.37 2.68 2 3.94a1 1 0 0 0  .19.22l.14.13.23.25-.31.15-.15.08a1.12 1.12 0 0 1-.48.19 6.61 6.61 0 0 1-.67 0 3.83 3.83 0 0 0-.91 0 1.06 1.06 0 0 0-.61.56 1.49 1.49 0 0 0-.2.6h0c1.22 0 1.4.8 1.55 1.45a3.23 3.23 0 0 0  .17.59.88.88 0 0 0  .26.25l.2.16.44.4h-.59-.33a2.36 2.36 0 0 1-.91 0c-.22-.06-.32-.27-.41-.45a.85.85 0 0 0-.16-.25 1.45 1.45 0 0 0-.5-.16 4.3 4.3 0 0 0  0 .43 2.32 2.32 0 0 0  .07.35 1.16 1.16 0 0 1  0 .83 2.8 2.8 0 0 1-1.84 1.35 3.36 3.36 0 0 1-2.57-.34 2.29 2.29 0 0 0-1.1-.21h-.06a1.09 1.09 0 0 0-.12.27l.06.1c.17.28.46.75.66.78 2 .27 2 1.63 1.92 2.88a1.63 1.63 0 0 0  .47 1.19 1.28 1.28 0 0 0  .84.46h2zm3.32-14.64l.15.21h0v0a .76.76 0 0 0-.12-.15z"/><path d="m36.64 50.86a1.91 1.91 0 0 1-1.7-1.12 1.13 1.13 0 0 0-.32-.1 1.72 1.72 0 0 1-.5-.16 7 7 0 0 1-.78-.55l-.34-.24-.24-.18.22-.21.29-.29a4.56 4.56 0 0 1  .79-.68 1.62 1.62 0 0 1  .75-.18h.29.09 0a6.78 6.78 0 0 0-.84 0 6.82 6.82 0 0 1-.91 0 1.7 1.7 0 0 1-.68-.3l-.24-.14-.24-.13.15-.23.14-.2a1.66 1.66 0 0 0  .24-.41.79.79 0 0 0  0-.27 1.19 1.19 0 0 1-.8-.5 1.56 1.56 0 0 1  0-1.27 1.39 1.39 0 0 0  0-.52 2.39 2.39 0 0 0-.49.41c-.23.27-.44.56-.65.85a13.34 13.34 0 0 1-.87 1.06c-.28.31-1.07-.07-1.21-.16h0a2 2 0 0 1-.72-.85l-.07-.13a2.56 2.56 0 0 1-.35-1.36c.08-.64.22-1.28.35-1.9s.26-1.24.34-1.87a1.19 1.19 0 0 1  .46-.86 1.61 1.61 0 0 1  1.2-.1 14.76 14.76 0 0 1  2.5.86l.68.27a.86.86 0 0 1  .34.29.71.71 0 0 0  .14.15c.76.43.41 1.06.24 1.36a1.07 1.07 0 0 0-.12.27 1.69 1.69 0 0 1  .29-.09.88.88 0 0 1  .83.06.85.85 0 0 1  .22.68 1.54 1.54 0 0 1  1.54.33 1.43 1.43 0 0 0  .39.21h0c .42-.42.73-.57 1-.5s.41.43.5.73a2.47 2.47 0 0 0  .12.35 3.63 3.63 0 0 0  .2.37.76.76 0 0 0  0-.35 2.34 2.34 0 0 1  .79-2.71 1.53 1.53 0 0 1  .78-.23h.3l.25-.05v.25c0 .09 0 .18.07.27a1.5 1.5 0 0 1  .09.73c-.56 2.65 0 4.4 1.7 5.69.33.25.76.56.68 1s-.47.51-.79.6a.49.49 0 0 0-.07.2c.26.59.24 1-.06 1.28a1.24 1.24 0 0 1-1.35-.11c-1.09-.74-1.91-.33-3 .2a4.13 4.13 0 0 1-1.62.48zm-3.07-2.39l.09.07a6.58 6.58 0 0 0  .73.51 1.42 1.42 0 0 0  .35.11.89.89 0 0 1  .64.33c.74 1.28 1.68.93 2.82.36s2.13-1.07 3.46-.17c.24.17.63.24.75.13s.1-.29-.09-.73a.73.73 0 0 1  .06-.54.5.5 0 0 1  .3-.3c.43-.12.47-.23.47-.23s-.35-.37-.47-.46c-1.93-1.43-2.51-3.34-1.91-6.21a1.13 1.13 0 0 0-.08-.48v-.08h-.12a1.22 1.22 0 0 0-.53.14 1.85 1.85 0 0 0-.61 2.18 1.56 1.56 0 0 1-.09.84c0 .1-.06.21-.08.31l-.12.65-.34-.57-.16-.27a5.62 5.62 0 0 1-.36-.64 2.94 2.94 0 0 1-.14-.42 1.14 1.14 0 0 0-.15-.39s-.14 0-.55.39-.66 0-1-.17c-.5-.33-.86-.52-1.25-.15l-.23.21-.16-.27a.5.5 0 0 1-.15-.35c0-.41 0-.49 0-.49s-.27 0-.37 0a .85.85 0 0 1-.71 0c-.36-.26-.14-.65 0-.88.22-.39.25-.51-.05-.68a1 1 0 0 1-.28-.27.59.59 0 0 0-.14-.14l-.68-.28a14.48 14.48 0 0 0-2.42-.83 1.17 1.17 0 0 0-.86.05.72.72 0 0 0-.25.52c-.08.64-.22 1.29-.35 1.91s-.26 1.24-.34 1.85a2.24 2.24 0 0 0  .31 1.06l.06.13a1.56 1.56 0 0 0  .53.64 1.62 1.62 0 0 0  .62.21 13.36 13.36 0 0 0  .83-1.07c.22-.3.43-.59.67-.88a3.07 3.07 0 0 1  .65-.55l.28-.2.39-.31v.5c0 .1 0 .21 0 .32a2 2 0 0 1 0 .81 1.11 1.11 0 0 0  0 .86.84.84 0 0 0  .6.3h.11l.08.12a1.19 1.19 0 0 1  .06.76 1.93 1.93 0 0 1-.29.51l0 0a1.35 1.35 0 0 0  .48.23 6.16 6.16 0 0 0  .84 0 7.05 7.05 0 0 1  .9 0 1.39 1.39 0 0 1  .63.31l.21.14.45.27-1.49.54-.12-.08h-.1a1.3 1.3 0 0 0-.53.11 4.15 4.15 0 0 0-.7.61z"/><path d="m50.4 28.65h-.17a1.7 1.7 0 0 1-1.36-.84c-.72-1.35-.6-1.87.65-2.74a.8.8 0 0 0 0-.17 8.39 8.39 0 0 0-.79-.28l-.18-.06-.45.44-.6-1.07-.1-.21a1 1 0 0 0-.19-.31h0a1 1 0 0 1-.41-.72 1 1 0 0 1  .41-.73 1.09 1.09 0 0 0  .26-.33 1.89 1.89 0 0 0-.1-1c0-.18-.1-.37-.12-.54v-.25h.25c.31 0 .36-.12.36-.12a1.28 1.28 0 0 0-.19-.43l-.06-.11c-.14-.25.08-.54.32-.88l.15-.21a1.51 1.51 0 0 1  .21-.24.66.66 0 0 0  .15-.18 1.69 1.69 0 0 0-.11-.18l-.11-.19-.26-.52.55.17.24.06a1.17 1.17 0 0 1  .64.27 2.46 2.46 0 0 1  .7 1.16 2.89 2.89 0 0 0  2 2.48c.31.11.38.51.47 1a3.65 3.65 0 0 0  .14.62l.05.14a2.08 2.08 0 0 0  .51.9 1.44 1.44 0 0 1  .66.92 1.48 1.48 0 0 1-.38 1.11l-.6.81c-.43.58-.87 1.18-1.33 1.76a1.49 1.49 0 0 1-1.21.47zm-2-4.66l.45.14a8 8 0 0 1 1 .35.39.39 0 0 1  .19.35c0 .14 0 .48-.18.61-1.08.74-1.15 1-.54 2.13a1.2 1.2 0 0 0 1 .58 1 1 0 0 0  .92-.33c.45-.57.89-1.16 1.32-1.74l.6-.82a1.05 1.05 0 0 0  .29-.74 1 1 0 0 0-.46-.59 2.39 2.39 0 0 1-.68-1.12l-.05-.13a4 4 0 0 1-.26-.68 2 2 0 0 0-.16-.61 3.35 3.35 0 0 1-2.33-2.84 2 2 0 0 0-.57-.91.29.29 0 0 0-.12-.06.47.47 0 0 1  0 .22.87.87 0 0 1-.29.43 1.15 1.15 0 0 0-.15.16l-.16.23a2.83 2.83 0 0 0-.22.38v.05c.17.31.34.61.2.89a.72.72 0 0 1-.48.34l.07.27a2.19 2.19 0 0 1  .09 1.27 1.44 1.44 0 0 1-.38.51c-.13.13-.26.26-.26.36a.64.64 0 0 0  .25.36h0a1.41 1.41 0 0 1  .31.47l.09.17.29.53z"/><path d="m35.85 38.71a1.51 1.51 0 0 1-.65-.21l-.2-.11-.3-.11.19-.26.11-.22a2.51 2.51 0 0 1  .41-.53.92.92 0 0 1  .43-.18.9.9 0 0 0  .16-.09h.06-.06c-.25 0-.51 0-.77.08a9.24 9.24 0 0 1-1 .09 2.88 2.88 0 0 1-1.23-.3c-.24-.11-.19-.4-.1-.87 0-.09 0-.18 0-.25a1.22 1.22 0 0 1  .15-.45c.1-.17.2-.37.31-.59.41-.81.61-1.2 1-1.14a4.45 4.45 0 0 1 1.7.87l.37.26a1.3 1.3 0 0 1  .33.38c.06.09.14.21.19.23a2.38 2.38 0 0 0  .74.09h.11v0a3.54 3.54 0 0 0 0-.59 1 1 0 0 0-.09-.25 1.06 1.06 0 0 1-.13-.51 4.8 4.8 0 0 1  .18-.89c0-.11.06-.23.09-.34l.15-.62.31.55.16.3a6.62 6.62 0 0 0  .37.63l.16.32a2.52 2.52 0 0 0  .45.61 1 1 0 0 1  .94.3.93.93 0 0 1  .11.87 3.78 3.78 0 0 1-.72 1.22l-.21.26c-.13.17-.35.13-.54.1h-.15-.14l-.06-.12-.33.17c-.49.24-1 .49-1.48.75a2 2 0 0 0-.28.2 1.36 1.36 0 0 1-.63.33zm-.44-.71h0c .17.08.34.18.45.15a1 1 0 0 0  .39-.23 2.47 2.47 0 0 1  .36-.25c.49-.26 1-.51 1.49-.76l.78-.39.16.33h.05.12l.16-.2a3.44 3.44 0 0 0  .67-1.07.49.49 0 0 0  0-.42.65.65 0 0 0-.55-.12c-.36 0-.59-.38-.88-.84l-.2-.2c-.09-.14-.18-.28-.26-.42a3.21 3.21 0 0 0-.1.55.72.72 0 0 0  .09.27 1.4 1.4 0 0 1  .13.39 4 4 0 0 1  0 .68c0 .09 0 .18 0 .27v.27h-.27-.34a2.78 2.78 0 0 1-.89-.12.94.94 0 0 1-.43-.42.91.91 0 0 0-.2-.24l-.38-.27a4.37 4.37 0 0 0-1.43-.77 5.7 5.7 0 0 0-.49.86c-.11.22-.22.44-.33.61a.74.74 0 0 0-.08.27h0c0 .08 0 .17 0 .27s-.05.27-.06.37a2.43 2.43 0 0 0  .94.16 8.87 8.87 0 0 0  1-.08c.27 0 .54-.07.81-.08a.84.84 0 0 1  .47.18l.13.08.32.16-.26.24-.09.09a1.18 1.18 0 0 1-.32.26 1.34 1.34 0 0 1-.32.1.62.62 0 0 0-.21.07 2 2 0 0 0-.43.25z"/><path d="m45.2 45.25a1.76 1.76 0 0 1-.93-.55 20 20 0 0 1-1.45-1.39h0a1 1 0 0 1-.21-.49c0-.06 0-.11 0-.17l-.08-.24.93-.29.09.19h0a1.23 1.23 0 0 0  .27-.13 1.48 1.48 0 0 0-.09-.48c0-.08 0-.17-.07-.25s-.06-.25-.1-.39c-.13-.46-.19-.67 0-.77a13.79 13.79 0 0 1 1.44-.53l.65-.21.11.65c.05.29.1.58.15.87s0 .34.07.51.06.45.1.68.08.38.13.57a3.67 3.67 0 0 1  .18 1.29c-.05.49-.67.92-1 1.1a.36.36 0 0 1-.19.03zm-2.09-2.51a.62.62 0 0 0  .08.23h0c .45.48.93.94 1.41 1.36a2.21 2.21 0 0 0  .58.42c.37-.19.7-.5.71-.69a3.27 3.27 0 0 0-.16-1.12c-.05-.2-.1-.4-.14-.6s-.07-.47-.1-.7 0-.33-.07-.5-.09-.57-.15-.86v-.08h-.11c-.41.13-.82.27-1.22.43l.07.25c0 .15.09.3.11.42s0 .15.06.22a1.5 1.5 0 0 1  .08.77c-.06.24-.31.34-.54.44l-.21.09-.24.13-.12-.26z"/><path d="m47.58 44l-.17-.21-.12-.12a.71.71 0 0 1-.28-.49v-.18a28.26 28.26 0 0 1  .16-3.14c0-.29.31-.47.63-.68a4.36 4.36 0 0 0  .39-.27l.13-.11.15.09c.21.12.45.24.69.35.72.36 1.12.55 1.06.87a3.37 3.37 0 0 1-1.15 2.14c-.52.3-.66.48-.73.94a.81.81 0 0 1-.4.49l-.16.12zm.79-4.59l-.29.2c-.14.1-.39.25-.41.32a28 28 0 0 0-.15 3.07v.17l.12.12h0a1 1 0 0 0  .2-.17 1.6 1.6 0 0 1  1-1.28 2.76 2.76 0 0 0  .89-1.71 6.17 6.17 0 0 0-.77-.42z"/><path d="m44.05 29.38h-.05a.49.49 0 0 1-.42-.2 2 2 0 0 0-2.11-1 .62.62 0 0 1-.47-.18l-.12-.13-.22-.19.22-.19c.64-.54.42-.81 0-1.29a3.13 3.13 0 0 1-.37-.51.8.8 0 0 1  0-.83.91.91 0 0 1  .8-.16 4.19 4.19 0 0 1  3.23 3.86 1.11 1.11 0 0 1-.23.72.42.42 0 0 1-.26.1zm-.05-.51h0a .62.62 0 0 0  .08-.32 3.71 3.71 0 0 0-2.86-3.41.5.5 0 0 0-.32 0 .61.61 0 0 0  0 .24 2.7 2.7 0 0 0  .31.42c.35.42.86 1 .12 1.81l.06.06a2.56 2.56 0 0 1 2.61 1.21z"/><path d="m30.79 35.05a2.4 2.4 0 0 1-1-.26h0a .72.72 0 0 1-.32-.46.8.8 0 0 1  0-.61l.09-.15a8.79 8.79 0 0 1 1.44-1.86 7 7 0 0 1  1.75-1.05l.29-.14c.21-.1.41.05.64.23l.23.17.16.1-.27.8c-.19.56-.35 1-.54 1.5a.48.48 0 0 1-.36.25.63.63 0 0 1-.53-.05 1 1 0 0 1-.22-.26 2.07 2.07 0 0 0-.16.38c-.2.72-.45 1.12-.82 1.29a1 1 0 0 1-.38.12zm-.73-.7a1.24 1.24 0 0 0 1 .15c.22-.1.4-.41.55-1a3.1 3.1 0 0 1  .28-.64l.13-.26.2-.43.24.41.11.2a1 1 0 0 0  .21.33s.08 0 .14-.06c.18-.44.33-.89.51-1.42l.15-.45-.11-.08-.23-.1-.22.11a6.65 6.65 0 0 0-1.63 1 8.49 8.49 0 0 0-1.39 1.73l-.09.15a.84.84 0 0 0  .14.36z"/><path d="m44.4 37.17h0c-.34 0-.58-.41-.78-.75l-.08-.14a1.66 1.66 0 0 1-.18-.49.63.63 0 0 1-.61-.16c-.16-.21 0-.47.07-.68a1.44 1.44 0 0 0  .1-.24s-.08-.23-.13-.34c-.13-.34-.23-.59 0-.73s.38 0 .82.45v0c0-.22-.09-.44-.15-.66l-.17-.73.44.17.5.18a5.32 5.32 0 0 1 1.28.56c.25.17.26.51.27.88a3.47 3.47 0 0 0 0 .37v.08c0 .14 0 .29-.06.43a3.66 3.66 0 0 1-.26 1.08 1.39 1.39 0 0 1-1.06.72zm-.89-1.91c.2 0 .25.21.28.33a1.81 1.81 0 0 0  .13.42l.09.14c.1.16.3.49.4.52h0a1 1 0 0 0  .58-.47 3.25 3.25 0 0 0  .22-.93c0-.14 0-.28.06-.42s0-.25 0-.38a1.51 1.51 0 0 0-.06-.49 4.92 4.92 0 0 0-1.16-.5h-.08c0 .17.08.35.11.52a1.39 1.39 0 0 1 0 .38s0 .09 0 .13v.27h-.27a.48.48 0 0 1-.38-.11h0l0 0a .51.51 0 0 1 0 .24 1.74 1.74 0 0 1-.14.34l-.06.14h.29z"/><path d="m53.72 58.9a.93.93 0 0 1-.66-.32 1.88 1.88 0 0 1-.41-1 2.84 2.84 0 0 0-.07-.3v-.07l.56-2.12.28.15.47.24a7.36 7.36 0 0 1 1.11.65h0a8.12 8.12 0 0 1 1.27 1.27 1.15 1.15 0 0 1  .21.55c0 .07 0 .13 0 .19l.11.39-.59-.08-.44-.09-.32-.07a1.51 1.51 0 0 0-.44-.06l-.21.18a1.48 1.48 0 0 1-.87.49zm-.64-1.68c0 .08 0 .18.06.28a1.52 1.52 0 0 0  .27.73c.29.28.43.22.88-.19l.24-.21a1 1 0 0 1  .85 0l .28.06.29.05a.42.42 0 0 0-.07-.17 7.77 7.77 0 0 0-1.19-1.2 6.85 6.85 0 0 0-1-.6l-.21-.11z"/><path d="m46.61 29.43a1.33 1.33 0 0 1-.92-.68 7.75 7.75 0 0 1-.63-1.8c-.05-.24.16-.42.4-.61l.19-.16.19-.19 1.94 2.22-.13.16c-.12.15-.22.3-.31.43-.2.3-.36.54-.63.61h-.1zm-1.05-2.52a7.18 7.18 0 0 0  .58 1.61 1 1 0 0 0  .47.41 1.45 1.45 0 0 0  .33-.4l.21-.3-1.34-1.53 0 0z"/><path d="m36.62 30.79h0a3.6 3.6 0 0 1-1.46-.69l-.48-.31c-.19-.11-.15-.39-.15-.44v-.16l.17-.06c.85-.22 1.7-.43 2.55-.62.19 0 .29.11.39.24l.13.17.11.14-.09.15c-.1.16-.2.36-.31.56-.32.59-.54 1.02-.86 1.02zm-1.47-1.27l.24.16a3.4 3.4 0 0 0 1.2.6 4.45 4.45 0 0 0  .44-.74l.24-.45v-.06h0z"/><path d="m47.62 38.33l-.18-.19c-.1-.1-.21-.2-.32-.3a2.11 2.11 0 0 1-.71-.9c-.09-.31.15-.62.41-.95a4 4 0 0 0  .24-.33l.16-.26 1.67 1.6zm-.31-2.16l-.1.13c-.11.14-.33.42-.32.51a1.77 1.77 0 0 0  .56.67l.17.15.57-.59z"/><path d="m46.18 50.76h-.13a4.91 4.91 0 0 1-1-.5l-.35-.26-.23-.13 1-1.67 2 1.25-.42.84h-.07l-.21.14a1.08 1.08 0 0 1-.59.33zm-1-1l .15.09a4.44 4.44 0 0 0  .9.45l.25-.17.19-.13.15-.3-1.15-.73z"/><path d="m78.61 12.73l-.21-.25-.25-.28a6.71 6.71 0 0 1-.66-.83c-.12-.19 0-.37.15-.65.07-.12.15-.26.23-.42l.2-.41.24.39.3.49a7.21 7.21 0 0 1  .54 1c .09.21-.07.4-.23.59l-.12.15zm-.61-1.56a6.82 6.82 0 0 0  .57.7l.06.07.07-.09a7.79 7.79 0 0 0-.47-.82l-.08-.12v.06z"/><path d="m36.71 28.39l-1.11-.79.31-.2.29-.2a3 3 0 0 1  .87-.48c.25-.07.45.15.68.41l.2.21.25.24zm-.23-.78l.27.19.63-.34h0a2.91 2.91 0 0 0-.23-.24 2.92 2.92 0 0 0-.65.39z"/><path d="m59.44 53.05l-.16-.2-.14-.15c-.17-.18-.35-.36-.28-.58a2 2 0 0 1  .65-1c .2-.14.44 0 .77.14l.43.2.38.16zm-.07-.84l.13.14.67-.57-.11-.05-.3-.14a1.57 1.57 0 0 0-.4.62z"/><path d="m74.23 49.4l-.32-.53a7.94 7.94 0 0 1-.48-.84c-.08-.18 0-.34.13-.55s.12-.21.18-.34l.19-.41.48.75a11.77 11.77 0 0 1  .63 1h0c .1.22-.05.32-.4.56l-.2.14zm-.32-1.52a8.14 8.14 0 0 0  .42.73v.07l.14-.09c-.14-.25-.31-.52-.51-.83v0z"/><path d="m47.4 31l-.82-.93.27-.15.13-.09a.78.78 0 0 1  .51-.2 1.16 1.16 0 0 1  .52.25l.15.1.31.19zm-.06-.82l.12.14.14-.11a.5.5 0 0 0-.17-.09z"/><path d="m42.15 35.4l-.47-.73c-.19-.29-.37-.58-.55-.88a.76.76 0 0 1-.08-.37s0-.07 0-.1v-.2l.56-.19.31.48c.19.3.39.61.56.93a.52.52 0 0 1-.07.49l-.05.11z"/><path d="m9 67a .63.63 0 0 1-.37-.19l-.1-.08-.28-.18.25-.22.17-.15a3.11 3.11 0 0 1  .5-.39h0c .16-.1.32 0 .5.08l.33.13.43.18-.4.25-.3.2a3.06 3.06 0 0 1-.57.33z"/><path d="m0 0h100v100h-100z" fill="none"/></svg>