<?xml version="1.0" encoding="utf-8"?>
<!-- Generator: Adobe Illustrator 19.2.1, SVG Export Plug-In . SVG Version: 6.00 Build 0)  -->
<svg version="1.1" id="Layer_1" xmlns="http://www.w3.org/2000/svg" xmlns:xlink="http://www.w3.org/1999/xlink" x="0px" y="0px"
	 viewBox="0 0 368 116" style="enable-background:new 0 0 368 116;" xml:space="preserve">
<style type="text/css">
	.st0{fill:#1C1B1A;}
</style>
<g>
	<path class="st0" d="M2.8,78.2c0.6,0,1.2-0.3,1.3-0.8v-0.8V65.2c0-0.7,0.5-1.2,1.2-1.2h7.8h1.4c7,0,12.9-5.4,12.9-12.9
		c0-0.1,0-0.3,0-0.4c0-0.1,0-0.3,0-0.4c0-7.3-5.8-12.7-12.9-12.7h-1.4H2.6H1.2c-0.7,0-1.2,0.5-1.2,1.2v0.8v36.5v0.8
		c0,0.8,0.8,1.3,1.4,1.3 M5.3,60.6c-0.7,0-1.2-0.5-1.2-1.2V42.2c0-0.7,0.5-1.2,1.2-1.2h7.6c5.5,0,10,3.5,10.2,9.3
		c-0.2,5.9-4.7,10.2-10.2,10.2H5.3z"/>
	<path class="st0" d="M70.7,37.6h-1.4H48.7h-1.4c-0.7,0-1.2,0.5-1.2,1.2v0.8v36.5v0.8c0,0.7,0.5,1.2,1.2,1.2h1.4h20.7h1.4
		c0.7,0,1.2-0.5,1.2-1.2c0-0.1,0-0.1,0-0.4c0-0.4,0-0.3,0-0.4c0-0.7-0.5-1.2-1.2-1.2h-1.4H51.4c-0.7,0-1.2-0.5-1.2-1.2V60.1
		c0-0.7,0.5-1.2,1.2-1.2h15.1h1.4c0.7,0,1.2-0.5,1.2-1.2v-0.1c0-0.1,0,0,0-0.3c0-0.4,0-0.3,0-0.4v-0.1c0-0.7-0.5-1.2-1.2-1.2h-1.4
		H51.4c-0.7,0-1.2-0.5-1.2-1.2V42c0-0.7,0.5-1.2,1.2-1.2h17.9h1.4c0.7,0,1.2-0.5,1.2-1.2v-0.1v-0.8v-0.1
		C71.9,38.1,71.4,37.6,70.7,37.6z"/>
	<path class="st0" d="M366.8,37.6h-1.4h-20.7h-1.4c-0.7,0-1.2,0.5-1.2,1.2v0.8v36.5v0.8c0,0.7,0.5,1.2,1.2,1.2h1.4h20.7h1.4
		c0.7,0,1.2-0.5,1.2-1.2c0-0.1,0-0.1,0-0.4c0-0.4,0-0.3,0-0.4c0-0.7-0.5-1.2-1.2-1.2h-1.4h-17.9c-0.7,0-1.2-0.5-1.2-1.2V60.1
		c0-0.7,0.5-1.2,1.2-1.2h15.1h1.4c0.7,0,1.2-0.5,1.2-1.2v-0.1c0-0.1,0,0,0-0.3c0-0.4,0-0.3,0-0.4v-0.1c0-0.7-0.5-1.2-1.2-1.2h-1.4
		h-15.1c-0.7,0-1.2-0.5-1.2-1.2V42c0-0.7,0.5-1.2,1.2-1.2h17.9h1.4c0.7,0,1.2-0.5,1.2-1.2v-0.1v-0.8v-0.1
		C368,38.1,367.5,37.6,366.8,37.6z"/>
	<path class="st0" d="M94,78.1h0.4c0.7,0,1.1-0.3,1.1-0.7v-0.8V64c0-0.7,0.5-1.2,1.2-1.2h8h1.4c0.1,0,0.1,0,0.2,0
		c0.4,0,0.8,0.2,0.9,0.6l7.8,14c0.3,0.5,0.5,0.7,1.2,0.7h1.4h0.2h1.4c0,0,1.2,0,0.3-1.8l-7.7-13.5l0.1,0.1c-0.4-0.7,0.6-1,0.6-1
		c4.5-1.5,8-7,7.8-12.5c0.1-4.3-2-8.7-7.7-11.1c-0.3-0.1-2.2-0.8-5.4-0.8h-1.4H93.5h-1.4c-0.5,0-0.7,0.3-0.7,0.7v0.8v37v0.8
		c0,0.7,0.5,1.2,1.2,1.2H93 M96.7,59.4c-0.7,0-1.2-0.5-1.2-1.2v-16c0-0.7,0.5-1.2,1.2-1.2h9.4c5.4,0,9.2,3.4,9.5,8.6
		c-0.2,5.4-4,9.7-9.4,9.7H96.7z"/>
	<path class="st0" d="M243,78.1h0.4c0.7,0,1.1-0.3,1.1-0.7v-0.8V64c0-0.7,0.5-1.2,1.2-1.2h8h1.4c0.1,0,0.1,0,0.2,0
		c0.4,0,0.8,0.2,0.9,0.6l7.8,14c0.3,0.5,0.5,0.7,1.2,0.7h1.4h0.2h1.4c0,0,1.2,0,0.3-1.8l-7.7-13.5l0.1,0.1c-0.4-0.7,0.6-1,0.6-1
		c4.5-1.5,8-7,7.8-12.5c0.1-4.3-2-8.7-7.7-11.1c-0.3-0.1-2.2-0.8-5.4-0.8h-1.4h-12.2h-1.4c-0.5,0-0.7,0.3-0.7,0.7v0.8v37v0.8
		c0,0.7,0.5,1.2,1.2,1.2h0.4H243z M245.8,59.4c-0.7,0-1.2-0.5-1.2-1.2v-16c0-0.7,0.5-1.2,1.2-1.2h9.4c5.4,0,9.2,3.4,9.5,8.6
		c-0.2,5.4-4,9.7-9.4,9.7H245.8z"/>
	<path class="st0" d="M143.1,78.1h0.6c0.6,0,0.9-0.3,0.9-0.7v-0.8V61.7c0-0.7,0.5-1.2,1.2-1.2h15.6h1.4c0.9,0,0.7-1,0.7-1.6
		c0,0,0,0,0,0c0-0.3,0-0.5,0-0.8c0-0.4-0.3-0.7-0.7-0.7h-1.4h-15.6c-0.7,0-1.2-0.5-1.2-1.2V42c0-0.7,0.5-1.2,1.2-1.2h18h1.4
		c0.7,0,1.2-0.5,1.2-1.2v-0.1v-0.8v-0.1c0-0.7-0.5-1.2-1.2-1.2h-1.4h-20.7h-1.4c-0.7,0-1.2,0.5-1.2,1.2v0.8v36.5v0.8
		c0,0.7,0.5,1.2,1.2,1.2h0.6H143.1z"/>
	<path class="st0" d="M322.8,70.9c0.5,0.4,1.4,1.5,0.4,2.3c-4.3,3.3-8.9,5.5-14,5.5c-0.2,0-0.5,0-0.7,0c-0.2,0-0.4,0-0.7,0
		c-11.4,0-20.7-9-20.7-20.4c0-0.1,0-0.3,0-0.4c0-0.1,0-0.3,0-0.4c0-11.4,9.3-20.5,20.7-20.5c0.2,0,0.3,0,0.5,0c0.3,0,0.6,0,0.9,0
		c5.8,0,10.2,1.9,13.9,5.3c1.2,1,0.1,1.8,0.1,1.8l-0.9,0.8c-0.3,0.3-1.3,1.1-1.7,0.7c-0.6-0.5-0.7-0.6-0.7-0.6l0.7,0.6
		c-0.5-0.5-0.3-0.3-0.7-0.6c-3.1-2.7-7-4.5-11.4-4.6c-9.6,0.3-17,8.1-17.2,17.5c0.2,9.4,7.6,17,17.2,17.4c4.6-0.2,8.1-2,11.4-4.7
		C320,70.5,321.4,69.5,322.8,70.9"/>
	<polygon class="st0" points="322.8,70.9 322.8,70.9 322.8,70.9 	"/>
	<path class="st0" d="M322.8,70.9c-0.1-0.1-0.2-0.2-0.2-0.2L322.8,70.9z"/>
	<path class="st0" d="M223.4,51.8c0,0-0.8-9.6-8.6-14.6c-1.1,1.1-2.4,2.3-3.1,2.9c-1-0.6-2.1-1.1-3.3-1.5
		c-9.9-3.7-20.2,0.5-25.9,8.2c-3,4.4-4.8,9.9-4.3,15.5c0,0,0,10.5,9.7,16.7c0.8-1.1,1.8-2.5,2.5-3.4c1.1,0.6,2.2,1.2,3.4,1.6
		c11.1,4.1,23.5-1.1,27.5-11.8C221.4,65.4,224.4,58.9,223.4,51.8z M195.1,73.3c-8.7-3.2-13-12.8-9.8-21.4c0.3-0.8,0.7-1.6,1.1-2.3
		c-0.4-0.4-1.4-1.2-1.3-1.2c5.2-6.3,12.1-8.2,18.1-7.1c1.2,0.2,2.5,0.5,3.7,0.9c8.7,3.2,13,12.8,9.8,21.4c-0.3,0.9-0.7,1.7-1.2,2.4
		c0.5,0.4,1.5,1.2,1.5,1.3c-5.8,6.9-13.6,8.5-20,6.6C196.3,73.8,195.7,73.6,195.1,73.3z"/>
</g>
</svg>
