<?xml version="1.0" encoding="utf-8"?>
<!-- Generator: Adobe Illustrator 19.2.1, SVG Export Plug-In . SVG Version: 6.00 Build 0)  -->
<svg version="1.1" id="Layer_1" xmlns="http://www.w3.org/2000/svg" xmlns:xlink="http://www.w3.org/1999/xlink" x="0px" y="0px"
	 viewBox="0 0 368 116" style="enable-background:new 0 0 368 116;" xml:space="preserve">
<style type="text/css">
	.st0{enable-background:new    ;}
	.st1{fill:#01786E;}
</style>
<g>
	<g>
		<g>
			<g class="st0">
				<g>
					<g>
						<path class="st1" d="M104.4,35.4h-9.7V26h9.7V35.4z M104.4,88.9h-9.7V42.3h9.7V88.9z"/>
					</g>
					<g>
						<g>
							<path class="st1" d="M160.3,42.3l-13.5,40.3c-2.3,6.6-6.5,7.4-9.8,7.4c-5,0-8-2.3-9.7-7.4L116,49.1h-4.5v-6.8h11.6l11.6,37.5
								c0.5,1.6,0.8,2.6,2.2,2.6c1.5,0,1.7-1,2.2-2.6l11.8-37.5C150.9,42.3,160.3,42.3,160.3,42.3z"/>
							<path class="st1" d="M184.2,42.3c12.5,0,21.3,8.3,21.3,20.2v7.3c0,11.9-8.7,20.2-21.3,20.2c-12.5,0-21.3-8.3-21.3-20.2v-7.3
								C162.9,50.6,171.7,42.3,184.2,42.3 M184.2,82.3c7.5,0,12.2-5.7,12.2-12.5v-7.3c0-6.8-4.6-12.5-12.2-12.5
								c-7.9,0-12.1,5.7-12.1,12.5v7.3C172.1,76.6,176.4,82.3,184.2,82.3"/>
							<path class="st1" d="M282.9,43.8c-4.8-1.2-12.4-2.2-17.9-2.2c-12.7,0-20.6,8.1-20.6,21v5.1c0,13,7.9,21.1,20.6,21.1
								c0.3,0,2.6,0,3.6-0.1V81c-0.4,0-3.3,0.1-3.6,0.1c-6.9,0-11.6-5.4-11.6-13.3v-5.1c0-8,4.7-13.3,11.6-13.3
								c3.1,0,7.9,0.3,9.5,0.6l0.5,0.1V89h9.7V45.4C284.6,44.6,284.6,44.2,282.9,43.8"/>
							<rect x="294" y="26" class="st1" width="9.7" height="62.9"/>
							<path class="st1" d="M222.7,32.2v10.1h15.8v7.5h-15.8V77c0,4.3,2.7,4.4,6.6,4.4h9.1v7.5H226c-9.1,0-13.2-3.7-13.2-11.9V33.6
								L222.7,32.2z"/>
							<path class="st1" d="M61.1,26H44v62.9h10.6V35.5H60c1.2,0,2.4,0.1,3.5,0.1c8.7,0.2,13,2.8,13,9.6c0,0.3,0,0.5,0,0.7
								c0,6.3-3.4,10.4-12.9,10.4c-0.9,0-2.3-0.2-2.3-0.2v8.7c0,0,1.4,0,2.3,0c13.6,0,23.2-5.4,23.2-18.8c0-0.3,0-0.5,0-0.8
								C86.8,31.3,76.3,26,61.1,26z"/>
						</g>
					</g>
				</g>
			</g>
		</g>
	</g>
	<g>
		<path class="st1" d="M312.1,82v6.9h-0.7V82h-2.9v-0.6h6.4V82H312.1z M323.3,88.9l-0.4-6.7h-0.1l-2.6,6.7h-0.9l-2.3-6.7h-0.1
			l-0.4,6.7H316l0.5-7.6h1l2.4,6.9h0.1l2.6-6.9h1l0.4,7.6H323.3z"/>
	</g>
</g>
</svg>
