<?xml version="1.0" encoding="utf-8"?>
<!-- Generator: Adobe Illustrator 19.2.1, SVG Export Plug-In . SVG Version: 6.00 Build 0)  -->
<svg version="1.1" id="Layer_1" xmlns="http://www.w3.org/2000/svg" xmlns:xlink="http://www.w3.org/1999/xlink" x="0px" y="0px"
	 viewBox="0 0 368 116" style="enable-background:new 0 0 368 116;" xml:space="preserve">
<style type="text/css">
	.st0{fill:#1C1B1A;}
	.st1{opacity:0.7;}
	.st2{opacity:0.5;}
	.st3{opacity:0.4;}
	.st4{opacity:0.2;}
</style>
<g>
	<path class="st0" d="M35.7,25c-5.1,11.1-11.9,31.1-15.1,44.9L2,70.3c5.9-15.9,15.9-36.4,21.9-44.9L35.7,25z"/>
</g>
<g>
	<path class="st0" d="M42.7,31.5c-5.1,11.1-11.9,31.2-15.1,44.9L9,76.8c5.9-15.9,15.9-36.4,21.9-44.9L42.7,31.5z"/>
</g>
<g class="st1">
	<path class="st0" d="M50.3,38.6c-5.1,11.1-11.9,31.2-15.1,44.9l-18.6,0.3C22.5,68,32.5,47.5,38.5,39L50.3,38.6z"/>
</g>
<g class="st2">
	<path class="st0" d="M56.7,45.7c-5.1,11.1-11.9,31.2-15.1,44.9L23,91c5.9-15.9,15.9-36.4,21.9-44.9L56.7,45.7z"/>
</g>
<g class="st3">
	<path class="st0" d="M63.7,38.6c-5.1,11.1-11.9,31.2-15.1,44.9L30,83.9C35.9,68,45.9,47.5,51.9,39L63.7,38.6z"/>
</g>
<g class="st4">
	<path class="st0" d="M70.2,32.1C65.1,43.2,58.3,63.3,55.1,77l-18.6,0.3C42.3,61.5,52.3,41,58.4,32.4L70.2,32.1z"/>
</g>
<g>
	<path class="st0" d="M107.2,56.6c0-3.1-2.2-3.8-4.9-3.8c-3.2,0-5,1.2-5,2.7c0,6.2,21.2,2.7,21.2,15.4c0,11.9-11.3,17.7-23.6,17.7
		c-10.3,0-16.1-5.5-16.1-12.4c0-0.7,0.1-1.4,0.2-2.2h13.5c-0.1,0.2-0.1,0.5-0.1,0.7c0,2.1,2.8,3.8,5.4,3.8c3.5,0,6.6-1.3,6.6-3.4
		c0-6.1-21.2-2.4-21.2-15.5c0-11.1,10.4-16.9,21.9-16.9c11.2,0,15.5,5.5,15.5,12.4c0,0.5-0.1,1.1-0.1,1.4H107.2z"/>
	<path class="st0" d="M159,67.3c0,9.7-6.9,21.1-21.8,21.1c-8.7,0-14.8-4.2-14.8-12.4c0-10.4,7.5-21.2,21.8-21.2
		C153.7,54.9,159,59.7,159,67.3z M135,74.9c0,3.5,1.5,5,4,5c6.1,0,7.5-9.2,7.5-11.3c0-3.2-1.4-5.3-3.9-5.3
		C137.2,63.3,135,70.7,135,74.9z"/>
	<path class="st0" d="M187.2,50.7c-4.1,0-5.4,0.9-6.3,5.1h5.2l-1.6,7.3h-5.2l-5.1,24.5h-12.4L167,63h-4.1l1.6-7.3h4.1
		c2.3-11.1,7.1-13,15-13h5.3L187.2,50.7z"/>
	<path class="st0" d="M207.8,45.9l-2.1,9.9h6l-1.5,7.3h-6l-2.4,11.8c-0.2,0.7-0.2,1.3-0.2,1.6c0,1.4,0.8,2,3.3,2h2l-1.9,9
		c-12.8,0-16.7-0.1-16.7-5.5c0-1.5,0.3-3.4,0.8-5.8l2.8-13.3h-4.4l1.5-7.3h4.4l2.1-9.9H207.8z"/>
	<path class="st0" d="M227.6,60.5c2-2.4,6.6-5.6,11-5.6c5.6,0,8.2,2.4,9,5.8c3.5-3.8,7.4-5.8,12-5.8c7.1,0,9.7,3.2,9.7,8.6
		c0,1.6-0.2,3.3-0.6,5.3l-4,18.8h-12.4l3.5-16.2c0.3-1.4,0.4-2.5,0.4-3.4c0-2.2-0.9-3.2-3.2-3.2c-3.6,0-5,3.2-5.9,7l-3.3,15.7h-12.4
		l3.5-16.2c0.3-1.4,0.4-2.5,0.4-3.4c0-2.2-0.9-3.2-3.2-3.2c-3.6,0-5.1,3.2-5.8,7l-3.3,15.7h-12.4l6.7-31.7h11.4L227.6,60.5z"/>
	<path class="st0" d="M276.5,65.5c1.4-6.7,7-10.7,19.3-10.7c11,0,13.7,3,13.7,7.8c0,1.6-0.3,3.5-0.7,5.4l-3.1,14.8
		c-0.2,0.7-0.3,1.3-0.3,1.8c0,0.8,0.3,1.4,1.1,2.2l-0.1,0.6h-12.8l0.1-3.4c-4.2,3.3-8,4.3-12.6,4.3c-5.2,0-9.4-2.3-9.4-7.3
		c0-8.5,7.6-11.8,14.5-12.5c9.6-0.9,10.9-2.1,10.9-4.2c0-1.6-2.3-2-3.6-2c-1.7,0-4.1,0.4-5,3.1H276.5z M290,74.9
		c-2.9,0.5-5.3,1.6-5.3,4.2c0,1,1,2.1,3.4,2.1c4.4,0,6.1-3,7.2-7.8C293.9,74,291.8,74.6,290,74.9z"/>
	<path class="st0" d="M327.8,62.2h0.1c2.7-5,6.3-7.3,11.1-7.3c0.5,0,1.1,0.1,1.6,0.2L338,67.7c-0.8-0.1-1.7-0.4-2.5-0.4
		c-5.1,0-8.2,2.4-9.6,9.3l-2.3,11h-12.4l6.7-31.7h11.3L327.8,62.2z"/>
	<path class="st0" d="M362.1,45.9l-2.1,9.9h6l-1.5,7.3h-6l-2.4,11.8c-0.2,0.7-0.2,1.3-0.2,1.6c0,1.4,0.8,2,3.3,2h2l-1.9,9
		c-12.8,0-16.7-0.1-16.7-5.5c0-1.5,0.3-3.4,0.8-5.8l2.8-13.3h-4.4l1.5-7.3h4.4l2.1-9.9H362.1z"/>
</g>
</svg>
