<svg viewBox="0 0 100 66" xmlns="http://www.w3.org/2000/svg"><g fill="none" fill-rule="evenodd"><path d="m886.46 216.66c-19.73 1.836-40.31-1.02-43.19-16.422-1.434-7.617 2.049-15.678 6.645-20.68v-2.676c-8.286 7.259-12.786 16.453-10.187 27.27 3.313 13.94 20.971 21.794 47.924 19.18 10.688-1.02 24.654-4.454 34.32-9.792v-7.548c-8.775 5.236-23.357 9.588-35.513 10.676m52.08-39.968c-4.747-22.838-49.14-24.283-77.74-6.885v1.924c28.564-14.684 69.13-14.592 72.819 6.446 1.263 6.97-2.663 14.206-9.698 18.388v5.474c8.469-3.094 17.07-13.1 14.615-25.347m-18.1-3.298h-5.191v23.07c0 2.686 1.298 5.03 5.191 5.406v-28.475m-61.691 8.425h-5.177v15.09c0 2.686 1.298 5.03 5.177 5.406v-20.492m-5.177-2.823h5.177v-4.903h-5.177v4.903m36.2 23.08c-4.201 0-5.976-2.924-5.976-5.78v-20.01h5.122v5.539h3.893v4.148h-3.893v10.02c0 1.19.58 1.802 1.775 1.802h2.117v4.284h-3.039m9.425-8.534c0 2.618 1.673 4.556 4.576 4.556 2.253 0 3.414-.646 4.712-1.938l3.176 3.06c-2.049 1.972-4.166 3.196-7.923 3.196-4.917 0-9.629-2.652-9.629-10.499 0-6.668 4.098-10.442 9.527-10.442 5.43 0 8.571 4.42 8.571 10.207v1.86h-13.01m4.201-7.823c-1.776 0-3.108.904-3.688 2.128-.342.738-.445 1.299-.513 2.207h7.957c-.137-2.217-1.161-4.335-3.756-4.335m-30.703.251c1.506 0 2.121.738 2.121 1.945v14.195h5.157v-14.216c0-2.886-1.537-6.072-6.04-6.072h-10.606v20.288h5.122v-16.14h4.251m51.976-10.992h.376c.182 0 .307-.026.376-.078.068-.055.102-.124.102-.208 0-.056-.011-.106-.034-.15-.023-.043-.08-.075-.171-.095-.045-.023-.148-.034-.307-.034h-.342v.564m-.307 1.054v-1.87h.649c.25 0 .421.016.512.048.114.036.194.097.239.183.068.084.102.176.102.275 0 .134-.057.253-.171.357-.091.1-.227.155-.41.167.091.03.159.063.205.102.068.075.159.199.273.37l.239.368h-.375l-.171-.296c-.159-.231-.285-.377-.375-.435-.046-.043-.126-.065-.239-.065h-.171v.796h-.307m.785-2.414c-.25 0-.501.064-.751.191-.228.122-.41.301-.546.537-.137.232-.205.473-.205.724 0 .25.068.49.205.721.137.229.318.409.546.541.227.124.478.187.751.187.274 0 .523-.063.751-.187.227-.132.41-.312.546-.541.137-.232.205-.472.205-.721 0-.251-.069-.493-.205-.724-.137-.236-.319-.415-.546-.537-.25-.127-.501-.191-.751-.191m0-.289c.319 0 .615.075.888.224.273.152.489.366.649.643.159.279.238.57.238.873 0 .299-.079.587-.238.864-.137.278-.353.494-.649.646-.273.152-.569.228-.888.228-.319 0-.614-.076-.888-.228-.273-.152-.489-.368-.648-.646-.16-.277-.239-.565-.239-.864 0-.303.079-.595.239-.873.159-.277.375-.491.648-.643.296-.15.592-.224.888-.224" transform="translate(-839-158)" fill="#fff"/></g></svg>