<svg viewBox="0 0 153 42" xmlns="http://www.w3.org/2000/svg"><g fill="none" fill-rule="evenodd"><path d="m1252.87 200.3c-.3.812-1.091 1.448-2.02 1.448h11.796c.929 0 1.721-.636 2.02-1.448l11.196-30.3h-11.796l-11.195 30.3m-3.861-20.04h-11.797c-.928 0-1.72.635-2.02 1.447l-11.195 30.3h11.796l11.197-30.3c.298-.812 1.09-1.447 2.02-1.447m2.452 19.994l3.876-10.521-2.901-7.849c-.297-.813-1.089-1.404-2.02-1.404-.927 0-1.72.572-2.02 1.384l-3.878 10.468 2.901 7.923c.297.812 1.089 1.493 2.02 1.493.929 0 1.721-.683 2.02-1.495m88.73-13.818c-.994-.141-1.974-.159-2.573-.159l-.414.001c-4.791 0-7.771 3.076-7.771 8.02 0 4.762 3.282 7.719 8.475 7.719 2.484 0 5.76-.537 5.76-.537v-21.23h-3.477v6.176m0 12.874c-.994.081-1.624.118-2.217.118-3.093 0-5.02-1.995-5.02-5.207 0-3.58 1.607-5.32 4.888-5.32.669 0 1.36.068 2.354.211v10.198m-47.19-2.079l-9.414-15.506h-4.495v20.02h3.221l.002-15.697 9.149 15.697h4.517v-20.02h-2.981v15.506m28.947-4.829c-1.798-.384-3.351-.715-3.351-1.874 0-1.4 1.9-1.693 3.494-1.693 1.439 0 3.03.237 4.301.468l.387.051v-2.69l-.642-.082c-1.128-.164-2.577-.37-4.507-.37-4.02 0-6.356 1.644-6.356 4.51 0 2.939 2.369 3.794 4.598 4.363.23.057.49.108.773.164l.092.019c1.522.287 3.414.642 3.414 2.071 0 1.701-2.74 1.885-3.919 1.885-1.454 0-2.901-.304-4.586-.656l-.294-.065v2.776l.193.039c1.912.362 3.516.531 5.05.531 4.437 0 6.977-1.775 6.977-4.869 0-3.369-3.121-4.04-5.632-4.577m30.922-6.19c-1.753 0-3.606.174-5.39.532l-.333.041v2.652l.379-.052c1.539-.27 3.326-.576 4.897-.576 3.962 0 4.02.641 4.02 3.326-.434-.019-1.834-.082-2.134-.082-3 0-8.02 0-8.02 4.787 0 4.401 3.25 5.01 6.757 5.01 1.805 0 4.02-.04 6.676-.334l.333-.023v-10.213c0-4.683-3.351-5.064-7.192-5.064m3.715 13.189c-.497.032-1.839.132-2.641.132-2.145 0-4.412-.202-4.412-2.611 0-2.083 1.761-2.502 4.654-2.502.194 0 1.902.058 2.399.082v4.898m-51.32-13.189c-1.753 0-3.399.174-5.184.532l-.128.041v2.652l.216-.052c1.54-.27 3.245-.576 4.816-.576 3.962 0 3.978.641 3.982 3.326-.433-.019-1.854-.082-2.154-.082-2.999 0-8.03 0-8.03 4.787 0 4.401 3.244 5.01 6.752 5.01 1.805 0 3.928-.04 6.588-.334l.245-.023v-10.213c0-4.683-3.265-5.064-7.107-5.064m4.127 13.189c-.497.032-2 .132-2.805.132-2.144 0-4.492-.202-4.492-2.611 0-2.083 1.883-2.502 4.775-2.502.196 0 1.529.058 2.522.082v4.898m65.57-12.996c-1.185-.067-2.444-.137-3.353-.137-2.533 0-4.241.359-5.664 1.198-2.849 1.691-3.283 4.83-3.283 6.549 0 3.439 1.537 6.123 4.117 7.175 1.155.481 2.703.767 4.04.767.566 0 1.161 0 2.651-.182v6.516l3.477-1.509v-20.28l-1.989-.097m-1.488 12.738c-1.49.164-1.969.164-2.499.164-2.187 0-4.815-.918-4.815-5.292 0-3.401 1.779-5.124 5.217-5.124.548 0 1.103.025 2.096.093v10.159" transform="translate(-1224-170)" fill="#fff"/></g></svg>