<svg xmlns="http://www.w3.org/2000/svg" width="100" height="100" viewBox="0 0 100 100"><path fill="none" d="M0 0h100v100H0z"/><path fill="#ec6d2e" d="M99.8 56.6l-5.6-17.2-11-34a2 2 0 0 0-3.7-.2l-11 34.2h-37l-11-34A2 2 0 0 0 17 5L5.7 39.5l-5.5 17A3.8 3.8 0 0 0 1.6 61L50 96l48.4-35a3.8 3.8 0 0 0 1.4-4.4"/><path fill="#9c9b9b" d="M50 96l18.4-56.6H31.6z"/><path fill="#c6c6c5" d="M50 96L31.6 39.4H5.8z"/><path fill="#ececec" d="M5.8 39.4L.2 56.6A3.8 3.8 0 0 0 1.6 61L50 96z"/><path fill="#9c9b9b" d="M5.8 39.4h25.8l-11-34a2 2 0 0 0-3.7 0z"/><path fill="#c6c6c5" d="M50 96l18.4-56.6h25.8z"/><path fill="#ececec" d="M94.2 39.4l5.6 17.2a3.8 3.8 0 0 1-1.4 4.3L50 96l44.2-56.6z"/><path fill="#9c9b9b" d="M94.2 39.4H68.4l11-34a2 2 0 0 1 3.7 0z"/></svg>
