<svg viewBox="0 0 60 55" xmlns="http://www.w3.org/2000/svg"><g fill="none" fill-rule="evenodd"><path d="m59.682 31.392l-3.35-10.26-6.627-20.352c-.34-1.04-1.821-1.04-2.173 0l-6.627 20.339h-22.02l-6.627-20.339c-.34-1.04-1.821-1.04-2.173 0l-6.616 20.339-3.35 10.272c-.303.932.025 1.96.826 2.541l28.951 20.968 28.951-20.968c.801-.581 1.141-1.609.837-2.541" fill="#fc6d26"/><path fill="#e24329" d="m29.901 54.887l11.01-33.767h-22.02z"/><path fill="#fc6d26" d="m29.893 54.887l-11.01-33.767h-15.417z"/><path d="m3.462 21.13l-3.35 10.26c-.303.931.025 1.96.826 2.541l28.951 20.968-26.426-33.769" fill="#fca326"/><path d="m3.466 21.13h15.429l-6.64-20.339c-.34-1.041-1.821-1.041-2.173 0l-6.616 20.339" fill="#e24329"/><path fill="#fc6d26" d="m29.901 54.887l11.01-33.767h15.429z"/><path d="m56.33 21.13l3.35 10.26c.303.931-.024 1.96-.826 2.541l-28.951 20.956 26.426-33.757" fill="#fca326"/><path d="m56.34 21.13h-15.428l6.627-20.339c.34-1.041 1.821-1.041 2.173 0l6.628 20.339" fill="#e24329"/><path d="m10 32.88c0-.875.139-1.651.416-2.328.277-.677.651-1.248 1.12-1.712.469-.464 1.01-.819 1.624-1.064.613-.245 1.256-.368 1.928-.368.661 0 1.261.136 1.8.408.539.272.995.595 1.368.968l-1.504 1.696c-.256-.224-.507-.397-.752-.52-.245-.123-.539-.184-.88-.184-.309 0-.605.069-.888.208-.283.139-.528.336-.736.592-.208.256-.373.571-.496.944-.123.373-.184.795-.184 1.264 0 .981.205 1.733.616 2.256.411.523.952.784 1.624.784.405 0 .755-.077 1.048-.232.293-.155.552-.355.776-.6l1.504 1.664c-.448.512-.96.896-1.536 1.152-.576.256-1.184.384-1.824.384-.683 0-1.328-.109-1.936-.328-.608-.219-1.141-.549-1.6-.992-.459-.443-.821-.997-1.088-1.664-.267-.667-.4-1.443-.4-2.328m9.824-5.28h6.72v2.304h-3.968v1.632h3.392v2.304h-3.392v1.856h4.128v2.304h-6.88v-10.4m10.784-.96h1.76l-2.816 13.92h-1.76l2.816-13.92m3.456.96h6.72v2.304h-3.968v1.632h3.392v2.304h-3.392v1.856h4.128v2.304h-6.88v-10.4m8.896 0h6.72v2.304h-3.968v1.632h3.392v2.304h-3.392v1.856h4.128v2.304h-6.88v-10.4" fill="#fff"/></g></svg>