<svg viewBox="0 0 60 55" xmlns="http://www.w3.org/2000/svg"><g fill="none" fill-rule="evenodd"><path d="m59.682 31.392l-3.35-10.26-6.627-20.352c-.34-1.04-1.821-1.04-2.173 0l-6.627 20.339h-22.02l-6.627-20.339c-.34-1.04-1.821-1.04-2.173 0l-6.616 20.339-3.35 10.272c-.303.932.025 1.96.826 2.541l28.951 20.968 28.951-20.968c.801-.581 1.141-1.609.837-2.541" fill="#fc6d26"/><path fill="#e24329" d="m29.901 54.887l11.01-33.767h-22.02z"/><path fill="#fc6d26" d="m29.893 54.887l-11.01-33.767h-15.417z"/><path d="m3.462 21.13l-3.35 10.26c-.303.931.025 1.96.826 2.541l28.951 20.968-26.426-33.769" fill="#fca326"/><path d="m3.466 21.13h15.429l-6.64-20.339c-.34-1.041-1.821-1.041-2.173 0l-6.616 20.339" fill="#e24329"/><path fill="#fc6d26" d="m29.901 54.887l11.01-33.767h15.429z"/><path d="m56.33 21.13l3.35 10.26c.303.931-.024 1.96-.826 2.541l-28.951 20.956 26.426-33.757" fill="#fca326"/><path d="m56.34 21.13h-15.428l6.627-20.339c.34-1.041 1.821-1.041 2.173 0l6.628 20.339" fill="#e24329"/><path d="m18.406 33.96c0-1.203.191-2.27.572-3.201.381-.931.895-1.716 1.54-2.354.645-.638 1.39-1.126 2.233-1.463.843-.337 1.727-.506 2.651-.506.909 0 1.734.187 2.475.561.741.374 1.368.818 1.881 1.331l-2.068 2.332c-.352-.308-.697-.546-1.034-.715-.337-.169-.741-.253-1.21-.253-.425 0-.832.095-1.221.286-.389.191-.726.462-1.012.814-.286.352-.513.785-.682 1.298-.169.513-.253 1.093-.253 1.738 0 1.349.282 2.383.847 3.102.565.719 1.309 1.078 2.233 1.078.557 0 1.038-.106 1.441-.319.403-.213.759-.488 1.067-.825l2.068 2.288c-.616.704-1.32 1.232-2.112 1.584-.792.352-1.628.528-2.508.528-.939 0-1.826-.15-2.662-.451-.836-.301-1.569-.755-2.2-1.364-.631-.609-1.129-1.371-1.496-2.288-.367-.917-.55-1.984-.55-3.201m13.508-7.26h9.24v3.168h-5.456v2.244h4.664v3.168h-4.664v2.552h5.676v3.168h-9.46v-14.3" fill="#fff"/></g></svg>