<svg xmlns="http://www.w3.org/2000/svg" viewBox="0 0 1600 160" enable-background="new 0 0 1600 160"><path fill-opacity="0.5" fill="#503991" d="m623.6 56.3c-13.3 6.5-29.4 1-35.8-12.3-5.9-12-1.9-26.7 9.2-34.1.9 1.3 2.4 2.1 4.1 2.1 2.8 0 5-2.2 5-5s-2.2-5-5-5c-2.4 0-4.4 1.7-4.9 4h-42.2c-.5-2.3-2.5-4-4.9-4-2.8 0-5 2.2-5 5s2.2 5 5 5c2.4 0 4.4-1.7 4.9-4h42.2c0 0 0 .1 0 .1-.1 0-.1 0-.2.1-12 7.9-16.3 23.7-10 36.7 4.5 9.3 13.5 15 23.1 16v10.1h-6.1c-.5-2.3-2.5-4-4.9-4-2.8 0-5 2.2-5 5s2.2 5 5 5c2.4 0 4.4-1.7 4.9-4h7.1c.6 0 1-.4 1-1v-11c.3 0 .6 0 .9 0 4.2 0 8.5-.9 12.6-2.9.5-.2.7-.8.5-1.3-.4-.6-1-.8-1.5-.5m-22.6-52.3c1.7 0 3 1.3 3 3s-1.3 3-3 3-3-1.3-3-3 1.3-3 3-3m-52 6c-1.7 0-3-1.3-3-3s1.3-3 3-3 3 1.3 3 3-1.3 3-3 3m49 65c-1.7 0-3-1.3-3-3s1.3-3 3-3 3 1.3 3 3-1.3 3-3 3"/><path fill-opacity="0.5" fill="#503991" d="m594 33c0 9.9 8.1 18 18 18s18-8.1 18-18-8.1-18-18-18-18 8.1-18 18m18-16c8.8 0 16 7.2 16 16s-7.2 16-16 16-16-7.2-16-16 7.2-16 16-16"/><path fill-opacity="0.5" fill="#503991" d="m1589.6 56.3c-13.3 6.5-29.4 1-35.8-12.3-5.9-12-1.9-26.7 9.2-34.1.9 1.3 2.4 2.1 4.1 2.1 2.8 0 5-2.2 5-5s-2.2-5-5-5c-2.4 0-4.4 1.7-4.9 4h-42.2c-.5-2.3-2.5-4-4.9-4-2.8 0-5 2.2-5 5s2.2 5 5 5c2.4 0 4.4-1.7 4.9-4h42.2c0 0 0 .1 0 .1-.1 0-.1 0-.2.1-12 7.9-16.3 23.7-10 36.7 4.5 9.3 13.5 15 23.1 16v10.1h-6.1c-.5-2.3-2.5-4-4.9-4-2.8 0-5 2.2-5 5s2.2 5 5 5c2.4 0 4.4-1.7 4.9-4h7.1c.6 0 1-.4 1-1v-11c.3 0 .6 0 .9 0 4.2 0 8.5-.9 12.6-2.9.5-.2.7-.8.5-1.3-.4-.6-1-.8-1.5-.5m-22.6-52.3c1.7 0 3 1.3 3 3s-1.3 3-3 3-3-1.3-3-3 1.3-3 3-3m-52 6c-1.7 0-3-1.3-3-3s1.3-3 3-3 3 1.3 3 3-1.3 3-3 3m49 65c-1.7 0-3-1.3-3-3s1.3-3 3-3 3 1.3 3 3-1.3 3-3 3"/><path fill-opacity="0.5" fill="#503991" d="m1560 33c0 9.9 8.1 18 18 18s18-8.1 18-18-8.1-18-18-18-18 8.1-18 18m18-16c8.8 0 16 7.2 16 16s-7.2 16-16 16-16-7.2-16-16 7.2-16 16-16"/><path fill-opacity="0.5" fill="#503991" d="m499.4 121.2c-1.1-2.4-2.5-4.5-4.3-6.3-1.8-1.8-4-3.2-6.4-4.3-2.4-1.1-5.1-1.6-7.9-1.6-.2 0-.4 0-.6 0-.1 0-.1 0-.2 0-.1 0-.2 0-.4.1-.2 0-.4 0-.6 0-.5.1-1.1.1-1.7.3-.2 0-.3.1-.4.2-.1 0-.2 0-.3.1-.7-1.9-1.6-3.7-2.8-5.4-1.4-1.9-3-3.5-4.9-4.9-1.9-1.4-4-2.5-6.3-3.2-2.3-.8-4.7-1.1-7.2-1.1-3.1 0-6.1.6-8.8 1.7-2.7 1.1-5.1 2.7-7.1 4.6-2 1.9-3.7 4.3-4.8 6.9-.7 1.5-1.2 3.2-1.5 4.9-2.3.4-4.1 2.5-4.1 4.9 0 .8.2 1.6.6 2.3-2.6.6-5 2-7 4-3 3-4.5 6.6-4.5 10.7 0 .6.4 1 1 1s1-.4 1-1c0-3.7 1.3-6.7 3.9-9.3 2-2 4.4-3.2 7.1-3.7.8.6 1.8 1 3 1 2.8 0 5-2.2 5-5 0-2.4-1.6-4.3-3.8-4.9.3-1.4.7-2.8 1.3-4.1 1.1-2.4 2.6-4.5 4.4-6.3 1.8-1.8 4-3.2 6.5-4.2 2.5-1 5.2-1.6 8-1.6 2.3 0 4.5.3 6.6 1 2.1.7 4 1.7 5.7 2.9 1.7 1.3 3.2 2.8 4.5 4.5 1.1 1.5 1.9 3.1 2.5 4.8-6.2 2.4-10.4 7.9-11.6 15.5-.1.4-.1.8-.2 1.1 0 .1 0 .1 0 .2-2.3.5-4 2.5-4 4.9 0 2.8 2.2 5 5 5s5-2.2 5-5c0-2.4-1.7-4.4-4-4.9 0-.4.1-.7.1-1 1.3-8.6 6.6-14 14.6-15 .3 0 .7 0 1 0 2.5 0 4.9.5 7.1 1.4 2.2.9 4.2 2.3 5.8 3.9 1.6 1.6 3 3.5 3.9 5.7 1 2.2 1.4 4.5 1.4 7 0 2.4-.5 4.8-1.4 7-1 2.2-2.3 4.1-3.9 5.8-1.6 1.6-3.6 2.9-5.8 3.8-2.2.9-4.6 1.4-7.1 1.4 0 0-75.9 0-76 .1-.8-2.9-3.5-5.1-6.7-5.1-3.9 0-7 3.1-7 7s3.1 7 7 7 7-3.1 7-7h75.7c2.8 0 5.5-.5 7.9-1.5 2.4-1 4.6-2.5 6.4-4.3 1.8-1.8 3.3-3.9 4.3-6.4 1.1-2.4 1.6-5.1 1.6-7.8 0-2.7-.5-5.4-1.6-7.8m-62.4-3.2c0 1.7-1.3 3-3 3s-3-1.3-3-3 1.3-3 3-3 3 1.3 3 3m30 14c0 1.7-1.3 3-3 3s-3-1.3-3-3 1.3-3 3-3 3 1.3 3 3m-69 22c-2.8 0-5-2.2-5-5s2.2-5 5-5 5 2.2 5 5-2.2 5-5 5"/><path fill-opacity="0.5" fill="#503991" d="m433 71c-2.4 0-4.4 1.7-4.9 4h-65.2c-.5-2.3-2.5-4-4.9-4-2.8 0-5 2.2-5 5 0 .9.2 1.7.6 2.4l-10.6 12.1c-.1.1-.2.3-.2.5h-2.6-.4-37.8c-.5-3.4-3.4-6-6.9-6-3.9 0-7 3.1-7 7s3.1 7 7 7c3.5 0 6.4-2.6 6.9-6h37.8.4 39.8c0 0 .1 0 .1 0 .5 2.3 2.5 4 4.9 4 2.8 0 5-2.2 5-5s-2.2-5-5-5c-2.4 0-4.4 1.7-4.9 4 0 0-.1 0-.1 0h-34.7l9.7-11.1c.8.7 1.9 1.1 3.1 1.1 2.4 0 4.4-1.7 4.9-4h65.2c.5 2.3 2.5 4 4.9 4 2.8 0 5-2.2 5-5s-2.3-5-5.1-5m-138 26c-2.8 0-5-2.2-5-5s2.2-5 5-5 5 2.2 5 5-2.2 5-5 5m90-8c1.7 0 3 1.3 3 3s-1.3 3-3 3-3-1.3-3-3 1.3-3 3-3m-27-10c-1.7 0-3-1.3-3-3s1.3-3 3-3 3 1.3 3 3-1.3 3-3 3m75 0c-1.7 0-3-1.3-3-3s1.3-3 3-3 3 1.3 3 3-1.3 3-3 3"/><path fill-opacity="0.5" fill="#503991" d="m294.8 119h-7.8c-1.1 0-2.1.3-2.9 1l-.8.6c-2.7 2.4-4.5 3.8-7.2 3.8h-14.8c-2.8 0-5.2 2.2-5.2 5v15.3c0 .6.4 1 1 1s1-.4 1-1v-15.3c0-1.7 1.4-3 3.2-3h14.7c3.4 0 5.6-1.7 8.5-4.2l.7-.5c.5-.4 1.1-.6 1.8-.6h7.9c1.7 0 3.2 1.3 3.2 3v24c0 1.7-1.4 3-3.2 3h-58.9c-.5-3.4-3.4-6-6.9-6-3.9 0-7 3.1-7 7s3.1 7 7 7c3.5 0 6.4-2.6 6.9-6h59c.1 0 .1 0 .1 0 2.7-.2 4.9-2.3 4.9-5v-24c0-2.9-2.3-5.1-5.2-5.1m-65.8 38c-2.8 0-5-2.2-5-5s2.2-5 5-5 5 2.2 5 5-2.2 5-5 5"/><path fill-opacity="0.5" fill="#503991" d="m1135 104c-3.5 0-6.4 2.6-6.9 6h-43.1c0 0 0 0 0 0-12.4.1-22 4.5-22 10 0 .3 0 .6.1.9v11.7c-.1.1-.1.3-.1.4 0 .3 0 .6.1.9v13c0 .6.4 1 1 1s1-.4 1-1v-9.6c3.5 3.4 11.3 5.7 20.4 5.7 9.2 0 17-2.4 20.5-5.8v8.8c0 3.9-8.4 8-21 8h-42.1c-.5-2.3-2.5-4-4.9-4-2.8 0-5 2.2-5 5s2.2 5 5 5c2.4 0 4.4-1.7 4.9-4h42.1c12.9 0 23-4.4 23-10v-26c0-.6-.4-1-1-1s-1 .4-1 1c0 3.9-8.2 8-20.5 8-11.6 0-19.5-3.7-20.4-7.3v-1c0 0 0-.1 0-.1.6-3.7 8.7-7.5 20.4-7.5h42.6c.5 3.4 3.4 6 6.9 6 3.9 0 7-3.1 7-7s-3.1-7.1-7-7.1m-97 54c-1.7 0-3-1.3-3-3s1.3-3 3-3 3 1.3 3 3-1.3 3-3 3m47.5-28c9.2 0 17-2.4 20.5-5.8v8.8c0 3.9-8.2 8-20.5 8-11.6 0-19.5-3.7-20.4-7.3v-9.4c3.5 3.4 11.2 5.7 20.4 5.7m49.5-14c-2.8 0-5-2.2-5-5s2.2-5 5-5 5 2.2 5 5-2.2 5-5 5"/><path fill-opacity="0.5" fill="#503991" d="m1128 44.1c0 0 0-.1 0 0v-16.1c0-.6-.4-1-1-1h-20v-15h13.2c3.2 0 5.8-2.6 5.8-5.8v-.4c0-3.2-2.6-5.8-5.8-5.8h-28.4c-3.2 0-5.8 2.6-5.8 5.8v.4c0 3.2 2.6 5.8 5.8 5.8h13.2v15h-20c-.6 0-1 .4-1 1v16c0 0 0 .1 0 .1-2.3.5-4 2.5-4 4.9 0 2.8 2.2 5 5 5s5-2.2 5-5c0-2.4-1.7-4.4-4-4.9 0 0 0-.1 0-.1v-15h19v15.1c-2.3.5-4 2.5-4 4.9 0 2.8 2.2 5 5 5s5-2.2 5-5c0-2.4-1.7-4.4-4-4.9v-15.1h19v15c0 0 0 .1 0 .1-2.3.5-4 2.5-4 4.9 0 2.8 2.2 5 5 5s5-2.2 5-5c0-2.4-1.7-4.4-4-4.9m-36.2-34.1c-2.1 0-3.8-1.7-3.8-3.8v-.4c0-2.1 1.7-3.8 3.8-3.8h28.4c2.1 0 3.8 1.7 3.8 3.8v.4c0 2.1-1.7 3.8-3.8 3.8h-28.4m-3.8 39c0 1.7-1.3 3-3 3s-3-1.3-3-3 1.3-3 3-3 3 1.3 3 3m21 0c0 1.7-1.3 3-3 3s-3-1.3-3-3 1.3-3 3-3 3 1.3 3 3m18 3c-1.7 0-3-1.3-3-3s1.3-3 3-3 3 1.3 3 3-1.3 3-3 3"/><path fill-opacity="0.5" fill="#503991" d="m479 76c-3.5 0-6.4 2.6-6.9 6h-12.3l-.5-.1-14.4-16.3c1.8-.7 3.1-2.5 3.1-4.6 0-2.4-1.7-4.4-4-4.9 0 0 0-.1 0-.1v-33.5c0-3.6-2.9-6.5-6.4-6.5h-7.6c0 0-.1 0-.1 0-.4-2-1.9-3.5-3.9-3.9v-3.3c0-2.7-2-4.8-4.5-4.8h-20.9c-2.6 0-4.6 2.2-4.6 4.8v7.2h-11.5c-3.6 0-6.5 2.9-6.5 6.5v34.9c0 3.6 2.9 6.5 6.5 6.5h40.5c.6 0 1-.4 1-1s-.4-1-1-1h-40.5c-2.5 0-4.5-2-4.5-4.5v-20.8c.1 0 .2.1.3.1h26c0 0 .1 0 .1 0 .5 2.3 2.5 4 4.9 4 2.4 0 4.4-1.7 4.9-4h25.8v19.3c0 0 0 .1 0 .1-2.3.5-4 2.5-4 4.9 0 2.6 2 4.7 4.5 4.9l15.5 17.6c.1.2.4.3.6.3l.9.2c.1 0 .1 0 .2 0h12.4c.5 3.4 3.4 6 6.9 6 3.9 0 7-3.1 7-7s-3.1-7-7-7m-51-59c0 1.7-1.3 3-3 3s-3-1.3-3-3 1.3-3 3-3 3 1.3 3 3m-30-8.2c0-1.6 1.1-2.8 2.5-2.8h20.9c1.4 0 2.5 1.3 2.5 2.8v3.3c-2 .4-3.5 1.9-3.9 3.9h-22v-7.2m13.3 29.9c-1.7 0-3-1.3-3-3s1.3-3 3-3c1.7 0 3 1.3 3 3s0 0 0 0c0 1.6-1.3 3-3 3m4.9-4c-.5-2.3-2.5-4-4.9-4-2.4 0-4.4 1.7-4.9 4 0 0-.1 0-.1 0h-26c-.1 0-.2 0-.3.1v-12.3c0-2.5 2-4.5 4.5-4.5h35.6c.5 2.3 2.5 4 4.9 4 2.4 0 4.4-1.7 4.9-4 0 0 .1 0 .1 0h7.6c2.4 0 4.4 2 4.4 4.5v12.2h-25.8m23.8 26.3c0-1.7 1.3-3 3-3s3 1.3 3 3-1.3 3-3 3-3-1.3-3-3m39 27c-2.8 0-5-2.2-5-5s2.2-5 5-5 5 2.2 5 5-2.2 5-5 5"/><path fill-opacity="0.5" fill="#503991" d="m293.7 0h-71.3c-4 0-7.3 3.3-7.3 7.3v47.5c0 4 3.3 7.3 7.3 7.3h34.6v13h-10c-.6 0-1 .4-1 1s.4 1 1 1h22c.6 0 1-.4 1-1s-.4-1-1-1h-10v-13.1h17.1c.5 3.4 3.4 6 6.9 6s6.4-2.6 6.9-6h3.7c4 0 7.3-3.3 7.3-7.3v-47.4c.1-4-3.2-7.3-7.2-7.3m-10.7 66c-2.8 0-5-2.2-5-5s2.2-5 5-5 5 2.2 5 5-2.2 5-5 5m16-11.3c0 2.9-2.4 5.3-5.3 5.3h-3.7c-.5-3.4-3.4-6-6.9-6s-6.4 2.6-6.9 6h-53.7c-2.9 0-5.3-2.4-5.3-5.3v-38.7h47c0 0 .1 0 .1 0 .5 2.3 2.5 4 4.9 4 2.8 0 5-2.2 5-5s-2.2-5-5-5c-2.4 0-4.4 1.7-4.9 4 0 0-.1 0-.1 0h-47v-6.7c0-2.9 2.4-5.3 5.3-5.3h71.3c2.9 0 5.3 2.4 5.3 5.3v47.4zm-33-39.7c0-1.7 1.3-3 3-3s3 1.3 3 3-1.3 3-3 3-3-1.3-3-3"/><path fill-opacity="0.5" fill="#503991" d="m1520.7 83h-71.3c-4 0-7.3 3.3-7.3 7.3v47.5c0 4 3.3 7.3 7.3 7.3h34.7v13h-10c-.6 0-1 .4-1 1s.4 1 1 1h22c.6 0 1-.4 1-1s-.4-1-1-1h-10v-13h17.1c.5 3.4 3.4 6 6.9 6s6.4-2.6 6.9-6h3.7c4 0 7.3-3.3 7.3-7.3v-47.5c0-4-3.3-7.3-7.3-7.3m-10.7 66c-2.8 0-5-2.2-5-5s2.2-5 5-5 5 2.2 5 5-2.2 5-5 5m16-11.3c0 2.9-2.4 5.3-5.3 5.3h-3.7c-.5-3.4-3.4-6-6.9-6s-6.4 2.6-6.9 6h-53.7c-2.9 0-5.3-2.4-5.3-5.3v-38.7h47c0 0 .1 0 .1 0 .5 2.3 2.5 4 4.9 4 2.8 0 5-2.2 5-5s-2.2-5-5-5c-2.4 0-4.4 1.7-4.9 4 0 0-.1 0-.1 0h-47v-6.7c0-2.9 2.4-5.3 5.3-5.3h71.3c2.9 0 5.3 2.4 5.3 5.3v47.4zm-33-39.7c0-1.7 1.3-3 3-3s3 1.3 3 3-1.3 3-3 3-3-1.3-3-3"/><path fill-opacity="0.5" fill="#503991" d="m679 5c-2.4 0-4.4 1.7-4.9 4h-23.1c-3.9 0-7 3.2-7 7v5c0 0 0 .1 0 .1-2.3.5-4 2.5-4 4.9 0 2.8 2.2 5 5 5s5-2.2 5-5c0-2.4-1.7-4.4-4-4.9 0 0 0-.1 0-.1v-5c0-2.8 2.2-5 5-5h12.1c-1.3 1.3-2.1 3.1-2.1 5v5c0 0 0 .1 0 .1-2.3.5-4 2.5-4 4.9 0 2.8 2.2 5 5 5s5-2.2 5-5c0-2.4-1.7-4.4-4-4.9 0 0 0-.1 0-.1v-5c0-2.8 2.2-5 5-5h6.1c.5 2.3 2.5 4 4.9 4 2.8 0 5-2.2 5-5s-2.2-5-5-5m-31 21c0 1.7-1.3 3-3 3s-3-1.3-3-3 1.3-3 3-3 3 1.3 3 3m17 0c0 1.7-1.3 3-3 3s-3-1.3-3-3 1.3-3 3-3 3 1.3 3 3m14-13c-1.7 0-3-1.3-3-3s1.3-3 3-3 3 1.3 3 3-1.3 3-3 3"/><path fill-opacity="0.5" fill="#503991" d="m114 0c-2.4 0-4.4 1.7-4.9 4h-23.1c-3.9 0-7 3.2-7 7v5c0 0 0 .1 0 .1-2.3.5-4 2.5-4 4.9 0 2.8 2.2 5 5 5s5-2.2 5-5c0-2.4-1.7-4.4-4-4.9 0 0 0-.1 0-.1v-5c0-2.8 2.2-5 5-5h12.1c-1.3 1.3-2.1 3.1-2.1 5v5c0 0 0 .1 0 .1-2.3.5-4 2.5-4 4.9 0 2.8 2.2 5 5 5s5-2.2 5-5c0-2.4-1.7-4.4-4-4.9 0 0 0-.1 0-.1v-5c0-2.8 2.2-5 5-5h6.1c.5 2.3 2.5 4 4.9 4 2.8 0 5-2.2 5-5s-2.2-5-5-5m-31 21c0 1.7-1.3 3-3 3s-3-1.3-3-3 1.3-3 3-3 3 1.3 3 3m17 0c0 1.7-1.3 3-3 3s-3-1.3-3-3 1.3-3 3-3 3 1.3 3 3m14-13c-1.7 0-3-1.3-3-3s1.3-3 3-3 3 1.3 3 3-1.3 3-3 3"/><path fill-opacity="0.5" fill="#503991" d="m581.8 80c0 0 0 0 0 0l-13.4-41.3c-.3-1.1-1.3-1.7-2.4-1.7-1.1 0-2.1.7-2.4 1.7l-7.7 17.6c-.2.5 0 1.1.5 1.3.5.2 1.1 0 1.3-.5l7.7-17.6c.1-.3.4-.4.5-.4.1 0 .4 0 .5.4l13.4 41.3c.3.8 0 1.8-.8 2.3l-38.3 27.8-38-27.6c-.7-.5-1-1.5-.7-2.3l.5-1.7c0-.1 0-.2 0-.3.4.1.9.1 1.3.1 3.9 0 7-3.1 7-7 0-2.9-1.8-5.4-4.3-6.4l8.4-26c.1-.3.4-.4.5-.4.1 0 .4 0 .5.4l9 27.8c.1.4.5.7 1 .7h34.3c.8 1.8 2.5 3 4.6 3 2.8 0 5-2.2 5-5s-2.2-5-5-5-5 2.2-5 5h-33.1l-8.8-27.1c-.3-1.1-1.3-1.7-2.4-1.7-1.1 0-2.1.7-2.4 1.7l-8.3 25.9c-.3 0-.5 0-.8 0-3.9 0-7 3.1-7 7 0 2.7 1.6 5.1 3.9 6.3-.1.1-.1.2-.1.3l-.5 1.7c-.5 1.7 0 3.5 1.5 4.5l38.6 28.1c.2.1.4.2.6.2s.4-.1.6-.2l38.9-28.3c1.2-1.1 1.8-2.9 1.3-4.6m-16.8-17c1.7 0 3 1.3 3 3s-1.3 3-3 3-3-1.3-3-3 1.3-3 3-3m-66 9c0-2.8 2.2-5 5-5s5 2.2 5 5-2.2 5-5 5-5-2.2-5-5"/><path fill-opacity="0.5" fill="#503991" d="m651 91c0-3.9-3.1-7-7-7-3.7 0-6.8 3-7 6.6l-6 5.9v-20.5c0-.6-.4-1-1-1s-1 .4-1 1v20.7l-5.8-5.8c-.4-.4-1-.4-1.4 0s-.4 1 0 1.4l7.4 7.4c.2.2.5.3.7.3.3 0 .5-.1.7-.3l6.7-6.6c.8 2.5 3 4.4 5.7 4.8v7.1h-31v-5.1c2.3-.5 4-2.5 4-4.9 0-2.8-2.2-5-5-5s-5 2.2-5 5c0 2.4 1.7 4.4 4 4.9v6.1c0 .6.4 1 1 1h33c.6 0 1-.4 1-1v-8.1c3.4-.5 6-3.4 6-6.9m-43 4c0-1.7 1.3-3 3-3s3 1.3 3 3-1.3 3-3 3-3-1.3-3-3m36 1c-2.8 0-5-2.2-5-5 0-2.8 2.2-5 5-5s5 2.2 5 5c0 2.8-2.2 5-5 5"/><path fill-opacity="0.5" fill="#503991" d="m126 50c0-3.9-3.1-7-7-7-3.7 0-6.8 3-7 6.6l-6 5.9v-20.5c0-.6-.4-1-1-1s-1 .4-1 1v20.7l-5.8-5.8c-.4-.4-1-.4-1.4 0s-.4 1 0 1.4l7.4 7.4c.2.2.5.3.7.3.3 0 .5-.1.7-.3l6.7-6.6c.8 2.5 3 4.4 5.7 4.8v7.1h-31v-5.1c2.3-.5 4-2.5 4-4.9 0-2.8-2.2-5-5-5s-5 2.2-5 5c0 2.4 1.7 4.4 4 4.9v6.1c0 .6.4 1 1 1h33c.6 0 1-.4 1-1v-8.1c3.4-.5 6-3.4 6-6.9m-43 4c0-1.7 1.3-3 3-3s3 1.3 3 3-1.3 3-3 3-3-1.3-3-3m36 1c-2.8 0-5-2.2-5-5 0-2.8 2.2-5 5-5s5 2.2 5 5c0 2.8-2.2 5-5 5"/><path fill-opacity="0.5" fill="#503991" d="m1198.8 95h-35.7c-2.3 0-4.2 1.9-4.2 4.1v23.7c0 2.3 1.9 4.1 4.2 4.1h16.8v6h-5c-.6 0-1 .4-1 1s.4 1 1 1h12c.6 0 1-.4 1-1s-.4-1-1-1h-5v-6h6.1c.5 2.3 2.5 4 4.9 4s4.4-1.7 4.9-4h.9c2.3 0 4.2-1.9 4.2-4.1v-23.7c.1-2.2-1.8-4.1-4.1-4.1m-5.8 34c-1.7 0-3-1.3-3-3s1.3-3 3-3 3 1.3 3 3-1.3 3-3 3m8-6.1c0 1.2-1 2.1-2.2 2.1h-.9c-.5-2.3-2.5-4-4.9-4s-4.4 1.7-4.9 4h-24.9c-1.2 0-2.2-1-2.2-2.1v-16.9h23.1c.5 2.3 2.5 4 4.9 4 2.8 0 5-2.2 5-5s-2.2-5-5-5c-2.4 0-4.4 1.7-4.9 4h-23.1v-4.9c0-1.2 1-2.1 2.2-2.1h35.7c1.2 0 2.2 1 2.2 2.1v23.8zm-15-17.9c0-1.7 1.3-3 3-3s3 1.3 3 3-1.3 3-3 3-3-1.3-3-3"/><path fill-opacity="0.5" fill="#503991" d="m377 128c-2.4 0-4.4 1.7-4.9 4h-21.2c-5.8 0-11.9 1.9-11.9 5.5v13.3c0 .6.4 1 1 1s1-.4 1-1v-3.6c2.3 1.6 6.2 2.4 9.9 2.4s7.6-.8 9.9-2.4v3.3c0 1.5-3.8 3.5-9.9 3.5h-21c-.5-2.3-2.5-4-4.9-4-2.8 0-5 2.2-5 5s2.2 5 5 5c2.4 0 4.4-1.7 4.9-4h21c5.8 0 11.9-1.9 11.9-5.5v-12.9c0-.6-.4-1-1-1s-1 .4-1 1c0 1.5-3.8 3.5-9.9 3.5s-9.9-2.1-9.9-3.5 3.8-3.5 9.9-3.5h21.2c.5 2.3 2.5 4 4.9 4 2.8 0 5-2.2 5-5s-2.2-5.1-5-5.1m-52 30c-1.7 0-3-1.3-3-3s1.3-3 3-3 3 1.3 3 3-1.3 3-3 3m25.9-14.9c3.7 0 7.6-.8 9.9-2.4v3.3c0 1.5-3.8 3.5-9.9 3.5s-9.9-2.1-9.9-3.5v-3.3c2.3 1.6 6.2 2.4 9.9 2.4m26.1-7.1c-1.7 0-3-1.3-3-3s1.3-3 3-3 3 1.3 3 3-1.3 3-3 3"/><path fill-opacity="0.5" fill="#503991" d="m781.2 34.4c-.5-1.3-1.3-2.4-2.2-3.3-.9-.9-2-1.7-3.3-2.3-1.3-.6-2.6-.8-4-.8-.2 0-.4 0-.5 0-.1 0-.1 0-.2 0-.1 0-.1 0-.2 0-.4-1-.8-2-1.4-2.8-.7-1-1.6-2-2.5-2.8-1-.8-2.1-1.4-3.2-1.8-2.6-1-5.8-.8-8.3.3-1.4.6-2.6 1.5-3.7 2.6-.9 1-1.7 2.2-2.3 3.4-.1 0-.2 0-.3 0-2.8 0-5 2.2-5 5 0 .8.2 1.5.5 2.1-.8.4-1.5.9-2.2 1.5-1.6 1.5-2.3 3.3-2.3 5.4 0 .6.4 1 1 1s1-.4 1-1c0-1.6.6-2.8 1.7-3.9.5-.5 1.1-.9 1.7-1.1.1 0 .2-.1.3-.2.9.8 2 1.3 3.3 1.3 2.8 0 5-2.2 5-5 0-1.9-1.1-3.6-2.7-4.4.5-1 1.1-1.8 1.8-2.6.9-.9 1.9-1.6 3.1-2.2 2.1-1 4.6-1.1 6.8-.3 1 .4 1.9.9 2.7 1.5.8.6 1.5 1.4 2.1 2.3.4.6.8 1.4 1 2.1-3.2.9-5.4 3.3-6.3 6.6-2.5.3-4.4 2.4-4.4 4.9 0 2.8 2.2 5 5 5s5-2.2 5-5c0-2.3-1.5-4.2-3.6-4.8.9-2.8 2.9-4.6 5.8-5.1 0 0 0 0 .1 0 .2 0 .4-.1.7-.1.2 0 .5 0 .7 0 1.2 0 2.2.2 3.2.7 1 .4 1.9 1.1 2.6 1.8.8.8 1.4 1.7 1.8 2.7.4 1 .7 2.1.7 3.3 0 1.2-.2 2.3-.7 3.3-.4 1-1 2-1.8 2.7-.7.8-1.6 1.4-2.6 1.8-1 .4-2.1.7-3.2.7h-35.8c-.5-2.3-2.5-4-4.9-4-2.8 0-5 2.2-5 5s2.2 5 5 5c2.4 0 4.4-1.7 4.9-4h35.8c1.4 0 2.8-.3 4-.8 1.2-.5 2.3-1.3 3.3-2.2.9-.9 1.7-2.1 2.2-3.3.5-1.3.8-2.7.8-4.1-.2-1.4-.5-2.8-1-4.1m-32.2.6c-1.7 0-3-1.3-3-3s1.3-3 3-3 3 1.3 3 3-1.3 3-3 3m17 5c0 1.7-1.3 3-3 3s-3-1.3-3-3 1.3-3 3-3 3 1.3 3 3m-35 11c-1.7 0-3-1.3-3-3s1.3-3 3-3 3 1.3 3 3-1.3 3-3 3"/><path fill-opacity="0.5" fill="#503991" d="m1491.2 55.4c-.5-1.3-1.3-2.4-2.2-3.3-.9-.9-2-1.7-3.3-2.3-1.3-.6-2.6-.8-4-.8-.2 0-.4 0-.5 0-.1 0-.1 0-.2 0-.1 0-.1 0-.2 0-.4-1-.8-2-1.4-2.8-.7-1-1.6-2-2.5-2.8-1-.8-2.1-1.4-3.2-1.8-2.6-1-5.8-.8-8.3.3-1.4.6-2.6 1.5-3.7 2.6-.9 1-1.7 2.2-2.3 3.4-.1 0-.2 0-.3 0-2.8 0-5 2.2-5 5 0 .8.2 1.5.5 2.1-.8.4-1.5.9-2.2 1.5-1.6 1.5-2.3 3.3-2.3 5.4 0 .6.4 1 1 1s1-.4 1-1c0-1.6.6-2.8 1.7-3.9.5-.5 1.1-.9 1.7-1.1.1 0 .2-.1.3-.2.9.8 2 1.3 3.3 1.3 2.8 0 5-2.2 5-5 0-1.9-1.1-3.6-2.7-4.4.5-1 1.1-1.8 1.8-2.6.9-.9 1.9-1.6 3.1-2.2 2.1-1 4.6-1.1 6.8-.3 1 .4 1.9.9 2.7 1.5.8.6 1.5 1.4 2.1 2.3.4.6.8 1.4 1 2.1-3.2.9-5.4 3.3-6.3 6.6-2.5.3-4.4 2.4-4.4 4.9 0 2.8 2.2 5 5 5s5-2.2 5-5c0-2.3-1.5-4.2-3.6-4.8.9-2.8 2.9-4.6 5.8-5.1 0 0 0 0 .1 0 .2 0 .4-.1.7-.1.2 0 .5 0 .7 0 1.2 0 2.2.2 3.2.7 1 .4 1.9 1.1 2.6 1.8.8.8 1.4 1.7 1.8 2.7.4 1 .7 2.1.7 3.3 0 1.2-.2 2.3-.7 3.3-.4 1-1 2-1.8 2.7-.7.8-1.6 1.4-2.6 1.8-1 .4-2.1.7-3.2.7h-35.8c-.5-2.3-2.5-4-4.9-4-2.8 0-5 2.2-5 5s2.2 5 5 5c2.4 0 4.4-1.7 4.9-4h35.8c1.4 0 2.8-.3 4-.8 1.2-.5 2.3-1.3 3.3-2.2.9-.9 1.7-2.1 2.2-3.3.5-1.3.8-2.7.8-4.1-.2-1.4-.5-2.8-1-4.1m-32.2.6c-1.7 0-3-1.3-3-3s1.3-3 3-3 3 1.3 3 3-1.3 3-3 3m17 5c0 1.7-1.3 3-3 3s-3-1.3-3-3 1.3-3 3-3 3 1.3 3 3m-35 11c-1.7 0-3-1.3-3-3s1.3-3 3-3 3 1.3 3 3-1.3 3-3 3"/><path fill-opacity="0.5" fill="#503991" d="m832 149c-2.4 0-4.4 1.7-4.9 4h-77.1v-22.1c2.3-.5 4-2.5 4-4.9 0-.3 0-.7-.1-1 1.3-.9 4.6-3.8 14.3-13.6l17.8 15.4c.2.2.4.2.7.2.3 0 .5-.1.7-.3l8.1-8.9c.5.2 1 .3 1.6.3 2.8 0 5-2.2 5-5s-2.2-5-5-5-5 2.2-5 5c0 1.5.7 2.8 1.7 3.7l-7.2 7.9-17.7-15.4c-.4-.3-1-.3-1.4.1-5.8 5.9-12.4 12.4-14.3 13.9-.7-1-1.8-1.8-3.1-2.1v-29.2c0-.6-.4-1-1-1s-1 .4-1 1v29.1c-2.3.5-4 2.5-4 4.9s1.7 4.4 4 4.9v23.1c0 .6.4 1 1 1h78.1c.5 2.3 2.5 4 4.9 4 2.8 0 5-2.2 5-5s-2.3-5-5.1-5m-35-39c1.7 0 3 1.3 3 3s-1.3 3-3 3-3-1.3-3-3 1.3-3 3-3m-51 16c0-1.7 1.3-3 3-3s3 1.3 3 3-1.3 3-3 3-3-1.3-3-3m86 31c-1.7 0-3-1.3-3-3s1.3-3 3-3 3 1.3 3 3-1.3 3-3 3"/><path fill-opacity="0.5" fill="#503991" d="m1035 29c-2.4 0-4.4 1.7-4.9 4h-43.9c-1.2 0-2.2-1-2.2-2.1v-18.8c0-1.2 1-2.1 2.2-2.1h6c.4 0 .8.1 1.2.4l.5.4c2.5 2.3 3.9 3.4 6.7 3.4h11.3c1.2 0 2.2 1 2.2 2.1v12c0 .6.4 1 1 1s1-.4 1-1v-12c0-2.3-1.9-4.1-4.2-4.1h-11.3c-2 0-3-.6-5.3-2.9 0 0-.1 0-.1-.1l-.6-.4c-.7-.5-1.6-.8-2.4-.8h-6c-2.3 0-4.2 1.9-4.2 4.1v18.7c0 2.2 1.7 3.9 3.8 4.1.1 0 .1 0 .2 0h44.1c.5 2.3 2.5 4 4.9 4 2.8 0 5-2.2 5-5s-2.2-4.9-5-4.9m0 8c-1.7 0-3-1.3-3-3s1.3-3 3-3 3 1.3 3 3-1.3 3-3 3"/><path fill-opacity="0.5" fill="#503991" d="m355.9 52.4c0 0 0 0 0 0l-6.7-21.2c-.2-.7-.9-1.2-1.7-1.2-.8 0-1.4.5-1.7 1.1l-3.8 9c-.2.5 0 1.1.5 1.3.5.2 1.1 0 1.3-.5l3.6-8.5 6.6 20.6c0 0 0 0 0 0 .1.2 0 .5-.2.7l-18.8 14.1-13-9.8c0 0-5.7-4.3-5.7-4.3-.2-.1-.3-.4-.2-.7l.1-.2c.3.1.6.1.9.1 2.8 0 5-2.2 5-5 0-2.1-1.3-3.9-3.1-4.6l3.5-10.8 4.2 13.4c.1.4.5.7 1 .7h19.1c.6 0 1-.4 1-1s-.4-1-1-1h-18.4l-4.2-13.4c-.2-.7-.9-1.2-1.7-1.2-.8 0-1.4.5-1.7 1.2l-3.9 11.8c-2.7 0-4.9 2.3-4.9 5 0 1.7.9 3.3 2.3 4.2l-.1.3c-.3 1.1 0 2.2.9 2.9 0 0 4 3 4.1 3.1l15.2 11.4c.2.1.4.2.6.2s.4-.1.6-.2l19.4-14.6c.8-.7 1.2-1.8.9-2.9m-38.9-7.4c1.7 0 3 1.3 3 3s-1.3 3-3 3-3-1.3-3-3 1.3-3 3-3"/><path fill-opacity="0.5" fill="#503991" d="m361.7 15.3c-.4-.4-1-.4-1.4 0l-3.3 3.3-3.3-3.3c-.4-.4-1-.4-1.4 0s-.4 1 0 1.4l3.3 3.3-3.3 3.3c-.4.4-.4 1 0 1.4.2.2.5.3.7.3s.5-.1.7-.3l3.3-3.3 3.3 3.3c.2.2.5.3.7.3s.5-.1.7-.3c.4-.4.4-1 0-1.4l-3.3-3.3 3.3-3.3c.4-.4.4-1 0-1.4"/><path fill-opacity="0.5" fill="#503991" d="m362 0c-2.4 0-4.4 1.7-4.9 4h-22.2c-.5-2.3-2.5-4-4.9-4-2.8 0-5 2.2-5 5s2.2 5 5 5c2.4 0 4.4-1.7 4.9-4h.7c0 0 .1 0 .1 0 2.6 0 4.8 2.1 4.8 4.8v3.2c0 0 0 .1 0 .1 0 .1 0 .2 0 .3 0 0 0 0 0 0 .2 3.5 3.1 6.4 6.7 6.4.6 0 1-.4 1-1s-.4-1-1-1c-2.6 0-4.6-2-4.7-4.6v-3.5c0-1.9-.8-3.6-2-4.8h16.7c.5 2.3 2.5 4 4.9 4 2.8 0 5-2.2 5-5s-2.3-4.9-5.1-4.9m-32 8c-1.7 0-3-1.3-3-3s1.3-3 3-3 3 1.3 3 3-1.3 3-3 3m32 0c-1.7 0-3-1.3-3-3s1.3-3 3-3 3 1.3 3 3-1.3 3-3 3"/><path fill-opacity="0.5" fill="#503991" d="m714 135c-2.4 0-4.4 1.7-4.9 4h-82.2c-.5-3.4-3.4-6-6.9-6-1.3 0-2.4.3-3.5.9l-23.2-27.1c-1.8-1.8-4.2-2.9-6.7-2.9-2.5 0-4.9 1-6.8 2.9l-34.6 39.4c0 0 0 .1-.1.1 0 .1-.1.1-.1.2 0 .1 0 .1 0 .2 0 0 0 .1 0 .1 0 .1 0 .1 0 .2 0 .1 0 .1 0 .2 0 .1.1.1.1.1 0 .1.1.1.1.2 0 0 .1.1.2.1 0 0 .1.1.1.1.1 0 .2.1.4.1h38c0 0 .1 0 .1 0 .5 2.3 2.5 4 4.9 4 2.8 0 5-2.2 5-5s-2.2-5-5-5c-2.4 0-4.4 1.7-4.9 4 0 0-.1 0-.1 0h-35.8l22.7-25.8 3.4 2.6c.4.3 1 .3 1.3 0l3.3-2.5 4 2.6c.4.3.9.2 1.3-.1l3-2.4 3.3 2.5c.2.1.4.2.6.2.3 0 .5-.1.7-.3l3.9-3c.4-.3.5-1 .2-1.4-.3-.4-1-.5-1.4-.2l-3.3 2.5-3.3-2.5c-.4-.3-.9-.3-1.2 0l-3.1 2.5-4-2.6c-.4-.2-.8-.2-1.2 0l-3.3 2.5-2.7-2.1 9.1-10.4c1.4-1.5 3.3-2.3 5.3-2.3s3.9.8 5.3 2.2l23.1 27c-1.2 1.3-2 3-2 4.8 0 3.9 3.1 7 7 7 3.5 0 6.4-2.6 6.9-6h.1c2.8 0 5 2.3 5 5.1v2.3c0 0 0 .1 0 .1.2 3.6 3.1 6.5 6.7 6.5h30.2c0 0 .1 0 .1 0 .5 2.3 2.5 4 4.9 4 2.8 0 5-2.2 5-5s-2.2-5-5-5c-2.4 0-4.4 1.7-4.9 4 0 0-.1 0-.1 0h-30.3c-2.6 0-4.7-2.2-4.7-5v-1.9c0-2-.8-3.8-2.1-5.1h77.2c.5 2.3 2.5 4 4.9 4 2.8 0 5-2.2 5-5s-2.2-4.6-5-4.6m-125 9c1.7 0 3 1.3 3 3s-1.3 3-3 3-3-1.3-3-3 1.3-3 3-3m85 7c1.7 0 3 1.3 3 3s-1.3 3-3 3-3-1.3-3-3 1.3-3 3-3m-54-6c-2.8 0-5-2.2-5-5s2.2-5 5-5 5 2.2 5 5-2.2 5-5 5m94-2c-1.7 0-3-1.3-3-3s1.3-3 3-3 3 1.3 3 3-1.3 3-3 3"/><path fill-opacity="0.5" fill="#503991" d="m243 98c0-2.8-2.2-5-5-5s-5 2.2-5 5c0 2.4 1.6 4.3 3.9 4.9 0 2.6-2.1 4.7-4.7 4.7h-3.4c-1.9 0-3.6.8-4.8 2v-16.7c2.3-.5 4-2.5 4-4.9 0-2.8-2.2-5-5-5s-5 2.2-5 5c0 2.4 1.7 4.4 4 4.9v22.2c-2.3.5-4 2.5-4 4.9 0 2.8 2.2 5 5 5s5-2.2 5-5c0-2.4-1.7-4.4-4-4.9v-.7c0 0 0-.1 0-.1 0-2.6 2.1-4.8 4.8-4.8h3.3c0 0 0 0 0 0 .1 0 .1 0 .2 0h.2c0 0 0 0 .1 0 3.5-.2 6.2-3.1 6.3-6.6 2.3-.4 4.1-2.4 4.1-4.9m-23-10c0-1.7 1.3-3 3-3s3 1.3 3 3-1.3 3-3 3-3-1.3-3-3m6 32c0 1.7-1.3 3-3 3s-3-1.3-3-3 1.3-3 3-3 3 1.3 3 3m12-19c-1.7 0-3-1.3-3-3s1.3-3 3-3 3 1.3 3 3-1.3 3-3 3"/><path fill-opacity="0.5" fill="#503991" d="m860.7 49c-10.8 0-17.8 2-24.8 7.2-1.1-.7-2.4-1.2-3.9-1.2-3.9 0-7 3.1-7 7s3.1 7 7 7 7-3.1 7-7c0-1.7-.6-3.2-1.6-4.4 6.5-4.7 13.1-6.6 23.3-6.6.2 0 .3.1.3.3 0 6.7-1 12.2-3.2 17.3l-3.5-2.8c.5-.8.8-1.7.8-2.7 0-2.8-2.2-5-5-5s-5 2.2-5 5 2.2 5 5 5c1 0 2-.3 2.8-.9l4.1 3.2c-2 3.8-4.8 7.5-8.5 11.2-2.1 2.1-4.6 4.3-7.6 6.9-.2.2-.3.4-.4.7l-.8 14.8c0 .1-.1.2-.1.3l-15.1 8.8c0 0 0 0-.1 0-.1 0-.2-.1-.2-.1l-2.5-2.5c-.1-.1-.1-.2-.1-.3l3.3-10.8c.1-.4 0-.7-.2-1l-11-11c-.3-.3-.6-.4-1-.2l-10.9 3.3c-.1 0-.2 0-.2-.1l-2.5-2.5c-.1-.1-.1-.3-.1-.4l8.8-15c.1-.1.2-.2.2-.2l14.9-.8c.6 0 1-.5.9-1.1 0-.6-.5-1-1.1-.9l-14.9.8c-.7.1-1.4.5-1.8 1.1l-8.8 15.1c-.5.8-.4 2 .4 2.7l2.5 2.5c.4.4 1 .6 1.6.6.2 0 .4 0 .6-.1l10.2-3.2 10.2 10.2-3.2 10.3c-.2.8 0 1.6.6 2.2l2.6 2.6c.5.4 1 .6 1.6.6.4 0 .8-.1 1.1-.3l15.1-8.8c.6-.4 1-1.1 1.1-1.8l.8-14.4c2.9-2.4 5.3-4.6 7.4-6.7 9.5-9.5 13.2-18.4 13.2-31.7 0-1.2-1-2.2-2.3-2.2m-28.7 18c-2.8 0-5-2.2-5-5s2.2-5 5-5 5 2.2 5 5-2.2 5-5 5m15-4c0-1.7 1.3-3 3-3s3 1.3 3 3-1.3 3-3 3-3-1.3-3-3"/><path fill-opacity="0.5" fill="#503991" d="m1041.8 142.1l-24.2-28c-1.4-1.4-3.2-2.2-5.2-2.2s-3.8.8-5.2 2.2l-25.9 29.1c0 0 0 .1-.1.1 0 .1-.1.1-.1.2 0 .1 0 .1 0 .2 0 0 0 .1 0 .1 0 .1 0 .1 0 .2 0 .1 0 .1 0 .2 0 .1.1.1.1.1 0 .1.1.1.1.2 0 0 .1.1.2.1 0 0 .1.1.1.1.1 0 .2.1.4.1h28c0 0 .1 0 .1 0 .5 2.3 2.5 4 4.9 4 2.8 0 5-2.2 5-5s-2.2-5-5-5c-2.4 0-4.4 1.7-4.9 4 0 0-.1 0-.1 0h-25.8l16.2-18.2c0 0 0 0 0 0l2.9 2c.3.2.9.2 1.2 0l2.4-1.6 2.9 1.7c.3.2.8.2 1.2-.1l2.1-1.6 2.3 1.6c.2.1.4.2.6.2.2 0 .4-.1.6-.2l2.9-2c.5-.3.6-.9.3-1.4-.3-.5-.9-.6-1.4-.3l-2.4 1.6-2.4-1.6c-.3-.2-.8-.2-1.1 0l-2.2 1.6-2.9-1.7c-.3-.2-.7-.2-1.1 0l-2.4 1.6-2.2-1.5 6.8-7.7c1-1 2.4-1.6 3.8-1.6s2.8.6 3.7 1.5l24.1 27.9c.4.4 1 .5 1.4.1.6.1.6-.5.3-1m-26.8-1.1c1.7 0 3 1.3 3 3s-1.3 3-3 3-3-1.3-3-3 1.3-3 3-3"/><path fill-opacity="0.5" fill="#503991" d="m405 107h-3v-3c0-.6-.4-1-1-1s-1 .4-1 1v3h-3c-.6 0-1 .4-1 1s.4 1 1 1h3v3c0 .6.4 1 1 1s1-.4 1-1v-3h3c.6 0 1-.4 1-1s-.4-1-1-1"/><path fill-opacity="0.5" fill="#503991" d="m410.4 99.1c-.4-.2-.8-.1-1.1.2l-3 2.9c-.4.4-.4 1 0 1.4.4.4 1 .4 1.4 0l1.3-1.3v11.7c0 .6.4 1 1 1s1-.4 1-1v-14c0-.4-.2-.8-.6-.9"/><path fill-opacity="0.5" fill="#503991" d="m914 36.1v-9.1c0-.6-.4-1-1-1h-12v-8h7c2.2 0 4-1.8 4-4s-1.8-4-4-4h-16c-2.2 0-4 1.8-4 4s1.8 4 4 4h7v8h-12c-.6 0-1 .4-1 1v9.1c-2.3.5-4 2.5-4 4.9 0 2.8 2.2 5 5 5s5-2.2 5-5c0-2.4-1.7-4.4-4-4.9v-8.1h11v8.1c-2.3.5-4 2.5-4 4.9 0 2.8 2.2 5 5 5s5-2.2 5-5c0-2.4-1.7-4.4-4-4.9v-8.1h11v8.1c-2.3.5-4 2.5-4 4.9 0 2.8 2.2 5 5 5s5-2.2 5-5c0-2.4-1.7-4.4-4-4.9m-24-22.1c0-1.1.9-2 2-2h16c1.1 0 2 .9 2 2s-.9 2-2 2h-16c-1.1 0-2-.9-2-2m0 27c0 1.7-1.3 3-3 3s-3-1.3-3-3 1.3-3 3-3 3 1.3 3 3m13 0c0 1.7-1.3 3-3 3s-3-1.3-3-3 1.3-3 3-3 3 1.3 3 3m10 3c-1.7 0-3-1.3-3-3s1.3-3 3-3 3 1.3 3 3-1.3 3-3 3"/><path fill-opacity="0.5" fill="#503991" d="m1427 120.1v-9.1c0-.6-.4-1-1-1h-12v-8h7c2.2 0 4-1.8 4-4s-1.8-4-4-4h-16c-2.2 0-4 1.8-4 4s1.8 4 4 4h7v8h-12c-.6 0-1 .4-1 1v9.1c-2.3.5-4 2.5-4 4.9 0 2.8 2.2 5 5 5s5-2.2 5-5c0-2.4-1.7-4.4-4-4.9v-8.1h11v8.1c-2.3.5-4 2.5-4 4.9 0 2.8 2.2 5 5 5s5-2.2 5-5c0-2.4-1.7-4.4-4-4.9v-8.1h11v8.1c-2.3.5-4 2.5-4 4.9 0 2.8 2.2 5 5 5s5-2.2 5-5c0-2.4-1.7-4.4-4-4.9m-24-22.1c0-1.1.9-2 2-2h16c1.1 0 2 .9 2 2s-.9 2-2 2h-16c-1.1 0-2-.9-2-2m0 27c0 1.7-1.3 3-3 3s-3-1.3-3-3 1.3-3 3-3 3 1.3 3 3m13 0c0 1.7-1.3 3-3 3s-3-1.3-3-3 1.3-3 3-3 3 1.3 3 3m10 3c-1.7 0-3-1.3-3-3s1.3-3 3-3 3 1.3 3 3-1.3 3-3 3"/><path fill-opacity="0.5" fill="#503991" d="m366.3 103h-27.4c-.5-2.3-2.5-4-4.9-4-2.8 0-5 2.2-5 5s2.2 5 5 5c2.4 0 4.4-1.7 4.9-4h27.4c2.1 0 3.7 1.7 3.7 3.7v6.5c0 2.1-1.7 3.7-3.7 3.7h-50.5c-2.1 0-3.7-1.7-3.7-3.7v-6.5c0-2.1 1.7-3.7 3.7-3.7h9.2c.6 0 1-.4 1-1s-.4-1-1-1h-9.2c-3.2 0-5.7 2.6-5.7 5.7v6.5c0 3.2 2.6 5.7 5.7 5.7h50.5c3.2 0 5.7-2.6 5.7-5.7v-6.5c0-3.1-2.6-5.7-5.7-5.7m-32.3 4c-1.7 0-3-1.3-3-3s1.3-3 3-3 3 1.3 3 3-1.3 3-3 3"/><path fill-opacity="0.5" fill="#503991" d="m318 112c0 .6.4 1 1 1h35.1c.5 2.3 2.5 4 4.9 4 2.8 0 5-2.2 5-5s-2.2-5-5-5c-2.4 0-4.4 1.7-4.9 4h-35.1c-.6 0-1 .4-1 1m41-3c1.7 0 3 1.3 3 3s-1.3 3-3 3-3-1.3-3-3 1.3-3 3-3"/><path fill-opacity="0.5" fill="#503991" d="m1490.9 13.7h-27.4c-.5-2.3-2.5-4-4.9-4-2.8 0-5 2.2-5 5s2.2 5 5 5c2.4 0 4.4-1.7 4.9-4h27.4c2.1 0 3.7 1.7 3.7 3.7v6.5c0 2.1-1.7 3.7-3.7 3.7h-50.5c-2.1 0-3.7-1.7-3.7-3.7v-6.5c0-2.1 1.7-3.7 3.7-3.7h9.2c.6 0 1-.4 1-1s-.4-1-1-1h-9.2c-3.2 0-5.7 2.6-5.7 5.7v6.5c0 3.2 2.6 5.7 5.7 5.7h50.5c3.2 0 5.7-2.6 5.7-5.7v-6.5c.1-3.2-2.5-5.7-5.7-5.7m-32.2 4c-1.7 0-3-1.3-3-3s1.3-3 3-3 3 1.3 3 3-1.4 3-3 3"/><path fill-opacity="0.5" fill="#503991" d="m1442.7 22.7c0 .6.4 1 1 1h35.1c.5 2.3 2.5 4 4.9 4 2.8 0 5-2.2 5-5s-2.2-5-5-5c-2.4 0-4.4 1.7-4.9 4h-35.1c-.6 0-1 .4-1 1m41-3c1.7 0 3 1.3 3 3s-1.3 3-3 3-3-1.3-3-3 1.3-3 3-3"/><path fill-opacity="0.5" fill="#503991" d="m265 87c-8.3 0-15 6.7-15 15s6.7 15 15 15 15-6.7 15-15-6.7-15-15-15m0 28c-7.2 0-13-5.8-13-13s5.8-13 13-13 13 5.8 13 13-5.8 13-13 13"/><path fill-opacity="0.5" fill="#503991" d="m263.8 105h-3.3c.1-1.2 3.9-1.8 3.9-4.7 0-2-1.7-2.8-3.2-2.8-1.5 0-2.4.8-2.9 1.4-.3.4-.2.7.2 1l.5.4c.4.3.7.2 1-.2.2-.2.6-.5 1-.5.5 0 1 .3 1 .9 0 1.3-4 1.9-4 5.4v.3c0 .5.3.7.8.7h5.1c.5 0 .7-.2.7-.7v-.5c-.1-.4-.3-.7-.8-.7"/><path fill-opacity="0.5" fill="#503991" d="m271.9 105h-3.3c.1-1.2 3.9-1.8 3.9-4.7 0-2-1.7-2.8-3.2-2.8-1.5 0-2.4.8-2.9 1.4-.3.4-.2.7.2 1l.5.4c.4.3.7.2 1-.2.2-.2.6-.5 1-.5.5 0 1 .3 1 .9 0 1.3-4 1.9-4 5.4v.3c0 .5.3.7.8.7h5.1c.5 0 .7-.2.7-.7v-.5c-.1-.4-.3-.7-.8-.7"/><path fill-opacity="0.5" fill="#503991" d="m1286.6 42.1c-4.4 2.2-9.4 2.5-14 .9-4.7-1.6-8.5-5-10.6-9.4-4-8.3-1.2-18.5 6.7-23.7 0 0 0 0 .1-.1.1 0 .1-.1.1-.1 0 0 .1-.1.1-.2 0-.1.1-.1.1-.2 0-.1 0-.1 0-.2 0 0 0-.1 0-.1 0 0 0-.1 0-.1 0-.1 0-.1 0-.2 0-.1 0-.1-.1-.2 0 0 0-.1 0-.1 0 0 0 0-.1-.1 0-.1-.1-.1-.1-.1 0 0-.1-.1-.2-.1-.1 0-.1-.1-.2-.1-.1 0-.1 0-.2 0 0 0-.1 0-.1 0h-70.1c-.5-2.3-2.5-4-4.9-4-2.8 0-5 2.2-5 5s2.2 5 5 5c2.4 0 4.4-1.7 4.9-4h67.2c-6.8 6.1-9.1 16.1-5 24.4 2.4 5 6.6 8.7 11.8 10.5 1 .4 2.1.6 3.1.8v6.3h-3.1c-.5-2.3-2.5-4-4.9-4-2.8 0-5 2.2-5 5s2.2 5 5 5c2.4 0 4.4-1.7 4.9-4h4.1c.6 0 1-.4 1-1v-7.1c.5 0 1 .1 1.5.1 3.1 0 6.1-.7 9-2.1.5-.2.7-.8.5-1.3-.4-.5-1-.7-1.5-.5m-93.6-30.1c-1.7 0-3-1.3-3-3s1.3-3 3-3 3 1.3 3 3-1.3 3-3 3m74 44c-1.7 0-3-1.3-3-3s1.3-3 3-3 3 1.3 3 3-1.3 3-3 3"/><path fill-opacity="0.5" fill="#503991" d="m1265 25c0 7.2 5.8 13 13 13s13-5.8 13-13-5.8-13-13-13-13 5.8-13 13m13-11c6.1 0 11 4.9 11 11s-4.9 11-11 11-11-4.9-11-11 4.9-11 11-11"/><path fill-opacity="0.5" fill="#503991" d="m495.8 47.5l-5.2-9c-.3-.5-.8-.8-1.4-.8l-8.8-.5c-.6 0-1 .4-1.1.9 0 .6.4 1 .9 1.1l8.7.5 5.1 8.7-1.2 1.2-6.3-1.9c-.4-.1-.7 0-1 .2l-6.5 6.5c-.3.3-.4.6-.2 1l1.9 6.3-1.2 1.2-8.7-5.1-.5-8.7c0-.3-.1-.5-.4-.7-1.8-1.5-3.2-2.8-4.5-4-2.1-2.1-3.7-4.1-4.8-6.3l2.6-2.2c.4-.4.5-1 .1-1.4-.4-.4-1-.5-1.4-.1l-2.2 1.8c-1.1-2.7-1.6-5.7-1.7-9.3 5.4 0 8.9.9 12.4 3.1-.2.6-.4 1.2-.4 1.9 0 2.8 2.2 5 5 5s5-2.2 5-5-2.2-5-5-5c-1.4 0-2.6.6-3.5 1.5-3.8-2.5-7.7-3.5-13.7-3.5-1 0-1.8.8-1.8 1.7 0 8 2.2 13.4 8 19.1 1.2 1.2 2.6 2.5 4.3 3.9l.4 8.4c.1.5.4 1 .9 1.4l8.9 5.2c.3.2.6.2.9.2.4 0 .8-.2 1.2-.5l1.5-1.5c.4-.5.6-1.1.4-1.7l-1.8-5.9 5.7-5.7 5.8 1.8c.2.1.4.1.5.1.5 0 .9-.2 1.2-.5l1.5-1.5c.6-.4.7-1.3.4-1.9m-20.8-18.5c1.7 0 3 1.3 3 3s-1.3 3-3 3-3-1.3-3-3c0-.6.2-1.1.5-1.6 0 0 0-.1 0-.1.6-.8 1.5-1.3 2.5-1.3"/><path fill-opacity="0.5" fill="#503991" d="m123.8 31.9l1.5 1.5c.3.3.8.5 1.2.5.1 0 .3 0 .5-.1l5.8-1.8 5.7 5.7-1.8 5.9c-.2.6 0 1.2.4 1.7l1.5 1.5c.4.3.8.5 1.2.5.3 0 .6-.1.9-.2l8.9-5.2c.5-.3.8-.8.9-1.4l.4-8.4c1.7-1.4 3.1-2.7 4.3-3.9 5.7-5.8 8-11.1 8-19.1 0-1-.8-1.7-1.8-1.7-5.9 0-9.9 1-13.7 3.5-.9-.9-2.2-1.5-3.5-1.5-2.8 0-5 2.2-5 5s2.2 5 5 5 5-2.2 5-5c0-.7-.1-1.3-.4-1.9 3.4-2.2 7-3.1 12.4-3.1 0 3.6-.5 6.6-1.7 9.3l-2.2-1.8c-.4-.4-1.1-.3-1.4.1-.4.4-.3 1.1.1 1.4l2.6 2.2c-1.2 2.2-2.7 4.2-4.8 6.3-1.2 1.2-2.7 2.6-4.5 4-.2.2-.3.4-.4.7l-.5 8.7-8.7 5.1-1.2-1.2 1.9-6.3c.1-.4 0-.7-.2-1l-6.5-6.5c-.3-.3-.6-.4-1-.2l-6.3 1.9-1.2-1.2 5.1-8.7 8.7-.5c.6 0 1-.5.9-1.1 0-.6-.5-1-1.1-.9l-8.8.5c-.6.1-1.1.4-1.4.8l-5.2 9c-.2.5-.1 1.3.4 1.9m23-19.3c0 .1 0 .1 0 0l.1.1c.3.5.5 1 .5 1.6 0 1.7-1.3 3-3 3s-3-1.3-3-3 1.3-3 3-3c1 0 1.9.5 2.4 1.3"/><path fill-opacity="0.5" fill="#503991" d="m1382 118h-4.1c-.5-3.4-3.4-6-6.9-6-3.9 0-7 3.1-7 7s3.1 7 7 7c3.5 0 6.4-2.6 6.9-6h4.1c.6 0 1 .4 1 1v36c0 .6-.4 1-1 1h-36c-.6 0-1-.4-1-1v-36c0-.6.4-1 1-1h9.2c.6 0 1-.4 1-1s-.4-1-1-1h-9.2c-1.7 0-3 1.3-3 3v36c0 1.7 1.3 3 3 3h36c1.7 0 3-1.3 3-3v-36c0-1.7-1.3-3-3-3m-11 6c-2.8 0-5-2.2-5-5s2.2-5 5-5 5 2.2 5 5-2.2 5-5 5"/><path fill-opacity="0.5" fill="#503991" d="m1353.3 130.3c-.4.4-.4 1 0 1.4l7.7 7.8-7.7 7.8c-.4.4-.4 1 0 1.4.2.2.4.3.7.3.3 0 .5-.1.7-.3l8.4-8.5c.4-.4.4-1 0-1.4l-8.4-8.5c-.4-.4-1-.4-1.4 0"/><path fill-opacity="0.5" fill="#503991" d="m1375 148.9c.5 0 .9-.4.9-.9s-.4-.9-.9-.9h-7.9c-.5 0-.9.4-.9.9s.4.9.9.9h7.9"/><path fill-opacity="0.5" fill="#503991" d="m149 80h-4.1c-.5-3.4-3.4-6-6.9-6-3.9 0-7 3.1-7 7s3.1 7 7 7c3.5 0 6.4-2.6 6.9-6h4.1c.6 0 1 .4 1 1v36c0 .6-.4 1-1 1h-36c-.6 0-1-.4-1-1v-36c0-.6.4-1 1-1h9.2c.6 0 1-.4 1-1s-.4-1-1-1h-9.2c-1.7 0-3 1.3-3 3v36c0 1.7 1.3 3 3 3h36c1.7 0 3-1.3 3-3v-36c0-1.7-1.3-3-3-3m-11 6c-2.8 0-5-2.2-5-5s2.2-5 5-5 5 2.2 5 5-2.2 5-5 5"/><path fill-opacity="0.5" fill="#503991" d="m120.3 92.3c-.4.4-.4 1 0 1.4l7.7 7.8-7.7 7.8c-.4.4-.4 1 0 1.4.2.2.4.3.7.3.3 0 .5-.1.7-.3l8.4-8.5c.4-.4.4-1 0-1.4l-8.4-8.5c-.4-.4-1-.4-1.4 0"/><path fill-opacity="0.5" fill="#503991" d="m142 110.9c.5 0 .9-.4.9-.9s-.4-.9-.9-.9h-7.9c-.5 0-.9.4-.9.9s.4.9.9.9h7.9"/><path fill-opacity="0.5" fill="#503991" d="m529 9c-2.4 0-4.4 1.7-4.9 4 0 0-.1 0-.1 0h-33.1c-.5-2.3-2.5-4-4.9-4-2 0-3.7 1.2-4.5 2.8l-4.7-5.8h17.2c0 0 .1 0 .1 0 .5 2.3 2.5 4 4.9 4 2.8 0 5-2.2 5-5s-2.2-5-5-5c-2.4 0-4.4 1.7-4.9 4 0 0-.1 0-.1 0h-38c0 0-.1 0-.1 0-.5-2.3-2.5-4-4.9-4-2.8 0-5 2.2-5 5s2.2 5 5 5c2.4 0 4.4-1.7 4.9-4 0 0 .1 0 .1 0h18.2c0 0 0 0 0 0l6.8 8.4c.2 2.6 2.3 4.6 5 4.6 2.4 0 4.4-1.7 4.9-4h33.1c0 0 .1 0 .1 0 .5 2.3 2.5 4 4.9 4 2.8 0 5-2.2 5-5s-2.2-5-5-5m-30-7c1.7 0 3 1.3 3 3s-1.3 3-3 3-3-1.3-3-3 1.3-3 3-3m-48 6c-1.7 0-3-1.3-3-3s1.3-3 3-3 3 1.3 3 3-1.3 3-3 3m35 9c-1.7 0-3-1.3-3-3s1.3-3 3-3 3 1.3 3 3-1.3 3-3 3m43 0c-1.7 0-3-1.3-3-3s1.3-3 3-3 3 1.3 3 3-1.3 3-3 3"/><path fill-opacity="0.5" fill="#503991" d="m10 155c0-2.4-1.7-4.4-4-4.9 0 0 0-.1 0-.1v-33.1c2.3-.5 4-2.5 4-4.9 0-2-1.2-3.7-2.8-4.5l5.8-4.7v17.2c0 0 0 .1 0 .1-2.3.5-4 2.5-4 4.9 0 2.8 2.2 5 5 5s5-2.2 5-5c0-2.4-1.7-4.4-4-4.9 0 0 0-.1 0-.1v-38c0 0 0-.1 0-.1 2.3-.5 4-2.5 4-4.9 0-2.8-2.2-5-5-5s-5 2.2-5 5c0 2.4 1.7 4.4 4 4.9 0 0 0 .1 0 .1v18.2c0 0 0 0 0 0l-8.4 6.8c-2.6.2-4.6 2.4-4.6 5 0 2.4 1.7 4.4 4 4.9v33.1c0 0 0 .1 0 .1-2.3.5-4 2.5-4 4.9 0 2.8 2.2 5 5 5s5-2.2 5-5m7-30c0 1.7-1.3 3-3 3s-3-1.3-3-3 1.3-3 3-3 3 1.3 3 3m-6-48c0-1.7 1.3-3 3-3s3 1.3 3 3-1.3 3-3 3-3-1.3-3-3m-9 35c0-1.7 1.3-3 3-3s3 1.3 3 3-1.3 3-3 3-3-1.3-3-3m0 43c0-1.7 1.3-3 3-3s3 1.3 3 3-1.3 3-3 3-3-1.3-3-3"/><path fill-opacity="0.5" fill="#503991" d="m859 94h88c.6 0 1-.4 1-1v-16.1c2.3-.5 4-2.5 4-4.9s-1.7-4.4-4-4.9v-62l3.8-2 4.2 2.1v21.9c-2.3.5-4 2.5-4 4.9s1.7 4.4 4 4.9v56.1c0 .6.4 1 1 1h86c.6 0 1-.4 1-1s-.4-1-1-1h-1c-19.3 0-36.5-8-51.3-23.7.8-.9 1.3-2 1.3-3.3 0-2.8-2.2-5-5-5-.7 0-1.4.1-2 .4-18.8-23.8-26.5-53.5-27-55.5v-.4c0-.4-.2-.7-.6-.9l-5.2-2.5c-.3-.1-.6-.1-.9 0l-4.8 2.5c-.3.2-.5.5-.5.9v.3c-.5 2.1-8.2 31.7-27 55.5-.6-.3-1.3-.4-2-.4-2.8 0-5 2.2-5 5 0 1 .3 2 .8 2.8-14.8 16.1-32.2 24.3-51.8 24.3h-2c-.6 0-1 .4-1 1s.4 1 1 1m159-4.4c2.5.9 5 1.7 7.5 2.4h-7.5v-2.4m-10-4.7c2.6 1.5 5.3 2.9 8 4 0 0 0 .1 0 .1v3h-8v-7.1m-10-7c2.6 2.1 5.3 4.1 8.1 5.8 0 .1-.1.2-.1.3v8h-8v-14.1m-2-1.7v15.8h-8v-22.1c.4-.1.7-.2 1.1-.4 2.2 2.5 4.5 4.7 6.9 6.7m-9-14.2c1.7 0 3 1.3 3 3 0 1.6-1.3 3-3 3s0 0 0 0c-1.6 0-3-1.4-3-3 0-1.6 1.3-3 3-3m-9-7.8c1.7 2.5 3.5 5 5.4 7.4-.9.9-1.4 2.1-1.4 3.4 0 2.4 1.7 4.4 4 4.9v22.1h-8v-37.8m-10-17.4c2.3 4.7 5 9.5 8 14.3v40.9h-8v-55.2m-10-24.8c1.6 5 4.2 12.4 8.1 20.7 0 .1-.1.2-.1.3v59h-8v-55.1c2.3-.5 4-2.5 4-4.9s-1.7-4.4-4-4.9v-15.1m2 20c0 1.7-1.3 3-3 3s-3-1.3-3-3 1.3-3 3-3 3 1.3 3 3m-13 37c1.7 0 3 1.3 3 3s-1.3 3-3 3-3-1.3-3-3 1.3-3 3-3m-1-57v55.1c-2.3.5-4 2.5-4 4.9s1.7 4.4 4 4.9v15.1h-8v-59c0-.1 0-.2-.1-.3 3.9-8.3 6.5-15.7 8.1-20.7m-18 39.1c3-4.8 5.7-9.7 8-14.3v55.2h-8v-40.9m-7.4 10.5c1.9-2.4 3.7-4.9 5.4-7.4v37.8h-8v-22c0 0 0-.1 0-.1 2.3-.5 4-2.5 4-4.9 0-1.3-.5-2.5-1.4-3.4m-3.6.4c1.7 0 3 1.3 3 3s-1.3 3-3 3-3-1.3-3-3 1.3-3 3-3m-9 13.3c2.1-1.9 4.2-4 6.3-6.2.5.3 1.1.6 1.8.7 0 0 0 .1 0 .1v22h-8v-16.6zm-10 7.7c2.7-1.8 5.4-3.7 8-5.9v14.9h-8v-9m-10 5.4c2.7-1.2 5.4-2.6 8-4.1v7.7h-8v-3.6m-2 .9v2.7h-8.5c2.9-.7 5.7-1.6 8.5-2.7"/><path fill-opacity="0.5" fill="#503991" d="m957 116c-3.5 0-6.4 2.6-6.9 6 0 0-.1 0-.1 0h-2v-19c0-.6-.4-1-1-1h-83.1c-.5-2.3-2.5-4-4.9-4-2.8 0-5 2.2-5 5s2.2 5 5 5c2.4 0 4.4-1.7 4.9-4h82.1v19c0 .6.4 1 1 1h3c0 0 .1 0 .1 0 .5 3.4 3.4 6 6.9 6 3.9 0 7-3.1 7-7s-3.1-7-7-7m-98-10c-1.7 0-3-1.3-3-3s1.3-3 3-3 3 1.3 3 3-1.3 3-3 3m98 22c-2.8 0-5-2.2-5-5s2.2-5 5-5 5 2.2 5 5-2.2 5-5 5"/><path fill-opacity="0.5" fill="#503991" d="m1044 98c-2.4 0-4.4 1.7-4.9 4 0 0-.1 0-.1 0h-82c-.6 0-1 .4-1 1v6c0 .6.4 1 1 1s1-.4 1-1v-5h81c0 0 .1 0 .1 0 .5 2.3 2.5 4 4.9 4 2.8 0 5-2.2 5-5s-2.2-5-5-5m0 8c-1.7 0-3-1.3-3-3s1.3-3 3-3 3 1.3 3 3-1.3 3-3 3"/><path fill-opacity="0.5" fill="#503991" d="m876.3 68.9c-.8 0-1.4-.4-1.7-.6-.4-.2-.7-.2-1 .2l-.4.6c-.3.5-.1.8.1 1 .5.4 1.7.9 3 .9 2.1 0 3.3-1.3 3.3-2.9 0-2.9-4.1-2.6-4.1-4 0-.4.3-.7 1-.7.6 0 1 .2 1.5.4.4.2.7.3 1-.2l.3-.6c.2-.4.2-.7-.2-1-.4-.3-1.4-.7-2.5-.7-1.9 0-3.3 1.1-3.3 2.8 0 2.9 4.1 2.7 4.1 4-.2.5-.5.8-1.1.8"/><path fill-opacity="0.5" fill="#503991" d="m882.1 70.8h.8c.5 0 .7-.2.7-.7v-2.7h2.1c.5 0 .7-.2.7-.7v-.5c0-.5-.2-.7-.7-.7h-2.1v-2h2.7c.5 0 .7-.2.7-.7v-.5c0-.5-.2-.7-.7-.7h-4.3c-.5 0-.7.2-.7.7v7.9c.1.4.3.6.8.6"/><path fill-opacity="0.5" fill="#503991" d="m893 71c2.9 0 4.9-2.1 4.9-4.9 0-2.7-2-4.7-4.9-4.7-2.9 0-4.9 2.1-4.9 4.7 0 2.8 2 4.9 4.9 4.9m0-7.5c1.5 0 2.5 1.1 2.5 2.7 0 1.6-1 2.8-2.5 2.8s-2.5-1.2-2.5-2.8c0-1.6 1-2.7 2.5-2.7"/><path fill-opacity="0.5" fill="#503991" d="m760 60h-52c0 0-.1 0-.1 0-.4-3.1-2.9-5.5-5.9-5.9 0 0 0 0 0-.1v-7h6c0 0 .1 0 .1 0 .5 2.3 2.5 4 4.9 4 2.8 0 5-2.2 5-5 0-2.3-1.6-4.3-3.7-4.8l3.7-39.1c0-.3-.1-.6-.3-.8-.1-.2-.4-.3-.7-.3h-16c-.6 0-1 .4-1 1v35.9l-8.5-3.8c-.3-.1-.6-.1-.9 0l-9.1 5c-.5.3-.7.9-.4 1.4.2.3.5.5.9.5.2 0 .3 0 .5-.1l8.6-4.8 8.5 3.8c.1.1.3.1.4.1v14c0 0 0 .1 0 .1-3.1.4-5.5 2.9-5.9 5.9 0 0-.1 0-.1 0h-7v-6c0 0 0-.1 0-.1 2.3-.5 4-2.5 4-4.9 0-2.8-2.2-5-5-5-2.3 0-4.3 1.6-4.8 3.7l-39.1-3.7c-.3 0-.6.1-.8.3-.2.2-.3.5-.3.7v16c0 .6.4 1 1 1h52c0 0 .1 0 .1 0 .4 3.1 2.9 5.5 5.9 5.9 0 0 0 0 0 .1v7h-6c0 0-.1 0-.1 0-.5-2.3-2.5-4-4.9-4-2.8 0-5 2.2-5 5 0 2.3 1.6 4.3 3.7 4.8l-3.7 39.1c0 .3.1.6.3.8.2.2.5.3.7.3h16c.6 0 1-.4 1-1v-52c0 0 0-.1 0-.1 3.1-.4 5.5-2.9 5.9-5.9 0 0 .1 0 .1 0h7v6c0 0 0 .1 0 .1-2.3.5-4 2.5-4 4.9 0 2.6 2 4.7 4.5 4.9 0 .1 0 .2 0 .3l11.3 40.5-28.7 10.3-33.8-9.5c.4-.7.7-1.6.7-2.5 0-2-1.2-3.7-2.8-4.5l11.8-43.2c.1-.5-.2-1.1-.7-1.2-.5-.1-1.1.2-1.2.7l-11.9 43.2c-.1 0-.2 0-.2 0-2.8 0-5 2.2-5 5s2.2 5 5 5c1 0 2-.3 2.8-.9l35 9.8c.1 0 .2 0 .3 0 .1 0 .2 0 .3-.1l29.9-10.6c.5-.2.8-.7.6-1.2l-11.5-41.3c1.7-.5 3-1.8 3.4-3.5l39.1 3.7c0 0 .1 0 .1 0 .2 0 .5-.1.7-.3.2-.2.3-.5.3-.7v-15.9c0-.6-.4-1-1-1m-44-14c0 1.7-1.3 3-3 3s-3-1.3-3-3 1.3-3 3-3 3 1.3 3 3m-14-11h5c.6 0 1-.4 1-1s-.4-1-1-1h-5v-8h5c.6 0 1-.4 1-1s-.4-1-1-1h-5v-8h5c.6 0 1-.4 1-1s-.4-1-1-1h-5v-10h13.9l-3.6 38.1c-2.1.3-3.7 1.9-4.2 3.9 0 0-.1 0-.1 0h-6v-10m-17 19v6h-10v-5c0-.6-.4-1-1-1s-1 .4-1 1v5h-8v-5c0-.6-.4-1-1-1s-1 .4-1 1v5h-8v-5c0-.6-.4-1-1-1s-1 .4-1 1v5h-10v-13.9l38.1 3.6c.3 2.1 1.9 3.8 3.9 4.3m-2-5c0-1.7 1.3-3 3-3s3 1.3 3 3-1.3 3-3 3-3-1.3-3-3m3 27c0-1.7 1.3-3 3-3s3 1.3 3 3-1.3 3-3 3-3-1.3-3-3m14 11h-5c-.6 0-1 .4-1 1s.4 1 1 1h5v8h-5c-.6 0-1 .4-1 1s.4 1 1 1h5v8h-5c-.6 0-1 .4-1 1s.4 1 1 1h5v10h-13.9l3.6-38.1c2.1-.3 3.7-1.9 4.2-3.9 0 0 .1 0 .1 0h6v10m1-21c-2.8 0-5-2.2-5-5s2.2-5 5-5 5 2.2 5 5-2.2 5-5 5m-41 54c-1.7 0-3-1.3-3-3s1.3-3 3-3 3 1.3 3 3-1.3 3-3 3m56-44c-1.7 0-3-1.3-3-3s1.3-3 3-3 3 1.3 3 3-1.3 3-3 3m43-.1l-38.1-3.6c-.3-2.1-1.9-3.7-3.9-4.2 0 0 0-.1 0-.1v-6h10v5c0 .6.4 1 1 1s1-.4 1-1v-5h8v5c0 .6.4 1 1 1s1-.4 1-1v-5h8v5c0 .6.4 1 1 1s1-.4 1-1v-5h10v13.9"/><path fill-opacity="0.5" fill="#503991" d="m724.7 15h.8c.5 0 .7-.2.7-.7v-3.6c0-.6-.1-1.6-.1-1.6 0 0 .4 1 .8 1.6l2.3 3.8c.2.3.5.5.8.5h1c.5 0 .7-.2.7-.7v-7.9c0-.5-.2-.7-.7-.7h-.8c-.5 0-.7.2-.7.7v3.6c0 .6.1 1.6.1 1.6 0 0-.4-1-.8-1.6l-2.3-3.9c-.2-.3-.5-.5-.9-.5h-1c-.5 0-.7.2-.7.7v7.9c.1.6.3.8.8.8"/><path fill-opacity="0.5" fill="#503991" d="m734.9 15h4.6c.5 0 .7-.2.7-.7v-.5c0-.5-.2-.7-.7-.7h-3.1v-6.7c0-.5-.2-.7-.7-.7h-.8c-.5 0-.7.2-.7.7v7.9c0 .5.2.7.7.7"/><path fill-opacity="0.5" fill="#503991" d="m742.4 15h2.6c2.9 0 4.8-1.7 4.8-4.7s-1.9-4.6-4.8-4.6h-2.6c-.5 0-.7.2-.7.7v7.9c0 .5.2.7.7.7m1.6-7.3h.9c1.5 0 2.5.9 2.5 2.7 0 1.8-1 2.7-2.5 2.7h-.9v-5.4"/><path fill-opacity="0.5" fill="#503991" d="m537 122h-4v-4c0-.6-.4-1-1-1s-1 .4-1 1v4h-4c-.6 0-1 .4-1 1s.4 1 1 1h4v4c0 .6.4 1 1 1s1-.4 1-1v-4h4c.6 0 1-.4 1-1s-.4-1-1-1"/><path fill-opacity="0.5" fill="#503991" d="m531.8 133.8c-.6 0-1 .4-1 1 0 2.6-2.1 4.8-4.8 4.8h-3.2c-1.9 0-3.6.8-4.8 2v-16.7c2.3-.5 4-2.5 4-4.9 0-2.8-2.2-5-5-5s-5 2.2-5 5c0 2.4 1.7 4.4 4 4.9v22.2c-2.3.5-4 2.5-4 4.9 0 2.8 2.2 5 5 5s5-2.2 5-5c0-2.4-1.7-4.4-4-4.9v-.7c0 0 0-.1 0-.1 0-2.6 2.1-4.8 4.8-4.8h3.7c.1 0 .1 0 .2 0 3.4-.3 6.1-3.2 6.1-6.7 0-.5-.5-1-1-1m-17.8-13.8c0-1.7 1.3-3 3-3s3 1.3 3 3-1.3 3-3 3-3-1.3-3-3m6 32c0 1.7-1.3 3-3 3s-3-1.3-3-3 1.3-3 3-3 3 1.3 3 3"/><path fill-opacity="0.5" fill="#503991" d="m873 7h-4v-4c0-.6-.4-1-1-1s-1 .4-1 1v4h-4c-.6 0-1 .4-1 1s.4 1 1 1h4v4c0 .6.4 1 1 1s1-.4 1-1v-4h4c.6 0 1-.4 1-1s-.4-1-1-1"/><path fill-opacity="0.5" fill="#503991" d="m867.8 18.8c-.6 0-1 .4-1 1 0 2.6-2.1 4.8-4.8 4.8h-3.2c-1.9 0-3.6.8-4.8 2v-16.7c2.3-.5 4-2.5 4-4.9 0-2.8-2.2-5-5-5s-5 2.2-5 5c0 2.4 1.7 4.4 4 4.9v22.2c-2.3.5-4 2.5-4 4.9 0 2.8 2.2 5 5 5s5-2.2 5-5c0-2.4-1.7-4.4-4-4.9v-.7c0 0 0-.1 0-.1 0-2.6 2.1-4.8 4.8-4.8h3.7c.1 0 .1 0 .2 0 3.4-.3 6.1-3.2 6.1-6.7 0-.5-.5-1-1-1m-17.8-13.8c0-1.7 1.3-3 3-3s3 1.3 3 3-1.3 3-3 3-3-1.3-3-3m6 32c0 1.7-1.3 3-3 3s-3-1.3-3-3 1.3-3 3-3 3 1.3 3 3"/><path fill-opacity="0.5" fill="#503991" d="m540 35h-3v-3c0-.6-.4-1-1-1s-1 .4-1 1v3h-3c-.6 0-1 .4-1 1s.4 1 1 1h3v3c0 .6.4 1 1 1s1-.4 1-1v-3h3c.6 0 1-.4 1-1s-.4-1-1-1"/><path fill-opacity="0.5" fill="#503991" d="m545.4 27.1c-.4-.2-.8-.1-1.1.2l-3 2.9c-.4.4-.4 1 0 1.4.4.4 1 .4 1.4 0l1.3-1.3v11.7c0 .6.4 1 1 1s1-.4 1-1v-14c0-.4-.2-.8-.6-.9"/><path fill-opacity="0.5" fill="#503991" d="m152.7 61.3h-3v-3c0-.6-.4-1-1-1s-1 .4-1 1v3h-3c-.6 0-1 .4-1 1s.4 1 1 1h3v3c0 .6.4 1 1 1s1-.4 1-1v-3h3c.6 0 1-.4 1-1s-.5-1-1-1"/><path fill-opacity="0.5" fill="#503991" d="m158.1 53.4c-.4-.2-.8-.1-1.1.2l-3 2.9c-.4.4-.4 1 0 1.4.4.4 1 .4 1.4 0l1.3-1.3v11.6c0 .6.4 1 1 1s1-.4 1-1v-14c0-.3-.3-.6-.6-.8"/><path fill-opacity="0.5" fill="#503991" d="m783 65h-3v-3c0-.6-.4-1-1-1s-1 .4-1 1v3h-3c-.6 0-1 .4-1 1s.4 1 1 1h3v3c0 .6.4 1 1 1s1-.4 1-1v-3h3c.6 0 1-.4 1-1s-.4-1-1-1"/><path fill-opacity="0.5" fill="#503991" d="m788.4 57.1c-.4-.2-.8-.1-1.1.2l-3 2.9c-.4.4-.4 1 0 1.4.4.4 1 .4 1.4 0l1.3-1.3v11.7c0 .6.4 1 1 1s1-.4 1-1v-14c0-.4-.2-.8-.6-.9"/><path fill-opacity="0.5" fill="#503991" d="m1020 61h-3v-3c0-.6-.4-1-1-1s-1 .4-1 1v3h-3c-.6 0-1 .4-1 1s.4 1 1 1h3v3c0 .6.4 1 1 1s1-.4 1-1v-3h3c.6 0 1-.4 1-1s-.4-1-1-1"/><path fill-opacity="0.5" fill="#503991" d="m1025.4 53.1c-.4-.2-.8-.1-1.1.2l-3 2.9c-.4.4-.4 1 0 1.4.4.4 1 .4 1.4 0l1.3-1.3v11.7c0 .6.4 1 1 1s1-.4 1-1v-14c0-.4-.2-.8-.6-.9"/><path fill-opacity="0.5" fill="#503991" d="m1527.7 25h-3v-3c0-.6-.4-1-1-1s-1 .4-1 1v3h-3c-.6 0-1 .4-1 1s.4 1 1 1h3v3c0 .6.4 1 1 1s1-.4 1-1v-3h3c.6 0 1-.4 1-1s-.5-1-1-1"/><path fill-opacity="0.5" fill="#503991" d="m1533.1 17.1c-.4-.2-.8-.1-1.1.2l-3 2.9c-.4.4-.4 1 0 1.4.4.4 1 .4 1.4 0l1.3-1.3v11.7c0 .6.4 1 1 1s1-.4 1-1v-14c0-.4-.3-.8-.6-.9"/><path fill-opacity="0.5" fill="#503991" d="m1593 94h-3v-3c0-.6-.4-1-1-1s-1 .4-1 1v3h-3c-.6 0-1 .4-1 1s.4 1 1 1h3v3c0 .6.4 1 1 1s1-.4 1-1v-3h3c.6 0 1-.4 1-1s-.4-1-1-1"/><path fill-opacity="0.5" fill="#503991" d="m1598.4 86.1c-.4-.2-.8-.1-1.1.2l-3 2.9c-.4.4-.4 1 0 1.4.4.4 1 .4 1.4 0l1.3-1.3v11.7c0 .6.4 1 1 1s1-.4 1-1v-14c0-.4-.2-.8-.6-.9"/><path fill-opacity="0.5" fill="#503991" d="m1135 141h-3v-3c0-.6-.4-1-1-1s-1 .4-1 1v3h-3c-.6 0-1 .4-1 1s.4 1 1 1h3v3c0 .6.4 1 1 1s1-.4 1-1v-3h3c.6 0 1-.4 1-1s-.4-1-1-1"/><path fill-opacity="0.5" fill="#503991" d="m1140.4 133.1c-.4-.2-.8-.1-1.1.2l-3 2.9c-.4.4-.4 1 0 1.4.4.4 1 .4 1.4 0l1.3-1.3v11.7c0 .6.4 1 1 1s1-.4 1-1v-14c0-.4-.2-.8-.6-.9"/><path fill-opacity="0.5" fill="#503991" d="m1369 83h-3v-3c0-.6-.4-1-1-1s-1 .4-1 1v3h-3c-.6 0-1 .4-1 1s.4 1 1 1h3v3c0 .6.4 1 1 1s1-.4 1-1v-3h3c.6 0 1-.4 1-1s-.4-1-1-1"/><path fill-opacity="0.5" fill="#503991" d="m1374.4 75.1c-.4-.2-.8-.1-1.1.2l-3 2.9c-.4.4-.4 1 0 1.4.4.4 1 .4 1.4 0l1.3-1.3v11.7c0 .6.4 1 1 1s1-.4 1-1v-14c0-.4-.2-.8-.6-.9"/><path fill-opacity="0.5" fill="#503991" d="m1349 90h-4v-4c0-.6-.4-1-1-1s-1 .4-1 1v4h-4c-.6 0-1 .4-1 1s.4 1 1 1h4v4c0 .6.4 1 1 1s1-.4 1-1v-4h4c.6 0 1-.4 1-1s-.4-1-1-1"/><path fill-opacity="0.5" fill="#503991" d="m1343.8 101.8c-.6 0-1 .4-1 1 0 2.6-2.1 4.8-4.8 4.8h-3.2c-1.9 0-3.6.8-4.8 2v-16.7c2.3-.5 4-2.5 4-4.9 0-2.8-2.2-5-5-5s-5 2.2-5 5c0 2.4 1.7 4.4 4 4.9v22.2c-2.3.5-4 2.5-4 4.9 0 2.8 2.2 5 5 5s5-2.2 5-5c0-2.4-1.7-4.4-4-4.9v-.7c0 0 0-.1 0-.1 0-2.6 2.1-4.8 4.8-4.8h3.7c.1 0 .1 0 .2 0 3.4-.3 6.1-3.2 6.1-6.7 0-.5-.5-1-1-1m-17.8-13.8c0-1.7 1.3-3 3-3s3 1.3 3 3-1.3 3-3 3-3-1.3-3-3m6 32c0 1.7-1.3 3-3 3s-3-1.3-3-3 1.3-3 3-3 3 1.3 3 3"/><path fill-opacity="0.5" fill="#503991" d="m1219.3 109.7c.2.2.5.3.7.3s.5-.1.7-.3l3.3-3.3 3.3 3.3c.2.2.5.3.7.3s.5-.1.7-.3c.4-.4.4-1 0-1.4l-3.3-3.3 3.3-3.3c.4-.4.4-1 0-1.4s-1-.4-1.4 0l-3.3 3.3-3.3-3.3c-.4-.4-1-.4-1.4 0s-.4 1 0 1.4l3.3 3.3-3.3 3.3c-.4.4-.4 1 0 1.4"/><path fill-opacity="0.5" fill="#503991" d="m1251 115c-2.4 0-4.4 1.7-4.9 4h-.7c0 0-.1 0-.1 0-2.6 0-4.8-2.1-4.8-4.8v-3.2c0 0 0-.1 0-.1 0-.1 0-.2 0-.3 0 0 0 0 0 0-.2-3.5-3.1-6.4-6.7-6.4-.6 0-1 .4-1 1s.4 1 1 1c2.6 0 4.6 2 4.7 4.6v3.5c0 1.9.8 3.6 2 4.8h-16.7c-.5-2.3-2.5-4-4.9-4-2.8 0-5 2.2-5 5s2.2 5 5 5c2.4 0 4.4-1.7 4.9-4h22.2c.5 2.3 2.5 4 4.9 4 2.8 0 5-2.2 5-5s-2.1-5.1-4.9-5.1m-32 8c-1.7 0-3-1.3-3-3s1.3-3 3-3 3 1.3 3 3-1.3 3-3 3m32 0c-1.7 0-3-1.3-3-3s1.3-3 3-3 3 1.3 3 3-1.3 3-3 3"/><path fill-opacity="0.5" fill="#503991" d="m115.3 144.7c.2.2.5.3.7.3s.5-.1.7-.3l3.3-3.3 3.3 3.3c.2.2.5.3.7.3s.5-.1.7-.3c.4-.4.4-1 0-1.4l-3.3-3.3 3.3-3.3c.4-.4.4-1 0-1.4s-1-.4-1.4 0l-3.3 3.3-3.3-3.3c-.4-.4-1-.4-1.4 0s-.4 1 0 1.4l3.3 3.3-3.3 3.3c-.4.4-.4 1 0 1.4"/><path fill-opacity="0.5" fill="#503991" d="m147 150c-2.4 0-4.4 1.7-4.9 4h-.7c0 0-.1 0-.1 0-2.6 0-4.8-2.1-4.8-4.8v-3.2c0 0 0-.1 0-.1 0-.1 0-.2 0-.3 0 0 0 0 0 0-.2-3.5-3.1-6.4-6.7-6.4-.6 0-1 .4-1 1s.4 1 1 1c2.6 0 4.6 2 4.7 4.6v3.5c0 1.9.8 3.6 2 4.8h-16.7c-.5-2.3-2.5-4-4.9-4-2.8 0-5 2.2-5 5s2.2 5 5 5c2.4 0 4.4-1.7 4.9-4h22.2c.5 2.3 2.5 4 4.9 4 2.8 0 5-2.2 5-5s-2.1-5.1-4.9-5.1m-32 8c-1.7 0-3-1.3-3-3s1.3-3 3-3 3 1.3 3 3-1.3 3-3 3m32 0c-1.7 0-3-1.3-3-3s1.3-3 3-3 3 1.3 3 3-1.3 3-3 3"/><path fill-opacity="0.5" fill="#503991" d="m1250 150c-2.4 0-4.4 1.7-4.9 4 0 0-.1 0-.1 0h-43.1c-.5-2.3-2.5-4-4.9-4-2 0-3.6 1.1-4.5 2.8l-4.7-5.8h17.2c0 0 .1 0 .1 0 .5 2.3 2.5 4 4.9 4 2.8 0 5-2.2 5-5s-2.2-5-5-5c-2.4 0-4.4 1.7-4.9 4 0 0-.1 0-.1 0h-38c0 0-.1 0-.1 0-.5-2.3-2.5-4-4.9-4-2.8 0-5 2.2-5 5s2.2 5 5 5c2.4 0 4.4-1.7 4.9-4 0 0 .1 0 .1 0h18.2c0 0 0 0 0 0l6.8 8.3c.2 2.6 2.3 4.7 5 4.7 2.4 0 4.4-1.7 4.9-4h43.1c0 0 .1 0 .1 0 .5 2.3 2.5 4 4.9 4 2.8 0 5-2.2 5-5s-2.2-5-5-5m-40-7c1.7 0 3 1.3 3 3s-1.3 3-3 3-3-1.3-3-3 1.3-3 3-3m-48 6c-1.7 0-3-1.3-3-3s1.3-3 3-3 3 1.3 3 3-1.3 3-3 3m35 9c-1.7 0-3-1.3-3-3s1.3-3 3-3 3 1.3 3 3-1.3 3-3 3m53 0c-1.7 0-3-1.3-3-3s1.3-3 3-3 3 1.3 3 3-1.3 3-3 3"/><path fill-opacity="0.5" fill="#503991" d="m1167 37.1v-22.2c2.3-.5 4-2.5 4-4.9 0-2.8-2.2-5-5-5s-5 2.2-5 5c0 2.4 1.7 4.4 4 4.9v.7c0 0 0 .1 0 .1 0 2.6-2.1 4.8-4.8 4.8h-3.3c0 0 0 0 0 0-.1 0-.1 0-.2 0h-.2c0 0 0 0-.1 0-3.5.2-6.2 3.1-6.3 6.6-2.4.4-4.1 2.4-4.1 4.9 0 2.8 2.2 5 5 5s5-2.2 5-5c0-2.4-1.6-4.3-3.9-4.9 0-2.6 2.1-4.7 4.7-4.7h3.4c1.9 0 3.6-.8 4.8-2v16.7c-2.3.5-4 2.5-4 4.9 0 2.8 2.2 5 5 5s5-2.2 5-5c0-2.4-1.7-4.4-4-4.9m-13-5.1c0 1.7-1.3 3-3 3s-3-1.3-3-3 1.3-3 3-3 3 1.3 3 3m9-22c0-1.7 1.3-3 3-3s3 1.3 3 3-1.3 3-3 3-3-1.3-3-3m3 35c-1.7 0-3-1.3-3-3s1.3-3 3-3 3 1.3 3 3-1.3 3-3 3"/><path fill-opacity="0.5" fill="#503991" d="m196 38.1v-22.2c2.3-.5 4-2.5 4-4.9 0-2.8-2.2-5-5-5s-5 2.2-5 5c0 2.4 1.7 4.4 4 4.9v.7c0 0 0 .1 0 .1 0 2.6-2.1 4.8-4.8 4.8h-3.2c0 0 0 0 0 0-.1 0-.1 0-.2 0h-.2c0 0 0 0-.1 0-3.5.2-6.2 3.1-6.3 6.6-2.4.4-4.1 2.4-4.1 4.9 0 2.8 2.2 5 5 5s5-2.2 5-5c0-2.4-1.6-4.3-3.9-4.9 0-2.6 2.1-4.7 4.7-4.7h3.4c1.9 0 3.6-.8 4.8-2v16.7c-2.3.5-4 2.5-4 4.9 0 2.8 2.2 5 5 5s5-2.2 5-5c-.1-2.4-1.8-4.4-4.1-4.9m-13-5.1c0 1.7-1.3 3-3 3s-3-1.3-3-3 1.3-3 3-3 3 1.3 3 3m9-22c0-1.7 1.3-3 3-3s3 1.3 3 3-1.3 3-3 3-3-1.3-3-3m3 35c-1.7 0-3-1.3-3-3s1.3-3 3-3 3 1.3 3 3-1.3 3-3 3"/><path fill-opacity="0.5" fill="#503991" d="m1153 55c-8.3 0-15 6.7-15 15s6.7 15 15 15 15-6.7 15-15-6.7-15-15-15m0 28c-7.2 0-13-5.8-13-13s5.8-13 13-13 13 5.8 13 13-5.8 13-13 13"/><path fill-opacity="0.5" fill="#503991" d="m1151.8 73h-3.3c.1-1.2 3.9-1.8 3.9-4.7 0-2-1.7-2.8-3.2-2.8-1.5 0-2.4.8-2.9 1.4-.3.4-.2.7.2 1l.5.4c.4.3.7.2 1-.2.2-.2.6-.5 1-.5.5 0 1 .3 1 .9 0 1.3-4 1.9-4 5.4v.3c0 .5.3.7.8.7h5.1c.5 0 .7-.2.7-.7v-.5c-.1-.4-.3-.7-.8-.7"/><path fill-opacity="0.5" fill="#503991" d="m1159.9 73h-3.3c.1-1.2 3.9-1.8 3.9-4.7 0-2-1.7-2.8-3.2-2.8-1.5 0-2.4.8-2.9 1.4-.3.4-.2.7.2 1l.5.4c.4.3.7.2 1-.2.2-.2.6-.5 1-.5.5 0 1 .3 1 .9 0 1.3-4 1.9-4 5.4v.3c0 .5.3.7.8.7h5.1c.5 0 .7-.2.7-.7v-.5c-.1-.4-.3-.7-.8-.7"/><path fill-opacity="0.5" fill="#503991" d="m1522.3 40.7c-8.3 0-15 6.7-15 15s6.7 15 15 15 15-6.7 15-15-6.7-15-15-15m0 28c-7.2 0-13-5.8-13-13s5.8-13 13-13 13 5.8 13 13-5.8 13-13 13"/><path fill-opacity="0.5" fill="#503991" d="m1521.2 58.7h-3.3c.1-1.2 3.9-1.8 3.9-4.7 0-2-1.7-2.8-3.2-2.8-1.5 0-2.4.8-2.9 1.4-.3.4-.2.7.2 1l.5.4c.4.3.7.2 1-.2.2-.2.6-.5 1-.5.5 0 1 .3 1 .9 0 1.3-4 1.9-4 5.4v.4c0 .5.3.7.8.7h5.1c.5 0 .7-.2.7-.7v-.5c-.1-.5-.4-.8-.8-.8"/><path fill-opacity="0.5" fill="#503991" d="m1529.2 58.7h-3.3c.1-1.2 3.9-1.8 3.9-4.7 0-2-1.7-2.8-3.2-2.8-1.5 0-2.4.8-2.9 1.4-.3.4-.2.7.2 1l.5.4c.4.3.7.2 1-.2.2-.2.6-.5 1-.5.5 0 1 .3 1 .9 0 1.3-4 1.9-4 5.4v.4c0 .5.3.7.8.7h5.1c.5 0 .7-.2.7-.7v-.5c-.1-.5-.3-.8-.8-.8"/><path fill-opacity="0.5" fill="#503991" d="m966 135c-2.4 0-4.4 1.7-4.9 4h-22.2c-.5-2.3-2.5-4-4.9-4-2.8 0-5 2.2-5 5s2.2 5 5 5c2.4 0 4.4-1.7 4.9-4h.7c0 0 .1 0 .1 0 2.6 0 4.8 2.1 4.8 4.8v3.3c0 0 0 0 0 0 0 .1 0 .1 0 .2v.2c0 0 0 0 0 .1.2 3.5 3.1 6.2 6.6 6.3.4 2.4 2.4 4.1 4.9 4.1 2.8 0 5-2.2 5-5s-2.2-5-5-5c-2.4 0-4.3 1.6-4.9 3.9-2.6 0-4.7-2.1-4.7-4.7v-3.4c0-1.9-.8-3.6-2-4.8h16.7c.5 2.3 2.5 4 4.9 4 2.8 0 5-2.2 5-5s-2.2-5-5-5m-10 17c1.7 0 3 1.3 3 3s-1.3 3-3 3-3-1.3-3-3 1.3-3 3-3m-22-9c-1.7 0-3-1.3-3-3s1.3-3 3-3 3 1.3 3 3-1.3 3-3 3m32 0c-1.7 0-3-1.3-3-3s1.3-3 3-3 3 1.3 3 3-1.3 3-3 3"/><path fill-opacity="0.5" fill="#503991" d="m912.3 115h-27.4c-.5-2.3-2.5-4-4.9-4-2.8 0-5 2.2-5 5s2.2 5 5 5c2.4 0 4.4-1.7 4.9-4h27.4c2.1 0 3.7 1.7 3.7 3.7v6.5c0 2.1-1.7 3.7-3.7 3.7h-50.5c-2.1 0-3.7-1.7-3.7-3.7v-6.5c0-2.1 1.7-3.7 3.7-3.7h9.2c.6 0 1-.4 1-1s-.4-1-1-1h-9.2c-3.2 0-5.7 2.6-5.7 5.7v6.5c0 3.2 2.6 5.7 5.7 5.7h50.5c3.2 0 5.7-2.6 5.7-5.7v-6.5c0-3.1-2.6-5.7-5.7-5.7m-32.3 4c-1.7 0-3-1.3-3-3s1.3-3 3-3 3 1.3 3 3-1.3 3-3 3"/><path fill-opacity="0.5" fill="#503991" d="m864 124c0 .6.4 1 1 1h35.1c.5 2.3 2.5 4 4.9 4 2.8 0 5-2.2 5-5s-2.2-5-5-5c-2.4 0-4.4 1.7-4.9 4h-35.1c-.6 0-1 .4-1 1m41-3c1.7 0 3 1.3 3 3s-1.3 3-3 3-3-1.3-3-3 1.3-3 3-3"/><path fill-opacity="0.5" fill="#503991" d="m912.3 138h-50.5c-3.2 0-5.7 2.6-5.7 5.7v6.5c0 3.2 2.6 5.7 5.7 5.7h9.2c.6 0 1-.4 1-1s-.4-1-1-1h-9.2c-2.1 0-3.7-1.7-3.7-3.7v-6.5c0-2.1 1.7-3.7 3.7-3.7h50.5c2.1 0 3.7 1.7 3.7 3.7v6.5c0 2.1-1.7 3.7-3.7 3.7h-27.4c-.5-2.3-2.5-4-4.9-4-2.8 0-5 2.2-5 5s2.2 5 5 5c2.4 0 4.4-1.7 4.9-4h27.4c3.2 0 5.7-2.6 5.7-5.7v-6.5c0-3.1-2.6-5.7-5.7-5.7m-32.3 20c-1.7 0-3-1.3-3-3s1.3-3 3-3 3 1.3 3 3-1.3 3-3 3"/><path fill-opacity="0.5" fill="#503991" d="m905 152c2.8 0 5-2.2 5-5s-2.2-5-5-5c-2.4 0-4.4 1.7-4.9 4h-35.1c-.6 0-1 .4-1 1s.4 1 1 1h35.1c.5 2.3 2.5 4 4.9 4m0-8c1.7 0 3 1.3 3 3s-1.3 3-3 3-3-1.3-3-3 1.3-3 3-3"/><path fill-opacity="0.5" fill="#503991" d="m88.3 110h-27.4c-.5-2.3-2.5-4-4.9-4-2.8 0-5 2.2-5 5s2.2 5 5 5c2.4 0 4.4-1.7 4.9-4h27.4c2.1 0 3.7 1.7 3.7 3.7v6.5c0 2.1-1.7 3.7-3.7 3.7h-50.6c-2.1 0-3.7-1.7-3.7-3.7v-6.5c0-2.1 1.7-3.7 3.7-3.7h9.2c.6 0 1-.4 1-1s-.4-1-1-1h-9.2c-3.2 0-5.7 2.6-5.7 5.7v6.5c0 3.2 2.6 5.7 5.7 5.7h50.5c3.2 0 5.7-2.6 5.7-5.7v-6.5c.1-3.1-2.5-5.7-5.6-5.7m-32.3 4c-1.7 0-3-1.3-3-3s1.3-3 3-3 3 1.3 3 3-1.3 3-3 3"/><path fill-opacity="0.5" fill="#503991" d="m40 119c0 .6.4 1 1 1h35.1c.5 2.3 2.5 4 4.9 4 2.8 0 5-2.2 5-5s-2.2-5-5-5c-2.4 0-4.4 1.7-4.9 4h-35.1c-.6 0-1 .4-1 1m41-3c1.7 0 3 1.3 3 3s-1.3 3-3 3-3-1.3-3-3 1.3-3 3-3"/><path fill-opacity="0.5" fill="#503991" d="m88.3 133h-50.6c-3.2 0-5.7 2.6-5.7 5.7v6.5c0 3.2 2.6 5.7 5.7 5.7h9.2c.6 0 1-.4 1-1s-.4-1-1-1h-9.2c-2.1 0-3.7-1.7-3.7-3.7v-6.5c0-2.1 1.7-3.7 3.7-3.7h50.5c2.1 0 3.7 1.7 3.7 3.7v6.5c0 2.1-1.7 3.7-3.7 3.7h-27.3c-.5-2.3-2.5-4-4.9-4-2.8 0-5 2.2-5 5s2.2 5 5 5c2.4 0 4.4-1.7 4.9-4h27.4c3.2 0 5.7-2.6 5.7-5.7v-6.5c0-3.1-2.6-5.7-5.7-5.7m-32.3 20c-1.7 0-3-1.3-3-3s1.3-3 3-3 3 1.3 3 3-1.3 3-3 3"/><path fill-opacity="0.5" fill="#503991" d="m81 147c2.8 0 5-2.2 5-5s-2.2-5-5-5c-2.4 0-4.4 1.7-4.9 4h-35.1c-.6 0-1 .4-1 1s.4 1 1 1h35.1c.5 2.3 2.5 4 4.9 4m0-8c1.7 0 3 1.3 3 3s-1.3 3-3 3-3-1.3-3-3 1.3-3 3-3"/><path fill-opacity="0.5" fill="#503991" d="m1063 89.1c0 0 0-.1 0 0v-33.2c2.3-.5 4-2.5 4-4.9 0-2.7-2.1-4.8-4.7-5l-8.3-6.8c0 0 0 0 0 0v-18.2c0 0 0-.1 0-.1 2.3-.5 4-2.5 4-4.9 0-2.8-2.2-5-5-5s-5 2.2-5 5c0 2.4 1.7 4.4 4 4.9 0 0 0 .1 0 .1v38c0 0 0 .1 0 .1-2.3.5-4 2.5-4 4.9 0 2.8 2.2 5 5 5s5-2.2 5-5c0-2.4-1.7-4.4-4-4.9 0 0 0-.1 0-.1v-17.2l5.8 4.7c-1.6.8-2.8 2.5-2.8 4.5 0 2.4 1.7 4.4 4 4.9v33.1c0 0 0 .1 0 .1-2.3.5-4 2.5-4 4.9 0 2.8 2.2 5 5 5s5-2.2 5-5c0-2.4-1.7-4.4-4-4.9m-13-73.1c0-1.7 1.3-3 3-3s3 1.3 3 3-1.3 3-3 3-3-1.3-3-3m6 48c0 1.7-1.3 3-3 3s-3-1.3-3-3 1.3-3 3-3 3 1.3 3 3m3-13c0-1.7 1.3-3 3-3s3 1.3 3 3-1.3 3-3 3-3-1.3-3-3m3 46c-1.7 0-3-1.3-3-3s1.3-3 3-3 3 1.3 3 3-1.3 3-3 3"/><path fill-opacity="0.5" fill="#503991" d="m832.9 29.4c0 0 0 0 0 0l-6.7-21.2c-.2-.7-.9-1.2-1.7-1.2-.8 0-1.4.5-1.7 1.1l-3.8 9c-.2.5 0 1.1.5 1.3s1.1 0 1.3-.5l3.6-8.5 6.6 20.6c0 0 0 0 0 0 .1.2 0 .5-.2.7l-18.8 14.1-18.7-14c-.2-.1-.3-.4-.2-.7l.1-.2c.3.1.6.1.9.1 2.8 0 5-2.2 5-5 0-2.1-1.3-3.9-3.1-4.6l3.5-10.8 4.2 13.4c.1.4.5.7 1 .7h19.1c.6 0 1-.4 1-1s-.4-1-1-1h-18.4l-4.2-13.4c-.2-.7-.9-1.2-1.7-1.2-.8 0-1.4.5-1.7 1.2l-3.9 11.7c-2.7 0-4.9 2.3-4.9 5 0 1.7.9 3.3 2.3 4.2l-.1.3c-.3 1.1 0 2.2.9 2.9l19.3 14.5c.2.1.4.2.6.2s.4-.1.6-.2l19.4-14.6c.8-.7 1.2-1.8.9-2.9m-38.9-7.4c1.7 0 3 1.3 3 3s-1.3 3-3 3-3-1.3-3-3 1.3-3 3-3"/><path fill-opacity="0.5" fill="#503991" d="m1383.8 43c0 0 0 0 0 0l-13.3-41.3c-.3-1.1-1.3-1.7-2.4-1.7-1.1 0-2 .7-2.4 1.7l-7.6 17.6c-.2.5 0 1.1.5 1.3.5.2 1.1 0 1.3-.5l7.6-17.6c.1-.3.4-.4.5-.4.1 0 .4 0 .5.4l13.3 41.3c.3.8 0 1.8-.8 2.3l-37.9 27.8-37.5-27.6c-.7-.5-1-1.5-.7-2.3l.5-1.7c0-.1 0-.2 0-.3.4.1.9.1 1.3.1 3.8 0 6.9-3.1 6.9-7 0-2.9-1.7-5.4-4.2-6.4l8.3-26c.1-.3.4-.4.5-.4.1 0 .4 0 .5.4l8.9 27.8c.1.4.5.7.9.7h33.9c.8 1.8 2.5 3 4.5 3 2.7 0 4.9-2.2 4.9-5s-2.2-5-4.9-5-4.9 2.2-4.9 5h-32.7l-8.7-27.1c-.3-1.1-1.3-1.7-2.4-1.7-1.1 0-2 .7-2.4 1.7l-8.4 26.1c-.3 0-.5 0-.8 0-3.8 0-6.9 3.1-6.9 7 0 2.7 1.6 5.1 3.8 6.3-.1.1-.1.2-.1.3l-.5 1.7c-.5 1.7 0 3.5 1.4 4.5l38.1 28.1c.2.1.4.2.6.2s.4-.1.6-.2l38.4-28.3c1.7-1.3 2.3-3.1 1.8-4.8m-16.6-17c1.6 0 3 1.3 3 3s-1.3 3-3 3-3-1.3-3-3 1.4-3 3-3m-65.2 9c0-2.8 2.2-5 4.9-5s4.9 2.2 4.9 5-2.2 5-4.9 5-4.9-2.2-4.9-5"/><path fill-opacity="0.5" fill="#503991" d="m1308 83.1c0 0 0-.1 0 0v-5.1c0-3.9-3.1-7-7-7h-23.1c-.5-2.3-2.5-4-4.9-4-2.8 0-5 2.2-5 5s2.2 5 5 5c2.4 0 4.4-1.7 4.9-4h6.1c2.8 0 5 2.3 5 5v5c0 0 0 .1 0 .1-2.3.5-4 2.5-4 4.9 0 2.8 2.2 5 5 5s5-2.2 5-5c0-2.4-1.7-4.4-4-4.9 0 0 0-.1 0-.1v-5c0-2-.8-3.8-2.1-5h12.1c2.8 0 5 2.3 5 5v5c0 0 0 .1 0 .1-2.3.5-4 2.5-4 4.9 0 2.8 2.2 5 5 5s5-2.2 5-5c0-2.4-1.7-4.4-4-4.9m-15 4.9c0 1.7-1.3 3-3 3s-3-1.3-3-3 1.3-3 3-3 3 1.3 3 3m-20-13c-1.7 0-3-1.3-3-3s1.3-3 3-3 3 1.3 3 3-1.3 3-3 3m34 16c-1.7 0-3-1.3-3-3s1.3-3 3-3 3 1.3 3 3-1.3 3-3 3"/><path fill-opacity="0.5" fill="#503991" d="m1247 76.1v-32.6c0-3.6-2.9-6.5-6.4-6.5h-7.6c0 0-.1 0-.1 0-.4-2-1.9-3.5-3.9-3.9v-3.3c0-2.7-2-4.8-4.5-4.8h-20.9c-2.5 0-4.5 2.2-4.5 4.8v7.2h-11.5c-3.6 0-6.5 2.9-6.5 6.5v34.9c0 3.6 2.9 6.5 6.5 6.5h40.5c.6 0 1-.4 1-1s-.4-1-1-1h-40.5c-2.5 0-4.5-2-4.5-4.5v-20.8c.1 0 .2.1.3.1h26c0 0 .1 0 .1 0 .5 2.3 2.5 4 4.9 4 2.4 0 4.4-1.7 4.9-4h25.8v18.4c-3.4.5-6 3.4-6 6.9 0 3.9 3.1 7 7 7s7-3.1 7-7c-.1-3.5-2.7-6.4-6.1-6.9m-16-38.1c0 1.7-1.3 3-3 3s-3-1.3-3-3 1.3-3 3-3 3 1.3 3 3m-30-8.2c0-1.6 1.1-2.8 2.5-2.8h20.9c1.4 0 2.5 1.3 2.5 2.8v3.3c-2 .4-3.5 1.9-3.9 3.9h-22v-7.2m13.3 29.9c-1.7 0-3-1.3-3-3s1.3-3 3-3c1.7 0 3 1.3 3 3s0 0 0 0c0 1.6-1.3 3-3 3m4.9-4c-.5-2.3-2.5-4-4.9-4-2.4 0-4.4 1.7-4.9 4 0 0-.1 0-.1 0h-26c-.1 0-.2 0-.3.1v-12.3c0-2.5 2-4.5 4.5-4.5h35.6c.5 2.3 2.5 4 4.9 4 2.4 0 4.4-1.7 4.9-4 0 0 .1 0 .1 0h7.6c2.4 0 4.4 2 4.4 4.5v12.2h-25.8m26.8 32.3c-2.8 0-5-2.2-5-5s2.2-5 5-5 5 2.2 5 5-2.2 5-5 5"/><path fill-opacity="0.5" fill="#503991" d="m1123 81c0-3.9-3.1-7-7-7-3.7 0-6.8 3-7 6.6l-6 5.9v-20.5c0-.6-.4-1-1-1s-1 .4-1 1v20.7l-5.8-5.8c-.4-.4-1-.4-1.4 0s-.4 1 0 1.4l7.4 7.4c.2.2.5.3.7.3.3 0 .5-.1.7-.3l6.7-6.6c.8 2.5 3 4.4 5.7 4.8v7.1h-31v-5.1c2.3-.5 4-2.5 4-4.9 0-2.8-2.2-5-5-5s-5 2.2-5 5c0 2.4 1.7 4.4 4 4.9v6.1c0 .6.4 1 1 1h33c.6 0 1-.4 1-1v-8.1c3.4-.5 6-3.4 6-6.9m-43 4c0-1.7 1.3-3 3-3s3 1.3 3 3-1.3 3-3 3-3-1.3-3-3m36 1c-2.8 0-5-2.2-5-5 0-2.8 2.2-5 5-5s5 2.2 5 5c0 2.8-2.2 5-5 5"/><path fill-opacity="0.5" fill="#503991" d="m1332.9 145.2c0-.1 0-.1 0-.2 0 0 0-.1 0-.1 0-.1 0-.1 0-.2 0-.1-.1-.1-.1-.2 0 0 0-.1-.1-.1l-34.6-39.5c-1.8-1.8-4.2-2.9-6.7-2.9-2.5 0-4.9 1-6.8 2.9l-23.3 27.3c-.4.4-.3 1.1.1 1.4s1.1.3 1.4-.1l23.3-27.2c1.4-1.5 3.3-2.3 5.3-2.3s3.9.8 5.3 2.2l9.2 10.4-2.7 2.1-3.3-2.5c-.3-.3-.8-.3-1.2 0l-4 2.6-3.1-2.5c-.4-.3-.9-.3-1.2 0l-3.3 2.5-3.3-2.5c-.4-.3-1.1-.2-1.4.2-.3.4-.2 1.1.2 1.4l3.9 3c.4.3 1 .3 1.3 0l3.2-2.5 3 2.5c.3.3.9.3 1.3 0l3.9-2.6 3.3 2.5c.2.1.4.2.6.2.3 0 .5-.1.7-.3l3.4-2.6 22.7 25.8h-35.9c0 0-.1 0-.1 0-.5-2.3-2.5-4-4.9-4-2.8 0-5 2.2-5 5s2.2 5 5 5c2.4 0 4.4-1.7 4.9-4 0 0 .1 0 .1 0h38c.1 0 .2 0 .4-.1.1 0 .1-.1.1-.1.1 0 .1-.1.2-.1.1-.1.1-.1.1-.2 0 0 .1-.1.1-.1 0 .1 0 0 0-.1m-43.9 2.8c-1.7 0-3-1.3-3-3s1.3-3 3-3 3 1.3 3 3-1.3 3-3 3"/><path fill-opacity="0.5" fill="#503991" d="m71.9 43.2c0-.1 0-.1 0-.2 0 0 0-.1 0-.1 0-.1 0-.1 0-.2 0-.1-.1-.1-.1-.2 0 0 0-.1-.1-.1l-34.6-39.5c-1.8-1.9-4.2-2.9-6.7-2.9-2.5 0-4.9 1-6.8 2.9l-23.4 27.3c-.4.4-.3 1.1.1 1.4s1.1.3 1.4-.1l23.4-27.2c1.4-1.5 3.3-2.3 5.3-2.3s3.9.8 5.3 2.2l9.2 10.4-2.7 2.1-3.3-2.5c-.3-.3-.8-.3-1.2 0l-4 2.6-3.1-2.5c-.4-.3-.9-.3-1.2 0l-3.3 2.5-3.3-2.5c-.4-.3-1.1-.2-1.4.2-.3.4-.2 1.1.2 1.4l3.9 3c.4.3 1 .3 1.3 0l3.2-2.5 3 2.5c.3.3.9.3 1.3 0l3.9-2.6 3.3 2.5c.2.1.4.2.6.2.3 0 .5-.1.7-.3l3.4-2.6 22.6 25.9h-35.8c0 0-.1 0-.1 0-.5-2.3-2.5-4-4.9-4-2.8 0-5 2.2-5 5s2.2 5 5 5c2.4 0 4.4-1.7 4.9-4 0 0 .1 0 .1 0h38c.1 0 .2 0 .4-.1.1 0 .1-.1.1-.1.1 0 .1-.1.2-.1.1-.1.1-.1.1-.2 0 0 .1-.1.1-.1 0 0 0-.1 0-.2m-43.9 2.8c-1.7 0-3-1.3-3-3s1.3-3 3-3 3 1.3 3 3-1.3 3-3 3"/><path fill-opacity="0.5" fill="#503991" d="m194 62.4c-3-1.2-6.4-1.2-9.3 0-1.5.6-2.8 1.5-4 2.6-1.1 1.1-2 2.5-2.6 4-.6 1.5-.9 3-.9 4.7 0 1.3.2 2.6.6 3.8.2.5.4 1 .6 1.5-.7.7-1.2 1.7-1.2 2.8 0 2.2 1.8 4 4 4 2.2 0 4-1.8 4-4s-1.8-4-4-4c-.4 0-.8.1-1.1.2-.2-.4-.3-.7-.5-1.1-.3-1-.5-2.1-.5-3.2 0-1.4.3-2.7.8-3.9.5-1.2 1.3-2.3 2.2-3.3 1-1 2.1-1.7 3.3-2.2 2.4-1 5.3-1 7.8 0 1.2.5 2.3 1.3 3.3 2.2 1.9 1.9 3 4.5 3 7.2 0 1.1-.2 2.1-.5 3.2-.3 1-.8 2-1.5 2.8-1.2 1.7-2.2 2.8-3 3.7l-.4.4c-1.2 1.3-2 2.2-2.3 4h-6c-.6 0-1 .4-1 1s.4 1 1 1h6.9c.5 0 1-.4 1-.9.1-1.8.6-2.3 1.8-3.7l.4-.4c.8-.9 1.8-2 3.1-3.8.8-1 1.4-2.2 1.7-3.4.4-1.2.6-2.5.6-3.8 0-3.3-1.3-6.3-3.6-8.6-.9-1.3-2.3-2.2-3.7-2.8m-10.8 19.4c0 1.1-.9 2-2 2-1.1 0-2-.9-2-2s.9-2 2-2c1.1 0 2 .9 2 2"/><path fill-opacity="0.5" fill="#503991" d="m190.2 96.8h-2c-.6 0-1 .4-1 1s.4 1 1 1h2c.6 0 1-.4 1-1s-.5-1-1-1"/><path fill-opacity="0.5" fill="#503991" d="m191.2 93.8h-4c-.6 0-1 .4-1 1s.4 1 1 1h4c.6 0 1-.4 1-1s-.5-1-1-1"/><path fill-opacity="0.5" fill="#503991" d="m192.2 90.8h-6c-.6 0-1 .4-1 1s.4 1 1 1h6c.6 0 1-.4 1-1s-.5-1-1-1"/><path fill-opacity="0.5" fill="#503991" d="m189.2 58.8c.6 0 1-.4 1-1v-4c0-.6-.4-1-1-1s-1 .4-1 1v4c0 .5.4 1 1 1"/><path fill-opacity="0.5" fill="#503991" d="m178.3 61.9c.4-.4.4-1 0-1.4l-2.8-2.8c-.4-.4-1-.4-1.4 0s-.4 1 0 1.4l2.8 2.8c.2.2.5.3.7.3s.5-.1.7-.3"/><path fill-opacity="0.5" fill="#503991" d="m172.2 71.8h-4c-.6 0-1 .4-1 1s.4 1 1 1h4c.6 0 1-.4 1-1s-.5-1-1-1"/><path fill-opacity="0.5" fill="#503991" d="m201.9 57.6l-2.8 2.8c-.4.4-.4 1 0 1.4.2.2.5.3.7.3s.5-.1.7-.3l2.8-2.8c.4-.4.4-1 0-1.4s-1-.3-1.4 0"/><path fill-opacity="0.5" fill="#503991" d="m210.2 71.8h-4c-.6 0-1 .4-1 1s.4 1 1 1h4c.6 0 1-.4 1-1s-.5-1-1-1"/><path fill-opacity="0.5" fill="#503991" d="m1592 151c-1.7 0-3.4.5-4.7 1.5-2.3-4-6.6-6.5-11.3-6.5-2.7 0-5.4.9-7.6 2.4l-2.3-15.4h1.2l3.8 7.6c.3.6 1 1 1.7 1h2.8c.5 0 1-.2 1.3-.6.3-.3.4-.6.5-.9l3.4-13.1c.1-.6 0-1.3-.4-1.8l-7.4-8.3c.2-2.9.4-5.4.4-7.6 0-10.5-2.9-17.5-10.2-24.8-.7-.7-2.1-.7-2.8 0-5.6 5.7-8.3 10.3-9.4 16.5-1.3.2-2.4.8-3.4 1.7-1.1 1.1-1.8 2.6-1.8 4.2s.6 3.1 1.8 4.2c1.1 1.1 2.6 1.8 4.2 1.8s3.1-.6 4.2-1.8c1.1-1.1 1.8-2.6 1.8-4.2s-.6-3.1-1.8-4.2c-.9-.9-1.9-1.4-3.1-1.6 1.1-5.5 3.6-9.9 8.8-15.1 6.9 6.9 9.6 13.5 9.6 23.4 0 2.3-.2 4.9-.4 7.9 0 .3.1.5.2.7l7.7 8.6-3.4 13.1h-2.7l-4.1-8.2c-.2-.3-.5-.6-.9-.6h-12c-.4 0-.7.2-.9.6l-4 8.1h-2.7l-3.4-13.1 7.7-8.6c.4-.4.3-1-.1-1.4-.4-.4-1-.3-1.4.1l-7.7 8.6c-.4.5-.5 1.1-.4 1.8l3.4 13.1c.2.8 1 1.4 1.9 1.5h2.7c.5 0 1-.2 1.4-.6.1-.1.2-.2.4-.5l3.8-7.6h1.2l-2.3 15.4c-2.2-1.6-4.8-2.4-7.6-2.4-4.7 0-9 2.5-11.3 6.5-1.4-1-3-1.5-4.7-1.5-4.4 0-8 3.6-8 8 0 .6.4 1 1 1h74c.6 0 1-.4 1-1 .3-4.3-3.3-7.9-7.7-7.9m-36-44c0 1.1-.4 2.1-1.2 2.8-1.5 1.5-4.1 1.5-5.7 0-.8-.8-1.2-1.8-1.2-2.8s.4-2.1 1.2-2.8 1.8-1.2 2.8-1.2 2.1.4 2.8 1.2 1.3 1.7 1.3 2.8m-29.9 51c.5-2.8 2.9-5 5.9-5 1.6 0 3.2.7 4.3 1.8.2.2.6.3.9.3.3-.1.6-.3.7-.6 1.8-4 5.7-6.5 10.1-6.5 2.8 0 5.5 1.1 7.6 3.1.3.3.7.3 1 .2.4-.1.6-.4.7-.8l2.6-17.5h4.3l2.6 17.5c.1.4.3.7.7.8.4.1.7 0 1-.2 2.1-2 4.8-3.1 7.6-3.1 4.3 0 8.3 2.6 10.1 6.5.1.3.4.5.7.6.3.1.7-.1.9-.3 1.1-1.2 2.7-1.8 4.3-1.8 3 0 5.4 2.2 5.9 5h-71.9"/><path fill-opacity="0.5" fill="#503991" d="m194.5 132c0 0 0 0 0 0-.6-3.4-3.5-6-7-6s-6.4 2.6-6.9 6c0 0-.1 0-.1 0h-8c-.6 0-1 .4-1 1s.4 1 1 1h8c0 0 .1 0 .1 0 .5 3.4 3.4 6 6.9 6s6.4-2.6 6.9-6c0 0 .1 0 .1 0h8c.6 0 1-.4 1-1s-.4-1-1-1h-8m-7 6c-2.8 0-5-2.2-5-5s2.2-5 5-5 5 2.2 5 5-2.2 5-5 5"/><path fill-opacity="0.5" fill="#503991" d="m208.8 124.4c-.2-.5-.8-.8-1.3-.6-.5.2-.8.8-.6 1.3 1 2.5 1.5 5.2 1.5 7.9 0 11.6-9.4 21-21 21s-21-9.4-21-21 9.4-21 21-21c4.3 0 8.3 1.3 11.8 3.6-.5.7-.8 1.5-.8 2.4 0 1.1.4 2.1 1.2 2.8.8.8 1.8 1.2 2.8 1.2s2.1-.4 2.8-1.2c.8-.8 1.2-1.8 1.2-2.8s-.4-2.1-1.2-2.8c-1.1-1.1-2.9-1.4-4.4-.8-3.9-2.8-8.6-4.3-13.4-4.3-12.7 0-23 10.3-23 23s10.3 23 23 23 23-10.3 23-23c.1-3.1-.5-6-1.6-8.7m-4.9-7.8c.4.4.6.9.6 1.4s-.2 1-.6 1.4c-.8.8-2.1.8-2.8 0-.4-.4-.6-.9-.6-1.4s.2-1 .6-1.4.9-.6 1.4-.6 1 .2 1.4.6"/><path fill-opacity="0.5" fill="#503991" d="m56.8 69h-1.8v-4.5c0-3-2.5-5.5-5.5-5.5h-7c-3 0-5.5 2.5-5.5 5.5v4.5h-1.8c-1.2 0-2.2 1-2.2 2.2v17.6c0 1.2 1 2.2 2.2 2.2h2.9c.4 2.4 2.4 4.2 4.9 4.2 2.8 0 5-2.2 5-5s-2.2-5-5-5c-2.4 0-4.3 1.6-4.9 3.8h-3c-.1 0-.2-.1-.2-.2v-17.6c0-.1.1-.2.2-.2h2.6c.1 0 .1 0 .2 0h16c.1 0 .1 0 .2 0h2.6c.1 0 .2.1.2.2v17.6c0 .1-.1.2-.2.2h-3.3c-.5 0-1 .4-1 1s.4 1 1 1h3.3c1.2 0 2.2-1 2.2-2.2v-17.6c.1-1.2-.9-2.2-2.1-2.2m-13.8 18.2c1.7 0 3 1.3 3 3s-1.3 3-3 3-3-1.3-3-3 1.4-3 3-3m10-18.2h-14v-4.5c0-1.9 1.6-3.5 3.5-3.5h7c1.9 0 3.5 1.6 3.5 3.5v4.5"/><path fill-opacity="0.5" fill="#503991" d="m49.2 74.3l-4.9 5.3-1.7-1.5c-.4-.4-1-.3-1.4.1-.4.4-.3 1 .1 1.4l2.4 2.2c.1.1.1.1.2.1 0 0 .1 0 .1.1.1 0 .2.1.4.1.1 0 .3 0 .4-.1 0 0 .1-.1.1-.1.1 0 .2-.1.2-.2l5.6-6c.4-.4.4-1-.1-1.4-.3-.4-1-.4-1.4 0"/><path fill-opacity="0.5" fill="#503991" d="m1420.2 19.3c-.1-.9-.6-1.7-1.4-2l-2.6-1.1c.1-.3.1-.6.1-1 0-3.3-2.7-5.9-5.9-5.9s-5.9 2.7-5.9 5.9 2.7 5.9 5.9 5.9c2.2 0 4.2-1.2 5.2-3.1l2.5 1.1c.1.1.2.2.2.3 0 .2-.1.4-.2.4l-7.2 4.3c-.3.2-.4.4-.5.7 0 .3.1.6.3.8l6.6 6.6c.1.1.1.2.1.3s0 .2-.1.3l-2.2 2.2c-.1.1-.4.1-.6 0l-6.6-6.6c-.2-.2-.5-.3-.8-.3s-.6.2-.7.5l-4.4 7.3c-.1.1-.1.2-.2.2-.2 0-.4 0-.5-.3l-12-28.3c-.1-.1 0-.3.1-.5.1-.1.3-.1.5-.1l10.3 4.4c.5.2 1.1 0 1.3-.5.2-.5 0-1.1-.5-1.3l-10.3-4.4c-.9-.4-2-.2-2.6.5-.7.7-.9 1.7-.5 2.7l12 28.3c.3.8 1 1.3 1.9 1.4.1 0 .3.1.4.1.9 0 1.7-.5 2.1-1.2l3.7-6.2 5.7 5.7c.9.9 2.5.9 3.4 0l2.2-2.2c.5-.5.7-1.1.7-1.7s-.3-1.2-.7-1.7l-5.7-5.7 6.1-3.6c.3-.4.8-1.2.8-2.2m-9.9 0c-2.2 0-4.1-1.8-4.1-4.1s1.8-4.1 4.1-4.1 4.1 1.8 4.1 4.1-1.9 4.1-4.1 4.1"/><path fill-opacity="0.5" fill="#503991" d="m1420.8 149.6l-1.7-.5c-.1-.5-.2-.9-.3-1.3l1.3-1.2c.3-.3.4-.8.2-1.2-.6-1.1-1.3-2-2.3-2.9-.3-.3-.8-.3-1.2-.1l-1.5 1c-.4-.2-.8-.4-1.2-.6l-.1-1.8c0-.5-.4-.8-.8-.9-1.2-.2-2.4-.2-3.6 0-.4.1-.8.5-.8.9l-.1 1.8c-.4.2-.8.4-1.2.6l-1.5-1c-.4-.3-.9-.2-1.2.1-.9.8-1.7 1.8-2.3 2.9-.2.4-.1.9.2 1.2l1.3 1.2c-.1.4-.2.9-.3 1.3l-1.7.5c-.4.1-.7.5-.7 1 .1 1.2.3 2.4.8 3.6.2.4.6.7 1.1.6l1.7-.3c.3.4.5.7.9 1.1l-.7 1.6c-.2.4 0 .9.3 1.2 1 .7 2.1 1.3 3.3 1.6.4.1.9-.1 1.1-.5l.9-1.5c.5 0 .9 0 1.4 0l.9 1.5c.2.3.5.5.9.5.1 0 .2 0 .3 0 1.2-.3 2.3-.9 3.3-1.6.4-.3.5-.8.3-1.2l-.7-1.6c.3-.3.6-.7.9-1.1l1.7.3c.5.1.9-.2 1.1-.6.5-1.1.8-2.3.8-3.6 0-.4-.3-.9-.8-1m-1.6 3.1l-1.6-.2c-.4-.1-.8.1-1 .5-.3.6-.8 1.2-1.3 1.6-.3.3-.4.7-.3 1.1l.6 1.5c-.4.2-.8.4-1.3.6l-.8-1.4c-.2-.3-.5-.5-.9-.5-.1 0-.1 0-.2 0-.7.1-1.4.1-2.1 0-.4-.1-.8.1-1 .5l-.8 1.4c-.4-.2-.9-.4-1.3-.6l.6-1.5c.2-.4 0-.8-.3-1.1-.5-.5-1-1-1.3-1.6-.2-.4-.6-.6-1-.5l-1.6.2c-.1-.4-.2-.9-.3-1.4l1.6-.5c.4-.1.7-.5.7-.9 0-.7.2-1.4.5-2 .2-.4.1-.8-.2-1.1l-1.2-1.1c.3-.4.6-.8.9-1.1l1.3.9c.3.2.8.2 1.2 0 .6-.4 1.2-.7 1.9-.9.4-.1.7-.5.7-.9l.1-1.6c.5 0 .9 0 1.4 0l.1 1.6c0 .4.3.8.7.9.7.2 1.3.5 1.9.9.3.2.8.3 1.2 0l1.3-.9c.3.3.6.7.9 1.1l-1.2 1.1c-.3.3-.4.7-.2 1.1.3.6.4 1.3.5 2 0 .4.3.8.7.9l1.6.5c-.3.5-.4.9-.5 1.4"/><path fill-opacity="0.5" fill="#503991" d="m1411.4 146.4c-2.1 0-3.7 1.7-3.7 3.7s1.7 3.7 3.7 3.7 3.7-1.7 3.7-3.7-1.6-3.7-3.7-3.7m0 5.5c-1 0-1.7-.8-1.7-1.7s.8-1.7 1.7-1.7 1.7.8 1.7 1.7-.7 1.7-1.7 1.7"/><path fill-opacity="0.5" fill="#503991" d="m825.6 134.6l-1.7-.5c-.1-.5-.2-.9-.3-1.3l1.3-1.2c.3-.3.4-.8.2-1.2-.6-1.1-1.3-2-2.3-2.9-.3-.3-.8-.3-1.2-.1l-1.5 1c-.4-.2-.8-.4-1.2-.6l-.1-1.8c0-.5-.4-.8-.8-.9-1.2-.2-2.4-.2-3.6 0-.4.1-.8.5-.8.9l-.1 1.8c-.4.2-.8.4-1.2.6l-1.5-1c-.4-.3-.9-.2-1.2.1-.9.8-1.7 1.8-2.3 2.9-.2.4-.1.9.2 1.2l1.3 1.2c-.1.4-.2.9-.3 1.3l-1.7.5c-.4.1-.7.5-.7 1 .1 1.2.3 2.4.8 3.6.2.4.6.7 1.1.6l1.7-.3c.3.4.5.7.9 1.1l-.7 1.6c-.2.4 0 .9.3 1.2 1 .7 2.1 1.3 3.3 1.6.4.1.9-.1 1.1-.5l.9-1.5c.5 0 .9 0 1.4 0l.9 1.5c.2.3.5.5.9.5.1 0 .2 0 .3 0 1.2-.3 2.3-.9 3.3-1.6.4-.3.5-.8.3-1.2l-.7-1.6c.3-.3.6-.7.9-1.1l1.7.3c.5.1.9-.2 1.1-.6.5-1.1.8-2.3.8-3.6-.1-.4-.4-.9-.8-1m-1.7 3.1l-1.6-.2c-.4-.1-.8.1-1 .5-.3.6-.8 1.2-1.3 1.6-.3.3-.4.7-.3 1.1l.6 1.5c-.4.2-.8.4-1.3.6l-.8-1.4c-.2-.3-.5-.5-.9-.5-.1 0-.1 0-.2 0-.7.1-1.4.1-2.1 0-.4-.1-.8.1-1 .5l-.8 1.4c-.4-.2-.9-.4-1.3-.6l.6-1.5c.2-.4 0-.8-.3-1.1-.5-.5-1-1-1.3-1.6-.2-.4-.6-.6-1-.5l-1.6.2c-.1-.4-.2-.9-.3-1.4l1.6-.5c.4-.1.7-.5.7-.9 0-.7.2-1.4.5-2 .2-.4.1-.8-.2-1.1l-1.2-1.1c.3-.4.6-.8.9-1.1l1.3.9c.3.2.8.2 1.2 0 .6-.4 1.2-.7 1.9-.9.4-.1.7-.5.7-.9l.1-1.6c.5 0 .9 0 1.4 0l.1 1.6c0 .4.3.8.7.9.7.2 1.3.5 1.9.9.3.2.8.3 1.2 0l1.3-.9c.3.3.6.7.9 1.1l-1.2 1.1c-.3.3-.4.7-.2 1.1.3.6.4 1.3.5 2 0 .4.3.8.7.9l1.6.5c-.2.5-.3.9-.5 1.4"/><path fill-opacity="0.5" fill="#503991" d="m816.2 131.4c-2.1 0-3.7 1.7-3.7 3.7s1.7 3.7 3.7 3.7 3.7-1.7 3.7-3.7-1.7-3.7-3.7-3.7m0 5.5c-1 0-1.7-.8-1.7-1.7s.8-1.7 1.7-1.7 1.7.8 1.7 1.7-.8 1.7-1.7 1.7"/><path fill-opacity="0.5" fill="#503991" d="m90.6 86.6l-1.7-.5c-.1-.5-.2-.9-.3-1.3l1.3-1.2c.3-.3.4-.8.2-1.2-.6-1.1-1.3-2-2.3-2.9-.3-.3-.8-.3-1.2-.1l-1.5 1c-.4-.2-.8-.4-1.2-.6l-.1-1.8c0-.5-.4-.8-.8-.9-1.2-.2-2.4-.2-3.6 0-.4.1-.8.5-.8.9l-.1 1.8c-.4.2-.8.4-1.2.6l-1.5-1c-.4-.3-.9-.2-1.2.1-.9.8-1.7 1.8-2.3 2.9-.2.4-.1.9.2 1.2l1.3 1.2c-.1.4-.2.9-.3 1.3l-1.7.5c-.4.1-.7.5-.7 1 .1 1.2.3 2.4.8 3.6.2.4.6.7 1.1.6l1.7-.3c.3.4.5.7.9 1.1l-.7 1.6c-.2.4 0 .9.3 1.2 1 .7 2.1 1.3 3.3 1.6.4.1.9-.1 1.1-.5l.9-1.5c.5 0 .9 0 1.4 0l.9 1.5c.2.3.5.5.9.5.1 0 .2 0 .3 0 1.2-.3 2.3-.9 3.3-1.6.4-.3.5-.8.3-1.2l-.7-1.6c.3-.3.6-.7.9-1.1l1.7.3c.5.1.9-.2 1.1-.6.5-1.1.8-2.3.8-3.6-.1-.4-.4-.9-.8-1m-1.7 3.1l-1.6-.2c-.4-.1-.8.1-1 .5-.3.6-.8 1.2-1.3 1.6-.3.3-.4.7-.3 1.1l.6 1.5c-.4.2-.8.4-1.3.6l-.8-1.4c-.2-.3-.5-.5-.9-.5-.1 0-.1 0-.2 0-.7.1-1.4.1-2.1 0-.4-.1-.8.1-1 .5l-.8 1.4c-.4-.2-.9-.4-1.3-.6l.6-1.5c.2-.4 0-.8-.3-1.1-.5-.5-1-1-1.3-1.6-.2-.4-.6-.6-1-.5l-1.6.2c-.1-.4-.2-.9-.3-1.4l1.6-.5c.4-.1.7-.5.7-.9 0-.7.2-1.4.5-2 .2-.4.1-.8-.2-1.1l-1.2-1.1c.3-.4.6-.8.9-1.1l1.3.9c.3.2.8.2 1.2 0 .6-.4 1.2-.7 1.9-.9.4-.1.7-.5.7-.9l.1-1.6c.5 0 .9 0 1.4 0l.1 1.6c0 .4.3.8.7.9.7.2 1.3.5 1.9.9.3.2.8.3 1.2 0l1.3-.9c.3.3.6.7.9 1.1l-1.2 1.1c-.3.3-.4.7-.2 1.1.3.6.4 1.3.5 2 0 .4.3.8.7.9l1.6.5c-.2.5-.3.9-.5 1.4"/><path fill-opacity="0.5" fill="#503991" d="m81.2 83.4c-2.1 0-3.7 1.7-3.7 3.7s1.7 3.7 3.7 3.7 3.7-1.7 3.7-3.7-1.7-3.7-3.7-3.7m0 5.5c-1 0-1.7-.8-1.7-1.7s.8-1.7 1.7-1.7 1.7.8 1.7 1.7-.8 1.7-1.7 1.7"/><path fill-opacity="0.5" fill="#503991" d="m1409 84c-.1 0-.3 0-.4-.1-.3-.1-.5-.3-.5-.6l-3-10c-.1-.4 0-.8.4-1.1 1-.8 1.6-2 1.6-3.2 0-2.2-1.8-4-4-4s-4 1.8-4 4c0 1.2.6 2.4 1.6 3.2.3.3.5.7.4 1.1l-3 10c-.1.3-.3.5-.5.6-.3.1-.6.1-.8 0-5.7-2.5-9.6-8.5-9.6-14.9 0-9.1 7.5-17 16-17s16 7.9 16 17c0 6.4-3.9 12.4-9.6 14.9-.3.1-.5.1-.6.1m-6-30c-7.5 0-14 7-14 15 0 5.2 2.9 10.2 7.4 12.6l2.5-8.3c-1.2-1.1-1.9-2.7-1.9-4.3 0-3.3 2.7-6 6-6s6 2.7 6 6c0 1.6-.7 3.2-1.9 4.3l2.5 8.2c4.5-2.4 7.4-7.4 7.4-12.6 0-7.9-6.5-14.9-14-14.9"/></svg>
