<svg viewBox="0 0 76 76" width="76" height="76" xmlns="http://www.w3.org/2000/svg"><path d="m69.9 0h-64.9a5 5 0 0 0-5 5v66a5 5 0 0 0 5 5h64.9a6.11 6.11 0 0 0 6.1-6.1v-63.8a6.11 6.11 0 0 0-6.1-6.1zm-64.9 2h64.9a4.11 4.11 0 0 1 4.1 4.1v2.9h-72v-4a3 3 0 0 1 3-3zm64.9 72h-64.9a3 3 0 0 1-3-3v-27h14.05a13 13 0 0 0 12.95 12 1 1 0 0 0  1-1v-24a1 1 0 0 0-1-1 13 13 0 0 0-12.95 12h-14.05v-31h72v31h-15.05a13 13 0 0 0-12.95-12 1 1 0 0 0-1 1v6h-9a1 1 0 0 0 0 2h9v8h-9a1 1 0 0 0 0 2h9v6a1 1 0 0 0 1 1 13 13 0 0 0  12.95-12h15.05v25.9a4.11 4.11 0 0 1-4.1 4.1zm-51.9-31a11 11 0 0 1 10-11v22a11 11 0 0 1-10-11zm29-11a11 11 0 0 1 0 22z"/><path d="m7.5 7a1.5 1.5 0 1 0-1.5-1.5 1.5 1.5 0 0 0  1.5 1.5zm0-2a .5.5 0 1 1-.5.5.5.5 0 0 1  .5-.5z"/><path d="m12.5 7a1.5 1.5 0 1 0-1.5-1.5 1.5 1.5 0 0 0  1.5 1.5zm0-2a .5.5 0 1 1-.5.5.5.5 0 0 1  .5-.5z"/><path d="m17.5 7a1.5 1.5 0 1 0-1.5-1.5 1.5 1.5 0 0 0  1.5 1.5zm0-2a .5.5 0 1 1-.5.5.5.5 0 0 1  .5-.5z"/></svg>
