<svg viewBox="0 0 76 76" width="76" height="76" xmlns="http://www.w3.org/2000/svg"><path d="m51.44 25.18v-.06a1.69 1.69 0 0 0-1.63-1.12h0a1.73 1.73 0 0 0-1.64 1.2l-3.97 12.8h-12.39l-2.44-8.08v0l-1.53-4.71a1.69 1.69 0 0 0-1.63-1.21h0a1.73 1.73 0 0 0-1.64 1.18l-4.16 12.82v.06l-2.11 6.49a2.43 2.43 0 0 0  .88 2.72l18.23 13.25a1 1 0 0 0  .59.19 1 1 0 0 0  .59-.19l18.25-13.26a2.43 2.43 0 0 0 1-1.7 2.4 2.4 0 0 0-.1-1zm4.23 20.46l-17.67 12.84-17.66-12.83a.44.44 0 0 1-.16-.49l6-18.54 1.26 3.88 2.65 8.78a1 1 0 0 0 1 .71h13.85a1 1 0 0 0 1-.7l3.91-12.66 6 18.52a.42.42 0 0 1 0 .18.43.43 0 0 1-.18.32z"/><path d="m69.9 0h-64.9a5 5 0 0 0-5 5v66a5 5 0 0 0 5 5h64.9a6.11 6.11 0 0 0 6.1-6.1v-63.8a6.11 6.11 0 0 0-6.1-6.1zm-64.9 2h64.9a4.11 4.11 0 0 1 4.1 4.1v2.9h-72v-4a3 3 0 0 1 3-3zm64.9 72h-64.9a3 3 0 0 1-3-3v-60h72v58.9a4.11 4.11 0 0 1-4.1 4.1z"/><path d="m7.5 7a1.5 1.5 0 1 0-1.5-1.5 1.5 1.5 0 0 0  1.5 1.5zm0-2a .5.5 0 1 1-.5.5.5.5 0 0 1  .5-.5z"/><path d="m12.5 7a1.5 1.5 0 1 0-1.5-1.5 1.5 1.5 0 0 0  1.5 1.5zm0-2a .5.5 0 1 1-.5.5.5.5 0 0 1  .5-.5z"/><path d="m17.5 7a1.5 1.5 0 1 0-1.5-1.5 1.5 1.5 0 0 0  1.5 1.5zm0-2a .5.5 0 1 1-.5.5.5.5 0 0 1  .5-.5z"/></svg>
