<svg viewBox="0 0 76 76" width="76" height="76" xmlns="http://www.w3.org/2000/svg"><path d="m52.5 23h-29a5 5 0 0 0-5 5v29c0 .14 0 .29 0 .43a5 5 0 0 0 5 4.57h29a5 5 0 0 0 5-5v-29a5 5 0 0 0-5-5zm3 34a3 3 0 0 1-3 3h-29a3 3 0 0 1-3-2.74c0-.09 0-.17 0-.26v-29a3 3 0 0 1 3-3h29a3 3 0 0 1 3 3z"/><path d="m29.08 34.28a1 1 0 0 0-1.41 1.41l6.81 6.81-6.81 6.81a1 1 0 1 0 1.41 1.41l7.52-7.52a1 1 0 0 0 0-1.41z"/><path d="m48.5 49h-10a1 1 0 0 0 0 2h10a1 1 0 0 0 0-2z"/><path d="m69.9 0h-64.9a5 5 0 0 0-5 5v66a5 5 0 0 0 5 5h64.9a6.11 6.11 0 0 0 6.1-6.1v-63.8a6.11 6.11 0 0 0-6.1-6.1zm-64.9 2h64.9a4.11 4.11 0 0 1 4.1 4.1v2.9h-72v-4a3 3 0 0 1 3-3zm64.9 72h-64.9a3 3 0 0 1-3-3v-60h72v58.9a4.11 4.11 0 0 1-4.1 4.1z"/><path d="m7.5 7a1.5 1.5 0 1 0-1.5-1.5 1.5 1.5 0 0 0  1.5 1.5zm0-2a .5.5 0 1 1-.5.5.5.5 0 0 1  .5-.5z"/><path d="m12.5 7a1.5 1.5 0 1 0-1.5-1.5 1.5 1.5 0 0 0  1.5 1.5zm0-2a .5.5 0 1 1-.5.5.5.5 0 0 1  .5-.5z"/><path d="m17.5 7a1.5 1.5 0 1 0-1.5-1.5 1.5 1.5 0 0 0  1.5 1.5zm0-2a .5.5 0 1 1-.5.5.5.5 0 0 1  .5-.5z"/></svg>
