<svg viewBox="0 0 76 76" width="76" height="76" xmlns="http://www.w3.org/2000/svg"><path d="m69.9 0h-64.9a5 5 0 0 0-5 5v66a5 5 0 0 0 5 5h64.9a6.11 6.11 0 0 0 6.1-6.1v-63.8a6.11 6.11 0 0 0-6.1-6.1zm-64.9 2h64.9a4.11 4.11 0 0 1 4.1 4.1v2.9h-72v-4a3 3 0 0 1 3-3zm64.9 72h-64.9a3 3 0 0 1-3-3v-60h72v58.9a4.11 4.11 0 0 1-4.1 4.1z"/><path d="m7.5 7a1.5 1.5 0 1 0-1.5-1.5 1.5 1.5 0 0 0  1.5 1.5zm0-2a .5.5 0 1 1-.5.5.5.5 0 0 1  .5-.5z"/><path d="m12.5 7a1.5 1.5 0 1 0-1.5-1.5 1.5 1.5 0 0 0  1.5 1.5zm0-2a .5.5 0 1 1-.5.5.5.5 0 0 1  .5-.5z"/><path d="m17.5 7a1.5 1.5 0 1 0-1.5-1.5 1.5 1.5 0 0 0  1.5 1.5zm0-2a .5.5 0 1 1-.5.5.5.5 0 0 1  .5-.5z"/><path d="m58.14 39.46a5.65 5.65 0 0 0-3.14.31v-11.77a1 1 0 0 0-1-1h-11.77a5.64 5.64 0 1 0-10.46 0h-11.77a1 1 0 0 0-1 1v13.55a1 1 0 0 0 1.67.75 3.64 3.64 0 1 1  0 5.41 1 1 0 0 0-1.67.74v13.55a1 1 0 0 0 1 1h13.55a1 1 0 0 0  .75-1.67 3.65 3.65 0 0 1-.87-3.12 3.64 3.64 0 1 1  6.28 3.12 1 1 0 0 0  .74 1.67h13.55a1 1 0 0 0 1-1v-11.77a5.64 5.64 0 1 0 3.14-10.77zm1.77 7.83a3.63 3.63 0 0 1-5.24.41 1 1 0 0 0-1.67.74v12.56h-10.77a5.63 5.63 0 0 0-1.67-6.46 5.63 5.63 0 0 0-8.79 6.46h-10.77v-10.77a5.64 5.64 0 1 0 0-10.46v-10.77h12.55a1 1 0 0 0  .74-1.67 3.64 3.64 0 1 1  5.41 0 1 1 0 0 0  .75 1.67h12.55v12.55a1 1 0 0 0 1.67.75 3.63 3.63 0 0 1  5.25 5z"/></svg>
