<svg viewBox="0 0 76 76" width="76" height="76" xmlns="http://www.w3.org/2000/svg"><path d="m69.9 0h-64.9a5 5 0 0 0-5 5v66a5 5 0 0 0 5 5h64.9a6.11 6.11 0 0 0 6.1-6.1v-63.8a6.11 6.11 0 0 0-6.1-6.1zm-64.9 2h64.9a4.11 4.11 0 0 1 4.1 4.1v2.9h-72v-4a3 3 0 0 1 3-3zm64.9 72h-64.9a3 3 0 0 1-3-3v-60h72v58.9a4.11 4.11 0 0 1-4.1 4.1z"/><path d="m7.5 7a1.5 1.5 0 1 0-1.5-1.5 1.5 1.5 0 0 0  1.5 1.5zm0-2a .5.5 0 1 1-.5.5.5.5 0 0 1  .5-.5z"/><path d="m12.5 7a1.5 1.5 0 1 0-1.5-1.5 1.5 1.5 0 0 0  1.5 1.5zm0-2a .5.5 0 1 1-.5.5.5.5 0 0 1  .5-.5z"/><path d="m17.5 7a1.5 1.5 0 1 0-1.5-1.5 1.5 1.5 0 0 0  1.5 1.5zm0-2a .5.5 0 1 1-.5.5.5.5 0 0 1  .5-.5z"/><path d="m37.5 28.09a4.55 4.55 0 0 0 2.41-.7l10.55 10.37a1.06 1.06 0 0 0 1.49-1.51l-10.54-10.36a4.58 4.58 0 1 0-3.91 2.2zm-1.7-6.29a2.41 2.41 0 1 1 3.4 3.4 2.46 2.46 0 0 1-3.4 0 2.4 2.4 0 0 1  0-3.4z"/><path d="m57.5 37.91a4.58 4.58 0 0 0-3.9 7l-10.36 10.55a1.06 1.06 0 0 0 1.51 1.49l10.36-10.54a4.59 4.59 0 1 0 2.39-8.5zm1.7 6.29a2.46 2.46 0 0 1-3.4 0 2.41 2.41 0 1 1  3.4 0z"/><path d="m37.5 57.91a4.55 4.55 0 0 0-2.37.67l-9.55-10.3a1.06 1.06 0 1 0-1.58 1.44l9.59 10.35a4.58 4.58 0 1 0 3.88-2.16zm1.7 6.29a2.46 2.46 0 0 1-3.4 0 2.41 2.41 0 1 1  3.4 0z"/><path d="m32.72 30.58a1.06 1.06 0 1 0-1.44-1.58l-10.35 9.62a4.65 4.65 0 1 0 1.48 1.51zm-12.52 13.62a2.46 2.46 0 0 1-3.4 0 2.41 2.41 0 1 1  3.4 0z"/></svg>
