<svg viewBox="0 0 76 76" width="76" height="76" xmlns="http://www.w3.org/2000/svg"><path d="m29 54a1 1 0 0 0 0-2h-1v-6a1 1 0 0 0-2 0v6h-17a1 1 0 0 0 0 2z"/><path d="m27 34a1 1 0 0 0-1 1v7h-5a1 1 0 0 0 0 2h10a1 1 0 0 0 0-2h-3v-7a1 1 0 0 0-1-1z"/><path d="m60 23h-29a5 5 0 0 0-5 5v3h-11a1 1 0 0 0 0 2h16a1 1 0 0 0 0-2h-3v-3a3 3 0 0 1 3-3h29a3 3 0 0 1 3 3v29a3 3 0 0 1-3 3h-29a3 3 0 0 1-3-2.72c0-.17 0-1.17 0-1.28a1 1 0 0 0-2 0c0 .12 0 1.31 0 1.43a5 5 0 0 0 5 4.57h29a5 5 0 0 0 5-5v-29a5 5 0 0 0-5-5z"/><path d="m35.17 50.72a1 1 0 0 0 1.41 0l7.52-7.52a1 1 0 0 0 0-1.41l-7.52-7.52a1 1 0 0 0-1.41 1.41l6.83 6.82-6.81 6.81a1 1 0 0 0-.02 1.41z"/><path d="m56 51a1 1 0 0 0 0-2h-10a1 1 0 0 0 0 2z"/><path d="m69.9 0h-64.9a5 5 0 0 0-5 5v66a5 5 0 0 0 5 5h64.9a6.11 6.11 0 0 0 6.1-6.1v-63.8a6.11 6.11 0 0 0-6.1-6.1zm-64.9 2h64.9a4.11 4.11 0 0 1 4.1 4.1v2.9h-72v-4a3 3 0 0 1 3-3zm64.9 72h-64.9a3 3 0 0 1-3-3v-60h72v58.9a4.11 4.11 0 0 1-4.1 4.1z"/><path d="m7.5 7a1.5 1.5 0 1 0-1.5-1.5 1.5 1.5 0 0 0  1.5 1.5zm0-2a .5.5 0 1 1-.5.5.5.5 0 0 1  .5-.5z"/><path d="m12.5 7a1.5 1.5 0 1 0-1.5-1.5 1.5 1.5 0 0 0  1.5 1.5zm0-2a .5.5 0 1 1-.5.5.5.5 0 0 1  .5-.5z"/><path d="m17.5 7a1.5 1.5 0 1 0-1.5-1.5 1.5 1.5 0 0 0  1.5 1.5zm0-2a .5.5 0 1 1-.5.5.5.5 0 0 1  .5-.5z"/></svg>
