<svg viewBox="0 0 76 76" width="76" height="76" xmlns="http://www.w3.org/2000/svg"><path d="m61.29 30h-1.29a1 1 0 0 0 0 2h1.29a1.71 1.71 0 0 1 1.71 1.71v17.58a1.71 1.71 0 0 1-1.71 1.71h-1.29a1 1 0 0 0 0 2h1.29a3.71 3.71 0 0 0 3.71-3.71v-17.58a3.71 3.71 0 0 0-3.71-3.71z"/><path d="m14.71 32h2.29a1 1 0 0 0 0-2h-2.29a3.71 3.71 0 0 0-3.71 3.71v17.58a3.71 3.71 0 0 0 3.71 3.71h2.29a1 1 0 0 0 0-2h-2.29a1.71 1.71 0 0 1-1.71-1.71v-17.58a1.71 1.71 0 0 1 1.71-1.71z"/><path d="m52.65 23h-28.3a5.36 5.36 0 0 0-5.35 5.35v28.3a5.36 5.36 0 0 0 5.35 5.35h28.3a5.36 5.36 0 0 0 5.35-5.35v-28.3a5.36 5.36 0 0 0-5.35-5.35zm3.35 33.65a3.36 3.36 0 0 1-3.35 3.35h-28.3a3.36 3.36 0 0 1-3.35-3.35v-28.3a3.36 3.36 0 0 1 3.35-3.35h28.3a3.36 3.36 0 0 1 3.35 3.35z"/><path d="m49 35a4 4 0 0 0-3.86 3h-13.28a4 4 0 1 0 0 2h3.14c.59 0 1 1 1 1.93v3.64a3.43 3.43 0 0 0 3.43 3.43h2.71a4 4 0 1 0 0-2h-2.71a1.43 1.43 0 0 1-1.43-1.43v-3.64a5.14 5.14 0 0 0-.38-1.93h7.52a4 4 0 1 0 3.86-5zm-3 11a2 2 0 1 1-2 2 2 2 0 0 1  2-2zm-18-5a2 2 0 1 1 2-2 2 2 0 0 1-2 2zm21 0a2 2 0 1 1 2-2 2 2 0 0 1-2 2z"/><path d="m69.9 0h-64.9a5 5 0 0 0-5 5v66a5 5 0 0 0 5 5h64.9a6.11 6.11 0 0 0 6.1-6.1v-63.8a6.11 6.11 0 0 0-6.1-6.1zm-64.9 2h64.9a4.11 4.11 0 0 1 4.1 4.1v2.9h-72v-4a3 3 0 0 1 3-3zm64.9 72h-64.9a3 3 0 0 1-3-3v-60h72v58.9a4.11 4.11 0 0 1-4.1 4.1z"/><path d="m7.5 7a1.5 1.5 0 1 0-1.5-1.5 1.5 1.5 0 0 0  1.5 1.5zm0-2a .5.5 0 1 1-.5.5.5.5 0 0 1  .5-.5z"/><path d="m12.5 7a1.5 1.5 0 1 0-1.5-1.5 1.5 1.5 0 0 0  1.5 1.5zm0-2a .5.5 0 1 1-.5.5.5.5 0 0 1  .5-.5z"/><path d="m17.5 7a1.5 1.5 0 1 0-1.5-1.5 1.5 1.5 0 0 0  1.5 1.5zm0-2a .5.5 0 1 1-.5.5.5.5 0 0 1  .5-.5z"/></svg>
