<svg viewBox="0 0 76 76" width="76" height="76" xmlns="http://www.w3.org/2000/svg"><path d="m69.9 0h-64.9a5 5 0 0 0-5 5v66a5 5 0 0 0 5 5h64.9a6.11 6.11 0 0 0 6.1-6.1v-63.8a6.11 6.11 0 0 0-6.1-6.1zm-64.9 2h64.9a4.11 4.11 0 0 1 4.1 4.1v2.9h-72v-4a3 3 0 0 1 3-3zm64.9 72h-64.9a3 3 0 0 1-3-3v-60h72v58.9a4.11 4.11 0 0 1-4.1 4.1z"/><path d="m46 29h-16a5 5 0 0 0-5 5v16a5 5 0 0 0 5 5h16a5 5 0 0 0 5-5v-16a5 5 0 0 0-5-5zm3 21a3 3 0 0 1-3 3h-16a3 3 0 0 1-3-3v-16a3 3 0 0 1 3-3h16a3 3 0 0 1 3 3z"/><path d="m57 18h-16a5 5 0 0 0-5 5v3a1 1 0 0 0 2 0v-3a3 3 0 0 1 3-3h16a3 3 0 0 1 3 3v16a3 3 0 0 1-3 3h-3a1 1 0 0 0 0 2h3a5 5 0 0 0 5-5v-16a5 5 0 0 0-5-5z"/><path d="m38 57a1 1 0 0 0-1 1v4a3 3 0 0 1-3 3h-16a3 3 0 0 1-3-3v-16a3 3 0 0 1 3-3h4a1 1 0 0 0 0-2h-4a5 5 0 0 0-5 5v16a5 5 0 0 0 5 5h16a5 5 0 0 0 5-5v-4a1 1 0 0 0-1-1z"/><path d="m7.5 7a1.5 1.5 0 1 0-1.5-1.5 1.5 1.5 0 0 0  1.5 1.5zm0-2a .5.5 0 1 1-.5.5.5.5 0 0 1  .5-.5z"/><path d="m12.5 7a1.5 1.5 0 1 0-1.5-1.5 1.5 1.5 0 0 0  1.5 1.5zm0-2a .5.5 0 1 1-.5.5.5.5 0 0 1  .5-.5z"/><path d="m17.5 7a1.5 1.5 0 1 0-1.5-1.5 1.5 1.5 0 0 0  1.5 1.5zm0-2a .5.5 0 1 1-.5.5.5.5 0 0 1  .5-.5z"/></svg>
