<svg viewBox="0 0 76 76" width="76" height="76" xmlns="http://www.w3.org/2000/svg"><path d="m58.34 23.58a5 5 0 0 0-5.44 8.33l-5.6 10.27a4.95 4.95 0 0 0-5.23 1.73l-7.25-3.63a5 5 0 1 0-7.91 2.63l-5.6 10.26a5 5 0 1 0-1.31 9.83 5 5 0 0 0  4.79-6.47 5 5 0 0 0-1.69-2.45l5.6-10.26a4.94 4.94 0 0 0 1.3.18 5 5 0 0 0  1.47-.22 5 5 0 0 0  2.46-1.7l7.25 3.63a5 5 0 1 0 7.91-2.63l5.6-10.26a4.94 4.94 0 0 0 1.31.18 5 5 0 0 0  2.35-9.42zm-35.69 35.83h0a3 3 0 1 1  .22-2.29 3 3 0 0 1-.22 2.29zm10-19a3 3 0 0 1-4.05 1.24h0a3 3 0 1 1 4.05-1.24zm16 8h0a3 3 0 1 1  .22-2.29 3 3 0 0 1-.22 2.29zm10-19a3 3 0 0 1-4.05 1.24h0a3 3 0 1 1 4.05-1.24z"/><path d="m69.9 0h-64.9a5 5 0 0 0-5 5v66a5 5 0 0 0 5 5h64.9a6.11 6.11 0 0 0 6.1-6.1v-63.8a6.11 6.11 0 0 0-6.1-6.1zm-64.9 2h64.9a4.11 4.11 0 0 1 4.1 4.1v2.9h-72v-4a3 3 0 0 1 3-3zm64.9 72h-64.9a3 3 0 0 1-3-3v-60h72v58.9a4.11 4.11 0 0 1-4.1 4.1z"/><path d="m7.5 7a1.5 1.5 0 1 0-1.5-1.5 1.5 1.5 0 0 0  1.5 1.5zm0-2a .5.5 0 1 1-.5.5.5.5 0 0 1  .5-.5z"/><path d="m12.5 7a1.5 1.5 0 1 0-1.5-1.5 1.5 1.5 0 0 0  1.5 1.5zm0-2a .5.5 0 1 1-.5.5.5.5 0 0 1  .5-.5z"/><path d="m17.5 7a1.5 1.5 0 1 0-1.5-1.5 1.5 1.5 0 0 0  1.5 1.5zm0-2a .5.5 0 1 1-.5.5.5.5 0 0 1  .5-.5z"/></svg>
