<svg viewBox="0 0 76 76" width="76" height="76" xmlns="http://www.w3.org/2000/svg"><path d="m69.9 0h-64.9a5 5 0 0 0-5 5v66a5 5 0 0 0 5 5h64.9a6.11 6.11 0 0 0 6.1-6.1v-63.8a6.11 6.11 0 0 0-6.1-6.1zm-64.9 2h64.9a4.11 4.11 0 0 1 4.1 4.1v2.9h-72v-4a3 3 0 0 1 3-3zm64.9 72h-64.9a3 3 0 0 1-3-3v-60h72v58.9a4.11 4.11 0 0 1-4.1 4.1z"/><path d="m7.5 7a1.5 1.5 0 1 0-1.5-1.5 1.5 1.5 0 0 0  1.5 1.5zm0-2a .5.5 0 1 1-.5.5.5.5 0 0 1  .5-.5z"/><path d="m12.5 7a1.5 1.5 0 1 0-1.5-1.5 1.5 1.5 0 0 0  1.5 1.5zm0-2a .5.5 0 1 1-.5.5.5.5 0 0 1  .5-.5z"/><path d="m17.5 7a1.5 1.5 0 1 0-1.5-1.5 1.5 1.5 0 0 0  1.5 1.5zm0-2a .5.5 0 1 1-.5.5.5.5 0 0 1  .5-.5z"/><path d="m39 57.1v-7.1a1 1 0 0 0-2 0v7.1a5 5 0 1 0 2 0zm-1 7.9a3 3 0 1 1 3-3 3 3 0 0 1-3 3z"/><path d="m38 17a5 5 0 1 0 5 5 5 5 0 0 0-5-5zm0 8a3 3 0 1 1 3-3 3 3 0 0 1-3 3z"/><path d="m39 37.1v-7.1a1 1 0 0 0-2 0v7.1a5 5 0 1 0 2 0zm-1 7.9a3 3 0 1 1 3-3 3 3 0 0 1-3 3z"/><path d="m58 57a5 5 0 0 0-4.9 4h-7.1a1 1 0 0 0 0 2h7.1a5 5 0 1 0 4.9-6zm0 8a3 3 0 1 1 3-3 3 3 0 0 1-3 3z"/><path d="m46 43h11v11a1 1 0 0 0 2 0v-12a1 1 0 0 0-1-1h-12a1 1 0 0 0 0 2z"/><path d="m30 61h-7.1a5 5 0 1 0 0 2h7.1a1 1 0 0 0 0-2zm-12 4a3 3 0 1 1 3-3 3 3 0 0 1-3 3z"/><path d="m30 41h-12a1 1 0 0 0-1 1v12a1 1 0 0 0 2 0v-11h11a1 1 0 0 0 0-2z"/></svg>
