<svg viewBox="0 0 76 76" width="76" height="76" xmlns="http://www.w3.org/2000/svg"><path d="m69.9 0h-64.9a5 5 0 0 0-5 5v66a5 5 0 0 0 5 5h64.9a6.11 6.11 0 0 0 6.1-6.1v-63.8a6.11 6.11 0 0 0-6.1-6.1zm-64.9 2h64.9a4.11 4.11 0 0 1 4.1 4.1v2.9h-72v-4a3 3 0 0 1 3-3zm64.9 72h-64.9a3 3 0 0 1-3-3v-60h72v58.9a4.11 4.11 0 0 1-4.1 4.1z"/><path d="m7.5 7a1.5 1.5 0 1 0-1.5-1.5 1.5 1.5 0 0 0  1.5 1.5zm0-2a .5.5 0 1 1-.5.5.5.5 0 0 1  .5-.5z"/><path d="m12.5 7a1.5 1.5 0 1 0-1.5-1.5 1.5 1.5 0 0 0  1.5 1.5zm0-2a .5.5 0 1 1-.5.5.5.5 0 0 1  .5-.5z"/><path d="m17.5 7a1.5 1.5 0 1 0-1.5-1.5 1.5 1.5 0 0 0  1.5 1.5zm0-2a .5.5 0 1 1-.5.5.5.5 0 0 1  .5-.5z"/><path d="m49.84 23.5a1 1 0 0 0-.84-.5h-22a1 1 0 0 0-.87.5l-11 19a1 1 0 0 0 0 1l11 19a1 1 0 0 0  .87.5h22a1 1 0 0 0  .87-.5l11-19a1 1 0 0 0 0-1zm-1.45 37.5h-20.78l-10.4-18 10.4-18h20.78l10.4 18z"/><path d="m38 35a8 8 0 1 0 8 8 8 8 0 0 0-8-8zm0 14a6 6 0 1 1 6-6 6 6 0 0 1-6 6z"/></svg>
