<svg xmlns="http://www.w3.org/2000/svg" viewBox="0 0 76 76" enable-background="new 0 0 76 76"><path d="m74.69 28.11c-1.219-4.517-3.224-8.695-5.946-12.439.812-1.046 1.257-2.321 1.257-3.666 0-1.603-.624-3.109-1.758-4.243-1.133-1.133-2.639-1.757-4.242-1.757s-3.109.624-4.242 1.757c-1.134 1.134-1.758 2.64-1.758 4.243s.624 3.109 1.758 4.243c1.133 1.133 2.639 1.757 4.242 1.757 1.177 0 2.301-.339 3.264-.967 2.508 3.497 4.36 7.389 5.494 11.593 5.17 19.17-6.218 38.963-25.384 44.13-19.17 5.171-38.964-6.219-44.13-25.384-5.17-19.17 6.218-38.963 25.384-44.13 7.572-2.042 15.416-1.591 22.683 1.306.508.206 1.094-.044 1.299-.558.205-.513-.045-1.095-.559-1.299-7.67-3.059-15.948-3.538-23.944-1.379-20.231 5.455-32.25 26.353-26.794 46.584 2.644 9.8 8.944 17.983 17.743 23.05 5.843 3.36 12.321 5.076 18.885 5.076 3.321 0 6.664-.439 9.957-1.327 20.23-5.458 32.25-26.355 26.793-46.585m-13.517-13.276c-.756-.756-1.172-1.761-1.172-2.829s.416-2.073 1.172-2.829c.756-.755 1.76-1.171 2.828-1.171s2.072.416 2.828 1.171c.756.756 1.172 1.761 1.172 2.829s-.416 2.073-1.172 2.829c-1.512 1.51-4.144 1.51-5.656 0"/><path d="m42 38c0-1.858-1.279-3.411-3-3.858v-25.14c0-.552-.447-1-1-1s-1 .448-1 1v25.14c-1.721.447-3 2-3 3.858 0 2.206 1.794 4 4 4 .599 0 1.162-.141 1.673-.378l11.87 11.87c.195.195.451.293.707.293s.512-.098.707-.293c.391-.391.391-1.023 0-1.414l-11.732-11.732c.482-.661.775-1.467.775-2.346m-6 0c0-1.103.897-2 2-2s2 .897 2 2c0 1.103-.897 2-2 2s-2-.897-2-2"/></svg>