<svg xmlns="http://www.w3.org/2000/svg" viewBox="0 0 76 76" enable-background="new 0 0 76 76"><path d="m21.52 57c-.261 0-.522-.1-.721-.299-.399-.399-.399-1.046 0-1.445l13.238-13.256-13.238-13.256c-.399-.399-.399-1.046 0-1.445.399-.399 1.044-.399 1.443 0l13.959 13.979c.191.192.299.451.299.722s-.108.531-.299.722l-13.959 13.979c-.2.199-.461.299-.722.299"/><path d="m54.56 56.998h-12.12c-.519 0-.94-.446-.94-.998s.42-.998.94-.998h12.12c.519 0 .94.446.94.998s-.42.998-.94.998"/><path d="m66.807 9.647h-5.899c-.67-5.428-5.301-9.647-10.908-9.647-6.06 0-11 4.935-11 11s4.935 11 11 11c5.848 0 10.631-4.592 10.967-10.357h5.84c1.218 0 2.208.996 2.208 2.22v57.922c0 1.224-.99 2.22-2.208 2.22h-57.61c-1.218 0-2.208-.996-2.208-2.22v-57.922c0-1.224.99-2.22 2.208-2.22h14.699c.549 0 .992-.446.992-.998 0-.552-.444-.998-.992-.998h-14.699c-2.312 0-4.193 1.892-4.193 4.216v57.922c0 2.324 1.881 4.215 4.193 4.215h57.61c2.312 0 4.193-1.891 4.193-4.216v-57.921c0-2.324-1.881-4.216-4.193-4.216m-16.807 10.353c-4.963 0-9-4.04-9-9 0-4.963 4.04-9 9-9 4.962 0 9 4.04 9 9 0 4.963-4.04 9-9 9"/></svg>
