<svg xmlns="http://www.w3.org/2000/svg" viewBox="0 0 528 380" enable-background="new 0 0 528 380"><path d="m200.17 155.16c14.78 29.332 36.866 44.836 63.87 44.836 17.08 0 32.27-6.542 45.14-19.445 26.16-26.22 34.883-70.64 34.846-86.88-.063-27.467-4.917-48.22-14.84-63.43-13.09-20.07-35-30.25-65.15-30.25-24.365 0-43.62 7.07-57.23 21-15.656 16.03-23.538 41.21-22.792 72.809.252 10.632 3.95 37.14 16.15 61.35m13.795-127.18c11.657-11.934 28.505-17.986 50.08-17.986 47.617 0 69.856 26.597 69.988 83.7.038 16.626-9.286 57.1-31.925 79.79-10.928 10.954-23.735 16.508-38.06 16.508-55.692 0-69.57-77.3-70.02-96.43-.476-20.12 2.599-47.823 19.947-65.59"/><path d="m389.01 152.95c9.242 17.697 23.1 27.05 40.07 27.05 11.06 0 20.841-4.186 29.08-12.442 15.704-15.743 20.939-41.768 20.916-51.22-.09-37.38-16.91-56.33-49.993-56.33-15.456 0-27.643 4.457-36.22 13.247-9.477 9.711-14.246 24.658-13.791 43.22.154 6.332 2.43 22.1 9.936 36.479m11.01-72.72c6.624-6.788 16.403-10.23 29.06-10.23 27.582 0 39.916 14.298 39.993 46.36.017 6.951-4.217 30.32-17.996 44.14-6.291 6.307-13.692 9.505-21.997 9.505-31.813 0-39.754-43.1-40.01-53.775-.269-11.02 1.412-26.22 10.952-35.995"/><path d="m527.86 223.05c-4.737-19.888-16.539-22.16-29.03-24.563-9.575-1.842-20.428-3.93-32.992-13.543-1.492-1.142-3.498-1.351-5.194-.54-1.658.793-2.745 2.429-2.837 4.258-.863 1.84-9.307 6.283-24.878 6.283-15.576 0-24.02-4.443-24.884-6.283-.092-1.829-1.179-3.465-2.837-4.258-1.696-.811-3.702-.602-5.194.54-12.562 9.611-23.415 11.699-32.99 13.541-11.155 2.146-21.753 4.197-27.27 18.758-7-3.236-14.339-7.516-21.95-13.339-1.492-1.141-3.498-1.351-5.194-.54-1.696.811-2.794 2.503-2.842 4.382-.058 2.233-3.771 5.838-11.938 8.856-9.14 3.377-21.365 5.238-34.425 5.238-13.06 0-25.295-1.86-34.435-5.238-8.166-3.02-11.88-6.623-11.938-8.857-.048-1.878-1.146-3.571-2.842-4.382-1.696-.81-3.702-.601-5.194.54-7.242 5.541-14.235 9.679-20.93 12.856-5.544-14.12-16.03-16.15-27.09-18.275-9.575-1.842-20.429-3.93-32.99-13.541-1.492-1.142-3.498-1.351-5.194-.54-1.658.793-2.745 2.43-2.837 4.258-.862 1.84-9.308 6.283-24.884 6.283-15.571 0-24.02-4.443-24.878-6.283-.092-1.829-1.179-3.465-2.837-4.258-1.695-.811-3.702-.602-5.194.54-12.564 9.613-23.417 11.701-32.992 13.543-12.495 2.404-24.297 4.675-29.03 24.563-.323 1.361-.063 2.795.719 3.954 8.179 12.13 18.495 22.438 30.662 30.642.165.111.338.202.51.291-.014.355-.026.71-.026 1.068 0 13.785 11.215 25 25 25s25-11.215 25-25-11.215-25-25-25c-9.707 0-18.13 5.564-22.273 13.667-9.452-6.761-17.624-14.944-24.31-24.414 3.357-11.624 9.338-12.775 20.643-14.95 9.02-1.735 19.993-3.848 32.474-12.07 6 5.942 19.16 8.71 31.538 8.71 12.382 0 25.54-2.769 31.544-8.711 12.479 8.224 23.456 10.335 32.472 12.07 10.55 2.03 16.287 3.14 19.77 12.331-10.28 3.796-19.72 5.616-28.09 7.226-21.2 4.078-39.502 7.599-47.1 39.541-.64 2.686 1.02 5.382 3.706 6.02 2.692.639 5.384-1.021 6.02-3.707 6.107-25.657 18.589-28.06 39.27-32.04 15.794-3.039 35.16-6.765 57.12-21.979 7.784 10.625 30.891 16.14 53.624 16.14 22.73 0 45.833-5.513 53.615-16.14 8.01 5.552 15.679 9.569 22.954 12.587.505.356 1.08.631 1.719.783.109.026.217.025.326.044 11.857 4.665 22.639 6.743 32.13 8.569 20.09 3.866 32.445 6.242 38.733 29.925-16.385 24.18-34.803 49.01-58.19 68.1-27.17 22.18-57.07 33.379-91.42 34.24-27.52.697-55.17-5.907-82.19-19.619-.463-.234-.946-.365-1.431-.447.224-1.598.348-3.227.348-4.885 0-19.299-15.701-35-35-35s-35 15.701-35 35 15.701 35 35 35c14.163 0 26.379-8.461 31.883-20.59 27.05 13.67 54.763 20.591 82.46 20.591 1.394 0 2.792-.018 4.186-.053 80.41-2.026 124.18-57.12 158.89-108.6.782-1.159 1.042-2.593.719-3.954-7.606-31.936-25.909-35.458-47.1-39.535-8.08-1.555-17.17-3.305-27.04-6.844 3.473-9.548 9.382-10.69 19.917-12.717 9.02-1.735 19.993-3.847 32.472-12.07 6 5.942 19.16 8.711 31.544 8.711 12.38 0 25.536-2.769 31.538-8.71 12.48 8.225 23.458 10.337 32.474 12.07 11.305 2.175 17.285 3.326 20.643 14.95-6.686 9.47-14.858 17.653-24.311 24.414-4.142-8.104-12.568-13.668-22.275-13.668-13.785 0-25 11.215-25 25s11.215 25 25 25 25-11.215 25-25c0-.358-.012-.713-.027-1.067.172-.089.345-.179.51-.291 12.167-8.205 22.483-18.514 30.662-30.642.783-1.159 1.043-2.593.719-3.954m-470.86 20.954c8.271 0 15 6.729 15 15s-6.729 15-15 15-15-6.729-15-15 6.729-15 15-15m88 126c-13.785 0-25-11.215-25-25s11.215-25 25-25 25 11.215 25 25-11.215 25-25 25m326-96c-8.271 0-15-6.729-15-15s6.729-15 15-15 15 6.729 15 15-6.729 15-15 15"/><path d="m93.91 180c16.976 0 30.833-9.354 40.07-27.05 7.506-14.374 9.781-30.15 9.936-36.479.455-18.565-4.314-33.511-13.791-43.22-8.577-8.79-20.764-13.247-36.22-13.247-33.08 0-49.903 18.954-49.993 56.34-.023 9.455 5.212 35.48 20.916 51.22 8.236 8.256 18.02 12.442 29.08 12.442m0-110c12.66 0 22.438 3.442 29.06 10.23 9.54 9.777 11.222 24.97 10.952 35.995-.26 10.67-8.2 53.775-40.01 53.775-8.305 0-15.706-3.198-21.997-9.505-13.779-13.813-18.01-37.19-17.996-44.14.077-32.06 12.411-46.36 39.993-46.36"/></svg>