<svg xmlns="http://www.w3.org/2000/svg" viewBox="0 0 380 380" enable-background="new 0 0 380 380"><path d="m370 290c0-30.33-24.673-55-55-55s-55 24.673-55 55c0 28.641 22.01 52.23 50 54.762v15.14c0 5.569-4.441 10.1-9.901 10.1h-270.2c-5.46 0-9.901-4.531-9.901-10.1v-209.8c0-5.569 4.441-10.1 9.901-10.1h5.523c2.388 14.169 14.738 25 29.575 25 14.853 0 27.21-10.852 29.583-25.04.141.012.275.042.418.042h205.24c5.38 0 9.756 4.312 9.756 9.613v45.39c0 2.761 2.238 5 5 5s5-2.239 5-5v-45.39c0-10.815-8.862-19.613-19.756-19.613h-20.244v-64.985c0-35.849-28.577-65.02-63.704-65.02h-92.59c-35.13 0-63.704 29.17-63.704 65.02v40.41c-12.542 2.115-22.461 12.03-24.575 24.576h-5.523c-10.974 0-19.902 9.02-19.902 20.1v209.8c0 11.08 8.928 20.1 19.901 20.1h270.2c10.974 0 19.901-9.02 19.901-20.1v-15.14c27.992-2.535 50-26.12 50-54.762m-246.3-280h92.59c29.612 0 53.704 24.68 53.704 55.02v64.985h-175c-.143 0-.277.03-.417.042-2.099-12.562-12.03-22.501-24.583-24.617v-40.41c0-30.335 24.09-55.02 53.704-55.02m-58.704 105c11.03 0 20 8.972 20 20s-8.972 20-20 20-20-8.972-20-20 8.972-20 20-20m250 220c-24.813 0-45-20.19-45-45s20.19-45 45-45 45 20.19 45 45-20.19 45-45 45"/><path d="m231.61 206.33l-83.28 76.869-39.941-36.869c-2.029-1.873-5.192-1.746-7.06.282-1.873 2.029-1.747 5.192.282 7.06l43.33 40c.094.087.202.15.301.229.113.09.223.182.342.26.167.111.341.201.518.289.116.058.228.124.348.172.205.084.416.141.628.196.1.026.196.064.297.083.316.062.636.097.957.097 0 0 .001 0 .001 0s.001 0 .001 0c.321 0 .641-.035.957-.097.101-.02.198-.057.297-.083.212-.055.423-.113.628-.196.12-.049.232-.114.348-.172.176-.088.35-.178.517-.289.119-.079.229-.171.343-.261.099-.078.206-.141.3-.228l86.67-80c2.029-1.873 2.155-5.04.282-7.06s-5.04-2.156-7.07-.282"/></svg>