<svg xmlns="http://www.w3.org/2000/svg" viewBox="0 0 380 380" enable-background="new 0 0 380 380"><path d="m317.84 273.07c-69.936 33.44-154.65 5.04-188.84-63.31-30.892-61.763-10.231-136.75 48.01-174.92 3.827 8.91 12.687 15.167 22.982 15.167 13.785 0 25-11.215 25-25s-11.215-25-25-25c-12.07 0-22.17 8.603-24.497 20h-100.5c-.169 0-.329.033-.494.05-2.304-11.422-12.415-20.05-24.506-20.05-13.785 0-25 11.215-25 25s11.215 25 25 25c12.09 0 22.2-8.628 24.506-20.05.165.017.325.05.494.05h91.38c-58.53 41.925-78.55 119.77-46.31 184.23 24.463 48.912 73.05 78.72 124.94 82.45v53.32h-30c-.169 0-.329.033-.494.05-2.305-11.422-12.416-20.05-24.507-20.05-13.785 0-25 11.215-25 25s11.215 25 25 25c12.09 0 22.2-8.628 24.506-20.05.165.016.325.05.494.05h35c2.762 0 5-2.239 5-5v-57.934c.354.002.707.018 1.061.018 22.24 0 44.813-4.821 66.1-14.997 2.491-1.191 3.545-4.176 2.354-6.667-1.192-2.491-4.175-3.547-6.669-2.354m-267.84-233.07c-8.271 0-15-6.729-15-15s6.729-15 15-15 15 6.729 15 15-6.729 15-15 15m150-30c8.271 0 15 6.729 15 15s-6.729 15-15 15-15-6.729-15-15 6.729-15 15-15m-10 360c-8.271 0-15-6.729-15-15s6.729-15 15-15 15 6.729 15 15-6.729 15-15 15"/><path d="m346.07 108.78c-22.744-50.23-82.11-72.59-132.34-49.851-24.333 11.02-42.92 30.851-52.34 55.847-9.416 24.997-8.533 52.16 2.484 76.5 11.02 24.333 30.851 42.919 55.848 52.33 11.47 4.32 23.395 6.473 35.3 6.473 14.03 0 28.03-2.995 41.2-8.957 50.23-22.743 72.59-82.11 49.851-132.34m-10.938.347c.05.794.266 1.588.714 2.312.313.507.598 1.041.845 1.587 3.716 8.205-.724 20.288-12.179 33.15-4.434 4.978-9.717 9.858-15.664 14.542-2.759-9.902-6.448-20.05-11-30.1-1.154-2.549-2.356-5.05-3.589-7.522 13.147-10.333 23.16-21.489 28.56-32.21 4.752 5.447 8.902 11.548 12.314 18.243m-30.442 89.67c.123 17.223-4.512 29.23-12.718 32.946-8.207 3.715-20.289-.724-33.15-12.179-4.977-4.433-9.857-9.716-14.541-15.663 9.746-2.714 19.872-6.369 30.1-11 10.06-4.553 19.521-9.745 28.13-15.365 1.38 7.443 2.13 14.596 2.178 21.262m-34.429-15.01c-11.306 5.119-22.17 8.9-32.29 11.51-6.153-8.987-11.837-19.11-16.762-29.987-.867-1.915-1.683-3.813-2.475-5.701 11.391-2.826 23.26-6.932 35.03-12.26 11.773-5.331 22.689-11.537 32.32-18.226.904 1.85 1.794 3.715 2.653 5.613 4.916 10.857 8.769 21.788 11.462 32.32-8.975 6.139-19.08 11.811-29.939 16.728m-97.01 3.234c-.219-.484-.522-.899-.861-1.273-3.332-7.693-5.566-15.68-6.661-23.78 5.642 1.466 12.07 2.193 19.09 2.193 7.437 0 15.524-.81 23.993-2.388 1.04 2.545 2.123 5.098 3.283 7.661 4.566 10.09 9.776 19.58 15.417 28.21-28.377 5.309-49.19.581-54.26-10.62m44.719-118.72c1.9-.86 4.01-1.283 6.285-1.283 7.557 0 16.98 4.66 26.863 13.462 10.936 9.741 21.417 23.524 30.31 39.671-9.414 6.641-20.2 12.835-31.794 18.08-11.591 5.248-23.373 9.268-34.586 11.961-15.263-41.96-11.67-75.29 2.923-81.895m36.866-8.278c22.265 0 43.909 8.311 60.47 23.23-3.95 9.86-13.184 20.668-25.809 30.822-9.299-16.606-20.253-30.845-31.725-41.06-5.844-5.205-11.611-9.164-17.17-11.847 4.743-.765 9.502-1.143 14.234-1.143m-84.09 58.27c5.654-15.01 14.997-27.932 27.08-37.828-4.991 17.737-2.573 43.728 7.353 71.78-15.981 2.791-30.21 2.595-40.23-.952-.156-11.12 1.753-22.281 5.79-33m52.5 115.95c-14.999-5.65-27.914-14.984-37.808-27.06 5.952 1.67 12.831 2.51 20.409 2.51 8.517-.001 17.913-1.061 27.854-3.182 5.867 7.888 12.09 14.828 18.469 20.512 5.848 5.208 11.618 9.169 17.18 11.852-15.349 2.509-31.16.995-46.1-4.634m89.01-14.802c1.653-5.949 2.492-12.89 2.436-20.722-.062-8.55-1.174-17.806-3.233-27.423 7.892-5.869 14.834-12.09 20.521-18.476 5.204-5.842 9.161-11.608 11.844-17.16 5.073 31.43-7.01 63.51-31.568 83.78"/></svg>