<svg xmlns="http://www.w3.org/2000/svg" viewBox="0 0 32 32" enable-background="new 0 0 32 32"><path d="m22 4c-2.206 0-4 1.794-4 4 0 1.859 1.279 3.411 3 3.858v2.142c0 1.103-.897 2-2 2h-6c-.732 0-1.409.212-2 .556v-4.698c1.721-.447 3-1.999 3-3.858 0-2.206-1.794-4-4-4s-4 1.794-4 4c0 1.859 1.279 3.411 3 3.858v8.284c-1.721.447-3 1.999-3 3.858 0 2.206 1.794 4 4 4s4-1.794 4-4c0-1.859-1.279-3.411-3-3.858v-.142c0-1.103.897-2 2-2h6c2.206 0 4-1.794 4-4v-2.142c1.721-.447 3-1.999 3-3.858 0-2.206-1.794-4-4-4m-14 4c0-1.103.897-2 2-2s2 .897 2 2-.897 2-2 2-2-.897-2-2m4 16c0 1.103-.897 2-2 2s-2-.897-2-2 .897-2 2-2 2 .897 2 2m10-14c-1.103 0-2-.897-2-2s.897-2 2-2 2 .897 2 2-.897 2-2 2"/><path d="M28.631,0H3.369C1.512,0,0,1.445,0,3.222v25.557C0,30.555,1.512,32,3.369,32h25.262
		C30.488,32,32,30.555,32,28.778V3.222C32,1.445,30.488,0,28.631,0z M30,28.778C30,29.452,29.386,30,28.631,30H3.369
		C2.614,30,2,29.452,2,28.778V3.222C2,2.548,2.614,2,3.369,2h25.262C29.386,2,30,2.548,30,3.222V28.778z"/></svg>
