<svg xmlns="http://www.w3.org/2000/svg" viewBox="0 0 32 32" enable-background="new 0 0 32 32"><path d="M28.631,32H3.369C1.512,32,0,30.555,0,28.778V3.222C0,1.445,1.512,0,3.369,0h25.262
			C30.488,0,32,1.445,32,3.222v25.557C32,30.555,30.488,32,28.631,32z M3.369,2C2.614,2,2,2.548,2,3.222v25.557
			C2,29.452,2.614,30,3.369,30h25.262C29.386,30,30,29.452,30,28.778V3.222C30,2.548,29.386,2,28.631,2H3.369z"/><path d="m7 20.729c0-4.358 5.05-5.134 5.05-6.834 0-.825-.654-1.172-1.258-1.172-.523 0-.964.281-1.242.578-.409.397-.833.561-1.274.198l-.638-.512c-.457-.364-.571-.776-.228-1.222.573-.758 1.699-1.765 3.643-1.765 1.912 0 3.986 1.106 3.986 3.615 0 3.681-4.721 4.39-4.868 5.908h4.149c.588 0 .899.314.899.908v.661c0 .594-.311.907-.899.907h-6.354c-.555.001-.964-.312-.964-.906v-.364"/><path d="m16.782 20.729c0-4.358 5.05-5.134 5.05-6.834 0-.825-.654-1.172-1.258-1.172-.523 0-.964.281-1.242.578-.409.397-.833.561-1.274.198l-.638-.512c-.457-.364-.571-.776-.228-1.222.572-.758 1.699-1.765 3.644-1.765 1.912 0 3.986 1.106 3.986 3.615 0 3.681-4.721 4.39-4.868 5.908h4.149c.588 0 .899.314.899.908v.661c0 .595-.311.908-.899.908h-6.355c-.555 0-.964-.313-.964-.907v-.364"/></svg>
