<svg xmlns="http://www.w3.org/2000/svg" viewBox="0 0 32 32" enable-background="new 0 0 32 32"><path d="m22 32c-.144 0-.286-.03-.419-.092-.261-.12-.456-.347-.539-.621l-3-10c-.12-.399.021-.831.354-1.084 1-.762 1.604-1.96 1.604-3.203 0-2.206-1.794-4-4-4s-4 1.794-4 4c0 1.237.601 2.436 1.607 3.206.33.252.47.683.351 1.081l-3 10c-.082.274-.278.5-.538.62-.259.12-.558.124-.82.009-5.743-2.508-9.6-8.503-9.6-14.916 0-9.06 7.477-17 16-17s16 7.944 16 17c0 6.396-3.856 12.391-9.598 14.915-.128.057-.265.085-.402.085m-6-30c-7.458 0-14 7.01-14 15 0 5.24 2.924 10.158 7.38 12.584l2.477-8.252c-1.173-1.136-1.857-2.709-1.857-4.332 0-3.309 2.691-6 6-6s6 2.691 6 6c0 1.629-.684 3.203-1.855 4.334l2.474 8.248c4.456-2.439 7.381-7.355 7.381-12.582 0-7.99-6.542-15-14-15"/></svg>
