<svg xmlns="http://www.w3.org/2000/svg" viewBox="0 0 32 32" enable-background="new 0 0 32 32"><path d="m1 6h3.101c.465 2.279 2.485 4 4.899 4s4.434-1.721 4.899-4h17.1c.553 0 1-.447 1-1s-.447-1-1-1h-17.1c-.465-2.279-2.485-4-4.899-4s-4.434 1.721-4.899 4h-3.101c-.553 0-1 .447-1 1s.447 1 1 1m8-4c1.654 0 3 1.346 3 3s-1.346 3-3 3-3-1.346-3-3 1.346-3 3-3"/><path d="m31 26h-3.101c-.465-2.279-2.484-4-4.899-4s-4.434 1.721-4.899 4h-17.1c-.553 0-1 .447-1 1s.447 1 1 1h17.1c.465 2.279 2.484 4 4.899 4s4.434-1.721 4.899-4h3.101c.553 0 1-.447 1-1s-.447-1-1-1m-8 4c-1.654 0-3-1.346-3-3s1.346-3 3-3 3 1.346 3 3-1.346 3-3 3"/><path d="m31 15h-10.1c-.465-2.279-2.484-4-4.899-4s-4.434 1.721-4.899 4h-10.1c-.553 0-1 .447-1 1s.447 1 1 1h10.1c.465 2.279 2.484 4 4.899 4s4.434-1.721 4.899-4h10.1c.553 0 1-.447 1-1s-.447-1-1-1m-15 4c-1.654 0-3-1.346-3-3s1.346-3 3-3 3 1.346 3 3-1.346 3-3 3"/></svg>
