<svg xmlns="http://www.w3.org/2000/svg" viewBox="0 0 32 32" enable-background="new 0 0 32 32"><path d="M29,24.142V16c0-0.553-0.447-1-1-1H17V8h7.631C26.488,8,28,6.555,28,4.778V3.222C28,1.445,26.488,0,24.631,0
	H7.369C5.512,0,4,1.445,4,3.222v1.557C4,6.555,5.512,8,7.369,8H15v7H4c-0.553,0-1,0.447-1,1v8.142C1.279,24.589,0,26.141,0,28
	c0,2.206,1.794,4,4,4s4-1.794,4-4c0-1.859-1.279-3.411-3-3.858V17h10v7.142c-1.721,0.447-3,1.999-3,3.858c0,2.206,1.794,4,4,4
	s4-1.794,4-4c0-1.859-1.279-3.411-3-3.858V17h10v7.142c-1.721,0.447-3,1.999-3,3.858c0,2.206,1.794,4,4,4s4-1.794,4-4
	C32,26.141,30.721,24.589,29,24.142z M7.369,6C6.614,6,6,5.452,6,4.778V3.222C6,2.548,6.614,2,7.369,2h17.262
	C25.386,2,26,2.548,26,3.222v1.557C26,5.452,25.386,6,24.631,6H7.369z M6,28c0,1.103-0.897,2-2,2s-2-0.897-2-2s0.897-2,2-2
	S6,26.897,6,28z M18,28c0,1.103-0.897,2-2,2s-2-0.897-2-2s0.897-2,2-2S18,26.897,18,28z M28,30c-1.103,0-2-0.897-2-2s0.897-2,2-2
	s2,0.897,2,2S29.103,30,28,30z"/></svg>
