<svg xmlns="http://www.w3.org/2000/svg" viewBox="0 0 32 32" enable-background="new 0 0 32 32"><path d="m15.343 24.663c.188.164.423.246.657.246s.469-.082.657-.246l4.562-3.973c.416-.362.46-.994.097-1.411s-.996-.459-1.411-.097l-2.905 2.53v-18.712c0-.553-.447-1-1-1s-1 .447-1 1v18.712l-2.904-2.529c-.415-.361-1.048-.319-1.411.097-.363.417-.319 1.049.097 1.411l4.561 3.972"/><path d="m31 13.222c-.553 0-1 .447-1 1v14.557c0 .673-.614 1.221-1.369 1.221h-25.26c-.755 0-1.369-.548-1.369-1.222v-14.556c0-.553-.447-1-1-1s-1 .447-1 1v14.557c0 1.776 1.512 3.221 3.369 3.221h25.26c1.857 0 3.369-1.445 3.369-3.222v-14.556c0-.553-.447-1-1-1"/></svg>
