<svg xmlns="http://www.w3.org/2000/svg" viewBox="0 0 32 32" enable-background="new 0 0 32 32"><path d="m16 16c-2.481 0-4.5 2.02-4.5 4.5s2.02 4.5 4.5 4.5 4.5-2.02 4.5-4.5-2.02-4.5-4.5-4.5m0 7c-1.379 0-2.5-1.121-2.5-2.5s1.121-2.5 2.5-2.5 2.5 1.121 2.5 2.5-1.121 2.5-2.5 2.5"/><path d="M28.631,9H25V3.222C25,1.445,23.488,0,21.631,0H10.369C8.512,0,7,1.445,7,3.222V9H3.369
		C1.512,9,0,10.445,0,12.222v16.557C0,30.555,1.512,32,3.369,32h25.262C30.488,32,32,30.555,32,28.778V12.222
		C32,10.445,30.488,9,28.631,9z M9,3.222C9,2.548,9.614,2,10.369,2h11.262C22.386,2,23,2.548,23,3.222V9H9V3.222z M30,28.778
		C30,29.452,29.386,30,28.631,30H3.369C2.614,30,2,29.452,2,28.778V12.222C2,11.548,2.614,11,3.369,11h25.262
		C29.386,11,30,11.548,30,12.222V28.778z"/></svg>
