<svg xmlns="http://www.w3.org/2000/svg" viewBox="0 0 32 32" enable-background="new 0 0 32 32"><path d="M28.631,0H3.369C1.512,0,0,1.445,0,3.222v25.557C0,30.555,1.512,32,3.369,32h25.262
		C30.488,32,32,30.555,32,28.778V3.222C32,1.445,30.488,0,28.631,0z M30,28.778C30,29.452,29.386,30,28.631,30H3.369
		C2.614,30,2,29.452,2,28.778V3.222C2,2.548,2.614,2,3.369,2h25.262C29.386,2,30,2.548,30,3.222V28.778z"/><path d="m19.707 18.293c-.037-.037-.086-.054-.127-.084.887-1.174 1.42-2.628 1.42-4.209 0-3.859-3.141-7-7-7s-7 3.141-7 7 3.141 7 7 7c1.581 0 3.035-.533 4.209-1.42.03.042.047.09.084.127l5.5 5.5c.195.195.451.293.707.293s.512-.098.707-.293c.391-.391.391-1.023 0-1.414l-5.5-5.5m-5.707.707c-2.757 0-5-2.243-5-5s2.243-5 5-5 5 2.243 5 5-2.243 5-5 5"/></svg>
