<?xml version="1.0" encoding="utf-8"?>
<!-- Generator: Adobe Illustrator 20.0.0, SVG Export Plug-In . SVG Version: 6.00 Build 0)  -->
<!DOCTYPE svg PUBLIC "-//W3C//DTD SVG 1.1//EN" "http://www.w3.org/Graphics/SVG/1.1/DTD/svg11.dtd" [
	<!ENTITY st0 "fill:#E14329;">
]>
<svg version="1.1" id="Layer_1" xmlns="http://www.w3.org/2000/svg" xmlns:xlink="http://www.w3.org/1999/xlink" x="0px" y="0px"
	 viewBox="0 0 1170 160" style="enable-background:new 0 0 1170 160;" xml:space="preserve">
<g id="Layer_2">
</g>
<g id="Layer_1_1_" xmlns:sketch="http://www.bohemiancoding.com/sketch/ns">
	<g>
		<path style="&st0;" d="M408.58,56.27c-13.275,6.492-29.357,0.973-35.85-12.303c-5.889-12.043-1.928-26.668,9.208-34.072
			C382.846,11.164,384.324,12,386,12c2.757,0,5-2.243,5-5s-2.243-5-5-5c-2.415,0-4.434,1.721-4.899,4h-42.202
			c-0.465-2.279-2.484-4-4.899-4c-2.757,0-5,2.243-5,5s2.243,5,5,5c2.415,0,4.434-1.721,4.899-4h42.202
			c0.006,0.028,0.018,0.054,0.024,0.082c-0.064,0.025-0.132,0.038-0.192,0.077c-12.048,7.935-16.347,23.707-10,36.687
			c4.543,9.291,13.46,15.029,23.066,15.987V71h-6.101c-0.465-2.279-2.484-4-4.899-4c-2.757,0-5,2.243-5,5s2.243,5,5,5
			c2.415,0,4.434-1.721,4.899-4H395c0.553,0,1-0.447,1-1V60.962c0.285,0.008,0.568,0.03,0.854,0.03c4.24,0,8.546-0.94,12.605-2.925
			c0.496-0.242,0.701-0.842,0.459-1.338C409.676,56.233,409.077,56.025,408.58,56.27z M386,4c1.654,0,3,1.346,3,3s-1.346,3-3,3
			s-3-1.346-3-3S384.346,4,386,4z M334,10c-1.654,0-3-1.346-3-3s1.346-3,3-3s3,1.346,3,3S335.654,10,334,10z M383,75
			c-1.654,0-3-1.346-3-3s1.346-3,3-3s3,1.346,3,3S384.654,75,383,75z"/>
		<path style="&st0;" d="M379,33c0,9.925,8.075,18,18,18s18-8.075,18-18s-8.075-18-18-18S379,23.075,379,33z M397,17
			c8.822,0,16,7.178,16,16s-7.178,16-16,16s-16-7.178-16-16S388.178,17,397,17z"/>
	</g>
	<path style="&st0;" d="M284.38,121.216c-1.068-2.403-2.528-4.533-4.339-6.333c-1.812-1.8-3.968-3.245-6.406-4.294
		c-2.447-1.055-5.107-1.589-7.907-1.589c-0.209,0-0.399,0.022-0.604,0.029c-0.075-0.01-0.147-0.031-0.225-0.024
		c-0.126,0.013-0.247,0.038-0.372,0.053c-0.181,0.012-0.376,0.009-0.551,0.026c-0.549,0.056-1.11,0.141-1.671,0.253
		c-0.161,0.033-0.298,0.111-0.418,0.207c-0.083,0.021-0.169,0.036-0.251,0.058c-0.698-1.933-1.639-3.739-2.833-5.361
		c-1.371-1.864-3.025-3.508-4.916-4.886c-1.894-1.378-4.005-2.46-6.275-3.214c-2.277-0.757-4.709-1.141-7.227-1.141
		c-3.119,0-6.079,0.576-8.797,1.711c-2.709,1.133-5.11,2.693-7.139,4.638c-2.031,1.947-3.66,4.264-4.84,6.887
		c-0.696,1.547-1.181,3.178-1.469,4.852c-2.347,0.41-4.14,2.451-4.14,4.913c0,0.822,0.218,1.586,0.571,2.271
		c-2.639,0.647-5.005,1.98-7.043,3.981C204.523,127.204,203,130.82,203,135c0,0.553,0.447,1,1,1s1-0.447,1-1
		c0-3.674,1.285-6.723,3.93-9.32c2.029-1.993,4.423-3.224,7.114-3.669c0.83,0.614,1.847,0.99,2.957,0.99c2.757,0,5-2.243,5-5
		c0-2.357-1.645-4.326-3.843-4.851c0.266-1.41,0.688-2.784,1.277-4.093c1.074-2.388,2.555-4.495,4.4-6.264
		c1.849-1.773,4.045-3.198,6.525-4.235c2.472-1.033,5.172-1.557,8.025-1.557c2.303,0,4.522,0.35,6.596,1.039
		c2.075,0.688,4.002,1.676,5.729,2.933c1.725,1.256,3.233,2.755,4.482,4.454c1.07,1.455,1.916,3.074,2.548,4.808
		c-6.203,2.401-10.41,7.905-11.581,15.512c-0.058,0.376-0.108,0.756-0.152,1.142c-0.008,0.073,0.011,0.141,0.019,0.211
		c-2.293,0.454-4.026,2.477-4.026,4.9c0,2.757,2.243,5,5,5s5-2.243,5-5c0-2.416-1.723-4.436-4.004-4.899
		c0.04-0.354,0.086-0.705,0.139-1.05c1.325-8.598,6.637-14.04,14.591-15.003c0.33-0.021,0.653-0.048,1.002-0.048
		c2.526,0,4.921,0.479,7.116,1.426c2.207,0.949,4.154,2.254,5.787,3.877c1.635,1.623,2.954,3.55,3.921,5.726
		c0.961,2.162,1.448,4.521,1.448,7.012c0,2.439-0.487,4.786-1.449,6.976c-0.968,2.201-2.286,4.139-3.92,5.761
		c-1.63,1.62-3.574,2.91-5.778,3.834c-2.199,0.922-4.597,1.39-7.125,1.39H240h-21h-29c-0.1,0-0.19,0.03-0.28,0.057
		C188.875,144.14,186.185,142,183,142c-3.859,0-7,3.141-7,7s3.141,7,7,7s7-3.141,7-7h29h21h25.728c2.796,0,5.453-0.52,7.898-1.546
		c2.442-1.023,4.601-2.456,6.415-4.258c1.812-1.8,3.271-3.945,4.341-6.376c1.073-2.444,1.618-5.062,1.618-7.78
		C286,126.268,285.455,123.636,284.38,121.216z M222,118c0,1.654-1.346,3-3,3s-3-1.346-3-3s1.346-3,3-3S222,116.346,222,118z
		 M252,132c0,1.654-1.346,3-3,3s-3-1.346-3-3s1.346-3,3-3S252,130.346,252,132z M183,154c-2.757,0-5-2.243-5-5s2.243-5,5-5
		s5,2.243,5,5S185.757,154,183,154z"/>
	<path style="&st0;" d="M218,71c-2.415,0-4.434,1.721-4.899,4h-65.202c-0.465-2.279-2.484-4-4.899-4c-2.757,0-5,2.243-5,5
		c0,0.872,0.244,1.68,0.638,2.394L128.027,90.55c-0.116,0.133-0.176,0.289-0.21,0.45h-2.634h-0.447H86.92
		c-0.488-3.386-3.401-6-6.92-6c-3.859,0-7,3.141-7,7s3.141,7,7,7c3.519,0,6.432-2.614,6.92-6h37.816h0.447h39.82
		c0.034,0,0.062-0.016,0.095-0.019C165.557,95.269,167.579,97,170,97c2.757,0,5-2.243,5-5s-2.243-5-5-5
		c-2.421,0-4.443,1.731-4.901,4.019c-0.033-0.003-0.062-0.019-0.095-0.019h-34.716l9.661-11.068C140.796,80.591,141.846,81,143,81
		c2.415,0,4.434-1.721,4.899-4h65.202c0.465,2.279,2.484,4,4.899,4c2.757,0,5-2.243,5-5S220.757,71,218,71z M80,97
		c-2.757,0-5-2.243-5-5s2.243-5,5-5s5,2.243,5,5S82.757,97,80,97z M170,89c1.654,0,3,1.346,3,3s-1.346,3-3,3s-3-1.346-3-3
		S168.346,89,170,89z M143,79c-1.654,0-3-1.346-3-3s1.346-3,3-3s3,1.346,3,3S144.654,79,143,79z M218,79c-1.654,0-3-1.346-3-3
		s1.346-3,3-3s3,1.346,3,3S219.654,79,218,79z"/>
	<path style="&st0;" d="M79.85,119h-7.888c-1.056,0-2.101,0.341-2.942,0.96l-0.812,0.603c-2.677,2.353-4.5,3.781-7.241,3.781H46.15
		c-2.84,0-5.15,2.246-5.15,5.007v15.315c0,0.553,0.447,1,1,1s1-0.447,1-1v-15.315c0-1.658,1.413-3.007,3.15-3.007h14.816
		c3.436,0,5.62-1.694,8.494-4.225l0.744-0.548c0.501-0.368,1.125-0.571,1.757-0.571h7.888c1.737,0,3.15,1.35,3.15,3.008v23.984
		c0,1.658-1.413,3.008-3.15,3.008H20.92c-0.488-3.386-3.401-6-6.92-6c-3.859,0-7,3.141-7,7s3.141,7,7,7c3.519,0,6.432-2.614,6.92-6
		H80c0.051,0,0.094-0.022,0.143-0.029c2.701-0.151,4.857-2.315,4.857-4.979v-23.984C85,121.246,82.689,119,79.85,119z M14,157
		c-2.757,0-5-2.243-5-5s2.243-5,5-5s5,2.243,5,5S16.757,157,14,157z"/>
	<path style="&st0;" d="M920,104c-3.519,0-6.432,2.614-6.92,6H870c-0.01,0-0.019,0.005-0.028,0.006
		C857.609,110.127,848,114.471,848,120c0,0.297,0.034,0.589,0.088,0.879v11.718C848.033,132.72,848,132.856,848,133
		c0,0.297,0.034,0.589,0.088,0.879v12.958c0,0.553,0.447,1,1,1s1-0.447,1-1v-9.563c3.544,3.412,11.256,5.726,20.412,5.726
		c9.234,0,16.997-2.354,20.5-5.814V146c0,3.863-8.438,8-21,8h-42.101c-0.465-2.279-2.484-4-4.899-4c-2.757,0-5,2.243-5,5
		s2.243,5,5,5c2.415,0,4.434-1.721,4.899-4H870c12.897,0,23-4.393,23-10v-26c0-0.553-0.447-1-1-1s-1,0.447-1,1
		c0,3.863-8.237,8-20.5,8c-11.558,0-19.532-3.675-20.412-7.332v-1.001c0-0.047-0.021-0.087-0.027-0.132
		c0.627-3.723,8.667-7.535,20.439-7.535h42.58c0.488,3.386,3.401,6,6.92,6c3.859,0,7-3.141,7-7S923.859,104,920,104z M823,158
		c-1.654,0-3-1.346-3-3s1.346-3,3-3s3,1.346,3,3S824.654,158,823,158z M870.5,130c9.234,0,16.997-2.354,20.5-5.814V133
		c0,3.863-8.237,8-20.5,8c-11.558,0-19.532-3.675-20.412-7.332v-9.394C853.632,127.686,861.344,130,870.5,130z M920,116
		c-2.757,0-5-2.243-5-5s2.243-5,5-5s5,2.243,5,5S922.757,116,920,116z"/>
	<path style="&st0;" d="M912.98,44.099C912.984,44.065,913,44.035,913,44V28c0-0.553-0.447-1-1-1h-20V12h13.208
		C908.401,12,911,9.401,911,6.208V5.792C911,2.599,908.401,0,905.208,0h-28.416C873.599,0,871,2.599,871,5.792v0.416
		c0,3.193,2.599,5.792,5.792,5.792H890v15h-20c-0.553,0-1,0.447-1,1v16c0,0.035,0.016,0.065,0.02,0.099
		C866.731,44.556,865,46.579,865,49c0,2.757,2.243,5,5,5s5-2.243,5-5c0-2.421-1.731-4.444-4.02-4.901
		C870.984,44.065,871,44.035,871,44V29h19v15.101c-2.279,0.465-4,2.484-4,4.899c0,2.757,2.243,5,5,5s5-2.243,5-5
		c0-2.414-1.721-4.434-4-4.899V29h19v15c0,0.035,0.016,0.065,0.02,0.099C908.731,44.556,907,46.579,907,49c0,2.757,2.243,5,5,5
		s5-2.243,5-5C917,46.579,915.269,44.556,912.98,44.099z M876.792,10C874.701,10,873,8.299,873,6.208V5.792
		C873,3.701,874.701,2,876.792,2h28.416C907.299,2,909,3.701,909,5.792v0.416c0,2.091-1.701,3.792-3.792,3.792H876.792z M873,49
		c0,1.654-1.346,3-3,3s-3-1.346-3-3s1.346-3,3-3S873,47.346,873,49z M894,49c0,1.654-1.346,3-3,3s-3-1.346-3-3s1.346-3,3-3
		S894,47.346,894,49z M912,52c-1.654,0-3-1.346-3-3s1.346-3,3-3s3,1.346,3,3S913.654,52,912,52z"/>
	<path style="&st0;" d="M264,76c-3.519,0-6.432,2.614-6.92,6h-12.337l-0.497-0.09l-14.362-16.285C231.709,64.879,233,63.09,233,61
		c0-2.421-1.731-4.444-4.02-4.901C228.984,56.065,229,56.035,229,56V22.491c0-3.579-2.859-6.491-6.374-6.491H215
		c-0.035,0-0.065,0.016-0.099,0.02c-0.393-1.965-1.938-3.519-3.901-3.919V8.825C211,6.165,208.961,4,206.454,4h-20.908
		C183.039,4,181,6.165,181,8.825V16h-11.481c-3.595,0-6.519,2.929-6.519,6.529V57.47c0,3.601,2.924,6.529,6.519,6.529H210
		c0.553,0,1-0.447,1-1s-0.447-1-1-1h-40.481c-2.491,0-4.519-2.032-4.519-4.529V36.6c0.105,0.038,0.215,0.067,0.333,0.067h26
		c0.036,0,0.067-0.017,0.102-0.021c0.457,2.289,2.479,4.021,4.901,4.021c2.415,0,4.434-1.721,4.899-4H227V56
		c0,0.035,0.016,0.065,0.02,0.099C224.731,56.556,223,58.579,223,61c0,2.587,1.983,4.697,4.505,4.95l15.471,17.543
		c0.148,0.169,0.351,0.283,0.572,0.323l0.928,0.168c0.059,0.011,0.118,0.016,0.178,0.016h12.427c0.488,3.386,3.401,6,6.92,6
		c3.859,0,7-3.141,7-7S267.859,76,264,76z M213,17c0,1.654-1.346,3-3,3s-3-1.346-3-3s1.346-3,3-3S213,15.346,213,17z M183,8.825
		C183,7.268,184.143,6,185.546,6h20.908C207.857,6,209,7.268,209,8.825v3.276c-1.956,0.399-3.5,1.943-3.899,3.899H183V8.825z
		 M196.336,38.667c-1.654,0-3-1.346-3-3s1.346-3,3-3c1.651,0,2.994,1.341,2.999,2.99c0,0.003-0.002,0.006-0.002,0.01
		s0.002,0.006,0.002,0.01C199.33,37.326,197.987,38.667,196.336,38.667z M201.235,34.667c-0.465-2.279-2.484-4-4.899-4
		c-2.421,0-4.444,1.731-4.901,4.021c-0.035-0.004-0.066-0.021-0.102-0.021h-26c-0.118,0-0.228,0.03-0.333,0.067V22.529
		c0-2.497,2.027-4.529,4.519-4.529h35.583c0.465,2.279,2.484,4,4.899,4c2.421,0,4.444-1.731,4.901-4.02
		C214.935,17.984,214.965,18,215,18h7.626c2.412,0,4.374,2.015,4.374,4.491v12.176H201.235z M225,61c0-1.654,1.346-3,3-3
		s3,1.346,3,3s-1.346,3-3,3S225,62.654,225,61z M264,88c-2.757,0-5-2.243-5-5s2.243-5,5-5s5,2.243,5,5S266.757,88,264,88z"/>
	<path style="&st0;" d="M78.667,0H7.333C3.29,0,0,3.261,0,7.27v47.46C0,58.739,3.29,62,7.333,62H42v13H32c-0.553,0-1,0.447-1,1
		s0.447,1,1,1h22c0.553,0,1-0.447,1-1s-0.447-1-1-1H44V62h17.08c0.488,3.386,3.401,6,6.92,6s6.432-2.614,6.92-6h3.747
		C82.71,62,86,58.739,86,54.73V7.27C86,3.261,82.71,0,78.667,0z M68,66c-2.757,0-5-2.243-5-5s2.243-5,5-5s5,2.243,5,5
		S70.757,66,68,66z M84,54.73c0,2.905-2.393,5.27-5.333,5.27H74.92c-0.488-3.386-3.401-6-6.92-6s-6.432,2.614-6.92,6H7.333
		C4.393,60,2,57.636,2,54.73V16h47c0.035,0,0.065-0.016,0.099-0.02C49.556,18.269,51.579,20,54,20c2.757,0,5-2.243,5-5s-2.243-5-5-5
		c-2.421,0-4.444,1.731-4.901,4.02C49.065,14.016,49.035,14,49,14H2V7.27C2,4.364,4.393,2,7.333,2h71.334C81.607,2,84,4.364,84,7.27
		V54.73z M51,15c0-1.654,1.346-3,3-3s3,1.346,3,3s-1.346,3-3,3S51,16.654,51,15z"/>
	<path style="&st0;" d="M464,5c-2.415,0-4.434,1.721-4.899,4H435.99c-0.001,0-0.002,0.001-0.003,0.001
		C432.134,9.008,429,12.167,429,16.048V21c0,0.035,0.016,0.065,0.02,0.099C426.731,21.556,425,23.579,425,26c0,2.757,2.243,5,5,5
		s5-2.243,5-5c0-2.421-1.731-4.444-4.02-4.901C430.984,21.065,431,21.035,431,21v-4.952c0-2.783,2.243-5.048,5-5.048h12.126
		c-1.309,1.281-2.126,3.069-2.126,5.048V21c0,0.035,0.016,0.065,0.02,0.099C443.731,21.556,442,23.579,442,26c0,2.757,2.243,5,5,5
		s5-2.243,5-5c0-2.421-1.731-4.444-4.02-4.901C447.984,21.065,448,21.035,448,21v-4.952c0-2.783,2.243-5.048,5-5.048h6.101
		c0.465,2.279,2.484,4,4.899,4c2.757,0,5-2.243,5-5S466.757,5,464,5z M433,26c0,1.654-1.346,3-3,3s-3-1.346-3-3s1.346-3,3-3
		S433,24.346,433,26z M450,26c0,1.654-1.346,3-3,3s-3-1.346-3-3s1.346-3,3-3S450,24.346,450,26z M464,13c-1.654,0-3-1.346-3-3
		s1.346-3,3-3s3,1.346,3,3S465.654,13,464,13z"/>
	<path style="&st0;" d="M366.804,80.005c0-0.001,0-0.001,0-0.002l-13.409-41.261c-0.343-1.052-1.28-1.736-2.39-1.742
		c-0.005,0-0.011,0-0.016,0c-1.111,0-2.058,0.678-2.382,1.65l-7.701,17.566c-0.222,0.506,0.009,1.096,0.515,1.317
		c0.507,0.223,1.095-0.011,1.317-0.515l7.732-17.647c0.113-0.335,0.398-0.372,0.52-0.372c0.001,0,0.002,0,0.003,0
		c0.115,0.001,0.394,0.037,0.499,0.36l13.409,41.262l0,0c0.275,0.848-0.032,1.774-0.763,2.306l-38.316,27.835l-26.764-19.443
		c-0.008-0.007-0.012-0.017-0.021-0.023l-11.193-8.17c-0.721-0.526-1.02-1.454-0.743-2.31l0.546-1.687
		c0.028-0.087,0.026-0.174,0.03-0.261C288.105,78.953,288.547,79,289,79c3.859,0,7-3.141,7-7c0-2.896-1.768-5.386-4.281-6.45
		l8.439-26.024c0.113-0.335,0.398-0.372,0.52-0.372c0.001,0,0.002,0,0.003,0c0.115,0.001,0.394,0.037,0.499,0.36l9.016,27.794
		c0.134,0.412,0.518,0.691,0.951,0.691h34.277c0.774,1.763,2.531,3,4.576,3c2.757,0,5-2.243,5-5s-2.243-5-5-5s-5,2.243-5,5h-33.127
		l-8.791-27.104c-0.343-1.052-1.28-1.736-2.39-1.742c-1.142-0.023-2.071,0.674-2.433,1.743l-8.479,26.149
		C289.524,65.018,289.264,65,289,65c-3.859,0-7,3.141-7,7c0,2.741,1.588,5.112,3.888,6.261c-0.056,0.08-0.113,0.159-0.144,0.256
		l-0.546,1.687c-0.543,1.679,0.046,3.503,1.466,4.54c0,0,7.999,5.856,8.02,5.871l30.551,22.194c0.176,0.128,0.382,0.191,0.588,0.191
		s0.412-0.063,0.588-0.191l38.904-28.263C366.748,83.504,367.346,81.679,366.804,80.005z M350,63c1.654,0,3,1.346,3,3s-1.346,3-3,3
		s-3-1.346-3-3S348.346,63,350,63z M284,72c0-2.757,2.243-5,5-5s5,2.243,5,5s-2.243,5-5,5S284,74.757,284,72z"/>
	<path style="&st0;" d="M436,91.004c0-3.859-3.141-7-7-7c-3.74,0-6.796,2.951-6.982,6.645L416,96.527V76c0-0.553-0.447-1-1-1
		s-1,0.447-1,1v20.686l-5.793-5.793c-0.391-0.391-1.023-0.391-1.414,0s-0.391,1.023,0,1.414l7.4,7.4
		c0.195,0.195,0.451,0.293,0.707,0.293c0.252,0,0.504-0.095,0.699-0.284l6.735-6.579c0.806,2.511,2.995,4.402,5.665,4.787V105h-31
		v-5.101c2.279-0.465,4-2.484,4-4.899c0-2.757-2.243-5-5-5s-5,2.243-5,5c0,2.414,1.721,4.434,4,4.899V106c0,0.553,0.447,1,1,1h33
		c0.553,0,1-0.447,1-1v-8.076C433.386,97.436,436,94.523,436,91.004z M393,95c0-1.654,1.346-3,3-3s3,1.346,3,3s-1.346,3-3,3
		S393,96.654,393,95z M429.013,96.003c-0.005,0-0.008-0.003-0.013-0.003s-0.008,0.003-0.013,0.003
		c-2.751-0.007-4.987-2.246-4.987-4.999c0-2.757,2.243-5,5-5s5,2.243,5,5C434,93.756,431.764,95.995,429.013,96.003z"/>
	<path style="&st0;" d="M983.834,95h-35.668c-2.297,0-4.166,1.854-4.166,4.135v23.73c0,2.28,1.869,4.135,4.166,4.135H965v6h-5
		c-0.553,0-1,0.447-1,1s0.447,1,1,1h12c0.553,0,1-0.447,1-1s-0.447-1-1-1h-5v-6h6.101c0.465,2.279,2.484,4,4.899,4
		s4.434-1.721,4.899-4h0.935c2.297,0,4.166-1.854,4.166-4.135v-23.73C988,96.854,986.131,95,983.834,95z M978,129
		c-1.654,0-3-1.346-3-3s1.346-3,3-3s3,1.346,3,3S979.654,129,978,129z M986,122.865c0,1.177-0.972,2.135-2.166,2.135h-0.935
		c-0.465-2.279-2.484-4-4.899-4s-4.434,1.721-4.899,4h-24.935c-1.194,0-2.166-0.958-2.166-2.135V106h23.101
		c0.465,2.279,2.484,4,4.899,4c2.757,0,5-2.243,5-5s-2.243-5-5-5c-2.415,0-4.434,1.721-4.899,4H946v-4.865
		c0-1.177,0.972-2.135,2.166-2.135h35.668c1.194,0,2.166,0.958,2.166,2.135V122.865z M971,105c0-1.654,1.346-3,3-3s3,1.346,3,3
		s-1.346,3-3,3S971,106.654,971,105z"/>
	<path style="&st0;" d="M162,128c-2.415,0-4.434,1.721-4.899,4h-21.182c-5.771,0-11.905,1.941-11.905,5.54v13.267
		c0,0.553,0.447,1,1,1s1-0.447,1-1v-3.645c2.276,1.556,6.161,2.378,9.905,2.378s7.63-0.822,9.905-2.378v3.298
		c0,1.479-3.769,3.54-9.905,3.54h-21.02c-0.465-2.279-2.484-4-4.899-4c-2.757,0-5,2.243-5,5s2.243,5,5,5
		c2.415,0,4.434-1.721,4.899-4h21.02c5.771,0,11.905-1.941,11.905-5.54v-12.92c0-0.553-0.447-1-1-1s-1,0.447-1,1
		c0,1.479-3.769,3.54-9.905,3.54s-9.905-2.062-9.905-3.54s3.769-3.54,9.905-3.54h21.182c0.465,2.279,2.484,4,4.899,4
		c2.757,0,5-2.243,5-5S164.757,128,162,128z M110,158c-1.654,0-3-1.346-3-3s1.346-3,3-3s3,1.346,3,3S111.654,158,110,158z
		 M135.919,143.08c3.744,0,7.63-0.822,9.905-2.378V144c0,1.479-3.769,3.54-9.905,3.54s-9.905-2.062-9.905-3.54v-3.298
		C128.289,142.258,132.175,143.08,135.919,143.08z M162,136c-1.654,0-3-1.346-3-3s1.346-3,3-3s3,1.346,3,3S163.654,136,162,136z"/>
	<path style="&st0;" d="M566.175,34.416c-0.541-1.257-1.283-2.373-2.205-3.317c-0.926-0.948-2.024-1.708-3.266-2.259
		c-1.255-0.558-2.617-0.84-4.049-0.84c-0.183,0-0.351,0.016-0.525,0.026c-0.075-0.01-0.148-0.03-0.226-0.021
		c-0.059,0.006-0.111,0.022-0.169,0.028c-0.351-1.01-0.811-1.956-1.384-2.81c-0.703-1.049-1.553-1.975-2.524-2.751
		c-0.979-0.781-2.069-1.395-3.242-1.821c-2.641-0.965-5.763-0.846-8.316,0.324c-1.396,0.641-2.634,1.522-3.678,2.62
		c-0.941,0.991-1.702,2.154-2.281,3.437C534.205,27.025,534.106,27,534,27c-2.757,0-5,2.243-5,5c0,0.768,0.188,1.488,0.499,2.139
		c-0.78,0.361-1.509,0.851-2.16,1.471C525.787,37.088,525,38.9,525,41c0,0.553,0.447,1,1,1s1-0.447,1-1
		c0-1.552,0.562-2.841,1.718-3.941c0.514-0.489,1.082-0.874,1.689-1.146c0.109-0.048,0.197-0.12,0.279-0.198
		C531.57,36.505,532.724,37,534,37c2.757,0,5-2.243,5-5c0-1.938-1.12-3.603-2.736-4.433c0.471-0.97,1.062-1.844,1.775-2.594
		c0.868-0.913,1.898-1.647,3.062-2.181c2.075-0.952,4.646-1.051,6.798-0.264c0.969,0.354,1.87,0.859,2.679,1.505
		c0.812,0.648,1.521,1.424,2.111,2.303c0.43,0.641,0.762,1.36,1.044,2.112c-3.182,0.95-5.421,3.266-6.344,6.613
		C544.923,35.367,543,37.452,543,40c0,2.757,2.243,5,5,5s5-2.243,5-5c0-2.262-1.519-4.155-3.584-4.771
		c0.887-2.781,2.91-4.552,5.812-5.092c0.022-0.003,0.044,0.005,0.066,0c0.221-0.046,0.442-0.08,0.663-0.103s0.454-0.035,0.697-0.035
		c1.15,0,2.239,0.225,3.237,0.668c1.009,0.447,1.898,1.062,2.646,1.827c0.75,0.769,1.355,1.681,1.8,2.713
		c0.44,1.019,0.663,2.133,0.663,3.313c0,1.154-0.224,2.264-0.664,3.298c-0.444,1.042-1.049,1.96-1.798,2.728
		c-0.744,0.762-1.631,1.369-2.637,1.804c-1,0.433-2.092,0.651-3.246,0.651H544h-10h-13.101c-0.465-2.279-2.484-4-4.899-4
		c-2.757,0-5,2.243-5,5s2.243,5,5,5c2.415,0,4.434-1.721,4.899-4H534h10h12.655c1.429,0,2.787-0.274,4.039-0.815
		c1.246-0.539,2.349-1.293,3.275-2.243c0.923-0.945,1.665-2.069,2.206-3.341c0.547-1.283,0.824-2.656,0.824-4.081
		C567,37.066,566.722,35.686,566.175,34.416z M534,35c-1.654,0-3-1.346-3-3s1.346-3,3-3s3,1.346,3,3S535.654,35,534,35z M551,40
		c0,1.654-1.346,3-3,3s-3-1.346-3-3s1.346-3,3-3S551,38.346,551,40z M516,51c-1.654,0-3-1.346-3-3s1.346-3,3-3s3,1.346,3,3
		S517.654,51,516,51z"/>
	<path style="&st0;" d="M617,149c-2.415,0-4.434,1.721-4.899,4H535v-22.101c2.279-0.465,4-2.484,4-4.899
		c0-0.338-0.036-0.667-0.1-0.986c1.308-0.889,4.648-3.839,14.275-13.643l17.77,15.385c0.188,0.164,0.422,0.244,0.654,0.244
		c0.272,0,0.544-0.111,0.741-0.329l8.097-8.945c0.494,0.164,1.013,0.275,1.562,0.275c2.757,0,5-2.243,5-5s-2.243-5-5-5s-5,2.243-5,5
		c0,1.473,0.652,2.785,1.668,3.701l-7.154,7.903l-17.74-15.359c-0.4-0.346-0.999-0.322-1.368,0.056
		c-5.788,5.907-12.383,12.386-14.292,13.869c-0.722-1.045-1.827-1.805-3.114-2.068V92c0-0.553-0.447-1-1-1s-1,0.447-1,1v29.101
		c-2.279,0.465-4,2.484-4,4.899c0,2.415,1.721,4.434,4,4.899V154c0,0.553,0.447,1,1,1H612.1c0.465,2.279,2.484,4,4.899,4
		c2.757,0,5-2.243,5-5S619.757,149,617,149z M582,110c1.654,0,3,1.346,3,3s-1.346,3-3,3s-3-1.346-3-3S580.346,110,582,110z M531,126
		c0-1.654,1.346-3,3-3s3,1.346,3,3s-1.346,3-3,3S531,127.654,531,126z M617,157c-1.654,0-3-1.346-3-3s1.346-3,3-3s3,1.346,3,3
		S618.654,157,617,157z"/>
	<path style="&st0;" d="M820,29c-2.415,0-4.434,1.721-4.899,4h-43.939C769.97,33,769,32.044,769,30.869V12.131
		c0-1.175,0.97-2.131,2.162-2.131h6.01c0.427,0,0.849,0.141,1.188,0.397l0.524,0.396c2.463,2.299,3.934,3.382,6.664,3.382h11.289
		c1.192,0,2.162,0.956,2.162,2.131v11.965c0,0.553,0.447,1,1,1s1-0.447,1-1V16.306c0-2.277-1.867-4.131-4.162-4.131h-11.289
		c-1.96,0-2.95-0.648-5.337-2.879c-0.025-0.024-0.053-0.047-0.081-0.068l-0.566-0.427C778.881,8.284,778.031,8,777.172,8h-6.01
		C768.867,8,767,9.854,767,12.131v18.738c0,2.168,1.697,3.932,3.839,4.098C770.894,34.977,770.943,35,771,35h44.101
		c0.465,2.279,2.484,4,4.899,4c2.757,0,5-2.243,5-5S822.757,29,820,29z M820,37c-1.654,0-3-1.346-3-3s1.346-3,3-3s3,1.346,3,3
		S821.654,37,820,37z"/>
	<path style="&st0;" d="M140.881,52.428c0-0.001-0.001-0.002-0.001-0.003l-6.69-21.187c-0.232-0.736-0.903-1.234-1.67-1.238
		c-0.003,0-0.005,0-0.009,0c-0.766,0-1.44,0.493-1.65,1.148l-3.843,9.021c-0.217,0.508,0.02,1.095,0.528,1.312
		c0.508,0.218,1.095-0.02,1.312-0.528l3.618-8.501l6.497,20.575c0,0.001,0,0.002,0,0.003c0.076,0.239-0.009,0.509-0.206,0.656
		l-18.812,14.065l-12.997-9.718c-0.032-0.032-5.699-4.294-5.699-4.294c-0.193-0.145-0.275-0.415-0.199-0.657l0.054-0.171
		C101.402,52.962,101.697,53,102,53c2.757,0,5-2.243,5-5c0-2.085-1.285-3.872-3.103-4.621l3.502-10.833l4.221,13.373
		c0.132,0.416,0.518,0.699,0.954,0.699h19.116c0.553,0,1-0.447,1-1s-0.447-1-1-1h-18.383l-4.224-13.381
		c-0.233-0.736-0.905-1.233-1.67-1.237c-0.003,0-0.006,0-0.009,0c-0.765,0-1.44,0.493-1.683,1.232l-3.807,11.776
		C99.198,43.055,97,45.272,97,48c0,1.741,0.897,3.273,2.251,4.169l-0.097,0.31c-0.334,1.055,0.03,2.204,0.907,2.861
		c0,0,4.017,3.036,4.054,3.063L119.357,69.8c0.178,0.133,0.388,0.199,0.599,0.199s0.421-0.066,0.599-0.199l19.41-14.514
		C140.844,54.63,141.212,53.48,140.881,52.428z M102,45c1.654,0,3,1.346,3,3s-1.346,3-3,3s-3-1.346-3-3S100.346,45,102,45z"/>
	<g>
		<path style="&st0;" d="M146.707,15.293c-0.391-0.391-1.023-0.391-1.414,0L142,18.586l-3.293-3.293
			c-0.391-0.391-1.023-0.391-1.414,0s-0.391,1.023,0,1.414L140.586,20l-3.293,3.293c-0.391,0.391-0.391,1.023,0,1.414
			C137.488,24.902,137.744,25,138,25s0.512-0.098,0.707-0.293L142,21.414l3.293,3.293C145.488,24.902,145.744,25,146,25
			s0.512-0.098,0.707-0.293c0.391-0.391,0.391-1.023,0-1.414L143.414,20l3.293-3.293C147.098,16.316,147.098,15.684,146.707,15.293z
			"/>
		<path style="&st0;" d="M147,0c-2.415,0-4.434,1.721-4.899,4h-22.202c-0.465-2.279-2.484-4-4.899-4c-2.757,0-5,2.243-5,5
			s2.243,5,5,5c2.415,0,4.434-1.721,4.899-4h0.663c0.038,0.004,0.072,0.022,0.111,0.022c2.625,0,4.76,2.135,4.76,4.76v3.251
			c-0.003,0.03-0.018,0.056-0.018,0.087c0,0.117,0.012,0.231,0.018,0.347V14.5c0,0.004,0.002,0.007,0.002,0.011
			c0.204,3.545,3.144,6.37,6.74,6.37c0.553,0,1-0.447,1-1s-0.447-1-1-1c-2.565,0-4.648-2.044-4.742-4.587v-3.512
			c0-1.866-0.76-3.558-1.987-4.782h16.656c0.465,2.279,2.484,4,4.899,4c2.757,0,5-2.243,5-5S149.757,0,147,0z M115,8
			c-1.654,0-3-1.346-3-3s1.346-3,3-3s3,1.346,3,3S116.654,8,115,8z M147,8c-1.654,0-3-1.346-3-3s1.346-3,3-3s3,1.346,3,3
			S148.654,8,147,8z"/>
	</g>
	<path style="&st0;" d="M499,135c-2.415,0-4.434,1.721-4.899,4H411.92c-0.488-3.386-3.401-6-6.92-6c-1.263,0-2.446,0.341-3.47,0.929
		l-23.152-27.066c-1.799-1.847-4.193-2.863-6.742-2.863c-2.547,0-4.94,1.018-6.775,2.902l-34.612,39.438
		c-0.032,0.037-0.044,0.083-0.071,0.123c-0.04,0.061-0.081,0.117-0.107,0.186s-0.033,0.14-0.043,0.213
		C330.021,146.909,330,146.951,330,147c0,0.011,0.006,0.02,0.006,0.031c0.002,0.075,0.025,0.145,0.044,0.218
		c0.014,0.055,0.02,0.111,0.042,0.162c0.023,0.052,0.063,0.094,0.095,0.141c0.042,0.061,0.079,0.124,0.133,0.175
		c0.008,0.008,0.011,0.018,0.019,0.025c0.048,0.042,0.104,0.062,0.157,0.094c0.046,0.027,0.085,0.061,0.135,0.08
		c0.118,0.047,0.242,0.074,0.367,0.074h38c0.035,0,0.065-0.016,0.099-0.02c0.457,2.289,2.479,4.02,4.901,4.02c2.757,0,5-2.243,5-5
		s-2.243-5-5-5c-2.421,0-4.444,1.731-4.901,4.02c-0.034-0.004-0.064-0.02-0.099-0.02h-35.792l22.672-25.835l3.42,2.604
		c0.36,0.299,0.956,0.29,1.305-0.023l3.313-2.522l3.962,2.593c0.372,0.261,0.943,0.219,1.271-0.094l2.997-2.449l3.278,2.496
		c0.176,0.146,0.4,0.23,0.64,0.23c0.251,0,0.486-0.094,0.665-0.254l3.875-2.95c0.439-0.335,0.524-0.962,0.19-1.401
		c-0.335-0.439-0.962-0.525-1.401-0.19l-3.332,2.537l-3.331-2.537c-0.368-0.279-0.882-0.272-1.238,0.021l-3.103,2.535l-3.969-2.598
		c-0.354-0.231-0.817-0.216-1.153,0.041l-3.331,2.537l-2.735-2.083l9.126-10.399c1.42-1.457,3.305-2.26,5.309-2.26
		s3.89,0.803,5.266,2.212l23.05,26.951C398.746,136.421,398,138.124,398,140c0,3.859,3.141,7,7,7c3.519,0,6.432-2.614,6.92-6H412
		c2.757,0,5,2.278,5,5.078v2.297c0,0.042,0.019,0.078,0.024,0.118c0.244,3.629,3.136,6.507,6.666,6.507H454
		c0.035,0,0.065-0.016,0.099-0.02c0.457,2.289,2.479,4.02,4.901,4.02c2.757,0,5-2.243,5-5s-2.243-5-5-5
		c-2.421,0-4.444,1.731-4.901,4.02c-0.034-0.004-0.064-0.02-0.099-0.02h-30.311c-2.586,0-4.689-2.243-4.689-5v-1.922
		c0-1.992-0.821-3.791-2.135-5.078h77.236c0.465,2.279,2.484,4,4.899,4c2.757,0,5-2.243,5-5S501.757,135,499,135z M374,144
		c1.654,0,3,1.346,3,3s-1.346,3-3,3s-3-1.346-3-3S372.346,144,374,144z M459,151c1.654,0,3,1.346,3,3s-1.346,3-3,3s-3-1.346-3-3
		S457.346,151,459,151z M405,145c-2.757,0-5-2.243-5-5s2.243-5,5-5s5,2.243,5,5S407.757,145,405,145z M499,143c-1.654,0-3-1.346-3-3
		s1.346-3,3-3s3,1.346,3,3S500.654,143,499,143z"/>
	<path style="&st0;" d="M28,98c0-2.757-2.243-5-5-5s-5,2.243-5,5c0,2.36,1.649,4.333,3.853,4.854
		c-0.02,2.575-2.093,4.66-4.659,4.713h-3.411c-1.866,0-3.558,0.76-4.782,1.987V92.899c2.279-0.465,4-2.484,4-4.899
		c0-2.757-2.243-5-5-5s-5,2.243-5,5c0,2.414,1.721,4.434,4,4.899v22.202c-2.279,0.465-4,2.484-4,4.899c0,2.757,2.243,5,5,5
		s5-2.243,5-5c0-2.414-1.721-4.434-4-4.899v-0.662c0.004-0.038,0.022-0.072,0.022-0.111c0-2.625,2.135-4.76,4.76-4.76h3.266
		c0.017,0.001,0.031,0.01,0.048,0.01c0.065,0,0.128-0.008,0.193-0.01h0.21c0.025,0,0.046-0.012,0.071-0.014
		c3.474-0.243,6.231-3.116,6.281-6.639C26.202,102.507,28,100.465,28,98z M5,88c0-1.654,1.346-3,3-3s3,1.346,3,3s-1.346,3-3,3
		S5,89.654,5,88z M11,120c0,1.654-1.346,3-3,3s-3-1.346-3-3s1.346-3,3-3S11,118.346,11,120z M23,101c-1.654,0-3-1.346-3-3
		s1.346-3,3-3s3,1.346,3,3S24.654,101,23,101z"/>
	<path style="&st0;" d="M645.667,49c-10.838,0-17.798,2.017-24.778,7.183c-1.113-0.746-2.45-1.183-3.887-1.183c-3.859,0-7,3.141-7,7
		s3.141,7,7,7s7-3.141,7-7c0-1.686-0.6-3.235-1.597-4.445C628.898,52.85,635.476,51,645.667,51c0.171,0,0.333,0.124,0.333,0.255
		c0,6.689-0.993,12.207-3.246,17.267l-3.549-2.84C639.703,64.906,640,63.989,640,63c0-2.757-2.243-5-5-5s-5,2.243-5,5
		c0,2.757,2.243,5,5,5c1.042,0,2.009-0.322,2.811-0.87l4.052,3.242c-1.994,3.846-4.761,7.469-8.465,11.189
		c-2.128,2.092-4.611,4.333-7.591,6.852c-0.211,0.178-0.339,0.436-0.354,0.711l-0.78,14.813c-0.009,0.088-0.076,0.215-0.137,0.258
		l-15.071,8.792c-0.006,0.003-0.021,0.013-0.109,0.013c-0.1,0-0.19-0.06-0.195-0.06l-2.469-2.466
		c-0.089-0.101-0.125-0.224-0.105-0.298l3.333-10.824c0.108-0.354,0.013-0.739-0.249-1.001l-11.019-11.02
		c-0.262-0.262-0.648-0.355-1.001-0.249l-10.881,3.329c-0.089,0-0.174-0.039-0.195-0.061l-2.477-2.475
		c-0.106-0.117-0.12-0.272-0.072-0.354l8.752-15.009c0.074-0.111,0.2-0.178,0.24-0.183l14.861-0.784
		c0.552-0.029,0.975-0.5,0.946-1.052c-0.029-0.551-0.515-0.971-1.052-0.946l-14.907,0.788c-0.698,0.069-1.354,0.469-1.785,1.119
		l-8.784,15.059c-0.491,0.844-0.36,1.956,0.354,2.74l2.51,2.51c0.404,0.405,1.007,0.646,1.609,0.646c0.159,0,0.399,0,0.646-0.084
		l10.247-3.156l10.167,10.168l-3.165,10.28c-0.206,0.759-0.008,1.574,0.571,2.225l2.565,2.562c0.453,0.389,0.99,0.594,1.554,0.594
		c0.44,0,0.805-0.096,1.131-0.294l15.107-8.815c0.599-0.397,0.998-1.052,1.073-1.799l0.761-14.431
		c2.873-2.438,5.287-4.625,7.38-6.681C644.302,73.446,648,64.551,648,51.255C648,50.012,646.953,49,645.667,49z M617.002,67
		c-2.757,0-5-2.243-5-5s2.243-5,5-5s5,2.243,5,5C622.002,64.757,619.759,67,617.002,67z M632,63c0-1.654,1.346-3,3-3s3,1.346,3,3
		s-1.346,3-3,3S632,64.654,632,63z"/>
	<path style="&st0;" d="M826.756,142.141l-24.193-27.952c-1.392-1.411-3.242-2.188-5.212-2.188s-3.82,0.777-5.248,2.227
		l-25.851,29.109c-0.033,0.038-0.046,0.084-0.073,0.125c-0.04,0.06-0.082,0.117-0.108,0.186s-0.032,0.14-0.043,0.212
		c-0.007,0.047-0.028,0.09-0.028,0.14c0,0.01,0.005,0.019,0.006,0.029c0.002,0.074,0.025,0.144,0.044,0.217
		c0.014,0.055,0.019,0.112,0.042,0.163s0.062,0.093,0.094,0.14c0.042,0.062,0.079,0.125,0.133,0.176
		c0.008,0.007,0.01,0.017,0.018,0.024c0.049,0.043,0.107,0.065,0.161,0.097c0.045,0.027,0.084,0.061,0.134,0.081
		C766.75,144.973,766.875,145,767,145h28c0.035,0,0.065-0.016,0.099-0.02c0.457,2.289,2.479,4.02,4.901,4.02c2.757,0,5-2.243,5-5
		s-2.243-5-5-5c-2.421,0-4.444,1.731-4.901,4.02c-0.034-0.004-0.064-0.02-0.099-0.02h-25.774l16.173-18.213
		c0.016,0.012,0.024,0.03,0.041,0.042l2.93,1.983c0.343,0.247,0.859,0.238,1.192-0.017l2.384-1.614l2.874,1.671
		c0.348,0.213,0.846,0.179,1.158-0.078l2.138-1.552l2.35,1.59c0.166,0.12,0.369,0.188,0.584,0.188c0.226,0,0.437-0.075,0.607-0.205
		l2.904-1.967c0.457-0.31,0.577-0.932,0.268-1.389c-0.31-0.456-0.93-0.576-1.389-0.268l-2.393,1.619l-2.392-1.619
		c-0.35-0.235-0.809-0.229-1.148,0.019l-2.226,1.616l-2.873-1.671c-0.332-0.193-0.745-0.18-1.063,0.036l-2.392,1.619l-2.223-1.504
		l6.832-7.694c1.013-1.027,2.358-1.593,3.788-1.593s2.775,0.565,3.744,1.545l24.149,27.904c0.361,0.419,0.993,0.463,1.41,0.102
		C827.072,143.189,827.117,142.559,826.756,142.141z M800,141c1.654,0,3,1.346,3,3s-1.346,3-3,3s-3-1.346-3-3S798.346,141,800,141z"
		/>
	<g>
		<path style="&st0;" d="M190,107h-3v-3c0-0.553-0.447-1-1-1s-1,0.447-1,1v3h-3c-0.553,0-1,0.447-1,1s0.447,1,1,1h3v3
			c0,0.553,0.447,1,1,1s1-0.447,1-1v-3h3c0.553,0,1-0.447,1-1S190.553,107,190,107z"/>
		<path style="&st0;" d="M195.388,99.078c-0.369-0.156-0.798-0.074-1.087,0.207l-3,2.931c-0.395,0.386-0.402,1.019-0.016,1.414
			c0.385,0.395,1.018,0.403,1.414,0.016l1.301-1.271V114c0,0.553,0.447,1,1,1s1-0.447,1-1v-14
			C196,99.598,195.759,99.234,195.388,99.078z"/>
	</g>
	<path style="&st0;" d="M699,36.101V27c0-0.553-0.447-1-1-1h-12v-8h7c2.206,0,4-1.794,4-4s-1.794-4-4-4h-16c-2.206,0-4,1.794-4,4
		s1.794,4,4,4h7v8h-12c-0.553,0-1,0.447-1,1v9.101c-2.279,0.465-4,2.484-4,4.899c0,2.757,2.243,5,5,5s5-2.243,5-5
		c0-2.414-1.721-4.434-4-4.899V28h11v8.101c-2.279,0.465-4,2.484-4,4.899c0,2.757,2.243,5,5,5s5-2.243,5-5
		c0-2.414-1.721-4.434-4-4.899V28h11v8.101c-2.279,0.465-4,2.484-4,4.899c0,2.757,2.243,5,5,5s5-2.243,5-5
		C703,38.586,701.279,36.566,699,36.101z M675,14c0-1.103,0.897-2,2-2h16c1.103,0,2,0.897,2,2s-0.897,2-2,2h-16
		C675.897,16,675,15.103,675,14z M675,41c0,1.654-1.346,3-3,3s-3-1.346-3-3s1.346-3,3-3S675,39.346,675,41z M688,41
		c0,1.654-1.346,3-3,3s-3-1.346-3-3s1.346-3,3-3S688,39.346,688,41z M698,44c-1.654,0-3-1.346-3-3s1.346-3,3-3s3,1.346,3,3
		S699.654,44,698,44z"/>
	<g>
		<path style="&st0;" d="M151.261,103h-27.362c-0.465-2.279-2.484-4-4.899-4c-2.757,0-5,2.243-5,5s2.243,5,5,5
			c2.415,0,4.434-1.721,4.899-4h27.362c2.062,0,3.739,1.678,3.739,3.739v6.521c0,2.062-1.678,3.739-3.739,3.739H100.74
			c-2.062,0-3.739-1.678-3.739-3.739v-6.521c0-2.062,1.678-3.739,3.739-3.739h9.205c0.553,0,1-0.447,1-1s-0.447-1-1-1h-9.205
			c-3.165,0-5.739,2.574-5.739,5.739v6.521c0,3.165,2.574,5.739,5.739,5.739h50.521c3.165,0,5.739-2.574,5.739-5.739v-6.521
			C157,105.574,154.426,103,151.261,103z M119,107c-1.654,0-3-1.346-3-3s1.346-3,3-3s3,1.346,3,3S120.654,107,119,107z"/>
		<path style="&st0;" d="M103,112c0,0.553,0.447,1,1,1h35.101c0.465,2.279,2.484,4,4.899,4c2.757,0,5-2.243,5-5s-2.243-5-5-5
			c-2.415,0-4.434,1.721-4.899,4H104C103.447,111,103,111.447,103,112z M144,109c1.654,0,3,1.346,3,3s-1.346,3-3,3s-3-1.346-3-3
			S142.346,109,144,109z"/>
	</g>
	<g>
		<path style="&st0;" d="M50,87c-8.271,0-15,6.729-15,15s6.729,15,15,15s15-6.729,15-15S58.271,87,50,87z M50,115
			c-7.168,0-13-5.832-13-13s5.832-13,13-13s13,5.832,13,13S57.168,115,50,115z"/>
		<path style="&st0;" d="M48.824,104.05h-3.302c0.117-1.196,3.874-1.755,3.874-4.654c0-1.976-1.651-2.847-3.172-2.847
			c-1.547,0-2.444,0.793-2.899,1.391c-0.272,0.352-0.182,0.676,0.182,0.962l0.508,0.403c0.351,0.286,0.688,0.156,1.014-0.156
			c0.221-0.233,0.572-0.455,0.988-0.455c0.48,0,1.001,0.273,1.001,0.924c0,1.339-4.018,1.949-4.018,5.382v0.286
			c0,0.468,0.325,0.715,0.768,0.715h5.057c0.469,0,0.715-0.247,0.715-0.715v-0.521C49.539,104.297,49.293,104.05,48.824,104.05z"/>
		<path style="&st0;" d="M56.884,104.05h-3.302c0.117-1.196,3.874-1.755,3.874-4.654c0-1.976-1.651-2.847-3.172-2.847
			c-1.547,0-2.444,0.793-2.899,1.391c-0.273,0.352-0.182,0.676,0.182,0.962l0.508,0.403c0.351,0.286,0.688,0.156,1.014-0.156
			c0.221-0.233,0.572-0.455,0.988-0.455c0.48,0,1.001,0.273,1.001,0.924c0,1.339-4.018,1.949-4.018,5.382v0.286
			c0,0.468,0.325,0.715,0.768,0.715h5.057c0.468,0,0.715-0.247,0.715-0.715v-0.521C57.599,104.297,57.352,104.05,56.884,104.05z"/>
	</g>
	<g>
		<path style="&st0;" d="M1071.558,42.104c-4.408,2.173-9.396,2.493-14.041,0.9c-4.684-1.607-8.461-4.962-10.636-9.447
			c-4.032-8.319-1.164-18.519,6.673-23.725c0.028-0.018,0.043-0.047,0.068-0.068c0.053-0.044,0.1-0.09,0.143-0.144
			c0.041-0.05,0.075-0.1,0.105-0.155c0.03-0.055,0.052-0.111,0.071-0.172c0.021-0.066,0.034-0.131,0.041-0.2
			C1053.984,9.061,1054,9.033,1054,9c0-0.031-0.015-0.057-0.018-0.087c-0.006-0.068-0.02-0.132-0.04-0.198s-0.043-0.126-0.075-0.185
			c-0.015-0.027-0.017-0.057-0.034-0.083c-0.019-0.028-0.047-0.043-0.068-0.068c-0.044-0.054-0.09-0.1-0.144-0.144
			c-0.05-0.04-0.099-0.074-0.154-0.104s-0.112-0.052-0.173-0.071c-0.066-0.021-0.131-0.034-0.201-0.041
			C1053.061,8.016,1053.033,8,1053,8h-70.101c-0.465-2.279-2.484-4-4.899-4c-2.757,0-5,2.243-5,5s2.243,5,5,5
			c2.415,0,4.434-1.721,4.899-4h67.206c-6.848,6.103-9.057,16.106-5.022,24.431c2.408,4.968,6.594,8.685,11.786,10.466
			c1.031,0.354,2.078,0.617,3.132,0.801V52h-3.101c-0.465-2.279-2.484-4-4.899-4c-2.757,0-5,2.243-5,5s2.243,5,5,5
			c2.415,0,4.434-1.721,4.899-4h4.1c0.553,0,1-0.447,1-1v-7.055c0.491,0.036,0.982,0.061,1.473,0.061c3.073,0,6.13-0.707,8.97-2.108
			c0.495-0.244,0.699-0.844,0.454-1.339C1072.652,42.062,1072.055,41.858,1071.558,42.104z M978,12c-1.654,0-3-1.346-3-3
			s1.346-3,3-3s3,1.346,3,3S979.654,12,978,12z M1052,56c-1.654,0-3-1.346-3-3s1.346-3,3-3s3,1.346,3,3S1053.654,56,1052,56z"/>
		<path style="&st0;" d="M1050,25c0,7.168,5.832,13,13,13s13-5.832,13-13s-5.832-13-13-13S1050,17.832,1050,25z M1063,14
			c6.065,0,11,4.935,11,11s-4.935,11-11,11s-11-4.935-11-11S1056.935,14,1063,14z"/>
	</g>
	<path style="&st0;" d="M280.768,47.477l-5.248-8.993c-0.303-0.454-0.803-0.758-1.384-0.815l-8.824-0.466
		c-0.551-0.035-1.023,0.396-1.052,0.946c-0.028,0.552,0.395,1.022,0.946,1.052l8.686,0.457l5.052,8.661l-1.246,1.246l-6.277-1.935
		c-0.353-0.106-0.739-0.013-1.001,0.249l-6.542,6.543c-0.262,0.262-0.357,0.647-0.249,1.001l1.934,6.278l-1.243,1.247l-8.661-5.051
		l-0.458-8.689c-0.015-0.275-0.143-0.533-0.354-0.711c-1.761-1.487-3.228-2.811-4.477-4.04c-2.085-2.094-3.663-4.134-4.818-6.288
		l2.589-2.182c0.422-0.356,0.476-0.987,0.12-1.409s-0.986-0.477-1.409-0.12l-2.186,1.843c-1.128-2.746-1.641-5.739-1.664-9.3
		c5.373,0.023,8.941,0.932,12.365,3.145C255.135,30.719,255,31.343,255,32c0,2.757,2.243,5,5,5s5-2.243,5-5s-2.243-5-5-5
		c-1.381,0-2.633,0.564-3.539,1.472C252.645,25.998,248.716,25,242.792,25c-0.988,0-1.792,0.783-1.792,1.745
		c0,8.016,2.229,13.377,7.959,19.131c1.214,1.193,2.611,2.462,4.266,3.868l0.446,8.438c0.052,0.535,0.355,1.037,0.863,1.372
		l8.932,5.211C263.73,64.924,264.02,65,264.351,65c0.426,0,0.848-0.16,1.243-0.503l1.531-1.533c0.411-0.464,0.562-1.089,0.394-1.703
		l-1.802-5.851l5.69-5.691l5.84,1.799c0.219,0.07,0.404,0.07,0.515,0.07c0.471,0,0.923-0.183,1.242-0.502l1.523-1.524
		C281.05,48.986,281.148,48.129,280.768,47.477z M260,29c1.654,0,3,1.346,3,3s-1.346,3-3,3s-3-1.346-3-3
		c0-0.584,0.174-1.125,0.464-1.586c0.01-0.012,0.024-0.018,0.033-0.031c0.019-0.026,0.022-0.058,0.038-0.085
		C258.077,29.515,258.978,29,260,29z"/>
	<g>
		<path style="&st0;" d="M1167,118h-4.08c-0.488-3.386-3.401-6-6.92-6c-3.859,0-7,3.141-7,7s3.141,7,7,7c3.519,0,6.432-2.614,6.92-6
			h4.08c0.552,0,1,0.448,1,1v36c0,0.552-0.448,1-1,1h-36c-0.552,0-1-0.448-1-1v-36c0-0.552,0.448-1,1-1h9.185c0.553,0,1-0.447,1-1
			s-0.447-1-1-1H1131c-1.654,0-3,1.346-3,3v36c0,1.654,1.346,3,3,3h36c1.654,0,3-1.346,3-3v-36C1170,119.346,1168.654,118,1167,118z
			 M1156,124c-2.757,0-5-2.243-5-5s2.243-5,5-5s5,2.243,5,5S1158.757,124,1156,124z"/>
		<path style="&st0;" d="M1138.298,130.288c-0.394,0.388-0.397,1.021-0.01,1.414l7.692,7.794l-7.692,7.794
			c-0.388,0.393-0.384,1.026,0.01,1.414c0.194,0.192,0.448,0.288,0.702,0.288c0.258,0,0.516-0.1,0.712-0.298l8.386-8.496
			c0.384-0.389,0.384-1.016,0-1.404l-8.386-8.496C1139.322,129.904,1138.689,129.9,1138.298,130.288z"/>
		<path style="&st0;" d="M1160,148.918c0.507,0,0.918-0.411,0.918-0.918s-0.411-0.918-0.918-0.918h-7.906
			c-0.507,0-0.918,0.411-0.918,0.918s0.411,0.918,0.918,0.918H1160z"/>
	</g>
	<path style="&st0;" d="M314,9c-2.421,0-4.444,1.731-4.901,4.02C309.065,13.016,309.035,13,309,13h-33.101
		c-0.465-2.279-2.484-4-4.899-4c-1.966,0-3.654,1.151-4.47,2.805L261.8,6H279c0.035,0,0.065-0.016,0.099-0.02
		C279.556,8.269,281.579,10,284,10c2.757,0,5-2.243,5-5s-2.243-5-5-5c-2.421,0-4.444,1.731-4.901,4.02
		C279.065,4.016,279.035,4,279,4h-38c-0.035,0-0.065,0.016-0.099,0.02C240.444,1.731,238.421,0,236,0c-2.757,0-5,2.243-5,5
		s2.243,5,5,5c2.421,0,4.444-1.731,4.901-4.02C240.935,5.984,240.965,6,241,6h18.221c0.002,0.002,0.002,0.005,0.004,0.007
		l6.812,8.361C266.229,16.951,268.369,19,271,19c2.415,0,4.434-1.721,4.899-4H309c0.035,0,0.065-0.016,0.099-0.02
		c0.457,2.289,2.48,4.02,4.901,4.02c2.757,0,5-2.243,5-5S316.757,9,314,9z M284,2c1.654,0,3,1.346,3,3s-1.346,3-3,3s-3-1.346-3-3
		S282.346,2,284,2z M236,8c-1.654,0-3-1.346-3-3s1.346-3,3-3s3,1.346,3,3S237.654,8,236,8z M271,17c-1.654,0-3-1.346-3-3
		s1.346-3,3-3s3,1.346,3,3S272.654,17,271,17z M314,17c-1.654,0-3-1.346-3-3s1.346-3,3-3s3,1.346,3,3S315.654,17,314,17z"/>
	<g>
		<path style="&st0;" d="M644,94h88c0.553,0,1-0.447,1-1V76.899c2.279-0.465,4-2.484,4-4.899s-1.721-4.434-4-4.899V5.146
			l3.772-2.023L741,5.173v21.928c-2.279,0.465-4,2.484-4,4.899s1.721,4.434,4,4.899V93c0,0.553,0.447,1,1,1h86c0.553,0,1-0.447,1-1
			s-0.447-1-1-1h-1.04c-19.309,0-36.547-7.968-51.261-23.657c0.8-0.887,1.301-2.048,1.301-3.334c0-2.757-2.243-5-5-5
			c-0.703,0-1.37,0.149-1.978,0.412C751.221,36.576,743.518,6.934,743,4.879V4.547c0-0.383-0.219-0.732-0.563-0.899l-5.25-2.547
			c-0.288-0.141-0.626-0.133-0.909,0.019l-4.75,2.547C731.203,3.84,731,4.179,731,4.547V4.88c-0.517,2.055-8.213,31.68-27.025,55.54
			c-0.606-0.262-1.273-0.41-1.975-0.41c-2.757,0-5,2.243-5,5c0,1.021,0.311,1.97,0.838,2.762C682.988,83.842,665.569,92,646.04,92
			H646h-2c-0.553,0-1,0.447-1,1S643.447,94,644,94z M803,89.641c2.468,0.939,4.981,1.724,7.536,2.359H803V89.641z M793,84.864
			c2.62,1.52,5.295,2.855,8.028,3.996C801.021,88.908,801,88.95,801,89v3h-8V84.864z M783,77.927c2.62,2.139,5.308,4.061,8.06,5.775
			C791.03,83.797,791,83.894,791,84v8h-8V77.927z M781,76.228V92h-8V69.909c0.379-0.077,0.736-0.208,1.079-0.366
			C776.327,71.951,778.637,74.173,781,76.228z M772,62.01c1.654,0,3,1.346,3,3c0,1.643-1.329,2.979-2.968,2.997
			c-0.011,0-0.021-0.007-0.032-0.007s-0.021,0.006-0.032,0.007C770.329,67.989,769,66.653,769,65.01
			C769,63.355,770.346,62.01,772,62.01z M763,54.161c1.686,2.507,3.477,4.989,5.385,7.414C767.532,62.472,767,63.677,767,65.01
			c0,2.414,1.721,4.434,4,4.899V92h-8V54.161z M753,36.786c2.294,4.651,4.952,9.495,8,14.305V92h-8V36.786z M743,12.015
			c1.603,5.023,4.232,12.413,8.057,20.705C751.03,32.81,751,32.9,751,33v59h-8V36.899c2.279-0.465,4-2.484,4-4.899
			s-1.721-4.434-4-4.899V12.015z M745,32c0,1.654-1.346,3-3,3s-3-1.346-3-3s1.346-3,3-3S745,30.346,745,32z M732,69
			c1.654,0,3,1.346,3,3s-1.346,3-3,3s-3-1.346-3-3S730.346,69,732,69z M731,12.015v55.086c-2.279,0.465-4,2.484-4,4.899
			s1.721,4.434,4,4.899V92h-8V33c0-0.1-0.03-0.191-0.057-0.283C726.767,24.426,729.398,17.037,731,12.015z M713,51.09
			c3.048-4.811,5.706-9.654,8-14.305V92h-8V51.09z M705.613,61.571c1.908-2.425,3.701-4.907,5.387-7.415V92h-8V70
			c0-0.032-0.015-0.059-0.018-0.09c2.288-0.457,4.018-2.48,4.018-4.9C707,63.676,706.467,62.469,705.613,61.571z M702,62.01
			c1.654,0,3,1.346,3,3c0,1.654-1.346,3-3,3s-3-1.346-3-3S700.346,62.01,702,62.01z M693,75.343
			c2.131-1.911,4.218-3.961,6.255-6.162c0.527,0.348,1.122,0.601,1.763,0.729C701.015,69.941,701,69.968,701,70v22h-8V75.343z
			 M683,83.014c2.73-1.766,5.402-3.724,8-5.913V92h-8V83.014z M673,88.407c2.722-1.191,5.392-2.557,8-4.127V92h-8V88.407z
			 M671,89.261V92h-8.547C665.356,91.279,668.209,90.376,671,89.261z"/>
		<path style="&st0;" d="M742,116c-3.524,0-6.441,2.622-6.922,6.016c-0.027-0.002-0.05-0.016-0.078-0.016h-2v-19
			c0-0.553-0.447-1-1-1h-83.101c-0.465-2.279-2.484-4-4.899-4c-2.757,0-5,2.243-5,5s2.243,5,5,5c2.415,0,4.434-1.721,4.899-4H731v19
			c0,0.553,0.447,1,1,1h3c0.028,0,0.051-0.013,0.078-0.016c0.481,3.394,3.398,6.016,6.922,6.016c3.859,0,7-3.141,7-7
			S745.859,116,742,116z M644,106c-1.654,0-3-1.346-3-3s1.346-3,3-3s3,1.346,3,3S645.654,106,644,106z M742,128
			c-2.757,0-5-2.243-5-5s2.243-5,5-5s5,2.243,5,5S744.757,128,742,128z"/>
		<path style="&st0;" d="M829,98c-2.421,0-4.444,1.731-4.901,4.02c-0.034-0.004-0.064-0.02-0.099-0.02h-82c-0.553,0-1,0.447-1,1v6
			c0,0.553,0.447,1,1,1s1-0.447,1-1v-5h81c0.035,0,0.065-0.016,0.099-0.02c0.457,2.289,2.479,4.02,4.901,4.02c2.757,0,5-2.243,5-5
			S831.757,98,829,98z M829,106c-1.654,0-3-1.346-3-3s1.346-3,3-3s3,1.346,3,3S830.654,106,829,106z"/>
		<path style="&st0;" d="M661.26,68.906c-0.806,0-1.391-0.416-1.689-0.571c-0.43-0.234-0.729-0.208-0.988,0.169l-0.403,0.585
			c-0.338,0.48-0.143,0.767,0.13,0.988c0.494,0.39,1.651,0.923,2.951,0.923c2.094,0,3.264-1.339,3.264-2.899
			c0-2.938-4.108-2.613-4.108-3.965c0-0.364,0.299-0.65,1.015-0.65c0.61,0,1.039,0.221,1.469,0.429
			c0.364,0.183,0.715,0.261,0.975-0.246l0.312-0.611c0.194-0.377,0.156-0.702-0.222-0.976c-0.441-0.312-1.43-0.688-2.509-0.688
			c-1.885,0-3.315,1.131-3.315,2.847c0,2.912,4.108,2.704,4.108,4.018C662.249,68.621,661.937,68.906,661.26,68.906z"/>
		<path style="&st0;" d="M667.084,70.844h0.845c0.468,0,0.715-0.247,0.715-0.715v-2.73h2.119c0.468,0,0.715-0.247,0.715-0.715v-0.52
			c0-0.469-0.247-0.716-0.715-0.716h-2.119v-1.95h2.704c0.469,0,0.715-0.246,0.715-0.715v-0.52c0-0.469-0.246-0.715-0.715-0.715
			h-4.264c-0.469,0-0.715,0.246-0.715,0.715v7.865C666.37,70.597,666.616,70.844,667.084,70.844z"/>
		<path style="&st0;" d="M678.004,71c2.886,0,4.862-2.133,4.862-4.862c0-2.665-1.977-4.745-4.862-4.745
			c-2.887,0-4.862,2.08-4.862,4.745C673.142,68.867,675.118,71,678.004,71z M678.004,63.473c1.469,0,2.509,1.144,2.509,2.665
			c0,1.586-1.04,2.782-2.509,2.782s-2.509-1.196-2.509-2.782C675.496,64.616,676.536,63.473,678.004,63.473z"/>
	</g>
	<g>
		<path style="&st0;" d="M545,60h-52c-0.028,0-0.051,0.013-0.078,0.016c-0.435-3.071-2.867-5.503-5.938-5.938
			C486.987,54.051,487,54.028,487,54v-7h6c0.035,0,0.065-0.016,0.099-0.02c0.458,2.288,2.48,4.017,4.901,4.017c2.757,0,5-2.243,5-5
			c0-2.323-1.6-4.263-3.75-4.822l3.745-39.079c0.027-0.281-0.065-0.56-0.255-0.769C502.551,1.119,502.282,1,502,1h-16
			c-0.553,0-1,0.447-1,1v35.934l-8.507-3.845c-0.287-0.131-0.618-0.116-0.895,0.035l-9.081,5c-0.483,0.267-0.66,0.874-0.394,1.358
			C466.306,40.813,466.647,41,467,41c0.163,0,0.328-0.04,0.481-0.124l8.643-4.759l8.463,3.825c0.134,0.061,0.274,0.085,0.412,0.085
			V54c0,0.028,0.013,0.051,0.016,0.078c-3.071,0.435-5.503,2.867-5.938,5.938C479.051,60.013,479.028,60,479,60h-7v-6
			c0-0.035-0.017-0.065-0.02-0.099c2.288-0.458,4.017-2.48,4.017-4.901c0-2.757-2.243-5-5-5c-2.323,0-4.263,1.6-4.822,3.75
			l-39.079-3.745c-0.29-0.025-0.56,0.065-0.769,0.255C426.119,44.449,426,44.718,426,45v16c0,0.553,0.447,1,1,1h52
			c0.028,0,0.051-0.013,0.078-0.016c0.435,3.071,2.867,5.503,5.938,5.938C485.013,67.949,485,67.972,485,68v7h-6
			c-0.035,0-0.065,0.016-0.099,0.02c-0.458-2.288-2.48-4.017-4.901-4.017c-2.757,0-5,2.243-5,5c0,2.323,1.6,4.263,3.75,4.822
			l-3.745,39.079c-0.027,0.281,0.065,0.56,0.255,0.769c0.189,0.208,0.458,0.327,0.74,0.327h16c0.553,0,1-0.447,1-1V68
			c0-0.028-0.013-0.051-0.016-0.078c3.071-0.435,5.503-2.867,5.938-5.938C492.949,61.987,492.972,62,493,62h7v6
			c0,0.035,0.017,0.065,0.02,0.099c-2.288,0.458-4.017,2.48-4.017,4.901c0,2.571,1.958,4.671,4.458,4.945
			c-0.006,0.107-0.007,0.215,0.024,0.323l11.302,40.471l-28.694,10.212l-33.767-9.488C449.742,118.733,450,117.9,450,117
			c0-1.977-1.163-3.673-2.831-4.484l11.796-43.253c0.146-0.532-0.169-1.082-0.702-1.228c-0.527-0.147-1.083,0.168-1.228,0.702
			l-11.805,43.286C445.152,112.02,445.079,112,445,112c-2.757,0-5,2.243-5,5s2.243,5,5,5c1.048,0,2.02-0.327,2.824-0.881
			l35.033,9.843c0.089,0.024,0.18,0.037,0.271,0.037c0.113,0,0.227-0.02,0.335-0.058l29.872-10.632
			c0.495-0.177,0.77-0.705,0.628-1.211L502.421,77.77c1.667-0.498,2.965-1.829,3.404-3.52l39.079,3.745
			C544.937,77.998,544.969,78,545,78c0.248,0,0.487-0.092,0.673-0.26C545.881,77.551,546,77.282,546,77V61
			C546,60.447,545.553,60,545,60z M501,45.997c0,1.654-1.346,3-3,3s-3-1.346-3-3s1.346-3,3-3S501,44.343,501,45.997z M487,35h5
			c0.553,0,1-0.447,1-1s-0.447-1-1-1h-5v-8h5c0.553,0,1-0.447,1-1s-0.447-1-1-1h-5v-8h5c0.553,0,1-0.447,1-1s-0.447-1-1-1h-5V3
			h13.899l-3.648,38.073c-2.079,0.316-3.745,1.899-4.153,3.947C493.065,45.016,493.035,45,493,45h-6V35z M470,54v6h-10v-5
			c0-0.553-0.447-1-1-1s-1,0.447-1,1v5h-8v-5c0-0.553-0.447-1-1-1s-1,0.447-1,1v5h-8v-5c0-0.553-0.447-1-1-1s-1,0.447-1,1v5h-10
			V46.101l38.073,3.648c0.316,2.079,1.899,3.745,3.947,4.153C470.016,53.935,470,53.965,470,54z M467.997,49c0-1.654,1.346-3,3-3
			s3,1.346,3,3s-1.346,3-3,3S467.997,50.654,467.997,49z M471,76.003c0-1.654,1.346-3,3-3s3,1.346,3,3s-1.346,3-3,3
			S471,77.657,471,76.003z M485,87h-5c-0.553,0-1,0.447-1,1s0.447,1,1,1h5v8h-5c-0.553,0-1,0.447-1,1s0.447,1,1,1h5v8h-5
			c-0.553,0-1,0.447-1,1s0.447,1,1,1h5v10h-13.899l3.648-38.073c2.079-0.316,3.745-1.899,4.153-3.947
			C478.935,76.984,478.965,77,479,77h6V87z M486,66c-2.757,0-5-2.243-5-5s2.243-5,5-5s5,2.243,5,5S488.757,66,486,66z M445,120
			c-1.654,0-3-1.346-3-3s1.346-3,3-3s3,1.346,3,3S446.654,120,445,120z M501.003,76c-1.654,0-3-1.346-3-3s1.346-3,3-3s3,1.346,3,3
			S502.657,76,501.003,76z M544,75.899l-38.073-3.648c-0.316-2.079-1.899-3.745-3.947-4.153C501.984,68.065,502,68.035,502,68v-6h10
			v5c0,0.553,0.447,1,1,1s1-0.447,1-1v-5h8v5c0,0.553,0.447,1,1,1s1-0.447,1-1v-5h8v5c0,0.553,0.447,1,1,1s1-0.447,1-1v-5h10V75.899
			z"/>
		<path style="&st0;" d="M509.715,15h0.845c0.468,0,0.715-0.247,0.715-0.715v-3.614c0-0.585-0.104-1.586-0.104-1.586h0.025
			c0,0,0.416,0.975,0.78,1.586l2.301,3.848c0.195,0.339,0.455,0.481,0.846,0.481h1.014c0.468,0,0.715-0.247,0.715-0.715V6.42
			c0-0.469-0.247-0.715-0.715-0.715h-0.845c-0.468,0-0.715,0.246-0.715,0.715v3.627c0,0.585,0.104,1.586,0.104,1.586h-0.026
			c0,0-0.416-0.975-0.779-1.586l-2.288-3.861c-0.195-0.338-0.455-0.48-0.858-0.48h-1.014c-0.469,0-0.715,0.246-0.715,0.715v7.865
			C509,14.753,509.246,15,509.715,15z"/>
		<path style="&st0;" d="M519.881,15h4.641c0.469,0,0.715-0.247,0.715-0.715v-0.521c0-0.468-0.246-0.715-0.715-0.715h-3.081V6.42
			c0-0.469-0.247-0.715-0.715-0.715h-0.845c-0.469,0-0.715,0.246-0.715,0.715v7.865C519.166,14.753,519.412,15,519.881,15z"/>
		<path style="&st0;" d="M527.407,15h2.587c2.925,0,4.797-1.742,4.797-4.667s-1.872-4.628-4.797-4.628h-2.587
			c-0.468,0-0.715,0.246-0.715,0.715v7.865C526.692,14.753,526.939,15,527.407,15z M528.967,7.654h0.937
			c1.534,0,2.535,0.91,2.535,2.679c0,1.781-0.962,2.717-2.535,2.717h-0.937V7.654z"/>
	</g>
	<g>
		<path style="&st0;" d="M322,122h-4v-4c0-0.553-0.447-1-1-1s-1,0.447-1,1v4h-4c-0.553,0-1,0.447-1,1s0.447,1,1,1h4v4
			c0,0.553,0.447,1,1,1s1-0.447,1-1v-4h4c0.553,0,1-0.447,1-1S322.553,122,322,122z"/>
		<path style="&st0;" d="M316.76,133.806c-0.553,0-1,0.447-1,1c0,2.625-2.135,4.76-4.76,4.76c-0.003,0-0.006,0.002-0.01,0.002
			h-3.208c-1.866,0-3.558,0.76-4.782,1.987V124.9c2.279-0.465,4-2.484,4-4.899c0-2.757-2.243-5-5-5s-5,2.243-5,5
			c0,2.414,1.721,4.434,4,4.899v22.202c-2.279,0.465-4,2.484-4,4.899c0,2.757,2.243,5,5,5s5-2.243,5-5c0-2.414-1.721-4.434-4-4.899
			v-0.662c0.004-0.038,0.022-0.072,0.022-0.111c0-2.625,2.135-4.76,4.76-4.76h3.718c0.064,0,0.12-0.025,0.181-0.036
			c3.409-0.342,6.079-3.228,6.079-6.725C317.76,134.253,317.312,133.806,316.76,133.806z M299,120c0-1.654,1.346-3,3-3s3,1.346,3,3
			s-1.346,3-3,3S299,121.654,299,120z M305,152c0,1.654-1.346,3-3,3s-3-1.346-3-3s1.346-3,3-3S305,150.346,305,152z"/>
	</g>
	<g>
		<path style="&st0;" d="M658,7h-4V3c0-0.553-0.447-1-1-1s-1,0.447-1,1v4h-4c-0.553,0-1,0.447-1,1s0.447,1,1,1h4v4
			c0,0.553,0.447,1,1,1s1-0.447,1-1V9h4c0.553,0,1-0.447,1-1S658.553,7,658,7z"/>
		<path style="&st0;" d="M652.76,18.806c-0.553,0-1,0.447-1,1c0,2.625-2.135,4.76-4.76,4.76c-0.003,0-0.006,0.002-0.01,0.002h-3.208
			c-1.866,0-3.558,0.76-4.782,1.987V9.899c2.279-0.465,4-2.484,4-4.899c0-2.757-2.243-5-5-5s-5,2.243-5,5
			c0,2.414,1.721,4.434,4,4.899v22.202c-2.279,0.465-4,2.484-4,4.899c0,2.757,2.243,5,5,5s5-2.243,5-5c0-2.414-1.721-4.434-4-4.899
			v-0.662c0.004-0.038,0.022-0.072,0.022-0.111c0-2.625,2.135-4.76,4.76-4.76h3.718c0.064,0,0.12-0.025,0.181-0.036
			c3.409-0.342,6.079-3.228,6.079-6.725C653.76,19.253,653.312,18.806,652.76,18.806z M635,5c0-1.654,1.346-3,3-3s3,1.346,3,3
			s-1.346,3-3,3S635,6.654,635,5z M641,37c0,1.654-1.346,3-3,3s-3-1.346-3-3s1.346-3,3-3S641,35.346,641,37z"/>
	</g>
	<g>
		<path style="&st0;" d="M325,35h-3v-3c0-0.553-0.447-1-1-1s-1,0.447-1,1v3h-3c-0.553,0-1,0.447-1,1s0.447,1,1,1h3v3
			c0,0.553,0.447,1,1,1s1-0.447,1-1v-3h3c0.553,0,1-0.447,1-1S325.553,35,325,35z"/>
		<path style="&st0;" d="M330.388,27.078c-0.37-0.156-0.798-0.075-1.087,0.207l-3,2.931c-0.395,0.386-0.402,1.019-0.016,1.414
			c0.386,0.396,1.019,0.402,1.414,0.016L329,30.375V42c0,0.553,0.447,1,1,1s1-0.447,1-1V28
			C331,27.598,330.759,27.234,330.388,27.078z"/>
	</g>
	<g>
		<path style="&st0;" d="M568,65h-3v-3c0-0.553-0.447-1-1-1s-1,0.447-1,1v3h-3c-0.553,0-1,0.447-1,1s0.447,1,1,1h3v3
			c0,0.553,0.447,1,1,1s1-0.447,1-1v-3h3c0.553,0,1-0.447,1-1S568.553,65,568,65z"/>
		<path style="&st0;" d="M573.388,57.078c-0.369-0.155-0.798-0.075-1.087,0.207l-3,2.931c-0.395,0.386-0.402,1.019-0.016,1.414
			c0.386,0.396,1.019,0.402,1.414,0.016L572,60.375V72c0,0.553,0.447,1,1,1s1-0.447,1-1V58
			C574,57.598,573.759,57.234,573.388,57.078z"/>
	</g>
	<g>
		<path style="&st0;" d="M805,61h-3v-3c0-0.553-0.447-1-1-1s-1,0.447-1,1v3h-3c-0.553,0-1,0.447-1,1s0.447,1,1,1h3v3
			c0,0.553,0.447,1,1,1s1-0.447,1-1v-3h3c0.553,0,1-0.447,1-1S805.553,61,805,61z"/>
		<path style="&st0;" d="M810.388,53.078c-0.37-0.156-0.798-0.075-1.087,0.207l-3,2.931c-0.395,0.386-0.402,1.019-0.016,1.414
			s1.018,0.403,1.414,0.016L809,56.375V68c0,0.553,0.447,1,1,1s1-0.447,1-1V54C811,53.598,810.759,53.234,810.388,53.078z"/>
	</g>
	<g>
		<path style="&st0;" d="M920,141h-3v-3c0-0.553-0.447-1-1-1s-1,0.447-1,1v3h-3c-0.553,0-1,0.447-1,1s0.447,1,1,1h3v3
			c0,0.553,0.447,1,1,1s1-0.447,1-1v-3h3c0.553,0,1-0.447,1-1S920.553,141,920,141z"/>
		<path style="&st0;" d="M925.388,133.078c-0.37-0.156-0.798-0.075-1.087,0.207l-3,2.931c-0.395,0.386-0.402,1.019-0.016,1.414
			s1.019,0.402,1.414,0.016l1.301-1.271V148c0,0.553,0.447,1,1,1s1-0.447,1-1v-14C926,133.598,925.759,133.234,925.388,133.078z"/>
	</g>
	<g>
		<path style="&st0;" d="M1154,83h-3v-3c0-0.553-0.447-1-1-1s-1,0.447-1,1v3h-3c-0.553,0-1,0.447-1,1s0.447,1,1,1h3v3
			c0,0.553,0.447,1,1,1s1-0.447,1-1v-3h3c0.553,0,1-0.447,1-1S1154.553,83,1154,83z"/>
		<path style="&st0;" d="M1159.388,75.078c-0.369-0.155-0.798-0.075-1.087,0.207l-3,2.931c-0.395,0.386-0.402,1.019-0.016,1.414
			c0.385,0.395,1.018,0.403,1.414,0.016l1.301-1.271V90c0,0.553,0.447,1,1,1s1-0.447,1-1V76
			C1160,75.598,1159.759,75.234,1159.388,75.078z"/>
	</g>
	<g>
		<path style="&st0;" d="M1134,90h-4v-4c0-0.553-0.447-1-1-1s-1,0.447-1,1v4h-4c-0.553,0-1,0.447-1,1s0.447,1,1,1h4v4
			c0,0.553,0.447,1,1,1s1-0.447,1-1v-4h4c0.553,0,1-0.447,1-1S1134.553,90,1134,90z"/>
		<path style="&st0;" d="M1128.76,101.806c-0.553,0-1,0.447-1,1c0,2.625-2.135,4.76-4.76,4.76c-0.003,0-0.006,0.002-0.01,0.002
			h-3.208c-1.866,0-3.558,0.76-4.782,1.987V92.899c2.279-0.465,4-2.484,4-4.899c0-2.757-2.243-5-5-5s-5,2.243-5,5
			c0,2.414,1.721,4.434,4,4.899v22.202c-2.279,0.465-4,2.484-4,4.899c0,2.757,2.243,5,5,5s5-2.243,5-5c0-2.414-1.721-4.434-4-4.899
			v-0.662c0.004-0.038,0.022-0.072,0.022-0.111c0-2.625,2.135-4.76,4.76-4.76h3.718c0.064,0,0.12-0.025,0.181-0.036
			c3.409-0.342,6.079-3.228,6.079-6.725C1129.76,102.253,1129.312,101.806,1128.76,101.806z M1111,88c0-1.654,1.346-3,3-3
			s3,1.346,3,3s-1.346,3-3,3S1111,89.654,1111,88z M1117,120c0,1.654-1.346,3-3,3s-3-1.346-3-3s1.346-3,3-3S1117,118.346,1117,120z"
			/>
	</g>
	<g>
		<path style="&st0;" d="M1004.293,109.707c0.195,0.195,0.451,0.293,0.707,0.293s0.512-0.098,0.707-0.293l3.293-3.293l3.293,3.293
			c0.195,0.195,0.451,0.293,0.707,0.293s0.512-0.098,0.707-0.293c0.391-0.391,0.391-1.023,0-1.414l-3.293-3.293l3.293-3.293
			c0.391-0.391,0.391-1.023,0-1.414s-1.023-0.391-1.414,0l-3.293,3.293l-3.293-3.293c-0.391-0.391-1.023-0.391-1.414,0
			s-0.391,1.023,0,1.414l3.293,3.293l-3.293,3.293C1003.902,108.684,1003.902,109.316,1004.293,109.707z"/>
		<path style="&st0;" d="M1036,115c-2.415,0-4.434,1.721-4.899,4h-0.663c-0.038-0.004-0.072-0.022-0.111-0.022
			c-2.625,0-4.76-2.135-4.76-4.76v-3.251c0.003-0.03,0.018-0.056,0.018-0.087c0-0.117-0.012-0.231-0.018-0.347V110.5
			c0-0.004-0.002-0.007-0.002-0.011c-0.204-3.545-3.144-6.37-6.74-6.37c-0.553,0-1,0.447-1,1s0.447,1,1,1
			c2.565,0,4.648,2.044,4.742,4.587v3.512c0,1.866,0.76,3.558,1.987,4.782h-16.656c-0.465-2.279-2.484-4-4.899-4
			c-2.757,0-5,2.243-5,5s2.243,5,5,5c2.415,0,4.434-1.721,4.899-4h22.202c0.465,2.279,2.484,4,4.899,4c2.757,0,5-2.243,5-5
			S1038.757,115,1036,115z M1004,123c-1.654,0-3-1.346-3-3s1.346-3,3-3s3,1.346,3,3S1005.654,123,1004,123z M1036,123
			c-1.654,0-3-1.346-3-3s1.346-3,3-3s3,1.346,3,3S1037.654,123,1036,123z"/>
	</g>
	<path style="&st0;" d="M1035,150c-2.421,0-4.444,1.731-4.901,4.02c-0.034-0.004-0.064-0.02-0.099-0.02h-43.101
		c-0.465-2.279-2.484-4-4.899-4c-1.96,0-3.643,1.144-4.462,2.79l-4.735-5.79H990c0.035,0,0.065-0.016,0.099-0.02
		c0.457,2.289,2.479,4.02,4.901,4.02c2.757,0,5-2.243,5-5s-2.243-5-5-5c-2.421,0-4.444,1.731-4.901,4.02
		c-0.034-0.004-0.064-0.02-0.099-0.02h-38c-0.035,0-0.065,0.016-0.099,0.02c-0.457-2.289-2.479-4.02-4.901-4.02
		c-2.757,0-5,2.243-5,5s2.243,5,5,5c2.421,0,4.444-1.731,4.901-4.02c0.034,0.004,0.064,0.02,0.099,0.02h18.221
		c0.002,0.002,0.002,0.005,0.004,0.008l6.808,8.325c0.175,2.599,2.323,4.667,4.966,4.667c2.415,0,4.434-1.721,4.899-4H1030
		c0.035,0,0.065-0.016,0.099-0.02c0.457,2.289,2.479,4.02,4.901,4.02c2.757,0,5-2.243,5-5S1037.757,150,1035,150z M995,143
		c1.654,0,3,1.346,3,3s-1.346,3-3,3s-3-1.346-3-3S993.346,143,995,143z M947,149c-1.654,0-3-1.346-3-3s1.346-3,3-3s3,1.346,3,3
		S948.654,149,947,149z M982,158c-1.654,0-3-1.346-3-3s1.346-3,3-3s3,1.346,3,3S983.654,158,982,158z M1035,158
		c-1.654,0-3-1.346-3-3s1.346-3,3-3s3,1.346,3,3S1036.654,158,1035,158z"/>
	<path style="&st0;" d="M952,37.101V14.899c2.279-0.465,4-2.484,4-4.899c0-2.757-2.243-5-5-5s-5,2.243-5,5
		c0,2.414,1.721,4.434,4,4.899v0.663c-0.004,0.038-0.022,0.072-0.022,0.111c0,2.625-2.135,4.76-4.76,4.76h-3.266
		c-0.017-0.001-0.031-0.01-0.048-0.01c-0.065,0-0.128,0.008-0.193,0.01h-0.21c-0.025,0-0.046,0.012-0.071,0.014
		c-3.474,0.243-6.231,3.116-6.281,6.639C932.798,27.493,931,29.535,931,32c0,2.757,2.243,5,5,5s5-2.243,5-5
		c0-2.36-1.649-4.333-3.853-4.854c0.02-2.575,2.093-4.66,4.659-4.713h3.411c1.866,0,3.558-0.76,4.782-1.987v16.655
		c-2.279,0.465-4,2.484-4,4.899c0,2.757,2.243,5,5,5s5-2.243,5-5C956,39.586,954.279,37.566,952,37.101z M939,32
		c0,1.654-1.346,3-3,3s-3-1.346-3-3s1.346-3,3-3S939,30.346,939,32z M948,10c0-1.654,1.346-3,3-3s3,1.346,3,3s-1.346,3-3,3
		S948,11.654,948,10z M951,45c-1.654,0-3-1.346-3-3s1.346-3,3-3s3,1.346,3,3S952.654,45,951,45z"/>
	<g>
		<path style="&st0;" d="M938,55c-8.271,0-15,6.729-15,15s6.729,15,15,15s15-6.729,15-15S946.271,55,938,55z M938,83
			c-7.168,0-13-5.832-13-13s5.832-13,13-13s13,5.832,13,13S945.168,83,938,83z"/>
		<path style="&st0;" d="M936.824,72.05h-3.302c0.117-1.196,3.874-1.755,3.874-4.654c0-1.976-1.651-2.847-3.172-2.847
			c-1.547,0-2.444,0.793-2.899,1.391c-0.272,0.352-0.182,0.676,0.182,0.962l0.508,0.403c0.351,0.286,0.688,0.156,1.014-0.156
			c0.221-0.233,0.572-0.455,0.988-0.455c0.48,0,1.001,0.273,1.001,0.924c0,1.339-4.018,1.949-4.018,5.382v0.286
			c0,0.468,0.325,0.715,0.768,0.715h5.057c0.469,0,0.715-0.247,0.715-0.715v-0.521C937.539,72.297,937.293,72.05,936.824,72.05z"/>
		<path style="&st0;" d="M944.884,72.05h-3.302c0.117-1.196,3.874-1.755,3.874-4.654c0-1.976-1.651-2.847-3.172-2.847
			c-1.547,0-2.444,0.793-2.899,1.391c-0.273,0.352-0.182,0.676,0.182,0.962l0.508,0.403c0.351,0.286,0.688,0.156,1.014-0.156
			c0.221-0.233,0.572-0.455,0.988-0.455c0.48,0,1.001,0.273,1.001,0.924c0,1.339-4.018,1.949-4.018,5.382v0.286
			c0,0.468,0.325,0.715,0.768,0.715h5.057c0.468,0,0.715-0.247,0.715-0.715v-0.521C945.599,72.297,945.352,72.05,944.884,72.05z"/>
	</g>
	<path style="&st0;" d="M751,135c-2.415,0-4.434,1.721-4.899,4h-22.202c-0.465-2.279-2.484-4-4.899-4c-2.757,0-5,2.243-5,5
		s2.243,5,5,5c2.415,0,4.434-1.721,4.899-4h0.663c0.038,0.004,0.072,0.022,0.111,0.022c2.625,0,4.76,2.135,4.76,4.76v3.266
		c-0.001,0.017-0.01,0.031-0.01,0.048c0,0.065,0.008,0.128,0.01,0.193v0.211c0,0.025,0.012,0.046,0.014,0.071
		c0.243,3.474,3.116,6.231,6.639,6.281c0.407,2.351,2.448,4.148,4.914,4.148c2.757,0,5-2.243,5-5s-2.243-5-5-5
		c-2.36,0-4.333,1.649-4.854,3.853c-2.574-0.02-4.66-2.093-4.713-4.659v-3.411c0-1.866-0.76-3.558-1.987-4.782h16.656
		c0.465,2.279,2.484,4,4.899,4c2.757,0,5-2.243,5-5S753.757,135,751,135z M741,152c1.654,0,3,1.346,3,3s-1.346,3-3,3s-3-1.346-3-3
		S739.346,152,741,152z M719,143c-1.654,0-3-1.346-3-3s1.346-3,3-3s3,1.346,3,3S720.654,143,719,143z M751,143c-1.654,0-3-1.346-3-3
		s1.346-3,3-3s3,1.346,3,3S752.654,143,751,143z"/>
	<g>
		<path style="&st0;" d="M697.261,115h-27.362c-0.465-2.279-2.484-4-4.899-4c-2.757,0-5,2.243-5,5s2.243,5,5,5
			c2.415,0,4.434-1.721,4.899-4h27.362c2.062,0,3.739,1.678,3.739,3.739v6.521c0,2.062-1.678,3.739-3.739,3.739H646.74
			c-2.062,0-3.739-1.678-3.739-3.739v-6.521c0-2.062,1.678-3.739,3.739-3.739h9.205c0.553,0,1-0.447,1-1s-0.447-1-1-1h-9.205
			c-3.165,0-5.739,2.574-5.739,5.739v6.521c0,3.165,2.574,5.739,5.739,5.739h50.521c3.165,0,5.739-2.574,5.739-5.739v-6.521
			C703,117.574,700.426,115,697.261,115z M665,119c-1.654,0-3-1.346-3-3s1.346-3,3-3s3,1.346,3,3S666.654,119,665,119z"/>
		<path style="&st0;" d="M649,124c0,0.553,0.447,1,1,1h35.101c0.465,2.279,2.484,4,4.899,4c2.757,0,5-2.243,5-5s-2.243-5-5-5
			c-2.415,0-4.434,1.721-4.899,4H650C649.447,123,649,123.447,649,124z M690,121c1.654,0,3,1.346,3,3s-1.346,3-3,3s-3-1.346-3-3
			S688.346,121,690,121z"/>
		<path style="&st0;" d="M697.261,138H646.74c-3.165,0-5.739,2.574-5.739,5.739v6.521c0,3.165,2.574,5.739,5.739,5.739h9.205
			c0.553,0,1-0.447,1-1s-0.447-1-1-1h-9.205c-2.062,0-3.739-1.678-3.739-3.739v-6.521c0-2.062,1.678-3.739,3.739-3.739h50.521
			c2.062,0,3.739,1.678,3.739,3.739v6.521c0,2.062-1.678,3.739-3.739,3.739h-27.362c-0.465-2.279-2.484-4-4.899-4
			c-2.757,0-5,2.243-5,5s2.243,5,5,5c2.415,0,4.434-1.721,4.899-4h27.362c3.165,0,5.739-2.574,5.739-5.739v-6.521
			C703,140.574,700.426,138,697.261,138z M665,158c-1.654,0-3-1.346-3-3s1.346-3,3-3s3,1.346,3,3S666.654,158,665,158z"/>
		<path style="&st0;" d="M690,152c2.757,0,5-2.243,5-5s-2.243-5-5-5c-2.415,0-4.434,1.721-4.899,4H650c-0.553,0-1,0.447-1,1
			s0.447,1,1,1h35.101C685.566,150.279,687.585,152,690,152z M690,144c1.654,0,3,1.346,3,3s-1.346,3-3,3s-3-1.346-3-3
			S688.346,144,690,144z"/>
	</g>
	<path style="&st0;" d="M847.98,89.099C847.984,89.065,848,89.035,848,89V55.899c2.279-0.465,4-2.484,4-4.899
		c0-2.651-2.081-4.806-4.691-4.969l-8.3-6.805c-0.003-0.002-0.006-0.003-0.009-0.005V21c0-0.035-0.016-0.065-0.02-0.099
		c2.289-0.457,4.02-2.48,4.02-4.901c0-2.757-2.243-5-5-5s-5,2.243-5,5c0,2.421,1.731,4.444,4.02,4.901
		C837.016,20.935,837,20.965,837,21v38c0,0.035,0.016,0.065,0.02,0.099C834.731,59.556,833,61.579,833,64c0,2.757,2.243,5,5,5
		s5-2.243,5-5c0-2.421-1.731-4.444-4.02-4.901C838.984,59.065,839,59.035,839,59V41.805l5.779,4.738
		C843.139,47.365,842,49.044,842,51c0,2.414,1.721,4.434,4,4.899V89c0,0.035,0.016,0.065,0.02,0.099
		C843.731,89.556,842,91.579,842,94c0,2.757,2.243,5,5,5s5-2.243,5-5C852,91.579,850.269,89.556,847.98,89.099z M835,16
		c0-1.654,1.346-3,3-3s3,1.346,3,3s-1.346,3-3,3S835,17.654,835,16z M841,64c0,1.654-1.346,3-3,3s-3-1.346-3-3s1.346-3,3-3
		S841,62.346,841,64z M844,51c0-1.654,1.346-3,3-3s3,1.346,3,3s-1.346,3-3,3S844,52.654,844,51z M847,97c-1.654,0-3-1.346-3-3
		s1.346-3,3-3s3,1.346,3,3S848.654,97,847,97z"/>
	<path style="&st0;" d="M617.881,29.428c0-0.001-0.001-0.002-0.001-0.003l-6.69-21.187c-0.232-0.736-0.903-1.234-1.67-1.238
		c-0.003,0-0.005,0-0.009,0c-0.766,0-1.44,0.493-1.65,1.148l-3.843,9.021c-0.217,0.508,0.02,1.095,0.528,1.312
		s1.095-0.02,1.312-0.528l3.618-8.501l6.497,20.575c0,0.001,0,0.002,0,0.003c0.076,0.239-0.009,0.509-0.206,0.656l-18.812,14.065
		l-12.997-9.718c-0.032-0.032-0.052-0.071-0.089-0.099l-5.61-4.195c-0.193-0.145-0.275-0.415-0.199-0.657l0.054-0.171
		C578.402,29.962,578.697,30,579,30c2.757,0,5-2.243,5-5c0-2.085-1.285-3.872-3.103-4.621l3.502-10.833l4.221,13.373
		c0.132,0.416,0.518,0.699,0.954,0.699h19.116c0.553,0,1-0.447,1-1s-0.447-1-1-1h-18.383l-4.224-13.381
		c-0.233-0.736-0.905-1.233-1.67-1.237c-0.003,0-0.006,0-0.009,0c-0.765,0-1.44,0.493-1.683,1.232l-3.807,11.776
		C576.198,20.055,574,22.272,574,25c0,1.741,0.897,3.273,2.251,4.169l-0.097,0.31c-0.334,1.055,0.03,2.204,0.907,2.861l3.966,2.965
		c0.032,0.031,0.051,0.071,0.088,0.099l15.242,11.397c0.178,0.133,0.388,0.199,0.599,0.199s0.421-0.066,0.599-0.199l19.41-14.514
		C617.844,31.63,618.212,30.48,617.881,29.428z M579,22c1.654,0,3,1.346,3,3s-1.346,3-3,3s-3-1.346-3-3S577.346,22,579,22z"/>
	<path style="&st0;" d="M1169.804,43.005c0-0.001,0-0.001,0-0.002l-13.409-41.261c-0.343-1.052-1.28-1.736-2.39-1.742
		c-0.005,0-0.011,0-0.016,0c-1.111,0-2.058,0.678-2.382,1.65l-7.701,17.566c-0.222,0.506,0.009,1.096,0.515,1.317
		c0.507,0.222,1.095-0.01,1.317-0.515l7.732-17.647c0.113-0.335,0.398-0.372,0.52-0.372c0.123,0,0.396,0.034,0.502,0.36
		l13.409,41.262l0,0c0.275,0.848-0.032,1.774-0.763,2.306l-38.316,27.835l-26.764-19.443c-0.008-0.007-0.012-0.017-0.021-0.023
		l-11.193-8.17c-0.721-0.526-1.02-1.454-0.743-2.31l0.546-1.687c0.028-0.087,0.026-0.174,0.03-0.261
		c0.429,0.083,0.871,0.129,1.324,0.129c3.859,0,7-3.141,7-7c0-2.896-1.768-5.386-4.281-6.45l8.439-26.024
		c0.113-0.335,0.398-0.372,0.52-0.372c0.112-0.038,0.396,0.035,0.502,0.36l9.016,27.794c0.134,0.412,0.518,0.691,0.951,0.691h34.277
		c0.774,1.763,2.531,3,4.576,3c2.757,0,5-2.243,5-5s-2.243-5-5-5s-5,2.243-5,5h-33.127l-8.791-27.104
		c-0.343-1.052-1.28-1.736-2.39-1.742c-0.005,0-0.011,0-0.016,0c-1.111,0-2.058,0.679-2.417,1.743l-8.479,26.149
		c-0.257-0.029-0.516-0.046-0.78-0.046c-3.859,0-7,3.141-7,7c0,2.741,1.588,5.112,3.888,6.261c-0.056,0.08-0.113,0.159-0.144,0.256
		l-0.546,1.687c-0.543,1.679,0.046,3.503,1.466,4.54l7.97,5.817c0.019,0.016,0.029,0.039,0.05,0.054l30.551,22.194
		c0.176,0.128,0.382,0.191,0.588,0.191s0.412-0.063,0.588-0.191l38.904-28.263C1169.748,46.504,1170.346,44.679,1169.804,43.005z
		 M1153,26c1.654,0,3,1.346,3,3s-1.346,3-3,3s-3-1.346-3-3S1151.346,26,1153,26z M1087,35c0-2.757,2.243-5,5-5s5,2.243,5,5
		s-2.243,5-5,5S1087,37.757,1087,35z"/>
	<path style="&st0;" d="M1092.98,83.099c0.004-0.034,0.02-0.064,0.02-0.099v-4.952c0-3.881-3.134-7.04-6.987-7.047
		c-0.001,0-0.002-0.001-0.003-0.001h-23.111c-0.465-2.279-2.484-4-4.899-4c-2.757,0-5,2.243-5,5s2.243,5,5,5
		c2.415,0,4.434-1.721,4.899-4H1069c2.757,0,5,2.265,5,5.048V83c0,0.035,0.016,0.065,0.02,0.099c-2.289,0.457-4.02,2.48-4.02,4.901
		c0,2.757,2.243,5,5,5s5-2.243,5-5c0-2.421-1.731-4.444-4.02-4.901c0.004-0.034,0.02-0.064,0.02-0.099v-4.952
		c0-1.979-0.817-3.766-2.126-5.048H1086c2.757,0,5,2.265,5,5.048V83c0,0.035,0.016,0.065,0.02,0.099
		c-2.289,0.457-4.02,2.48-4.02,4.901c0,2.757,2.243,5,5,5s5-2.243,5-5C1097,85.579,1095.269,83.556,1092.98,83.099z M1078,88
		c0,1.654-1.346,3-3,3s-3-1.346-3-3s1.346-3,3-3S1078,86.346,1078,88z M1058,75c-1.654,0-3-1.346-3-3s1.346-3,3-3s3,1.346,3,3
		S1059.654,75,1058,75z M1092,91c-1.654,0-3-1.346-3-3s1.346-3,3-3s3,1.346,3,3S1093.654,91,1092,91z"/>
	<path style="&st0;" d="M1032,76.08V43.491c0-3.579-2.859-6.491-6.374-6.491H1018c-0.035,0-0.065,0.016-0.099,0.02
		c-0.393-1.965-1.938-3.519-3.901-3.919v-3.276c0-2.66-2.039-4.825-4.546-4.825h-20.908c-2.507,0-4.546,2.165-4.546,4.825V37
		h-11.481c-3.595,0-6.519,2.929-6.519,6.529V78.47c0,3.601,2.924,6.529,6.519,6.529H1013c0.553,0,1-0.447,1-1s-0.447-1-1-1h-40.481
		c-2.491,0-4.519-2.032-4.519-4.529V57.6c0.105,0.038,0.215,0.067,0.333,0.067h26c0.036,0,0.067-0.017,0.102-0.021
		c0.457,2.289,2.479,4.021,4.901,4.021c2.415,0,4.434-1.721,4.899-4H1030V76.08c-3.386,0.488-6,3.401-6,6.92c0,3.859,3.141,7,7,7
		s7-3.141,7-7C1038,79.481,1035.386,76.568,1032,76.08z M1016,38c0,1.654-1.346,3-3,3s-3-1.346-3-3s1.346-3,3-3S1016,36.346,1016,38
		z M986,29.825c0-1.558,1.143-2.825,2.546-2.825h20.908c1.403,0,2.546,1.268,2.546,2.825v3.276c-1.956,0.399-3.5,1.943-3.899,3.899
		H986V29.825z M999.336,59.667c-1.654,0-3-1.346-3-3s1.346-3,3-3c1.651,0,2.994,1.341,2.999,2.99c0,0.003-0.002,0.006-0.002,0.01
		s0.002,0.006,0.002,0.01C1002.33,58.326,1000.987,59.667,999.336,59.667z M1004.235,55.667c-0.465-2.279-2.484-4-4.899-4
		c-2.421,0-4.444,1.731-4.901,4.021c-0.035-0.004-0.066-0.021-0.102-0.021h-26c-0.118,0-0.228,0.03-0.333,0.067V43.529
		c0-2.497,2.027-4.529,4.519-4.529h35.583c0.465,2.279,2.484,4,4.899,4c2.421,0,4.444-1.731,4.901-4.02
		c0.034,0.004,0.064,0.02,0.099,0.02h7.626c2.412,0,4.374,2.015,4.374,4.491v12.176H1004.235z M1031,88c-2.757,0-5-2.243-5-5
		s2.243-5,5-5s5,2.243,5,5S1033.757,88,1031,88z"/>
	<path style="&st0;" d="M908,81.004c0-3.859-3.141-7-7-7c-3.74,0-6.796,2.951-6.982,6.645L888,86.527V66c0-0.553-0.447-1-1-1
		s-1,0.447-1,1v20.686l-5.793-5.793c-0.391-0.391-1.023-0.391-1.414,0s-0.391,1.023,0,1.414l7.4,7.4
		C886.389,89.902,886.645,90,886.9,90c0.252,0,0.504-0.095,0.699-0.284l6.735-6.579c0.806,2.511,2.995,4.402,5.665,4.787V95h-31
		v-5.101c2.279-0.465,4-2.484,4-4.899c0-2.757-2.243-5-5-5s-5,2.243-5,5c0,2.414,1.721,4.434,4,4.899V96c0,0.553,0.447,1,1,1h33
		c0.553,0,1-0.447,1-1v-8.076C905.386,87.436,908,84.523,908,81.004z M865,85c0-1.654,1.346-3,3-3s3,1.346,3,3s-1.346,3-3,3
		S865,86.654,865,85z M901.013,86.003c-0.005,0-0.008-0.003-0.013-0.003s-0.008,0.003-0.013,0.003
		c-2.751-0.007-4.987-2.246-4.987-4.999c0-2.757,2.243-5,5-5s5,2.243,5,5C906,83.756,903.764,85.995,901.013,86.003z"/>
	<path style="&st0;" d="M1117.95,145.248c0.019-0.073,0.042-0.143,0.044-0.217c0-0.011,0.006-0.02,0.006-0.031
		c0-0.049-0.021-0.091-0.028-0.138c-0.01-0.072-0.017-0.143-0.043-0.212s-0.067-0.126-0.107-0.187
		c-0.026-0.04-0.038-0.086-0.07-0.123l-34.648-39.478c-1.799-1.846-4.192-2.863-6.739-2.863c-0.001,0-0.001,0-0.001,0
		c-2.548,0-4.942,1.018-6.785,2.911l-23.338,27.287c-0.359,0.42-0.31,1.052,0.109,1.41s1.052,0.311,1.41-0.109l23.294-27.239
		c1.42-1.457,3.306-2.26,5.31-2.26s3.889,0.803,5.272,2.221l9.161,10.438l-2.734,2.082l-3.331-2.537
		c-0.336-0.257-0.799-0.273-1.153-0.041l-3.969,2.598l-3.103-2.535c-0.357-0.293-0.871-0.3-1.238-0.021l-3.331,2.537l-3.332-2.537
		c-0.439-0.334-1.066-0.249-1.401,0.19c-0.334,0.439-0.249,1.066,0.19,1.401l3.905,2.974c0.36,0.299,0.957,0.29,1.305-0.023
		l3.248-2.473l3.026,2.473c0.339,0.3,0.911,0.323,1.274,0.049l3.929-2.571l3.344,2.546c0.176,0.146,0.4,0.23,0.64,0.23
		c0.251,0,0.486-0.094,0.665-0.254l3.389-2.58L1114.792,144H1079c-0.035,0-0.065,0.016-0.099,0.02
		c-0.457-2.289-2.479-4.02-4.901-4.02c-2.757,0-5,2.243-5,5s2.243,5,5,5c2.421,0,4.444-1.731,4.901-4.02
		c0.034,0.004,0.064,0.02,0.099,0.02h38c0.125,0,0.249-0.027,0.367-0.074c0.05-0.02,0.09-0.053,0.135-0.081
		c0.052-0.031,0.109-0.052,0.157-0.093c0.008-0.007,0.011-0.018,0.019-0.025c0.054-0.051,0.092-0.113,0.134-0.175
		c0.032-0.047,0.072-0.09,0.095-0.141C1117.93,145.36,1117.936,145.303,1117.95,145.248z M1074,148c-1.654,0-3-1.346-3-3
		s1.346-3,3-3s3,1.346,3,3S1075.654,148,1074,148z"/>
</g>
<g id="Layer_3">
</g>
</svg>
