<?xml version="1.0" encoding="utf-8"?>
<!-- Generator: Adobe Illustrator 19.2.1, SVG Export Plug-In . SVG Version: 6.00 Build 0)  -->
<svg version="1.1" id="Layer_1" xmlns:sketch="http://www.bohemiancoding.com/sketch/ns"
	 xmlns="http://www.w3.org/2000/svg" xmlns:xlink="http://www.w3.org/1999/xlink" x="0px" y="0px" viewBox="0 0 1170 160"
	 style="enable-background:new 0 0 1170 160;" xml:space="preserve">
<style type="text/css">
	.st0{fill:none;stroke:#E5E5E4;stroke-width:2;stroke-linecap:round;stroke-linejoin:round;stroke-miterlimit:10;}
	.st1{fill:#8C929D;}
	.st2{fill:#FC6D26;}
	.st3{fill:#E24329;}
	.st4{fill:#FCA326;}
	.st5{fill:#444444;}
	.st6{fill:#554488;}
	.st7{fill:#4887C5;}
	.st8{fill:url(#SVGID_1_);}
	.st9{fill:url(#SVGID_2_);}
	.st10{fill:#FFFFFF;}
	.st11{opacity:0.1;}
	.st12{fill:#5C5C5C;}
	.st13{fill:#787878;}
	.st14{fill:#A1A1A1;}
	.st15{opacity:0.15;}
	.st16{fill:#373D47;}
	.st17{fill:none;stroke:#FC6D26;stroke-width:1.8;stroke-linecap:round;stroke-linejoin:round;stroke-miterlimit:10;}
	.st18{fill:none;stroke:#E24329;stroke-width:1.8;stroke-linecap:round;stroke-linejoin:round;stroke-miterlimit:10;}
	.st19{fill:none;stroke:#FCA326;stroke-width:1.8;stroke-linecap:round;stroke-linejoin:round;stroke-miterlimit:10;}
	.st20{fill:none;stroke:#E5E5E4;stroke-width:1.8;stroke-linecap:round;stroke-linejoin:round;stroke-miterlimit:10;}
	.st21{fill:#2B2B2B;}
	.st22{fill:#FFFFFF;stroke:#E5E5E4;stroke-width:2;stroke-linecap:round;stroke-linejoin:round;stroke-miterlimit:10;}
	.st23{fill:#E5E5E4;}
	.st24{fill:none;stroke:#E5E5E4;stroke-width:1.8353;stroke-linecap:round;stroke-linejoin:round;stroke-miterlimit:10;}
	.st25{fill:none;stroke:#E14329;stroke-width:2;stroke-linecap:round;stroke-linejoin:round;stroke-miterlimit:10;}
	.st26{fill:#FFFFFF;stroke:#E14329;stroke-width:2;stroke-linecap:round;stroke-linejoin:round;stroke-miterlimit:10;}
	.st27{fill:#E14329;}
	.st28{fill:none;stroke:#E14329;stroke-width:1.8353;stroke-linecap:round;stroke-linejoin:round;stroke-miterlimit:10;}
</style>
<g>
	<line class="st25" x1="337.9" y1="7" x2="381.3" y2="7"/>
	<path class="st25" d="M408.5,56.9c-13.8,6.7-30.4,1-37.2-12.8c-6.2-12.7-1.9-27.8,9.7-35.4"/>
	<circle class="st25" cx="396.3" cy="32" r="17.4"/>
	<line class="st25" x1="393.6" y1="59.6" x2="393.6" y2="71.7"/>
	<line class="st25" x1="393.2" y1="71.7" x2="386" y2="71.7"/>
	<circle class="st25" cx="334.4" cy="7" r="3.6"/>
	<circle class="st25" cx="384.9" cy="7" r="3.6"/>
	<circle class="st25" cx="382.4" cy="71.7" r="3.6"/>
</g>
<g>
	<line class="st25" x1="190.2" y1="148.6" x2="239.7" y2="148.6"/>
	<circle class="st25" cx="183" cy="148.6" r="6.3"/>
	<path class="st25" d="M220,114.8c0.2-1.9,0.7-3.7,1.5-5.4c1.1-2.5,2.6-4.7,4.6-6.6c1.9-1.9,4.2-3.4,6.7-4.4
		c2.6-1.1,5.3-1.6,8.3-1.6c2.4,0,4.7,0.4,6.8,1.1c2.2,0.7,4.1,1.8,5.9,3.1s3.3,2.9,4.6,4.7c1.3,1.8,2.3,3.8,3,6
		c0.5-0.1,1-0.2,1.6-0.2c0.5-0.1,1.1-0.1,1.6-0.1c2.7,0,5.1,0.5,7.4,1.5c2.3,1,4.3,2.3,6,4c1.7,1.7,3.1,3.7,4.1,5.9
		c1,2.3,1.5,4.7,1.5,7.3c0,2.5-0.5,5-1.5,7.2c-1,2.3-2.4,4.3-4.1,6s-3.7,3-6,4s-4.8,1.4-7.4,1.4h-46.3"/>
	<path class="st25" d="M203.9,134.5c0-3.9,1.4-7.2,4.2-10c2.2-2.2,4.8-3.5,7.7-3.9"/>
	<circle class="st25" cx="219.4" cy="118.8" r="3.6"/>
	<path class="st25" d="M246.3,127.7c0-0.4,0.1-0.7,0.1-1.1c1.4-8.6,7.1-14.4,16.1-15.2"/>
	<circle class="st25" cx="246.2" cy="131.6" r="3.6"/>
</g>
<g>
	<line class="st25" x1="213.3" y1="75.5" x2="145.6" y2="75.4"/>
	<line class="st25" x1="125.7" y1="91.2" x2="86.5" y2="91.2"/>
	<line class="st25" x1="165.5" y1="91.2" x2="125.2" y2="91.2"/>
	<line class="st25" x1="139.4" y1="79" x2="128.8" y2="91.2"/>
	<circle class="st25" cx="142" cy="75.4" r="3.6"/>
	<circle class="st25" cx="169.1" cy="91.2" r="3.6"/>
	<circle class="st25" cx="216.9" cy="75.5" r="3.6"/>
	<circle class="st25" cx="80.2" cy="91.2" r="6.3"/>
</g>
<g>
	<line class="st25" x1="80" y1="152.7" x2="19.7" y2="152.7"/>
	<path class="st25" d="M42.4,145.1v-15.7c0-2.3,1.9-4.1,4.1-4.1h14.7c3.1,0,6.1-1.6,7.8-4.1l0.7-0.6c0.7-0.5,1.5-0.8,2.3-0.8H80
		c2.3,0,4.1,1.9,4.1,4.1v24.7c0,2.3-1.9,4.1-4.1,4.1"/>
	<circle class="st25" cx="12.3" cy="152.7" r="6.3"/>
</g>
<g>
	<line class="st25" x1="914.2" y1="110.4" x2="870.6" y2="110.4"/>
	<line class="st25" x1="870.6" y1="155.4" x2="827.3" y2="155.4"/>
	<path class="st25" d="M892.2,146.1c0,5.1-9.6,9.3-21.5,9.3"/>
	<path class="st25" d="M892.2,132.9c0,5.1-9.6,9.3-21.5,9.3s-21.5-4.2-21.5-9.3"/>
	<path class="st25" d="M892.2,119.7c0,5.1-9.6,9.3-21.5,9.3s-21.5-4.2-21.5-9.3s9.6-9.3,21.5-9.3"/>
	<circle class="st25" cx="823.7" cy="155.4" r="3.6"/>
	<circle class="st25" cx="920.6" cy="110.4" r="6.3"/>
	<line class="st25" x1="849.1" y1="119.7" x2="849.1" y2="146.8"/>
	<line class="st25" x1="892.2" y1="119.7" x2="892.2" y2="146.1"/>
</g>
<g>
	<line class="st25" x1="892.1" y1="12.6" x2="892.1" y2="31.1"/>
	<line class="st25" x1="892.1" y1="27.9" x2="892.1" y2="44.6"/>
	<line class="st25" x1="871" y1="28.5" x2="871" y2="44.6"/>
	<line class="st25" x1="913.2" y1="28.5" x2="913.2" y2="45.8"/>
	<line class="st25" x1="871" y1="28" x2="913.2" y2="28"/>
	<path class="st25" d="M877.6,1.8h28.9c2.6,0,4.7,2.1,4.7,4.7v0.1c0,2.6-2.1,4.7-4.7,4.7h-28.9c-2.6,0-4.7-2.1-4.7-4.7V6.6
		C872.9,4,875,1.8,877.6,1.8z"/>
	<circle class="st25" cx="892.1" cy="49.4" r="3.6"/>
	<circle class="st25" cx="871" cy="49.4" r="3.6"/>
	<circle class="st25" cx="913.2" cy="49.4" r="3.6"/>
</g>
<g>
	<polyline class="st25" points="228.2,64 243.6,81.6 244.5,81.7 257.5,81.7 	"/>
	<circle class="st25" cx="264.7" cy="81.7" r="6.3"/>
	<circle class="st25" cx="227.3" cy="60.5" r="3.6"/>
	<g>
		<path class="st25" d="M181.5,16.7V9.1c0-2,1.6-3.6,3.6-3.6h21.2c2,0,3.6,1.6,3.6,3.6v4.1"/>
		<path class="st25" d="M214,17.2h7.8c3,0,5.5,2.5,5.5,5.5v33.5"/>
		<path class="st25" d="M209.8,62.9h-40.3c-3,0-5.5-2.5-5.5-5.5V22.7c0-3,2.5-5.5,5.5-5.5h35.6"/>
		<circle class="st25" cx="209.8" cy="17.2" r="3.6"/>
		<line class="st25" x1="164.8" y1="35.6" x2="191.6" y2="35.6"/>
		<circle class="st25" cx="195.6" cy="35.6" r="3.6"/>
		<line class="st25" x1="199.6" y1="35.6" x2="226.3" y2="35.6"/>
	</g>
</g>
<g>
	<circle class="st25" cx="1030.8" cy="83.6" r="6.3"/>
	<g>
		<path class="st25" d="M985,37.2v-7.7c0-2,1.6-3.6,3.6-3.6h21.2c2,0,3.6,1.6,3.6,3.6v4.1"/>
		<path class="st25" d="M1017.5,37.7h7.8c3,0,5.5,2.5,5.5,5.5v33.5"/>
		<path class="st25" d="M1013.3,83.4h-40.3c-3,0-5.5-2.5-5.5-5.5V43.2c0-3,2.5-5.5,5.5-5.5h35.6"/>
		<circle class="st25" cx="1013.3" cy="37.7" r="3.6"/>
		<line class="st25" x1="968.3" y1="56.1" x2="995.1" y2="56.1"/>
		<circle class="st25" cx="999.1" cy="56.1" r="3.6"/>
		<line class="st25" x1="1003.1" y1="56.1" x2="1029.8" y2="56.1"/>
	</g>
</g>
<g>
	<path class="st25" d="M60.3,61.7H8.3c-3.4,0-6.2-2.8-6.2-6.2V8.2C2,4.8,4.8,2,8.3,2h70.3c3.4,0,6.2,2.8,6.2,6.2v47.3
		c0,3.4-2.8,6.2-6.2,6.2h-2.9"/>
	<line class="st25" x1="43.5" y1="62.4" x2="43.5" y2="76.8"/>
	<line class="st25" x1="54.6" y1="76.8" x2="32.3" y2="76.8"/>
	<line class="st25" x1="2" y1="16" x2="49.7" y2="16"/>
	<circle class="st25" cx="68.3" cy="61.7" r="6.3"/>
	<circle class="st25" cx="54" cy="16" r="3.6"/>
</g>
<g>
	<line class="st25" x1="459.6" y1="10.6" x2="436" y2="10.6"/>
	<circle class="st25" cx="463.2" cy="10.6" r="3.6"/>
	<circle class="st25" cx="446.9" cy="25.8" r="3.6"/>
	<circle class="st25" cx="430.2" cy="25.8" r="3.6"/>
	<path class="st25" d="M446.9,21.1v-4.7c0-3.2,2.6-5.8,5.8-5.8"/>
	<path class="st25" d="M430.4,21.1v-4.7c0-3.2,2.6-5.8,5.8-5.8"/>
</g>
<g>
	<line class="st25" x1="1060.9" y1="71.7" x2="1084.5" y2="71.7"/>
	<circle class="st25" cx="1057.3" cy="71.7" r="3.6"/>
	<circle class="st25" cx="1073.6" cy="86.9" r="3.6"/>
	<circle class="st25" cx="1090.3" cy="86.9" r="3.6"/>
	<path class="st25" d="M1073.6,82.2v-4.7c0-3.2-2.6-5.8-5.8-5.8"/>
	<path class="st25" d="M1090.1,82.2v-4.7c0-3.2-2.6-5.8-5.8-5.8"/>
</g>
<g>
	<line class="st25" x1="1117.9" y1="143.8" x2="1080.2" y2="143.8"/>
	<path class="st25" d="M1117.9,143.8l-34.4-38.2c-3.3-3.3-8.7-3.3-12,0l-32.1,36.6"/>
	<polyline class="st25" points="1067.8,117.7 1071.9,120.6 1071.9,120.6 1076,117.7 1079.8,120.6 1079.8,120.6 1084.5,117.7 
		1088.6,120.6 1088.6,120.6 1092.7,117.7 	"/>
	<circle class="st25" cx="1076.3" cy="143.7" r="3.6"/>
</g>
<g>
	<g>
		<circle class="st25" cx="405" cy="139.6" r="6.3"/>
	</g>
	<g>
		<line class="st25" x1="331.1" y1="146.4" x2="368.8" y2="146.4"/>
		<path class="st25" d="M331.1,146.4l34.4-38.2c3.3-3.3,8.7-3.3,12,0l23.2,26.4"/>
		<polyline class="st25" points="381.2,120.3 377.1,123.2 377.1,123.2 373,120.3 369.2,123.2 369.2,123.2 364.5,120.3 360.4,123.2 
			360.4,123.2 356.3,120.3 		"/>
		<circle class="st25" cx="372.8" cy="146.3" r="3.6"/>
	</g>
</g>
<g>
	<path id="path46_233_" sketch:type="MSShapeGroup" class="st25" d="M287.2,78.5l-0.6,1.7c-0.4,1.3,0,2.7,1.1,3.5l11.3,8.2"/>
	<g id="g44_84_" transform="translate(0.532000, 0.774933)" sketch:type="MSLayerGroup">
		<path id="path46_232_" sketch:type="MSShapeGroup" class="st25" d="M295.5,89l30.8,22.4l39.2-28.5c1.1-0.8,1.5-2.2,1.1-3.5"/>
		<path id="path46_231_" sketch:type="MSShapeGroup" class="st25" d="M346.1,65.5h-34.6l-9-27.6c-0.5-1.4-2.5-1.4-2.9,0l-9,27.6
			l-0.1,0.4"/>
		<path id="path46_230_" sketch:type="MSShapeGroup" class="st25" d="M366.7,79.4l-4.5-13.9l-9-27.7c-0.5-1.4-2.5-1.4-2.9,0
			l-7.8,17.7"/>
	</g>
	<circle class="st25" cx="350.2" cy="66" r="3.6"/>
	<circle class="st25" cx="289.2" cy="72.6" r="6.3"/>
</g>
<g>
	<path id="path46_229_" sketch:type="MSShapeGroup" class="st25" d="M1088.4,43l-0.6,1.7c-0.4,1.3,0,2.7,1.1,3.5l11.3,8.2"/>
	<g id="g44_83_" transform="translate(0.532000, 0.774933)" sketch:type="MSLayerGroup">
		<path id="path46_228_" sketch:type="MSShapeGroup" class="st25" d="M1096.7,53.5l30.8,22.4l39.2-28.5c1.1-0.8,1.5-2.2,1.1-3.5"/>
		<path id="path46_227_" sketch:type="MSShapeGroup" class="st25" d="M1147.2,29.9h-34.6l-9-27.6c-0.5-1.4-2.5-1.4-2.9,0l-9,27.6
			l-0.1,0.4"/>
		<path id="path46_226_" sketch:type="MSShapeGroup" class="st25" d="M1167.9,43.9l-4.5-13.9l-9-27.7c-0.5-1.4-2.5-1.4-2.9,0
			l-7.8,17.7"/>
	</g>
	<circle class="st25" cx="1151.3" cy="30.5" r="3.6"/>
	<circle class="st25" cx="1090.4" cy="37.1" r="6.3"/>
</g>
<g>
	<polyline class="st25" points="421.2,89.9 414,96.8 406.6,89.4 	"/>
	<circle class="st25" cx="394.8" cy="93.5" r="3.6"/>
	<line class="st26" x1="413.9" y1="74.2" x2="413.9" y2="96.1"/>
	<polyline class="st25" points="427.6,95.1 427.6,104 394.8,104 394.8,97.2 	"/>
	<circle class="st25" cx="427.5" cy="88.7" r="6.3"/>
</g>
<g>
	<polyline class="st25" points="894.3,79.3 887.2,86.2 879.8,78.8 	"/>
	<circle class="st25" cx="867.9" cy="82.9" r="3.6"/>
	<line class="st26" x1="887" y1="63.6" x2="887" y2="85.5"/>
	<polyline class="st25" points="900.7,84.5 900.7,93.4 867.9,93.4 867.9,86.6 	"/>
	<circle class="st25" cx="900.6" cy="78.1" r="6.3"/>
</g>
<g>
	<path class="st25" d="M974.4,126.2h-26c-1.7,0-3.1-1.4-3.1-3.1V99.4c0-1.7,1.4-3.1,3.1-3.1h35.2c1.7,0,3.1,1.4,3.1,3.1v23.6
		c0,1.7-1.4,3.1-3.1,3.1h-1.5"/>
	<line class="st25" x1="966" y1="126.5" x2="966" y2="133.7"/>
	<line class="st25" x1="971.6" y1="133.7" x2="960.4" y2="133.7"/>
	<line class="st25" x1="945.3" y1="105.3" x2="969.1" y2="105.3"/>
	<circle class="st25" cx="973" cy="105.4" r="3.6"/>
	<circle class="st25" cx="978.5" cy="126.2" r="3.6"/>
</g>
<g>
	<line class="st25" x1="158.3" y1="132.3" x2="136.5" y2="132.3"/>
	<line class="st25" x1="136.5" y1="154.9" x2="114.9" y2="154.9"/>
	<path class="st25" d="M147.3,150.2c0,2.6-4.8,4.6-10.8,4.6"/>
	<path class="st25" d="M147.3,143.6c0,2.6-4.8,4.6-10.8,4.6s-10.8-2.1-10.8-4.6"/>
	<path class="st25" d="M147.3,137c0,2.6-4.8,4.6-10.8,4.6s-10.8-2.1-10.8-4.6s4.8-4.6,10.8-4.6"/>
	<line class="st25" x1="125.7" y1="137" x2="125.7" y2="150.6"/>
	<line class="st25" x1="147.3" y1="137" x2="147.3" y2="150.2"/>
	<circle class="st25" cx="111.3" cy="155.4" r="3.6"/>
	<circle class="st25" cx="162.1" cy="132.2" r="3.6"/>
</g>
<g>
	<line class="st25" x1="518.4" y1="47" x2="543.1" y2="47"/>
	<path class="st25" d="M534,27.5C534,27.5,534,27.5,534,27.5c0.6-1.3,1.4-2.4,2.3-3.4c1-0.9,2.1-1.7,3.4-2.2
		c1.3-0.5,2.7-0.8,4.2-0.8c1.2,0,2.3,0.2,3.4,0.5c1.1,0.4,2.1,0.9,3,1.5c0.9,0.7,1.7,1.4,2.3,2.3c0.6,0.9,1.1,1.9,1.5,3
		c0.3-0.1,0.5-0.1,0.8-0.1c0.3,0,0.5,0,0.8,0c1.3,0,2.6,0.2,3.7,0.7c1.2,0.5,2.2,1.2,3,2c0.9,0.8,1.5,1.8,2,3
		c0.5,1.1,0.8,2.3,0.8,3.6c0,1.3-0.3,2.5-0.8,3.6c-0.5,1.1-1.2,2.1-2,3s-1.9,1.5-3,2c-1.2,0.5-2.4,0.7-3.7,0.7h-23.2"/>
	<path class="st25" d="M525.2,40c0-1.9,0.7-3.6,2.1-5c0.6-0.6,1.3-1.1,2-1.4"/>
	<path class="st25" d="M546.5,36.6c0-0.2,0-0.4,0.1-0.5c0.7-4.3,3.6-7.2,8-7.6"/>
	<circle class="st25" cx="532.6" cy="31.7" r="3.6"/>
	<circle class="st25" cx="514.8" cy="47.2" r="3.6"/>
	<circle class="st25" cx="546.5" cy="40.1" r="3.6"/>
</g>
<g>
	<polyline class="st25" points="613,153.5 534,153.5 534,129.5 	"/>
	<line class="st25" x1="534" y1="121.5" x2="534" y2="92.5"/>
	<circle class="st25" cx="534.1" cy="125.8" r="3.6"/>
	<circle class="st25" cx="581.1" cy="113.2" r="3.6"/>
	<circle class="st25" cx="616.3" cy="153.6" r="3.6"/>
	<path class="st25" d="M537,123.8c1,0,15-15,15-15l18.3,16.7l8.3-9.7"/>
</g>
<g>
	<g>
		<circle class="st25" cx="659.3" cy="155.4" r="3.6"/>
		<path class="st25" d="M655.4,155.4h-9.2c-2.6,0-4.7-2.1-4.7-4.7v-6.5c0-2.6,2.1-4.7,4.7-4.7h50.5c2.6,0,4.7,2.1,4.7,4.7v6.5
			c0,2.6-2.1,4.7-4.7,4.7h-27.8"/>
		<g>
			<circle class="st25" cx="689.5" cy="147.4" r="3.6"/>
			<line class="st25" x1="649.9" y1="147.5" x2="685.9" y2="147.5"/>
		</g>
	</g>
	<g>
		<circle class="st25" cx="665.3" cy="117.3" r="3.6"/>
		<path class="st25" d="M655.4,117.3h-9.2c-2.6,0-4.7,2.1-4.7,4.7v6.5c0,2.6,2.1,4.7,4.7,4.7h50.5c2.6,0,4.7-2.1,4.7-4.7v-6.5
			c0-2.6-2.1-4.7-4.7-4.7h-27.8"/>
		<g>
			<circle class="st25" cx="689.5" cy="125.3" r="3.6"/>
			<line class="st25" x1="649.9" y1="125.3" x2="685.9" y2="125.3"/>
		</g>
	</g>
</g>
<g>
	<path id="path46_225_" sketch:type="MSShapeGroup" class="st25" d="M99.9,52.1l-0.3,0.9c-0.2,0.6,0,1.3,0.6,1.7l5.7,4.1"/>
	<g id="g44_82_" transform="translate(0.532000, 0.774933)" sketch:type="MSLayerGroup">
		<path id="path46_224_" sketch:type="MSShapeGroup" class="st25" d="M103.8,57l15.4,11.2l19.6-14.3c0.5-0.4,0.8-1.1,0.6-1.7"/>
		<path id="path46_223_" sketch:type="MSShapeGroup" class="st25" d="M131.1,45.2h-19.3l-4.5-13.8c-0.2-0.7-1.2-0.7-1.5,0l-4.3,12.9
			"/>
		<path id="path46_222_" sketch:type="MSShapeGroup" class="st25" d="M139.4,52.2l-2.3-7l-4.5-13.8c-0.2-0.7-1.2-0.7-1.5,0l-3.9,8.9
			"/>
	</g>
	<circle class="st25" cx="101.1" cy="48.5" r="3.6"/>
</g>
<g>
	<path id="path46_221_" sketch:type="MSShapeGroup" class="st25" d="M577.8,28.5l-0.3,0.9c-0.2,0.6,0,1.3,0.6,1.7l5.7,4.1"/>
	<g id="g44_81_" transform="translate(0.532000, 0.774933)" sketch:type="MSLayerGroup">
		<path id="path46_220_" sketch:type="MSShapeGroup" class="st25" d="M581.7,33.3l15.4,11.2l19.6-14.3c0.5-0.4,0.8-1.1,0.6-1.7"/>
		<path id="path46_219_" sketch:type="MSShapeGroup" class="st25" d="M608.9,21.6h-19.3l-4.5-13.8c-0.2-0.7-1.2-0.7-1.5,0l-4.3,12.9
			"/>
		<path id="path46_218_" sketch:type="MSShapeGroup" class="st25" d="M617.2,28.6l-2.3-7l-4.5-13.8c-0.2-0.7-1.2-0.7-1.5,0l-3.9,8.9
			"/>
	</g>
	<circle class="st25" cx="578.9" cy="24.9" r="3.6"/>
</g>
<g>
	<line class="st25" x1="770.8" y1="34.1" x2="816" y2="34.1"/>
	<path class="st25" d="M799,28.5V16.7c0-1.7-1.4-3.1-3.1-3.1h-11c-2.4,0-4.6-1.2-5.9-3.1l-0.6-0.4c-0.5-0.4-1.1-0.6-1.7-0.6h-5.9
		c-1.7,0-3.1,1.4-3.1,3.1V31c0,1.7,1.4,3.1,3.1,3.1"/>
	<circle class="st25" cx="819.5" cy="34.1" r="3.6"/>
</g>
<g>
	<line class="st25" x1="1114.4" y1="114" x2="1114.4" y2="90.4"/>
	<circle class="st25" cx="1114.4" cy="117.5" r="3.6"/>
	<circle class="st25" cx="1114.5" cy="86.6" r="3.6"/>
	<path class="st25" d="M1123.9,106.5h-3.7c-3.2,0-5.8,2.6-5.8,5.8"/>
	<path class="st25" d="M1129.3,100.7c0,3.2-2.6,5.8-5.8,5.8"/>
	<line class="st25" x1="1124" y1="91.2" x2="1134" y2="91.2"/>
	<line class="st25" x1="1129" y1="86.2" x2="1129" y2="96.2"/>
</g>
<g>
	<line class="st25" x1="638" y1="32.8" x2="638" y2="9.3"/>
	<circle class="st25" cx="638" cy="36.4" r="3.6"/>
	<circle class="st25" cx="638.1" cy="5.5" r="3.6"/>
	<path class="st25" d="M647.5,25.4h-3.7c-3.2,0-5.8,2.6-5.8,5.8"/>
	<path class="st25" d="M652.9,19.6c0,3.2-2.6,5.8-5.8,5.8"/>
	<line class="st25" x1="647.7" y1="10.1" x2="657.7" y2="10.1"/>
	<line class="st25" x1="652.7" y1="5.1" x2="652.7" y2="15.1"/>
</g>
<g>
	<line class="st25" x1="1032.1" y1="121.7" x2="1008.5" y2="121.7"/>
	<circle class="st25" cx="1035.7" cy="121.7" r="3.6"/>
	<circle class="st25" cx="1004.8" cy="121.6" r="3.6"/>
	<path class="st25" d="M1024.7,112.2v3.7c0,3.2,2.6,5.8,5.8,5.8"/>
	<path class="st25" d="M1018.9,106.8c3.2,0,5.8,2.6,5.8,5.8"/>
	<line class="st25" x1="1005.8" y1="110.6" x2="1012.9" y2="103.5"/>
	<line class="st25" x1="1005.8" y1="103.5" x2="1012.9" y2="110.6"/>
</g>
<g>
	<line class="st25" x1="119.2" y1="4.9" x2="142.8" y2="4.9"/>
	<circle class="st25" cx="115.7" cy="4.9" r="3.6"/>
	<circle class="st25" cx="146.6" cy="4.9" r="3.6"/>
	<path class="st25" d="M126.7,14.4v-3.7c0-3.2-2.6-5.8-5.8-5.8"/>
	<path class="st25" d="M132.5,19.7c-3.2,0-5.8-2.6-5.8-5.8"/>
	<line class="st25" x1="145.5" y1="16" x2="138.4" y2="23"/>
	<line class="st25" x1="145.5" y1="23" x2="138.4" y2="16"/>
</g>
<g>
	<circle class="st25" cx="458.5" cy="154.9" r="3.6"/>
	<line class="st25" x1="411" y1="139.9" x2="494.6" y2="139.9"/>
	<circle class="st25" cx="498.4" cy="139.9" r="3.6"/>
	<path class="st25" d="M418.5,149.4v-3.7c0-3.2-2.6-5.8-5.8-5.8"/>
	<path class="st25" d="M418.5,149c0,3.2,2.6,5.8,5.8,5.8h30.7"/>
</g>
<g>
	<circle class="st25" cx="935.2" cy="30.7" r="3.6"/>
	<line class="st25" x1="950.2" y1="13.2" x2="950.2" y2="36.8"/>
	<circle class="st25" cx="950.2" cy="9.6" r="3.6"/>
	<circle class="st25" cx="950.2" cy="40.5" r="3.6"/>
	<path class="st25" d="M940.7,20.6h3.7c3.2,0,5.8-2.6,5.8-5.8"/>
	<path class="st25" d="M935.4,26.4c0-3.2,2.6-5.8,5.8-5.8"/>
</g>
<g>
	<circle class="st25" cx="740.3" cy="155.4" r="3.6"/>
	<line class="st25" x1="722.9" y1="140.4" x2="746.4" y2="140.4"/>
	<circle class="st25" cx="719.3" cy="140.4" r="3.6"/>
	<circle class="st25" cx="750.2" cy="140.4" r="3.6"/>
	<path class="st25" d="M730.3,149.9v-3.7c0-3.2-2.6-5.8-5.8-5.8"/>
	<path class="st25" d="M736.1,155.2c-3.2,0-5.8-2.6-5.8-5.8"/>
</g>
<g>
	<circle class="st25" cx="24.7" cy="98.1" r="3.6"/>
	<line class="st25" x1="9.6" y1="115.6" x2="9.6" y2="92"/>
	<circle class="st25" cx="9.6" cy="119.1" r="3.6"/>
	<circle class="st25" cx="9.7" cy="88.2" r="3.6"/>
	<path class="st25" d="M19.1,108.1h-3.7c-3.2,0-5.8,2.6-5.8,5.8"/>
	<path class="st25" d="M24.5,102.3c0,3.2-2.6,5.8-5.8,5.8"/>
</g>
<g>
	<line class="st25" x1="302" y1="147.2" x2="302" y2="123.6"/>
	<circle class="st25" cx="302" cy="150.8" r="3.6"/>
	<circle class="st25" cx="302" cy="119.8" r="3.6"/>
	<path class="st25" d="M311.5,139.7h-3.7c-3.2,0-5.8,2.6-5.8,5.8"/>
	<path class="st25" d="M316.8,134c0,3.2-2.6,5.8-5.8,5.8"/>
	<line class="st25" x1="311.6" y1="124.4" x2="321.6" y2="124.4"/>
	<line class="st25" x1="316.6" y1="119.4" x2="316.6" y2="129.4"/>
</g>
<g>
	<g>
		<path class="st25" d="M621.8,57.9c7-5.2,13.8-7,24.2-7c0.7,0,1.3,0.5,1.3,1.2c0,13-3.6,21.6-12.9,30.9c-2.3,2.2-4.8,4.5-7.6,6.9
			l-0.8,14.8c0,0.4-0.3,0.8-0.6,1l-15,8.8c-0.2,0.1-0.4,0.2-0.6,0.2c-0.3,0-0.6-0.1-0.9-0.4l-2.5-2.5c-0.3-0.4-0.4-0.8-0.3-1.2
			l3.3-10.8l-11-11l-10.8,3.3c-0.1,0-0.2,0-0.4,0c-0.3,0-0.7-0.1-0.9-0.4l-2.5-2.5c-0.4-0.4-0.5-1.1-0.2-1.5l8.8-15
			c0.2-0.4,0.6-0.6,1-0.6l14.8-0.8"/>
	</g>
	<circle class="st25" cx="617.3" cy="62.2" r="6.3"/>
	<circle class="st25" cx="635.5" cy="63.5" r="3.6"/>
	<line class="st25" x1="638.1" y1="66.3" x2="643.2" y2="70.6"/>
</g>
<g>
	<g>
		<line class="st25" x1="559" y1="66.3" x2="567" y2="66.3"/>
		<line class="st25" x1="563" y1="62.3" x2="563" y2="70.3"/>
	</g>
	<g>
		<polyline class="st25" points="570.2,61.2 573.2,58.2 573.2,72.5 		"/>
	</g>
</g>
<g>
	<polyline class="st25" points="648,103 732,103 732,123 735,123 	"/>
	<polyline class="st25" points="732,76 732,93 644,93 	"/>
	<polyline class="st25" points="742,28 742,4.8 736.8,2.2 732,4.8 732,68 	"/>
	<polyline class="st25" points="828,93 742,93 742,36 	"/>
	<polyline class="st25" points="742,109 742,103 824,103 	"/>
	<line class="st25" x1="752" y1="34" x2="752" y2="92"/>
	<line class="st25" x1="762" y1="52" x2="762" y2="92"/>
	<line class="st25" x1="772" y1="70" x2="772" y2="92"/>
	<line class="st25" x1="782" y1="76" x2="782" y2="92"/>
	<line class="st25" x1="792" y1="83" x2="792" y2="92"/>
	<line class="st25" x1="802" y1="88" x2="802" y2="92"/>
	<path class="st25" d="M774.8,68.2c13,14.1,30.1,24.8,53,24.8"/>
	<path class="st25" d="M742,5.8c0,0,7.7,31.7,27.9,56.9"/>
	<circle class="st25" cx="741.8" cy="122.6" r="6.3"/>
	<circle class="st25" cx="742.1" cy="32.3" r="3.6"/>
	<circle class="st25" cx="772.2" cy="65.4" r="3.6"/>
	<g>
		<line class="st25" x1="722" y1="34" x2="722" y2="92"/>
		<line class="st25" x1="712" y1="52" x2="712" y2="92"/>
		<line class="st25" x1="702" y1="70" x2="702" y2="92"/>
		<line class="st25" x1="692" y1="76" x2="692" y2="92"/>
		<line class="st25" x1="682" y1="83" x2="682" y2="92"/>
		<line class="st25" x1="672" y1="88" x2="672" y2="92"/>
		<path class="st25" d="M699.2,68.2C686.2,82.2,668.9,93,646,93"/>
		<path class="st25" d="M731.9,5.8c0,0-7.7,31.7-27.9,56.9"/>
		<circle class="st25" cx="701.7" cy="65.4" r="3.6"/>
	</g>
	<circle class="st25" cx="732.1" cy="72.3" r="3.6"/>
	<circle class="st25" cx="828.1" cy="102.8" r="3.6"/>
	<circle class="st25" cx="644.1" cy="102.8" r="3.6"/>
</g>
<g>
	<circle class="st25" cx="485.8" cy="61" r="6.3"/>
	<g>
		<circle class="st25" cx="497" cy="45.8" r="3.6"/>
		<line class="st25" x1="485.8" y1="2" x2="485.8" y2="54.5"/>
		<polyline class="st25" points="485.8,2 501.8,2 498,42.3 		"/>
		<line class="st25" x1="485.8" y1="24" x2="491.8" y2="24"/>
		<line class="st25" x1="485.8" y1="14" x2="491.8" y2="14"/>
		<line class="st25" x1="485.8" y1="34" x2="491.8" y2="34"/>
		<line class="st25" x1="485.8" y1="46" x2="492.8" y2="46"/>
	</g>
	<g>
		<circle class="st25" cx="474.9" cy="76.2" r="3.6"/>
		<line class="st25" x1="486.1" y1="119.9" x2="486.1" y2="67.4"/>
		<polyline class="st25" points="486.1,119.9 470.1,119.9 473.9,79.6 		"/>
		<line class="st25" x1="486.1" y1="97.9" x2="480.1" y2="97.9"/>
		<line class="st25" x1="486.1" y1="107.9" x2="480.1" y2="107.9"/>
		<line class="st25" x1="486.1" y1="87.9" x2="480.1" y2="87.9"/>
		<line class="st25" x1="486.1" y1="75.9" x2="479.1" y2="75.9"/>
	</g>
	<g>
		<circle class="st25" cx="501.2" cy="72" r="3.6"/>
		<line class="st25" x1="544.9" y1="60.8" x2="492.4" y2="60.8"/>
		<polyline class="st25" points="544.9,60.8 544.9,76.8 504.6,73 		"/>
		<line class="st25" x1="522.9" y1="60.8" x2="522.9" y2="66.8"/>
		<line class="st25" x1="532.9" y1="60.8" x2="532.9" y2="66.8"/>
		<line class="st25" x1="512.9" y1="60.8" x2="512.9" y2="66.8"/>
		<line class="st25" x1="500.9" y1="60.8" x2="500.9" y2="67.8"/>
	</g>
	<g>
		<circle class="st25" cx="470.8" cy="49.9" r="3.6"/>
		<line class="st25" x1="427" y1="61.1" x2="479.5" y2="61.1"/>
		<polyline class="st25" points="427,61.1 427,45.1 467.3,48.9 		"/>
		<line class="st25" x1="449" y1="61.1" x2="449" y2="55.1"/>
		<line class="st25" x1="439" y1="61.1" x2="439" y2="55.1"/>
		<line class="st25" x1="459" y1="61.1" x2="459" y2="55.1"/>
		<line class="st25" x1="471" y1="61.1" x2="471" y2="54.1"/>
	</g>
	<line class="st25" x1="444.2" y1="114" x2="457" y2="69.2"/>
	<polyline class="st25" points="502.7,75.9 514.3,118.7 484.2,129.7 447.7,119.1 	"/>
	<polyline class="st25" points="466.8,40.5 476.2,35.5 485.3,39.5 	"/>
	<circle class="st25" cx="444.1" cy="117.8" r="3.6"/>
</g>
<g>
	<line class="st25" x1="767.3" y1="143.8" x2="795.6" y2="143.8"/>
	<path class="st25" d="M767.3,143.8l25.8-28.6c2.5-2.5,6.5-2.5,9,0l24.1,27.5"/>
	<polyline class="st25" points="804.8,124.2 801.8,126.4 801.8,126.4 798.7,124.2 795.9,126.4 795.9,126.4 792.3,124.2 789.3,126.4 
		789.3,126.4 786.2,124.2 	"/>
	<circle class="st25" cx="799" cy="143.9" r="3.6"/>
</g>
<g>
	<g>
		<line class="st25" x1="181" y1="107.3" x2="189" y2="107.3"/>
		<line class="st25" x1="185" y1="103.3" x2="185" y2="111.3"/>
	</g>
	<g>
		<polyline class="st25" points="192.2,102.2 195.2,99.2 195.2,113.5 		"/>
	</g>
</g>
<g>
	<g>
		<line class="st25" x1="316.5" y1="35" x2="324.5" y2="35"/>
		<line class="st25" x1="320.5" y1="31" x2="320.5" y2="39"/>
	</g>
	<g>
		<polyline class="st25" points="327.7,29.8 330.7,26.8 330.7,41.2 		"/>
	</g>
</g>
<g>
	<g>
		<line class="st25" x1="910.5" y1="142" x2="918.5" y2="142"/>
		<line class="st25" x1="914.5" y1="138" x2="914.5" y2="146"/>
	</g>
	<g>
		<polyline class="st25" points="921.7,136.8 924.7,133.8 924.7,148.2 		"/>
	</g>
</g>
<g>
	<g>
		<line class="st25" x1="1144.5" y1="84.5" x2="1152.5" y2="84.5"/>
		<line class="st25" x1="1148.5" y1="80.5" x2="1148.5" y2="88.5"/>
	</g>
	<g>
		<polyline class="st25" points="1155.7,79.3 1158.7,76.3 1158.7,90.7 		"/>
	</g>
</g>
<g>
	<g>
		<line class="st25" x1="796" y1="61.5" x2="804" y2="61.5"/>
		<line class="st25" x1="800" y1="57.5" x2="800" y2="65.5"/>
	</g>
	<g>
		<polyline class="st25" points="807.2,56.3 810.2,53.3 810.2,67.7 		"/>
	</g>
</g>
<g>
	<line class="st25" x1="1037.2" y1="155.5" x2="993.4" y2="155.6"/>
	<line class="st25" x1="979.4" y1="146.7" x2="949.8" y2="146.7"/>
	<line class="st25" x1="1009.3" y1="146.7" x2="979.2" y2="146.7"/>
	<line class="st25" x1="986.3" y1="153.8" x2="981" y2="147.7"/>
	<circle class="st25" cx="946.3" cy="146.4" r="3.6"/>
	<circle class="st25" cx="1013" cy="146.4" r="3.6"/>
	<circle class="st25" cx="1041" cy="155.4" r="3.6"/>
	<circle class="st25" cx="990" cy="155.4" r="3.6"/>
</g>
<g>
	<line class="st25" x1="847.6" y1="90.9" x2="847.7" y2="57"/>
	<line class="st25" x1="838.8" y1="43.1" x2="838.8" y2="17.5"/>
	<line class="st25" x1="838.8" y1="63" x2="838.8" y2="42.8"/>
	<line class="st25" x1="845.9" y1="50" x2="839.8" y2="44.6"/>
	<circle class="st25" cx="838.5" cy="13.9" r="3.6"/>
	<circle class="st25" cx="838.5" cy="66.7" r="3.6"/>
	<circle class="st25" cx="847.5" cy="94.7" r="3.6"/>
	<circle class="st25" cx="847.5" cy="53.7" r="3.6"/>
</g>
<g>
	<line class="st25" x1="685.1" y1="17.9" x2="685.1" y2="29"/>
	<line class="st25" x1="685.1" y1="27" x2="685.1" y2="37.1"/>
	<line class="st25" x1="672.4" y1="27.4" x2="672.4" y2="37.1"/>
	<line class="st25" x1="697.7" y1="27.4" x2="697.7" y2="37.8"/>
	<line class="st25" x1="672.4" y1="27.1" x2="697.7" y2="27.1"/>
	<path class="st25" d="M676.4,11.4h17.3c1.6,0,2.8,1.3,2.8,2.8v0.1c0,1.6-1.3,2.8-2.8,2.8h-17.3c-1.6,0-2.8-1.3-2.8-2.8v-0.1
		C673.6,12.7,674.9,11.4,676.4,11.4z"/>
	<circle class="st25" cx="672.5" cy="41.5" r="3.6"/>
	<circle class="st25" cx="685.3" cy="41.5" r="3.6"/>
	<circle class="st25" cx="697.8" cy="41.5" r="3.6"/>
</g>
<g>
	<circle class="st25" cx="119.6" cy="103.7" r="3.6"/>
	<path class="st25" d="M109.8,103.7h-9.2c-2.6,0-4.7,2.1-4.7,4.7v6.5c0,2.6,2.1,4.7,4.7,4.7h50.5c2.6,0,4.7-2.1,4.7-4.7v-6.5
		c0-2.6-2.1-4.7-4.7-4.7h-27.8"/>
	<g>
		<circle class="st25" cx="143.8" cy="111.7" r="3.6"/>
		<line class="st25" x1="104.2" y1="111.7" x2="140.2" y2="111.7"/>
	</g>
</g>
<g>
	<circle class="st25" cx="940" cy="69.5" r="14"/>
	<g>
		<path class="st27" d="M932.3,73c0-3.4,4-4,4-5.4c0-0.7-0.5-0.9-1-0.9c-0.4,0-0.8,0.2-1,0.5c-0.3,0.3-0.7,0.4-1,0.2l-0.5-0.4
			c-0.4-0.3-0.5-0.6-0.2-1c0.5-0.6,1.4-1.4,2.9-1.4c1.5,0,3.2,0.9,3.2,2.8c0,2.9-3.8,3.5-3.9,4.7h3.3c0.5,0,0.7,0.2,0.7,0.7v0.5
			c0,0.5-0.2,0.7-0.7,0.7h-5.1c-0.4,0-0.8-0.2-0.8-0.7V73z"/>
		<path class="st27" d="M940.4,73c0-3.4,4-4,4-5.4c0-0.7-0.5-0.9-1-0.9c-0.4,0-0.8,0.2-1,0.5c-0.3,0.3-0.7,0.4-1,0.2l-0.5-0.4
			c-0.4-0.3-0.5-0.6-0.2-1c0.5-0.6,1.4-1.4,2.9-1.4c1.5,0,3.2,0.9,3.2,2.8c0,2.9-3.8,3.5-3.9,4.7h3.3c0.5,0,0.7,0.2,0.7,0.7v0.5
			c0,0.5-0.2,0.7-0.7,0.7h-5.1c-0.4,0-0.8-0.2-0.8-0.7V73z"/>
	</g>
</g>
<g>
	<circle class="st25" cx="48.9" cy="103" r="14"/>
	<g>
		<path class="st27" d="M41.3,106.5c0-3.4,4-4,4-5.4c0-0.7-0.5-0.9-1-0.9c-0.4,0-0.8,0.2-1,0.5c-0.3,0.3-0.7,0.4-1,0.2l-0.5-0.4
			c-0.4-0.3-0.5-0.6-0.2-1c0.5-0.6,1.4-1.4,2.9-1.4c1.5,0,3.2,0.9,3.2,2.8c0,2.9-3.8,3.5-3.9,4.7h3.3c0.5,0,0.7,0.2,0.7,0.7v0.5
			c0,0.5-0.2,0.7-0.7,0.7H42c-0.4,0-0.8-0.2-0.8-0.7V106.5z"/>
		<path class="st27" d="M49.3,106.5c0-3.4,4-4,4-5.4c0-0.7-0.5-0.9-1-0.9c-0.4,0-0.8,0.2-1,0.5c-0.3,0.3-0.7,0.4-1,0.2l-0.5-0.4
			c-0.4-0.3-0.5-0.6-0.2-1c0.5-0.6,1.4-1.4,2.9-1.4c1.5,0,3.2,0.9,3.2,2.8c0,2.9-3.8,3.5-3.9,4.7h3.3c0.5,0,0.7,0.2,0.7,0.7v0.5
			c0,0.5-0.2,0.7-0.7,0.7h-5.1c-0.4,0-0.8-0.2-0.8-0.7V106.5z"/>
	</g>
</g>
<g>
	<line class="st25" x1="980.9" y1="9.5" x2="1051.2" y2="9.5"/>
	<path class="st25" d="M1070.3,43.3c-9.7,4.7-21.3,0.7-26-8.9c-4.3-8.9-1.3-19.5,6.8-24.8"/>
	<circle class="st25" cx="1061.7" cy="25.8" r="12.2"/>
	<line class="st25" x1="1059.9" y1="45.2" x2="1059.9" y2="53.6"/>
	<line class="st25" x1="1059.6" y1="53.6" x2="1054.5" y2="53.6"/>
	<circle class="st25" cx="977.2" cy="9.8" r="3.6"/>
	<circle class="st25" cx="1050.7" cy="53.9" r="3.6"/>
</g>
<g>
	<g>
		<path class="st25" d="M265.3,38.2l8.9,0.5c0.2,0,0.5,0.2,0.6,0.4l5.2,9c0.2,0.3,0.1,0.7-0.1,0.9l-1.5,1.5
			c-0.1,0.1-0.4,0.2-0.5,0.2c-0.1,0-0.1,0-0.2,0l-6.5-2l-6.6,6.6l2,6.5c0.1,0.3,0,0.5-0.2,0.8l-1.5,1.5c-0.2,0.1-0.4,0.2-0.5,0.2
			c-0.1,0-0.3,0-0.4-0.1l-9-5.3c-0.2-0.1-0.4-0.4-0.4-0.6l-0.5-8.9c-1.7-1.4-3.2-2.8-4.6-4.1c-5.6-5.6-7.7-10.8-7.7-18.5
			c0-0.4,0.4-0.8,0.8-0.8c6.2,0,10.3,1.1,14.5,4.2"/>
	</g>
	<line class="st25" x1="247.4" y1="35.2" x2="244.3" y2="37.8"/>
	<circle class="st25" cx="259.9" cy="32.1" r="3.6"/>
</g>
<g>
	<path class="st25" d="M1162.7,119h4.3c1.1,0,2,0.9,2,2v36c0,1.1-0.9,2-2,2h-36c-1.1,0-2-0.9-2-2v-36c0-1.1,0.9-2,2-2h9.2"/>
	<g>
		<polyline class="st25" points="1138.4,130.5 1146.9,139 1138.4,147.5 		"/>
		<line class="st28" x1="1151.6" y1="147.5" x2="1159.6" y2="147.5"/>
	</g>
	<circle class="st25" cx="1156.5" cy="119.3" r="6.3"/>
</g>
<g>
	<line class="st25" x1="307" y1="14.4" x2="273.2" y2="14.5"/>
	<line class="st25" x1="259.2" y1="5.6" x2="239.6" y2="5.6"/>
	<line class="st25" x1="279.1" y1="5.6" x2="259" y2="5.6"/>
	<line class="st25" x1="266.1" y1="12.7" x2="260.8" y2="6.6"/>
	<circle class="st25" cx="236.1" cy="5.3" r="3.6"/>
	<circle class="st25" cx="282.8" cy="5.3" r="3.6"/>
	<circle class="st25" cx="310.8" cy="14.3" r="3.6"/>
	<circle class="st25" cx="269.8" cy="14.3" r="3.6"/>
</g>
<g>
	<path class="st27" d="M657.7,69.2l0.4-0.6c0.3-0.4,0.6-0.4,1-0.2c0.3,0.2,0.9,0.6,1.7,0.6c0.7,0,1-0.3,1-0.6c0-1.3-4.1-1.1-4.1-4
		c0-1.7,1.4-2.8,3.3-2.8c1.1,0,2.1,0.4,2.5,0.7c0.4,0.3,0.4,0.6,0.2,1l-0.3,0.6c-0.3,0.5-0.6,0.4-1,0.2c-0.4-0.2-0.9-0.4-1.5-0.4
		c-0.7,0-1,0.3-1,0.7c0,1.4,4.1,1,4.1,4c0,1.6-1.2,2.9-3.3,2.9c-1.3,0-2.5-0.5-3-0.9C657.6,70,657.4,69.7,657.7,69.2z"/>
	<path class="st27" d="M665.9,62.4c0-0.5,0.2-0.7,0.7-0.7h4.3c0.5,0,0.7,0.2,0.7,0.7v0.5c0,0.5-0.2,0.7-0.7,0.7h-2.7v2h2.1
		c0.5,0,0.7,0.2,0.7,0.7v0.5c0,0.5-0.2,0.7-0.7,0.7h-2.1v2.7c0,0.5-0.2,0.7-0.7,0.7h-0.8c-0.5,0-0.7-0.2-0.7-0.7V62.4z"/>
	<path class="st27" d="M677.6,61.5c2.9,0,4.9,2.1,4.9,4.7c0,2.7-2,4.9-4.9,4.9c-2.9,0-4.9-2.1-4.9-4.9
		C672.7,63.6,674.7,61.5,677.6,61.5z M677.6,69.1c1.5,0,2.5-1.2,2.5-2.8c0-1.5-1-2.7-2.5-2.7s-2.5,1.1-2.5,2.7
		C675.1,67.9,676.1,69.1,677.6,69.1z"/>
</g>
<g>
	<path class="st27" d="M509.8,6.4c0-0.5,0.2-0.7,0.7-0.7h1c0.4,0,0.7,0.1,0.9,0.5l2.3,3.9c0.4,0.6,0.8,1.6,0.8,1.6h0
		c0,0-0.1-1-0.1-1.6V6.4c0-0.5,0.2-0.7,0.7-0.7h0.8c0.5,0,0.7,0.2,0.7,0.7v7.9c0,0.5-0.2,0.7-0.7,0.7h-1c-0.4,0-0.7-0.1-0.8-0.5
		l-2.3-3.8c-0.4-0.6-0.8-1.6-0.8-1.6h0c0,0,0.1,1,0.1,1.6v3.6c0,0.5-0.2,0.7-0.7,0.7h-0.8c-0.5,0-0.7-0.2-0.7-0.7V6.4z"/>
	<path class="st27" d="M520,6.4c0-0.5,0.2-0.7,0.7-0.7h0.8c0.5,0,0.7,0.2,0.7,0.7V13h3.1c0.5,0,0.7,0.2,0.7,0.7v0.5
		c0,0.5-0.2,0.7-0.7,0.7h-4.6c-0.5,0-0.7-0.2-0.7-0.7V6.4z"/>
	<path class="st27" d="M527.5,6.4c0-0.5,0.2-0.7,0.7-0.7h2.6c2.9,0,4.8,1.7,4.8,4.6s-1.9,4.7-4.8,4.7h-2.6c-0.5,0-0.7-0.2-0.7-0.7
		V6.4z M530.7,13c1.6,0,2.5-0.9,2.5-2.7c0-1.8-1-2.7-2.5-2.7h-0.9V13H530.7z"/>
</g>
</svg>
