<svg viewBox="0 0 1170 160">
  <path class="illustration-stroke" d="M337.9 7h43.4m27.2 49.9c-13.8 6.7-30.4 1-37.2-12.8-6.2-12.7-1.9-27.8 9.7-35.4"/><circle class="illustration-stroke" cx="396.3" cy="32" r="17.4"/><path class="illustration-stroke" d="M393.6 59.6v12.1m-.4 0H386"/><circle class="illustration-stroke" cx="334.4" cy="7" r="3.6"/><circle class="illustration-stroke" cx="384.9" cy="7" r="3.6"/><circle class="illustration-stroke" cx="382.4" cy="71.7" r="3.6"/><path class="illustration-stroke" d="M190.2 148.6h49.5"/><circle class="illustration-stroke" cx="183" cy="148.6" r="6.3"/><path class="illustration-stroke" d="M220 114.8c.2-1.9.7-3.7 1.5-5.4 1.1-2.5 2.6-4.7 4.6-6.6 1.9-1.9 4.2-3.4 6.7-4.4 2.6-1.1 5.3-1.6 8.3-1.6 2.4 0 4.7.4 6.8 1.1 2.2.7 4.1 1.8 5.9 3.1s3.3 2.9 4.6 4.7c1.3 1.8 2.3 3.8 3 6 .5-.1 1-.2 1.6-.2.5-.1 1.1-.1 1.6-.1 2.7 0 5.1.5 7.4 1.5 2.3 1 4.3 2.3 6 4 1.7 1.7 3.1 3.7 4.1 5.9 1 2.3 1.5 4.7 1.5 7.3 0 2.5-.5 5-1.5 7.2-1 2.3-2.4 4.3-4.1 6s-3.7 3-6 4-4.8 1.4-7.4 1.4h-46.3m-14.4-14.2c0-3.9 1.4-7.2 4.2-10 2.2-2.2 4.8-3.5 7.7-3.9"/><circle class="illustration-stroke" cx="219.4" cy="118.8" r="3.6"/><path class="illustration-stroke" d="M246.3 127.7c0-.4.1-.7.1-1.1 1.4-8.6 7.1-14.4 16.1-15.2"/><circle class="illustration-stroke" cx="246.2" cy="131.6" r="3.6"/><path class="illustration-stroke" d="M213.3 75.5l-67.7-.1m-19.9 15.8H86.5m79 0h-40.3M139.4 79l-10.6 12.2"/><circle class="illustration-stroke" cx="142" cy="75.4" r="3.6"/><circle class="illustration-stroke" cx="169.1" cy="91.2" r="3.6"/><circle class="illustration-stroke" cx="216.9" cy="75.5" r="3.6"/><circle class="illustration-stroke" cx="80.2" cy="91.2" r="6.3"/><path class="illustration-stroke" d="M80 152.7H19.7m22.7-7.6v-15.7c0-2.3 1.9-4.1 4.1-4.1h14.7c3.1 0 6.1-1.6 7.8-4.1l.7-.6c.7-.5 1.5-.8 2.3-.8h8c2.3 0 4.1 1.9 4.1 4.1v24.7c0 2.3-1.9 4.1-4.1 4.1"/><circle class="illustration-stroke" cx="12.3" cy="152.7" r="6.3"/><path class="illustration-stroke" d="M914.2 110.4h-43.6m0 45h-43.3m64.9-9.3c0 5.1-9.6 9.3-21.5 9.3m21.5-22.5c0 5.1-9.6 9.3-21.5 9.3s-21.5-4.2-21.5-9.3m43-13.2c0 5.1-9.6 9.3-21.5 9.3s-21.5-4.2-21.5-9.3 9.6-9.3 21.5-9.3"/><circle class="illustration-stroke" cx="823.7" cy="155.4" r="3.6"/><circle class="illustration-stroke" cx="920.6" cy="110.4" r="6.3"/><path class="illustration-stroke" d="M849.1 119.7v27.1m43.1-27.1v26.4m-.1-133.5v18.5m0-3.2v16.7M871 28.5v16.1m42.2-16.1v17.3M871 28h42.2M877.6 1.8h28.9c2.6 0 4.7 2.1 4.7 4.7v.1c0 2.6-2.1 4.7-4.7 4.7h-28.9c-2.6 0-4.7-2.1-4.7-4.7s2.1-4.8 4.7-4.8z"/><circle class="illustration-stroke" cx="892.1" cy="49.4" r="3.6"/><circle class="illustration-stroke" cx="871" cy="49.4" r="3.6"/><circle class="illustration-stroke" cx="913.2" cy="49.4" r="3.6"/><path class="illustration-stroke" d="M228.2 64l15.4 17.6.9.1h13"/><circle class="illustration-stroke" cx="264.7" cy="81.7" r="6.3"/><circle class="illustration-stroke" cx="227.3" cy="60.5" r="3.6"/><path class="illustration-stroke" d="M181.5 16.7V9.1c0-2 1.6-3.6 3.6-3.6h21.2c2 0 3.6 1.6 3.6 3.6v4.1m4.1 4h7.8c3 0 5.5 2.5 5.5 5.5v33.5m-17.5 6.7h-40.3c-3 0-5.5-2.5-5.5-5.5V22.7c0-3 2.5-5.5 5.5-5.5h35.6"/><circle class="illustration-stroke" cx="209.8" cy="17.2" r="3.6"/><path class="illustration-stroke" d="M164.8 35.6h26.8"/><circle class="illustration-stroke" cx="195.6" cy="35.6" r="3.6"/><path class="illustration-stroke" d="M199.6 35.6h26.7"/><circle class="illustration-stroke" cx="1030.8" cy="83.6" r="6.3"/><path class="illustration-stroke" d="M985 37.2v-7.7c0-2 1.6-3.6 3.6-3.6h21.2c2 0 3.6 1.6 3.6 3.6v4.1m4.1 4.1h7.8c3 0 5.5 2.5 5.5 5.5v33.5m-17.5 6.7H973c-3 0-5.5-2.5-5.5-5.5V43.2c0-3 2.5-5.5 5.5-5.5h35.6"/><circle class="illustration-stroke" cx="1013.3" cy="37.7" r="3.6"/><path class="illustration-stroke" d="M968.3 56.1h26.8"/><circle class="illustration-stroke" cx="999.1" cy="56.1" r="3.6"/><path class="illustration-stroke" d="M1003.1 56.1h26.7M60.3 61.7h-52c-3.4 0-6.2-2.8-6.2-6.2V8.2C2 4.8 4.8 2 8.3 2h70.3c3.4 0 6.2 2.8 6.2 6.2v47.3c0 3.4-2.8 6.2-6.2 6.2h-2.9m-32.2.7v14.4m11.1 0H32.3M2 16h47.7"/><circle class="illustration-stroke" cx="68.3" cy="61.7" r="6.3"/><circle class="illustration-stroke" cx="54" cy="16" r="3.6"/><path class="illustration-stroke" d="M459.6 10.6H436"/><circle class="illustration-stroke" cx="463.2" cy="10.6" r="3.6"/><circle class="illustration-stroke" cx="446.9" cy="25.8" r="3.6"/><circle class="illustration-stroke" cx="430.2" cy="25.8" r="3.6"/><path class="illustration-stroke" d="M446.9 21.1v-4.7c0-3.2 2.6-5.8 5.8-5.8m-22.3 10.5v-4.7c0-3.2 2.6-5.8 5.8-5.8m624.7 61.1h23.6"/><circle class="illustration-stroke" cx="1057.3" cy="71.7" r="3.6"/><circle class="illustration-stroke" cx="1073.6" cy="86.9" r="3.6"/><circle class="illustration-stroke" cx="1090.3" cy="86.9" r="3.6"/><path class="illustration-stroke" d="M1073.6 82.2v-4.7c0-3.2-2.6-5.8-5.8-5.8m22.3 10.5v-4.7c0-3.2-2.6-5.8-5.8-5.8m33.6 72.1h-37.7m37.7 0l-34.4-38.2c-3.3-3.3-8.7-3.3-12 0l-32.1 36.6"/><path class="illustration-stroke" d="M1067.8 117.7l4.1 2.9 4.1-2.9 3.8 2.9 4.7-2.9 4.1 2.9 4.1-2.9"/><circle class="illustration-stroke" cx="1076.3" cy="143.7" r="3.6"/><circle class="illustration-stroke" cx="405" cy="139.6" r="6.3"/><path class="illustration-stroke" d="M331.1 146.4h37.7m-37.7 0l34.4-38.2c3.3-3.3 8.7-3.3 12 0l23.2 26.4"/><path class="illustration-stroke" d="M381.2 120.3l-4.1 2.9-4.1-2.9-3.8 2.9-4.7-2.9-4.1 2.9-4.1-2.9"/><circle class="illustration-stroke" cx="372.8" cy="146.3" r="3.6"/><path id="path46_233_" class="illustration-stroke" d="M287.2 78.5l-.6 1.7c-.4 1.3 0 2.7 1.1 3.5l11.3 8.2"/><g id="g44_84_"><path id="path46_232_" class="illustration-stroke" d="M296.032 89.774933l30.8 22.4 39.2-28.5c1.1-.8 1.5-2.2 1.1-3.5"/><path id="path46_231_" class="illustration-stroke" d="M346.632 66.274933h-34.6l-9-27.6c-.5-1.4-2.5-1.4-2.9 0l-9 27.6-.1.4"/><path id="path46_230_" class="illustration-stroke" d="M367.232 80.174933l-4.5-13.9-9-27.7c-.5-1.4-2.5-1.4-2.9 0l-7.8 17.7"/></g><circle class="illustration-stroke" cx="350.2" cy="66" r="3.6"/><circle class="illustration-stroke" cx="289.2" cy="72.6" r="6.3"/><path id="path46_229_" class="illustration-stroke" d="M1088.4 43l-.6 1.7c-.4 1.3 0 2.7 1.1 3.5l11.3 8.2"/><g id="g44_83_"><path id="path46_228_" class="illustration-stroke" d="M1097.232 54.274933l30.8 22.4 39.2-28.5c1.1-.8 1.5-2.2 1.1-3.5"/><path id="path46_227_" class="illustration-stroke" d="M1147.732 30.674933h-34.6l-9-27.6c-.5-1.4-2.5-1.4-2.9 0l-9 27.6-.1.4"/><path id="path46_226_" class="illustration-stroke" d="M1168.432 44.674933l-4.5-13.9-9-27.7c-.5-1.4-2.5-1.4-2.9 0l-7.8 17.7"/></g><circle class="illustration-stroke" cx="1151.3" cy="30.5" r="3.6"/><circle class="illustration-stroke" cx="1090.4" cy="37.1" r="6.3"/><path class="illustration-stroke" d="M421.2 89.9l-7.2 6.9-7.4-7.4"/><circle class="illustration-stroke" cx="394.8" cy="93.5" r="3.6"/><path class="illustration-stroke" d="M413.9 74.2v21.9"/><path class="illustration-stroke" d="M427.6 95.1v8.9h-32.8v-6.8"/><circle class="illustration-stroke" cx="427.5" cy="88.7" r="6.3"/><path class="illustration-stroke" d="M894.3 79.3l-7.1 6.9-7.4-7.4"/><circle class="illustration-stroke" cx="867.9" cy="82.9" r="3.6"/><path class="illustration-stroke" d="M887 63.6v21.9"/><path class="illustration-stroke" d="M900.7 84.5v8.9h-32.8v-6.8"/><circle class="illustration-stroke" cx="900.6" cy="78.1" r="6.3"/><path class="illustration-stroke" d="M974.4 126.2h-26c-1.7 0-3.1-1.4-3.1-3.1V99.4c0-1.7 1.4-3.1 3.1-3.1h35.2c1.7 0 3.1 1.4 3.1 3.1V123c0 1.7-1.4 3.1-3.1 3.1h-1.5m-16.1.4v7.2m5.6 0h-11.2m-15.1-28.4h23.8"/><circle class="illustration-stroke" cx="973" cy="105.4" r="3.6"/><circle class="illustration-stroke" cx="978.5" cy="126.2" r="3.6"/><path class="illustration-stroke" d="M158.3 132.3h-21.8m0 22.6h-21.6m32.4-4.7c0 2.6-4.8 4.6-10.8 4.6m10.8-11.2c0 2.6-4.8 4.6-10.8 4.6s-10.8-2.1-10.8-4.6m21.6-6.6c0 2.6-4.8 4.6-10.8 4.6s-10.8-2.1-10.8-4.6 4.8-4.6 10.8-4.6m-10.8 4.6v13.6m21.6-13.6v13.2"/><circle class="illustration-stroke" cx="111.3" cy="155.4" r="3.6"/><circle class="illustration-stroke" cx="162.1" cy="132.2" r="3.6"/><path class="illustration-stroke" d="M518.4 47h24.7M534 27.5c.6-1.3 1.4-2.4 2.3-3.4 1-.9 2.1-1.7 3.4-2.2 1.3-.5 2.7-.8 4.2-.8 1.2 0 2.3.2 3.4.5 1.1.4 2.1.9 3 1.5.9.7 1.7 1.4 2.3 2.3.6.9 1.1 1.9 1.5 3 .3-.1.5-.1.8-.1h.8c1.3 0 2.6.2 3.7.7 1.2.5 2.2 1.2 3 2 .9.8 1.5 1.8 2 3 .5 1.1.8 2.3.8 3.6 0 1.3-.3 2.5-.8 3.6s-1.2 2.1-2 3-1.9 1.5-3 2c-1.2.5-2.4.7-3.7.7h-23.2m-7.3-6.9c0-1.9.7-3.6 2.1-5 .6-.6 1.3-1.1 2-1.4"/><path class="illustration-stroke" d="M546.5 36.6c0-.2 0-.4.1-.5.7-4.3 3.6-7.2 8-7.6"/><circle class="illustration-stroke" cx="532.6" cy="31.7" r="3.6"/><circle class="illustration-stroke" cx="514.8" cy="47.2" r="3.6"/><circle class="illustration-stroke" cx="546.5" cy="40.1" r="3.6"/><path class="illustration-stroke" d="M613 153.5h-79v-24m0-8v-29"/><circle class="illustration-stroke" cx="534.1" cy="125.8" r="3.6"/><circle class="illustration-stroke" cx="581.1" cy="113.2" r="3.6"/><circle class="illustration-stroke" cx="616.3" cy="153.6" r="3.6"/><path class="illustration-stroke" d="M537 123.8c1 0 15-15 15-15l18.3 16.7 8.3-9.7"/><circle class="illustration-stroke" cx="659.3" cy="155.4" r="3.6"/><path class="illustration-stroke" d="M655.4 155.4h-9.2c-2.6 0-4.7-2.1-4.7-4.7v-6.5c0-2.6 2.1-4.7 4.7-4.7h50.5c2.6 0 4.7 2.1 4.7 4.7v6.5c0 2.6-2.1 4.7-4.7 4.7h-27.8"/><circle class="illustration-stroke" cx="689.5" cy="147.4" r="3.6"/><path class="illustration-stroke" d="M649.9 147.5h36"/><circle class="illustration-stroke" cx="665.3" cy="117.3" r="3.6"/><path class="illustration-stroke" d="M655.4 117.3h-9.2c-2.6 0-4.7 2.1-4.7 4.7v6.5c0 2.6 2.1 4.7 4.7 4.7h50.5c2.6 0 4.7-2.1 4.7-4.7V122c0-2.6-2.1-4.7-4.7-4.7h-27.8"/><circle class="illustration-stroke" cx="689.5" cy="125.3" r="3.6"/><path class="illustration-stroke" d="M649.9 125.3h36"/><path id="path46_225_" class="illustration-stroke" d="M99.9 52.1l-.3.9c-.2.6 0 1.3.6 1.7l5.7 4.1"/><g id="g44_82_"><path id="path46_224_" class="illustration-stroke" d="M104.332 57.774933l15.4 11.2 19.6-14.3c.5-.4.8-1.1.6-1.7"/><path id="path46_223_" class="illustration-stroke" d="M131.632 45.974933h-19.3l-4.5-13.8c-.2-.7-1.2-.7-1.5 0l-4.3 12.9"/><path id="path46_222_" class="illustration-stroke" d="M139.932 52.974933l-2.3-7-4.5-13.8c-.2-.7-1.2-.7-1.5 0l-3.9 8.9"/></g><circle class="illustration-stroke" cx="101.1" cy="48.5" r="3.6"/><path id="path46_221_" class="illustration-stroke" d="M577.8 28.5l-.3.9c-.2.6 0 1.3.6 1.7l5.7 4.1"/><g id="g44_81_"><path id="path46_220_" class="illustration-stroke" d="M582.232 34.074933l15.4 11.2 19.6-14.3c.5-.4.8-1.1.6-1.7"/><path id="path46_219_" class="illustration-stroke" d="M609.432 22.374933h-19.3l-4.5-13.8c-.2-.7-1.2-.7-1.5 0l-4.3 12.9"/><path id="path46_218_" class="illustration-stroke" d="M617.732 29.374933l-2.3-7-4.5-13.8c-.2-.7-1.2-.7-1.5 0l-3.9 8.9"/></g><circle class="illustration-stroke" cx="578.9" cy="24.9" r="3.6"/><path class="illustration-stroke" d="M770.8 34.1H816m-17-5.6V16.7c0-1.7-1.4-3.1-3.1-3.1h-11c-2.4 0-4.6-1.2-5.9-3.1l-.6-.4c-.5-.4-1.1-.6-1.7-.6h-5.9c-1.7 0-3.1 1.4-3.1 3.1V31c0 1.7 1.4 3.1 3.1 3.1"/><circle class="illustration-stroke" cx="819.5" cy="34.1" r="3.6"/><path class="illustration-stroke" d="M1114.4 114V90.4"/><circle class="illustration-stroke" cx="1114.4" cy="117.5" r="3.6"/><circle class="illustration-stroke" cx="1114.5" cy="86.6" r="3.6"/><path class="illustration-stroke" d="M1123.9 106.5h-3.7c-3.2 0-5.8 2.6-5.8 5.8m14.9-11.6c0 3.2-2.6 5.8-5.8 5.8m.5-15.3h10m-5-5v10M638 32.8V9.3"/><circle class="illustration-stroke" cx="638" cy="36.4" r="3.6"/><circle class="illustration-stroke" cx="638.1" cy="5.5" r="3.6"/><path class="illustration-stroke" d="M647.5 25.4h-3.7c-3.2 0-5.8 2.6-5.8 5.8m14.9-11.6c0 3.2-2.6 5.8-5.8 5.8m.6-15.3h10m-5-5v10m379.4 106.6h-23.6"/><circle class="illustration-stroke" cx="1035.7" cy="121.7" r="3.6"/><circle class="illustration-stroke" cx="1004.8" cy="121.6" r="3.6"/><path class="illustration-stroke" d="M1024.7 112.2v3.7c0 3.2 2.6 5.8 5.8 5.8m-11.6-14.9c3.2 0 5.8 2.6 5.8 5.8m-18.9-2l7.1-7.1m-7.1 0l7.1 7.1M119.2 4.9h23.6"/><circle class="illustration-stroke" cx="115.7" cy="4.9" r="3.6"/><circle class="illustration-stroke" cx="146.6" cy="4.9" r="3.6"/><path class="illustration-stroke" d="M126.7 14.4v-3.7c0-3.2-2.6-5.8-5.8-5.8m11.6 14.8c-3.2 0-5.8-2.6-5.8-5.8m18.8 2.1l-7.1 7m7.1 0l-7.1-7"/><circle class="illustration-stroke" cx="458.5" cy="154.9" r="3.6"/><path class="illustration-stroke" d="M411 139.9h83.6"/><circle class="illustration-stroke" cx="498.4" cy="139.9" r="3.6"/><path class="illustration-stroke" d="M418.5 149.4v-3.7c0-3.2-2.6-5.8-5.8-5.8m5.8 9.1c0 3.2 2.6 5.8 5.8 5.8H455"/><circle class="illustration-stroke" cx="935.2" cy="30.7" r="3.6"/><path class="illustration-stroke" d="M950.2 13.2v23.6"/><circle class="illustration-stroke" cx="950.2" cy="9.6" r="3.6"/><circle class="illustration-stroke" cx="950.2" cy="40.5" r="3.6"/><path class="illustration-stroke" d="M940.7 20.6h3.7c3.2 0 5.8-2.6 5.8-5.8m-14.8 11.6c0-3.2 2.6-5.8 5.8-5.8"/><circle class="illustration-stroke" cx="740.3" cy="155.4" r="3.6"/><path class="illustration-stroke" d="M722.9 140.4h23.5"/><circle class="illustration-stroke" cx="719.3" cy="140.4" r="3.6"/><circle class="illustration-stroke" cx="750.2" cy="140.4" r="3.6"/><path class="illustration-stroke" d="M730.3 149.9v-3.7c0-3.2-2.6-5.8-5.8-5.8m11.6 14.8c-3.2 0-5.8-2.6-5.8-5.8"/><circle class="illustration-stroke" cx="24.7" cy="98.1" r="3.6"/><path class="illustration-stroke" d="M9.6 115.6V92"/><circle class="illustration-stroke" cx="9.6" cy="119.1" r="3.6"/><circle class="illustration-stroke" cx="9.7" cy="88.2" r="3.6"/><path class="illustration-stroke" d="M19.1 108.1h-3.7c-3.2 0-5.8 2.6-5.8 5.8m14.9-11.6c0 3.2-2.6 5.8-5.8 5.8M302 147.2v-23.6"/><circle class="illustration-stroke" cx="302" cy="150.8" r="3.6"/><circle class="illustration-stroke" cx="302" cy="119.8" r="3.6"/><path class="illustration-stroke" d="M311.5 139.7h-3.7c-3.2 0-5.8 2.6-5.8 5.8m14.8-11.5c0 3.2-2.6 5.8-5.8 5.8m.6-15.4h10m-5-5v10m305.2-71.5c7-5.2 13.8-7 24.2-7 .7 0 1.3.5 1.3 1.2 0 13-3.6 21.6-12.9 30.9-2.3 2.2-4.8 4.5-7.6 6.9l-.8 14.8c0 .4-.3.8-.6 1l-15 8.8c-.2.1-.4.2-.6.2-.3 0-.6-.1-.9-.4l-2.5-2.5c-.3-.4-.4-.8-.3-1.2l3.3-10.8-11-11-10.8 3.3h-.4c-.3 0-.7-.1-.9-.4l-2.5-2.5c-.4-.4-.5-1.1-.2-1.5l8.8-15c.2-.4.6-.6 1-.6l14.8-.8"/><circle class="illustration-stroke" cx="617.3" cy="62.2" r="6.3"/><circle class="illustration-stroke" cx="635.5" cy="63.5" r="3.6"/><path class="illustration-stroke" d="M638.1 66.3l5.1 4.3M559 66.3h8m-4-4v8m7.2-9.1l3-3v14.3M648 103h84v20h3m-3-47v17h-88m98-65V4.8l-5.2-2.6-4.8 2.6V68m96 25h-86V36m0 73v-6h82m-72-69v58m10-40v40m10-22v22m10-16v16m10-9v9m10-4v4m-27.2-23.8c13 14.1 30.1 24.8 53 24.8M742 5.8s7.7 31.7 27.9 56.9"/><circle class="illustration-stroke" cx="741.8" cy="122.6" r="6.3"/><circle class="illustration-stroke" cx="742.1" cy="32.3" r="3.6"/><circle class="illustration-stroke" cx="772.2" cy="65.4" r="3.6"/><path class="illustration-stroke" d="M722 34v58m-10-40v40m-10-22v22m-10-16v16m-10-9v9m-10-4v4m27.2-23.8c-13 14-30.3 24.8-53.2 24.8m85.9-87.2s-7.7 31.7-27.9 56.9"/><circle class="illustration-stroke" cx="701.7" cy="65.4" r="3.6"/><circle class="illustration-stroke" cx="732.1" cy="72.3" r="3.6"/><circle class="illustration-stroke" cx="828.1" cy="102.8" r="3.6"/><circle class="illustration-stroke" cx="644.1" cy="102.8" r="3.6"/><circle class="illustration-stroke" cx="485.8" cy="61" r="6.3"/><circle class="illustration-stroke" cx="497" cy="45.8" r="3.6"/><path class="illustration-stroke" d="M485.8 2v52.5m0-52.5h16L498 42.3M485.8 24h6m-6-10h6m-6 20h6m-6 12h7"/><circle class="illustration-stroke" cx="474.9" cy="76.2" r="3.6"/><path class="illustration-stroke" d="M486.1 119.9V67.4m0 52.5h-16l3.8-40.3m12.2 18.3h-6m6 10h-6m6-20h-6m6-12h-7"/><circle class="illustration-stroke" cx="501.2" cy="72" r="3.6"/><path class="illustration-stroke" d="M544.9 60.8h-52.5m52.5 0v16L504.6 73m18.3-12.2v6m10-6v6m-20-6v6m-12-6v7"/><circle class="illustration-stroke" cx="470.8" cy="49.9" r="3.6"/><path class="illustration-stroke" d="M427 61.1h52.5m-52.5 0v-16l40.3 3.8M449 61.1v-6m-10 6v-6m20 6v-6m12 6v-7M444.2 114L457 69.2m45.7 6.7l11.6 42.8-30.1 11-36.5-10.6m19.1-78.6l9.4-5 9.1 4"/><circle class="illustration-stroke" cx="444.1" cy="117.8" r="3.6"/><path class="illustration-stroke" d="M767.3 143.8h28.3m-28.3 0l25.8-28.6c2.5-2.5 6.5-2.5 9 0l24.1 27.5"/><path class="illustration-stroke" d="M804.8 124.2l-3 2.2-3.1-2.2-2.8 2.2-3.6-2.2-3 2.2-3.1-2.2"/><circle class="illustration-stroke" cx="799" cy="143.9" r="3.6"/><path class="illustration-stroke" d="M181 107.3h8m-4-4v8m7.2-9.1l3-3v14.3M316.5 35h8m-4-4v8m7.2-9.2l3-3v14.4M910.5 142h8m-4-4v8m7.2-9.2l3-3v14.4m219.8-63.7h8m-4-4v8m7.2-9.2l3-3v14.4M796 61.5h8m-4-4v8m7.2-9.2l3-3v14.4m227 87.8l-43.8.1m-14-8.9h-29.6m59.5 0h-30.1m7.1 7.1l-5.3-6.1"/><circle class="illustration-stroke" cx="946.3" cy="146.4" r="3.6"/><circle class="illustration-stroke" cx="1013" cy="146.4" r="3.6"/><circle class="illustration-stroke" cx="1041" cy="155.4" r="3.6"/><circle class="illustration-stroke" cx="990" cy="155.4" r="3.6"/><path class="illustration-stroke" d="M847.6 90.9l.1-33.9m-8.9-13.9V17.5m0 45.5V42.8m7.1 7.2l-6.1-5.4"/><circle class="illustration-stroke" cx="838.5" cy="13.9" r="3.6"/><circle class="illustration-stroke" cx="838.5" cy="66.7" r="3.6"/><circle class="illustration-stroke" cx="847.5" cy="94.7" r="3.6"/><circle class="illustration-stroke" cx="847.5" cy="53.7" r="3.6"/><path class="illustration-stroke" d="M685.1 17.9V29m0-2v10.1m-12.7-9.7v9.7m25.3-9.7v10.4m-25.3-10.7h25.3m-21.3-15.7h17.3c1.6 0 2.8 1.3 2.8 2.8v.1c0 1.6-1.3 2.8-2.8 2.8h-17.3c-1.6 0-2.8-1.3-2.8-2.8v-.1c0-1.5 1.3-2.8 2.8-2.8z"/><circle class="illustration-stroke" cx="672.5" cy="41.5" r="3.6"/><circle class="illustration-stroke" cx="685.3" cy="41.5" r="3.6"/><circle class="illustration-stroke" cx="697.8" cy="41.5" r="3.6"/><circle class="illustration-stroke" cx="119.6" cy="103.7" r="3.6"/><path class="illustration-stroke" d="M109.8 103.7h-9.2c-2.6 0-4.7 2.1-4.7 4.7v6.5c0 2.6 2.1 4.7 4.7 4.7h50.5c2.6 0 4.7-2.1 4.7-4.7v-6.5c0-2.6-2.1-4.7-4.7-4.7h-27.8"/><circle class="illustration-stroke" cx="143.8" cy="111.7" r="3.6"/><path class="illustration-stroke" d="M104.2 111.7h36"/><circle class="illustration-stroke" cx="940" cy="69.5" r="14"/><path class="illustration-fill" d="M932.3 73c0-3.4 4-4 4-5.4 0-.7-.5-.9-1-.9-.4 0-.8.2-1 .5-.3.3-.7.4-1 .2l-.5-.4c-.4-.3-.5-.6-.2-1 .5-.6 1.4-1.4 2.9-1.4s3.2.9 3.2 2.8c0 2.9-3.8 3.5-3.9 4.7h3.3c.5 0 .7.2.7.7v.5c0 .5-.2.7-.7.7H933c-.4 0-.8-.2-.8-.7V73zm8.1 0c0-3.4 4-4 4-5.4 0-.7-.5-.9-1-.9-.4 0-.8.2-1 .5-.3.3-.7.4-1 .2l-.5-.4c-.4-.3-.5-.6-.2-1 .5-.6 1.4-1.4 2.9-1.4s3.2.9 3.2 2.8c0 2.9-3.8 3.5-3.9 4.7h3.3c.5 0 .7.2.7.7v.5c0 .5-.2.7-.7.7h-5.1c-.4 0-.8-.2-.8-.7V73z"/><circle class="illustration-stroke" cx="48.9" cy="103" r="14"/><path class="illustration-fill" d="M41.3 106.5c0-3.4 4-4 4-5.4 0-.7-.5-.9-1-.9-.4 0-.8.2-1 .5-.3.3-.7.4-1 .2l-.5-.4c-.4-.3-.5-.6-.2-1 .5-.6 1.4-1.4 2.9-1.4s3.2.9 3.2 2.8c0 2.9-3.8 3.5-3.9 4.7h3.3c.5 0 .7.2.7.7v.5c0 .5-.2.7-.7.7H42c-.4 0-.8-.2-.8-.7v-.3zm8 0c0-3.4 4-4 4-5.4 0-.7-.5-.9-1-.9-.4 0-.8.2-1 .5-.3.3-.7.4-1 .2l-.5-.4c-.4-.3-.5-.6-.2-1 .5-.6 1.4-1.4 2.9-1.4s3.2.9 3.2 2.8c0 2.9-3.8 3.5-3.9 4.7h3.3c.5 0 .7.2.7.7v.5c0 .5-.2.7-.7.7H50c-.4 0-.8-.2-.8-.7v-.3z"/><path class="illustration-stroke" d="M980.9 9.5h70.3m19.1 33.8c-9.7 4.7-21.3.7-26-8.9-4.3-8.9-1.3-19.5 6.8-24.8"/><circle class="illustration-stroke" cx="1061.7" cy="25.8" r="12.2"/><path class="illustration-stroke" d="M1059.9 45.2v8.4m-.3 0h-5.1"/><circle class="illustration-stroke" cx="977.2" cy="9.8" r="3.6"/><circle class="illustration-stroke" cx="1050.7" cy="53.9" r="3.6"/><path class="illustration-stroke" d="M265.3 38.2l8.9.5c.2 0 .5.2.6.4l5.2 9c.2.3.1.7-.1.9l-1.5 1.5c-.1.1-.4.2-.5.2h-.2l-6.5-2-6.6 6.6 2 6.5c.1.3 0 .5-.2.8l-1.5 1.5c-.2.1-.4.2-.5.2-.1 0-.3 0-.4-.1l-9-5.3c-.2-.1-.4-.4-.4-.6l-.5-8.9c-1.7-1.4-3.2-2.8-4.6-4.1-5.6-5.6-7.7-10.8-7.7-18.5 0-.4.4-.8.8-.8 6.2 0 10.3 1.1 14.5 4.2m-9.7 5l-3.1 2.6"/><circle class="illustration-stroke" cx="259.9" cy="32.1" r="3.6"/><path class="illustration-stroke" d="M1162.7 119h4.3c1.1 0 2 .9 2 2v36c0 1.1-.9 2-2 2h-36c-1.1 0-2-.9-2-2v-36c0-1.1.9-2 2-2h9.2"/><path class="illustration-stroke" d="M1138.4 130.5l8.5 8.5-8.5 8.5"/><path class="st28" d="M1151.6 147.5h8"/><circle class="illustration-stroke" cx="1156.5" cy="119.3" r="6.3"/><path class="illustration-stroke" d="M307 14.4l-33.8.1m-14-8.9h-19.6m39.5 0H259m7.1 7.1l-5.3-6.1"/><circle class="illustration-stroke" cx="236.1" cy="5.3" r="3.6"/><circle class="illustration-stroke" cx="282.8" cy="5.3" r="3.6"/><circle class="illustration-stroke" cx="310.8" cy="14.3" r="3.6"/><circle class="illustration-stroke" cx="269.8" cy="14.3" r="3.6"/><path class="illustration-fill" d="M657.7 69.2l.4-.6c.3-.4.6-.4 1-.2.3.2.9.6 1.7.6.7 0 1-.3 1-.6 0-1.3-4.1-1.1-4.1-4 0-1.7 1.4-2.8 3.3-2.8 1.1 0 2.1.4 2.5.7.4.3.4.6.2 1l-.3.6c-.3.5-.6.4-1 .2s-.9-.4-1.5-.4c-.7 0-1 .3-1 .7 0 1.4 4.1 1 4.1 4 0 1.6-1.2 2.9-3.3 2.9-1.3 0-2.5-.5-3-.9-.1-.4-.3-.7 0-1.2zm8.2-6.8c0-.5.2-.7.7-.7h4.3c.5 0 .7.2.7.7v.5c0 .5-.2.7-.7.7h-2.7v2h2.1c.5 0 .7.2.7.7v.5c0 .5-.2.7-.7.7h-2.1v2.7c0 .5-.2.7-.7.7h-.8c-.5 0-.7-.2-.7-.7v-7.8zm11.7-.9c2.9 0 4.9 2.1 4.9 4.7 0 2.7-2 4.9-4.9 4.9-2.9 0-4.9-2.1-4.9-4.9 0-2.6 2-4.7 4.9-4.7zm0 7.6c1.5 0 2.5-1.2 2.5-2.8 0-1.5-1-2.7-2.5-2.7s-2.5 1.1-2.5 2.7 1 2.8 2.5 2.8zM509.8 6.4c0-.5.2-.7.7-.7h1c.4 0 .7.1.9.5l2.3 3.9c.4.6.8 1.6.8 1.6s-.1-1-.1-1.6V6.4c0-.5.2-.7.7-.7h.8c.5 0 .7.2.7.7v7.9c0 .5-.2.7-.7.7h-1c-.4 0-.7-.1-.8-.5l-2.3-3.8c-.4-.6-.8-1.6-.8-1.6s.1 1 .1 1.6v3.6c0 .5-.2.7-.7.7h-.8c-.5 0-.7-.2-.7-.7V6.4zm10.2 0c0-.5.2-.7.7-.7h.8c.5 0 .7.2.7.7V13h3.1c.5 0 .7.2.7.7v.5c0 .5-.2.7-.7.7h-4.6c-.5 0-.7-.2-.7-.7V6.4zm7.5 0c0-.5.2-.7.7-.7h2.6c2.9 0 4.8 1.7 4.8 4.6s-1.9 4.7-4.8 4.7h-2.6c-.5 0-.7-.2-.7-.7V6.4zm3.2 6.6c1.6 0 2.5-.9 2.5-2.7 0-1.8-1-2.7-2.5-2.7h-.9V13h.9z"/>
</svg>
