<svg xmlns="http://www.w3.org/2000/svg" viewBox="0 0 76 76" enable-background="new 0 0 76 76"><path d="M69.156,0H6.845C3.07,0,0,3.106,0,6.923v4.153C0,14.894,3.07,18,6.845,18h11.353c0.553,0,1-0.448,1-1
			s-0.447-1-1-1H6.845C4.173,16,2,13.792,2,11.077V6.923C2,4.208,4.173,2,6.845,2h62.312c2.672,0,4.845,2.208,4.845,4.923v4.153
			c0,2.715-2.173,4.923-4.845,4.923H34.899c-0.465-2.279-2.484-4-4.899-4c-2.757,0-5,2.243-5,5s2.243,5,5,5
			c2.415,0,4.434-1.721,4.899-4h34.257c3.774,0,6.845-3.106,6.845-6.923V6.923C76.001,3.106,72.931,0,69.156,0z M30,20
			c-1.654,0-3-1.346-3-3s1.346-3,3-3s3,1.346,3,3S31.654,20,30,20z"/><path d="m69.16 27h-62.31c-3.775 0-6.845 3.106-6.845 6.923v4.153c0 3.818 3.07 6.924 6.845 6.924h34.26c.465 2.279 2.484 4 4.899 4 2.757 0 5-2.243 5-5s-2.243-5-5-5c-2.415 0-4.434 1.721-4.899 4h-34.26c-2.672 0-4.845-2.208-4.845-4.923v-4.153c0-2.716 2.173-4.924 4.845-4.924h62.31c2.672 0 4.845 2.208 4.845 4.923v4.153c0 2.715-2.173 4.923-4.845 4.923h-11.354c-.553 0-1 .448-1 1s.447 1 1 1h11.354c3.774 0 6.845-3.106 6.845-6.923v-4.153c-.001-3.817-3.071-6.923-6.846-6.923m-23.16 14c1.654 0 3 1.346 3 3s-1.346 3-3 3-3-1.346-3-3 1.346-3 3-3"/><path d="m69.16 54h-62.31c-3.775 0-6.845 3.106-6.845 6.923v4.153c0 3.818 3.07 6.924 6.845 6.924h11.353c.553 0 1-.448 1-1s-.447-1-1-1h-11.353c-2.672 0-4.845-2.208-4.845-4.923v-4.153c0-2.716 2.173-4.924 4.845-4.924h62.31c2.672 0 4.845 2.208 4.845 4.923v4.153c0 2.715-2.173 4.923-4.845 4.923h-34.26c-.465-2.279-2.484-4-4.899-4-2.757 0-5 2.243-5 5s2.243 5 5 5c2.415 0 4.434-1.721 4.899-4h34.26c3.774 0 6.845-3.106 6.845-6.923v-4.153c0-3.817-3.07-6.923-6.845-6.923m-39.16 20c-1.654 0-3-1.346-3-3s1.346-3 3-3 3 1.346 3 3-1.346 3-3 3"/></svg>