<svg xmlns="http://www.w3.org/2000/svg" viewBox="0 0 76 76" enable-background="new 0 0 76 76"><path d="m75.82 42.859l-11.707-36.24c-.315-.976-1.181-1.611-2.207-1.616-.994-.005-1.911.625-2.21 1.524l-6.725 15.43c-.221.506.011 1.096.518 1.316.507.222 1.096-.011 1.316-.517l6.756-15.511c.071-.21.238-.242.333-.242 0 0 .001 0 .002 0 .109 0 .254.041.314.231l11.708 36.24c.225.696-.025 1.457-.621 1.894l-33.377 24.393-33.23-24.268c-.589-.431-.834-1.193-.608-1.893l.479-1.481c.027-.083.024-.167.029-.25.459.081.928.131 1.41.131 4.411 0 8-3.589 8-8 0-3.273-1.978-6.089-4.798-7.327l6.426-19.432c.07-.209.236-.241.331-.241.001 0 .002 0 .002 0 .11 0 .255.041.316.231l7.776 24.08c.134.413.513.688.947.688h28c.466 2.277 2.587 4 5 4 2.757 0 5-2.243 5-5s-2.243-5-5-5c-2.416 0-4.436 1.723-4.899 4h-27.369l-7.552-23.388c-.316-.976-1.183-1.611-2.208-1.616-.005 0-.009 0-.013 0-1.027 0-1.9.629-2.229 1.61l-6.449 19.502c-.418-.067-.844-.112-1.281-.112-4.411 0-8 3.589-8 8 0 3.26 1.963 6.07 4.767 7.311-.037.063-.084.118-.108.191l-.48 1.483c-.491 1.524.044 3.181 1.331 4.122l33.822 24.7c.176.129.383.193.59.193s.414-.064.59-.193l33.968-24.826c1.293-.947 1.833-2.604 1.342-4.122m-15.822-14.859c1.654 0 3 1.346 3 3s-1.346 3-3 3-3-1.346-3-3 1.346-3 3-3m-58 6c0-3.309 2.691-6 6-6s6 2.691 6 6-2.691 6-6 6-6-2.691-6-6"/></svg>