<svg xmlns="http://www.w3.org/2000/svg" viewBox="0 0 76 76" enable-background="new 0 0 76 76"><path d="m75 67h-54c-.553 0-1 .448-1 1s.447 1 1 1h54c.553 0 1-.448 1-1s-.447-1-1-1"/><path d="m6 62c-3.309 0-6 2.691-6 6s2.691 6 6 6 6-2.691 6-6-2.691-6-6-6m0 10c-2.206 0-4-1.794-4-4s1.794-4 4-4 4 1.794 4 4-1.794 4-4 4"/><path d="m75 49h-54c-.553 0-1 .448-1 1s.447 1 1 1h54c.553 0 1-.448 1-1s-.447-1-1-1"/><path d="m6 44c-3.309 0-6 2.691-6 6s2.691 6 6 6 6-2.691 6-6-2.691-6-6-6m0 10c-2.206 0-4-1.794-4-4s1.794-4 4-4 4 1.794 4 4-1.794 4-4 4"/><path d="m75 31h-54c-.553 0-1 .448-1 1s.447 1 1 1h54c.553 0 1-.448 1-1s-.447-1-1-1"/><path d="m6 26c-3.309 0-6 2.691-6 6s2.691 6 6 6 6-2.691 6-6-2.691-6-6-6m0 10c-2.206 0-4-1.794-4-4s1.794-4 4-4 4 1.794 4 4-1.794 4-4 4"/><path d="M69.156,2H6.845C3.07,2,0,5.106,0,8.923v4.153C0,16.894,3.07,20,6.845,20H41.09
			c0.478,2.833,2.942,5,5.91,5c3.309,0,6-2.691,6-6s-2.691-6-6-6c-2.967,0-5.431,2.167-5.91,5H6.845C4.173,18,2,15.792,2,13.077
			V8.923C2,6.208,4.173,4,6.845,4h62.312c2.672,0,4.845,2.208,4.845,4.923v4.153c0,2.715-2.173,4.923-4.845,4.923H60
			c-0.553,0-1,0.448-1,1s0.447,1,1,1h9.156C72.931,20,76,16.786,76,12.969V9.094C76,5.276,72.931,2,69.156,2z M47,15
			c2.206,0,4,1.794,4,4s-1.794,4-4,4s-4-1.794-4-4S44.794,15,47,15z"/></svg>