<svg xmlns="http://www.w3.org/2000/svg" viewBox="0 0 76 76" enable-background="new 0 0 76 76"><path d="m12 31.899v26.2c0 3.251 2.781 5.897 6.2 5.897h15.6c3.419 0 6.2-2.646 6.2-5.897v-52.21c0-3.251-2.781-5.896-6.2-5.896h-15.6c-3.419 0-6.2 2.645-6.2 5.896v9.512c0 .552.447 1 1 1s1-.448 1-1v-9.512c0-2.148 1.884-3.896 4.2-3.896h15.6c2.316 0 4.2 1.748 4.2 3.896v52.21c0 2.149-1.884 3.897-4.2 3.897h-15.6c-2.316 0-4.2-1.748-4.2-3.897v-26.2c2.279-.465 4-2.484 4-4.899 0-2.757-2.243-5-5-5s-5 2.243-5 5c0 2.414 1.721 4.434 4 4.899m1-7.899c1.654 0 3 1.346 3 3s-1.346 3-3 3-3-1.346-3-3 1.346-3 3-3"/><path d="m66 37c0 2.757 2.243 5 5 5s5-2.243 5-5c0-2.414-1.721-4.434-4-4.899v-26.2c0-3.251-2.781-5.897-6.2-5.897h-15.6c-3.419 0-6.2 2.646-6.2 5.897v52.21c0 3.251 2.781 5.896 6.2 5.896h15.6c3.419 0 6.2-2.645 6.2-5.896v-9.512c0-.552-.447-1-1-1s-1 .448-1 1v9.512c0 2.148-1.884 3.896-4.2 3.896h-15.6c-2.316 0-4.2-1.748-4.2-3.896v-52.21c0-2.149 1.884-3.897 4.2-3.897h15.6c2.316 0 4.2 1.748 4.2 3.897v26.2c-2.279.465-4 2.485-4 4.899m8 0c0 1.654-1.346 3-3 3s-3-1.346-3-3 1.346-3 3-3 3 1.346 3 3"/><path d="m27 69.1c-.553 0-1 .448-1 1 0 2.149-1.884 3.897-4.2 3.897h-15.6c-2.316 0-4.2-1.748-4.2-3.897v-52.21c0-2.148 1.884-3.896 4.2-3.896.553 0 1-.448 1-1s-.447-1-1-1c-3.419 0-6.2 2.645-6.2 5.896v52.21c0 3.251 2.781 5.897 6.2 5.897h15.6c3.419 0 6.2-2.646 6.2-5.897 0-.552-.447-1-1-1"/><path d="m59 69.1c-.553 0-1 .448-1 1 0 2.148-1.884 3.896-4.2 3.896h-15.6c-2.316 0-4.2-1.748-4.2-3.896 0-.552-.447-1-1-1s-1 .448-1 1c0 3.251 2.781 5.896 6.2 5.896h15.6c3.419 0 6.2-2.645 6.2-5.896 0-.553-.447-1-1-1"/></svg>