<svg xmlns="http://www.w3.org/2000/svg" viewBox="0 0 76 76" enable-background="new 0 0 76 76"><path d="m69.16 0h-62.31c-3.775 0-6.845 3.106-6.845 6.923v8.153c0 3.818 3.07 6.924 6.845 6.924h26.26c.399 1.956 1.943 3.5 3.899 3.899v16.687l-3.293-3.293c-.391-.391-1.023-.391-1.414 0s-.391 1.023 0 1.414l5 5c.195.195.451.293.707.293s.512-.098.707-.293l5-5c.391-.391.391-1.023 0-1.414s-1.023-.391-1.414 0l-3.293 3.293v-16.687c2.279-.465 4-2.484 4-4.899 0-2.757-2.243-5-5-5-2.415 0-4.434 1.721-4.899 4h-26.26c-2.672 0-4.845-2.208-4.845-4.923v-8.154c0-2.715 2.173-4.923 4.845-4.923h62.31c2.672 0 4.845 2.208 4.845 4.923v8.153c0 2.715-2.173 4.923-4.845 4.923h-19.16c-.553 0-1 .448-1 1s.447 1 1 1h19.16c3.775.001 6.844-3.182 6.844-6.999v-8c0-3.817-3.069-7-6.844-7m-31.16 18c1.654 0 3 1.346 3 3s-1.346 3-3 3-3-1.346-3-3 1.346-3 3-3"/><path d="M69.156,50H6.845C3.07,50,0,53.106,0,56.923v8.153C0,68.894,3.07,72,6.845,72h26.256
			c0.465,2.279,2.484,4,4.899,4c2.757,0,5-2.243,5-5s-2.243-5-5-5c-2.415,0-4.434,1.721-4.899,4H6.845C4.173,70,2,67.792,2,65.077
			v-8.153C2,54.208,4.173,52,6.845,52h62.312c2.672,0,4.845,2.208,4.845,4.923v8.153c0,2.715-2.173,4.923-4.845,4.923H50
			c-0.553,0-1,0.448-1,1s0.447,1,1,1h19.156C72.931,72,76,68.901,76,65.083v-7.958C76,53.308,72.931,50,69.156,50z M38,68
			c1.654,0,3,1.346,3,3s-1.346,3-3,3s-3-1.346-3-3S36.346,68,38,68z"/></svg>