<svg xmlns="http://www.w3.org/2000/svg" viewBox="0 0 76 76" enable-background="new 0 0 76 76"><path d="M38,0c-8.103,0-15.811,2.512-22.331,7.259C14.623,6.446,13.347,6,12,6c-1.603,0-3.109,0.624-4.242,1.757
			C6.624,8.891,6,10.397,6,12s0.624,3.109,1.758,4.243C8.891,17.376,10.397,18,12,18s3.109-0.624,4.242-1.757
			C17.376,15.109,18,13.603,18,12c0-1.175-0.339-2.298-0.965-3.26C23.17,4.332,30.401,2,38,2c19.851,0,36,16.149,36,36
			S57.851,74,38,74S2,57.851,2,38c0-4.67,0.881-9.212,2.617-13.501c0.207-0.512-0.039-1.095-0.552-1.302
			c-0.514-0.207-1.095,0.039-1.302,0.551C0.93,28.276,0,33.071,0,38c0,20.953,17.047,38,38,38s38-17.047,38-38S58.953,0,38,0z
			 M14.828,14.829c-1.512,1.511-4.145,1.511-5.656,0C8.416,14.073,8,13.068,8,12s0.416-2.073,1.172-2.829C9.928,8.416,10.932,8,12,8
			s2.072,0.416,2.828,1.171C15.584,9.927,16,10.932,16,12S15.584,14.073,14.828,14.829z"/><path d="m38 23c-.553 0-1 .448-1 1v13h-13c-.553 0-1 .448-1 1s.447 1 1 1h13v13c0 .552.447 1 1 1s1-.448 1-1v-13h13c.553 0 1-.448 1-1s-.447-1-1-1h-13v-13c0-.552-.447-1-1-1"/></svg>