<svg xmlns="http://www.w3.org/2000/svg" viewBox="0 0 76 76" enable-background="new 0 0 76 76"><path d="M29,0H11C7.141,0,4,3.07,4,6.844v11.353c0,0.552,0.447,1,1,1s1-0.448,1-1V6.844C6,4.173,8.243,2,11,2h18
			c2.757,0,5,2.173,5,4.844v62.311C34,71.827,31.757,74,29,74H11c-2.757,0-5-2.173-5-4.845V34.898c2.279-0.465,4-2.484,4-4.899
			c0-2.757-2.243-5-5-5s-5,2.243-5,5c0,2.414,1.721,4.434,4,4.899v34.257C4,72.93,7.141,76,11,76h18c3.859,0,7-3.07,7-6.845V6.844
			C36,3.07,32.859,0,29,0z M2,30c0-1.654,1.346-3,3-3s3,1.346,3,3s-1.346,3-3,3S2,31.654,2,30z"/><path d="m66 46c0 2.757 2.243 5 5 5s5-2.243 5-5c0-2.414-1.721-4.434-4-4.899v-34.26c0-3.775-3.141-6.845-7-6.845h-18c-3.859 0-7 3.07-7 6.845v62.31c0 3.774 3.141 6.844 7 6.844h18c3.859 0 7-3.07 7-6.844v-11.353c0-.552-.447-1-1-1s-1 .448-1 1v11.353c0 2.671-2.243 4.844-5 4.844h-18c-2.757 0-5-2.173-5-4.844v-62.31c0-2.672 2.243-4.845 5-4.845h18c2.757 0 5 2.173 5 4.845v34.26c-2.279.464-4 2.484-4 4.898m8 0c0 1.654-1.346 3-3 3s-3-1.346-3-3 1.346-3 3-3 3 1.346 3 3"/></svg>