<svg viewBox="0 0 94 80" xmlns="http://www.w3.org/2000/svg"><g fill="none" fill-rule="evenodd"><g fill="#fff"><path d="m81.23 40.01c0 20.795-17.1 37.915-37.869 37.915-20.771 0-37.871-17.12-37.871-37.915 0-20.795 17.1-37.914 37.871-37.914 20.769 0 37.869 17.12 37.869 37.914h1.6c0-21.678-17.816-39.514-39.469-39.514-21.655 0-39.471 17.837-39.471 39.514 0 21.679 17.816 39.515 39.471 39.515 21.654 0 39.469-17.836 39.469-39.515h-1.6"/><path d="m52.08 60.39c16.475 6.793 13.665-10.381 4.845-23.578-4.989-7.467-11.498-13.687-15.604-16.688-13.665-9.994-22-3.882-12.405 15.718 3.107 6.349 7.1 10.633 10.219 14.673 2.379 3.083 7.02 4.627 5.384 6.091-1.841 1.651-6.299-5.627-6.299-5.627-3.295-3.979-6.433-8.226-9.668-14.05-7.391-13.311-6.324-26.895 7.05-20.976 11.351 5.02 22.19 19.11 26.554 29.12 2.02 4.638 7.464 22.886-9.981 15.512"/></g><path d="m.704 51.49c7.27-4.852 14.159-7.984 25.887-11.865 16.478-5.453 28.882-9.121 44.1-16.786 7.409-3.733 18.361-10.96 22.775-17.95-1.265 2.59-5.105 7.764-6.881 9.994-20.644 25.907-64.62 24.439-85.59 36.878" fill="#ccc"/><g fill="#fff"><path d="m11.248 32.556c6.621.052 6-.013 6.077.065.117 0 5.311 8.965 5.311 9.04 0 .04-.04-3.185-.04-7.218 0-.466-1.279-1.824-1.239-1.824 1.899 0 4.38.038 4.38.038-.93 1.087-1.115.997-1.124 1.67-.027 2.16-.051 6.151 0 10.634.007.671.504.932 1.318 2.095h-6.087c-1.977-3.299-5.599-9.487-5.583-9.47.029.029-.078 3.881.039 6.987.039 1.025.504 1.358 1.357 2.289 0 0 .983-.026-4.769.039 1.745-.932 1.514-2.096 1.512-2.135-.063-4.289-.013-7.957-.013-10.324 0-.388-.026-.349-1.228-1.824"/><path d="m32.04 39.18c.557-1.943 1.035-3.68 1.26-4.812.04-.194-.425-.893-1.162-1.592l-.053-.107c3.552.011 7.263.029 7.263.029.969 2.368 3.179 9 4.846 13.08.441 1.078 1.202 1.28 1.202 1.28-3.02-.039-8.636-.014-8.605-.039 1.511-1.357 1.317-1.357.658-3.338h-4.729c-.969 2.252.302 3.309.465 3.299-1.077.056-4.729 0-4.729 0 1.976-1.397 1.861-1.825 1.861-1.825.544-1.936 1.174-4.057 1.725-5.977h1.939c-.416 1.338-.833 2.677-.833 2.677h3.761l-2.094-5.356c0 0-.417 1.339-.834 2.678h-1.939"/><path d="m64.52 39.37c.558-1.943 1.035-3.68 1.261-4.812.038-.194-.425-.893-1.162-1.592l-.052-.108c3.553.011 7.262.031 7.262.031.969 2.368 3.179 9 4.845 13.08.442 1.078 1.203 1.28 1.203 1.28-3.02-.038-8.636-.013-8.607-.039 1.512-1.358 1.318-1.358.659-3.337h-4.73c-.969 2.252.302 3.307.465 3.299-1.076.055-4.729 0-4.729 0 1.976-1.397 1.861-1.824 1.861-1.824.542-1.936 1.172-4.057 1.724-5.977h1.939c-.416 1.337-.833 2.677-.833 2.677h3.76l-2.093-5.356c0 0-.417 1.339-.835 2.678h-1.939"/><path d="m58.42 36.19c-.078-2.756 0-3.649 0-3.649-1.201.97-.596.847-3.605.349-8.685-1.436-9.344 6.675-4.614 8.5 3.963 1.528 5.363 1.828 4.768 3.26-.193.466-3.799 2.173-7.521-1.28l.077 4.812c.465-.48 1.745-1.359 1.745-1.359.039 0 4.03 1.764 7.637-.077 5.544-2.834 2.777-7.418-3.141-9.237-4.923-1.514-.272-5.05 4.614-1.281"/></g><path d="m93.54 5.03c-5.894 17.52-29.502 31.05-49.38 43.966-11.99 7.792-23.893 16.763-32.09 24.397-2.161 2.01.442-.752-.387.097 11.436-13.196 24.59-21.05 31.858-26 12.295-8.369 19.287-10.478 40.495-30.06" fill="#ccc"/><g fill="#fff"><path d="m52.08 60.39c16.475 6.793 13.665-10.381 4.845-23.578-4.989-7.467-11.145-13.39-15.604-16.688-5.207-3.853-5.718-4.172-5.718-4.172 11.63 5.53 22.19 19.11 26.554 29.12 2.02 4.639 7.464 22.886-9.981 15.513"/><path d="m43.892 4.818c0 .172-.142.315-.316.315-.173 0-.314-.143-.314-.315 0-.173.142-.316.314-.316.174 0 .316.143.316.316"/><path d="m46.07 9.596c0 .213-.175.389-.387.389-.213 0-.388-.176-.388-.389 0-.212.175-.388.388-.388.213 0 .387.175.387.388"/><path d="m51.742 17.407c0 .212-.176.388-.389.388-.212 0-.387-.176-.387-.388 0-.213.175-.388.387-.388.213.001.389.175.389.388"/><path d="m42.632 12.288c0 .173-.142.316-.316.316-.172 0-.315-.142-.315-.316 0-.173.142-.315.315-.315.173 0 .316.142.316.315"/><path d="m46.02 14.08c0 .173-.142.315-.314.315-.172 0-.316-.142-.316-.315 0-.173.143-.316.316-.316.172 0 .314.143.314.316"/><path d="m41.613 9.06c0 .212-.175.388-.387.388-.213 0-.389-.175-.389-.388 0-.212.175-.388.389-.388.213 0 .387.175.387.388"/><path d="m36.476 12.192c0 .173-.142.315-.314.315-.174 0-.316-.142-.316-.315 0-.173.142-.315.316-.315.172 0 .314.143.314.315"/><path d="m37.4 12.822c0 .172-.142.315-.314.315-.173 0-.316-.142-.316-.315 0-.173.143-.315.316-.315.172 0 .314.142.314.315"/><path d="m38.32 13.453c0 .173-.142.315-.315.315-.173 0-.315-.142-.315-.315 0-.173.142-.316.315-.316.172 0 .315.143.315.316"/><path d="m36.913 14.666c0 .173-.142.315-.314.315-.174 0-.316-.142-.316-.315 0-.173.143-.315.316-.315.171 0 .314.142.314.315"/><path d="m29.596 19.808c0 .173-.142.315-.314.315-.172 0-.315-.143-.315-.315 0-.173.142-.315.315-.315.172 0 .314.143.314.315"/><path d="m30.953 21.458c0 .173-.142.315-.315.315-.173 0-.316-.143-.316-.315 0-.172.143-.316.316-.316.172 0 .315.143.315.316"/><path d="m29.886 48.09c0 .173-.141.316-.314.316-.172 0-.314-.143-.314-.316 0-.173.142-.315.314-.315.172 0 .314.142.314.315"/><path d="m30.08 55.44c0 .213-.175.388-.388.388-.213 0-.388-.175-.388-.388 0-.212.175-.388.388-.388.213 0 .388.175.388.388"/><path d="m25.912 59.2c0 .173-.142.315-.314.315-.174 0-.316-.142-.316-.315 0-.173.142-.315.316-.315.172-.001.314.142.314.315"/><path d="m20.921 60.73c0 .212-.175.388-.387.388-.213 0-.389-.176-.389-.388 0-.213.175-.388.389-.388.212 0 .387.175.387.388"/><path d="m19.904 57.33c0 .212-.175.388-.387.388-.213 0-.388-.175-.388-.388 0-.212.175-.389.388-.389.212.001.387.177.387.389"/><path d="m19.323 59.49c0 .173-.142.316-.316.316-.172 0-.314-.142-.314-.316 0-.173.142-.315.314-.315.172 0 .316.142.316.315"/><path d="m15.591 57.698c0 .173-.142.315-.315.315-.173 0-.315-.142-.315-.315 0-.173.142-.315.315-.315.173 0 .315.142.315.315"/><path d="m28.626 63.762c0 .172-.142.315-.315.315-.172 0-.315-.143-.315-.315 0-.173.143-.316.315-.316.173 0 .315.143.315.316"/><path d="m32.552 60.876c0 .213-.175.388-.387.388-.213 0-.388-.174-.388-.388 0-.212.175-.389.388-.389.212 0 .387.176.387.389"/><path d="m32.988 64.59c0 .173-.142.316-.315.316-.172 0-.315-.143-.315-.316 0-.172.143-.315.315-.315.173 0 .315.142.315.315"/><path d="m49.13 61.05c0 .172-.142.314-.314.314-.174 0-.316-.142-.316-.314 0-.175.142-.315.316-.315.171 0 .314.14.314.315"/><path d="m41.613 63.714c0 .172-.142.314-.314.314-.173 0-.316-.142-.316-.314 0-.173.143-.316.316-.316.172 0 .314.143.314.316"/><path d="m61.821 67.55c0 .173-.142.315-.315.315-.172 0-.315-.142-.315-.315 0-.172.143-.316.315-.316.173 0 .315.143.315.316"/><path d="m63.47 52.628c0 .212-.175.388-.387.388-.213 0-.389-.175-.389-.388 0-.213.175-.389.389-.389.212 0 .387.176.387.389"/><path d="m60.37 54.739c0 .174-.141.315-.313.315-.173 0-.316-.141-.316-.315 0-.173.142-.316.316-.316.172-.001.313.143.313.316"/><path d="m63.42 55.34c0 .213-.176.389-.388.389-.213 0-.389-.176-.389-.389 0-.212.177-.388.389-.388.212-.001.388.175.388.388"/><path d="m60.37 59.1c0 .174-.141.316-.313.316-.173 0-.316-.142-.316-.316 0-.172.142-.315.316-.315.172 0 .313.143.313.315"/><path d="m68.27 50.52c0 .173-.142.315-.314.315-.172 0-.316-.142-.316-.315 0-.174.143-.315.316-.315.172 0 .314.141.314.315"/><path d="m69.04 52.43c0 .212-.174.389-.387.389-.213 0-.389-.176-.389-.389 0-.212.175-.388.389-.388.213 0 .387.175.387.388"/><path d="m74.47 54.715c0 .213-.176.388-.389.388-.213 0-.387-.174-.387-.388 0-.212.175-.388.387-.388.213 0 .389.175.389.388"/><path d="m68.944 58.765c0 .173-.143.315-.316.315-.172 0-.315-.142-.315-.315 0-.173.143-.315.315-.315.173 0 .316.142.316.315"/><path d="m72.43 55.47c0 .173-.142.315-.314.315-.173 0-.316-.142-.316-.315 0-.173.142-.315.316-.315.172-.001.314.142.314.315"/><path d="m71.804 60.56c0 .174-.143.316-.315.316-.172 0-.316-.142-.316-.316 0-.172.144-.315.316-.315.172 0 .315.143.315.315"/><path d="m73.27 52.09c0 .266-.219.485-.486.485-.266 0-.484-.219-.484-.485 0-.266.218-.485.484-.485.267 0 .486.219.486.485"/><path d="m72.78 50.614l-.14 1.335-1.32.141 1.33.15.147 1.382.145-1.382 1.308-.17-1.32-.121z"/><path d="m69.878 60.54c0 .266-.219.485-.486.485-.265 0-.484-.219-.484-.485 0-.267.219-.486.484-.486.266 0 .486.219.486.486"/><path d="m69.39 59.06l-.14 1.33-1.323.15 1.333.141.14 1.379.15-1.379 1.309-.171-1.319-.12z"/><path d="m33.727 20.463c0 .266-.219.485-.486.485-.266 0-.484-.219-.484-.485 0-.266.219-.485.484-.485.266 0 .486.219.486.485"/><path d="m33.24 18.984l-.14 1.334-1.323.145 1.333.146.14 1.383.149-1.383 1.309-.17-1.321-.121z"/><path d="m51.753 8.723c0 .266-.219.485-.485.485-.265 0-.484-.219-.484-.485 0-.266.22-.486.484-.486.266 0 .485.22.485.486"/><path d="m51.27 7.243l-.15 1.334-1.316.146 1.336.145.14 1.383.15-1.383 1.305-.17-1.325-.121z"/><path d="m29.85 68.3c0 .266-.218.485-.484.485-.266 0-.484-.219-.484-.485 0-.266.218-.486.484-.486.266 0 .484.22.484.486"/><path d="m29.365 66.819l-.145 1.331-1.32.15 1.33.14.148 1.387.145-1.387 1.309-.17-1.322-.12z"/></g><g fill="#ccc"><path d="m5.621 48.44c-2.116 1.038-4.01 2.063-5.621 3.064l.978.355c1.408-.867 3.097-1.773 4.875-2.571"/><path d="m16.794 68.04c-1.934 1.692-3.934 3.499-5.94 5.392l-.089 1.337c1.837-1.896 4.092-3.943 6.696-6.116"/></g></g></svg>