<svg xmlns="http://www.w3.org/2000/svg" viewBox="0 0 76 76" enable-background="new 0 0 76 76"><path d="m34.927 39.819c.08-.036.197-.105.266-.161l.244-.195c.182-.146.363-.291.543-.444 1.374-1.188 2.601-2.458 3.646-3.78.353-.447.357-1 .012-1.445-.401-.518-.801-1.038-1.2-1.558l-.999-1.298c-.327-.423-.289-.723-.131-1.043.442-.901.799-1.767 1.091-2.643.137-.406.359-.587.793-.644l3.738-.489c.379-.05.704-.335.825-.697.021-.064.043-.153.051-.22.252-2.086.256-4.213.012-6.318-.049-.437-.344-.933-1.029-1.016l-1.13-.146c-.845-.109-1.689-.218-2.531-.335-.458-.064-.602-.3-.682-.521-.346-.958-.747-1.923-1.188-2.866-.099-.211-.161-.477.119-.847.506-.668 1.018-1.331 1.528-1.994l.574-.745c.508-.659.509-1.151.011-1.809l-.107-.137c-.884-1.081-1.85-2.093-2.87-3.01-.289-.258-.587-.506-.885-.754l-.367-.306c-.539-.45-1.112-.32-1.469-.044-.716.555-1.434 1.106-2.152 1.657l-.751.576c-.331.256-.607.29-.958.122-.946-.454-1.839-.823-2.728-1.129-.367-.127-.54-.344-.597-.746-.062-.442-.118-.887-.175-1.33l-.321-2.45c-.06-.453-.418-.808-.871-.861-2.17-.259-4.353-.26-6.485-.001-.445.054-.8.398-.867.843l-.5 3.799c-.064.482-.292.627-.506.705-.967.354-1.944.759-2.903 1.203-.282.129-.52.101-.792-.102-.535-.396-1.062-.803-1.59-1.21l-1.493-1.147c-.438-.334-1.065-.25-1.399.188s-.251 1.066.188 1.401l1.484 1.14c.538.416 1.076.831 1.621 1.234.851.629 1.877.743 2.818.31.91-.422 1.836-.806 2.75-1.141 1.01-.367 1.649-1.189 1.8-2.315l.395-3c1.477-.132 2.976-.131 4.474.002l.218 1.663c.058.451.115.902.179 1.353.16 1.146.843 1.983 1.923 2.357.816.28 1.639.621 2.515 1.042 1.029.493 2.107.375 3.038-.339l.75-.576c.542-.416 1.084-.832 1.624-1.249.237.196.473.395.701.6.858.768 1.674 1.61 2.473 2.563l-.331.426c-.515.667-1.029 1.335-1.539 2.01-.674.89-.793 1.919-.336 2.898.417.889.793 1.797 1.119 2.699.368 1.018 1.178 1.663 2.282 1.818.85.119 1.701.229 2.553.338l.498.064c.133 1.488.133 2.983-.002 4.475l-2.967.388c-1.188.156-2.049.862-2.428 1.99-.264.792-.587 1.575-.989 2.395-.524 1.064-.402 2.183.345 3.146l.993 1.291c.268.349.535.696.804 1.044-.876 1.046-1.876 2.057-2.979 3.01-.061.052-.122.103-.184.153l-1.121-.862c-.454-.353-.909-.704-1.372-1.044-.877-.646-1.896-.746-2.865-.289-.841.398-1.737.769-2.666 1.103-1.03.372-1.683 1.197-1.836 2.327-.117.869-.23 1.739-.343 2.609l-.053.401c-1.482.131-2.982.131-4.475-.001l-.11-.849c-.092-.714-.185-1.428-.281-2.142-.156-1.167-.851-2.02-1.951-2.393-.937-.321-1.682-.629-2.348-.968-1.133-.577-2.275-.454-3.304.36-.562.444-1.13.88-1.698 1.315l-.56.431c-.711-.588-1.296-1.133-1.816-1.688-.397-.426-.78-.864-1.163-1.303l-.172-.195c.63-.81 1.258-1.621 1.873-2.443.655-.877.764-1.94.297-2.918-.399-.837-.764-1.716-1.081-2.613-.373-1.051-1.205-1.714-2.344-1.867-.867-.117-1.735-.229-2.603-.343l-.402-.05c-.134-1.476-.134-2.975-.001-4.474l1.304-.17c.569-.073 1.14-.147 1.708-.226 1.145-.157 1.981-.839 2.356-1.919.309-.886.646-1.698 1.029-2.483.515-1.056.387-2.167-.362-3.129-.54-.695-1.075-1.395-1.611-2.094l-.189-.245c.208-.247.493-.563.829-.917l9.197 9.197c-.914 1.214-1.416 2.68-1.416 4.226 0 1.885.734 3.656 2.067 4.988 1.332 1.333 3.104 2.067 4.988 2.067s3.656-.734 4.988-2.067c1.333-1.332 2.067-3.104 2.067-4.988s-.734-3.656-2.067-4.988c-1.332-1.333-3.104-2.067-4.988-2.067-1.546 0-3.01.502-4.226 1.415l-10.07-10.07c-.05-.05-.118-.069-.197-.065-.356-.137-.774-.066-1.061.22-.528.527-1.803 1.827-2.223 2.545-.163.279-.174.635-.041.93.032.069.087.161.133.222l.62.81c.539.703 1.077 1.405 1.62 2.105.329.423.296.717.145 1.027-.419.856-.785 1.741-1.12 2.703-.129.369-.344.542-.744.597-.564.078-1.128.151-1.691.225l-2.09.271c-.452.06-.808.419-.861.873-.258 2.173-.257 4.355.003 6.485.055.444.398.798.841.865l1.207.16c.864.113 1.729.226 2.594.342.396.054.607.214.728.555.342.964.732 1.908 1.162 2.808.15.314.122.572-.095.862-.735.982-1.488 1.95-2.239 2.913-.384.487-.367 1.1.043 1.562l.591.673c.398.456.796.911 1.21 1.354.695.742 1.484 1.458 2.491 2.259.552.46 1.13.322 1.482.046l1.074-.827c.576-.442 1.151-.884 1.722-1.334.474-.375.793-.334 1.159-.147.751.383 1.579.725 2.607 1.077.384.132.563.354.619.771.096.711.188 1.421.28 2.132l.213 1.632c.06.453.418.809.872.862 1.082.129 2.169.193 3.254.193 1.081 0 2.161-.064 3.229-.192.446-.054.814-.489.882-.933l.146-1.114c.112-.867.226-1.734.342-2.599.065-.485.308-.634.534-.716.988-.355 1.944-.751 2.843-1.177.302-.143.548-.113.83.094.449.33.891.672 1.332 1.014l1.736 1.336c.29.22.702.256 1.038.107m-16.423-21.315c.934-.934 2.176-1.448 3.496-1.448s2.562.515 3.496 1.448 1.448 2.176 1.448 3.496-.515 2.562-1.448 3.496-2.176 1.448-3.496 1.448-2.562-.515-3.496-1.448-1.448-2.176-1.448-3.496.514-2.562 1.448-3.496"/><path d="m75.51 58.57l-3.337-1.883c-.423-.24-.472-.505-.465-.733.033-1.029.023-2.087-.031-3.143-.014-.31.101-.519.39-.697.567-.349 1.142-.686 1.716-1.023l1.622-.956c.474-.282.63-.895.348-1.369-.282-.474-.894-.63-1.368-.348l-1.612.951c-.587.344-1.173.688-1.751 1.043-.901.554-1.391 1.463-1.34 2.499.051 1 .062 2 .031 2.977-.037 1.074.487 1.974 1.475 2.534l2.64 1.489c-.429 1.419-.99 2.809-1.673 4.149l-1.624-.419c-.44-.115-.88-.23-1.321-.34-1.123-.28-2.155.041-2.905.903-.565.653-1.188 1.288-1.906 1.943-.842.771-1.135 1.815-.821 2.945l.254.911c.183.658.367 1.316.552 1.973-.271.147-.543.291-.818.426-1.033.509-2.119.951-3.302 1.336l-.273-.465c-.427-.727-.854-1.453-1.287-2.178-.574-.957-1.484-1.452-2.563-1.394-.98.055-1.963.064-2.922.03-1.081-.039-1.983.471-2.539 1.438-.428.744-.847 1.493-1.267 2.242l-.246.438c-1.43-.433-2.817-.991-4.15-1.673l.749-2.897c.299-1.16-.034-2.223-.939-2.995-.636-.54-1.242-1.133-1.852-1.812-.792-.884-1.874-1.189-3.047-.856l-1.569.439c-.423.118-.846.236-1.269.356-.643-1.203-1.207-2.508-1.678-3.887-.025-.076-.05-.151-.074-.228l1.219-.718c.497-.29.993-.58 1.481-.883.926-.572 1.4-1.48 1.338-2.55-.055-.929-.064-1.899-.027-2.885.04-1.095-.482-2.01-1.473-2.572-.762-.433-1.527-.864-2.292-1.293l-.353-.199c.433-1.424.993-2.815 1.673-4.15l.828.215c.697.182 1.393.362 2.092.539 1.141.291 2.188-.036 2.948-.916.648-.749 1.211-1.325 1.775-1.816.958-.835 1.271-1.941.9-3.199-.202-.687-.394-1.377-.586-2.067l-.19-.68c.811-.44 1.535-.779 2.244-1.055.543-.21 1.093-.401 1.643-.592l.245-.086c.516.887 1.034 1.772 1.567 2.65.569.935 1.515 1.433 2.596 1.365.926-.058 1.877-.067 2.828-.027 1.114.047 2.04-.478 2.608-1.477.433-.761.861-1.524 1.29-2.286l.2-.355c1.419.427 2.809.987 4.15 1.67l-.329 1.273c-.145.555-.289 1.112-.429 1.669-.282 1.12.038 2.151.9 2.903.706.617 1.334 1.233 1.919 1.883.787.872 1.866 1.168 3.038.833.847-.241 1.695-.476 2.544-.713l.299-.083c.151.285.338.668.541 1.112l-11.968 5.096c-.784-1.301-1.957-2.314-3.391-2.892-1.748-.704-3.666-.685-5.399.054-1.734.738-3.077 2.107-3.781 3.855s-.685 3.666.054 5.399c.738 1.734 2.106 3.077 3.855 3.781 1.748.704 3.666.685 5.399-.054 1.734-.738 3.077-2.107 3.781-3.855.578-1.434.66-2.982.266-4.449l13.1-5.577c.065-.028.108-.084.134-.158.26-.28.35-.694.192-1.067-.291-.687-1.021-2.356-1.53-3.01-.198-.256-.524-.398-.847-.385-.076.004-.182.02-.255.04l-.982.273c-.854.237-1.706.474-2.558.716-.515.147-.775.007-1.01-.25-.638-.709-1.322-1.379-2.089-2.049-.294-.258-.374-.521-.275-.913.138-.553.281-1.103.423-1.653l.529-2.04c.114-.442-.087-.906-.488-1.125-1.919-1.051-3.944-1.865-6.02-2.42-.432-.115-.889.072-1.117.457l-.599 1.06c-.428.759-.855 1.52-1.286 2.278-.198.348-.425.484-.786.468-1.022-.043-2.044-.033-3.039.029-.348.022-.576-.101-.764-.41-.637-1.049-1.253-2.109-1.866-3.165-.309-.538-.883-.751-1.464-.543l-.847.296c-.572.199-1.143.398-1.708.617-.948.368-1.907.832-3.03 1.467-.633.34-.721.928-.596 1.358l.366 1.305c.195.7.39 1.398.594 2.095.171.579.013.86-.296 1.13-.635.554-1.262 1.194-1.973 2.02-.266.307-.539.39-.946.286-.695-.177-1.388-.357-2.082-.536l-1.593-.412c-.443-.114-.906.086-1.126.487-.524.956-.99 1.94-1.395 2.946-.404 1-.748 2.029-1.028 3.068-.117.434.15.938.536 1.166l.979.552c.762.428 1.524.857 2.283 1.288.426.242.473.522.464.763-.039 1.049-.03 2.084.03 3.077.02.333-.1.55-.397.735-.474.293-.956.575-1.438.857l-1.888 1.112c-.314.186-.501.555-.489.922.004.088.024.222.05.307l.09.299c.067.223.134.446.209.67.588 1.718 1.309 3.331 2.145 4.795.283.494.796.706 1.336.551.63-.179 1.262-.355 1.893-.531l1.577-.442c.514-.146.778.002 1.016.268.671.747 1.34 1.401 2.044 1.999.326.279.41.553.301.976l-.943 3.65c-.095.37.048.778.338 1.026.052.044.126.097.185.129 1.841 1.013 3.812 1.811 5.857 2.371.423.118.993.03 1.327-.575l.557-.994c.417-.743.833-1.486 1.256-2.223.231-.401.503-.446.738-.438 1.019.038 2.063.027 3.103-.03.232-.013.502.029.741.427.431.719.855 1.441 1.279 2.163l.477.811c.422.717.878.902 1.674.686l.167-.049c1.333-.416 2.632-.934 3.861-1.539.347-.172.688-.355 1.03-.539l.421-.226c.619-.332.713-.912.59-1.346-.247-.871-.491-1.743-.733-2.616l-.257-.912c-.114-.403-.042-.672.245-.934.775-.708 1.451-1.398 2.066-2.108.255-.293.521-.372.915-.275.434.108.867.222 1.299.335l2.393.617c.443.114.905-.086 1.125-.486 1.051-1.916 1.867-3.94 2.424-6.02.115-.435-.072-.892-.459-1.121m-16.394-2.168c-.493 1.225-1.435 2.185-2.649 2.702-1.215.517-2.559.531-3.784.037-1.225-.493-2.185-1.435-2.702-2.649-.517-1.215-.531-2.559-.037-3.784.493-1.225 1.435-2.185 2.649-2.702 1.215-.517 2.559-.531 3.784-.037 1.225.493 2.185 1.435 2.702 2.649.517 1.215.53 2.56.037 3.784"/></svg>