<?xml version="1.0" encoding="utf-8"?>
<!-- Generator: Adobe Illustrator 19.2.0, SVG Export Plug-In . SVG Version: 6.00 Build 0)  -->
<svg version="1.1" id="Layer_1" xmlns="http://www.w3.org/2000/svg" xmlns:xlink="http://www.w3.org/1999/xlink" x="0px" y="0px"
	 viewBox="0 0 76.1 51.3" style="enable-background:new 0 0 76.1 51.3;" xml:space="preserve">
<g>
	<path d="M76,32.7c-1.4,1.2-2.4,2.8-3.9,3.8c-0.5,0.3-0.3,0.9-0.4,1.4c-0.2,1.6-1.2,2.8-2.8,3.1c-1.6,0.3-2.9-0.3-3.7-1.7
		c-0.8-1.4-0.6-2.8,0.4-4s2.7-1.4,4.1-0.8c0.5,0.2,0.9,1,1.6,0.4c1-0.9,2.3-1.6,2.6-3c0.2-0.9-0.7-1.4-1.6-1.6
		c-1.8-0.4-3.6-0.7-5.2-1.7c-0.3-0.2-0.6-0.1-0.9,0.1c-2.7,1.2-5.4,1.2-8.1,0c-0.4-0.2-0.7-0.3-1.1,0c-1.6,0.9-3.3,1.2-5.1,1.6
		c-0.6,0.1-1.4,0.3-1.4,1c0,0.8,0.9,0.7,1.4,0.8c1.5,0.4,3,0.7,4.5,1.1c2.5,0.7,3.6,2.6,4.3,4.9c0.2,0.8-0.3,1.3-0.6,1.8
		C52.9,50,39.4,54,27.7,49.4c-1.1-0.4-1.9-0.6-3.1,0.1c-2.1,1.2-4.8,0.4-6.3-1.5s-1.4-4.8,0.1-6.6c1.6-1.8,4.2-2.3,6.4-1.2
		s3.3,3.5,2.6,5.9c-0.4,1.2,0.1,1.5,1,1.9c10.3,3.9,22.4,0.7,29.3-7.9c1.5-1.8,1-3.7-1.1-4.8c-1.1-0.5-2.2-0.7-3.4-0.9
		c-2.5-0.5-4.9-1.1-7-2.5c-0.5-0.3-0.8-0.4-1.5-0.1c-4.8,2.5-9.6,2.5-14.3,0c-0.4-0.2-0.7-0.4-1.2-0.1c-2.6,1.8-5.6,2.4-8.6,2.9
		c-2.2,0.4-3.8,1.5-4.3,3.8c-0.2,0.7-0.4,1.3-1.2,1.1s-0.6-0.9-0.5-1.5c0.7-2.7,2.4-4.3,5.1-4.9c1.5-0.3,2.9-0.6,4.4-1
		C24.5,32,25,32,25,31.5c0-0.4-0.4-0.7-0.7-0.8c-1.2-0.3-2.4-0.5-3.5-1c-1.7-0.8-3.3-0.9-5.2-0.3c-1.9,0.6-4,0.4-5.9-0.4
		c-0.3-0.1-0.7-0.6-1.1-0.3C7,29.4,4.9,29.6,3,30.3c-1.4,0.5-1.5,1.4-0.5,2.5c0.4,0.4,0.8,0.8,1.2,1.2c0.7,0.8,1.3,1.1,2.4,0.4
		c1.2-0.9,2.9-0.5,3.9,0.7c1.1,1.2,1.2,2.6,0.5,4c-0.8,1.4-2,2-3.6,1.8s-2.8-1.5-2.8-3.1c0-1-0.5-1.5-1.1-2
		c-0.8-0.6-1.5-1.4-2.1-2.1c-1.5-1.8-1-4.1,1.2-5c2.3-0.9,4.9-1,7-2.6c0.3-0.2,0.6,0,0.9,0.2c2.5,1.8,5,1.8,7.3,0
		c0.5-0.4,0.9-0.3,1.4,0c1.4,1.1,3.1,1.5,4.8,1.9c1.4,0.2,2.6,0.7,3.4,1.9c0.3,0.6,0.7,0.4,1.1,0.2c0.5-0.3,1-0.6,1.4-0.9
		c0.9-0.7,1.5-1,2.2,0.3c0.6,1,1.8,1.2,2.9,1.4c2.6,0.5,5.2,0.5,7.8-0.2c0.9-0.2,1.8-0.5,2.2-1.5c0.3-0.7,0.9-0.7,1.5-0.3
		c0.5,0.3,0.9,0.6,1.4,0.9c0.8,0.6,1.5,0.8,2.1-0.3c0.5-0.8,1.4-1.2,2.4-1.4c1.9-0.4,3.8-0.8,5.4-2c0.4-0.3,0.9-0.3,1.3,0.1
		c2.1,1.7,5.2,1.8,7.2,0c0.6-0.5,1-0.4,1.5,0c1.3,1,2.8,1.5,4.5,1.7c2,0.3,3.5,1.3,4.3,3.2C76,31.8,76,32.2,76,32.7z M19.1,44.6
		c0,1.9,1.6,3.4,3.5,3.4c1.5,0,3.4-2,3.4-3.5c0-1.9-1.6-3.5-3.5-3.5C20.7,41.1,19.1,42.7,19.1,44.6z M9.2,37.4
		c-0.1-1-0.7-1.6-1.7-1.6c-1.1,0-1.7,0.7-1.7,1.8c0.1,1.1,0.8,1.6,1.8,1.6C8.6,39.1,9.2,38.5,9.2,37.4z M70,37.2
		c-0.1-0.9-0.7-1.5-1.7-1.5c-1.1,0-1.7,0.7-1.6,1.9c0.1,1.1,0.8,1.6,1.8,1.5C69.4,39.1,70,38.5,70,37.2z"/>
	<path d="M26.1,12.8c0.1-0.8,0.1-1.9,0.3-2.9c1.6-8.5,10.5-12.5,18-8.1c2.9,1.7,4.2,4.4,4.8,7.5c1.1,5.6,0,10.8-3.1,15.5
		c-4.4,6.7-12.6,6.6-16.9-0.2C27.1,21,26.1,17.1,26.1,12.8z M27.8,13c0.1,4,1,7.8,3.4,11.1c3.5,4.9,9.5,5,13,0.1
		c3.4-4.7,4.4-10,2.9-15.7c-0.6-2.5-2-4.5-4.4-5.6C36-0.3,29.2,3.2,28,10.6C27.9,11.4,27.9,12.2,27.8,13z"/>
	<path d="M6.4,16.6c0.1-7.1,4-10.2,9.6-8.7c3,0.8,4.3,3,4.7,5.8c0.5,3.3-0.2,6.4-2.2,9.2c-2.5,3.5-7.2,3.6-9.8,0.1
		C7.2,20.8,6.4,18.3,6.4,16.6z M8.1,15.5c0,2,0.7,4.4,1.8,6c2.1,3.1,5.6,3.1,7.6-0.2c1.5-2.5,2.1-5.3,1.3-8.2
		c-0.5-1.8-1.5-3.1-3.5-3.6C10.9,8.5,8.2,10.7,8.1,15.5z"/>
	<path d="M69.4,15.6c0,2.7-0.8,5.2-2.4,7.4c-2.6,3.5-7.2,3.4-9.8-0.1c-2.1-2.9-2.8-6.3-2-9.8c0.9-3.9,3.5-5.7,7.7-5.5
		c3.6,0.2,6,2.5,6.4,6.3C69.4,14.4,69.4,15,69.4,15.6z M67.7,15.5c0-0.8-0.1-1.7-0.3-2.5c-0.7-2.4-2.1-3.6-4.9-3.7
		c-2.7-0.1-4.6,1-5.3,3.3C56.1,16,56.8,19.2,59,22c1.8,2.3,4.6,2.3,6.5,0.1C67,20.2,67.6,18,67.7,15.5z"/>
</g>
</svg>
