<svg xmlns="http://www.w3.org/2000/svg" viewBox="0 0 106 76" enable-background="new 0 0 106 76"><path d="m53.01 40c3.414 0 6.45-1.308 9.02-3.887 5.231-5.244 6.976-14.13 6.968-17.377-.029-12.608-5.261-18.736-15.992-18.736-4.87 0-8.719 1.413-11.439 4.198-3.132 3.206-4.708 8.242-4.559 14.563.05 2.126.789 7.428 3.229 12.271 2.954 5.867 7.37 8.968 12.769 8.968m-10.01-34.404c2.33-2.387 5.697-3.596 10.01-3.596 9.519 0 13.966 5.319 13.992 16.741.008 3.326-1.856 11.421-6.384 15.959-2.185 2.189-4.744 3.3-7.608 3.3-11.135 0-13.908-15.459-13.998-19.285-.096-4.03.519-9.567 3.989-13.12"/><path d="m87.08 36.521c2.135 0 4.03-.815 5.633-2.422 3.19-3.197 4.254-8.61 4.25-10.589-.019-7.637-3.344-11.51-9.883-11.51-2.999 0-5.377.878-7.07 2.61-1.934 1.98-2.908 5.067-2.817 8.926.064 2.743 1.93 12.985 9.885 12.985m-5.638-20.514c1.301-1.332 3.198-2.01 5.638-2.01 5.436 0 7.866 2.935 7.883 9.515.004 1.854-1.099 6.6-3.665 9.172-1.215 1.217-2.634 1.834-4.218 1.834-6.271 0-7.835-8.843-7.886-11.03-.054-2.307.291-5.478 2.248-7.482"/><path d="m19.526 36.521c7.955 0 9.821-10.243 9.886-12.985.091-3.859-.884-6.946-2.817-8.926-1.692-1.732-4.07-2.61-7.07-2.61-6.539 0-9.864 3.873-9.883 11.51-.004 1.979 1.06 7.392 4.25 10.589 1.604 1.608 3.499 2.422 5.633 2.422m0-22.521c2.44 0 4.337.675 5.638 2.01 1.957 2 2.303 5.174 2.248 7.482-.051 2.189-1.615 11.03-7.886 11.03-1.584 0-3-.617-4.218-1.834-2.566-2.572-3.669-7.318-3.665-9.172.017-6.58 2.448-9.515 7.883-9.515"/><path d="m105.99 44.609c-.946-3.978-3.306-4.432-5.805-4.913-1.914-.369-4.084-.786-6.596-2.708-.299-.229-.698-.289-1.036-.126-.339.162-.556.482-.565.858-.143.361-1.833 1.268-4.978 1.268-3.146 0-4.837-.907-4.974-1.232-.011-.375-.229-.714-.569-.876-.339-.162-.74-.121-1.038.108-2.512 1.922-4.682 2.339-6.596 2.708-2.221.427-4.331.84-5.438 3.723-1.384-.644-2.832-1.489-4.335-2.639-.298-.229-.698-.27-1.039-.108-.339.162-.559.501-.568.877-.028 1.122-3.739 2.818-9.268 2.818-5.529 0-9.241-1.697-9.271-2.819-.01-.376-.229-.714-.569-.876-.338-.162-.739-.121-1.038.108-1.449 1.109-2.848 1.935-4.187 2.57-1.113-2.823-3.208-3.23-5.413-3.654-1.915-.369-4.084-.786-6.596-2.708-.299-.229-.697-.288-1.035-.126-.34.162-.557.482-.566.858-.143.361-1.833 1.268-4.979 1.268-3.145 0-4.835-.907-4.972-1.231-.01-.376-.229-.715-.568-.877-.341-.162-.74-.121-1.039.108-2.512 1.922-4.682 2.34-6.596 2.708-2.499.481-4.858.935-5.805 4.913-.064.272-.013.559.144.79 1.382 2.052 3.738 4.323 6.351 6.151-.012.151-.044.296-.044.45 0 2.757 2.243 5 5 5s5-2.243 5-5-2.243-5-5-5c-1.861 0-3.468 1.034-4.329 2.546-2.055-1.506-3.882-3.271-5.062-4.899.671-2.321 1.866-2.551 4.125-2.986 1.802-.347 3.997-.77 6.491-2.414 1.2 1.188 3.831 1.742 6.306 1.742 2.476 0 5.106-.554 6.307-1.742 2.495 1.645 4.689 2.067 6.492 2.414 2.075.399 3.253.628 3.951 2.464-2.054.759-3.942 1.126-5.615 1.447-4.237.816-7.897 1.52-9.417 7.908-.128.537.204 1.077.741 1.204.538.127 1.077-.203 1.204-.741 1.221-5.131 3.716-5.611 7.85-6.407 3.158-.608 7.03-1.353 11.42-4.396 1.557 2.125 6.177 3.227 10.722 3.227 4.544 0 9.163-1.103 10.719-3.227 4.391 3.042 8.264 3.789 11.421 4.396 4.02.773 6.486 1.249 7.743 5.985-6.621 9.774-14.973 20.09-29.909 20.469-5.421.134-11.179-1.177-16.285-3.684.079-.424.125-.859.125-1.306 0-3.86-3.141-7-7-7s-7 3.14-7 7 3.141 7 7 7c2.704 0 5.05-1.544 6.215-3.794 5.078 2.453 10.757 3.794 16.17 3.794.274 0 .55-.004.823-.011 16.08-.405 24.826-11.423 31.767-21.719.156-.232.208-.519.144-.791-1.521-6.387-5.18-7.092-9.417-7.907-1.632-.314-3.468-.67-5.465-1.392.695-1.889 1.876-2.117 3.973-2.521 1.803-.347 3.997-.769 6.492-2.414 1.2 1.188 3.831 1.742 6.307 1.742 2.475 0 5.105-.554 6.306-1.742 2.494 1.645 4.689 2.067 6.491 2.414 2.258.435 3.453.665 4.124 2.981-1.438 1.909-4.03 3.828-5.594 4.916-.861-1.517-2.472-2.556-4.337-2.556-2.757 0-5 2.243-5 5s2.243 5 5 5 5-2.243 5-5c0-.151-.031-.294-.045-.442 2.29-1.564 5.304-3.805 6.889-6.159.157-.231.209-.518.144-.79m-93.99 4.391c1.654 0 3 1.346 3 3s-1.346 3-3 3-3-1.346-3-3 1.346-3 3-3m18 25c-2.757 0-5-2.243-5-5s2.243-5 5-5 5 2.243 5 5-2.243 5-5 5m64-19c-1.654 0-3-1.346-3-3s1.346-3 3-3 3 1.346 3 3-1.346 3-3 3"/></svg>