<svg xmlns="http://www.w3.org/2000/svg" viewBox="0 0 76 76" enable-background="new 0 0 76 76"><path d="m71 66c-2.415 0-4.434 1.721-4.899 4h-60.1v-23c0-.035-.016-.065-.02-.099 2.289-.457 4.02-2.48 4.02-4.901 0-.338-.036-.667-.1-.986 1.308-.889 4.648-3.839 14.275-13.643l17.77 15.385c.189.163.422.244.655.244.27 0 .539-.109.736-.323l17.937-19.496c.786.514 1.72.819 2.727.819 2.757 0 5-2.243 5-5s-2.243-5-5-5-5 2.243-5 5c0 1.027.313 1.982.846 2.777l-17.325 18.832-17.747-15.365c-.399-.347-.998-.322-1.368.056-5.788 5.906-12.383 12.385-14.293 13.868-.725-1.05-1.839-1.811-3.134-2.07.005-.033.021-.063.021-.098v-36c0-.552-.447-1-1-1s-1 .448-1 1v36c0 .035.017.065.02.099-2.289.457-4.02 2.48-4.02 4.901s1.731 4.444 4.02 4.901c-.003.034-.02.064-.02.099v24c0 .552.447 1 1 1h61.1c.465 2.279 2.484 4 4.899 4 2.757 0 5-2.243 5-5s-2.243-5-5-5m-7-50c1.654 0 3 1.346 3 3s-1.346 3-3 3-3-1.346-3-3 1.346-3 3-3m-62 26c0-1.654 1.346-3 3-3s3 1.346 3 3-1.346 3-3 3-3-1.346-3-3m69 32c-1.654 0-3-1.346-3-3s1.346-3 3-3 3 1.346 3 3-1.346 3-3 3"/></svg>