<?xml version="1.0" encoding="utf-8"?>
<!-- Generator: Adobe Illustrator 19.2.0, SVG Export Plug-In . SVG Version: 6.00 Build 0)  -->
<svg version="1.1" id="Layer_1" xmlns="http://www.w3.org/2000/svg" xmlns:xlink="http://www.w3.org/1999/xlink" x="0px" y="0px"
	 viewBox="0 0 440 399" style="enable-background:new 0 0 440 399;" xml:space="preserve">
<style type="text/css">
	.st0{fill:none;stroke:#000000;stroke-width:2;stroke-linecap:round;stroke-linejoin:round;stroke-miterlimit:10;}
</style>
<g>
	<path d="M0,286c0-84,0-168,0-252c0.6-1.7,1.3-3.4,1.8-5.1c4-12.1,12.1-20.4,23.5-25.6C28.1,2,31.1,1.1,34,0c124.3,0,248.7,0,373,0
		c1.3,1.5,3.3,1.3,5,1.8c10.3,3.4,18.3,9.7,23.8,19c1.6,2.6,2.8,5.5,4.2,8.2c0,87,0,174,0,261c-0.4,0.7-0.8,1.4-1.1,2.1
		c-6,15.2-17,24.5-33,27.3c-5,0.9-10.3,0.1-15.1,0.1c-11.1,29-26.4,40.7-52.2,40.4c-9.8-0.1-18.6-3.4-26.5-9.1
		c-11-7.9-17.6-18.7-20.5-31.6c-20.3,0-40.2,0-60.3,0c0,20,0,39.7,0,59.7c16.5,0,32.6,0,48.7,0c7.2,0,10.9,3.4,10.9,9.9
		c0,6.5-3.7,10-10.9,10c-39.5,0-79,0-118.5,0c-7.1,0-10.8-3.6-10.7-10.2c0.1-6.3,3.8-9.8,10.6-9.8c14.5,0,29,0,43.5,0
		c1.8,0,3.6,0.5,5.3-0.5c0-19.8,0-39.5,0-59.4c-2.4,0-4.4,0-6.4,0c-54.3,0-108.6,0-162.9,0c-17.9,0-33.7-11.6-39.3-28.5
		C1.3,289,1.5,287.1,0,286z M391.3,298.7c18.4,2.1,31.2-5.5,31-28.3C421.6,196,422,121.5,422,47c0-2,0-4-0.1-6
		c-0.3-7.2-3.7-12.7-9.4-16.8c-5.1-3.7-11-4.2-17.1-4.2c-95,0-190,0-285,0c-21.7,0-43.3-0.1-65,0C29.5,20.1,21.1,28.6,21,44.5
		c-0.1,11.7-0.2,23.3-0.2,35c0,65.5,0.1,131,0.2,196.5c0,14.9,9.1,23.9,24,23.9c47.5-0.2,95-0.5,142.5-0.6
		c33.5-0.1,67-0.1,100.5-0.2c1.5,0,3,0,4.3,0c11.7-29.3,27.5-41.2,53.5-39.9C362.4,259.9,383.9,270.8,391.3,298.7z M341,280.2
		c-16.8,0-29.8,13-29.8,29.7c0,17,13,30,30.1,30c16.7-0.1,29.6-13.2,29.5-30C370.8,293.1,357.8,280.2,341,280.2z"/>
	<path d="M121.5,154.7c8.9-8.5,17.5-16.7,26.2-25c3.1-3,6.3-6,9.2-9.2c2.9-3.3,5.4-3.4,8.8-0.3c13.8,12.3,27.8,24.4,41.7,36.6
		c0.7,0.7,1.5,1.3,2.8,2.3c6.1-6.8,12.2-13.5,18.5-20.4c-2.3-3.6-4.7-7-4.2-11.4c0.9-7.3,7.4-12.7,14.7-12
		c7.3,0.7,12.6,6.7,12.3,13.9c-0.3,7.3-6.4,13.2-14,12.6c-3.4-0.2-5.1,1-7.1,3.2c-5.3,6-10.8,11.8-16,17.8c-2.7,3.1-4.7,3.3-7.8,0.5
		c-14.9-13-30-25.9-45.2-39c-8.7,8.4-17.3,16.7-25.9,25c-1.7,1.6-3.3,3.3-5.1,4.8c-3.8,3.2-7.5,6-7.5,11.9c0,3.9-3.4,6.7-7.2,8.3
		c-1.8,0.8-3.1,1.5-3,3.9c0.1,18.2,0,36.3,0,54.2c1.8,1.8,3.7,1.2,5.5,1.2c64.7,0,129.3,0,194,0.1c3.4,0,5.3-0.9,7-4
		c3-5.7,9.4-7.9,15.4-6.1c6.3,1.9,10,6.9,9.8,13.4c-0.2,5.6-4.2,10.8-9.5,12.1c-6.7,1.7-13.2-0.8-15.9-7.1c-1.5-3.5-3.8-3-6.4-3
		c-65.7,0-131.3,0-197,0c-7.9,0-7.9,0-7.9-7.8c0-16.8,0-33.7,0.1-50.5c0-3.2-0.4-5.4-3.9-6.9c-4.8-2.1-6.9-6.4-6.8-11.8
		c0.1-5.2,2.4-9.2,7-11.2c3.3-1.4,3.7-3.5,3.7-6.5c-0.1-22.5,0-45,0-67.5c0-1.3,0-2.7,0.1-4c0.1-1.7,0.8-2.8,2.8-2.8
		c2,0.1,2.5,1.3,2.5,3c0,1.2,0,2.3,0,3.5c0,22,0.1,44-0.1,66c0,4.3,0.1,7.8,5,9.3C118.9,152.1,119.8,153.3,121.5,154.7z
		 M245.4,128.1c0.1-4.2-3.7-8-7.9-8.1c-4.1-0.1-8.2,3.7-8.3,7.8c-0.1,4,3.8,7.9,8,8C241.6,135.9,245.4,132.4,245.4,128.1z
		 M118.1,162.2c0-4.2-3.7-7.9-8-7.9c-4.3,0-8.1,3.7-8.1,7.9c0,4.4,3.5,7.9,8,7.8C114.5,169.9,118.1,166.4,118.1,162.2z M338.4,236.5
		c0.1-4.2-3.5-7.9-7.9-7.9c-4.3-0.1-8.2,3.5-8.3,7.6c-0.1,4.2,3.6,7.8,7.9,7.9C334.5,244.2,338.3,240.7,338.4,236.5z"/>
	<path class="st0" d="M319,236.5c4.6,9.9,6.4,11,15.5,9.5"/>
	<path class="st0" d="M120.5,157.5c-1.8-1.2-2.9-3-4.9-4.2c-4.1-2.3-7.8-2.7-11.6,0.2"/>
	<path class="st0" d="M103.5,154c-6.8,5.4-4.8,14.7,2.5,18c5.7,2.6,14.4-1.3,14.2-7.5c-0.1-5.9,2.9-8.4,6.8-11"/>
	<path class="st0" d="M186.5,142c7.7,6.8,15.4,13.6,23,20.4c2.6-0.9,3.9-2.6,5-4.4"/>
	<path class="st0" d="M248,128.5c0.4-5.6-2.5-8.8-7.5-10.5c-4.5-1.5-8,0.3-11,3.5c-3.6,3.8-4,8.1-1,12.5"/>
	<path class="st0" d="M234,138.2c0.8,0.2,1.7,0.5,2.5,0.8"/>
</g>
</svg>
