<svg viewBox="0 0 76 75.44" xmlns="http://www.w3.org/2000/svg"><path d="m69.42 0h-62.84a6.83 6.83 0 0 0-6.58 6.89v57c0 3.77 3.07 7.11 6.58 7.11h3.68a5.93 5.93 0 0 0 11.48 0h47.68c3.5 0 6.58-3.34 6.58-7.14v-57a6.83 6.83 0 0 0-6.58-6.86zm-53.42 73.56a4.06 4.06 0 0 1-4-3.56s0 0 0 0a .94.94 0 0 0 0-.12c0-.13 0-.25 0-.38a4.06 4.06 0 0 1 8.13 0c0 .13 0 .25 0 .38a.94.94 0 0 0-.13.12s0 0 0 0a4.06 4.06 0 0 1-4 3.56zm58-9.71c0 2.7-2.18 5.15-4.58 5.15h-47.51a5.93 5.93 0 0 0-11.82 0h-3.51c-2.4 0-4.58-2.45-4.58-5.14v-53.86h54.15a4 4 0 1 0  .11-2h-54.26v-1.11a4.81 4.81 0 0 1 4.58-4.89h62.84a4.81 4.81 0 0 1 4.58 4.89zm-16-55a2.06 2.06 0 1 1 0 .42 1 1 0 0 0  0-.27.94.94 0 0 0  0-.15z"/><path d="m22 19h-15a1 1 0 0 0-1 1v8a1 1 0 0 0 1 1h15a1 1 0 0 0 1-1v-8a1 1 0 0 0-1-1zm-1 8h-13v-6h13z"/><path d="m22 33h-15a1 1 0 0 0-1 1v8a1 1 0 0 0 1 1h15a1 1 0 0 0 1-1v-8a1 1 0 0 0-1-1zm-1 8h-13v-6h13z"/><path d="m22 47h-15a1 1 0 0 0-1 1v7a1 1 0 0 0 1 1h15a1 1 0 0 0 1-1v-7a1 1 0 0 0-1-1zm-1 7h-13v-5h13z"/><path d="m69 19h-15a1 1 0 0 0-1 1v8a1 1 0 0 0 1 1h15a1 1 0 0 0 1-1v-8a1 1 0 0 0-1-1zm-1 8h-13v-6h13z"/><path d="m69 33h-15a1 1 0 0 0-1 1v8a1 1 0 0 0 1 1h15a1 1 0 0 0 1-1v-8a1 1 0 0 0-1-1zm-1 8h-13v-6h13z"/><path d="m69 47h-15a1 1 0 0 0-1 1v7a1 1 0 0 0 1 1h15a1 1 0 0 0 1-1v-7a1 1 0 0 0-1-1zm-1 7h-13v-5h13z"/><path d="m46 19h-15a1 1 0 0 0-1 1v8a1 1 0 0 0 1 1h15a1 1 0 0 0 1-1v-8a1 1 0 0 0-1-1zm-1 8h-13v-6h13z"/><path d="m46 33h-15a1 1 0 0 0-1 1v8a1 1 0 0 0 1 1h15a1 1 0 0 0 1-1v-8a1 1 0 0 0-1-1zm-1 8h-13v-6h13z"/><path d="m46 47h-15a1 1 0 0 0-1 1v7a1 1 0 0 0 1 1h15a1 1 0 0 0 1-1v-7a1 1 0 0 0-1-1zm-1 7h-13v-5h13z"/></svg>