<svg viewBox="0 0 76 76" xmlns="http://www.w3.org/2000/svg"><path d="m65 54a11 11 0 0 0-6.94 2.47l-15.44-15.1a5.89 5.89 0 0 0  .47-5.87l18.45-11.14a8.09 8.09 0 1 0-1.08-1.68l-18.46 11.17a6 6 0 0 0-3-1.7v-14.25a5 5 0 1 0-2 0v14.1a6 6 0 0 0-2.81 1.09l-15-14.71a11 11 0 1 0-1.48 1.35l15.07 14.82a5.78 5.78 0 0 0-.8 5.33l-17.61 10.63a7.88 7.88 0 1 0 1 1.73l17.54-10.6a6 6 0 0 0 4.09 2.36v14.1a5 5 0 1 0 2 0v-14.27a6 6 0 0 0 2.23-1l15.4 15.05a11 11 0 1 0 8.37-3.88zm2.66-40.79a6 6 0 1 1-6 6 6 6 0 0 1  6-6zm-56.66 6.79a9 9 0 1 1 9-9 9 9 0 0 1-9 9zm-3 41.33a6 6 0 1 1 6-6 6 6 0 0 1-6 6zm27-48.33a3 3 0 1 1 3 3 3 3 0 0 1-3-3zm6 50a3 3 0 1 1-3-3 3 3 0 0 1  3 3zm-3.34-21a4 4 0 1 1 3.15-6.43.94.94 0 0 0  0 .12 1 1 0 0 0  .21.24 4 4 0 0 1  .6 2.08 4 4 0 0 1-3.96 3.99zm27.34 32a9 9 0 1 1 9-9 9 9 0 0 1-9 9z"/></svg>