<svg viewBox="0 0 76.01 76.03" xmlns="http://www.w3.org/2000/svg"><path d="m74.69 28.12a37.81 37.81 0 0 0-5.95-12.44 6 6 0 1 0-1.47 1.32 36 36 0 1 1-16-12.48 1 1 0 1 0  .74-1.86 38 38 0 0 0-50.69 45.25 38 38 0 0 0  36.62 28.09 38.06 38.06 0 0 0  36.75-47.88zm-13.51-13.27a4 4 0 1 1 5.66 0 4.09 4.09 0 0 1-5.66 0z"/><path d="m42 38a4 4 0 0 0-3-3.86v-25.14a1 1 0 0 0-2 0v25.16a4 4 0 1 0 2.67 7.48l11.88 11.87a1 1 0 0 0 1.45-1.41l-11.77-11.74a4 4 0 0 0  .77-2.36zm-6 0a2 2 0 1 1 2 2 2 2 0 0 1-2-2z"/></svg>