<svg viewBox="0 0 76 76" xmlns="http://www.w3.org/2000/svg"><path d="m38 0a37.67 37.67 0 0 0-22.33 7.26 6 6 0 1 0-.2 9.63l21.89 21.89a10.09 10.09 0 0 0-2.36 6.58v1.34c0 .93.09 1.43 1 1.43h1.11a1.16 1.16 0 0 0 1.34-1.21l.06-1.38a7.75 7.75 0 0 1 1.38-4.2l22.83 22.79a36 36 0 0 1-58.1-39.63 1 1 0 1 0-1.85-.75 38 38 0 1 0  35.23-23.75zm-28.83 14.83a4 4 0 1 1 5.76-.13.42.42 0 0 0-.23.23 4.09 4.09 0 0 1-5.53-.1zm28.14 2.27a15.21 15.21 0 0 0-8.23 2.45 1.21 1.21 0 0 0-.28 2l .48.7a1.38 1.38 0 0 0 2 .35 12.05 12.05 0 0 1  6-1.69c4.5 0 7.76 3 7.76 6.71 0 4.53-3.45 6.78-6.3 9.68l-21.85-21.83a6 6 0 0 0  .11-6.73 35.68 35.68 0 0 1  21-6.74 36 36 0 0 1  26.13 60.72l-23-23c3.14-3.29 7.87-5.83 7.87-12.29 0-6.07-5-10.33-11.69-10.33z"/><path d="m37.6 59.13a1.43 1.43 0 0 0 1.4-1.46v-2.09a1.43 1.43 0 0 0-1.4-1.46h-2.2a1.43 1.43 0 0 0-1.4 1.46v2.08a1.43 1.43 0 0 0 1.4 1.46z"/></svg>