<svg viewBox="0 0 76 67.04" xmlns="http://www.w3.org/2000/svg"><path d="m75.82 37.9l-11.7-36.26a2.31 2.31 0 0 0-2.21-1.64h0a2.3 2.3 0 0 0-2.2 1.55l-6.71 15.45a1 1 0 1 0 1.83.81l6.73-15.53a.33.33 0 0 1  .34-.28.3.3 0 0 1  .32.23l11.7 36.29a1.7 1.7 0 0 1-.62 1.89l-33.38 24.39-26.08-19.06h-.07l-7.08-5.2a1.69 1.69 0 0 1-.61-1.89l.48-1.48a1 1 0 0 0 0-.25 8 8 0 0 0  4.64-15.2l6.43-19.43a.33.33 0 0 1  .37-.29.31.31 0 0 1  .32.23l7.78 24.06a1 1 0 0 0  .9.71h28.1a5.33 5.33 0 0 0 4.9 4 5 5 0 0 0  0-10 5.3 5.3 0 0 0-4.9 4h-27.37l-7.55-23.39a2.29 2.29 0 0 0-2.18-1.61h0a2.34 2.34 0 0 0-2.23 1.63l-6.49 19.51a8 8 0 0 0-4.51 15.21 1 1 0 0 0-.11.19l-.48 1.46a3.69 3.69 0 0 0 1.33 4.12l9.82 7.18h.09l23.91 17.55a1 1 0 0 0 1.18 0l33.97-24.85a3.7 3.7 0 0 0 1.34-4.1zm-15.82-14.9a3 3 0 1 1-3 3 3 3 0 0 1  3-3zm-58 6a6 6 0 1 1 6 6 6 6 0 0 1-6-6z"/><path d="m34.16 38.37a1 1 0 0 0-1.37-.37l-6.59 3.81a1 1 0 0 0 0 1.73l6.59 3.81a1 1 0 0 0 1-1.73l-5.09-2.93 5.09-2.95a1 1 0 0 0  .37-1.37z"/><path d="m45.84 47a1 1 0 0 0 1.37.36l6.59-3.81a1 1 0 0 0 0-1.73l-6.59-3.82a1 1 0 0 0-1 1.73l5.09 2.95-5.09 2.95a1 1 0 0 0-.37 1.37z"/><path d="m42 33.72l-5.89 17.28a1 1 0 0 0  .62 1.27 1 1 0 0 0  .32.05 1 1 0 0 0  .95-.68l5.89-17.29a1 1 0 0 0-1.89-.63z"/></svg>