<?xml version="1.0" encoding="UTF-8" standalone="no"?>
<svg width="1203px" height="342px" viewBox="0 0 1203 342" version="1.1" xmlns="http://www.w3.org/2000/svg" xmlns:xlink="http://www.w3.org/1999/xlink" xmlns:sketch="http://www.bohemiancoding.com/sketch/ns">
    <!-- Generator: Sketch 3.3.2 (12043) - http://www.bohemiancoding.com/sketch -->
    <title>wm_no_bg</title>
    <desc>Created with Sketch.</desc>
    <defs></defs>
    <g id="Page-1" stroke="none" stroke-width="1" fill="none" fill-rule="evenodd" sketch:type="MSPage">
        <g id="wm_no_bg" sketch:type="MSLayerGroup">
            <g id="word" transform="translate(433.000000, 66.000000)" fill="#FFFFFF" sketch:type="MSShapeGroup">
                <path d="M393.337101,4.10351328 L366.095816,4.10351328 L366.182334,206.896154 L476.385334,206.896154 L476.385334,181.818732 L393.423618,181.818732 L393.337101,4.10351328 Z" id="Fill-2"></path>
                <path d="M581.320266,171.29154 C574.51036,178.412063 563.056809,185.534251 547.578541,185.534251 C526.837697,185.534251 518.480464,175.316907 518.480464,162.002743 C518.480464,141.879235 532.40974,132.280923 562.128412,132.280923 C567.700455,132.280923 576.676619,132.899954 581.320266,133.828501 L581.320266,171.29154 Z M553.150584,48.3772273 C531.151912,48.3772273 510.975093,56.1766883 495.230619,69.1597039 L504.85899,85.8402664 C516.003076,79.3387742 529.62455,72.835618 549.125869,72.835618 C571.414041,72.835618 581.320266,84.2926883 581.320266,103.487649 L581.320266,113.395477 C576.986084,112.46693 568.009921,111.846235 562.437878,111.846235 C514.765214,111.846235 490.620248,128.565071 490.620248,163.551985 C490.620248,194.821384 509.812102,210.611673 538.910179,210.611673 C558.511326,210.611673 577.29555,201.632391 583.79599,187.081829 L588.749102,206.895821 L607.942619,206.895821 L607.942619,103.178134 C607.942619,70.359493 593.702214,48.3772273 553.150584,48.3772273 L553.150584,48.3772273 Z" id="Fill-3"></path>
                <path d="M695.838479,186.462132 C685.62279,186.462132 676.644962,185.22407 669.835057,182.127249 L669.835057,98.0687961 L669.835057,88.3173898 C679.12235,80.5761711 690.575902,75.0032258 705.125772,75.0032258 C731.436997,75.0032258 741.652686,93.5791555 741.652686,123.612155 C741.652686,166.33696 725.246022,186.462132 695.838479,186.462132 M707.28704,48.3765617 C682.940755,48.3765617 669.835057,64.9423039 669.835057,64.9423039 L669.835057,38.7799133 L669.74854,4.10417891 L657.466419,4.10417891 L643.12785,4.10417891 L643.214367,201.942905 C656.524712,207.515851 674.788169,210.611007 694.600617,210.611007 C745.367936,210.611007 769.822367,178.103546 769.822367,122.064577 C769.822367,77.7905305 747.219738,48.3765617 707.28704,48.3765617" id="Fill-5"></path>
                <path d="M97.216369,26.0857789 C121.361334,26.0857789 136.839602,34.1348492 147.055291,42.1855836 L158.76174,21.9039898 C142.805964,7.90922422 121.344697,0.387661719 98.454231,0.387661719 C40.5675414,0.387661719 0.015912069,35.6840914 0.015912069,106.892654 C0.015912069,181.509216 43.7636879,210.612005 93.8105845,210.612005 C118.88561,210.612005 140.245386,204.729545 154.174662,198.847084 L153.603981,119.123513 L153.603981,109.718232 L153.603981,94.0444273 L79.3106276,94.0444273 L79.3106276,119.123513 L126.672162,119.123513 L127.242843,179.650459 C121.051869,182.747279 110.217248,185.223404 95.6690414,185.223404 C55.4268776,185.223404 28.4950586,159.904693 28.4950586,106.583138 C28.4950586,52.4029273 56.3552741,26.0857789 97.216369,26.0857789" id="Fill-7"></path>
                <path d="M288.794159,4.10351328 L262.171805,4.10351328 L262.258322,38.1602164 L262.258322,52.0934117 L262.258322,60.2140367 L262.258322,74.385193 L262.258322,155.501584 L262.258322,155.811099 C262.258322,188.62974 276.498728,210.612005 317.050357,210.612005 C322.652348,210.612005 328.134547,210.102802 333.457021,209.135982 L333.457021,185.225068 C329.603676,185.81581 325.490779,186.151951 321.075072,186.151951 C298.7869,186.151951 288.880676,174.696545 288.880676,155.501584 L288.880676,74.385193 L333.457021,74.385193 L333.457021,52.0934117 L288.880676,52.0934117 L288.794159,4.10351328 Z" id="Fill-9"></path>
                <path d="M194.620474,206.89632 L221.242828,206.89632 L221.242828,52.0919141 L194.620474,52.0919141 L194.620474,206.89632 Z" id="Fill-11"></path>
                <path d="M194.620474,30.7303437 L221.242828,30.7303437 L221.242828,4.10367969 L194.620474,4.10367969 L194.620474,30.7303437 Z" id="Fill-13"></path>
            </g>
            <g id="logo" sketch:type="MSShapeGroup">
                <path d="M185.3984,341.1298 L185.3984,341.1298 L253.4114,131.8078 L117.3854,131.8078 L185.3984,341.1298 L185.3984,341.1298 Z" id="Fill-14" fill="#E24329"></path>
                <path id="Fill-15" fill="#E24329"></path>
                <path d="M185.3984,341.1294 L117.3854,131.8084 L22.0664,131.8084 L185.3984,341.1294 Z" id="Fill-16" fill="#FC6D26"></path>
                <path id="Fill-17" fill="#E24329"></path>
                <path d="M22.0664,131.8081 L22.0664,131.8081 L1.3974,195.4191 C-0.4876,201.2211 1.5774,207.5771 6.5134,211.1621 L185.3984,341.1291 L22.0664,131.8081 Z" id="Fill-18" fill="#FCA326"></path>
                <path id="Fill-19" fill="#E24329"></path>
                <path d="M22.0664,131.8083 L117.3854,131.8083 L76.4214,5.7353 C74.3134,-0.7517 65.1364,-0.7517 63.0294,5.7353 L22.0664,131.8083 Z" id="Fill-20" fill="#E24329"></path>
                <path d="M185.3984,341.1294 L253.4114,131.8084 L348.7304,131.8084 L185.3984,341.1294 Z" id="Fill-21" fill="#FC6D26"></path>
                <path d="M348.7303,131.8081 L348.7303,131.8081 L369.3993,195.4191 C371.2843,201.2211 369.2193,207.5771 364.2833,211.1621 L185.3983,341.1291 L348.7303,131.8081 Z" id="Fill-22" fill="#FCA326"></path>
                <path d="M348.7303,131.8083 L253.4113,131.8083 L294.3753,5.7353 C296.4833,-0.7517 305.6603,-0.7517 307.7673,5.7353 L348.7303,131.8083 Z" id="Fill-23" fill="#E24329"></path>
            </g>
        </g>
    </g>
</svg>