<?xml version="1.0" encoding="utf-8"?>
<!-- Generator: Adobe Illustrator 16.0.4, SVG Export Plug-In . SVG Version: 6.00 Build 0)  -->
<!DOCTYPE svg PUBLIC "-//W3C//DTD SVG 1.1//EN" "http://www.w3.org/Graphics/SVG/1.1/DTD/svg11.dtd">
<svg version="1.1" id="Layer_1" xmlns="http://www.w3.org/2000/svg" xmlns:xlink="http://www.w3.org/1999/xlink" x="0px" y="0px"
	 width="325px" height="325px" viewBox="0 0 325 325" enable-background="new 0 0 325 325" xml:space="preserve">
<path d="M215.575,200c-11.772,16.632-31.148,27.5-53.075,27.5c-35.898,0-65-29.102-65-65s29.102-65,65-65
	c21.927,0,41.303,10.868,53.075,27.5h28.759c-14.221-30.981-45.512-52.5-81.834-52.5c-49.706,0-90,40.294-90,90
	c0,49.706,40.294,90,90,90c36.322,0,67.614-21.519,81.834-52.5H215.575z"/>
<path d="M301.938,150H199v25h77.821c-6.23,57.632-55.033,102.5-114.321,102.5c-63.513,0-115-51.487-115-115s51.487-115,115-115
	c50.381,0,93.184,32.402,108.732,77.5h26.181C281.018,65.891,226.829,22.5,162.5,22.5c-77.32,0-140,62.68-140,140
	c0,77.319,62.68,140,140,140c77.319,0,140-62.681,140-140C302.5,158.286,302.303,154.119,301.938,150z"/>
<rect x="149" y="138" width="25" height="50"/>
</svg>
