<?xml version="1.0" encoding="utf-8"?>
<!-- Generator: Adobe Illustrator 19.2.1, SVG Export Plug-In . SVG Version: 6.00 Build 0)  -->
<svg version="1.1"
	 id="svg2" xmlns:cc="http://creativecommons.org/ns#" xmlns:dc="http://purl.org/dc/elements/1.1/" xmlns:inkscape="http://www.inkscape.org/namespaces/inkscape" xmlns:rdf="http://www.w3.org/1999/02/22-rdf-syntax-ns#" xmlns:svg="http://www.w3.org/2000/svg"
	 xmlns="http://www.w3.org/2000/svg" xmlns:xlink="http://www.w3.org/1999/xlink" x="0px" y="0px" viewBox="0 0 340 136"
	 style="enable-background:new 0 0 340 136;" xml:space="preserve">
<style type="text/css">
	.st0{fill:#19636A;}
</style>
<g>
	<path id="path22" inkscape:connector-curvature="0" class="st0" d="M26.3,28.8c-1.6-1.1-3.3-1.6-6.2-1.8C18.8,27,18,27,16.9,27
		c-0.3,0-0.4,0.1-0.4,0.5v17.7c0,4.9,0.2,6.2,2.6,7.2c2,0.8,3.7,0.9,5.4,0.9c3.4,0,9-1.8,9-9.5C33.5,39,32,32.8,26.3,28.8z
		 M16.5,22.9c0,0.6,0.2,0.7,0.5,0.8c0.7,0.1,1.8,0.2,3.5,0.2c2.5,0,4.1-0.3,5.4-1.4c1.9-1.6,3.1-4.2,3.1-7.9c0-5-2.9-11.5-9.3-11.5
		c-1,0-1.7,0-2.5,0.1c-0.5,0.1-0.7,0.4-0.7,1.3L16.5,22.9L16.5,22.9z M7.5,21.6c0-11.3,0-13.4-0.1-15.8C7.2,3.3,6.6,2.1,4.2,1.6
		C3.6,1.4,2.3,1.3,1.3,1.3C0.4,1.3,0,1.2,0,0.7S0.5,0,1.6,0c3.9,0,8.6,0.2,10.1,0.2c3.6,0,6.6-0.2,9.1-0.2
		c13.5,0,15.9,7.2,15.9,11.2c0,6.1-3.5,9.8-7.6,13c6.1,2.1,13.6,7.4,13.6,16.1c0,8-6.2,16.2-19.9,16.2c-0.9,0-3.1-0.1-5.2-0.2
		c-2.2-0.1-4.5-0.2-5.6-0.2c-0.8,0-2.5,0-4.2,0.1c-1.7,0-3.6,0.1-5.1,0.1c-1,0-1.5-0.2-1.5-0.7c0-0.4,0.3-0.6,1.2-0.6
		c1.1,0,2-0.1,2.7-0.3c1.5-0.3,1.9-1.9,2.2-4.1c0.4-3.1,0.4-9,0.4-15.9L7.5,21.6"/>
	<path id="path24" inkscape:connector-curvature="0" class="st0" d="M52.7,26.7c0-9.6,0.1-11.4-0.1-13.4c-0.1-2.2-0.7-2.8-2.8-3.4
		c-0.5-0.1-1.6-0.2-2.5-0.2c-0.7,0-1.1-0.2-1.1-0.7c0-0.4,0.4-0.6,1.4-0.6c3.5,0,7.9,0.1,9.8,0.1c1.6,0,6-0.1,8.4-0.1
		c1,0,1.4,0.1,1.4,0.6c0,0.4-0.4,0.7-1,0.7c-0.7,0-1.1,0.1-1.9,0.2c-1.7,0.3-2.2,1.2-2.4,3.4c-0.1,2-0.1,3.8-0.1,13.4v8.9
		c0,9.2,1.8,12.8,5,15.3c2.9,2.3,6,2.5,8.3,2.5c2.8,0,6.2-0.8,8.8-3.4c3.6-3.4,3.8-8.9,3.8-15.4v-8c0-9.6-0.1-11.4-0.1-13.4
		c-0.1-2.2-0.7-2.8-2.8-3.4c-0.5-0.1-1.6-0.2-2.4-0.2c-0.7,0-1.1-0.2-1.1-0.7c0-0.4,0.4-0.6,1.3-0.6c3.4,0,7.7,0.1,7.8,0.1
		c0.7,0,5.1-0.1,7.7-0.1c0.9,0,1.3,0.1,1.3,0.6c0,0.4-0.4,0.7-1.1,0.7s-1.1,0.1-1.9,0.2c-1.8,0.3-2.2,1.2-2.4,3.4
		c-0.1,2-0.1,3.8-0.1,13.4v6.8c0,7.1-0.7,14.5-6.3,19.1c-4.6,3.9-9.6,4.5-13.9,4.5c-3.4,0-10.2-0.1-15-4.3c-3.4-2.9-6-7.6-6-16.8
		L52.7,26.7"/>
	<path id="path26" inkscape:connector-curvature="0" class="st0" d="M105.5,55.5c-1-0.4-1.3-0.7-1.3-2.2c0-3.4,0.3-7.4,0.4-8.4
		c0-1,0.3-1.6,0.8-1.6c0.6,0,0.7,0.6,0.7,1c0,0.8,0.2,2.2,0.6,3.3c1.4,4.7,6.3,6.3,10.4,6.3c5.7,0,9.1-3.6,9.1-8
		c0-2.8-0.7-5.5-6.5-8.9l-3.8-2.2c-7.7-4.5-10.3-8.8-10.3-14.4c0-7.7,7.4-12.7,16.5-12.7c4.2,0,7.6,0.6,9.3,1
		c0.6,0.1,0.9,0.4,0.9,0.8c0,0.8-0.2,2.6-0.2,7.6c0,1.3-0.3,2-0.8,2c-0.4,0-0.7-0.4-0.7-1.1c0-0.6-0.3-2.5-1.7-4.2
		c-1-1.2-3.1-3-7.3-3c-4.7,0-8.9,2.5-8.9,6.8c0,2.8,1,5.1,6.9,8.3l2.7,1.5c8.6,4.8,11.3,9.6,11.3,15.3c0,4.7-1.8,8.5-6.6,11.8
		c-3.1,2.2-7.4,2.6-10.9,2.6C112.3,57.1,108.3,56.8,105.5,55.5"/>
	<path id="path28" inkscape:connector-curvature="0" class="st0" d="M144.6,26.7c0-9.6,0-11.4-0.1-13.4c-0.1-2.2-0.8-2.9-2.2-3.4
		c-0.7-0.2-1.6-0.3-2.4-0.3c-0.7,0-1-0.1-1-0.7c0-0.4,0.5-0.5,1.6-0.5c2.5,0,6.9,0.1,8.8,0.1c1.6,0,5.9-0.1,8.4-0.1
		c0.8,0,1.3,0.1,1.3,0.5c0,0.6-0.4,0.7-1,0.7c-0.7,0-1.2,0.1-1.9,0.2c-1.8,0.3-2.3,1.2-2.5,3.4c-0.1,2-0.1,3.8-0.1,13.4v11.2
		c0,6.1,0,11.2,0.3,13.9c0.2,1.7,0.7,2.7,2.6,3c0.9,0.1,2.4,0.2,3.4,0.2c0.7,0,1,0.4,1,0.7c0,0.4-0.5,0.7-1.3,0.7
		c-4.3,0-8.8-0.2-10.6-0.2c-1.5,0-6,0.2-8.6,0.2c-0.8,0-1.3-0.2-1.3-0.7c0-0.3,0.2-0.7,1-0.7c1,0,1.7-0.1,2.3-0.2
		c1.3-0.3,1.7-1.2,1.9-3.1c0.3-2.6,0.3-7.7,0.3-13.8L144.6,26.7"/>
	<path id="path30" inkscape:connector-curvature="0" class="st0" d="M175.9,47.7c0.1,4.9,1,6.4,2.2,6.9c1.1,0.4,2.4,0.4,3.4,0.4
		c0.7,0,1.1,0.3,1.1,0.7c0,0.5-0.6,0.7-1.5,0.7c-4.2,0-7.3-0.2-8.5-0.2c-0.6,0-3.7,0.2-7.1,0.2c-0.9,0-1.5-0.1-1.5-0.7
		c0-0.4,0.4-0.7,1-0.7c0.9,0,2.1-0.1,3-0.3c1.7-0.4,1.9-2.2,2-7.7l0.6-37.5c0-1.3,0.4-2.2,1.1-2.2c0.8,0,1.7,1,2.8,2.1
		c0.8,0.8,10.7,10.9,20.2,20.2c4.5,4.4,13.2,13.3,14.2,14.2h0.3l-0.7-28.2c-0.1-3.9-0.7-5-2.2-5.6c-1-0.4-2.5-0.4-3.4-0.4
		c-0.8,0-1-0.3-1-0.7c0-0.5,0.7-0.6,1.6-0.6c3.4,0,6.9,0.1,8.3,0.1c0.7,0,3.2-0.1,6.4-0.1c0.9,0,1.5,0.1,1.5,0.6
		c0,0.4-0.4,0.7-1.1,0.7c-0.7,0-1.2,0-2,0.2c-1.8,0.5-2.3,1.6-2.4,5.2L213.6,55c0,1.4-0.5,2-1,2c-1.1,0-2-0.7-2.7-1.3
		c-4.1-3.8-12.3-11.6-19.1-18.2c-7.2-6.9-14.1-14.5-15.3-15.6h-0.2L175.9,47.7"/>
	<path id="path32" inkscape:connector-curvature="0" class="st0" d="M231.3,26.7c0-9.6,0-11.4-0.1-13.4c-0.1-2.2-0.7-2.8-2.8-3.4
		c-0.5-0.1-1.6-0.2-2.6-0.2c-0.7,0-1.1-0.2-1.1-0.7c0-0.4,0.5-0.6,1.5-0.6c3.4,0,7.6,0.1,9.5,0.1c2.1,0,16.6,0.1,17.9,0
		c1.2-0.1,2.2-0.3,2.8-0.4c0.4-0.1,0.7-0.3,1-0.3c0.4,0,0.4,0.3,0.4,0.6c0,0.4-0.4,1.2-0.5,4.1c-0.1,0.7-0.2,3.4-0.4,4.2
		c-0.1,0.3-0.2,1-0.7,1c-0.4,0-0.5-0.3-0.5-0.8c0-0.4-0.1-1.6-0.4-2.3c-0.5-1.1-1-2-4.3-2.3c-1.1-0.1-8.9-0.3-10.3-0.3
		c-0.3,0-0.4,0.2-0.4,0.6v15.6c0,0.4,0.1,0.7,0.4,0.7c1.5,0,10,0,11.5-0.1c1.6-0.1,2.5-0.3,3.1-1c0.5-0.4,0.7-0.8,1-0.8
		c0.3,0,0.5,0.3,0.5,0.7c0,0.4-0.1,1.4-0.5,4.6c-0.1,1.3-0.3,3.8-0.3,4.2c0,0.5-0.1,1.4-0.7,1.4c-0.4,0-0.6-0.2-0.6-0.5
		c-0.1-0.7-0.1-1.5-0.2-2.3c-0.4-1.3-1.2-2.2-3.6-2.5c-1.2-0.1-8.6-0.3-10.3-0.3c-0.3,0-0.4,0.3-0.4,0.7v5.1c0,2.2-0.1,7.5,0,9.4
		c0.1,4.3,2.2,5.3,8.9,5.3c1.7,0,4.5-0.1,6.2-0.8c1.6-0.7,2.4-2.1,2.8-4.7c0.1-0.7,0.3-1,0.7-1c0.5,0,0.6,0.8,0.6,1.5
		c0,1.4-0.5,5.7-0.9,7c-0.4,1.6-1,1.6-3.5,1.6c-4.9,0-8.9-0.1-12.1-0.2c-3.2-0.1-5.7-0.1-7.6-0.1c-0.7,0-2.2,0.1-3.7,0.1
		c-1.6,0.1-3.2,0.1-4.5,0.1c-0.8,0-1.3-0.2-1.3-0.7c0-0.3,0.2-0.7,1-0.7c1,0,1.7-0.1,2.3-0.2c1.3-0.3,1.7-1.5,1.9-3.4
		c0.3-2.7,0.3-7.7,0.3-13.5L231.3,26.7"/>
	<path id="path34" inkscape:connector-curvature="0" class="st0" d="M267.5,55.5c-1-0.4-1.3-0.7-1.3-2.2c0-3.4,0.3-7.4,0.4-8.4
		c0-1,0.3-1.6,0.8-1.6c0.6,0,0.7,0.6,0.7,1c0,0.8,0.2,2.2,0.6,3.3c1.4,4.7,6.3,6.3,10.4,6.3c5.7,0,9.1-3.6,9.1-8
		c0-2.8-0.7-5.5-6.5-8.9l-3.8-2.2c-7.7-4.5-10.3-8.8-10.3-14.4c0-7.7,7.4-12.7,16.5-12.7c4.2,0,7.6,0.6,9.3,1
		c0.6,0.1,0.9,0.4,0.9,0.8c0,0.8-0.2,2.6-0.2,7.6c0,1.3-0.3,2-0.8,2c-0.4,0-0.7-0.4-0.7-1.1c0-0.6-0.3-2.5-1.7-4.2
		c-1-1.2-3.1-3-7.3-3c-4.7,0-8.9,2.5-8.9,6.8c0,2.8,1,5.1,6.9,8.3l2.7,1.5c8.6,4.8,11.3,9.6,11.3,15.3c0,4.7-1.8,8.5-6.6,11.8
		c-3.1,2.2-7.4,2.6-10.9,2.6C274.4,57.1,270.4,56.8,267.5,55.5"/>
	<path id="path36" inkscape:connector-curvature="0" class="st0" d="M304.6,55.5c-1-0.4-1.3-0.7-1.3-2.2c0-3.4,0.3-7.4,0.4-8.4
		c0-1,0.3-1.6,0.8-1.6c0.6,0,0.7,0.6,0.7,1c0,0.8,0.2,2.2,0.6,3.3c1.4,4.7,6.3,6.3,10.4,6.3c5.7,0,9.1-3.6,9.1-8
		c0-2.8-0.7-5.5-6.5-8.9l-3.8-2.2c-7.7-4.5-10.3-8.8-10.3-14.4c0-7.7,7.4-12.7,16.5-12.7c4.2,0,7.6,0.6,9.3,1
		c0.6,0.1,0.9,0.4,0.9,0.8c0,0.8-0.2,2.6-0.2,7.6c0,1.3-0.3,2-0.8,2c-0.4,0-0.7-0.4-0.7-1.1c0-0.6-0.3-2.5-1.7-4.2
		c-1-1.2-3.1-3-7.3-3c-4.7,0-8.9,2.5-8.9,6.8c0,2.8,1,5.1,6.9,8.3l2.7,1.5c8.6,4.8,11.3,9.6,11.3,15.3c0,4.7-1.8,8.5-6.6,11.8
		c-3.1,2.2-7.4,2.6-10.9,2.6C311.5,57.1,307.4,56.8,304.6,55.5"/>
	<path id="path38" inkscape:connector-curvature="0" class="st0" d="M10.6,101.2c0-11.3,0-13.4-0.1-15.8c-0.1-2.5-0.9-3.8-2.5-4.2
		c-0.8-0.2-1.8-0.3-2.7-0.3c-0.7,0-1.2-0.1-1.2-0.7c0-0.4,0.6-0.6,1.8-0.6c2.8,0,7.5,0.2,9.7,0.2c1.9,0,6.3-0.2,9.1-0.2
		c1,0,1.6,0.1,1.6,0.6c0,0.6-0.4,0.7-1.2,0.7c-0.7,0-1.3,0.1-2.2,0.2c-2,0.4-2.6,1.6-2.8,4.2c-0.1,2.4-0.1,4.5-0.1,15.8v13.1
		c0,7.2,0,13.1,0.3,16.3c0.2,2,0.7,3.4,3,3.6c1,0.1,2.7,0.3,3.8,0.3c0.8,0,1.2,0.2,1.2,0.6c0,0.5-0.6,0.7-1.4,0.7
		c-4.9,0-9.6-0.2-11.6-0.2c-1.7,0-6.4,0.2-9.4,0.2c-1,0-1.5-0.2-1.5-0.7c0-0.4,0.3-0.6,1.2-0.6c1.1,0,2-0.1,2.7-0.3
		c1.5-0.3,1.9-1.6,2.2-3.7c0.4-3.1,0.4-9,0.4-16.2L10.6,101.2"/>
	<path id="path40" inkscape:connector-curvature="0" class="st0" d="M48.5,127.2c0.1,4.9,1,6.4,2.2,6.9c1.1,0.4,2.4,0.4,3.4,0.4
		c0.7,0,1.1,0.3,1.1,0.7c0,0.5-0.6,0.7-1.5,0.7c-4.2,0-7.3-0.2-8.5-0.2c-0.6,0-3.7,0.2-7.1,0.2c-0.9,0-1.5-0.1-1.5-0.7
		c0-0.4,0.4-0.7,1-0.7c0.9,0,2.1-0.1,3-0.3c1.7-0.4,1.9-2.2,2-7.7L43.3,89c0-1.3,0.4-2.2,1.1-2.2c0.8,0,1.7,1,2.8,2.1
		c0.8,0.8,10.7,10.9,20.2,20.2c4.5,4.4,13.2,13.3,14.2,14.2h0.3l-0.7-28.2c-0.1-3.9-0.7-5-2.2-5.6c-1-0.4-2.5-0.4-3.4-0.4
		c-0.8,0-1-0.3-1-0.7c0-0.5,0.7-0.6,1.6-0.6c3.4,0,6.9,0.1,8.3,0.1c0.7,0,3.2-0.1,6.4-0.1c0.9,0,1.5,0.1,1.5,0.6
		c0,0.4-0.4,0.7-1.1,0.7c-0.7,0-1.2,0-2,0.2c-1.8,0.5-2.3,1.6-2.4,5.2l-0.7,39.9c0,1.4-0.5,2-1,2c-1.1,0-2-0.7-2.7-1.3
		c-4.1-3.8-12.3-11.6-19.1-18.2c-7.1-6.9-14.1-14.5-15.3-15.6h-0.2L48.5,127.2"/>
	<path id="path42" inkscape:connector-curvature="0" class="st0" d="M106.6,135.1c-1-0.4-1.3-0.7-1.3-2.2c0-3.4,0.3-7.4,0.4-8.4
		c0-1,0.3-1.6,0.8-1.6c0.6,0,0.7,0.6,0.7,1c0,0.8,0.2,2.2,0.6,3.3c1.4,4.7,6.3,6.3,10.4,6.3c5.7,0,9.1-3.6,9.1-8
		c0-2.8-0.7-5.5-6.5-8.9l-3.8-2.2c-7.7-4.5-10.3-8.8-10.3-14.4c0-7.7,7.4-12.7,16.5-12.7c4.2,0,7.6,0.6,9.3,1
		c0.6,0.1,0.9,0.4,0.9,0.8c0,0.8-0.2,2.6-0.2,7.6c0,1.3-0.3,2-0.8,2c-0.4,0-0.7-0.4-0.7-1.1c0-0.6-0.3-2.5-1.7-4.2
		c-1-1.2-3.1-3-7.3-3c-4.7,0-8.9,2.5-8.9,6.8c0,2.8,1,5.1,6.9,8.3l2.7,1.5c8.6,4.8,11.3,9.6,11.3,15.3c0,4.7-1.8,8.5-6.6,11.8
		c-3.1,2.2-7.4,2.6-10.9,2.6C113.4,136.7,109.4,136.3,106.6,135.1"/>
	<path id="path44" inkscape:connector-curvature="0" class="st0" d="M152,106.3c0-9.6,0-11.4-0.1-13.4c-0.1-2.2-0.8-2.9-2.2-3.4
		c-0.7-0.2-1.6-0.3-2.4-0.3c-0.7,0-1-0.1-1-0.7c0-0.4,0.5-0.5,1.6-0.5c2.5,0,6.9,0.1,8.8,0.1c1.6,0,5.9-0.1,8.4-0.1
		c0.8,0,1.3,0.1,1.3,0.5c0,0.6-0.4,0.7-1,0.7c-0.7,0-1.2,0.1-1.9,0.2c-1.8,0.3-2.3,1.2-2.5,3.4c-0.1,2-0.1,3.8-0.1,13.4v11.2
		c0,6.1,0,11.2,0.3,13.9c0.2,1.7,0.7,2.7,2.6,3c0.9,0.1,2.4,0.2,3.4,0.2c0.7,0,1,0.4,1,0.7c0,0.4-0.5,0.7-1.3,0.7
		c-4.3,0-8.8-0.2-10.6-0.2c-1.5,0-6,0.2-8.6,0.2c-0.8,0-1.3-0.2-1.3-0.7c0-0.3,0.2-0.7,1-0.7c1,0,1.7-0.1,2.3-0.2
		c1.3-0.3,1.7-1.2,1.9-3.1c0.3-2.6,0.3-7.7,0.3-13.8L152,106.3"/>
	<path id="path46" inkscape:connector-curvature="0" class="st0" d="M194.2,113.3c0,6.7,0.1,11.5,0.1,12.8c0.1,1.6,0.2,3.8,0.7,4.5
		c0.8,1.2,3.4,2.5,8.6,2.5c6,0,10.4-1,14.3-4.3c4.2-3.5,5.6-9.2,5.6-15.7c0-8-3.2-13.3-6.1-15.8c-6-5.4-13.2-6-18.3-6
		c-1.3,0-3.5,0.1-4,0.4c-0.6,0.2-0.8,0.5-0.8,1.3c-0.1,2.2-0.1,7.4-0.1,12.4L194.2,113.3L194.2,113.3z M185.5,106.3
		c0-9.6,0-11.4-0.1-13.4c-0.1-2.2-0.7-2.8-2.8-3.4c-0.5-0.1-1.6-0.2-2.6-0.2c-0.7,0-1.1-0.2-1.1-0.7c0-0.4,0.5-0.6,1.5-0.6
		c3.4,0,7.6,0.1,9.5,0.1c2,0,6.7-0.1,10.7-0.1c8.2,0,19.2,0,26.4,7.2c3.3,3.3,6.2,8.6,6.2,16.1c0,8-3.4,14-7.2,17.7
		c-3,3-9.9,7.4-22,7.4c-2.4,0-5.2-0.2-7.8-0.4c-2.6-0.2-5-0.4-6.6-0.4c-0.7,0-2.2,0.1-3.7,0.1c-1.6,0.1-3.2,0.1-4.5,0.1
		c-0.8,0-1.3-0.2-1.3-0.7c0-0.3,0.2-0.7,1-0.7c1,0,1.7-0.1,2.3-0.2c1.3-0.3,1.7-1.5,1.9-3.4c0.3-2.7,0.3-7.7,0.3-13.5L185.5,106.3"
		/>
	<path id="path48" inkscape:connector-curvature="0" class="st0" d="M249.7,106.3c0-9.6,0-11.4-0.1-13.4c-0.1-2.2-0.7-2.8-2.8-3.4
		c-0.5-0.1-1.6-0.2-2.6-0.2c-0.7,0-1.1-0.2-1.1-0.7c0-0.4,0.5-0.6,1.5-0.6c3.4,0,7.6,0.1,9.5,0.1c2.1,0,16.6,0.1,17.9,0
		c1.2-0.1,2.2-0.3,2.8-0.4c0.4-0.1,0.7-0.3,1-0.3c0.4,0,0.4,0.3,0.4,0.6c0,0.4-0.4,1.2-0.5,4.1c-0.1,0.7-0.2,3.4-0.4,4.2
		c-0.1,0.3-0.2,1-0.7,1c-0.4,0-0.5-0.3-0.5-0.8c0-0.4-0.1-1.6-0.4-2.3c-0.5-1.1-1-2-4.3-2.3c-1.1-0.1-8.9-0.3-10.3-0.3
		c-0.3,0-0.4,0.2-0.4,0.6v15.6c0,0.4,0.1,0.7,0.4,0.7c1.5,0,10,0,11.5-0.1c1.6-0.1,2.5-0.3,3.1-1c0.5-0.4,0.7-0.8,1-0.8
		c0.3,0,0.5,0.3,0.5,0.7c0,0.4-0.1,1.4-0.5,4.6c-0.2,1.3-0.3,3.8-0.3,4.2c0,0.5-0.1,1.4-0.7,1.4c-0.4,0-0.6-0.2-0.6-0.5
		c-0.1-0.7-0.1-1.5-0.2-2.3c-0.4-1.3-1.2-2.2-3.6-2.5c-1.2-0.1-8.6-0.3-10.3-0.3c-0.3,0-0.4,0.3-0.4,0.7v5.1c0,2.2-0.1,7.5,0,9.4
		c0.1,4.3,2.2,5.3,8.9,5.3c1.7,0,4.5-0.1,6.2-0.8c1.6-0.7,2.4-2.1,2.8-4.7c0.1-0.7,0.3-1,0.7-1c0.5,0,0.6,0.8,0.6,1.5
		c0,1.4-0.5,5.7-0.9,7c-0.4,1.6-1,1.6-3.5,1.6c-4.9,0-8.9-0.1-12.1-0.2c-3.2-0.1-5.7-0.1-7.6-0.1c-0.7,0-2.2,0.1-3.7,0.1
		c-1.6,0.1-3.2,0.1-4.5,0.1c-0.8,0-1.3-0.2-1.3-0.7c0-0.3,0.2-0.7,1-0.7c1,0,1.7-0.1,2.3-0.2c1.3-0.3,1.7-1.5,1.9-3.4
		c0.3-2.7,0.3-7.7,0.3-13.5L249.7,106.3"/>
	<path id="path50" inkscape:connector-curvature="0" class="st0" d="M302.6,111.2c0,0.7,0.1,0.9,0.6,1.1c1.4,0.4,3.4,0.6,5,0.6
		c2.6,0,3.5-0.2,4.6-1c2-1.4,4.2-4.2,4.2-9.4c0-8.9-6.1-11.2-10-11.2c-1.6,0-3.2,0.1-3.9,0.2c-0.4,0.1-0.6,0.4-0.6,0.9V111.2z
		 M294.3,106.3c0-9.6,0-11.4-0.1-13.4c-0.1-2.2-0.7-2.8-2.8-3.4c-0.5-0.1-1.6-0.2-2.6-0.2c-0.7,0-1.1-0.2-1.1-0.7
		c0-0.4,0.5-0.6,1.5-0.6c3.4,0,7.6,0.1,8.9,0.1c2.2,0,8.2-0.1,10.2-0.1c4.2,0,8.9,0.4,12.4,2.7c1.9,1.3,4.6,4.5,4.6,8.7
		c0,4.7-2.7,8.9-9.1,14c5.8,7.1,10.4,12.9,14.4,16.8c3.6,3.6,6,3.9,7,4.2c0.7,0.1,1,0.1,1.6,0.1s0.8,0.4,0.8,0.7
		c0,0.5-0.4,0.7-1.3,0.7h-6.3c-3.6,0-5.4-0.4-7.2-1.3c-2.8-1.4-5.3-4.4-8.9-9.3c-2.6-3.4-5.4-7.7-6.2-8.6c-0.4-0.4-0.7-0.4-1.2-0.4
		l-5.9-0.1c-0.3,0-0.5,0.1-0.5,0.5v0.9c0,5.9,0.1,10.8,0.4,13.5c0.2,1.9,0.5,3.1,2.5,3.4c1,0.1,2.4,0.2,3.2,0.2
		c0.5,0,0.8,0.4,0.8,0.7c0,0.4-0.5,0.7-1.3,0.7c-3.8,0-9.2-0.2-10.2-0.2c-1.3,0-5.4,0.2-8,0.2c-0.8,0-1.3-0.2-1.3-0.7
		c0-0.3,0.2-0.7,1-0.7c1,0,1.7-0.1,2.3-0.2c1.3-0.3,1.7-1.5,1.9-3.4c0.3-2.7,0.3-7.7,0.3-13.5L294.3,106.3"/>
</g>
</svg>
