<?xml version="1.0" encoding="utf-8"?>
<!-- Generator: Adobe Illustrator 19.2.1, SVG Export Plug-In . SVG Version: 6.00 Build 0)  -->
<svg version="1.1" id="Layer_1" xmlns="http://www.w3.org/2000/svg" xmlns:xlink="http://www.w3.org/1999/xlink" x="0px" y="0px"
	 viewBox="0 0 340 106" style="enable-background:new 0 0 340 106;" xml:space="preserve">
<style type="text/css">
	.st0{fill:url(#SVGID_1_);}
	.st1{fill:url(#SVGID_2_);}
	.st2{fill:url(#SVGID_3_);}
	.st3{fill:url(#SVGID_4_);}
	.st4{fill:url(#SVGID_5_);}
</style>
<g>
	
		<linearGradient id="SVGID_1_" gradientUnits="userSpaceOnUse" x1="261.8438" y1="133.9482" x2="287.7156" y2="119.0111" gradientTransform="matrix(1 0 0 -1 0 161.994)">
		<stop  offset="0" style="stop-color:#C7140B"/>
		<stop  offset="0.75" style="stop-color:#FF3C1F"/>
	</linearGradient>
	<path class="st0" d="M303.7,0l-16.6,49.1l-10.3-40c-2.3-9.1-5.3-9.1-7-9.1c0,0-3.7,0-7.5,1.1l-8,35.6l15.5,69.1h31L340,0
		C340,0,303.7,0,303.7,0z"/>
	
		<linearGradient id="SVGID_2_" gradientUnits="userSpaceOnUse" x1="192.7639" y1="118.1993" x2="227.4949" y2="98.1474" gradientTransform="matrix(1 0 0 -1 0 161.994)">
		<stop  offset="0" style="stop-color:#C7140B"/>
		<stop  offset="0.75" style="stop-color:#FF3C1F"/>
	</linearGradient>
	<path class="st1" d="M225.5,49.2l-12.7-40c-2.7-8.6-6.6-9.2-9-9.2c0,0-4.4,0-9.1,1.1v62.2l16.6,42.6l4.9,0l16.3-1.1L225.5,49.2z"/>
	
		<linearGradient id="SVGID_3_" gradientUnits="userSpaceOnUse" x1="242.9544" y1="56.1744" x2="242.9544" y2="161.988" gradientTransform="matrix(1 0 0 -1 0 161.994)">
		<stop  offset="0" style="stop-color:#FF3C1F"/>
		<stop  offset="0.85" style="stop-color:#FF3C1F"/>
		<stop  offset="0.95" style="stop-color:#FF7700"/>
	</linearGradient>
	<path class="st2" d="M269.8,0l-28.1,0c-2.1,0-7.7,0-9.2,9.1l-16.4,96.7h25.7l21.1-96.7C264.8,0,269.2,0,269.8,0z"/>
	
		<linearGradient id="SVGID_4_" gradientUnits="userSpaceOnUse" x1="10.0903" y1="104.7653" x2="106.2909" y2="121.7281" gradientTransform="matrix(1 0 0 -1 0 161.994)">
		<stop  offset="0" style="stop-color:#FF3C1F"/>
		<stop  offset="0.7" style="stop-color:#FF3C1F"/>
		<stop  offset="1" style="stop-color:#C7140B"/>
	</linearGradient>
	<path class="st3" d="M99.4,1.1c0,0-4.5-1.1-9.1-1.1H0l11.2,30.2h27.7v75.6h30.2V30.2h30.2L99.4,1.1L99.4,1.1z"/>
	
		<linearGradient id="SVGID_5_" gradientUnits="userSpaceOnUse" x1="147.0361" y1="56.1736" x2="147.0361" y2="161.994" gradientTransform="matrix(1 0 0 -1 0 161.994)">
		<stop  offset="0" style="stop-color:#FF3C1F"/>
		<stop  offset="0.85" style="stop-color:#FF3C1F"/>
		<stop  offset="0.95" style="stop-color:#FF7700"/>
	</linearGradient>
	<path class="st4" d="M175,0c-5,0-9.1,4.1-9.1,9.1v38.2L133.3,6c-3-3.9-7.7-6-12-6L90.3,0c0,0,7.6,0,7.6,9.1v96.7h30.2V48.2l41.1,52
		c3,3.7,7.4,5.7,11.9,5.6h15V9.1c0-5.4,3.4-9.1,7.6-9.1L175,0L175,0z"/>
</g>
</svg>
