<svg width="120" height="44" viewBox="0 0 546 194" xmlns="http://www.w3.org/2000/svg" class="nav-logo">
  <title>
    wm_no_bg_white
  </title>
  <g fill="none" fill-rule="evenodd">
    <path d="M316.79 65.3c-15.288 0-24.785 12.146-24.785 31.7s9.497 31.7 24.786 31.7c5.75 0 11.09-1.63 15.44-4.712l.21-.15V101.87h-22v-7.8h31v32.737c-6.56 6.344-15.08 9.694-24.64 9.694-20.523 0-33.783-15.5-33.783-39.5 0-23.99 13.26-39.5 33.786-39.5 9.993 0 18.428 3.65 24.43 10.56l-5.995 4.98c-4.53-5.13-10.73-7.74-18.44-7.74zm173.094 69.95h-6.948l-2.334-6.448-.553.497c-.08.06-7.83 6.95-17.59 6.95-9.85 0-17-6.56-17-15.59 0-13.07 11.28-15.82 20.75-15.82 7.37 0 13.98 1.66 14.04 1.677l.62.16v-1.58c0-7.115-4.44-10.723-13.208-10.723-5.308 0-10.917 1.31-16.25 3.792l-3.6-6.213c4.705-3.062 11.85-6.58 19.85-6.58 13.91 0 22.21 7.556 22.21 20.21v29.662zm-19.195-23.473c-10.62 0-16.23 3.074-16.23 8.89 0 4.06 3.06 6.583 8 6.583 8.13 0 15.26-3.332 18.2-5.302l.22-.148v-9.18l-.42-.07c-.048-.01-4.59-.773-9.78-.773zm-30.24 15.673v7.8h-29.99v-74h9v66.2h20.994zm80.48 9.05c-5.845 0-12.253-.804-19.05-2.39V61.25h9v28.063l.774-.502c.05-.03 5.07-3.24 11.99-3.24 1.38 0 2.76.13 4.094.39 11.344 2.327 18.117 11.48 18.117 24.49 0 15.344-10.25 26.06-24.924 26.06zm1-42.122c-3.578 0-7.32 1.225-10.825 3.54l-.224.15v29.834l.428.063c3.38.495 6.614.747 9.62.747 9.376 0 15.925-7.515 15.925-18.273 0-10.21-5.44-16.07-14.925-16.07zM398.45 86.25v7.8h-15v22.9c0 2.805 1.093 5.442 3.077 7.424 1.982 1.984 4.62 3.076 7.424 3.076h4.5v7.8h-4.5c-10.75 0-19.5-8.748-19.5-19.5v-54.5h9v25h15zm-45.01-20h9v9h-9v-9zm0 20h9v49h-9v-49z" fill="#FFF"/>
    <path d="M105.06 193.655l38.64-118.92H66.42l38.64 118.92z" fill="#E24329" class="logo-svg-shape logo-dark-orange-shape"/>
    <path d="M105.06 193.655L66.42 74.735H12.27l92.793 118.92z" fill="#FC6D26" class="logo-svg-shape logo-orange-shape" />
    <path d="M12.268 74.734L.526 110.874c-1.07 3.295.102 6.906 2.907 8.943l101.628 73.838-92.79-118.92z" fill="#FCA326" class="logo-svg-shape logo-light-orange-shape" />
    <path d="M12.268 74.734H66.42L43.15 3.11c-1.197-3.687-6.41-3.686-7.608 0L12.27 74.733h-.002z" fill="#E24329" class="logo-svg-shape logo-dark-orange-shape"/>
    <path d="M105.06 193.655l38.64-118.92h54.154l-92.793 118.92z" fill="#FC6D26" class="logo-svg-shape logo-orange-shape" />
    <path d="M197.854 74.734l11.742 36.14c1.07 3.295-.102 6.906-2.906 8.943l-101.63 73.838 92.794-118.92z" fill="#FCA326" class="logo-svg-shape logo-light-orange-shape" />
    <path d="M197.854 74.734H143.7L166.975 3.11c1.197-3.687 6.41-3.686 7.608 0l23.272 71.624z" fill="#E24329" class="logo-svg-shape logo-dark-orange-shape"/>
  </g>
</svg>
