<svg width="140" height="44" viewBox="0 0 1231 342" xmlns="http://www.w3.org/2000/svg" class="nav-logo">
  <title>
    wm_web
  </title>
  <g fill="none" fill-rule="evenodd">
    <path d="M854.337 70.104h-27.24l.085 202.792h110.203V247.82h-82.96l-.088-177.716zm187.983 167.188c-6.81 7.12-18.263 14.242-33.74 14.242-20.742 0-29.1-10.217-29.1-23.53 0-20.125 13.93-29.723 43.648-29.723 5.572 0 14.55.62 19.192 1.55v37.467zm-28.17-122.915c-21.998 0-42.175 7.8-57.92 20.783l9.63 16.68c11.143-6.5 24.765-13.004 44.266-13.004 22.288 0 32.194 11.457 32.194 30.652v9.907c-4.334-.928-13.31-1.55-18.882-1.55-47.673 0-71.818 16.72-71.818 51.707 0 31.27 19.192 47.06 48.29 47.06 19.6 0 38.386-8.98 44.886-23.53l4.953 19.814h19.19V169.178c0-32.82-14.24-54.8-54.79-54.8zm142.688 138.085c-10.215 0-19.193-1.238-26.003-4.335v-93.81c9.287-7.74 20.74-13.315 35.29-13.315 26.312 0 36.528 18.576 36.528 48.61 0 42.724-16.407 62.85-45.815 62.85m11.45-138.086c-24.347 0-37.453 16.565-37.453 16.565v-26.16l-.086-34.672h-26.627l.086 197.84c13.31 5.572 31.574 8.667 51.387 8.667 50.767 0 75.22-32.505 75.22-88.544 0-44.274-22.6-73.69-62.534-73.69m-610.07-22.29c24.144 0 39.623 8.05 49.84 16.1l11.705-20.282C603.804 73.91 582.343 66.39 559.452 66.39c-57.886 0-98.438 35.296-98.438 106.505 0 74.616 43.748 103.72 93.795 103.72 25.077 0 46.436-5.883 60.366-11.766l-.57-79.727v-25.08H540.31v25.08h47.362l.57 60.526c-6.19 3.097-17.025 5.573-31.573 5.573-40.248 0-67.18-25.318-67.18-78.64 0-54.18 27.86-80.497 68.72-80.497m191.58-21.982h-26.62l.086 34.056v117.654c0 32.818 14.24 54.8 54.792 54.8 5.6 0 11.082-.51 16.404-1.476v-23.91c-3.853.59-7.966.926-12.382.926-22.288 0-32.194-11.455-32.194-30.65v-81.117h44.577v-22.292H749.88l-.086-47.99zm-94.173 202.79h26.622V118.092h-26.62v154.804zm0-176.166h26.622V70.102h-26.62V96.73z" fill="#FFF"/>
    <path d="M185.398 341.13l68.013-209.322H117.39L185.4 341.13z" fill="#E24329" class="logo-svg-shape logo-dark-orange-shape"/>
    <path d="M185.398 341.13l-68.013-209.322h-95.32L185.4 341.128z" fill="#FC6D26" class="logo-svg-shape logo-orange-shape"/>
    <path d="M22.066 131.808l-20.67 63.61c-1.884 5.803.18 12.16 5.117 15.744L185.398 341.13 22.066 131.807z" fill="#FCA326" class="logo-svg-shape logo-light-orange-shape"/>
    <path d="M22.066 131.808h95.32L76.42 5.735c-2.107-6.487-11.284-6.487-13.39 0L22.065 131.808z" fill="#E24329" class="logo-svg-shape logo-dark-orange-shape"/>
    <path d="M185.398 341.13l68.013-209.322h95.32L185.4 341.128z" fill="#FC6D26" class="logo-svg-shape logo-orange-shape"/>
    <path d="M348.73 131.808l20.67 63.61c1.884 5.803-.18 12.16-5.117 15.744L185.398 341.13 348.73 131.807z" fill="#FCA326" class="logo-svg-shape logo-light-orange-shape"/>
    <path d="M348.73 131.808h-95.32L294.376 5.735c2.108-6.487 11.285-6.487 13.392 0l40.963 126.073z" fill="#E24329" class="logo-svg-shape logo-dark-orange-shape"/>
  </g>
</svg>
