<svg xmlns="http://www.w3.org/2000/svg" viewBox="0 0 32 32"><title>Asset 56</title><g id="Layer_2" data-name="Layer 2"><g id="Layer_1-2" data-name="Layer 1"><path d="M11.29,12.9a1,1,0,0,0-1.37-.36l-4.49,2.6a1,1,0,0,0,0,1.73l4.49,2.6a1,1,0,0,0,.5.13,1,1,0,0,0,.5-1.87L7.93,16l3-1.73A1,1,0,0,0,11.29,12.9Z"/><path d="M26.56,15.13l-4.49-2.6a1,1,0,1,0-1,1.73l3,1.73-3,1.73a1,1,0,0,0,.5,1.87,1,1,0,0,0,.5-.13l4.49-2.6a1,1,0,0,0,0-1.73Z"/><path d="M18.33,9.16a1,1,0,0,0-1.27.62L13,21.57a1,1,0,0,0,.62,1.27,1,1,0,0,0,.32.05,1,1,0,0,0,.95-.68l4-11.79A1,1,0,0,0,18.33,9.16Z"/><path d="M28.63,0H3.37A3.3,3.3,0,0,0,0,3.22V28.78A3.3,3.3,0,0,0,3.37,32H28.63A3.3,3.3,0,0,0,32,28.78V3.22A3.3,3.3,0,0,0,28.63,0ZM30,28.78A1.3,1.3,0,0,1,28.63,30H3.37A1.3,1.3,0,0,1,2,28.78V3.22A1.3,1.3,0,0,1,3.37,2H28.63A1.3,1.3,0,0,1,30,3.22Z"/></g></g></svg>