<svg xmlns="http://www.w3.org/2000/svg" viewBox="0 0 32 32"><title>Asset 66</title><g id="Layer_2" data-name="Layer 2"><g id="Layer_1-2" data-name="Layer 1"><path d="M20.6,17l1.82-1a1.6,1.6,0,0,0,.83-1.42,1,1,0,0,0,0-.26,1.55,1.55,0,0,0-1-1.22L10,7.91A1.62,1.62,0,0,0,7.9,10l5.22,12.27a1.67,1.67,0,0,0,1.43,1A1.63,1.63,0,0,0,16,22.44l1.08-1.86,3.34,3.34a1,1,0,0,0,1.41,0l2.12-2.12a1,1,0,0,0,0-1.41Zm.5,4.75-3.55-3.55a1,1,0,0,0-.71-.29h-.13a1,1,0,0,0-.74.49l-1.34,2.32L10.11,10.12l10.66,4.52L18.47,16a1,1,0,0,0-.21,1.57l3.55,3.55Z"/><path d="M28.63,0H3.37A3.3,3.3,0,0,0,0,3.22V28.78A3.3,3.3,0,0,0,3.37,32H28.63A3.3,3.3,0,0,0,32,28.78V3.22A3.3,3.3,0,0,0,28.63,0ZM30,28.78A1.3,1.3,0,0,1,28.63,30H3.37A1.3,1.3,0,0,1,2,28.78V3.22A1.3,1.3,0,0,1,3.37,2H28.63A1.3,1.3,0,0,1,30,3.22Z"/></g></g></svg>