<svg xmlns="http://www.w3.org/2000/svg" viewBox="0 0 32 32"><title>Asset 53</title><g id="Layer_2" data-name="Layer 2"><g id="Layer_1-2" data-name="Layer 1"><path d="M28.63,24H3.37A3.3,3.3,0,0,0,0,27.22v1.56A3.3,3.3,0,0,0,3.37,32H28.63A3.3,3.3,0,0,0,32,28.78V27.22A3.3,3.3,0,0,0,28.63,24ZM30,28.78A1.3,1.3,0,0,1,28.63,30H3.37A1.3,1.3,0,0,1,2,28.78V27.22A1.3,1.3,0,0,1,3.37,26H28.63A1.3,1.3,0,0,1,30,27.22Z"/><path d="M28.63,0H3.37A3.3,3.3,0,0,0,0,3.22V4.78A3.3,3.3,0,0,0,3.37,8H28.63A3.3,3.3,0,0,0,32,4.78V3.22A3.3,3.3,0,0,0,28.63,0ZM30,4.78A1.3,1.3,0,0,1,28.63,6H3.37A1.3,1.3,0,0,1,2,4.78V3.22A1.3,1.3,0,0,1,3.37,2H28.63A1.3,1.3,0,0,1,30,3.22Z"/><path d="M16,11a1,1,0,0,0-1,1v5.71l-2.9-2.53a1,1,0,0,0-1.31,1.51l4.56,4a1,1,0,0,0,1.31,0l4.56-4a1,1,0,1,0-1.31-1.51L17,17.71V12A1,1,0,0,0,16,11Z"/></g></g></svg>