<svg xmlns="http://www.w3.org/2000/svg" viewBox="0 0 32 32"><title>Asset 70</title><g id="Layer_2" data-name="Layer 2"><g id="Layer_1-2" data-name="Layer 1"><path d="M4.3,8.18a4,4,0,1,0-4-4A4,4,0,0,0,4.3,8.18Zm0-6a2,2,0,1,1-2,2A2,2,0,0,1,4.3,2.18Z"/><path d="M32,28.74l-14.2-14.2a2.06,2.06,0,0,0-.48-.35V10h12A1,1,0,0,0,30,8.29L26.71,5,30,1.71A1,1,0,0,0,29.3,0h-13a1,1,0,0,0-1,1V14.19a2.06,2.06,0,0,0-.48.35L.61,28.74a2.1,2.1,0,0,0,0,3,1,1,0,0,0,.71.29h30a1,1,0,0,0,.71-.29A2.1,2.1,0,0,0,32,28.74ZM26.88,2,24.59,4.29a1,1,0,0,0,0,1.41L26.88,8H17.3V2ZM16.2,16l.09,0,.09,0,3,3H13.18Zm-14,14,9.06-9.06a1,1,0,0,0,.3.06H21a1,1,0,0,0,.34-.07L30.41,30Z"/></g></g></svg>
