<svg xmlns="http://www.w3.org/2000/svg" viewBox="0 0 32 32"><title>Asset 63</title><g id="Layer_2" data-name="Layer 2"><g id="Layer_1-2" data-name="Layer 1"><path d="M28.63,0H3.37A3.3,3.3,0,0,0,0,3.22V28.78A3.3,3.3,0,0,0,3.37,32H28.63A3.3,3.3,0,0,0,32,28.78V3.22A3.3,3.3,0,0,0,28.63,0ZM30,28.78A1.3,1.3,0,0,1,28.63,30H3.37A1.3,1.3,0,0,1,2,28.78V3.22A1.3,1.3,0,0,1,3.37,2H28.63A1.3,1.3,0,0,1,30,3.22Z"/><path d="M19.71,18.29a.94.94,0,0,0-.13-.08,7,7,0,1,0-1.37,1.37.94.94,0,0,0,.08.13l5.5,5.5a1,1,0,0,0,1.41-1.41ZM14,19a5,5,0,1,1,5-5A5,5,0,0,1,14,19Z"/></g></g></svg>