<svg xmlns="http://www.w3.org/2000/svg" viewBox="0 0 32 32"><title>Asset 69</title><g id="Layer_2" data-name="Layer 2"><g id="Layer_1-2" data-name="Layer 1"><path d="M28.63,0H3.37A3.3,3.3,0,0,0,0,3.22V28.78A3.3,3.3,0,0,0,3.37,32H28.63A3.3,3.3,0,0,0,32,28.78V3.22A3.3,3.3,0,0,0,28.63,0ZM30,28.78A1.3,1.3,0,0,1,28.63,30H3.37A1.3,1.3,0,0,1,2,28.78V3.22A1.3,1.3,0,0,1,3.37,2H28.63A1.3,1.3,0,0,1,30,3.22Z"/><path d="M25.45,15.61l-1.69-.51a7.81,7.81,0,0,0-.3-1.34l1.3-1.2a1,1,0,0,0,.2-1.21A10.12,10.12,0,0,0,22.68,8.5a1,1,0,0,0-1.22-.07L20,9.43a7.72,7.72,0,0,0-1.23-.59l-.13-1.76a1,1,0,0,0-.82-.91,10.12,10.12,0,0,0-3.65,0,1,1,0,0,0-.82.91l-.13,1.76A7.72,7.72,0,0,0,12,9.43l-1.46-1a1,1,0,0,0-1.22.07A10.12,10.12,0,0,0,7,11.36a1,1,0,0,0,.2,1.21l1.3,1.2a7.81,7.81,0,0,0-.3,1.34l-1.69.51a1,1,0,0,0-.71,1,10.14,10.14,0,0,0,.81,3.55,1,1,0,0,0,1.07.59l1.75-.27a7.86,7.86,0,0,0,.85,1.07L9.68,23.2A1,1,0,0,0,10,24.38,10.12,10.12,0,0,0,13.3,26a1,1,0,0,0,1.13-.47L15.31,24a7.65,7.65,0,0,0,1.37,0l.88,1.53a1,1,0,0,0,.87.5,1,1,0,0,0,.26,0A10.12,10.12,0,0,0,22,24.38a1,1,0,0,0,.34-1.18l-.65-1.64a7.86,7.86,0,0,0,.85-1.07l1.75.27a1,1,0,0,0,1.07-.59,10.14,10.14,0,0,0,.81-3.55A1,1,0,0,0,25.45,15.61Zm-1.67,3-1.61-.25a1,1,0,0,0-1,.51,5.81,5.81,0,0,1-1.3,1.63,1,1,0,0,0-.27,1.12l.6,1.51a8,8,0,0,1-1.27.61l-.81-1.41a1,1,0,0,0-.87-.5l-.18,0a5.84,5.84,0,0,1-2.08,0,1,1,0,0,0-1,.49l-.81,1.41a8,8,0,0,1-1.27-.61l.6-1.51a1,1,0,0,0-.27-1.12,5.81,5.81,0,0,1-1.3-1.63,1,1,0,0,0-1-.51l-1.61.25a8.15,8.15,0,0,1-.31-1.37l1.56-.47a1,1,0,0,0,.71-.91,5.82,5.82,0,0,1,.46-2,1,1,0,0,0-.24-1.13l-1.2-1.1a8.05,8.05,0,0,1,.88-1.1l1.34.92a1,1,0,0,0,1.15,0,5.79,5.79,0,0,1,1.88-.9,1,1,0,0,0,.73-.89L15.3,8A8.07,8.07,0,0,1,16.7,8l.12,1.62a1,1,0,0,0,.73.89,5.79,5.79,0,0,1,1.88.9,1,1,0,0,0,1.15,0l1.34-.92a8.05,8.05,0,0,1,.88,1.1l-1.2,1.1a1,1,0,0,0-.24,1.13,5.82,5.82,0,0,1,.46,2,1,1,0,0,0,.71.91l1.56.47A8.15,8.15,0,0,1,23.77,18.66Z"/><path d="M16,12.42a3.75,3.75,0,1,0,3.75,3.75A3.75,3.75,0,0,0,16,12.42Zm0,5.5a1.75,1.75,0,1,1,1.75-1.75A1.75,1.75,0,0,1,16,17.91Z"/></g></g></svg>