<svg xmlns="http://www.w3.org/2000/svg" viewBox="0 0 32 32"><title>Asset 58</title><g id="Layer_2" data-name="Layer 2"><g id="Layer_1-2" data-name="Layer 1"><path d="M29,13H12a1,1,0,0,0,0,2H29a1,1,0,0,0,0-2Z"/><path d="M12,18H25a1,1,0,0,0,0-2H12a1,1,0,0,0,0,2Z"/><path d="M29,25H12a1,1,0,0,0,0,2H29a1,1,0,0,0,0-2Z"/><path d="M25,28H12a1,1,0,0,0,0,2H25a1,1,0,0,0,0-2Z"/><path d="M4.5,11A4.5,4.5,0,1,0,9,15.5,4.5,4.5,0,0,0,4.5,11Zm0,7A2.5,2.5,0,1,1,7,15.5,2.5,2.5,0,0,1,4.5,18Z"/><path d="M4.5,23A4.5,4.5,0,1,0,9,27.5,4.5,4.5,0,0,0,4.5,23Zm0,7A2.5,2.5,0,1,1,7,27.5,2.5,2.5,0,0,1,4.5,30Z"/><path d="M28.63,0H3.37A3.3,3.3,0,0,0,0,3.22V4.78A3.3,3.3,0,0,0,3.37,8H28.63A3.3,3.3,0,0,0,32,4.78V3.22A3.3,3.3,0,0,0,28.63,0ZM30,4.78A1.3,1.3,0,0,1,28.63,6H3.37A1.3,1.3,0,0,1,2,4.78V3.22A1.3,1.3,0,0,1,3.37,2H28.63A1.3,1.3,0,0,1,30,3.22Z"/></g></g></svg>