<?xml version="1.0" standalone="no"?>
<!DOCTYPE svg PUBLIC "-//W3C//DTD SVG 1.1//EN" "http://www.w3.org/Graphics/SVG/1.1/DTD/svg11.dtd" >
<svg>
<metadata>
Created by FontForge 20120731 at Wed Dec 24 11:20:49 2014
 By Orthosie Webhosting
Copyright (c) 2010 by Rian Hughes / Device. All rights reserved.
</metadata>
<defs>
<font id="KorolevLightItalic" horiz-adv-x="529" >
  <font-face 
    font-family="KorolevLightItalic"
    font-weight="300"
    font-style="italic"
    font-stretch="normal"
    units-per-em="1000"
    panose-1="2 0 0 0 0 0 0 0 0 0"
    ascent="750"
    descent="-250"
    x-height="562"
    cap-height="705"
    bbox="-171 -281 1552.17 986"
    underline-thickness="50"
    underline-position="-50"
    unicode-range="U+0020-FB02"
  />
<missing-glyph horiz-adv-x="496" 
d="M60 0v700h376v-700h-376zM82 680v-658l154 328zM415 22v658l-155 -330zM248 325l-142 -303h284zM106 680l142 -305l142 305h-284z" />
    <glyph glyph-name="fi" unicode="fi" horiz-adv-x="477" 
d="M475 629h-58q7 30 -8 51.5t-64 21.5q-66 0 -89.5 -28.5t-38.5 -96.5l-3 -16h109l-11 -51h-109l-108 -510h-57l108 510h-68l11 51h68l4 21q20 92 58 131t126 39q76 0 109 -34t21 -89zM342 0h-58l119 562h58z" />
    <glyph glyph-name="fl" unicode="fl" horiz-adv-x="473" 
d="M342 0h-58l123 582q8 38 9 64.5t-17.5 41t-59.5 14.5q-61 0 -84 -29t-38 -96l-3 -16h109l-11 -51h-109l-108 -510h-57l108 510h-68l11 51h68l4 21q20 92 57.5 131t120.5 39t114 -40.5t12 -129.5z" />
    <glyph glyph-name=".notdef" horiz-adv-x="496" 
d="M60 0v700h376v-700h-376zM82 680v-658l154 328zM415 22v658l-155 -330zM248 325l-142 -303h284zM106 680l142 -305l142 305h-284z" />
    <glyph glyph-name=".null" horiz-adv-x="0" 
 />
    <glyph glyph-name="nonmarkingreturn" horiz-adv-x="333" 
 />
    <glyph glyph-name="space" unicode=" " horiz-adv-x="220" 
 />
    <glyph glyph-name="exclam" unicode="!" horiz-adv-x="202" 
d="M55 137l67 415q16 105 20 123q3 16 15.5 26.5t28.5 10.5t23.5 -10.5t4.5 -26.5q-8 -39 -31 -123l-110 -415h-18zM82 33q-4 -16 -18 -27.5t-30 -11.5t-24.5 11.5t-5.5 27.5t17 28t30 12t25 -11.5t6 -28.5z" />
    <glyph glyph-name="quotedbl" unicode="&#x22;" horiz-adv-x="316" 
d="M220 372l63 333h60l-76 -333h-47zM79 372l62 333h60l-76 -333h-46z" />
    <glyph glyph-name="numbersign" unicode="#" horiz-adv-x="560" 
d="M366 759h57l-146 -308h94l146 308h57l-146 -308h85l-11 -53h-99l-42 -90h122l-11 -53h-136l-143 -306h-56l143 306h-95l-143 -306h-55l142 306h-83l11 53h97l41 90h-119l11 53h133zM252 398l-42 -90h95l41 90h-94z" />
    <glyph glyph-name="dollar" unicode="$" horiz-adv-x="566" 
d="M440 707h-4q70 -20 103.5 -78t14.5 -148h-59q18 86 -21.5 132.5t-113.5 46.5q-161 0 -188 -124q-9 -43 6 -73t46.5 -46t71 -28.5t78.5 -27t70.5 -34.5t47 -57.5t6.5 -90.5q-14 -85 -71 -132t-143 -56l-14 -72h-31l15 70q-2 0 -7 -0.5t-8 -0.5q-31 0 -59 6l-16 -75h-31
l19 83q-67 24 -98 84t-12 150h58q-20 -94 21.5 -143t119.5 -49q77 0 130.5 33t67.5 101q9 42 -6.5 70.5t-47 44.5t-71 29t-78.5 27.5t-70 35.5t-46.5 59t-5.5 92q27 151 189 176l15 77h31l-15 -73q5 0 15 0.5t15 0.5q25 0 45 -4l15 76h31z" />
    <glyph glyph-name="percent" unicode="%" horiz-adv-x="1127" 
d="M816 -8q-96 0 -141 60t-23 164l9 40q22 104 83.5 163t154.5 59q95 0 141 -60.5t24 -161.5l-9 -40q-22 -106 -84 -165t-155 -59zM817 44q69 0 117.5 44.5t65.5 126.5l9 41q17 80 -12.5 125t-98.5 45t-117 -45t-65 -125l-9 -41q-17 -82 12 -126.5t98 -44.5zM246 228
q-96 0 -140.5 60.5t-22.5 164.5l8 40q22 103 83 162.5t155 59.5t140 -61t24 -161l-8 -40q-23 -106 -85 -165.5t-154 -59.5zM247 281q69 0 117 44.5t66 126.5l8 41q17 80 -12 124.5t-98 44.5q-70 0 -118 -44.5t-65 -124.5l-8 -41q-18 -82 10.5 -126.5t99.5 -44.5zM731 759h57
l-378 -810h-56z" />
    <glyph glyph-name="ampersand" unicode="&#x26;" horiz-adv-x="669" 
d="M163 524q-14 -62 17 -99.5t99 -37.5h96l-12 -53h-97q-67 0 -117.5 -33.5t-64.5 -96.5q-16 -76 26.5 -117.5t124.5 -41.5t145 48.5t83 143.5l32 150h144l-12 -55h-86q-22 -101 -24 -107q-29 -118 -104 -177.5t-181 -59.5q-112 0 -166.5 57t-40.5 158q9 63 53.5 104
t102.5 56q-96 37 -76 160q14 82 88 138t175 56q105 0 160 -62.5t32 -173.5h-60q19 89 -17.5 135t-115.5 46q-78 0 -134.5 -37t-69.5 -101z" />
    <glyph glyph-name="quotesingle" unicode="'" horiz-adv-x="174" 
d="M77 372l64 333h60l-77 -333h-47z" />
    <glyph glyph-name="parenleft" unicode="(" horiz-adv-x="305" 
d="M193 3l-11 -53q-104 0 -140.5 55t-11.5 176l73 344q14 66 28.5 105t42 70t70.5 43.5t109 12.5l-11 -52q-91 0 -126 -37t-55 -133l-77 -362q-24 -89 -3.5 -129t112.5 -40z" />
    <glyph glyph-name="parenright" unicode=")" horiz-adv-x="305" 
d="M-28 -50l11 53q91 0 125 36.5t54 132.5l77 362q13 59 11.5 96.5t-29 55.5t-90.5 18l11 52q112 0 145 -53.5t7 -177.5l-73 -344q-14 -66 -28.5 -105t-42 -70t-70 -43.5t-108.5 -12.5z" />
    <glyph glyph-name="asterisk" unicode="*" horiz-adv-x="506" 
d="M252 512l-125 79l29 35l125 -81l33 162h47l-36 -162l159 81l14 -38l-159 -79l126 -78l-29 -35l-125 81l-35 -162h-44l35 162l-159 -81l-14 37z" />
    <glyph glyph-name="plus" unicode="+" horiz-adv-x="479" 
d="M235 162h-53l35 164h-156l11 53h156l34 162h53l-34 -162h156l-11 -53h-156z" />
    <glyph glyph-name="comma" unicode="," horiz-adv-x="224" 
d="M-36 -124h-48l186 323h62z" />
    <glyph glyph-name="hyphen" unicode="-" horiz-adv-x="355" 
d="M308 306l-11 -48h-261l11 48h261z" />
    <glyph glyph-name="period" unicode="." horiz-adv-x="172" 
d="M67 33q-4 -16 -18 -27.5t-30 -11.5t-24.5 11.5t-4.5 27.5q3 17 16.5 28.5t29.5 11.5t25 -11.5t6 -28.5z" />
    <glyph glyph-name="slash" unicode="/" horiz-adv-x="301" 
d="M321 759h59l-380 -810h-58z" />
    <glyph glyph-name="zero" unicode="0" horiz-adv-x="586" 
d="M239 -8q-106 0 -163 69t-34 176l49 229q24 111 98 178.5t177 67.5q105 0 162.5 -69.5t34.5 -176.5l-49 -229q-24 -110 -98.5 -177.5t-176.5 -67.5zM241 49q79 0 137.5 52t78.5 145l45 211q20 92 -19 144.5t-119 52.5q-79 0 -137.5 -52t-78.5 -145l-45 -211
q-20 -92 19 -144.5t119 -52.5z" />
    <glyph glyph-name="one" unicode="1" horiz-adv-x="250" 
d="M49 0l127 601q-24 -21 -91 -21l12 57q55 0 75.5 13.5t28.5 54.5h56l-149 -705h-59z" />
    <glyph glyph-name="two" unicode="2" horiz-adv-x="568" 
d="M432 0h-450l9 42q12 58 44 102t73.5 70.5t89 48.5t95 41.5t88 43t71 60t40.5 85.5q17 77 -21 124t-117 47t-137 -51t-75 -132h-58q23 107 96.5 171.5t174.5 64.5q104 0 160 -62.5t36 -160.5q-14 -67 -54 -117t-90 -76.5t-108 -52.5t-107.5 -47t-88 -58t-50.5 -86h391z
" />
    <glyph glyph-name="three" unicode="3" horiz-adv-x="576" 
d="M504 518q14 68 -27 107t-118 39q-79 0 -136 -46.5t-76 -136.5h-57q24 113 95 174.5t177 61.5q103 0 161 -54.5t40 -139.5q-13 -60 -50.5 -101.5t-93.5 -58.5q50 -15 75.5 -55t12.5 -104q-22 -102 -95.5 -158.5t-181.5 -56.5q-110 0 -166.5 64t-32.5 181h60
q-20 -94 19 -142t122 -48q80 0 139.5 41.5t75.5 116.5q13 58 -22.5 95t-104.5 37h-109l12 53h108q65 0 112.5 36t60.5 95z" />
    <glyph glyph-name="four" unicode="4" horiz-adv-x="583" 
d="M11 187l12 56l447 462h54l-98 -462h106l-12 -56h-106l-39 -187h-58l39 187h-345zM86 243h282l80 374z" />
    <glyph glyph-name="five" unicode="5" horiz-adv-x="581" 
d="M448 229l7 30q17 80 -23.5 128t-117.5 48q-113 0 -187 -102q-31 7 -53 13q28 70 77.5 198t62.5 161h354l-12 -58h-305l-92 -233q70 77 171 77q100 0 153 -63t31 -169l-7 -30q-23 -109 -98 -174.5t-179 -65.5q-106 0 -161.5 68.5t-32.5 176.5h58q-18 -88 19.5 -138
t116.5 -50q78 0 139 48.5t79 134.5z" />
    <glyph glyph-name="six" unicode="6" horiz-adv-x="563" 
d="M223 -11q-110 0 -162 66t-30 177l4 20q21 107 90 191l213 262h70l-186 -223q48 22 102 22q105 0 155.5 -64t28.5 -169l-8 -39q-23 -112 -96.5 -177.5t-180.5 -65.5zM225 47q82 0 139 48.5t77 139.5l8 37q19 86 -18 134t-119 48q-83 0 -139 -48t-75 -134l-8 -37
q-20 -91 16 -139.5t119 -48.5z" />
    <glyph glyph-name="seven" unicode="7" horiz-adv-x="497" 
d="M142 0h-66l382 647h-339l12 58h423z" />
    <glyph glyph-name="eight" unicode="8" horiz-adv-x="576" 
d="M230 -12q-111 0 -169.5 51.5t-40.5 143.5q14 63 55 108.5t103 61.5q-100 42 -75 164q20 92 88 140t171 48q105 0 162 -49.5t37 -139.5q-27 -130 -140 -165q52 -17 73 -62.5t8 -105.5q-19 -93 -92 -144t-180 -51zM259 328q-69 0 -116.5 -38.5t-61.5 -102.5
q-15 -73 26.5 -108.5t124.5 -35.5q82 0 139 36t73 110q13 64 -16.5 101.5t-100.5 37.5h-68zM159 510q-28 -134 122 -134h41q151 0 180 133q15 71 -24 106t-117 35q-79 0 -133 -34.5t-69 -105.5z" />
    <glyph glyph-name="nine" unicode="9" horiz-adv-x="563" 
d="M356 710q110 0 162.5 -65.5t31.5 -176.5l-5 -26q-20 -104 -85 -180l-218 -262h-69q14 18 93.5 111.5t93.5 111.5q-53 -22 -102 -22q-105 0 -155.5 64t-28.5 169l7 34q23 112 95.5 177t179.5 65zM354 653q-83 0 -140.5 -48.5t-74.5 -139.5l-6 -32q-16 -87 19.5 -134
t116.5 -47q84 0 141.5 47.5t73.5 133.5l6 32q17 92 -18 140t-118 48z" />
    <glyph glyph-name="colon" unicode=":" horiz-adv-x="178" 
d="M67 33q-4 -16 -18 -27.5t-30 -11.5t-24.5 11.5t-4.5 27.5q3 17 16.5 28.5t29.5 11.5t25 -11.5t6 -28.5zM172 527q-4 -16 -18 -27.5t-30 -11.5t-25 11.5t-5 27.5q3 16 16.5 27.5t30.5 11.5q16 0 25 -11t6 -28z" />
    <glyph glyph-name="semicolon" unicode=";" horiz-adv-x="249" 
d="M-36 -124h-48l186 323h62zM228 527q-4 -16 -18.5 -27.5t-30.5 -11.5t-25 11.5t-5 27.5q3 16 17 27.5t30 11.5q17 0 26 -11.5t6 -27.5z" />
    <glyph glyph-name="less" unicode="&#x3c;" horiz-adv-x="472" 
d="M377 126l-12 -55l-317 194l9 44l400 196l-12 -60l-331 -160z" />
    <glyph glyph-name="equal" unicode="=" horiz-adv-x="454" 
d="M427 450l-11 -53h-340l11 53h340zM46 255l11 53h340l-11 -53h-340z" />
    <glyph glyph-name="greater" unicode="&#x3e;" horiz-adv-x="472" 
d="M7 71l13 62l331 159l-263 160l11 53l316 -196l-9 -44z" />
    <glyph glyph-name="question" unicode="?" horiz-adv-x="524" 
d="M211 137h-19q1 24 7 55q11 51 40 87.5t63.5 58t69 42.5t63 55.5t38.5 83.5q13 62 -25.5 101.5t-113.5 39.5q-84 0 -138.5 -45.5t-73.5 -133.5h-58q24 113 94.5 174.5t177.5 61.5q102 0 158 -55.5t39 -137.5q-10 -47 -30.5 -81t-46 -54.5t-54.5 -37.5t-58.5 -34t-55 -38
t-46.5 -57t-31 -85zM219 33q-4 -16 -18 -27t-30 -11q-17 0 -26 11t-5 27q3 16 17 28t31 12q16 0 25 -11.5t6 -28.5z" />
    <glyph glyph-name="at" unicode="@" horiz-adv-x="660" 
d="M287 123q-140 0 -104 171l27 125q33 160 161 160q43 0 67 -19t30 -49l13 62h43l-88 -415q95 2 116 99l40 186q23 112 -30 177t-159 65t-179.5 -64t-97.5 -178l-39 -184q-25 -114 29.5 -176t178.5 -62h181l-6 -30h-174q-140 0 -203.5 70t-35.5 198l39 184
q27 129 107 200.5t198 71.5q120 0 183.5 -73.5t37.5 -198.5l-40 -186q-9 -43 -30 -71t-51.5 -40t-55.5 -15.5t-59 -3.5l14 63q-23 -33 -47.5 -50t-65.5 -17zM297 160q95 0 123 128l27 127q27 126 -70 126q-98 0 -124 -126l-27 -127q-28 -128 71 -128z" />
    <glyph glyph-name="A" unicode="A" horiz-adv-x="597" 
d="M515 0h-61l-23 179h-316l-101 -179h-64l399 705h69zM372 639l-231 -409h284z" />
    <glyph glyph-name="B" unicode="B" horiz-adv-x="565" 
d="M12 0l149 705h196q111 0 163 -41t39 -137l-2 -15q-9 -66 -48 -105t-100 -51q108 -35 85 -160l-2 -11q-18 -100 -82.5 -142.5t-175.5 -42.5h-222zM436 193l2 11q12 65 -22.5 96.5t-106.5 31.5h-168l-58 -275h153q175 0 200 136zM208 647l-57 -266h172q151 0 173 129l2 12
q11 71 -25 98t-119 27h-146z" />
    <glyph glyph-name="C" unicode="C" horiz-adv-x="576" 
d="M457 247h59l-2 -10q-24 -110 -98.5 -177.5t-176.5 -67.5q-108 0 -163 72t-29 196l44 206q24 111 98 178.5t177 67.5q104 0 161 -71t35 -177h-59q18 89 -21.5 139.5t-117.5 50.5q-79 0 -137.5 -52t-78.5 -145l-42 -197q-23 -109 14.5 -160t120.5 -51q79 0 137.5 52
t78.5 146z" />
    <glyph glyph-name="D" unicode="D" horiz-adv-x="592" 
d="M244 0h-232l149 705h212q108 0 162.5 -69t28.5 -190l-39 -184q-27 -126 -101 -194t-180 -68zM83 57h157q85 0 145.5 53.5t83.5 163.5l34 161q45 212 -138 212h-157z" />
    <glyph glyph-name="E" unicode="E" horiz-adv-x="520" 
d="M141 330l-58 -273h332l-12 -57h-391l149 705h391l-12 -58h-332l-56 -264h238l-11 -53h-238z" />
    <glyph glyph-name="F" unicode="F" horiz-adv-x="496" 
d="M141 330l-70 -330h-59l149 705h377l-12 -58h-318l-56 -264h220l-11 -53h-220z" />
    <glyph glyph-name="G" unicode="G" horiz-adv-x="585" 
d="M365 654q-80 0 -139.5 -52t-79.5 -145l-45 -211q-20 -92 19 -144.5t119 -52.5q79 0 137.5 52t78.5 145l6 28h-175l11 53h235l-20 -92q-23 -110 -97.5 -176.5t-177.5 -66.5q-109 0 -164 75t-28 197l44 202q24 110 99 178t179 68q101 0 155 -63.5t42 -170.5h-60
q12 83 -26.5 129.5t-112.5 46.5z" />
    <glyph glyph-name="H" unicode="H" horiz-adv-x="605" 
d="M161 705h59l-68 -323h333l68 323h59l-149 -705h-59l70 330h-333l-70 -330h-59z" />
    <glyph glyph-name="I" unicode="I" horiz-adv-x="213" 
d="M161 705h59l-149 -705h-59z" />
    <glyph glyph-name="J" unicode="J" horiz-adv-x="546" 
d="M28 264h59l-7 -31q-19 -87 15.5 -136.5t109.5 -49.5q80 0 131.5 52.5t71.5 150.5l96 455h59l-100 -471q-24 -112 -91.5 -178.5t-168.5 -66.5q-104 0 -154 68t-28 177z" />
    <glyph glyph-name="K" unicode="K" horiz-adv-x="561" 
d="M141 331l-70 -331h-59l149 705h59l-67 -319h68l319 319h78l-349 -347l200 -358h-67l-184 331h-77z" />
    <glyph glyph-name="L" unicode="L" horiz-adv-x="473" 
d="M161 705h59l-137 -648h310l-12 -57h-369z" />
    <glyph glyph-name="M" unicode="M" horiz-adv-x="740" 
d="M351 112h-47l-112 458l-121 -570h-59l149 705h53l126 -519l348 519h59l-149 -705h-59l121 571z" />
    <glyph glyph-name="N" unicode="N" horiz-adv-x="629" 
d="M487 0h-51l-239 597l-126 -597h-59l149 705h50l240 -602l125 597h59z" />
    <glyph glyph-name="O" unicode="O" horiz-adv-x="586" 
d="M239 -8q-106 0 -162.5 70.5t-29.5 197.5l44 206q24 111 98 178.5t177 67.5q105 0 161.5 -71.5t28.5 -206.5l-42 -197q-24 -110 -98.5 -177.5t-176.5 -67.5zM241 49q79 0 137.5 52t78.5 145l40 188q24 110 -13.5 165t-119.5 55q-79 0 -137.5 -52t-78.5 -145l-42 -197
q-23 -108 14.5 -159.5t120.5 -51.5z" />
    <glyph glyph-name="P" unicode="P" horiz-adv-x="559" 
d="M266 204h-152l-43 -204h-59l149 705h191q108 0 164 -63.5t34 -176.5l-5 -26q-22 -114 -97 -174.5t-182 -60.5zM208 647l-82 -386h140q82 0 142.5 46t77.5 133l5 25q19 92 -21.5 137t-121.5 45h-140z" />
    <glyph glyph-name="Q" unicode="Q" horiz-adv-x="586" 
d="M341 -132h-64l-54 124q-95 9 -149 76t-33 166l50 236q24 112 94 179t172 67q107 0 168 -69.5t38 -176.5l-50 -236q-22 -101 -80.5 -165.5t-148.5 -74.5zM251 48q75 0 129.5 49.5t73.5 136.5l51 238q18 84 -26.5 135.5t-123.5 51.5q-75 0 -130 -49.5t-74 -136.5l-51 -239
q-18 -84 26.5 -135t124.5 -51z" />
    <glyph glyph-name="R" unicode="R" horiz-adv-x="559" 
d="M255 224h-137l-47 -224h-59l149 705h194q109 0 163.5 -61t33.5 -170l-5 -26q-18 -94 -78.5 -150t-151.5 -64l133 -234h-71zM208 647l-78 -366h140q82 0 141.5 42.5t76.5 124.5l6 28q18 86 -22.5 128.5t-123.5 42.5h-140z" />
    <glyph glyph-name="S" unicode="S" horiz-adv-x="581" 
d="M439 178q9 42 -6 71t-46 45t-70 29t-78.5 28.5t-70.5 36t-46.5 58.5t-7.5 90q14 90 83.5 135.5t158.5 42.5q45 -1 84.5 -15.5t70 -42t43 -73t0.5 -102.5h-59q18 85 -24 130t-116 47q-69 2 -119.5 -27.5t-63.5 -94.5q-8 -44 7 -74t46 -46.5t70 -29t78 -26.5t70 -34t47 -57
t8 -90q-14 -96 -81.5 -143.5t-170.5 -47.5q-105 0 -167 65.5t-37 182.5h58q-20 -93 24.5 -142.5t123.5 -49.5q163 0 191 134z" />
    <glyph glyph-name="T" unicode="T" horiz-adv-x="514" 
d="M221 0h-59l137 647h-195l12 58h450l-12 -58h-196z" />
    <glyph glyph-name="U" unicode="U" horiz-adv-x="606" 
d="M151 705h59l-100 -470q-18 -86 21.5 -136t116.5 -50t137.5 50.5t78.5 135.5l100 470h59l-99 -468q-23 -110 -99 -177.5t-179 -67.5q-105 0 -161 68.5t-33 176.5z" />
    <glyph glyph-name="V" unicode="V" horiz-adv-x="582" 
d="M253 0h-58l-94 705h59l80 -615l341 615h65z" />
    <glyph glyph-name="W" unicode="W" horiz-adv-x="833" 
d="M201 0h-57l-43 705h58l38 -592l275 592h52l25 -592l288 592h63l-343 -705h-56l-26 586z" />
    <glyph glyph-name="X" unicode="X" horiz-adv-x="553" 
d="M474 0h-62l-129 311l-262 -311h-72l309 362l-150 343h64l128 -300l243 300h73l-293 -351z" />
    <glyph glyph-name="Y" unicode="Y" horiz-adv-x="576" 
d="M101 705h62l127 -374l286 374h67l-333 -432l-58 -273h-59l58 273z" />
    <glyph glyph-name="Z" unicode="Z" horiz-adv-x="519" 
d="M121 647l12 58h428l-488 -648h337l-12 -57h-436l489 647h-330z" />
    <glyph glyph-name="bracketleft" unicode="[" horiz-adv-x="315" 
d="M363 756l-11 -52h-135l-149 -701h135l-11 -53h-191l171 806h191z" />
    <glyph glyph-name="backslash" unicode="\" horiz-adv-x="301" 
d="M113 759h55l37 -810h-56z" />
    <glyph glyph-name="bracketright" unicode="]" horiz-adv-x="315" 
d="M131 704l11 52h191l-171 -806h-190l11 53h133l149 701h-134z" />
    <glyph glyph-name="asciicircum" unicode="^" horiz-adv-x="527" 
d="M372 705l118 -351h-55l-97 295l-220 -295h-61l265 351h50z" />
    <glyph glyph-name="underscore" unicode="_" horiz-adv-x="550" 
d="M419 -85l-10 -47h-455l10 47h455z" />
    <glyph glyph-name="grave" unicode="`" horiz-adv-x="489" 
d="M328 586h-45l-60 157h58z" />
    <glyph glyph-name="a" unicode="a" horiz-adv-x="544" 
d="M192 -10q-94 0 -138 59.5t-22 163.5l29 137q22 105 83 162.5t152 57.5q65 0 108.5 -29t52.5 -72l20 93h54l-119 -562h-54l19 92q-67 -102 -185 -102zM208 39q74 0 124 47.5t69 133.5l28 130q17 81 -15 126t-104 45q-75 0 -125 -46.5t-68 -130.5l-27 -124
q-19 -86 11.5 -133.5t106.5 -47.5z" />
    <glyph glyph-name="b" unicode="b" horiz-adv-x="545" 
d="M236 -10q-65 0 -108.5 29t-52.5 73l-19 -92h-54l159 749h56l-60 -281q67 102 183 102q95 0 139.5 -59t22.5 -161l-29 -137q-23 -107 -83.5 -165t-153.5 -58zM222 39q75 0 126 47.5t69 132.5l26 124q17 84 -13 131t-106 47q-72 0 -123.5 -45t-68.5 -126l-28 -131
q-18 -85 13 -132.5t105 -47.5z" />
    <glyph glyph-name="c" unicode="c" 
d="M485 346h-57q17 82 -14 127t-107 45q-155 0 -192 -177l-28 -133q-17 -78 15.5 -123t108.5 -45q74 0 122.5 44.5t65.5 126.5h57q-22 -106 -84.5 -163.5t-161.5 -57.5q-102 0 -151 60.5t-27 161.5l28 132q22 106 85 165.5t162 59.5q103 0 151.5 -59.5t26.5 -163.5z" />
    <glyph glyph-name="d" unicode="d" horiz-adv-x="545" 
d="M193 -10q-95 0 -139 59.5t-22 163.5l29 137q22 104 83 162t153 58q65 0 107.5 -29t50.5 -73l60 281h57l-159 -749h-54l19 92q-66 -102 -185 -102zM209 39q74 0 124.5 47.5t68.5 132.5l28 131q17 81 -15 126t-104 45q-76 0 -127 -47.5t-68 -130.5l-26 -124
q-18 -85 13 -132.5t106 -47.5z" />
    <glyph glyph-name="e" unicode="e" horiz-adv-x="524" 
d="M486 352l-18 -84h-369l-14 -66q-16 -75 19 -119t107 -44q68 0 114.5 39t66.5 100l2 6h57l-1 -4q-21 -82 -83 -136t-157 -54q-103 0 -151 59t-27 163l28 135q22 107 85 165.5t163 58.5q101 0 150.5 -58.5t27.5 -160.5zM118 356l-9 -44h312l9 43q17 81 -16 123.5t-107 42.5
t-123.5 -43.5t-65.5 -121.5z" />
    <glyph glyph-name="f" unicode="f" horiz-adv-x="330" 
d="M346 561l-11 -51h-132l-108 -510h-57l108 510h-66l11 51h66q24 112 64 151.5t127 39.5q10 0 24 -1t15 -1l-11 -50q-8 2 -29 2q-61 0 -88 -28t-45 -113h132z" />
    <glyph glyph-name="g" unicode="g" horiz-adv-x="544" 
d="M192 -10q-94 0 -138 59.5t-22 163.5l29 137q22 104 81 161.5t148 57.5q67 0 113 -28t54 -72l20 93h54l-120 -565q-23 -109 -76 -159t-170 -50q-114 0 -154.5 47.5t-25.5 121.5h54q-11 -54 17 -88t109 -34q84 0 127.5 37.5t59.5 115.5l22 104q-64 -102 -182 -102zM207 37
q72 0 123 45.5t69 127.5l32 148q16 77 -16.5 120t-104.5 43q-75 0 -125 -46.5t-68 -130.5l-27 -126q-19 -87 11.5 -134t105.5 -47z" />
    <glyph glyph-name="h" unicode="h" horiz-adv-x="550" 
d="M428 0h-57l73 346q37 175 -120 175q-156 0 -193 -175l-73 -346h-56l159 749h56l-60 -281q60 102 185 102q91 0 137 -56.5t24 -158.5z" />
    <glyph glyph-name="i" unicode="i" horiz-adv-x="182" 
d="M54 0h-57l119 562h57zM212 696q-3 -16 -17 -27.5t-30 -11.5t-25 11.5t-6 27.5q4 16 17.5 27.5t30.5 11.5q16 0 25 -11t5 -28z" />
    <glyph glyph-name="j" unicode="j" horiz-adv-x="180" 
d="M-171 -208l12 53q74 0 106.5 36.5t52.5 132.5l116 548h57l-115 -539q-27 -129 -73.5 -180t-155.5 -51zM210 696q-3 -16 -17 -27.5t-30 -11.5t-25 11.5t-6 27.5q4 16 18 27.5t30 11.5t25 -11t5 -28z" />
    <glyph glyph-name="k" unicode="k" horiz-adv-x="499" 
d="M410 0h-68l-166 258h-63l-54 -258h-57l159 749h57l-94 -442h55l270 255h77l-303 -280z" />
    <glyph glyph-name="l" unicode="l" horiz-adv-x="191" 
d="M161 749h57l-159 -749h-57z" />
    <glyph glyph-name="m" unicode="m" horiz-adv-x="782" 
d="M121 562h54l-16 -75q55 83 147 83q54 0 92 -27t46 -76q56 103 167 103q77 0 112 -52t16 -142l-79 -376h-57l81 384q14 66 -9.5 102.5t-81.5 36.5q-57 0 -97 -35.5t-54 -97.5l-82 -390h-57l81 384q14 66 -10 102.5t-82 36.5q-57 0 -98 -35.5t-54 -97.5l-82 -390h-56z" />
    <glyph glyph-name="n" unicode="n" horiz-adv-x="550" 
d="M428 0h-57l73 344q18 84 -12 130.5t-108 46.5q-77 0 -126 -45t-67 -130l-73 -346h-56l119 562h54l-20 -94q67 102 185 102q95 0 139.5 -59t22.5 -161z" />
    <glyph glyph-name="o" unicode="o" 
d="M210 -10q-105 0 -152.5 61.5t-22.5 177.5l25 117q22 104 85 163t162 59q101 0 150 -61.5t26 -169.5l-26 -122q-22 -105 -86 -165t-161 -60zM212 43q71 0 121 44t66 122l30 143q16 76 -17.5 119.5t-105.5 43.5q-73 0 -123 -43t-66 -120l-30 -143q-16 -78 17.5 -122
t107.5 -44z" />
    <glyph glyph-name="p" unicode="p" horiz-adv-x="550" 
d="M339 569q97 0 140 -63t19 -176l-25 -116q-23 -105 -83.5 -163t-152.5 -58q-64 0 -107 29.5t-52 72.5l-60 -280h-55l158 747h54l-20 -96q64 103 184 103zM324 520q-73 0 -124.5 -46t-68.5 -128l-27 -126q-17 -84 14 -131t104 -47q75 0 126 47t69 131l26 119
q19 86 -12 133.5t-107 47.5z" />
    <glyph glyph-name="q" unicode="q" horiz-adv-x="549" 
d="M299 568q66 0 109.5 -29.5t52.5 -73.5l21 97h54l-159 -747h-57l60 280q-67 -102 -183 -102q-93 0 -137.5 59.5t-22.5 161.5l28 131q23 106 83 164.5t151 58.5zM314 519q-75 0 -125.5 -47.5t-68.5 -133.5l-25 -121q-17 -85 13 -131.5t104 -46.5t125 47t69 131l27 128
q17 83 -14.5 128.5t-104.5 45.5z" />
    <glyph glyph-name="r" unicode="r" horiz-adv-x="336" 
d="M347 570h8l-12 -57q-82 0 -138.5 -45t-74.5 -127l-72 -341h-56l119 562h54l-22 -105q27 48 79 80.5t115 32.5z" />
    <glyph glyph-name="s" unicode="s" horiz-adv-x="505" 
d="M471 374h-54q32 150 -121 150q-66 0 -109 -29.5t-52 -75.5q-9 -40 10.5 -65t55 -34.5t77 -21.5t77.5 -24.5t57.5 -45t15.5 -81.5q-9 -74 -68 -117t-162 -43q-101 0 -150 56t-30 150h56q-16 -73 17 -114.5t107 -41.5t120 29t54 82q5 31 -10 51.5t-42.5 31t-61.5 18.5
t-68 19t-61 27t-41.5 48t-8.5 77q8 69 68 111.5t150 42.5q103 0 149 -51.5t25 -148.5z" />
    <glyph glyph-name="t" unicode="t" horiz-adv-x="326" 
d="M340 561l-11 -50h-158l-63 -295q-8 -38 -11 -62t-2 -47t10 -35t27 -19.5t47 -7.5q13 0 53 2q-2 -19 -10 -52q-27 -3 -50 -3q-94 0 -119.5 55t-2.5 163l64 301h-64l9 40q54 0 72.5 22.5t34.5 97.5h39l-23 -110h158z" />
    <glyph glyph-name="u" unicode="u" horiz-adv-x="540" 
d="M111 562h56l-80 -374q-14 -67 23.5 -107.5t105.5 -40.5t119 41t65 107l80 374h57l-78 -365q-20 -94 -85 -150.5t-159 -56.5q-98 0 -149.5 57.5t-32.5 149.5z" />
    <glyph glyph-name="v" unicode="v" horiz-adv-x="520" 
d="M224 0h-56l-92 562h60l74 -481l277 481h65z" />
    <glyph glyph-name="w" unicode="w" horiz-adv-x="747" 
d="M449 562l32 -468l241 468h62l-292 -562h-53l-34 460l-229 -460h-53l-52 562h57l41 -466l230 466h50z" />
    <glyph glyph-name="x" unicode="x" horiz-adv-x="520" 
d="M538 562l-250 -275l145 -287h-61l-122 249l-225 -249h-68l268 294l-135 268h63l110 -230l206 230h69z" />
    <glyph glyph-name="y" unicode="y" horiz-adv-x="528" 
d="M116 -184h-62l111 189l-89 557h58l76 -483l283 483h67z" />
    <glyph glyph-name="z" unicode="z" horiz-adv-x="469" 
d="M80 509l11 53h395l-418 -510h293l-11 -52h-388l417 509h-299z" />
    <glyph glyph-name="braceleft" unicode="{" horiz-adv-x="323" 
d="M371 756l-11 -52q-78 0 -113 -43t-56 -143q-31 -144 -80 -167q38 -28 9 -165q-24 -93 -5.5 -139t96.5 -46l-11 -52q-187 0 -137 230l13 63q10 40 2.5 62.5t-37.5 22.5l11 50q31 0 46 20t25 66l13 62q26 123 80 177t155 54z" />
    <glyph glyph-name="bar" unicode="|" horiz-adv-x="191" 
d="M48 -51h-56l171 810h57z" />
    <glyph glyph-name="braceright" unicode="}" horiz-adv-x="323" 
d="M131 704l11 52q101 0 132 -54t5 -177l-13 -62q-11 -43 -4.5 -64.5t39.5 -21.5l-11 -50q-53 0 -71 -85l-13 -63q-27 -125 -77.5 -177.5t-156.5 -52.5l11 52q65 0 100 33.5t56 109.5q4 13 12.5 48t13.5 52.5t14.5 42t22 40t28.5 24.5q-40 23 -9 167q24 92 6.5 139t-96.5 47
z" />
    <glyph glyph-name="nbspace" unicode="&#xa0;" horiz-adv-x="500" 
 />
    <glyph glyph-name="exclamdown" unicode="&#xa1;" horiz-adv-x="172" 
d="M21 154l110 415h18l-67 -415q-16 -105 -20 -123q-3 -16 -15.5 -26.5t-28.5 -10.5q-15 0 -22.5 10.5t-4.5 26.5q12 57 30 123zM203 673q-4 -17 -18 -28.5t-30 -11.5t-25 11.5t-5 28.5q3 16 17 27.5t30 11.5t25 -11.5t6 -27.5z" />
    <glyph glyph-name="cent" unicode="&#xa2;" horiz-adv-x="524" 
d="M265 -4l-16 -77h-31l16 72q-9 -1 -27 -1q-19 0 -49 4l-16 -75h-31l18 82q-62 21 -88 76.5t-9 134.5l28 132q18 88 66 144.5t122 73.5l17 79h31l-16 -74q20 2 30 2q16 0 46 -4l16 76h31l-17 -83q64 -20 90 -75t9 -137h-57q17 82 -13 127t-105 45q-158 0 -195 -177
l-28 -133q-17 -78 14.5 -123t106.5 -45t124.5 45t66.5 126h57q-39 -184 -191 -215z" />
    <glyph glyph-name="sterling" unicode="&#xa3;" horiz-adv-x="579" 
d="M368 250h-113q28 -51 40 -94.5t2 -98.5h167l-12 -57h-460l12 57h238q15 94 -44 193h-153l6 30h131q-18 29 -37 77h-78l7 30h61q-17 64 -5 123q22 99 89.5 153t169.5 54q100 0 151 -65.5t29 -170.5h-57q18 83 -16 131t-109 48q-77 0 -130 -39.5t-69 -114.5q-12 -59 8 -119
h201l-7 -30h-186q21 -50 37 -77h133z" />
    <glyph glyph-name="yen" unicode="&#xa5;" horiz-adv-x="576" 
d="M401 274l-7 -30h-91l-16 -77h88l-6 -30h-88l-29 -137h-59l29 137h-88l6 30h88l16 77h-88l7 30h88l-150 431h61l127 -374l288 374h66l-333 -431h91z" />
    <glyph glyph-name="brokenbar" unicode="&#xa6;" horiz-adv-x="191" 
d="M48 -51h-56l74 353h57zM145 409h-57l75 350h57z" />
    <glyph glyph-name="dieresis" unicode="&#xa8;" horiz-adv-x="457" 
d="M404 620q-3 -14 -15 -23.5t-25 -9.5q-14 0 -21.5 10t-4.5 23q3 14 15 23.5t25 9.5q14 0 21.5 -10t4.5 -23zM252 620q-3 -14 -15 -23.5t-25 -9.5q-14 0 -21.5 10t-4.5 23q3 14 15 23.5t25 9.5q14 0 21.5 -10t4.5 -23z" />
    <glyph glyph-name="copyright" unicode="&#xa9;" horiz-adv-x="660" 
d="M284 -9q-123 0 -188.5 72t-38.5 196l39 184q27 129 107 200.5t198 71.5q120 0 183.5 -73.5t37.5 -198.5l-39 -184q-28 -129 -105 -198.5t-194 -69.5zM282 21q104 0 175 62t96 176l39 184q23 112 -30 177t-159 65t-179.5 -64t-97.5 -178l-39 -184q-24 -111 31.5 -174.5
t163.5 -63.5zM502 405h-45l4 23q12 55 -9 84t-70 29q-104 0 -130 -126l-31 -143q-24 -110 81 -110q103 0 126 107l5 23h45l-5 -20q-33 -155 -173 -155q-74 0 -106.5 42.5t-16.5 115.5l31 147q35 162 176 162q74 0 106 -41.5t16 -116.5z" />
    <glyph glyph-name="ordfeminine" unicode="&#xaa;" horiz-adv-x="534" 
d="M241 233q-93 0 -134 59t-19 164l9 38q21 103 81.5 161t149.5 58q65 0 104.5 -27.5t45.5 -72.5l20 93h54l-99 -463h-54l20 92q-31 -49 -73 -75.5t-105 -26.5zM256 282q72 0 120 44.5t65 126.5l11 51q16 77 -14 119t-100 42q-148 0 -184 -168l-9 -44q-36 -171 111 -171z
M244 33q-4 -16 -18 -27t-31 -11q-16 0 -25 11t-5 27q3 16 17 28t30 12t25.5 -11.5t6.5 -28.5z" />
    <glyph glyph-name="guillemotleft" unicode="&#xab;" horiz-adv-x="423" 
d="M362 489h52l-161 -208l76 -196h-48l-89 201zM211 489h52l-160 -208l75 -196h-48l-88 201z" />
    <glyph glyph-name="registered" unicode="&#xae;" horiz-adv-x="660" 
d="M284 -9q-123 0 -188.5 72t-38.5 196l39 184q27 129 107 200.5t198 71.5q120 0 183.5 -73.5t37.5 -198.5l-39 -184q-28 -129 -105 -198.5t-194 -69.5zM282 21q104 0 175 62t96 176l39 184q23 112 -30 177t-159 65t-179.5 -64t-97.5 -178l-39 -184q-24 -111 31.5 -174.5
t163.5 -63.5zM285 256h-52l-28 -131h-44l96 451h92q94 0 129 -40t18 -121l-2 -10q-16 -72 -50 -104.5t-113 -37.5l102 -138h-54zM292 533l-50 -234h58q71 0 104 24t46 84l2 10q13 62 -9.5 89t-91.5 27h-59z" />
    <glyph glyph-name="macron" unicode="&#xaf;" horiz-adv-x="575" 
d="M207 588l10 44h279l-10 -44h-279z" />
    <glyph glyph-name="degree" unicode="&#xb0;" horiz-adv-x="426" 
d="M236 382q-74 0 -108 43t-21 120l2 12q13 76 61 117t122 41t109 -44.5t20 -119.5l-1 -5q-15 -77 -63 -120.5t-121 -43.5zM237 424q51 0 87.5 31t49.5 87l3 13q13 54 -11 86t-76 32q-53 0 -90.5 -31.5t-45.5 -86.5l-2 -13q-19 -118 85 -118z" />
    <glyph glyph-name="acute" unicode="&#xb4;" horiz-adv-x="489" 
d="M330 586h-51l112 157h66z" />
    <glyph glyph-name="paragraph" unicode="&#xb6;" horiz-adv-x="293" 
d="M151 -44h-54l104 488q-11 1 -16 1t-16.5 2t-17 3.5t-15 5.5t-14 9t-10 12.5t-7 17t-1.5 22.5t3 28l13 61q6 27 17.5 46t24 29.5t32 16t35 6.5t39.5 1h42z" />
    <glyph glyph-name="periodcentered" unicode="&#xb7;" horiz-adv-x="172" 
d="M119 281q-3 -16 -17 -27.5t-30 -11.5t-25 11.5t-6 27.5q4 16 17.5 27.5t30.5 11.5q16 0 25 -11t5 -28z" />
    <glyph glyph-name="cedilla" unicode="&#xb8;" horiz-adv-x="510" 
d="M179 27h45l-111 -175h-66z" />
    <glyph glyph-name="ordmasculine" unicode="&#xba;" horiz-adv-x="514" 
d="M253 228q-101 0 -146.5 60.5t-23.5 164.5l8 40q23 105 82 163.5t157 58.5q100 0 146.5 -60.5t24.5 -161.5l-8 -40q-49 -225 -240 -225zM254 281q71 0 117 43t63 122l11 52q17 77 -13.5 120.5t-102.5 43.5t-118 -43t-63 -121l-11 -52q-17 -78 13.5 -121.5t103.5 -43.5z
M238 33q-4 -16 -18 -27.5t-30 -11.5t-25 11.5t-5 27.5q3 16 17 28t30 12t25 -11.5t6 -28.5z" />
    <glyph glyph-name="guillemotright" unicode="&#xbb;" horiz-adv-x="423" 
d="M85 489h48l88 -203l-169 -201h-52l160 207zM235 489h48l88 -203l-169 -201h-52l160 207z" />
    <glyph glyph-name="questiondown" unicode="&#xbf;" horiz-adv-x="524" 
d="M332 571h19q-3 -23 -8 -50q-3 -13 -9 -35q-13 -42 -42.5 -72.5t-62 -50.5t-65 -40.5t-58.5 -54t-36 -79.5q-14 -62 24.5 -102t113.5 -40q81 0 137.5 47.5t75.5 132.5h59q-24 -114 -94.5 -175t-178.5 -61q-102 0 -157.5 55t-38.5 138q13 63 46.5 104.5t73.5 63.5
t79.5 44.5t73.5 65.5t48 109zM325 674q3 16 16.5 27.5t30.5 11.5q16 0 25 -11.5t6 -27.5q-4 -16 -18 -27.5t-30 -11.5t-25 11t-5 28z" />
    <glyph glyph-name="Agrave" unicode="&#xc0;" horiz-adv-x="597" 
d="M515 0h-61l-23 179h-316l-101 -179h-64l399 705h69zM372 639l-231 -409h284zM411 786h-45l-60 157h58z" />
    <glyph glyph-name="Aacute" unicode="&#xc1;" horiz-adv-x="597" 
d="M515 0h-61l-23 179h-316l-101 -179h-64l399 705h69zM372 639l-231 -409h284zM440 786h-51l112 157h66z" />
    <glyph glyph-name="Acircumflex" unicode="&#xc2;" horiz-adv-x="597" 
d="M515 0h-61l-23 179h-316l-101 -179h-64l399 705h69zM372 639l-231 -409h284zM455 919l105 -151h-50l-87 113l-139 -113h-57l171 151h57z" />
    <glyph glyph-name="Atilde" unicode="&#xc3;" horiz-adv-x="597" 
d="M515 0h-61l-23 179h-316l-101 -179h-64l399 705h69zM372 639l-231 -409h284zM588 873l-12 -52q-54 -38 -99 -38q-27 0 -70 19t-69 19q-42 0 -103 -39l11 51q54 35 99 35q28 0 72.5 -18t67.5 -18q42 0 103 41z" />
    <glyph glyph-name="Adieresis" unicode="&#xc4;" horiz-adv-x="597" 
d="M515 0h-61l-23 179h-316l-101 -179h-64l399 705h69zM372 639l-231 -409h284zM518 820q-3 -14 -15 -23.5t-25 -9.5q-14 0 -21.5 10t-4.5 23q3 14 15 23.5t25 9.5q14 0 21.5 -10t4.5 -23zM366 820q-3 -14 -15 -23.5t-25 -9.5q-14 0 -21.5 10t-4.5 23q3 14 15 23.5t25 9.5
q14 0 21.5 -10t4.5 -23z" />
    <glyph glyph-name="Aring" unicode="&#xc5;" horiz-adv-x="597" 
d="M515 0h-61l-23 179h-316l-101 -179h-64l399 705h69zM372 639l-231 -409h284zM427 893q-16 0 -29 -10.5t-16 -26.5q-4 -16 4.5 -27t24.5 -11t28.5 11t16.5 27q3 16 -5 26.5t-24 10.5zM407 784q-30 0 -48 22t-11 52q6 30 29.5 49t53.5 19t47.5 -21t11.5 -51q-7 -30 -30 -50
t-53 -20z" />
    <glyph glyph-name="AE" unicode="&#xc6;" horiz-adv-x="955" 
d="M578 628l-351 -398h266zM446 0l38 179h-297l-158 -179h-77l623 705h412l-12 -58h-333l-56 -264h239l-11 -53h-239l-58 -273h333l-12 -57h-392z" />
    <glyph glyph-name="Ccedilla" unicode="&#xc7;" horiz-adv-x="576" 
d="M457 247h59l-2 -10q-23 -104 -91 -170.5t-162 -73.5l-91 -141h-66l107 141q-96 9 -142.5 80t-21.5 187l44 206q24 111 98 178.5t177 67.5q104 0 161 -71t35 -177h-59q18 89 -21.5 139.5t-117.5 50.5q-79 0 -137.5 -52t-78.5 -145l-42 -197q-23 -109 14.5 -160t120.5 -51
q79 0 137.5 52t78.5 146z" />
    <glyph glyph-name="Egrave" unicode="&#xc8;" horiz-adv-x="520" 
d="M141 330l-58 -273h332l-12 -57h-391l149 705h391l-12 -58h-332l-56 -264h238l-11 -53h-238zM402 786h-45l-60 157h58z" />
    <glyph glyph-name="Eacute" unicode="&#xc9;" horiz-adv-x="520" 
d="M141 330l-58 -273h332l-12 -57h-391l149 705h391l-12 -58h-332l-56 -264h238l-11 -53h-238zM372 786h-51l112 157h66z" />
    <glyph glyph-name="Ecircumflex" unicode="&#xca;" horiz-adv-x="520" 
d="M141 330l-58 -273h332l-12 -57h-391l149 705h391l-12 -58h-332l-56 -264h238l-11 -53h-238zM436 939l105 -151h-50l-87 113l-139 -113h-57l171 151h57z" />
    <glyph glyph-name="Edieresis" unicode="&#xcb;" horiz-adv-x="520" 
d="M141 330l-58 -273h332l-12 -57h-391l149 705h391l-12 -58h-332l-56 -264h238l-11 -53h-238zM496 820q-3 -14 -15 -23.5t-25 -9.5q-14 0 -21.5 10t-4.5 23q3 14 15 23.5t25 9.5q14 0 21.5 -10t4.5 -23zM344 820q-3 -14 -15 -23.5t-25 -9.5q-14 0 -21.5 10t-4.5 23
q3 14 15 23.5t25 9.5q14 0 21.5 -10t4.5 -23z" />
    <glyph glyph-name="Igrave" unicode="&#xcc;" horiz-adv-x="203" 
d="M161 705h59l-149 -705h-59zM234 786h-45l-60 157h58z" />
    <glyph glyph-name="Iacute" unicode="&#xcd;" horiz-adv-x="211" 
d="M161 705h59l-149 -705h-59zM233 786h-51l112 157h66z" />
    <glyph glyph-name="Icircumflex" unicode="&#xce;" horiz-adv-x="199" 
d="M161 705h59l-149 -705h-59zM273 939l105 -151h-50l-87 113l-139 -113h-57l171 151h57z" />
    <glyph glyph-name="Idieresis" unicode="&#xcf;" horiz-adv-x="199" 
d="M161 705h59l-149 -705h-59zM325 820q-3 -14 -15 -23.5t-25 -9.5q-14 0 -21.5 10t-4.5 23q3 14 15 23.5t25 9.5q14 0 21.5 -10t4.5 -23zM173 820q-3 -14 -15 -23.5t-25 -9.5q-14 0 -21.5 10t-4.5 23q3 14 15 23.5t25 9.5q14 0 21.5 -10t4.5 -23z" />
    <glyph glyph-name="Eth" unicode="&#xd0;" horiz-adv-x="596" 
d="M94 370l71 335h212q109 0 163.5 -67.5t27.5 -191.5l-39 -184q-27 -126 -101 -194t-180 -68h-232l72 340h-76l6 30h76zM87 57h157q84 0 144.5 53.5t84.5 163.5l34 161q23 109 -15 160.5t-123 51.5h-157l-59 -277h157l-6 -30h-157z" />
    <glyph glyph-name="Ntilde" unicode="&#xd1;" horiz-adv-x="629" 
d="M487 0h-51l-239 597l-126 -597h-59l149 705h50l240 -602l125 597h59zM600 873l-12 -52q-54 -38 -99 -38q-27 0 -70 19t-69 19q-42 0 -103 -39l11 51q54 35 99 35q28 0 72.5 -18t67.5 -18q42 0 103 41z" />
    <glyph glyph-name="Ograve" unicode="&#xd2;" horiz-adv-x="586" 
d="M239 -8q-106 0 -162.5 70.5t-29.5 197.5l44 206q24 111 98 178.5t177 67.5q105 0 161.5 -71.5t28.5 -206.5l-42 -197q-24 -110 -98.5 -177.5t-176.5 -67.5zM241 49q79 0 137.5 52t78.5 145l40 188q24 110 -13.5 165t-119.5 55q-79 0 -137.5 -52t-78.5 -145l-42 -197
q-23 -108 14.5 -159.5t120.5 -51.5zM417 786h-45l-60 157h58z" />
    <glyph glyph-name="Oacute" unicode="&#xd3;" horiz-adv-x="586" 
d="M239 -8q-106 0 -162.5 70.5t-29.5 197.5l44 206q24 111 98 178.5t177 67.5q105 0 161.5 -71.5t28.5 -206.5l-42 -197q-24 -110 -98.5 -177.5t-176.5 -67.5zM241 49q79 0 137.5 52t78.5 145l40 188q24 110 -13.5 165t-119.5 55q-79 0 -137.5 -52t-78.5 -145l-42 -197
q-23 -108 14.5 -159.5t120.5 -51.5zM416 786h-51l112 157h66z" />
    <glyph glyph-name="Ocircumflex" unicode="&#xd4;" horiz-adv-x="586" 
d="M239 -8q-106 0 -162.5 70.5t-29.5 197.5l44 206q24 111 98 178.5t177 67.5q105 0 161.5 -71.5t28.5 -206.5l-42 -197q-24 -110 -98.5 -177.5t-176.5 -67.5zM241 49q79 0 137.5 52t78.5 145l40 188q24 110 -13.5 165t-119.5 55q-79 0 -137.5 -52t-78.5 -145l-42 -197
q-23 -108 14.5 -159.5t120.5 -51.5zM456 939l105 -151h-50l-87 113l-139 -113h-57l171 151h57z" />
    <glyph glyph-name="Otilde" unicode="&#xd5;" horiz-adv-x="586" 
d="M239 -8q-106 0 -162.5 70.5t-29.5 197.5l44 206q24 111 98 178.5t177 67.5q105 0 161.5 -71.5t28.5 -206.5l-42 -197q-24 -110 -98.5 -177.5t-176.5 -67.5zM241 49q79 0 137.5 52t78.5 145l40 188q24 110 -13.5 165t-119.5 55q-79 0 -137.5 -52t-78.5 -145l-42 -197
q-23 -108 14.5 -159.5t120.5 -51.5zM580 873l-12 -52q-54 -38 -99 -38q-27 0 -70 19t-69 19q-42 0 -103 -39l11 51q54 35 99 35q28 0 72.5 -18t67.5 -18q42 0 103 41z" />
    <glyph glyph-name="Odieresis" unicode="&#xd6;" horiz-adv-x="586" 
d="M239 -8q-106 0 -162.5 70.5t-29.5 197.5l44 206q24 111 98 178.5t177 67.5q105 0 161.5 -71.5t28.5 -206.5l-42 -197q-24 -110 -98.5 -177.5t-176.5 -67.5zM241 49q79 0 137.5 52t78.5 145l40 188q24 110 -13.5 165t-119.5 55q-79 0 -137.5 -52t-78.5 -145l-42 -197
q-23 -108 14.5 -159.5t120.5 -51.5zM510 820q-3 -14 -15 -23.5t-25 -9.5q-14 0 -21.5 10t-4.5 23q3 14 15 23.5t25 9.5q14 0 21.5 -10t4.5 -23zM358 820q-3 -14 -15 -23.5t-25 -9.5q-14 0 -21.5 10t-4.5 23q3 14 15 23.5t25 9.5q14 0 21.5 -10t4.5 -23z" />
    <glyph glyph-name="multiply" unicode="&#xd7;" horiz-adv-x="454" 
d="M77 184l-34 42l160 132l-104 133l41 35l105 -133l158 133l36 -43l-160 -133l105 -132l-41 -35l-105 133z" />
    <glyph glyph-name="Oslash" unicode="&#xd8;" horiz-adv-x="586" 
d="M236 -8q-58 0 -104 22l-49 -90h-32l57 105q-96 69 -66 208l49 233q24 110 99.5 178t179.5 68q52 0 97 -21l51 94h31l-58 -107q48 -31 67.5 -86.5t4.5 -125.5l-49 -233q-23 -110 -99 -177.5t-179 -67.5zM238 49q76 0 137 50t79 136l51 237q22 106 -42 158l-303 -564
q32 -17 78 -17zM100 235q-22 -101 36 -153l304 562q-32 15 -72 15q-77 0 -138 -50.5t-79 -135.5z" />
    <glyph glyph-name="Ugrave" unicode="&#xd9;" horiz-adv-x="601" 
d="M151 705h59l-100 -470q-18 -86 21.5 -136t116.5 -50t137.5 50.5t78.5 135.5l100 470h59l-99 -468q-23 -110 -99 -177.5t-179 -67.5q-105 0 -161 68.5t-33 176.5zM432 786h-45l-60 157h58z" />
    <glyph glyph-name="Uacute" unicode="&#xda;" horiz-adv-x="601" 
d="M151 705h59l-100 -470q-18 -86 21.5 -136t116.5 -50t137.5 50.5t78.5 135.5l100 470h59l-99 -468q-23 -110 -99 -177.5t-179 -67.5q-105 0 -161 68.5t-33 176.5zM422 786h-51l112 157h66z" />
    <glyph glyph-name="Ucircumflex" unicode="&#xdb;" horiz-adv-x="601" 
d="M151 705h59l-100 -470q-18 -86 21.5 -136t116.5 -50t137.5 50.5t78.5 135.5l100 470h59l-99 -468q-23 -110 -99 -177.5t-179 -67.5q-105 0 -161 68.5t-33 176.5zM466 939l105 -151h-50l-87 113l-139 -113h-57l171 151h57z" />
    <glyph glyph-name="Udieresis" unicode="&#xdc;" horiz-adv-x="601" 
d="M151 705h59l-100 -470q-18 -86 21.5 -136t116.5 -50t137.5 50.5t78.5 135.5l100 470h59l-99 -468q-23 -110 -99 -177.5t-179 -67.5q-105 0 -161 68.5t-33 176.5zM522 820q-3 -14 -15 -23.5t-25 -9.5q-14 0 -21.5 10t-4.5 23q3 14 15 23.5t25 9.5q14 0 21.5 -10t4.5 -23z
M370 820q-3 -14 -15 -23.5t-25 -9.5q-14 0 -21.5 10t-4.5 23q3 14 15 23.5t25 9.5q14 0 21.5 -10t4.5 -23z" />
    <glyph glyph-name="Yacute" unicode="&#xdd;" horiz-adv-x="576" 
d="M101 705h62l127 -374l286 374h67l-333 -432l-58 -273h-59l58 273zM408 786h-51l112 157h66z" />
    <glyph glyph-name="Thorn" unicode="&#xde;" horiz-adv-x="558" 
d="M161 705h59l-19 -93h136q107 0 163 -64.5t31 -175.5l-6 -26q-26 -113 -99.5 -174t-178.5 -61h-153l-23 -111h-59zM188 554l-82 -386h140q81 0 140 45.5t80 133.5l6 25q23 95 -24 138.5t-142 43.5h-118z" />
    <glyph glyph-name="germandbls" unicode="&#xdf;" horiz-adv-x="528" 
d="M409 533q101 -22 63 -200l-24 -116q-11 -51 -27 -89.5t-43.5 -72.5t-71.5 -49.5t-102 -9.5l10 51q81 -4 119 39.5t55 124.5l26 122q23 84 2 130.5t-103 46.5l11 51q55 0 79.5 18.5t32.5 51.5l2 12q6 28 -13 43.5t-60 15.5h-17q-67 0 -91.5 -29t-42.5 -112l-119 -561h-57
l108 510h-68l11 51h68q24 113 61.5 152t135.5 39h7q73 0 108.5 -28t25.5 -75l-3 -18q-20 -85 -83 -98z" />
    <glyph glyph-name="agrave" unicode="&#xe0;" horiz-adv-x="544" 
d="M192 -10q-94 0 -138 59.5t-22 163.5l29 137q22 105 83 162.5t152 57.5q65 0 108.5 -29t52.5 -72l20 93h54l-119 -562h-54l19 92q-67 -102 -185 -102zM208 39q74 0 124 47.5t69 133.5l28 130q17 81 -15 126t-104 45q-75 0 -125 -46.5t-68 -130.5l-27 -124
q-19 -86 11.5 -133.5t106.5 -47.5zM339 636h-45l-60 157h58z" />
    <glyph glyph-name="aacute" unicode="&#xe1;" horiz-adv-x="544" 
d="M192 -10q-94 0 -138 59.5t-22 163.5l29 137q22 105 83 162.5t152 57.5q65 0 108.5 -29t52.5 -72l20 93h54l-119 -562h-54l19 92q-67 -102 -185 -102zM208 39q74 0 124 47.5t69 133.5l28 130q17 81 -15 126t-104 45q-75 0 -125 -46.5t-68 -130.5l-27 -124
q-19 -86 11.5 -133.5t106.5 -47.5zM345 637h-51l112 157h66z" />
    <glyph glyph-name="acircumflex" unicode="&#xe2;" horiz-adv-x="544" 
d="M192 -10q-94 0 -138 59.5t-22 163.5l29 137q22 105 83 162.5t152 57.5q65 0 108.5 -29t52.5 -72l20 93h54l-119 -562h-54l19 92q-67 -102 -185 -102zM208 39q74 0 124 47.5t69 133.5l28 130q17 81 -15 126t-104 45q-75 0 -125 -46.5t-68 -130.5l-27 -124
q-19 -86 11.5 -133.5t106.5 -47.5zM403 789l105 -151h-50l-87 113l-139 -113h-57l171 151h57z" />
    <glyph glyph-name="atilde" unicode="&#xe3;" horiz-adv-x="544" 
d="M192 -10q-94 0 -138 59.5t-22 163.5l29 137q22 105 83 162.5t152 57.5q65 0 108.5 -29t52.5 -72l20 93h54l-119 -562h-54l19 92q-67 -102 -185 -102zM208 39q74 0 124 47.5t69 133.5l28 130q17 81 -15 126t-104 45q-75 0 -125 -46.5t-68 -130.5l-27 -124
q-19 -86 11.5 -133.5t106.5 -47.5zM526 720l-12 -52q-54 -38 -99 -38q-27 0 -70 19t-69 19q-42 0 -103 -39l11 51q54 35 99 35q28 0 72.5 -18t67.5 -18q42 0 103 41z" />
    <glyph glyph-name="adieresis" unicode="&#xe4;" horiz-adv-x="544" 
d="M192 -10q-94 0 -138 59.5t-22 163.5l29 137q22 105 83 162.5t152 57.5q65 0 108.5 -29t52.5 -72l20 93h54l-119 -562h-54l19 92q-67 -102 -185 -102zM208 39q74 0 124 47.5t69 133.5l28 130q17 81 -15 126t-104 45q-75 0 -125 -46.5t-68 -130.5l-27 -124
q-19 -86 11.5 -133.5t106.5 -47.5zM446 670q-3 -14 -15 -23.5t-25 -9.5q-14 0 -21.5 10t-4.5 23q3 14 15 23.5t25 9.5q14 0 21.5 -10t4.5 -23zM294 670q-3 -14 -15 -23.5t-25 -9.5q-14 0 -21.5 10t-4.5 23q3 14 15 23.5t25 9.5q14 0 21.5 -10t4.5 -23z" />
    <glyph glyph-name="aring" unicode="&#xe5;" horiz-adv-x="544" 
d="M192 -10q-94 0 -138 59.5t-22 163.5l29 137q22 105 83 162.5t152 57.5q65 0 108.5 -29t52.5 -72l20 93h54l-119 -562h-54l19 92q-67 -102 -185 -102zM208 39q74 0 124 47.5t69 133.5l28 130q17 81 -15 126t-104 45q-75 0 -125 -46.5t-68 -130.5l-27 -124
q-19 -86 11.5 -133.5t106.5 -47.5zM356 743q-16 0 -29 -10.5t-16 -26.5q-4 -16 4.5 -27t24.5 -11t28.5 11t16.5 27q3 16 -5 26.5t-24 10.5zM336 634q-30 0 -48 22t-11 52q6 30 29.5 49t53.5 19t47.5 -21t11.5 -51q-7 -30 -30 -50t-53 -20z" />
    <glyph glyph-name="ae" unicode="&#xe6;" horiz-adv-x="893" 
d="M855 352l-18 -84h-369l-14 -66q-16 -76 17.5 -119.5t105.5 -43.5q70 0 121 39.5t63 99.5l2 6h57l-1 -4q-17 -81 -80 -135.5t-156 -54.5q-61 0 -102.5 27.5t-49.5 74.5l-19 -92h-54l19 92q-67 -102 -185 -102q-94 0 -138 59.5t-22 163.5l29 137q22 105 83 162.5t152 57.5
q65 0 108.5 -29t52.5 -72l20 93h54l-20 -93q26 47 72 74.5t104 27.5q98 0 144 -58.5t24 -160.5zM208 39q74 0 124.5 47.5t68.5 133.5l28 130q17 81 -15 126t-104 45q-75 0 -125.5 -46.5t-67.5 -130.5l-27 -124q-18 -87 12.5 -134t105.5 -47zM679 521q-72 0 -122 -41.5
t-68 -116.5l-11 -51h312l9 43q17 81 -14.5 123.5t-105.5 42.5z" />
    <glyph glyph-name="ccedilla" unicode="&#xe7;" 
d="M485 346h-57q17 82 -13 127t-105 45q-157 0 -195 -177l-28 -133q-17 -78 14.5 -123t106.5 -45t124.5 45t66.5 126h57q-21 -100 -78 -156.5t-147 -63.5l-88 -139h-69l105 139q-88 7 -127.5 67t-19.5 154l28 132q22 106 86.5 165.5t163.5 59.5q102 0 149.5 -59t25.5 -164z
" />
    <glyph glyph-name="egrave" unicode="&#xe8;" horiz-adv-x="524" 
d="M486 352l-18 -84h-369l-14 -66q-16 -75 19 -119t107 -44q68 0 114.5 39t66.5 100l2 6h57l-1 -4q-21 -82 -83 -136t-157 -54q-103 0 -151 59t-27 163l28 135q22 107 85 165.5t163 58.5q101 0 150.5 -58.5t27.5 -160.5zM118 356l-9 -44h312l9 43q17 81 -16 123.5t-107 42.5
t-123.5 -43.5t-65.5 -121.5zM353 637h-45l-60 157h58z" />
    <glyph glyph-name="eacute" unicode="&#xe9;" horiz-adv-x="524" 
d="M486 352l-18 -84h-369l-14 -66q-16 -75 19 -119t107 -44q68 0 114.5 39t66.5 100l2 6h57l-1 -4q-21 -82 -83 -136t-157 -54q-103 0 -151 59t-27 163l28 135q22 107 85 165.5t163 58.5q101 0 150.5 -58.5t27.5 -160.5zM118 356l-9 -44h312l9 43q17 81 -16 123.5t-107 42.5
t-123.5 -43.5t-65.5 -121.5zM355 637h-51l112 157h66z" />
    <glyph glyph-name="ecircumflex" unicode="&#xea;" horiz-adv-x="524" 
d="M486 352l-18 -84h-369l-14 -66q-16 -75 19 -119t107 -44q68 0 114.5 39t66.5 100l2 6h57l-1 -4q-21 -82 -83 -136t-157 -54q-103 0 -151 59t-27 163l28 135q22 107 85 165.5t163 58.5q101 0 150.5 -58.5t27.5 -160.5zM118 356l-9 -44h312l9 43q17 81 -16 123.5t-107 42.5
t-123.5 -43.5t-65.5 -121.5zM393 788l105 -151h-50l-87 113l-139 -113h-57l171 151h57z" />
    <glyph glyph-name="edieresis" unicode="&#xeb;" horiz-adv-x="524" 
d="M486 352l-18 -84h-369l-14 -66q-16 -75 19 -119t107 -44q68 0 114.5 39t66.5 100l2 6h57l-1 -4q-21 -82 -83 -136t-157 -54q-103 0 -151 59t-27 163l28 135q22 107 85 165.5t163 58.5q101 0 150.5 -58.5t27.5 -160.5zM118 356l-9 -44h312l9 43q17 81 -16 123.5t-107 42.5
t-123.5 -43.5t-65.5 -121.5zM453 671q-3 -14 -15 -23.5t-25 -9.5q-14 0 -21.5 10t-4.5 23q3 14 15 23.5t25 9.5q14 0 21.5 -10t4.5 -23zM301 671q-3 -14 -15 -23.5t-25 -9.5q-14 0 -21.5 10t-4.5 23q3 14 15 23.5t25 9.5q14 0 21.5 -10t4.5 -23z" />
    <glyph glyph-name="igrave" unicode="&#xec;" horiz-adv-x="172" 
d="M64 0h-57l119 562h57zM185 637h-45l-60 157h58z" />
    <glyph glyph-name="iacute" unicode="&#xed;" horiz-adv-x="171" 
d="M54 0h-57l119 562h57zM184 637h-51l112 157h66z" />
    <glyph glyph-name="icircumflex" unicode="&#xee;" horiz-adv-x="176" 
d="M67 0h-57l119 562h57zM224 790l105 -151h-50l-87 113l-139 -113h-57l171 151h57z" />
    <glyph glyph-name="idieresis" unicode="&#xef;" horiz-adv-x="168" 
d="M63 0h-57l119 562h57zM286 671q-3 -14 -15 -23.5t-25 -9.5q-14 0 -21.5 10t-4.5 23q3 14 15 23.5t25 9.5q14 0 21.5 -10t4.5 -23zM134 671q-3 -14 -15 -23.5t-25 -9.5q-14 0 -21.5 10t-4.5 23q3 14 15 23.5t25 9.5q14 0 21.5 -10t4.5 -23z" />
    <glyph glyph-name="eth" unicode="&#xf0;" horiz-adv-x="528" 
d="M204 -11q-98 0 -146.5 63.5t-25.5 171.5l26 123q21 99 84.5 160t155.5 61q40 0 70 -8.5t40 -17.5l11 -8l-36 106h-86l6 30h70l-26 82h59l25 -82h88l-6 -30h-73l30 -98q16 -56 19.5 -95.5t-7.5 -109.5l-24 -113q-23 -110 -90 -172.5t-164 -62.5zM209 43q72 0 123 44
t67 122l31 145q16 76 -16.5 119.5t-104.5 43.5q-74 0 -124.5 -43t-66.5 -120l-31 -145q-16 -79 16 -122.5t106 -43.5z" />
    <glyph glyph-name="ntilde" unicode="&#xf1;" horiz-adv-x="550" 
d="M428 0h-57l73 344q18 84 -12 130.5t-108 46.5q-77 0 -126 -45t-67 -130l-73 -346h-56l119 562h54l-20 -94q67 102 185 102q95 0 139.5 -59t22.5 -161zM531 725l-12 -52q-54 -38 -99 -38q-27 0 -70 19t-69 19q-42 0 -103 -39l11 51q54 35 99 35q28 0 72.5 -18t67.5 -18
q42 0 103 41z" />
    <glyph glyph-name="ograve" unicode="&#xf2;" 
d="M210 -10q-105 0 -152.5 61.5t-22.5 177.5l25 117q22 104 85 163t162 59q101 0 150 -61.5t26 -169.5l-26 -122q-22 -105 -86 -165t-161 -60zM212 43q71 0 121 44t66 122l30 143q16 76 -17.5 119.5t-105.5 43.5q-73 0 -123 -43t-66 -120l-30 -143q-16 -78 17.5 -122
t107.5 -44zM363 637h-45l-60 157h58z" />
    <glyph glyph-name="oacute" unicode="&#xf3;" 
d="M210 -10q-105 0 -152.5 61.5t-22.5 177.5l25 117q22 104 85 163t162 59q101 0 150 -61.5t26 -169.5l-26 -122q-22 -105 -86 -165t-161 -60zM212 43q71 0 121 44t66 122l30 143q16 76 -17.5 119.5t-105.5 43.5q-73 0 -123 -43t-66 -120l-30 -143q-16 -78 17.5 -122
t107.5 -44zM356 636h-51l112 157h66z" />
    <glyph glyph-name="ocircumflex" unicode="&#xf4;" 
d="M210 -10q-105 0 -152.5 61.5t-22.5 177.5l25 117q22 104 85 163t162 59q101 0 150 -61.5t26 -169.5l-26 -122q-22 -105 -86 -165t-161 -60zM212 43q71 0 121 44t66 122l30 143q16 76 -17.5 119.5t-105.5 43.5q-73 0 -123 -43t-66 -120l-30 -143q-16 -78 17.5 -122
t107.5 -44zM396 788l105 -151h-50l-87 113l-139 -113h-57l171 151h57z" />
    <glyph glyph-name="otilde" unicode="&#xf5;" 
d="M210 -10q-105 0 -152.5 61.5t-22.5 177.5l25 117q22 104 85 163t162 59q101 0 150 -61.5t26 -169.5l-26 -122q-22 -105 -86 -165t-161 -60zM212 43q71 0 121 44t66 122l30 143q16 76 -17.5 119.5t-105.5 43.5q-73 0 -123 -43t-66 -120l-30 -143q-16 -78 17.5 -122
t107.5 -44zM519 721l-12 -52q-54 -38 -99 -38q-27 0 -70 19t-69 19q-42 0 -103 -39l11 51q54 35 99 35q28 0 72.5 -18t67.5 -18q42 0 103 41z" />
    <glyph glyph-name="odieresis" unicode="&#xf6;" 
d="M210 -10q-105 0 -152.5 61.5t-22.5 177.5l25 117q22 104 85 163t162 59q101 0 150 -61.5t26 -169.5l-26 -122q-22 -105 -86 -165t-161 -60zM212 43q71 0 121 44t66 122l30 143q16 76 -17.5 119.5t-105.5 43.5q-73 0 -123 -43t-66 -120l-30 -143q-16 -78 17.5 -122
t107.5 -44zM448 669q-3 -14 -15 -23.5t-25 -9.5q-14 0 -21.5 10t-4.5 23q3 14 15 23.5t25 9.5q14 0 21.5 -10t4.5 -23zM296 669q-3 -14 -15 -23.5t-25 -9.5q-14 0 -21.5 10t-4.5 23q3 14 15 23.5t25 9.5q14 0 21.5 -10t4.5 -23z" />
    <glyph glyph-name="divide" unicode="&#xf7;" horiz-adv-x="469" 
d="M307 485q-3 -14 -16 -25t-28 -11t-23.5 11t-5.5 25q3 16 16 26.5t28 10.5t23.5 -10.5t5.5 -26.5zM250 218q-3 -14 -16 -25t-28 -11t-23.5 11t-5.5 25q3 15 16.5 26t28.5 11t23 -10.5t5 -26.5zM427 379l-11 -53h-355l11 53h355z" />
    <glyph glyph-name="oslash" unicode="&#xf8;" 
d="M207 -10q-44 0 -83 13l-41 -79h-32l48 91q-47 26 -64.5 78t-2.5 122l28 131q22 104 86 163t164 59q38 0 73 -11l44 83l30 -1l-49 -92q51 -26 71.5 -78t5.5 -123l-28 -131q-22 -105 -87 -165t-163 -60zM209 43q72 0 123 44t67 122l30 143q21 107 -46 146l-233 -446
q26 -9 59 -9zM87 209q-21 -103 38 -144l233 443q-21 7 -49 7q-74 0 -125 -43.5t-67 -119.5z" />
    <glyph glyph-name="ugrave" unicode="&#xf9;" horiz-adv-x="540" 
d="M111 562h56l-80 -374q-14 -67 23.5 -107.5t105.5 -40.5t119 41t65 107l80 374h57l-78 -365q-20 -94 -85 -150.5t-159 -56.5q-98 0 -149.5 57.5t-32.5 149.5zM379 637h-45l-60 157h58z" />
    <glyph glyph-name="uacute" unicode="&#xfa;" horiz-adv-x="540" 
d="M111 562h56l-80 -374q-14 -67 23.5 -107.5t105.5 -40.5t119 41t65 107l80 374h57l-78 -365q-20 -94 -85 -150.5t-159 -56.5q-98 0 -149.5 57.5t-32.5 149.5zM356 638h-51l112 157h66z" />
    <glyph glyph-name="ucircumflex" unicode="&#xfb;" horiz-adv-x="540" 
d="M111 562h56l-80 -374q-14 -67 23.5 -107.5t105.5 -40.5t119 41t65 107l80 374h57l-78 -365q-20 -94 -85 -150.5t-159 -56.5q-98 0 -149.5 57.5t-32.5 149.5zM401 787l105 -151h-50l-87 113l-139 -113h-57l171 151h57z" />
    <glyph glyph-name="udieresis" unicode="&#xfc;" horiz-adv-x="540" 
d="M111 562h56l-80 -374q-14 -67 23.5 -107.5t105.5 -40.5t119 41t65 107l80 374h57l-78 -365q-20 -94 -85 -150.5t-159 -56.5q-98 0 -149.5 57.5t-32.5 149.5zM457 671q-3 -14 -15 -23.5t-25 -9.5q-14 0 -21.5 10t-4.5 23q3 14 15 23.5t25 9.5q14 0 21.5 -10t4.5 -23z
M305 671q-3 -14 -15 -23.5t-25 -9.5q-14 0 -21.5 10t-4.5 23q3 14 15 23.5t25 9.5q14 0 21.5 -10t4.5 -23z" />
    <glyph glyph-name="yacute" unicode="&#xfd;" horiz-adv-x="528" 
d="M116 -184h-62l111 189l-89 557h58l76 -483l283 483h67zM347 637h-51l112 157h66z" />
    <glyph glyph-name="thorn" unicode="&#xfe;" horiz-adv-x="550" 
d="M339 569q97 0 140 -63t19 -176l-25 -116q-23 -105 -83.5 -163t-152.5 -58q-64 0 -107 29.5t-52 72.5l-60 -280h-55l198 934h57l-60 -283q64 103 181 103zM324 520q-73 0 -124.5 -46t-68.5 -128l-27 -126q-17 -84 14 -131t104 -47q75 0 126 47t69 131l26 119
q19 86 -12 133.5t-107 47.5z" />
    <glyph glyph-name="ydieresis" unicode="&#xff;" horiz-adv-x="528" 
d="M116 -184h-62l111 189l-89 557h58l76 -483l283 483h67zM449 668q-3 -14 -15 -23.5t-25 -9.5q-14 0 -21.5 10t-4.5 23q3 14 15 23.5t25 9.5q14 0 21.5 -10t4.5 -23zM297 668q-3 -14 -15 -23.5t-25 -9.5q-14 0 -21.5 10t-4.5 23q3 14 15 23.5t25 9.5q14 0 21.5 -10t4.5 -23
z" />
    <glyph glyph-name="Amacron" unicode="&#x100;" horiz-adv-x="597" 
d="M515 0h-61l-23 179h-316l-101 -179h-64l399 705h69zM372 639l-231 -409h284zM263 788l10 44h279l-10 -44h-279z" />
    <glyph glyph-name="amacron" unicode="&#x101;" horiz-adv-x="544" 
d="M192 -10q-94 0 -138 59.5t-22 163.5l29 137q22 105 83 162.5t152 57.5q65 0 108.5 -29t52.5 -72l20 93h54l-119 -562h-54l19 92q-67 -102 -185 -102zM208 39q74 0 124 47.5t69 133.5l28 130q17 81 -15 126t-104 45q-75 0 -125 -46.5t-68 -130.5l-27 -124
q-19 -86 11.5 -133.5t106.5 -47.5zM192 637l10 44h279l-10 -44h-279z" />
    <glyph glyph-name="Abreve" unicode="&#x102;" horiz-adv-x="597" 
d="M515 0h-61l-23 179h-316l-101 -179h-64l399 705h69zM372 639l-231 -409h284zM292 936h47l-3 -15q-9 -43 10.5 -67t63.5 -24q43 0 73.5 23t39.5 66l4 17h47l-3 -15q-14 -65 -57 -99.5t-109 -34.5q-67 0 -98 37.5t-18 99.5z" />
    <glyph glyph-name="abreve" unicode="&#x103;" horiz-adv-x="544" 
d="M192 -10q-94 0 -138 59.5t-22 163.5l29 137q22 105 83 162.5t152 57.5q65 0 108.5 -29t52.5 -72l20 93h54l-119 -562h-54l19 92q-67 -102 -185 -102zM208 39q74 0 124 47.5t69 133.5l28 130q17 81 -15 126t-104 45q-75 0 -125 -46.5t-68 -130.5l-27 -124
q-19 -86 11.5 -133.5t106.5 -47.5zM214 784h47l-3 -15q-9 -43 10.5 -67t63.5 -24q43 0 73.5 23t39.5 66l4 17h47l-3 -15q-14 -65 -57 -99.5t-109 -34.5q-67 0 -98 37.5t-18 99.5z" />
    <glyph glyph-name="Aogonek" unicode="&#x104;" horiz-adv-x="606" 
d="M372 639l-231 -409h284zM454 0l-23 179h-316l-101 -179h-62l399 705h67l97 -705q-8 -21 -11 -40q-8 -40 5 -57.5t54 -17.5q23 0 52 7l-10 -49q-36 -7 -66 -7q-51 0 -79.5 32t-21.5 78q5 29 16 54z" />
    <glyph glyph-name="aogonek" unicode="&#x105;" horiz-adv-x="546" 
d="M531 562l-119 -562q-23 -24 -28 -46q-8 -37 12.5 -54t62.5 -17q23 0 52 7l-10 -47q-36 -7 -65 -7q-56 0 -88 28.5t-22 77.5q3 14 11 28.5t15 21.5l6 8l19 92q-67 -102 -185 -102q-94 0 -138 59.5t-22 163.5l29 137q22 105 83 162.5t152 57.5q65 0 108.5 -29t52.5 -72
l20 93h54zM208 39q74 0 124 47.5t69 133.5l28 130q17 81 -15 126t-104 45q-75 0 -125 -46.5t-68 -130.5l-27 -124q-19 -86 11.5 -133.5t106.5 -47.5z" />
    <glyph glyph-name="Cacute" unicode="&#x106;" horiz-adv-x="576" 
d="M457 247h59l-2 -10q-24 -110 -98.5 -177.5t-176.5 -67.5q-108 0 -163 72t-29 196l44 206q24 111 98 178.5t177 67.5q104 0 161 -71t35 -177h-59q18 89 -21.5 139.5t-117.5 50.5q-79 0 -137.5 -52t-78.5 -145l-42 -197q-23 -109 14.5 -160t120.5 -51q79 0 137.5 52
t78.5 146zM413 786h-51l112 157h66z" />
    <glyph glyph-name="cacute" unicode="&#x107;" 
d="M485 346h-57q17 82 -14 127t-107 45q-155 0 -192 -177l-28 -133q-17 -78 15.5 -123t108.5 -45q74 0 122.5 44.5t65.5 126.5h57q-22 -106 -84.5 -163.5t-161.5 -57.5q-102 0 -151 60.5t-27 161.5l28 132q22 106 85 165.5t162 59.5q103 0 151.5 -59.5t26.5 -163.5zM359 637
h-51l112 157h66z" />
    <glyph glyph-name="Ccircumflex" unicode="&#x108;" horiz-adv-x="576" 
d="M457 247h59l-2 -10q-24 -110 -98.5 -177.5t-176.5 -67.5q-108 0 -163 72t-29 196l44 206q24 111 98 178.5t177 67.5q104 0 161 -71t35 -177h-59q18 89 -21.5 139.5t-117.5 50.5q-79 0 -137.5 -52t-78.5 -145l-42 -197q-23 -109 14.5 -160t120.5 -51q79 0 137.5 52
t78.5 146zM452 939l105 -151h-50l-87 113l-139 -113h-57l171 151h57z" />
    <glyph glyph-name="ccircumflex" unicode="&#x109;" 
d="M485 346h-57q17 82 -14 127t-107 45q-155 0 -192 -177l-28 -133q-17 -78 15.5 -123t108.5 -45q74 0 122.5 44.5t65.5 126.5h57q-22 -106 -84.5 -163.5t-161.5 -57.5q-102 0 -151 60.5t-27 161.5l28 132q22 106 85 165.5t162 59.5q103 0 151.5 -59.5t26.5 -163.5zM393 789
l105 -151h-50l-87 113l-139 -113h-57l171 151h57z" />
    <glyph glyph-name="Cdotaccent" unicode="&#x10a;" horiz-adv-x="576" 
d="M457 247h59l-2 -10q-24 -110 -98.5 -177.5t-176.5 -67.5q-108 0 -163 72t-29 196l44 206q24 111 98 178.5t177 67.5q104 0 161 -71t35 -177h-59q18 89 -21.5 139.5t-117.5 50.5q-79 0 -137.5 -52t-78.5 -145l-42 -197q-23 -109 14.5 -160t120.5 -51q79 0 137.5 52
t78.5 146zM440 825q-3 -15 -16.5 -26t-29.5 -11q-15 0 -23.5 11t-5.5 26q3 16 16.5 27t28.5 11q16 0 24.5 -11t5.5 -27z" />
    <glyph glyph-name="cdotaccent" unicode="&#x10b;" 
d="M485 346h-57q17 82 -14 127t-107 45q-155 0 -192 -177l-28 -133q-17 -78 15.5 -123t108.5 -45q74 0 122.5 44.5t65.5 126.5h57q-22 -106 -84.5 -163.5t-161.5 -57.5q-102 0 -151 60.5t-27 161.5l28 132q22 106 85 165.5t162 59.5q103 0 151.5 -59.5t26.5 -163.5zM380 676
q-3 -15 -16.5 -26t-29.5 -11q-15 0 -23.5 11t-5.5 26q3 16 16.5 27t28.5 11q16 0 24.5 -11t5.5 -27z" />
    <glyph glyph-name="Ccaron" unicode="&#x10c;" horiz-adv-x="576" 
d="M457 247h59l-2 -10q-24 -110 -98.5 -177.5t-176.5 -67.5q-108 0 -163 72t-29 196l44 206q24 111 98 178.5t177 67.5q104 0 161 -71t35 -177h-59q18 89 -21.5 139.5t-117.5 50.5q-79 0 -137.5 -52t-78.5 -145l-42 -197q-23 -109 14.5 -160t120.5 -51q79 0 137.5 52
t78.5 146zM590 939l-171 -151h-57l-105 151h51l89 -114l137 114h56z" />
    <glyph glyph-name="ccaron" unicode="&#x10d;" 
d="M485 346h-57q17 82 -14 127t-107 45q-155 0 -192 -177l-28 -133q-17 -78 15.5 -123t108.5 -45q74 0 122.5 44.5t65.5 126.5h57q-22 -106 -84.5 -163.5t-161.5 -57.5q-102 0 -151 60.5t-27 161.5l28 132q22 106 85 165.5t162 59.5q103 0 151.5 -59.5t26.5 -163.5zM531 788
l-171 -151h-57l-105 151h51l89 -114l137 114h56z" />
    <glyph glyph-name="Dcaron" unicode="&#x10e;" horiz-adv-x="592" 
d="M244 0h-232l149 705h212q108 0 162.5 -69t28.5 -190l-39 -184q-27 -126 -101 -194t-180 -68zM83 57h157q85 0 145.5 53.5t83.5 163.5l34 161q45 212 -138 212h-157zM600 939l-171 -151h-57l-105 151h51l89 -114l137 114h56z" />
    <glyph glyph-name="dcaron" unicode="&#x10f;" horiz-adv-x="672" 
d="M193 -10q-95 0 -139 59.5t-22 163.5l29 137q22 104 83 162t153 58q65 0 107.5 -29t50.5 -73l60 281h57l-159 -749h-54l19 92q-66 -102 -185 -102zM209 39q74 0 124.5 47.5t68.5 132.5l28 131q17 81 -15 126t-104 45q-76 0 -127 -47.5t-68 -130.5l-26 -124
q-18 -85 13 -132.5t106 -47.5zM596 426h-48l188 325h62z" />
    <glyph glyph-name="Dcroat" unicode="&#x110;" horiz-adv-x="594" 
d="M92 370l71 335h212q109 0 163.5 -67.5t27.5 -191.5l-39 -184q-27 -126 -101 -194t-180 -68h-232l72 340h-76l6 30h76zM85 57h157q84 0 144.5 53.5t84.5 163.5l34 161q23 109 -15 160.5t-123 51.5h-157l-59 -277h157l-6 -30h-157z" />
    <glyph glyph-name="dcroat" unicode="&#x111;" horiz-adv-x="539" 
d="M193 -10q-95 0 -139 59.5t-22 163.5l29 137q22 104 83 162t153 58q65 0 107.5 -29t50.5 -73l37 172h-124l6 30h124l17 79h57l-17 -79h70l-6 -30h-70l-136 -640h-54l19 92q-66 -102 -185 -102zM209 39q74 0 124.5 47.5t68.5 132.5l28 131q17 81 -15 126t-104 45
q-76 0 -126.5 -47t-68.5 -131l-26 -124q-18 -85 13 -132.5t106 -47.5z" />
    <glyph glyph-name="Emacron" unicode="&#x112;" horiz-adv-x="520" 
d="M141 330l-58 -273h332l-12 -57h-391l149 705h391l-12 -58h-332l-56 -264h238l-11 -53h-238zM234 788l10 44h279l-10 -44h-279z" />
    <glyph glyph-name="emacron" unicode="&#x113;" horiz-adv-x="524" 
d="M486 352l-18 -84h-369l-14 -66q-16 -75 19 -119t107 -44q68 0 114.5 39t66.5 100l2 6h57l-1 -4q-21 -82 -83 -136t-157 -54q-103 0 -151 59t-27 163l28 135q22 107 85 165.5t163 58.5q101 0 150.5 -58.5t27.5 -160.5zM118 356l-9 -44h312l9 43q17 81 -16 123.5t-107 42.5
t-123.5 -43.5t-65.5 -121.5zM197 639l10 44h279l-10 -44h-279z" />
    <glyph glyph-name="Ebreve" unicode="&#x114;" horiz-adv-x="520" 
d="M141 330l-58 -273h332l-12 -57h-391l149 705h391l-12 -58h-332l-56 -264h238l-11 -53h-238zM263 936h47l-3 -15q-9 -43 10.5 -67t63.5 -24q43 0 73.5 23t39.5 66l4 17h47l-3 -15q-14 -65 -57 -99.5t-109 -34.5q-67 0 -98 37.5t-18 99.5z" />
    <glyph glyph-name="ebreve" unicode="&#x115;" horiz-adv-x="524" 
d="M486 352l-18 -84h-369l-14 -66q-16 -75 19 -119t107 -44q68 0 114.5 39t66.5 100l2 6h57l-1 -4q-21 -82 -83 -136t-157 -54q-103 0 -151 59t-27 163l28 135q22 107 85 165.5t163 58.5q101 0 150.5 -58.5t27.5 -160.5zM118 356l-9 -44h312l9 43q17 81 -16 123.5t-107 42.5
t-123.5 -43.5t-65.5 -121.5zM220 784h47l-3 -15q-9 -43 10.5 -67t63.5 -24q43 0 73.5 23t39.5 66l4 17h47l-3 -15q-14 -65 -57 -99.5t-109 -34.5q-67 0 -98 37.5t-18 99.5z" />
    <glyph glyph-name="Edotaccent" unicode="&#x116;" horiz-adv-x="520" 
d="M141 330l-58 -273h332l-12 -57h-391l149 705h391l-12 -58h-332l-56 -264h238l-11 -53h-238zM423 827q-3 -15 -16.5 -26t-29.5 -11q-15 0 -23.5 11t-5.5 26q3 16 16.5 27t28.5 11q16 0 24.5 -11t5.5 -27z" />
    <glyph glyph-name="edotaccent" unicode="&#x117;" horiz-adv-x="524" 
d="M486 352l-18 -84h-369l-14 -66q-16 -75 19 -119t107 -44q68 0 114.5 39t66.5 100l2 6h57l-1 -4q-21 -82 -83 -136t-157 -54q-103 0 -151 59t-27 163l28 135q22 107 85 165.5t163 58.5q101 0 150.5 -58.5t27.5 -160.5zM118 356l-9 -44h312l9 43q17 81 -16 123.5t-107 42.5
t-123.5 -43.5t-65.5 -121.5zM377 676q-3 -15 -16.5 -26t-29.5 -11q-15 0 -23.5 11t-5.5 26q3 16 16.5 27t28.5 11q16 0 24.5 -11t5.5 -27z" />
    <glyph glyph-name="Eogonek" unicode="&#x118;" horiz-adv-x="515" 
d="M354 0h-342l149 705h391l-12 -58h-332l-56 -264h238l-11 -53h-238l-58 -273h332l-12 -57q-8 -21 -11 -40q-8 -40 5 -57.5t54 -17.5q23 0 52 7l-10 -49q-36 -7 -66 -7q-50 0 -73 31t-16 79q2 12 6 25.5t7 20.5z" />
    <glyph glyph-name="eogonek" unicode="&#x119;" horiz-adv-x="524" 
d="M486 352l-18 -84h-369l-14 -66q-16 -76 17.5 -119.5t105.5 -43.5q70 0 121 39.5t63 99.5l2 6h57l-1 -4q-17 -76 -73 -128.5t-142 -59.5q-16 -20 -19 -36q-8 -37 12.5 -55t62.5 -18q23 0 52 7l-10 -47q-36 -7 -65 -7q-56 0 -88 28.5t-22 77.5q5 25 24 49q-89 7 -130 65
t-20 156l28 135q23 107 87 165.5t164 58.5q101 0 149 -58.5t26 -160.5zM118 356l-9 -44h312l9 43q17 81 -14.5 123.5t-105.5 42.5t-125 -43.5t-67 -121.5z" />
    <glyph glyph-name="Ecaron" unicode="&#x11a;" horiz-adv-x="520" 
d="M141 330l-58 -273h332l-12 -57h-391l149 705h391l-12 -58h-332l-56 -264h238l-11 -53h-238zM563 939l-171 -151h-57l-105 151h51l89 -114l137 114h56z" />
    <glyph glyph-name="ecaron" unicode="&#x11b;" horiz-adv-x="524" 
d="M486 352l-18 -84h-369l-14 -66q-16 -75 19 -119t107 -44q68 0 114.5 39t66.5 100l2 6h57l-1 -4q-21 -82 -83 -136t-157 -54q-103 0 -151 59t-27 163l28 135q22 107 85 165.5t163 58.5q101 0 150.5 -58.5t27.5 -160.5zM118 356l-9 -44h312l9 43q17 81 -16 123.5t-107 42.5
t-123.5 -43.5t-65.5 -121.5zM531 787l-171 -151h-57l-105 151h51l89 -114l137 114h56z" />
    <glyph glyph-name="Gcircumflex" unicode="&#x11c;" horiz-adv-x="585" 
d="M365 654q-80 0 -139.5 -52t-79.5 -145l-45 -211q-20 -92 19 -144.5t119 -52.5q79 0 137.5 52t78.5 145l6 28h-175l11 53h235l-20 -92q-23 -110 -97.5 -176.5t-177.5 -66.5q-109 0 -164 75t-28 197l44 202q24 110 99 178t179 68q101 0 155 -63.5t42 -170.5h-60
q12 83 -26.5 129.5t-112.5 46.5zM454 931l105 -151h-50l-87 113l-139 -113h-57l171 151h57z" />
    <glyph glyph-name="gcircumflex" unicode="&#x11d;" horiz-adv-x="544" 
d="M192 -10q-94 0 -138 59.5t-22 163.5l29 137q22 104 81 161.5t148 57.5q67 0 113 -28t54 -72l20 93h54l-120 -565q-23 -109 -76 -159t-170 -50q-114 0 -154.5 47.5t-25.5 121.5h54q-11 -54 17 -88t109 -34q84 0 127.5 37.5t59.5 115.5l22 104q-64 -102 -182 -102zM207 37
q72 0 123 45.5t69 127.5l32 148q16 77 -16.5 120t-104.5 43q-75 0 -125 -46.5t-68 -130.5l-27 -126q-19 -87 11.5 -134t105.5 -47zM403 789l105 -151h-50l-87 113l-139 -113h-57l171 151h57z" />
    <glyph glyph-name="Gbreve" unicode="&#x11e;" horiz-adv-x="585" 
d="M365 654q-80 0 -139.5 -52t-79.5 -145l-45 -211q-20 -92 19 -144.5t119 -52.5q79 0 137.5 52t78.5 145l6 28h-175l11 53h235l-20 -92q-23 -110 -97.5 -176.5t-177.5 -66.5q-109 0 -164 75t-28 197l44 202q24 110 99 178t179 68q101 0 155 -63.5t42 -170.5h-60
q12 83 -26.5 129.5t-112.5 46.5zM284 936h47l-3 -15q-9 -43 10.5 -67t63.5 -24q43 0 73.5 23t39.5 66l4 17h47l-3 -15q-14 -65 -57 -99.5t-109 -34.5q-67 0 -98 37.5t-18 99.5z" />
    <glyph glyph-name="gbreve" unicode="&#x11f;" horiz-adv-x="544" 
d="M192 -10q-94 0 -138 59.5t-22 163.5l29 137q22 104 81 161.5t148 57.5q67 0 113 -28t54 -72l20 93h54l-120 -565q-23 -109 -76 -159t-170 -50q-114 0 -154.5 47.5t-25.5 121.5h54q-11 -54 17 -88t109 -34q84 0 127.5 37.5t59.5 115.5l22 104q-64 -102 -182 -102zM207 37
q72 0 123 45.5t69 127.5l32 148q16 77 -16.5 120t-104.5 43q-75 0 -125 -46.5t-68 -130.5l-27 -126q-19 -87 11.5 -134t105.5 -47zM223 778h47l-3 -15q-9 -43 10.5 -67t63.5 -24q43 0 73.5 23t39.5 66l4 17h47l-3 -15q-14 -65 -57 -99.5t-109 -34.5q-67 0 -98 37.5t-18 99.5
z" />
    <glyph glyph-name="Gdotaccent" unicode="&#x120;" horiz-adv-x="585" 
d="M365 654q-80 0 -139.5 -52t-79.5 -145l-45 -211q-20 -92 19 -144.5t119 -52.5q79 0 137.5 52t78.5 145l6 28h-175l11 53h235l-20 -92q-23 -110 -97.5 -176.5t-177.5 -66.5q-109 0 -164 75t-28 197l44 202q24 110 99 178t179 68q101 0 155 -63.5t42 -170.5h-60
q12 83 -26.5 129.5t-112.5 46.5zM440 827q-3 -15 -16.5 -26t-29.5 -11q-15 0 -23.5 11t-5.5 26q3 16 16.5 27t28.5 11q16 0 24.5 -11t5.5 -27z" />
    <glyph glyph-name="gdotaccent" unicode="&#x121;" horiz-adv-x="544" 
d="M192 -10q-94 0 -138 59.5t-22 163.5l29 137q22 104 81 161.5t148 57.5q67 0 113 -28t54 -72l20 93h54l-120 -565q-23 -109 -76 -159t-170 -50q-114 0 -154.5 47.5t-25.5 121.5h54q-11 -54 17 -88t109 -34q84 0 127.5 37.5t59.5 115.5l22 104q-64 -102 -182 -102zM207 37
q72 0 123 45.5t69 127.5l32 148q16 77 -16.5 120t-104.5 43q-75 0 -125 -46.5t-68 -130.5l-27 -126q-19 -87 11.5 -134t105.5 -47zM375 677q-3 -15 -16.5 -26t-29.5 -11q-15 0 -23.5 11t-5.5 26q3 16 16.5 27t28.5 11q16 0 24.5 -11t5.5 -27z" />
    <glyph glyph-name="Gcommaaccent" unicode="&#x122;" horiz-adv-x="585" 
d="M365 654q-80 0 -139.5 -52t-79.5 -145l-45 -211q-20 -92 19 -144.5t119 -52.5q79 0 137.5 52t78.5 145l6 28h-175l11 53h235l-20 -92q-23 -110 -97.5 -176.5t-177.5 -66.5q-109 0 -164 75t-28 197l44 202q24 110 99 178t179 68q101 0 155 -63.5t42 -170.5h-60
q12 83 -26.5 129.5t-112.5 46.5zM113 -281h-44l110 207h69z" />
    <glyph glyph-name="gcommaaccent" unicode="&#x123;" horiz-adv-x="544" 
d="M479 842h41l-114 -207h-62zM192 -10q-94 0 -138 59.5t-22 163.5l29 137q22 104 81 161.5t148 57.5q67 0 113 -28t54 -72l20 93h54l-120 -565q-23 -109 -76 -159t-170 -50q-114 0 -154.5 47.5t-25.5 121.5h54q-11 -54 17 -88t109 -34q84 0 127.5 37.5t59.5 115.5l22 104
q-64 -102 -182 -102zM207 37q72 0 123 45.5t69 127.5l32 148q16 77 -16.5 120t-104.5 43q-75 0 -125 -46.5t-68 -130.5l-27 -126q-19 -87 11.5 -134t105.5 -47z" />
    <glyph glyph-name="Hcircumflex" unicode="&#x124;" horiz-adv-x="605" 
d="M161 705h59l-68 -323h333l68 323h59l-149 -705h-59l70 330h-333l-70 -330h-59zM470 939l105 -151h-50l-87 113l-139 -113h-57l171 151h57z" />
    <glyph glyph-name="hcircumflex" unicode="&#x125;" horiz-adv-x="550" 
d="M428 0h-57l73 346q37 175 -120 175q-156 0 -193 -175l-73 -346h-56l159 749h56l-60 -281q60 102 185 102q91 0 137 -56.5t24 -158.5zM426 966l105 -151h-50l-87 113l-139 -113h-57l171 151h57z" />
    <glyph glyph-name="Hbar" unicode="&#x126;" horiz-adv-x="605" 
d="M131 566l29 139h59l-29 -139h333l29 139h59l-29 -139h76l-7 -30h-76l-113 -536h-59l70 330h-333l-70 -330h-59l113 536h-76l7 30h76zM151 382h333l32 154h-333z" />
    <glyph glyph-name="hbar" unicode="&#x127;" horiz-adv-x="535" 
d="M144 670l17 79h56l-17 -79h125l-6 -30h-125l-37 -172q60 102 185 102q91 0 137 -56.5t24 -158.5l-75 -355h-57l73 346q37 175 -120 175q-156 0 -193 -175l-73 -346h-56l136 640h-70l6 30h70z" />
    <glyph glyph-name="Itilde" unicode="&#x128;" horiz-adv-x="204" 
d="M161 705h59l-149 -705h-59zM399 873l-12 -52q-54 -38 -99 -38q-27 0 -70 19t-69 19q-42 0 -103 -39l11 51q54 35 99 35q28 0 72.5 -18t67.5 -18q42 0 103 41z" />
    <glyph glyph-name="itilde" unicode="&#x129;" horiz-adv-x="172" 
d="M61 0h-57l119 562h57zM353 724l-12 -52q-54 -38 -99 -38q-27 0 -70 19t-69 19q-42 0 -103 -39l11 51q54 35 99 35q28 0 72.5 -18t67.5 -18q42 0 103 41z" />
    <glyph glyph-name="Imacron" unicode="&#x12a;" horiz-adv-x="200" 
d="M161 705h59l-149 -705h-59zM70 788l10 44h279l-10 -44h-279z" />
    <glyph glyph-name="imacron" unicode="&#x12b;" horiz-adv-x="164" 
d="M60 0h-57l119 562h57zM20 634l10 44h279l-10 -44h-279z" />
    <glyph glyph-name="Ibreve" unicode="&#x12c;" horiz-adv-x="195" 
d="M161 705h59l-149 -705h-59zM112 936h47l-3 -15q-9 -43 10.5 -67t63.5 -24q43 0 73.5 23t39.5 66l4 17h47l-3 -15q-14 -65 -57 -99.5t-109 -34.5q-67 0 -98 37.5t-18 99.5z" />
    <glyph glyph-name="ibreve" unicode="&#x12d;" horiz-adv-x="179" 
d="M65 0h-57l119 562h57zM52 784h47l-3 -15q-9 -43 10.5 -67t63.5 -24q43 0 73.5 23t39.5 66l4 17h47l-3 -15q-14 -65 -57 -99.5t-109 -34.5q-67 0 -98 37.5t-18 99.5z" />
    <glyph glyph-name="Iogonek" unicode="&#x12e;" horiz-adv-x="195" 
d="M10 0l149 705h59l-149 -705q-8 -21 -11 -40q-8 -40 5 -57.5t54 -17.5q23 0 52 7l-10 -49q-36 -7 -66 -7q-51 0 -78.5 31.5t-20.5 78.5q5 29 16 54z" />
    <glyph glyph-name="iogonek" unicode="&#x12f;" horiz-adv-x="184" 
d="M222 696q-3 -16 -17 -27.5t-30 -11.5t-25 11.5t-6 27.5q4 16 17.5 27.5t30.5 11.5q16 0 25 -11t5 -28zM7 0l6 31l113 531h57l-119 -562q-23 -22 -28 -44q-8 -37 12.5 -55t62.5 -18q23 0 52 7l-10 -47q-36 -7 -65 -7q-64 0 -92 27.5t-17 78.5q3 14 10 28.5t13 21.5z" />
    <glyph glyph-name="Idotaccent" unicode="&#x130;" horiz-adv-x="203" 
d="M161 705h59l-149 -705h-59zM256 827q-3 -15 -16.5 -26t-29.5 -11q-15 0 -23.5 11t-5.5 26q3 16 16.5 27t28.5 11q16 0 24.5 -11t5.5 -27z" />
    <glyph glyph-name="dotlessi" unicode="&#x131;" horiz-adv-x="176" 
d="M49 0h-57l119 562h57z" />
    <glyph glyph-name="Jcircumflex" unicode="&#x134;" horiz-adv-x="555" 
d="M28 264h59l-7 -31q-19 -87 15.5 -136.5t109.5 -49.5q80 0 131.5 52.5t71.5 150.5l96 455h59l-100 -471q-24 -112 -91.5 -178.5t-168.5 -66.5q-104 0 -154 68t-28 177zM484 939l105 -151h-50l-87 113l-139 -113h-57l171 151h57z" />
    <glyph glyph-name="jcircumflex" unicode="&#x135;" horiz-adv-x="191" 
d="M-160 -208l12 53q74 0 106.5 36.5t52.5 132.5l116 548h57l-115 -539q-27 -130 -72.5 -180.5t-156.5 -50.5zM223 788l105 -151h-50l-87 113l-139 -113h-57l171 151h57z" />
    <glyph glyph-name="Kcommaaccent" unicode="&#x136;" horiz-adv-x="561" 
d="M141 331l-70 -331h-59l149 705h59l-67 -319h68l319 319h78l-349 -347l200 -358h-67l-184 331h-77zM124 -281h-44l110 207h69z" />
    <glyph glyph-name="kcommaaccent" unicode="&#x137;" horiz-adv-x="499" 
d="M410 0h-68l-166 258h-63l-54 -258h-57l159 749h57l-94 -442h55l270 255h77l-303 -280zM77 -281h-44l110 207h69z" />
    <glyph glyph-name="kgreenlandic" unicode="&#x138;" horiz-adv-x="499" 
d="M410 0h-68l-166 258h-63l-54 -258h-57l119 562h57l-54 -255h55l270 255h77l-303 -280z" />
    <glyph glyph-name="Lacute" unicode="&#x139;" horiz-adv-x="469" 
d="M161 705h59l-137 -648h310l-12 -57h-369zM244 777h-51l112 157h66z" />
    <glyph glyph-name="lacute" unicode="&#x13a;" horiz-adv-x="188" 
d="M161 749h57l-159 -749h-57zM230 829h-51l112 157h66z" />
    <glyph glyph-name="Lcommaaccent" unicode="&#x13b;" horiz-adv-x="469" 
d="M161 705h59l-137 -648h310l-12 -57h-369zM74 -281h-44l110 207h69z" />
    <glyph glyph-name="lcommaaccent" unicode="&#x13c;" horiz-adv-x="180" 
d="M161 749h57l-159 -749h-57zM-91 -281h-44l110 207h69z" />
    <glyph glyph-name="Lcaron" unicode="&#x13d;" horiz-adv-x="469" 
d="M161 705h59l-137 -648h310l-12 -57h-369zM283 379h-48l188 325h62z" />
    <glyph glyph-name="lcaron" unicode="&#x13e;" horiz-adv-x="312" 
d="M161 749h57l-159 -749h-57zM246 425h-48l188 325h62z" />
    <glyph glyph-name="Ldot" unicode="&#x13f;" horiz-adv-x="469" 
d="M161 705h59l-137 -648h310l-12 -57h-369zM355 335q-3 -16 -17 -27.5t-30 -11.5t-25 11.5t-6 27.5q4 16 17.5 27.5t30.5 11.5q16 0 25 -11t5 -28z" />
    <glyph glyph-name="ldot" unicode="&#x140;" horiz-adv-x="250" 
d="M161 749h57l-159 -749h-57zM237 285q-3 -14 -15 -24t-26 -10t-22 10t-5 24t15 24t27 10q14 0 21.5 -10t4.5 -24z" />
    <glyph glyph-name="Lslash" unicode="&#x141;" horiz-adv-x="411" 
d="M97 371l71 334h59l-66 -314l101 32l-6 -30l-102 -32l-64 -304h310l-12 -57h-369l72 341l-82 -26l7 30z" />
    <glyph glyph-name="lslash" unicode="&#x142;" horiz-adv-x="191" 
d="M158 749h57l-97 -453h70l-6 -30h-70l-56 -266h-57l56 266h-69l6 30h69z" />
    <glyph glyph-name="Nacute" unicode="&#x143;" horiz-adv-x="629" 
d="M487 0h-51l-239 597l-126 -597h-59l149 705h50l240 -602l125 597h59zM420 786h-51l112 157h66z" />
    <glyph glyph-name="nacute" unicode="&#x144;" horiz-adv-x="550" 
d="M428 0h-57l73 344q18 84 -12 130.5t-108 46.5q-77 0 -126 -45t-67 -130l-73 -346h-56l119 562h54l-20 -94q67 102 185 102q95 0 139.5 -59t22.5 -161zM370 637h-51l112 157h66z" />
    <glyph glyph-name="Ncommaaccent" unicode="&#x145;" horiz-adv-x="629" 
d="M487 0h-51l-239 597l-126 -597h-59l149 705h50l240 -602l125 597h59zM151 -281h-44l110 207h69z" />
    <glyph glyph-name="ncommaaccent" unicode="&#x146;" horiz-adv-x="551" 
d="M429 0h-57l73 344q18 84 -12 130.5t-108 46.5q-77 0 -126 -45t-67 -130l-73 -346h-56l119 562h54l-20 -94q67 102 185 102q95 0 139.5 -59t22.5 -161zM98 -281h-44l110 207h69z" />
    <glyph glyph-name="Ncaron" unicode="&#x147;" horiz-adv-x="629" 
d="M487 0h-51l-239 597l-126 -597h-59l149 705h50l240 -602l125 597h59zM616 939l-171 -151h-57l-105 151h51l89 -114l137 114h56z" />
    <glyph glyph-name="ncaron" unicode="&#x148;" horiz-adv-x="550" 
d="M428 0h-57l73 344q18 84 -12 130.5t-108 46.5q-77 0 -126 -45t-67 -130l-73 -346h-56l119 562h54l-20 -94q67 102 185 102q95 0 139.5 -59t22.5 -161zM544 788l-171 -151h-57l-105 151h51l89 -114l137 114h56z" />
    <glyph glyph-name="Eng" unicode="&#x14a;" horiz-adv-x="629" 
d="M261 -208l12 53q72 0 105 35t53 125l-233 594l-127 -599h-59l149 705h53l236 -602l126 597h59l-146 -689q-27 -119 -76 -169t-152 -50z" />
    <glyph glyph-name="eng" unicode="&#x14b;" horiz-adv-x="551" 
d="M203 -208l12 53q74 0 106.5 36.5t52.5 132.5l71 330q18 84 -12 130.5t-108 46.5q-77 0 -126 -45t-67 -130l-73 -346h-56l119 562h54l-20 -94q67 102 185 102q95 0 139.5 -59t22.5 -161l-70 -327q-27 -126 -75.5 -178.5t-154.5 -52.5z" />
    <glyph glyph-name="Omacron" unicode="&#x14c;" horiz-adv-x="586" 
d="M239 -8q-106 0 -162.5 70.5t-29.5 197.5l44 206q24 111 98 178.5t177 67.5q105 0 161.5 -71.5t28.5 -206.5l-42 -197q-24 -110 -98.5 -177.5t-176.5 -67.5zM241 49q79 0 137.5 52t78.5 145l40 188q24 110 -13.5 165t-119.5 55q-79 0 -137.5 -52t-78.5 -145l-42 -197
q-23 -108 14.5 -159.5t120.5 -51.5zM254 788l10 44h279l-10 -44h-279z" />
    <glyph glyph-name="omacron" unicode="&#x14d;" 
d="M210 -10q-105 0 -152.5 61.5t-22.5 177.5l25 117q22 104 85 163t162 59q101 0 150 -61.5t26 -169.5l-26 -122q-22 -105 -86 -165t-161 -60zM212 43q71 0 121 44t66 122l30 143q16 76 -17.5 119.5t-105.5 43.5q-73 0 -123 -43t-66 -120l-30 -143q-16 -78 17.5 -122
t107.5 -44zM186 636l10 44h279l-10 -44h-279z" />
    <glyph glyph-name="Obreve" unicode="&#x14e;" horiz-adv-x="586" 
d="M239 -8q-106 0 -162.5 70.5t-29.5 197.5l44 206q24 111 98 178.5t177 67.5q105 0 161.5 -71.5t28.5 -206.5l-42 -197q-24 -110 -98.5 -177.5t-176.5 -67.5zM241 49q79 0 137.5 52t78.5 145l40 188q24 110 -13.5 165t-119.5 55q-79 0 -137.5 -52t-78.5 -145l-42 -197
q-23 -108 14.5 -159.5t120.5 -51.5zM284 936h47l-3 -15q-9 -43 10.5 -67t63.5 -24q43 0 73.5 23t39.5 66l4 17h47l-3 -15q-14 -65 -57 -99.5t-109 -34.5q-67 0 -98 37.5t-18 99.5z" />
    <glyph glyph-name="obreve" unicode="&#x14f;" 
d="M210 -10q-105 0 -152.5 61.5t-22.5 177.5l25 117q22 104 85 163t162 59q101 0 150 -61.5t26 -169.5l-26 -122q-22 -105 -86 -165t-161 -60zM212 43q71 0 121 44t66 122l30 143q16 76 -17.5 119.5t-105.5 43.5q-73 0 -123 -43t-66 -120l-30 -143q-16 -78 17.5 -122
t107.5 -44zM225 784h47l-3 -15q-9 -43 10.5 -67t63.5 -24q43 0 73.5 23t39.5 66l4 17h47l-3 -15q-14 -65 -57 -99.5t-109 -34.5q-67 0 -98 37.5t-18 99.5z" />
    <glyph glyph-name="Ohungarumlaut" unicode="&#x150;" horiz-adv-x="590" 
d="M239 -8q-106 0 -162.5 70.5t-29.5 197.5l44 206q24 111 98 178.5t177 67.5q105 0 161.5 -71.5t28.5 -206.5l-42 -197q-24 -110 -98.5 -177.5t-176.5 -67.5zM241 49q79 0 137.5 52t78.5 145l40 188q24 110 -13.5 165t-119.5 55q-79 0 -137.5 -52t-78.5 -145l-42 -197
q-23 -108 14.5 -159.5t120.5 -51.5zM467 779h-40l108 154h50zM341 779h-40l108 154h50z" />
    <glyph glyph-name="ohungarumlaut" unicode="&#x151;" 
d="M210 -10q-105 0 -152.5 61.5t-22.5 177.5l25 117q22 104 85 163t162 59q101 0 150 -61.5t26 -169.5l-26 -122q-22 -105 -86 -165t-161 -60zM212 43q71 0 121 44t66 122l30 143q16 76 -17.5 119.5t-105.5 43.5q-73 0 -123 -43t-66 -120l-30 -143q-16 -78 17.5 -122
t107.5 -44zM403 633h-40l108 154h50zM277 633h-40l108 154h50z" />
    <glyph glyph-name="OE" unicode="&#x152;" horiz-adv-x="914" 
d="M534 330l-58 -273h333l-12 -57h-392l21 102q-78 -110 -196 -110q-102 0 -156 69.5t-32 174.5l49 234q22 106 94 173.5t168 67.5q67 0 116.5 -29t62.5 -80l22 103h392l-12 -58h-333l-56 -264h239l-11 -53h-239zM237 45q75 0 137 50.5t79 134.5l52 242q18 85 -20.5 136
t-116.5 51q-77 0 -138 -50.5t-79 -135.5l-51 -242q-18 -85 20.5 -135.5t116.5 -50.5z" />
    <glyph glyph-name="oe" unicode="&#x153;" horiz-adv-x="893" 
d="M855 352l-18 -84h-369l-14 -66q-16 -76 17.5 -119.5t105.5 -43.5q70 0 121 39.5t63 99.5l2 6h57l-1 -4q-17 -81 -82 -135.5t-161 -54.5q-72 0 -117 29.5t-55 84.5q-71 -114 -197 -114q-102 0 -149.5 61t-25.5 164l28 131q22 104 86 163t164 59q68 0 113 -30t55 -83
q71 116 202 116q101 0 149 -58.5t26 -160.5zM209 43q72 0 123 44t67 122l30 143q16 76 -16 119.5t-104 43.5q-74 0 -125 -43.5t-67 -119.5l-30 -143q-16 -79 16 -122.5t106 -43.5zM487 356l-9 -44h312l9 43q17 81 -14.5 123.5t-105.5 42.5t-125 -43.5t-67 -121.5z" />
    <glyph glyph-name="Racute" unicode="&#x154;" horiz-adv-x="559" 
d="M255 224h-137l-47 -224h-59l149 705h194q109 0 163.5 -61t33.5 -170l-5 -26q-18 -94 -78.5 -150t-151.5 -64l133 -234h-71zM208 647l-78 -366h140q82 0 141.5 42.5t76.5 124.5l6 28q18 86 -22.5 128.5t-123.5 42.5h-140zM378 786h-51l112 157h66z" />
    <glyph glyph-name="racute" unicode="&#x155;" horiz-adv-x="336" 
d="M347 570h8l-12 -57q-82 0 -138.5 -45t-74.5 -127l-72 -341h-56l119 562h54l-22 -105q27 48 79 80.5t115 32.5zM234 637h-51l112 157h66z" />
    <glyph glyph-name="Rcommaaccent" unicode="&#x156;" horiz-adv-x="559" 
d="M255 224h-137l-47 -224h-59l149 705h194q109 0 163.5 -61t33.5 -170l-5 -26q-18 -94 -78.5 -150t-151.5 -64l133 -234h-71zM208 647l-78 -366h140q82 0 141.5 42.5t76.5 124.5l6 28q18 86 -22.5 128.5t-123.5 42.5h-140zM121 -281h-44l110 207h69z" />
    <glyph glyph-name="rcommaaccent" unicode="&#x157;" horiz-adv-x="328" 
d="M347 570h8l-12 -57q-82 0 -138.5 -45t-74.5 -127l-72 -341h-56l119 562h54l-22 -105q27 48 79 80.5t115 32.5zM-83 -281h-44l110 207h69z" />
    <glyph glyph-name="Rcaron" unicode="&#x158;" horiz-adv-x="559" 
d="M255 224h-137l-47 -224h-59l149 705h194q109 0 163.5 -61t33.5 -170l-5 -26q-18 -94 -78.5 -150t-151.5 -64l133 -234h-71zM208 647l-78 -366h140q82 0 141.5 42.5t76.5 124.5l6 28q18 86 -22.5 128.5t-123.5 42.5h-140zM567 939l-171 -151h-57l-105 151h51l89 -114
l137 114h56z" />
    <glyph glyph-name="rcaron" unicode="&#x159;" horiz-adv-x="332" 
d="M347 570h8l-12 -57q-82 0 -138.5 -45t-74.5 -127l-72 -341h-56l119 562h54l-22 -105q27 48 79 80.5t115 32.5zM448 790l-171 -151h-57l-105 151h51l89 -114l137 114h56z" />
    <glyph glyph-name="Sacute" unicode="&#x15a;" horiz-adv-x="581" 
d="M439 178q9 42 -6 71t-46 45t-70 29t-78.5 28.5t-70.5 36t-46.5 58.5t-7.5 90q14 90 83.5 135.5t158.5 42.5q45 -1 84.5 -15.5t70 -42t43 -73t0.5 -102.5h-59q18 85 -24 130t-116 47q-69 2 -119.5 -27.5t-63.5 -94.5q-8 -44 7 -74t46 -46.5t70 -29t78 -26.5t70 -34t47 -57
t8 -90q-14 -96 -81.5 -143.5t-170.5 -47.5q-105 0 -167 65.5t-37 182.5h58q-20 -93 24.5 -142.5t123.5 -49.5q163 0 191 134zM408 786h-51l112 157h66z" />
    <glyph glyph-name="sacute" unicode="&#x15b;" horiz-adv-x="503" 
d="M471 374h-54q32 150 -121 150q-66 0 -109 -29.5t-52 -75.5q-9 -40 10.5 -65t55 -34.5t77 -21.5t77.5 -24.5t57.5 -45t15.5 -81.5q-9 -74 -68 -117t-162 -43q-101 0 -150 56t-30 150h56q-16 -73 17 -114.5t107 -41.5t120 29t54 82q5 31 -10 51.5t-42.5 31t-61.5 18.5
t-68 19t-61 27t-41.5 48t-8.5 77q8 69 68 111.5t150 42.5q103 0 149 -51.5t25 -148.5zM328 637h-51l112 157h66z" />
    <glyph glyph-name="Scircumflex" unicode="&#x15c;" horiz-adv-x="581" 
d="M439 178q9 42 -6 71t-46 45t-70 29t-78.5 28.5t-70.5 36t-46.5 58.5t-7.5 90q14 90 83.5 135.5t158.5 42.5q45 -1 84.5 -15.5t70 -42t43 -73t0.5 -102.5h-59q18 85 -24 130t-116 47q-69 2 -119.5 -27.5t-63.5 -94.5q-8 -44 7 -74t46 -46.5t70 -29t78 -26.5t70 -34t47 -57
t8 -90q-14 -96 -81.5 -143.5t-170.5 -47.5q-105 0 -167 65.5t-37 182.5h58q-20 -93 24.5 -142.5t123.5 -49.5q163 0 191 134zM456 939l105 -151h-50l-87 113l-139 -113h-57l171 151h57z" />
    <glyph glyph-name="scircumflex" unicode="&#x15d;" horiz-adv-x="503" 
d="M471 374h-54q32 150 -121 150q-66 0 -109 -29.5t-52 -75.5q-9 -40 10.5 -65t55 -34.5t77 -21.5t77.5 -24.5t57.5 -45t15.5 -81.5q-9 -74 -68 -117t-162 -43q-101 0 -150 56t-30 150h56q-16 -73 17 -114.5t107 -41.5t120 29t54 82q5 31 -10 51.5t-42.5 31t-61.5 18.5
t-68 19t-61 27t-41.5 48t-8.5 77q8 69 68 111.5t150 42.5q103 0 149 -51.5t25 -148.5zM386 789l105 -151h-50l-87 113l-139 -113h-57l171 151h57z" />
    <glyph glyph-name="Scedilla" unicode="&#x15e;" horiz-adv-x="581" 
d="M439 178q9 42 -6 71t-46 45t-70 29t-78.5 28.5t-70.5 36t-46.5 58.5t-7.5 90q14 90 83.5 135.5t158.5 42.5q45 -1 84.5 -15.5t70 -42t43 -73t0.5 -102.5h-59q18 85 -24 130t-116 47q-69 2 -119.5 -27.5t-63.5 -94.5q-8 -44 7 -74t46 -46.5t70 -29t78 -26.5t70 -34t47 -57
t8 -90q-14 -93 -77.5 -140.5t-160.5 -50.5l-91 -136h-66l107 138q-91 11 -141 75t-27 171h58q-20 -93 24.5 -142.5t123.5 -49.5q163 0 191 134z" />
    <glyph glyph-name="scedilla" unicode="&#x15f;" horiz-adv-x="503" 
d="M471 374h-54q32 150 -121 150q-66 0 -109 -29.5t-52 -75.5q-10 -47 19.5 -73t78 -37t97 -24t78.5 -46.5t20 -91.5q-11 -67 -64.5 -109.5t-138.5 -49.5l-86 -136h-66l102 136q-90 7 -132.5 61.5t-24.5 143.5h56q-16 -73 17 -114.5t107 -41.5q67 0 115 30t59 81
q9 41 -21.5 63.5t-78.5 33.5t-96 25t-77.5 51t-19.5 99q11 69 70 111.5t148 42.5q103 0 149 -51.5t25 -148.5z" />
    <glyph glyph-name="Scaron" unicode="&#x160;" horiz-adv-x="581" 
d="M439 178q9 42 -6 71t-46 45t-70 29t-78.5 28.5t-70.5 36t-46.5 58.5t-7.5 90q14 90 83.5 135.5t158.5 42.5q45 -1 84.5 -15.5t70 -42t43 -73t0.5 -102.5h-59q18 85 -24 130t-116 47q-69 2 -119.5 -27.5t-63.5 -94.5q-8 -44 7 -74t46 -46.5t70 -29t78 -26.5t70 -34t47 -57
t8 -90q-14 -96 -81.5 -143.5t-170.5 -47.5q-105 0 -167 65.5t-37 182.5h58q-20 -93 24.5 -142.5t123.5 -49.5q163 0 191 134zM596 939l-171 -151h-57l-105 151h51l89 -114l137 114h56z" />
    <glyph glyph-name="scaron" unicode="&#x161;" horiz-adv-x="503" 
d="M471 374h-54q32 150 -121 150q-66 0 -109 -29.5t-52 -75.5q-9 -40 10.5 -65t55 -34.5t77 -21.5t77.5 -24.5t57.5 -45t15.5 -81.5q-9 -74 -68 -117t-162 -43q-101 0 -150 56t-30 150h56q-16 -73 17 -114.5t107 -41.5t120 29t54 82q5 31 -10 51.5t-42.5 31t-61.5 18.5
t-68 19t-61 27t-41.5 48t-8.5 77q8 69 68 111.5t150 42.5q103 0 149 -51.5t25 -148.5zM524 789l-171 -151h-57l-105 151h51l89 -114l137 114h56z" />
    <glyph glyph-name="Tcommaaccent" unicode="&#x162;" horiz-adv-x="514" 
d="M221 0h-59l137 647h-195l12 58h450l-12 -58h-196zM71 -281h-44l110 207h69z" />
    <glyph glyph-name="tcommaaccent" unicode="&#x163;" horiz-adv-x="329" 
d="M340 561l-11 -50h-158l-63 -295q-8 -38 -11 -62t-2 -47t10 -35t27 -19.5t47 -7.5q13 0 53 2q-2 -19 -10 -52q-27 -3 -50 -3q-94 0 -119.5 55t-2.5 163l64 301h-64l9 40q54 0 72.5 22.5t34.5 97.5h39l-23 -110h158zM9 -281h-44l110 207h69z" />
    <glyph glyph-name="Tcaron" unicode="&#x164;" horiz-adv-x="514" 
d="M221 0h-59l137 647h-195l12 58h450l-12 -58h-196zM554 939l-171 -151h-57l-105 151h51l89 -114l137 114h56z" />
    <glyph glyph-name="tcaron" unicode="&#x165;" horiz-adv-x="321" 
d="M294 626h-41l96 166h62zM340 561l-11 -50h-158l-63 -295q-8 -38 -11 -62t-2 -47t10 -35t27 -19.5t47 -7.5q13 0 53 2q-2 -19 -10 -52q-27 -3 -50 -3q-94 0 -119.5 55t-2.5 163l64 301h-64l9 40q54 0 72.5 22.5t34.5 97.5h39l-23 -110h158z" />
    <glyph glyph-name="Tbar" unicode="&#x166;" horiz-adv-x="514" 
d="M240 369l59 278h-195l12 58h450l-12 -58h-196l-59 -278h86l-6 -30h-86l-72 -339h-59l72 339h-86l6 30h86z" />
    <glyph glyph-name="tbar" unicode="&#x167;" horiz-adv-x="324" 
d="M336 561l-11 -50h-158l-43 -201h158l-6 -30h-158l-14 -64q-8 -38 -11 -62t-2 -47t10 -35t27 -19.5t47 -7.5q13 0 53 2q-2 -19 -10 -52q-27 -3 -50 -3q-67 0 -100 30t-33 78.5t11 109.5l15 70h-64l6 30h64l43 201h-64l9 40q54 0 72.5 22.5t34.5 97.5h39l-23 -110h158z" />
    <glyph glyph-name="Utilde" unicode="&#x168;" horiz-adv-x="601" 
d="M151 705h59l-100 -470q-18 -86 21.5 -136t116.5 -50t137.5 50.5t78.5 135.5l100 470h59l-99 -468q-23 -110 -99 -177.5t-179 -67.5q-105 0 -161 68.5t-33 176.5zM590 873l-12 -52q-54 -38 -99 -38q-27 0 -70 19t-69 19q-42 0 -103 -39l11 51q54 35 99 35q28 0 72.5 -18
t67.5 -18q42 0 103 41z" />
    <glyph glyph-name="utilde" unicode="&#x169;" horiz-adv-x="540" 
d="M111 562h56l-80 -374q-14 -67 23.5 -107.5t105.5 -40.5t119 41t65 107l80 374h57l-78 -365q-20 -94 -85 -150.5t-159 -56.5q-98 0 -149.5 57.5t-32.5 149.5zM525 722l-12 -52q-54 -38 -99 -38q-27 0 -70 19t-69 19q-42 0 -103 -39l11 51q54 35 99 35q28 0 72.5 -18
t67.5 -18q42 0 103 41z" />
    <glyph glyph-name="Umacron" unicode="&#x16a;" horiz-adv-x="601" 
d="M151 705h59l-100 -470q-18 -86 21.5 -136t116.5 -50t137.5 50.5t78.5 135.5l100 470h59l-99 -468q-23 -110 -99 -177.5t-179 -67.5q-105 0 -161 68.5t-33 176.5zM264 788l10 44h279l-10 -44h-279z" />
    <glyph glyph-name="umacron" unicode="&#x16b;" horiz-adv-x="540" 
d="M111 562h56l-80 -374q-14 -67 23.5 -107.5t105.5 -40.5t119 41t65 107l80 374h57l-78 -365q-20 -94 -85 -150.5t-159 -56.5q-98 0 -149.5 57.5t-32.5 149.5zM199 638l10 44h279l-10 -44h-279z" />
    <glyph glyph-name="Ubreve" unicode="&#x16c;" horiz-adv-x="601" 
d="M151 705h59l-100 -470q-18 -86 21.5 -136t116.5 -50t137.5 50.5t78.5 135.5l100 470h59l-99 -468q-23 -110 -99 -177.5t-179 -67.5q-105 0 -161 68.5t-33 176.5zM296 936h47l-3 -15q-9 -43 10.5 -67t63.5 -24q43 0 73.5 23t39.5 66l4 17h47l-3 -15q-14 -65 -57 -99.5
t-109 -34.5q-67 0 -98 37.5t-18 99.5z" />
    <glyph glyph-name="ubreve" unicode="&#x16d;" horiz-adv-x="540" 
d="M111 562h56l-80 -374q-14 -67 23.5 -107.5t105.5 -40.5t119 41t65 107l80 374h57l-78 -365q-20 -94 -85 -150.5t-159 -56.5q-98 0 -149.5 57.5t-32.5 149.5zM231 785h47l-3 -15q-9 -43 10.5 -67t63.5 -24q43 0 73.5 23t39.5 66l4 17h47l-3 -15q-14 -65 -57 -99.5
t-109 -34.5q-67 0 -98 37.5t-18 99.5z" />
    <glyph glyph-name="Uring" unicode="&#x16e;" horiz-adv-x="601" 
d="M151 705h59l-100 -470q-18 -86 21.5 -136t116.5 -50t137.5 50.5t78.5 135.5l100 470h59l-99 -468q-23 -110 -99 -177.5t-179 -67.5q-105 0 -161 68.5t-33 176.5zM418 893q-16 0 -29 -10.5t-16 -26.5q-4 -16 4.5 -27t24.5 -11t28.5 11t16.5 27q3 16 -5 26.5t-24 10.5z
M398 784q-30 0 -48 22t-11 52q6 30 29.5 49t53.5 19t47.5 -21t11.5 -51q-7 -30 -30 -50t-53 -20z" />
    <glyph glyph-name="uring" unicode="&#x16f;" horiz-adv-x="540" 
d="M111 562h56l-80 -374q-14 -67 23.5 -107.5t105.5 -40.5t119 41t65 107l80 374h57l-78 -365q-20 -94 -85 -150.5t-159 -56.5q-98 0 -149.5 57.5t-32.5 149.5zM368 743q-16 0 -29 -10.5t-16 -26.5q-4 -16 4.5 -27t24.5 -11t28.5 11t16.5 27q3 16 -5 26.5t-24 10.5zM348 634
q-30 0 -48 22t-11 52q6 30 29.5 49t53.5 19t47.5 -21t11.5 -51q-7 -30 -30 -50t-53 -20z" />
    <glyph glyph-name="Uhungarumlaut" unicode="&#x170;" horiz-adv-x="601" 
d="M151 705h59l-100 -470q-18 -86 21.5 -136t116.5 -50t137.5 50.5t78.5 135.5l100 470h59l-99 -468q-23 -110 -99 -177.5t-179 -67.5q-105 0 -161 68.5t-33 176.5zM480 779h-40l108 154h50zM354 779h-40l108 154h50z" />
    <glyph glyph-name="uhungarumlaut" unicode="&#x171;" horiz-adv-x="540" 
d="M111 562h56l-80 -374q-14 -67 23.5 -107.5t105.5 -40.5t119 41t65 107l80 374h57l-78 -365q-20 -94 -85 -150.5t-159 -56.5q-98 0 -149.5 57.5t-32.5 149.5zM420 635h-40l108 154h50zM294 635h-40l108 154h50z" />
    <glyph glyph-name="Uogonek" unicode="&#x172;" horiz-adv-x="601" 
d="M151 705h59l-100 -470q-18 -86 21.5 -136t116.5 -50t137.5 50.5t78.5 135.5l100 470h59l-99 -468q-22 -102 -88.5 -167.5t-159.5 -75.5q-14 -23 -17 -36q-8 -36 10.5 -54.5t59.5 -18.5q22 0 53 7l-11 -49q-36 -7 -65 -7q-57 0 -87 31.5t-22 78.5q4 24 18 48
q-91 10 -137.5 77t-25.5 166z" />
    <glyph glyph-name="uogonek" unicode="&#x173;" horiz-adv-x="540" 
d="M111 562h56l-80 -374q-14 -67 22 -107.5t104 -40.5t121 41t66 107l80 374h57l-78 -365q-18 -88 -77.5 -143.5t-145.5 -62.5q-15 -17 -19 -35q-8 -37 12.5 -55t62.5 -18q23 0 52 7l-10 -47q-36 -7 -65 -7q-65 0 -93 27.5t-17 78.5q7 27 25 50q-84 8 -126.5 64t-24.5 141z
" />
    <glyph glyph-name="Wcircumflex" unicode="&#x174;" horiz-adv-x="833" 
d="M201 0h-57l-43 705h58l38 -592l275 592h52l25 -592l288 592h63l-343 -705h-56l-26 586zM579 939l105 -151h-50l-87 113l-139 -113h-57l171 151h57z" />
    <glyph glyph-name="wcircumflex" unicode="&#x175;" horiz-adv-x="747" 
d="M449 562l32 -468l241 468h62l-292 -562h-53l-34 460l-229 -460h-53l-52 562h57l41 -466l230 466h50zM504 789l105 -151h-50l-87 113l-139 -113h-57l171 151h57z" />
    <glyph glyph-name="Ycircumflex" unicode="&#x176;" horiz-adv-x="576" 
d="M101 705h62l127 -374l286 374h67l-333 -432l-58 -273h-59l58 273zM450 939l105 -151h-50l-87 113l-139 -113h-57l171 151h57z" />
    <glyph glyph-name="ycircumflex" unicode="&#x177;" horiz-adv-x="528" 
d="M116 -184h-62l111 189l-89 557h58l76 -483l283 483h67zM392 789l105 -151h-50l-87 113l-139 -113h-57l171 151h57z" />
    <glyph glyph-name="Ydieresis" unicode="&#x178;" horiz-adv-x="576" 
d="M101 705h62l127 -374l286 374h67l-333 -432l-58 -273h-59l58 273zM505 820q-3 -14 -15 -23.5t-25 -9.5q-14 0 -21.5 10t-4.5 23q3 14 15 23.5t25 9.5q14 0 21.5 -10t4.5 -23zM353 820q-3 -14 -15 -23.5t-25 -9.5q-14 0 -21.5 10t-4.5 23q3 14 15 23.5t25 9.5
q14 0 21.5 -10t4.5 -23z" />
    <glyph glyph-name="Zacute" unicode="&#x179;" horiz-adv-x="519" 
d="M121 647l12 58h428l-488 -648h337l-12 -57h-436l489 647h-330zM354 786h-51l112 157h66z" />
    <glyph glyph-name="zacute" unicode="&#x17a;" horiz-adv-x="469" 
d="M80 509l11 53h395l-418 -510h293l-11 -52h-388l417 509h-299zM304 635h-51l112 157h66z" />
    <glyph glyph-name="Zdotaccent" unicode="&#x17b;" horiz-adv-x="519" 
d="M121 647l12 58h428l-488 -648h337l-12 -57h-436l489 647h-330zM390 827q-3 -15 -16.5 -26t-29.5 -11q-15 0 -23.5 11t-5.5 26q3 16 16.5 27t28.5 11q16 0 24.5 -11t5.5 -27z" />
    <glyph glyph-name="zdotaccent" unicode="&#x17c;" horiz-adv-x="469" 
d="M80 509l11 53h395l-418 -510h293l-11 -52h-388l417 509h-299zM335 675q-3 -15 -16.5 -26t-29.5 -11q-15 0 -23.5 11t-5.5 26q3 16 16.5 27t28.5 11q16 0 24.5 -11t5.5 -27z" />
    <glyph glyph-name="Zcaron" unicode="&#x17d;" horiz-adv-x="519" 
d="M121 647l12 58h428l-488 -648h337l-12 -57h-436l489 647h-330zM556 939l-171 -151h-57l-105 151h51l89 -114l137 114h56z" />
    <glyph glyph-name="zcaron" unicode="&#x17e;" horiz-adv-x="469" 
d="M80 509l11 53h395l-418 -510h293l-11 -52h-388l417 509h-299zM501 788l-171 -151h-57l-105 151h51l89 -114l137 114h56z" />
    <glyph glyph-name="florin" unicode="&#x192;" horiz-adv-x="342" 
d="M-72 -208l12 53q37 0 59 24.5t30.5 51.5t23.5 99q1 5 2 8l102 480h-66l12 53h66q24 112 64.5 154.5t128.5 42.5q26 0 38 -2l-10 -50q-9 1 -26 1q-64 0 -91.5 -29t-46.5 -117h132l-12 -53h-132l-97 -459q-27 -130 -44 -168q-35 -81 -114 -88q-15 -2 -31 -1z" />
    <glyph glyph-name="Scommaaccent" unicode="&#x218;" horiz-adv-x="581" 
d="M439 178q9 42 -6 71t-46 45t-70 29t-78.5 28.5t-70.5 36t-46.5 58.5t-7.5 90q14 90 83.5 135.5t158.5 42.5q45 -1 84.5 -15.5t70 -42t43 -73t0.5 -102.5h-59q18 85 -24 130t-116 47q-69 2 -119.5 -27.5t-63.5 -94.5q-8 -44 7 -74t46 -46.5t70 -29t78 -26.5t70 -34t47 -57
t8 -90q-14 -96 -81.5 -143.5t-170.5 -47.5q-105 0 -167 65.5t-37 182.5h58q-20 -93 24.5 -142.5t123.5 -49.5q163 0 191 134zM98 -281h-44l110 207h69z" />
    <glyph glyph-name="scommaaccent" unicode="&#x219;" horiz-adv-x="503" 
d="M471 374h-54q32 150 -121 150q-66 0 -109 -29.5t-52 -75.5q-9 -40 10.5 -65t55 -34.5t77 -21.5t77.5 -24.5t57.5 -45t15.5 -81.5q-9 -74 -68 -117t-162 -43q-101 0 -150 56t-30 150h56q-16 -73 17 -114.5t107 -41.5t120 29t54 82q5 31 -10 51.5t-42.5 31t-61.5 18.5
t-68 19t-61 27t-41.5 48t-8.5 77q8 69 68 111.5t150 42.5q103 0 149 -51.5t25 -148.5zM71 -281h-44l110 207h69z" />
    <glyph glyph-name="circumflex" unicode="&#x2c6;" horiz-adv-x="585" 
d="M413 739l105 -151h-50l-87 113l-139 -113h-57l171 151h57z" />
    <glyph glyph-name="caron" unicode="&#x2c7;" horiz-adv-x="585" 
d="M551 739l-171 -151h-57l-105 151h51l89 -114l137 114h56z" />
    <glyph glyph-name="breve" unicode="&#x2d8;" horiz-adv-x="538" 
d="M219 736h47l-3 -15q-9 -43 10.5 -67t63.5 -24q43 0 73.5 23t39.5 66l4 17h47l-3 -15q-14 -65 -57 -99.5t-109 -34.5q-67 0 -98 37.5t-18 99.5z" />
    <glyph glyph-name="dotaccent" unicode="&#x2d9;" horiz-adv-x="504" 
d="M358 627q-3 -15 -16.5 -26t-29.5 -11q-15 0 -23.5 11t-5.5 26q3 16 16.5 27t28.5 11q16 0 24.5 -11t5.5 -27z" />
    <glyph glyph-name="ring" unicode="&#x2da;" horiz-adv-x="527" 
d="M347 693q-16 0 -29 -10.5t-16 -26.5q-4 -16 4.5 -27t24.5 -11t28.5 11t16.5 27q3 16 -5 26.5t-24 10.5zM327 584q-30 0 -48 22t-11 52q6 30 29.5 49t53.5 19t47.5 -21t11.5 -51q-7 -30 -30 -50t-53 -20z" />
    <glyph glyph-name="ogonek" unicode="&#x2db;" horiz-adv-x="543" 
d="M202 -100l-10 -49q-36 -7 -66 -7q-50 0 -73 31t-16 79q5 29 16 54h49q-8 -21 -11 -40q-8 -40 5 -57.5t54 -17.5q23 0 52 7z" />
    <glyph glyph-name="tilde" unicode="&#x2dc;" horiz-adv-x="582" 
d="M535 673l-12 -52q-54 -38 -99 -38q-27 0 -70 19t-69 19q-42 0 -103 -39l11 51q54 35 99 35q28 0 72.5 -18t67.5 -18q42 0 103 41z" />
    <glyph glyph-name="hungarumlaut" unicode="&#x2dd;" horiz-adv-x="496" 
d="M385 579h-40l108 154h50zM259 579h-40l108 154h50z" />
    <glyph glyph-name="pi" unicode="&#x3c0;" horiz-adv-x="660" 
d="M311 245h-80l-24 -113h-44l94 444h89q100 0 138 -39t20 -123l-3 -17q-16 -78 -60 -115t-130 -37zM292 533l-52 -245h68q70 0 103 25t47 87l2 13q14 63 -10 91.5t-94 28.5h-64zM284 -9q-123 0 -188.5 72t-38.5 196l39 184q27 129 107 200.5t198 71.5q120 0 183.5 -73.5
t37.5 -198.5l-39 -184q-28 -129 -105 -198.5t-194 -69.5zM282 21q104 0 175 62t96 176l39 184q23 112 -30 177t-159 65t-179.5 -64t-97.5 -178l-39 -184q-24 -111 31.5 -174.5t163.5 -63.5z" />
    <glyph glyph-name="Bdotaccent" unicode="&#x1e02;" horiz-adv-x="565" 
d="M418 826q-3 -15 -16.5 -26t-29.5 -11q-15 0 -23.5 11t-5.5 26q3 16 16.5 27t28.5 11q16 0 24.5 -11t5.5 -27zM12 0l149 705h196q111 0 163 -41t39 -137l-2 -15q-9 -66 -48 -105t-100 -51q108 -35 85 -160l-2 -11q-18 -100 -82.5 -142.5t-175.5 -42.5h-222zM436 193l2 11
q12 65 -22.5 96.5t-106.5 31.5h-168l-58 -275h153q175 0 200 136zM208 647l-57 -266h172q151 0 173 129l2 12q11 71 -25 98t-119 27h-146z" />
    <glyph glyph-name="bdotaccent" unicode="&#x1e03;" horiz-adv-x="545" 
d="M236 -10q-65 0 -108.5 29t-52.5 73l-19 -92h-54l159 749h56l-60 -281q67 102 183 102q95 0 139.5 -59t22.5 -161l-29 -137q-23 -107 -83.5 -165t-153.5 -58zM222 39q75 0 126 47.5t69 132.5l26 124q17 84 -13 131t-106 47q-72 0 -123.5 -45t-68.5 -126l-28 -131
q-18 -85 13 -132.5t105 -47.5zM408 676q-3 -15 -16.5 -26t-29.5 -11q-15 0 -23.5 11t-5.5 26q3 16 16.5 27t28.5 11q16 0 24.5 -11t5.5 -27z" />
    <glyph glyph-name="Ddotaccent" unicode="&#x1e0a;" horiz-adv-x="592" 
d="M244 0h-232l149 705h212q108 0 162.5 -69t28.5 -190l-39 -184q-27 -126 -101 -194t-180 -68zM83 57h157q85 0 145.5 53.5t83.5 163.5l34 161q45 212 -138 212h-157zM408 825q-3 -15 -16.5 -26t-29.5 -11q-15 0 -23.5 11t-5.5 26q3 16 16.5 27t28.5 11q16 0 24.5 -11
t5.5 -27z" />
    <glyph glyph-name="ddotaccent" unicode="&#x1e0b;" horiz-adv-x="545" 
d="M193 -10q-95 0 -139 59.5t-22 163.5l29 137q22 104 83 162t153 58q65 0 107.5 -29t50.5 -73l60 281h57l-159 -749h-54l19 92q-66 -102 -185 -102zM209 39q74 0 124.5 47.5t68.5 132.5l28 131q17 81 -15 126t-104 45q-76 0 -127 -47.5t-68 -130.5l-26 -124
q-18 -85 13 -132.5t106 -47.5zM363 676q-3 -15 -16.5 -26t-29.5 -11q-15 0 -23.5 11t-5.5 26q3 16 16.5 27t28.5 11q16 0 24.5 -11t5.5 -27z" />
    <glyph glyph-name="Fdotaccent" unicode="&#x1e1e;" horiz-adv-x="496" 
d="M412 828q-3 -15 -16.5 -26t-29.5 -11q-15 0 -23.5 11t-5.5 26q3 16 16.5 27t28.5 11q16 0 24.5 -11t5.5 -27zM141 330l-70 -330h-59l149 705h377l-12 -58h-318l-56 -264h220l-11 -53h-220z" />
    <glyph glyph-name="fdotaccent" unicode="&#x1e1f;" horiz-adv-x="330" 
d="M355 864q-3 -15 -16.5 -26t-29.5 -11q-15 0 -23.5 11t-5.5 26q3 16 16.5 27t28.5 11q16 0 24.5 -11t5.5 -27zM346 561l-11 -51h-132l-108 -510h-57l108 510h-66l11 51h66q24 112 64 151.5t127 39.5q10 0 24 -1t15 -1l-11 -50q-8 2 -29 2q-61 0 -88 -28t-45 -113h132z" />
    <glyph glyph-name="Mdotaccent" unicode="&#x1e40;" horiz-adv-x="741" 
d="M351 112h-47l-112 458l-121 -570h-59l149 705h53l126 -519l348 519h59l-149 -705h-59l121 571zM505 827q-3 -15 -16.5 -26t-29.5 -11q-15 0 -23.5 11t-5.5 26q3 16 16.5 27t28.5 11q16 0 24.5 -11t5.5 -27z" />
    <glyph glyph-name="mdotaccent" unicode="&#x1e41;" horiz-adv-x="782" 
d="M121 562h54l-16 -75q55 83 147 83q54 0 92 -27t46 -76q56 103 167 103q77 0 112 -52t16 -142l-79 -376h-57l81 384q14 66 -9.5 102.5t-81.5 36.5q-57 0 -97 -35.5t-54 -97.5l-82 -390h-57l81 384q14 66 -10 102.5t-82 36.5q-57 0 -98 -35.5t-54 -97.5l-82 -390h-56z
M523 676q-3 -15 -16.5 -26t-29.5 -11q-15 0 -23.5 11t-5.5 26q3 16 16.5 27t28.5 11q16 0 24.5 -11t5.5 -27z" />
    <glyph glyph-name="Pdotaccent" unicode="&#x1e56;" horiz-adv-x="559" 
d="M266 204h-152l-43 -204h-59l149 705h191q108 0 164 -63.5t34 -176.5l-5 -26q-22 -114 -97 -174.5t-182 -60.5zM208 647l-82 -386h140q82 0 142.5 46t77.5 133l5 25q19 92 -21.5 137t-121.5 45h-140zM400 826q-3 -15 -16.5 -26t-29.5 -11q-15 0 -23.5 11t-5.5 26
q3 16 16.5 27t28.5 11q16 0 24.5 -11t5.5 -27z" />
    <glyph glyph-name="pdotaccent" unicode="&#x1e57;" horiz-adv-x="550" 
d="M339 569q97 0 140 -63t19 -176l-25 -116q-23 -105 -83.5 -163t-152.5 -58q-64 0 -107 29.5t-52 72.5l-60 -280h-55l158 747h54l-20 -96q64 103 184 103zM324 520q-73 0 -124.5 -46t-68.5 -128l-27 -126q-17 -84 14 -131t104 -47q75 0 126 47t69 131l26 119
q19 86 -12 133.5t-107 47.5zM400 675q-3 -15 -16.5 -26t-29.5 -11q-15 0 -23.5 11t-5.5 26q3 16 16.5 27t28.5 11q16 0 24.5 -11t5.5 -27z" />
    <glyph glyph-name="Sdotaccent" unicode="&#x1e60;" horiz-adv-x="581" 
d="M439 178q9 42 -6 71t-46 45t-70 29t-78.5 28.5t-70.5 36t-46.5 58.5t-7.5 90q14 90 83.5 135.5t158.5 42.5q45 -1 84.5 -15.5t70 -42t43 -73t0.5 -102.5h-59q18 85 -24 130t-116 47q-69 2 -119.5 -27.5t-63.5 -94.5q-8 -44 7 -74t46 -46.5t70 -29t78 -26.5t70 -34t47 -57
t8 -90q-14 -96 -81.5 -143.5t-170.5 -47.5q-105 0 -167 65.5t-37 182.5h58q-20 -93 24.5 -142.5t123.5 -49.5q163 0 191 134zM436 824q-3 -15 -16.5 -26t-29.5 -11q-15 0 -23.5 11t-5.5 26q3 16 16.5 27t28.5 11q16 0 24.5 -11t5.5 -27z" />
    <glyph glyph-name="sdotaccent" unicode="&#x1e61;" horiz-adv-x="503" 
d="M471 374h-54q32 150 -121 150q-66 0 -109 -29.5t-52 -75.5q-9 -40 10.5 -65t55 -34.5t77 -21.5t77.5 -24.5t57.5 -45t15.5 -81.5q-9 -74 -68 -117t-162 -43q-101 0 -150 56t-30 150h56q-16 -73 17 -114.5t107 -41.5t120 29t54 82q5 31 -10 51.5t-42.5 31t-61.5 18.5
t-68 19t-61 27t-41.5 48t-8.5 77q8 69 68 111.5t150 42.5q103 0 149 -51.5t25 -148.5zM358 677q-3 -15 -16.5 -26t-29.5 -11q-15 0 -23.5 11t-5.5 26q3 16 16.5 27t28.5 11q16 0 24.5 -11t5.5 -27z" />
    <glyph glyph-name="Tdotaccent" unicode="&#x1e6a;" horiz-adv-x="514" 
d="M221 0h-59l137 647h-195l12 58h450l-12 -58h-196zM403 827q-3 -15 -16.5 -26t-29.5 -11q-15 0 -23.5 11t-5.5 26q3 16 16.5 27t28.5 11q16 0 24.5 -11t5.5 -27z" />
    <glyph glyph-name="tdotaccent" unicode="&#x1e6b;" horiz-adv-x="329" 
d="M340 561l-11 -50h-158l-63 -295q-8 -38 -11 -62t-2 -47t10 -35t27 -19.5t47 -7.5q13 0 53 2q-2 -19 -10 -52q-27 -3 -50 -3q-94 0 -119.5 55t-2.5 163l64 301h-64l9 40q54 0 72.5 22.5t34.5 97.5h39l-23 -110h158zM248 777q-3 -15 -16.5 -26t-29.5 -11q-15 0 -23.5 11
t-5.5 26q3 16 16.5 27t28.5 11q16 0 24.5 -11t5.5 -27z" />
    <glyph glyph-name="Wgrave" unicode="&#x1e80;" horiz-adv-x="833" 
d="M201 0h-57l-43 705h58l38 -592l275 592h52l25 -592l288 592h63l-343 -705h-56l-26 586zM530 786h-45l-60 157h58z" />
    <glyph glyph-name="wgrave" unicode="&#x1e81;" horiz-adv-x="747" 
d="M449 562l32 -468l241 468h62l-292 -562h-53l-34 460l-229 -460h-53l-52 562h57l41 -466l230 466h50zM457 637h-45l-60 157h58z" />
    <glyph glyph-name="Wacute" unicode="&#x1e82;" horiz-adv-x="833" 
d="M201 0h-57l-43 705h58l38 -592l275 592h52l25 -592l288 592h63l-343 -705h-56l-26 586zM545 786h-51l112 157h66z" />
    <glyph glyph-name="wacute" unicode="&#x1e83;" horiz-adv-x="747" 
d="M449 562l32 -468l241 468h62l-292 -562h-53l-34 460l-229 -460h-53l-52 562h57l41 -466l230 466h50zM471 637h-51l112 157h66z" />
    <glyph glyph-name="Wdieresis" unicode="&#x1e84;" horiz-adv-x="833" 
d="M201 0h-57l-43 705h58l38 -592l275 592h52l25 -592l288 592h63l-343 -705h-56l-26 586zM632 820q-3 -14 -15 -23.5t-25 -9.5q-14 0 -21.5 10t-4.5 23q3 14 15 23.5t25 9.5q14 0 21.5 -10t4.5 -23zM480 820q-3 -14 -15 -23.5t-25 -9.5q-14 0 -21.5 10t-4.5 23
q3 14 15 23.5t25 9.5q14 0 21.5 -10t4.5 -23z" />
    <glyph glyph-name="wdieresis" unicode="&#x1e85;" horiz-adv-x="747" 
d="M449 562l32 -468l241 468h62l-292 -562h-53l-34 460l-229 -460h-53l-52 562h57l41 -466l230 466h50zM557 671q-3 -14 -15 -23.5t-25 -9.5q-14 0 -21.5 10t-4.5 23q3 14 15 23.5t25 9.5q14 0 21.5 -10t4.5 -23zM405 671q-3 -14 -15 -23.5t-25 -9.5q-14 0 -21.5 10t-4.5 23
q3 14 15 23.5t25 9.5q14 0 21.5 -10t4.5 -23z" />
    <glyph glyph-name="Ygrave" unicode="&#x1ef2;" horiz-adv-x="576" 
d="M101 705h62l127 -374l286 374h67l-333 -432l-58 -273h-59l58 273zM409 786h-45l-60 157h58z" />
    <glyph glyph-name="ygrave" unicode="&#x1ef3;" horiz-adv-x="528" 
d="M116 -184h-62l111 189l-89 557h58l76 -483l283 483h67zM372 635h-45l-60 157h58z" />
    <glyph glyph-name="endash" unicode="&#x2013;" horiz-adv-x="427" 
d="M380 306l-11 -48h-333l11 48h333z" />
    <glyph glyph-name="emdash" unicode="&#x2014;" horiz-adv-x="550" 
d="M503 306l-11 -48h-456l11 48h456z" />
    <glyph glyph-name="quoteleft" unicode="&#x2018;" horiz-adv-x="235" 
d="M104 381h-62l202 325h49z" />
    <glyph glyph-name="quoteright" unicode="&#x2019;" horiz-adv-x="224" 
d="M90 381h-48l188 325h62z" />
    <glyph glyph-name="quotesinglbase" unicode="&#x201a;" horiz-adv-x="224" 
d="M-36 -124h-48l186 323h62z" />
    <glyph glyph-name="quotedblleft" unicode="&#x201c;" horiz-adv-x="380" 
d="M249 381h-62l202 325h49zM104 381h-62l202 325h49z" />
    <glyph glyph-name="quotedblright" unicode="&#x201d;" horiz-adv-x="369" 
d="M235 381h-48l188 325h62zM90 381h-48l188 325h62z" />
    <glyph glyph-name="quotedblbase" unicode="&#x201e;" horiz-adv-x="369" 
d="M107 -131h-48l186 322h62zM-37 -131h-48l185 322h62z" />
    <glyph glyph-name="dagger" unicode="&#x2020;" horiz-adv-x="431" 
d="M163 -51h-48l121 570h-144l9 43h144l42 197h48l-42 -197h145l-9 -43h-145z" />
    <glyph glyph-name="daggerdbl" unicode="&#x2021;" horiz-adv-x="430" 
d="M163 -51h-48l93 441h-144l10 43h144l18 86h-144l9 43h144l42 197h48l-42 -197h144l-9 -43h-144l-18 -86h144l-10 -43h-144z" />
    <glyph glyph-name="bullet" unicode="&#x2022;" horiz-adv-x="499" 
d="M203 88q-92 0 -130.5 54t-18.5 150l1 6q20 93 82.5 147.5t153.5 54.5q89 0 129 -54.5t20 -147.5l-1 -6q-20 -95 -83 -149.5t-153 -54.5z" />
    <glyph glyph-name="ellipsis" unicode="&#x2026;" horiz-adv-x="549" 
d="M444 33q-4 -16 -18 -27.5t-30 -11.5t-25 11.5t-5 27.5q3 16 17 28t30 12t25 -11.5t6 -28.5zM256 33q-4 -16 -18.5 -27.5t-30.5 -11.5t-25 11.5t-5 27.5q3 16 17 28t30 12t25.5 -11.5t6.5 -28.5zM67 33q-4 -16 -18 -27.5t-30 -11.5t-24.5 11.5t-4.5 27.5q3 17 16.5 28.5
t29.5 11.5t25 -11.5t6 -28.5z" />
    <glyph glyph-name="perthousand" unicode="&#x2030;" horiz-adv-x="1608" 
d="M1298 -8q-97 0 -142 60.5t-22 163.5l9 40q23 104 83.5 163t154.5 59q95 0 140.5 -61t23.5 -161l-9 -40q-24 -106 -85 -165t-153 -59zM1299 44q69 0 116.5 44.5t65.5 126.5l9 41q17 79 -12.5 124.5t-97.5 45.5q-70 0 -118 -45t-65 -125l-9 -41q-18 -82 11 -126.5
t100 -44.5zM816 -8q-96 0 -141.5 60.5t-22.5 163.5l9 40q23 104 84 163t154 59q95 0 141 -61t24 -161l-9 -40q-24 -106 -85 -165t-154 -59zM817 44q69 0 117 44.5t66 126.5l9 41q17 79 -12.5 124.5t-98.5 45.5t-117 -45t-65 -125l-9 -41q-18 -82 11 -126.5t99 -44.5z
M246 228q-96 0 -140 60.5t-23 164.5l8 40q21 103 82.5 162.5t155.5 59.5t139 -61t25 -161l-8 -40q-21 -105 -83.5 -165t-155.5 -60zM247 281q69 0 118 44.5t65 126.5l8 41q16 80 -13 124.5t-97 44.5q-71 0 -119 -44.5t-64 -124.5l-8 -41q-17 -83 11.5 -127t98.5 -44z
M731 759h57l-378 -810h-56z" />
    <glyph glyph-name="guilsinglleft" unicode="&#x2039;" horiz-adv-x="272" 
d="M178 85h-48l-88 203l169 201h52l-160 -207z" />
    <glyph glyph-name="guilsinglright" unicode="&#x203a;" horiz-adv-x="272" 
d="M85 489h48l88 -203l-169 -201h-52l160 207z" />
    <glyph glyph-name="Euro" unicode="&#x20ac;" horiz-adv-x="622" 
d="M145 233q-18 -86 20.5 -137t116.5 -51q84 0 143.5 57.5t76.5 141.5h59q-24 -114 -99 -184t-181 -70t-162.5 69t-32.5 176l11 49h-65l6 31h65l17 76h-65l6 31h65l11 50q23 109 99 177t180 68q109 0 162.5 -71.5t28.5 -184.5h-59q20 92 -18 145.5t-116 53.5t-139 -51
t-79 -136l-11 -51h181l-6 -31h-181l-17 -76h181l-6 -31h-181z" />
    <glyph glyph-name="trademark" unicode="&#x2122;" horiz-adv-x="748" 
d="M530 385h-32l-68 227l-58 -270h-41l77 363h36l79 -266l191 266h41l-77 -363h-41l57 269zM192 342h-41l69 323h-97l8 40h236l-8 -40h-98z" />
    <glyph glyph-name="minus" unicode="&#x2212;" horiz-adv-x="469" 
d="M427 379l-11 -53h-355l11 53h355z" />
    <glyph glyph-name="notequal" unicode="&#x2260;" horiz-adv-x="759" 
d="M106 589q41 -33 81.5 -44t77 -4.5t74 20t79.5 26t86 18t100 -8t115 -48.5q-31 -112 -55 -225.5t-32 -170.5l-8 -58q-48 44 -99 56t-94.5 3.5t-85.5 -18.5t-87 -3.5t-84 42.5l31 -169l-28 -5l-113 616l28 1l60 -328zM415 322l-36 31q35 49 12 99q-17 36 -54 49.5t-73 -3.5
q-12 -6 -17 -10l6 3q29 14 60 2.5t45 -40.5q19 -41 -6 -77l-44 38l34 40l-54 9l-60 -71l35 -30l29 34l45 -37q-6 -6 -18 -11q-35 -17 -69 1q-12 7 -19 14l-12 -14l-29 -34l18 -15l28 32q49 -37 105 -11q14 7 22 15l37 -32zM100 636q2 -9 -7 -10l-33 -6q-9 -2 -10 7q-1 7 7 9
l10 2q-2 6 -12.5 10.5t-12.5 17.5q-2 11 2.5 32.5t4.5 29.5q-9 3 -9 13q0 14 14 14q5 0 9.5 -4t4.5 -10q0 -4 -4 -10q3 -7 15.5 -25.5t14.5 -30.5q3 -13 -5.5 -20.5t-7.5 -13.5l9 2q8 2 10 -7z" />
    <glyph glyph-name="commaaccent" horiz-adv-x="506" 
d="M64 -281h-44l110 207h69z" />
    <glyph glyph-name="a.salt" horiz-adv-x="524" 
d="M402 0h-54l22 104q-71 -112 -201 -112q-87 0 -132 41.5t-29 120.5q13 62 58.5 96.5t101.5 45.5t111.5 19t98 29.5t51.5 64.5q11 50 -20.5 81.5t-100.5 31.5q-74 0 -123.5 -37.5t-64.5 -112.5h-55q42 202 246 202q94 0 144 -44t32 -130zM184 43q45 0 81 14t57.5 33.5
t37 46.5t21.5 45.5t10 38.5l23 107q-20 -25 -61 -39t-85 -20.5t-87 -15t-74.5 -32.5t-40.5 -65q-12 -54 19.5 -83.5t98.5 -29.5z" />
    </font>
</defs>
</svg>
