<?xml version="1.0" standalone="no"?>
<!DOCTYPE svg PUBLIC "-//W3C//DTD SVG 1.1//EN" "http://www.w3.org/Graphics/SVG/1.1/DTD/svg11.dtd" >
<svg>
<metadata>
Created by FontForge 20120731 at Wed Dec 24 11:21:19 2014
 By Orthosie Webhosting
Copyright (c) 2010 by Rian Hughes/Device. All rights reserved.
</metadata>
<defs>
<font id="KorolevThin" horiz-adv-x="532" >
  <font-face 
    font-family="KorolevThin"
    font-weight="250"
    font-stretch="normal"
    units-per-em="1000"
    panose-1="2 0 5 6 0 0 0 2 0 4"
    ascent="750"
    descent="-250"
    x-height="562"
    cap-height="705"
    bbox="-91 -281 1553 989"
    underline-thickness="50"
    underline-position="-50"
    unicode-range="U+0020-FB02"
  />
<missing-glyph horiz-adv-x="496" 
d="M60 0v700h376v-700h-376zM82 680v-658l154 328zM415 22v658l-155 -330zM248 325l-142 -303h284zM106 680l142 -305l142 305h-284z" />
    <glyph glyph-name="fi" unicode="fi" horiz-adv-x="419" 
d="M349 616h-20q-2 69 -21.5 91.5t-76.5 22.5q-60 0 -80 -37t-20 -132h138v-20h-138v-541h-20v541h-71v20h71q0 104 25 146t95 42q66 0 92 -28t26 -105zM329 561h20v-561h-20v561z" />
    <glyph glyph-name="fl" unicode="fl" horiz-adv-x="419" 
d="M329 0v562q0 95 -19 131.5t-79 36.5t-80 -37t-20 -132h138v-20h-138v-541h-20v541h-71v20h71q0 104 25 146t95 42t94 -42t24 -146v-561h-20z" />
    <glyph glyph-name=".notdef" horiz-adv-x="496" 
d="M60 0v700h376v-700h-376zM82 680v-658l154 328zM415 22v658l-155 -330zM248 325l-142 -303h284zM106 680l142 -305l142 305h-284z" />
    <glyph glyph-name=".null" horiz-adv-x="0" 
 />
    <glyph glyph-name="nonmarkingreturn" horiz-adv-x="333" 
 />
    <glyph glyph-name="space" unicode=" " horiz-adv-x="220" 
 />
    <glyph glyph-name="exclam" unicode="!" horiz-adv-x="168" 
d="M78 97l-8 465q-2 118 -2 134t15 16t15 -16t-2 -134l-8 -465h-10zM103 15q0 -8 -5.5 -13.5t-13.5 -5.5t-13.5 6t-5.5 13q0 8 5.5 13.5t13.5 5.5q19 0 19 -19z" />
    <glyph glyph-name="quotedbl" unicode="&#x22;" horiz-adv-x="252" 
d="M192 372h-20l-1 333h20zM81 372h-20l-1 333h20z" />
    <glyph glyph-name="numbersign" unicode="#" horiz-adv-x="486" 
d="M267 759h22l-87 -341h93l88 341h22l-87 -341h88v-20h-93l-23 -89h116v-20h-121l-87 -340h-22l87 340h-94l-87 -340h-22l87 340h-87v20h92l22 89h-114v20h119zM197 398l-23 -89h94l22 89h-93z" />
    <glyph glyph-name="dollar" unicode="$" horiz-adv-x="574" 
d="M353 -81h-20v71q-30 -2 -46 -2q-14 0 -40 2v-71h-20v74q-182 31 -182 245h20q0 -114 58.5 -172t163.5 -58q222 0 222 171q0 43 -17 73t-50.5 47t-64 25.5t-77.5 15.5q-56 9 -91 18.5t-74 30t-58.5 56.5t-19.5 89q0 155 170 179v76h20v-74q30 2 48 2q14 0 38 -2v74h20v-77
q169 -32 169 -238h-20q0 108 -54 165.5t-153 57.5q-218 0 -218 -163q0 -38 13.5 -66.5t33 -46t52 -31t60.5 -19.5t68 -12q51 -8 84.5 -17.5t69 -28.5t53.5 -52.5t18 -81.5q0 -165 -176 -187v-73z" />
    <glyph glyph-name="percent" unicode="%" horiz-adv-x="1118" 
d="M861 -8q-95 0 -148.5 60t-53.5 165v40q0 102 53.5 162.5t148.5 60.5q94 0 148 -60.5t54 -162.5v-40q0 -104 -54 -164.5t-148 -60.5zM861 12q85 0 133.5 54.5t48.5 150.5v40q0 93 -48.5 148t-133.5 55q-86 0 -134 -55t-48 -148v-40q0 -96 48 -150.5t134 -54.5zM257 227
q-95 0 -148.5 60t-53.5 165v40q0 102 53.5 162.5t148.5 60.5q94 0 148 -60.5t54 -162.5v-40q0 -104 -54 -164.5t-148 -60.5zM257 247q85 0 133.5 54.5t48.5 150.5v40q0 93 -48.5 148t-133.5 55q-86 0 -134 -55t-48 -148v-40q0 -96 48 -150.5t134 -54.5zM648 759h22
l-207 -810h-22z" />
    <glyph glyph-name="ampersand" unicode="&#x26;" horiz-adv-x="681" 
d="M514 235v139h117v-20h-97v-119q0 -120 -66 -183t-176 -63t-176 55t-66 156q0 65 36 106.5t94 57.5q-56 17 -87 59t-31 103q0 86 64.5 138.5t168.5 52.5q105 0 169 -61.5t64 -175.5h-20q0 105 -58.5 161t-154.5 56q-95 0 -154 -47t-59 -124q0 -70 44.5 -111t123.5 -41h123
v-20h-123q-75 0 -127.5 -40t-52.5 -114q0 -91 60.5 -141t161.5 -50t161.5 58t60.5 168z" />
    <glyph glyph-name="quotesingle" unicode="'" horiz-adv-x="140" 
d="M80 372h-20v333h20v-333z" />
    <glyph glyph-name="parenleft" unicode="(" horiz-adv-x="302" 
d="M252 -29v-20q-63 0 -101.5 12.5t-58.5 44t-26 70t-6 105.5v341q0 66 6 105t26 70.5t58.5 44t101.5 12.5v-20q-58 0 -92.5 -11.5t-52 -40.5t-22.5 -63.5t-5 -96.5v-341q0 -49 3 -79.5t12.5 -58.5t28.5 -42.5t50 -23t78 -8.5z" />
    <glyph glyph-name="parenright" unicode=")" horiz-adv-x="302" 
d="M50 -49v20q47 0 78 8.5t50 23t28.5 42.5t12.5 58.5t3 79.5v341q0 62 -5 96.5t-22.5 63.5t-52 40.5t-92.5 11.5v20q63 0 101.5 -12.5t58.5 -44t26 -70.5t6 -105v-341q0 -67 -6 -105.5t-26 -70t-58.5 -44t-101.5 -12.5z" />
    <glyph glyph-name="asterisk" unicode="*" horiz-adv-x="491" 
d="M225 511l-153 87l10 18l154 -87v176h20v-176l155 87l10 -18l-154 -87l154 -86l-10 -18l-155 87v-178h-20v178l-154 -87l-10 18z" />
    <glyph glyph-name="plus" unicode="+" horiz-adv-x="454" 
d="M237 175h-20v168h-157v20h157v165h20v-165h157v-20h-157v-168z" />
    <glyph glyph-name="comma" unicode="," horiz-adv-x="205" 
d="M33 -121h-23l132 322h23z" />
    <glyph glyph-name="hyphen" unicode="-" horiz-adv-x="359" 
d="M309 291v-20h-259v20h259z" />
    <glyph glyph-name="period" unicode="." horiz-adv-x="138" 
d="M88 15q0 -8 -5.5 -13.5t-13.5 -5.5q-7 0 -13 6t-6 13q0 8 5.5 13.5t13.5 5.5q19 0 19 -19z" />
    <glyph glyph-name="slash" unicode="/" horiz-adv-x="269" 
d="M227 759h22l-207 -810h-22z" />
    <glyph glyph-name="zero" unicode="0" horiz-adv-x="594" 
d="M297 -7q-105 0 -171 68.5t-66 177.5v230q0 109 66 177.5t171 68.5q104 0 170.5 -68.5t66.5 -177.5v-230q0 -109 -66.5 -177.5t-170.5 -68.5zM297 13q95 0 156 63t61 163v230q0 100 -61 163t-156 63q-96 0 -156.5 -63t-60.5 -163v-230q0 -100 60.5 -163t156.5 -63z" />
    <glyph glyph-name="one" unicode="1" horiz-adv-x="220" 
d="M120 0v640q-16 -22 -90 -22v19q55 0 72.5 13.5t17.5 54.5h20v-705h-20z" />
    <glyph glyph-name="two" unicode="2" horiz-adv-x="576" 
d="M500 0h-450v10q0 42 14 77t32.5 58t53 46t59.5 35t68 31q41 19 64.5 30.5t57.5 34t52 44.5t31.5 55t13.5 72q0 91 -59.5 147.5t-154.5 56.5q-93 0 -152.5 -60t-59.5 -157h-20q0 106 65 171.5t167 65.5q104 0 169 -62t65 -162q0 -37 -8 -67.5t-27 -55t-36.5 -41.5
t-49.5 -35.5t-52 -28t-58 -26.5q-42 -19 -63.5 -29.5t-55 -31.5t-50.5 -40.5t-31 -50.5t-15 -67h430v-20z" />
    <glyph glyph-name="three" unicode="3" horiz-adv-x="584" 
d="M50 235h20q0 -110 60.5 -168t161.5 -58t161.5 50t60.5 141q0 74 -52.5 114t-127.5 40h-123v20h123q79 0 123.5 41t44.5 111q0 77 -59 124t-154 47q-96 0 -154.5 -56t-58.5 -161h-20q0 114 64 175.5t169 61.5q104 0 168.5 -52.5t64.5 -138.5q0 -61 -31 -103t-87 -59
q58 -16 94 -57.5t36 -106.5q0 -101 -66 -156t-176 -55t-176 63t-66 183z" />
    <glyph glyph-name="four" unicode="4" horiz-adv-x="607" 
d="M40 205v20l391 480h15v-480h121v-20h-121v-205h-20v205h-386zM64 225h362v444z" />
    <glyph glyph-name="five" unicode="5" horiz-adv-x="589" 
d="M55 235h20q0 -100 60.5 -163t156.5 -63t156.5 61t60.5 160v30q0 99 -60.5 160t-156.5 61q-78 0 -125.5 -33t-77.5 -98l-18 5l62 350h355v-20h-337l-50 -281q60 97 191 97q105 0 171 -66.5t66 -174.5v-30q0 -108 -66 -174.5t-171 -66.5t-171 68.5t-66 177.5z" />
    <glyph glyph-name="six" unicode="6" horiz-adv-x="570" 
d="M285 -10q-111 0 -173 65t-62 178v14q0 110 38 169l191 289h24l-150 -227q53 32 132 32q109 0 172 -64.5t63 -174.5v-38q0 -112 -62.5 -177.5t-172.5 -65.5zM285 10q101 0 158 60t57 163v38q0 101 -57.5 160t-157.5 59q-102 0 -158.5 -59t-56.5 -160v-38
q0 -104 56.5 -163.5t158.5 -59.5z" />
    <glyph glyph-name="seven" unicode="7" horiz-adv-x="504" 
d="M189 0h-21l277 685h-395v20h424z" />
    <glyph glyph-name="eight" unicode="8" horiz-adv-x="584" 
d="M292 -12q-110 0 -176 50t-66 142q0 66 34 112t98 61q-120 28 -120 168q0 91 62 137.5t168 46.5q105 0 167.5 -47t62.5 -138q0 -136 -114 -166q126 -27 126 -174q0 -92 -66.5 -142t-175.5 -50zM248 344q-86 -4 -132 -47.5t-46 -116.5q0 -86 60 -129t162 -43
q101 0 161.5 43.5t60.5 128.5q0 74 -46 119t-134 45h-85h-1zM82 521q0 -77 43.5 -117.5t124.5 -40.5h83q83 0 126 42t43 115q0 81 -57 123t-153 42t-153 -41.5t-57 -122.5z" />
    <glyph glyph-name="nine" unicode="9" horiz-adv-x="570" 
d="M285 715q112 0 173.5 -64.5t61.5 -177.5v-25q0 -100 -38 -158l-192 -290h-24l151 228q-55 -32 -132 -32q-109 0 -172 64.5t-63 174.5v38q0 112 62.5 177t172.5 65zM285 695q-101 0 -158 -59.5t-57 -162.5v-38q0 -101 57.5 -160t157.5 -59q102 0 158.5 59t56.5 160v38
q0 104 -56 163t-159 59z" />
    <glyph glyph-name="colon" unicode=":" horiz-adv-x="138" 
d="M88 15q0 -8 -5.5 -13.5t-13.5 -5.5q-7 0 -13 6t-6 13q0 8 5.5 13.5t13.5 5.5q19 0 19 -19zM88 547q0 -8 -5.5 -13.5t-13.5 -5.5q-7 0 -13 6t-6 13q0 8 5.5 13.5t13.5 5.5q19 0 19 -19z" />
    <glyph glyph-name="semicolon" unicode=";" horiz-adv-x="215" 
d="M33 -121h-23l132 322h23zM159 547q0 -8 -5.5 -13.5t-13.5 -5.5t-13.5 6t-5.5 13q0 8 5.5 13.5t13.5 5.5q19 0 19 -19z" />
    <glyph glyph-name="less" unicode="&#x3c;" horiz-adv-x="479" 
d="M419 94v-23l-359 216l359 219v-24l-320 -195z" />
    <glyph glyph-name="equal" unicode="=" horiz-adv-x="435" 
d="M375 309v-20h-315v20h315zM60 398v20h315v-20h-315z" />
    <glyph glyph-name="greater" unicode="&#x3e;" horiz-adv-x="479" 
d="M60 71v23l320 193l-320 195v24l359 -219z" />
    <glyph glyph-name="question" unicode="?" horiz-adv-x="530" 
d="M249 97h-9q0 31 -2 53t4 43t9 34.5t14 28t17.5 22.5t20 19t22.5 17t24 16.5l25 17.5q48 35 72 75t24 101q0 75 -57.5 124t-149.5 49q-100 0 -156.5 -57t-56.5 -160h-20q0 112 62 174.5t171 62.5q101 0 164 -54.5t63 -138.5q0 -69 -27 -111t-81 -82q-10 -8 -31.5 -22.5
t-32 -22.5t-26.5 -26t-23.5 -37.5t-13.5 -51.5t-6 -74zM263 15q0 -8 -5.5 -13.5t-13.5 -5.5t-13.5 6t-5.5 13q0 8 5.5 13.5t13.5 5.5q19 0 19 -19z" />
    <glyph glyph-name="at" unicode="@" horiz-adv-x="668" 
d="M330 123q-140 0 -140 163v132q0 161 140 161q87 0 118 -78v72h20v-426q110 4 110 111v185q0 118 -66 185t-175 67q-111 0 -179 -67.5t-68 -184.5v-183q0 -120 69.5 -184.5t200.5 -64.5h179v-20h-179q-141 0 -215.5 70t-74.5 199v183q0 126 73.5 199t193.5 73
q118 0 189.5 -72.5t71.5 -199.5v-185q0 -131 -150 -131v74q-19 -40 -46 -59t-72 -19zM330 143q118 0 118 143v132q0 141 -118 141q-120 0 -120 -141v-132q0 -143 120 -143z" />
    <glyph glyph-name="A" unicode="A" horiz-adv-x="603" 
d="M583 0h-22l-74 199h-369l-77 -199h-21l272 705h23zM303 684l-178 -467h355z" />
    <glyph glyph-name="B" unicode="B" horiz-adv-x="566" 
d="M80 0v705h203q112 0 169.5 -38t57.5 -133v-10q0 -136 -126 -167q132 -33 132 -163v-8q0 -99 -58 -142.5t-168 -43.5h-210zM496 194q0 75 -49.5 114.5t-135.5 39.5h-211v-328h190q101 0 153.5 38.5t52.5 127.5v8zM100 685v-317h211q179 0 179 156v10q0 83 -52 117t-155 34
h-183z" />
    <glyph glyph-name="C" unicode="C" horiz-adv-x="584" 
d="M534 471h-20q0 100 -60.5 163t-156.5 63t-156.5 -63t-60.5 -163v-233q0 -100 60.5 -163t156.5 -63t156.5 63t60.5 163h20q0 -109 -66 -177.5t-171 -68.5t-171 68.5t-66 177.5v233q0 109 66 177.5t171 68.5t171 -68.5t66 -177.5z" />
    <glyph glyph-name="D" unicode="D" horiz-adv-x="595" 
d="M298 0h-218v705h218q108 0 172.5 -66t64.5 -191v-185q0 -126 -64.5 -194.5t-172.5 -68.5zM100 20h198q98 0 157.5 63.5t59.5 179.5v185q0 116 -59 176.5t-158 60.5h-198v-665z" />
    <glyph glyph-name="E" unicode="E" horiz-adv-x="526" 
d="M100 349v-329h371v-20h-391v705h391v-20h-371v-316h263v-20h-263z" />
    <glyph glyph-name="F" unicode="F" horiz-adv-x="502" 
d="M100 349v-349h-20v705h377v-20h-357v-316h243v-20h-243z" />
    <glyph glyph-name="G" unicode="G" horiz-adv-x="593" 
d="M533 477h-20q-2 97 -62.5 158.5t-154.5 61.5q-95 0 -155.5 -63t-60.5 -163v-234q0 -100 60.5 -163t155.5 -63q96 0 156.5 63t60.5 163v54h-216v20h236v-74q0 -109 -66 -177.5t-171 -68.5q-104 0 -170 68.5t-66 177.5v234q0 109 66 177.5t170 68.5q103 0 169 -67t68 -173z
" />
    <glyph glyph-name="H" unicode="H" horiz-adv-x="608" 
d="M80 705h20v-337h408v337h20v-705h-20v349h-408v-349h-20v705z" />
    <glyph glyph-name="I" unicode="I" horiz-adv-x="180" 
d="M80 705h20v-705h-20v705z" />
    <glyph glyph-name="J" unicode="J" horiz-adv-x="544" 
d="M40 265h20v-29q0 -102 52 -164t145 -62q94 0 145.5 62t51.5 164v469h20v-469q0 -111 -57 -178.5t-160 -67.5q-102 0 -159.5 67.5t-57.5 178.5v29z" />
    <glyph glyph-name="K" unicode="K" horiz-adv-x="555" 
d="M100 349v-349h-20v705h20v-336h80l317 336h28l-328 -345l328 -360h-28l-317 349h-80z" />
    <glyph glyph-name="L" unicode="L" horiz-adv-x="479" 
d="M80 705h20v-685h349v-20h-369v705z" />
    <glyph glyph-name="M" unicode="M" horiz-adv-x="747" 
d="M385 102h-24l-261 550v-652h-20v705h17l276 -583l278 583h16v-705h-20v653z" />
    <glyph glyph-name="N" unicode="N" horiz-adv-x="637" 
d="M557 0h-16l-441 662v-662h-20v705h15l442 -663v663h20v-705z" />
    <glyph glyph-name="O" unicode="O" horiz-adv-x="594" 
d="M297 -7q-105 0 -171 68.5t-66 177.5v230q0 109 66 177.5t171 68.5q104 0 170.5 -68.5t66.5 -177.5v-230q0 -109 -66.5 -177.5t-170.5 -68.5zM297 13q95 0 156 63t61 163v230q0 100 -61 163t-156 63q-96 0 -156.5 -63t-60.5 -163v-230q0 -100 60.5 -163t156.5 -63z" />
    <glyph glyph-name="P" unicode="P" horiz-adv-x="557" 
d="M276 222h-176v-222h-20v705h196q106 0 171 -61t65 -170v-25q0 -109 -64.5 -168t-171.5 -59zM100 685v-443h176q98 0 157 54t59 153v25q0 100 -59 155.5t-157 55.5h-176z" />
    <glyph glyph-name="Q" unicode="Q" horiz-adv-x="594" 
d="M398 -129h-25l-84 120q-102 3 -165.5 71t-63.5 175v232q0 109 66 177.5t171 68.5q104 0 170.5 -68.5t66.5 -177.5v-232q0 -104 -61 -171.5t-159 -73.5zM297 11q95 0 156 63t61 163v232q0 100 -61 163t-156 63q-96 0 -156.5 -63t-60.5 -163v-232q0 -100 60.5 -163
t156.5 -63z" />
    <glyph glyph-name="R" unicode="R" horiz-adv-x="557" 
d="M270 245h-170v-245h-20v705h196q107 0 171.5 -57t64.5 -159v-32q0 -97 -58.5 -152t-156.5 -60l215 -245h-27zM100 685v-420h176q98 0 157 50t59 142v32q0 93 -59 144.5t-157 51.5h-176z" />
    <glyph glyph-name="S" unicode="S" horiz-adv-x="584" 
d="M517 479h-20q0 105 -57.5 161.5t-146.5 56.5q-90 0 -145.5 -41t-55.5 -122q0 -44 18 -76t51.5 -51.5t67.5 -30t79 -17.5q45 -8 79 -18.5t67.5 -30.5t51.5 -53t18 -78q0 -94 -62.5 -142.5t-169.5 -48.5q-106 0 -169 63t-63 187h20q0 -113 57.5 -171.5t154.5 -58.5
q98 0 155 43t57 128q0 40 -17 70t-48.5 47.5t-62.5 27t-72 16.5q-49 8 -84.5 19.5t-72 32.5t-56 57t-19.5 85q0 90 61.5 136.5t159.5 46.5t161 -60t63 -178z" />
    <glyph glyph-name="T" unicode="T" 
d="M275 0h-20v685h-220v20h462v-20h-222v-685z" />
    <glyph glyph-name="U" unicode="U" horiz-adv-x="614" 
d="M70 705h20v-466q0 -100 61 -163t156 -63t156 63t61 163v466h20v-466q0 -109 -66.5 -177.5t-170.5 -68.5t-170.5 68.5t-66.5 177.5v466z" />
    <glyph glyph-name="V" unicode="V" horiz-adv-x="601" 
d="M306 0h-14l-272 705h20l259 -668l259 668h20z" />
    <glyph glyph-name="W" unicode="W" horiz-adv-x="840" 
d="M243 0h-16l-207 705h22l193 -658l176 658h18l176 -658l193 658h22l-208 -705h-15l-177 656z" />
    <glyph glyph-name="X" unicode="X" horiz-adv-x="555" 
d="M503 705h23l-237 -346l246 -359h-23l-235 342l-234 -342h-23l245 359l-236 346h23l225 -329z" />
    <glyph glyph-name="Y" unicode="Y" horiz-adv-x="587" 
d="M20 705h22l251 -401l252 401h22l-264 -421v-284h-20v284z" />
    <glyph glyph-name="Z" unicode="Z" horiz-adv-x="536" 
d="M52 685v20h439l-425 -685h407v-20h-443l425 685h-403z" />
    <glyph glyph-name="bracketleft" unicode="[" horiz-adv-x="302" 
d="M252 756v-20h-152v-765h152v-20h-172v805h172z" />
    <glyph glyph-name="backslash" unicode="\" horiz-adv-x="269" 
d="M20 759h22l207 -810h-22z" />
    <glyph glyph-name="bracketright" unicode="]" horiz-adv-x="302" 
d="M50 736v20h172v-805h-172v20h152v765h-152z" />
    <glyph glyph-name="asciicircum" unicode="^" horiz-adv-x="535" 
d="M273 705l212 -350h-25l-193 319l-192 -319h-25l211 350h12z" />
    <glyph glyph-name="underscore" unicode="_" horiz-adv-x="557" 
d="M507 -94v-20h-457v20h457z" />
    <glyph glyph-name="grave" unicode="`" horiz-adv-x="464" 
d="M241 589h-23l-88 157h23z" />
    <glyph glyph-name="a" unicode="a" horiz-adv-x="552" 
d="M269 -10q-101 0 -157.5 60.5t-56.5 165.5v133q0 102 56.5 162t157.5 60q69 0 119 -30.5t74 -86.5v108h20v-562h-20v108q-51 -118 -193 -118zM269 10q90 0 141.5 55t51.5 151v142q0 88 -52 140.5t-141 52.5q-92 0 -143 -54.5t-51 -147.5v-133q0 -96 51 -151t143 -55z" />
    <glyph glyph-name="b" unicode="b" horiz-adv-x="553" 
d="M284 -10q-70 0 -120 30.5t-74 87.5v-108h-20v746h20v-292q24 56 74 86.5t120 30.5q101 0 157.5 -60t56.5 -162v-133q0 -105 -56.5 -165.5t-157.5 -60.5zM284 10q92 0 143 55t51 151v133q0 93 -51 147.5t-143 54.5q-89 0 -141.5 -52.5t-52.5 -140.5v-142q0 -96 52 -151
t142 -55z" />
    <glyph glyph-name="c" unicode="c" 
d="M482 349h-20q0 95 -50.5 147.5t-142.5 52.5t-143 -55t-51 -150v-131q0 -94 51.5 -148.5t142.5 -54.5t142 52t51 145h20q0 -102 -56.5 -159.5t-156.5 -57.5t-157 60t-57 163v131q0 104 56.5 164.5t157.5 60.5t157 -58t56 -162z" />
    <glyph glyph-name="d" unicode="d" horiz-adv-x="552" 
d="M269 -10q-101 0 -157.5 60.5t-56.5 165.5v133q0 102 56.5 162t157.5 60q71 0 121.5 -31t71.5 -86v292h20v-746h-20v108q-51 -118 -193 -118zM269 10q90 0 141.5 55t51.5 151v142q0 88 -52 140.5t-141 52.5q-92 0 -143 -54.5t-51 -147.5v-133q0 -96 51 -151t143 -55z" />
    <glyph glyph-name="e" unicode="e" 
d="M482 352v-71h-407v-68q0 -94 51.5 -148.5t142.5 -54.5q89 0 141 50t52 123v4h20v-4q0 -81 -58 -137t-155 -56q-100 0 -157 60t-57 163v134q0 104 56.5 164.5t157.5 60.5t157 -58t56 -162zM75 347v-46h387v51q0 95 -50.5 147.5t-142.5 52.5t-143 -55t-51 -150z" />
    <glyph glyph-name="f" unicode="f" horiz-adv-x="321" 
d="M280 561v-20h-149v-541h-20v541h-71v20h71q0 112 29.5 150t110.5 38q20 0 30 -1v-19q-10 1 -30 1q-70 0 -95 -34t-25 -135h149z" />
    <glyph glyph-name="g" unicode="g" horiz-adv-x="552" 
d="M269 -10q-101 0 -157.5 60.5t-56.5 165.5v133q0 102 56.5 162t157.5 60q70 0 121 -31t72 -86v108h20v-562q0 -108 -46.5 -159t-165.5 -51q-208 0 -208 169h20q0 -149 188 -149q107 0 149.5 46t42.5 144v108q-50 -118 -193 -118zM269 10q89 0 141 52.5t52 143.5v152
q0 88 -52 140.5t-141 52.5q-92 0 -143 -54.5t-51 -147.5v-133q0 -96 51 -151t143 -55z" />
    <glyph glyph-name="h" unicode="h" horiz-adv-x="558" 
d="M498 0h-20v349q0 93 -51 147.5t-143 54.5q-89 0 -141.5 -52.5t-52.5 -140.5v-358h-20v746h20v-292q24 56 74 86.5t120 30.5q101 0 157.5 -60t56.5 -162v-349z" />
    <glyph glyph-name="i" unicode="i" horiz-adv-x="148" 
d="M84 0h-20v562h20v-562zM93 690q0 -8 -5.5 -13.5t-13.5 -5.5t-13.5 5.5t-5.5 13.5t5.5 13.5t13.5 5.5q19 0 19 -19z" />
    <glyph glyph-name="j" unicode="j" horiz-adv-x="152" 
d="M-81 -206v20q93 0 122 46t29 166v536h20v-536q0 -132 -33 -182t-138 -50zM97 690q0 -8 -5.5 -13.5t-13.5 -5.5t-13.5 5.5t-5.5 13.5t5.5 13.5t13.5 5.5q19 0 19 -19z" />
    <glyph glyph-name="k" unicode="k" horiz-adv-x="491" 
d="M464 0h-31l-279 274h-64v-273h-20v745h20v-452h64l276 268h30l-287 -278z" />
    <glyph glyph-name="l" unicode="l" horiz-adv-x="160" 
d="M70 746h20v-746h-20v746z" />
    <glyph glyph-name="m" unicode="m" horiz-adv-x="789" 
d="M70 562h20v-83q43 92 151 92q61 0 101.5 -30.5t57.5 -85.5q17 55 58.5 85.5t101.5 30.5q80 0 124.5 -51t44.5 -138v-382h-20v382q0 78 -39 123.5t-110 45.5q-69 0 -109.5 -44t-40.5 -118v-389h-20v382q0 78 -39.5 123.5t-109.5 45.5q-69 0 -110 -44t-41 -118v-389h-20
v562z" />
    <glyph glyph-name="n" unicode="n" horiz-adv-x="558" 
d="M498 0h-20v349q0 93 -51 147.5t-143 54.5q-89 0 -141.5 -52.5t-52.5 -140.5v-358h-20v562h20v-108q24 56 74 86.5t120 30.5q101 0 157.5 -60t56.5 -162v-349z" />
    <glyph glyph-name="o" unicode="o" horiz-adv-x="537" 
d="M269 -9q-101 0 -157.5 60.5t-56.5 165.5v129q0 102 56.5 162t157.5 60q99 0 156 -60t57 -162v-129q0 -105 -57 -165.5t-156 -60.5zM269 11q90 0 141.5 55t51.5 151v129q0 93 -51.5 147.5t-141.5 54.5q-92 0 -143 -54.5t-51 -147.5v-129q0 -96 51 -151t143 -55z" />
    <glyph glyph-name="p" unicode="p" horiz-adv-x="558" 
d="M284 569q101 0 157.5 -60.5t56.5 -165.5v-126q0 -102 -56.5 -162.5t-157.5 -60.5q-70 0 -120.5 31t-73.5 87v-293h-20v743h20v-112q24 57 74 88t120 31zM284 549q-89 0 -141.5 -53t-52.5 -144v-135q0 -93 52 -148t142 -55q92 0 143 55t51 148v126q0 96 -51 151t-143 55z
" />
    <glyph glyph-name="q" unicode="q" horiz-adv-x="557" 
d="M273 568q143 0 194 -119v113h20v-743h-20v292q-24 -56 -74 -86.5t-120 -30.5q-100 0 -156.5 60.5t-56.5 162.5v125q0 105 56 165.5t157 60.5zM273 548q-92 0 -142.5 -55t-50.5 -151v-125q0 -93 51 -148t142 -55t142.5 55t51.5 148v134q0 91 -52.5 144t-141.5 53z" />
    <glyph glyph-name="r" unicode="r" horiz-adv-x="324" 
d="M284 571v-20q-89 0 -141.5 -52.5t-52.5 -140.5v-358h-20v562h20v-108q24 56 74 86.5t120 30.5z" />
    <glyph glyph-name="s" unicode="s" horiz-adv-x="507" 
d="M456 372h-20q0 89 -47.5 136t-140.5 47q-84 0 -128.5 -35t-44.5 -98q0 -30 11.5 -52t26.5 -35t45 -24t50.5 -15.5t59.5 -11.5q40 -7 61 -12t51 -16t44.5 -24t26 -36t11.5 -53q0 -75 -52 -115.5t-153 -40.5t-156.5 56.5t-55.5 153.5h20q0 -88 50 -139t142 -51t138.5 35
t46.5 101q0 25 -10.5 44.5t-24 31t-40.5 21t-47 14t-56 10.5q-43 8 -64.5 13t-54.5 17t-49 27t-28.5 41t-12.5 60q0 72 50 112.5t143 40.5q102 0 155 -52.5t53 -150.5z" />
    <glyph glyph-name="t" unicode="t" horiz-adv-x="335" 
d="M294 561v-20h-193v-330q0 -105 28 -152t118 -47q22 0 46 3l2 -20q-25 -3 -48 -3q-54 0 -88 14t-50.5 45t-22 67t-5.5 93v330h-71v20h71v108h20v-108h193z" />
    <glyph glyph-name="u" unicode="u" horiz-adv-x="548" 
d="M60 562h20v-370q0 -80 54 -131t140 -51t140 51t54 131v370h20v-370q0 -89 -59.5 -145.5t-154.5 -56.5t-154.5 56.5t-59.5 145.5v370z" />
    <glyph glyph-name="v" unicode="v" horiz-adv-x="526" 
d="M271 1h-14l-232 561h21l218 -526l216 526h21z" />
    <glyph glyph-name="w" unicode="w" horiz-adv-x="754" 
d="M386 562l157 -519l171 519h20l-186 -562h-14l-157 520l-158 -520h-15l-184 562h22l170 -517l156 517h18z" />
    <glyph glyph-name="x" unicode="x" horiz-adv-x="518" 
d="M477 562l-207 -272l223 -290h-22l-212 274l-212 -274h-22l223 290l-207 272h23l195 -257l195 257h23z" />
    <glyph glyph-name="y" unicode="y" horiz-adv-x="537" 
d="M200 -179h-22l78 186l-231 555h21l222 -532l222 532h22z" />
    <glyph glyph-name="z" unicode="z" horiz-adv-x="482" 
d="M35 542v20h407l-375 -542h353v-20h-390l375 542h-370z" />
    <glyph glyph-name="braceleft" unicode="{" horiz-adv-x="312" 
d="M262 756v-20q-83 0 -117.5 -50t-34.5 -162v-62q0 -91 -33 -111q33 -24 33 -108v-62q0 -113 34.5 -162.5t117.5 -49.5v-20q-94 0 -133 54.5t-39 177.5v62q0 99 -50 99v20q30 0 40 23.5t10 76.5v62q0 123 39 177.5t133 54.5z" />
    <glyph glyph-name="bar" unicode="|" horiz-adv-x="160" 
d="M90 -51h-20v810h20v-810z" />
    <glyph glyph-name="braceright" unicode="}" horiz-adv-x="312" 
d="M50 736v20q94 0 133 -54.5t39 -177.5v-62q0 -53 10 -76.5t40 -23.5v-20q-50 0 -50 -99v-62q0 -123 -39 -177.5t-133 -54.5v20q83 0 117.5 49.5t34.5 162.5v62q0 84 33 108q-33 20 -33 111v62q0 112 -34.5 162t-117.5 50z" />
    <glyph glyph-name="nbspace" unicode="&#xa0;" horiz-adv-x="500" 
 />
    <glyph glyph-name="exclamdown" unicode="&#xa1;" horiz-adv-x="138" 
d="M55 146l8 465h10l8 -465q2 -118 2 -134t-15 -16t-15 16t2 134zM88 693q0 -19 -19 -19q-8 0 -13.5 5.5t-5.5 13.5q0 7 6 13t13 6q8 0 13.5 -5.5t5.5 -13.5z" />
    <glyph glyph-name="cent" unicode="&#xa2;" 
d="M330 -81h-20v74q-20 -3 -41 -3q-26 0 -45 4v-75h-20v79q-71 17 -110 73.5t-39 141.5v131q0 86 39 142.5t110 74.5v81h20v-77q19 4 45 4q21 0 41 -3v76h20v-80q72 -16 112 -71t40 -142h-20q0 95 -50.5 147.5t-142.5 52.5t-143 -55t-51 -150v-131q0 -94 51.5 -148.5
t142.5 -54.5t142 52t51 145h20q0 -85 -40 -139.5t-112 -70.5v-78z" />
    <glyph glyph-name="sterling" unicode="&#xa3;" horiz-adv-x="591" 
d="M370 252h-124q50 -59 77.5 -111.5t29.5 -120.5h173v-20h-466v20h273q-2 47 -21 92t-38.5 72t-55.5 68h-158v20h141q-40 45 -65 86h-76v20h65q-30 57 -30 125q0 100 60 157t164 57q101 0 161.5 -65t60.5 -172h-20q0 98 -55 157.5t-147 59.5q-95 0 -149.5 -51.5
t-54.5 -142.5q0 -67 34 -125h221v-20h-209q20 -30 68 -86h141v-20z" />
    <glyph glyph-name="yen" unicode="&#xa5;" horiz-adv-x="587" 
d="M400 284v-20h-97v-86h93v-20h-93v-158h-20v158h-96v20h96v86h-96v20h96l-263 421h22l251 -401l252 401h22l-264 -421h97z" />
    <glyph glyph-name="brokenbar" unicode="&#xa6;" horiz-adv-x="160" 
d="M90 -51h-20v354h20v-354zM90 409h-20v350h20v-350z" />
    <glyph glyph-name="dieresis" unicode="&#xa8;" horiz-adv-x="417" 
d="M295 611q0 -8 -5.5 -13.5t-13.5 -5.5t-13.5 6t-5.5 13q0 8 5.5 13.5t13.5 5.5q19 0 19 -19zM161 611q0 -8 -5.5 -13.5t-13.5 -5.5t-13.5 6t-5.5 13q0 8 5.5 13.5t13.5 5.5q19 0 19 -19z" />
    <glyph glyph-name="copyright" unicode="&#xa9;" horiz-adv-x="668" 
d="M337 -9q-121 0 -194 71.5t-73 197.5v183q0 126 73.5 199t193.5 73q118 0 189.5 -72.5t71.5 -199.5v-183q0 -126 -71 -197.5t-190 -71.5zM337 11q110 0 175.5 66t65.5 183v183q0 118 -66 185t-175 67q-111 0 -179 -67.5t-68 -184.5v-183q0 -117 67.5 -183t179.5 -66z
M484 407h-20v11q0 140 -127 140q-128 0 -128 -144v-132q0 -66 32 -103t96 -37q127 0 127 137v6h20v-6q0 -76 -37 -116.5t-110 -40.5t-110.5 42.5t-37.5 117.5v132q0 78 37 121t111 43q147 0 147 -160v-11z" />
    <glyph glyph-name="ordfeminine" unicode="&#xaa;" horiz-adv-x="537" 
d="M264 233q-100 0 -152 60t-52 166v34q0 104 52 163t152 59q70 0 117.5 -31t65.5 -86v108h20v-463h-20v108q-25 -61 -69 -89.5t-114 -28.5zM264 253q89 0 136 54.5t47 151.5v43q0 90 -48 141.5t-135 51.5q-91 0 -137.5 -53.5t-46.5 -148.5v-34q0 -97 46.5 -151.5
t137.5 -54.5zM283 15q0 -8 -5.5 -13.5t-13.5 -5.5t-13.5 6t-5.5 13q0 8 5.5 13.5t13.5 5.5q19 0 19 -19z" />
    <glyph glyph-name="guillemotleft" unicode="&#xab;" horiz-adv-x="368" 
d="M296 489h22l-131 -202l131 -201h-22l-131 201zM180 489h22l-130 -202l130 -201h-22l-130 201z" />
    <glyph glyph-name="registered" unicode="&#xae;" horiz-adv-x="668" 
d="M337 -9q-121 0 -194 71.5t-73 197.5v183q0 126 73.5 199t193.5 73q118 0 189.5 -72.5t71.5 -199.5v-183q0 -126 -71 -197.5t-190 -71.5zM337 11q110 0 175.5 66t65.5 183v183q0 118 -66 185t-175 67q-111 0 -179 -67.5t-68 -184.5v-183q0 -117 67.5 -183t179.5 -66z
M292 267h-64v-145h-20v455h89q100 0 138 -36.5t38 -117.5v-15q0 -75 -31 -105.5t-124 -35.5l155 -145h-27zM228 557v-270h69q88 0 122 26.5t34 94.5v15q0 71 -35 102.5t-121 31.5h-69z" />
    <glyph glyph-name="macron" unicode="&#xaf;" horiz-adv-x="579" 
d="M151 590v20h277v-20h-277z" />
    <glyph glyph-name="degree" unicode="&#xb0;" horiz-adv-x="435" 
d="M217 379q-75 0 -116 44t-41 122v5q0 76 41.5 120.5t115.5 44.5q73 0 115.5 -45t42.5 -120v-5q0 -77 -42 -121.5t-116 -44.5zM217 399q65 0 101.5 39t36.5 107v5q0 66 -37 105.5t-101 39.5q-65 0 -101 -39t-36 -106v-5q0 -69 35.5 -107.5t101.5 -38.5z" />
    <glyph glyph-name="acute" unicode="&#xb4;" horiz-adv-x="464" 
d="M246 589h-21l88 157h21z" />
    <glyph glyph-name="paragraph" unicode="&#xb6;" horiz-adv-x="249" 
d="M179 -41h-20v518q-99 0 -99 94v42q0 51 26.5 71.5t74.5 20.5h18v-746z" />
    <glyph glyph-name="periodcentered" unicode="&#xb7;" horiz-adv-x="138" 
d="M88 279q0 -8 -5.5 -13.5t-13.5 -5.5q-7 0 -13 6t-6 13q0 8 5.5 13.5t13.5 5.5q19 0 19 -19z" />
    <glyph glyph-name="cedilla" unicode="&#xb8;" horiz-adv-x="493" 
d="M241 28h23l-90 -164h-23z" />
    <glyph glyph-name="ordmasculine" unicode="&#xba;" horiz-adv-x="517" 
d="M259 227q-100 0 -152 59.5t-52 165.5v40q0 104 52 163.5t152 59.5q98 0 150.5 -60t52.5 -163v-40q0 -106 -52.5 -165.5t-150.5 -59.5zM259 247q89 0 136 54t47 151v40q0 94 -47 148.5t-136 54.5q-91 0 -137.5 -54t-46.5 -149v-40q0 -97 46.5 -151t137.5 -54zM278 15
q0 -8 -5.5 -13.5t-13.5 -5.5q-7 0 -13 6t-6 13q0 8 5.5 13.5t13.5 5.5q19 0 19 -19z" />
    <glyph glyph-name="guillemotright" unicode="&#xbb;" horiz-adv-x="368" 
d="M50 489h22l131 -202l-131 -201h-22l131 201zM166 489h22l130 -202l-130 -201h-22l130 201z" />
    <glyph glyph-name="questiondown" unicode="&#xbf;" horiz-adv-x="530" 
d="M281 611h9q0 -31 2 -53t-4 -43t-9 -34.5t-14 -28t-17.5 -22.5t-20 -19t-22.5 -17t-24 -16.5l-25 -17.5q-48 -35 -72 -75t-24 -101q0 -75 57.5 -124t149.5 -49q100 0 156.5 57t56.5 160h20q0 -112 -62 -174.5t-171 -62.5q-101 0 -164 54.5t-63 138.5q0 69 27 111t81 82
q10 8 31.5 22.5t32 22.5t26.5 26t23.5 37.5t13.5 51.5t6 74zM267 693q0 8 5.5 13.5t13.5 5.5t13.5 -6t5.5 -13q0 -8 -5.5 -13.5t-13.5 -5.5q-19 0 -19 19z" />
    <glyph glyph-name="Agrave" unicode="&#xc0;" horiz-adv-x="603" 
d="M583 0h-22l-74 199h-369l-77 -199h-21l272 705h23zM303 684l-178 -467h355zM303 781h-23l-88 157h23z" />
    <glyph glyph-name="Aacute" unicode="&#xc1;" horiz-adv-x="603" 
d="M583 0h-22l-74 199h-369l-77 -199h-21l272 705h23zM303 684l-178 -467h355zM327 789h-21l88 157h21z" />
    <glyph glyph-name="Acircumflex" unicode="&#xc2;" horiz-adv-x="603" 
d="M583 0h-22l-74 199h-369l-77 -199h-21l272 705h23zM303 684l-178 -467h355zM315 920l156 -149h-29l-137 132l-139 -132h-29l157 149h21z" />
    <glyph glyph-name="Atilde" unicode="&#xc3;" horiz-adv-x="603" 
d="M583 0h-22l-74 199h-369l-77 -199h-21l272 705h23zM303 684l-178 -467h355zM470 854v-25q-46 -42 -92 -42q-28 0 -76 20t-72 20q-44 0 -93 -43v24q47 40 93 40q28 0 76 -20t72 -20q43 0 92 46z" />
    <glyph glyph-name="Adieresis" unicode="&#xc4;" horiz-adv-x="603" 
d="M583 0h-22l-74 199h-369l-77 -199h-21l272 705h23zM303 684l-178 -467h355zM390 811q0 -8 -5.5 -13.5t-13.5 -5.5q-7 0 -13 6t-6 13q0 8 5.5 13.5t13.5 5.5q19 0 19 -19zM256 811q0 -8 -5.5 -13.5t-13.5 -5.5q-7 0 -13 6t-6 13q0 8 5.5 13.5t13.5 5.5q19 0 19 -19z" />
    <glyph glyph-name="Aring" unicode="&#xc5;" horiz-adv-x="603" 
d="M583 0h-22l-74 199h-369l-77 -199h-21l272 705h23zM303 684l-178 -467h355zM305 808q17 0 29 12t12 30q0 17 -12 29t-29 12t-29 -12t-12 -29q0 -18 12 -30t29 -12zM305 788q-26 0 -43.5 18t-17.5 44t17.5 43.5t43.5 17.5t43.5 -17.5t17.5 -43.5t-17.5 -44t-43.5 -18z" />
    <glyph glyph-name="AE" unicode="&#xc6;" horiz-adv-x="982" 
d="M534 682l-333 -465h333v465zM536 0l-1 199h-347l-143 -199h-25l506 705h401v-20h-371v-316h263v-20h-263v-329h371v-20h-391z" />
    <glyph glyph-name="Ccedilla" unicode="&#xc7;" horiz-adv-x="584" 
d="M534 471h-20q0 100 -60.5 163t-156.5 63t-156.5 -63t-60.5 -163v-233q0 -100 60.5 -163t156.5 -63t156.5 63t60.5 163h20q0 -104 -61 -172t-159 -73l-72 -129h-23l71 128q-102 2 -166 70.5t-64 175.5v233q0 109 66 177.5t171 68.5t171 -68.5t66 -177.5z" />
    <glyph glyph-name="Egrave" unicode="&#xc8;" horiz-adv-x="526" 
d="M100 349v-329h371v-20h-391v705h391v-20h-371v-316h263v-20h-263zM283 789h-23l-88 157h23z" />
    <glyph glyph-name="Eacute" unicode="&#xc9;" horiz-adv-x="526" 
d="M100 349v-329h371v-20h-391v705h391v-20h-371v-316h263v-20h-263zM278 789h-21l88 157h21z" />
    <glyph glyph-name="Ecircumflex" unicode="&#xca;" horiz-adv-x="526" 
d="M100 349v-329h371v-20h-391v705h391v-20h-371v-316h263v-20h-263zM287 940l156 -149h-29l-137 132l-139 -132h-29l157 149h21z" />
    <glyph glyph-name="Edieresis" unicode="&#xcb;" horiz-adv-x="526" 
d="M100 349v-329h371v-20h-391v705h391v-20h-371v-316h263v-20h-263zM345 811q0 -8 -5.5 -13.5t-13.5 -5.5t-13.5 6t-5.5 13q0 8 5.5 13.5t13.5 5.5q19 0 19 -19zM211 811q0 -8 -5.5 -13.5t-13.5 -5.5t-13.5 6t-5.5 13q0 8 5.5 13.5t13.5 5.5q19 0 19 -19z" />
    <glyph glyph-name="Igrave" unicode="&#xcc;" horiz-adv-x="176" 
d="M80 705h20v-705h-20v705zM104 789h-23l-88 157h23z" />
    <glyph glyph-name="Iacute" unicode="&#xcd;" horiz-adv-x="183" 
d="M80 705h20v-705h-20v705zM106 789h-21l88 157h21z" />
    <glyph glyph-name="Icircumflex" unicode="&#xce;" horiz-adv-x="172" 
d="M80 705h20v-705h-20v705zM103 940l156 -149h-29l-137 132l-139 -132h-29l157 149h21z" />
    <glyph glyph-name="Idieresis" unicode="&#xcf;" horiz-adv-x="168" 
d="M80 705h20v-705h-20v705zM173 811q0 -8 -5.5 -13.5t-13.5 -5.5t-13.5 6t-5.5 13q0 8 5.5 13.5t13.5 5.5q19 0 19 -19zM39 811q0 -8 -5.5 -13.5t-13.5 -5.5t-13.5 6t-5.5 13q0 8 5.5 13.5t13.5 5.5q19 0 19 -19z" />
    <glyph glyph-name="Eth" unicode="&#xd0;" horiz-adv-x="595" 
d="M298 0h-218v345h-80v20h80v340h218q108 0 172.5 -66t64.5 -191v-185q0 -126 -64.5 -194.5t-172.5 -68.5zM100 20h198q98 0 157.5 63.5t59.5 179.5v185q0 116 -59 176.5t-158 60.5h-198v-320h198v-20h-198v-325z" />
    <glyph glyph-name="Ntilde" unicode="&#xd1;" horiz-adv-x="637" 
d="M557 0h-16l-441 662v-662h-20v705h15l442 -663v663h20v-705zM492 854v-25q-46 -42 -92 -42q-28 0 -76 20t-72 20q-44 0 -93 -43v24q47 40 93 40q28 0 76 -20t72 -20q43 0 92 46z" />
    <glyph glyph-name="Ograve" unicode="&#xd2;" horiz-adv-x="594" 
d="M297 -7q-105 0 -171 68.5t-66 177.5v230q0 109 66 177.5t171 68.5q104 0 170.5 -68.5t66.5 -177.5v-230q0 -109 -66.5 -177.5t-170.5 -68.5zM297 13q95 0 156 63t61 163v230q0 100 -61 163t-156 63q-96 0 -156.5 -63t-60.5 -163v-230q0 -100 60.5 -163t156.5 -63z
M314 789h-23l-88 157h23z" />
    <glyph glyph-name="Oacute" unicode="&#xd3;" horiz-adv-x="594" 
d="M297 -7q-105 0 -171 68.5t-66 177.5v230q0 109 66 177.5t171 68.5q104 0 170.5 -68.5t66.5 -177.5v-230q0 -109 -66.5 -177.5t-170.5 -68.5zM297 13q95 0 156 63t61 163v230q0 100 -61 163t-156 63q-96 0 -156.5 -63t-60.5 -163v-230q0 -100 60.5 -163t156.5 -63z
M290 789h-21l88 157h21z" />
    <glyph glyph-name="Ocircumflex" unicode="&#xd4;" horiz-adv-x="594" 
d="M297 -7q-105 0 -171 68.5t-66 177.5v230q0 109 66 177.5t171 68.5q104 0 170.5 -68.5t66.5 -177.5v-230q0 -109 -66.5 -177.5t-170.5 -68.5zM297 13q95 0 156 63t61 163v230q0 100 -61 163t-156 63q-96 0 -156.5 -63t-60.5 -163v-230q0 -100 60.5 -163t156.5 -63z
M307 940l156 -149h-29l-137 132l-139 -132h-29l157 149h21z" />
    <glyph glyph-name="Otilde" unicode="&#xd5;" horiz-adv-x="594" 
d="M297 -7q-105 0 -171 68.5t-66 177.5v230q0 109 66 177.5t171 68.5q104 0 170.5 -68.5t66.5 -177.5v-230q0 -109 -66.5 -177.5t-170.5 -68.5zM297 13q95 0 156 63t61 163v230q0 100 -61 163t-156 63q-96 0 -156.5 -63t-60.5 -163v-230q0 -100 60.5 -163t156.5 -63z
M462 854v-25q-46 -42 -92 -42q-28 0 -76 20t-72 20q-44 0 -93 -43v24q47 40 93 40q28 0 76 -20t72 -20q43 0 92 46z" />
    <glyph glyph-name="Odieresis" unicode="&#xd6;" horiz-adv-x="594" 
d="M297 -7q-105 0 -171 68.5t-66 177.5v230q0 109 66 177.5t171 68.5q104 0 170.5 -68.5t66.5 -177.5v-230q0 -109 -66.5 -177.5t-170.5 -68.5zM297 13q95 0 156 63t61 163v230q0 100 -61 163t-156 63q-96 0 -156.5 -63t-60.5 -163v-230q0 -100 60.5 -163t156.5 -63z
M384 811q0 -8 -5.5 -13.5t-13.5 -5.5q-7 0 -13 6t-6 13q0 8 5.5 13.5t13.5 5.5q19 0 19 -19zM250 811q0 -8 -5.5 -13.5t-13.5 -5.5q-7 0 -13 6t-6 13q0 8 5.5 13.5t13.5 5.5q19 0 19 -19z" />
    <glyph glyph-name="multiply" unicode="&#xd7;" horiz-adv-x="430" 
d="M74 202l-14 14l141 140l-141 141l14 14l141 -141l138 141l15 -14l-139 -141l141 -141l-14 -14l-141 141z" />
    <glyph glyph-name="Oslash" unicode="&#xd8;" horiz-adv-x="594" 
d="M420 789h22l-33 -100q58 -30 91.5 -87.5t33.5 -132.5v-230q0 -109 -66.5 -177.5t-170.5 -68.5q-60 0 -109 23l-30 -92h-22l33 102q-51 31 -80 86.5t-29 126.5v230q0 109 66 177.5t171 68.5q50 0 93 -17zM297 13q95 0 156 63t61 163v230q0 68 -29.5 120.5t-81.5 80.5
l-208 -634q44 -23 102 -23zM80 239q0 -131 96 -192l208 632q-42 16 -87 16q-96 0 -156.5 -63t-60.5 -163v-230z" />
    <glyph glyph-name="Ugrave" unicode="&#xd9;" horiz-adv-x="614" 
d="M70 705h20v-466q0 -100 61 -163t156 -63t156 63t61 163v466h20v-466q0 -109 -66.5 -177.5t-170.5 -68.5t-170.5 68.5t-66.5 177.5v466zM323 789h-23l-88 157h23z" />
    <glyph glyph-name="Uacute" unicode="&#xda;" horiz-adv-x="614" 
d="M70 705h20v-466q0 -100 61 -163t156 -63t156 63t61 163v466h20v-466q0 -109 -66.5 -177.5t-170.5 -68.5t-170.5 68.5t-66.5 177.5v466zM310 789h-21l88 157h21z" />
    <glyph glyph-name="Ucircumflex" unicode="&#xdb;" horiz-adv-x="614" 
d="M70 705h20v-466q0 -100 61 -163t156 -63t156 63t61 163v466h20v-466q0 -109 -66.5 -177.5t-170.5 -68.5t-170.5 68.5t-66.5 177.5v466zM317 940l156 -149h-29l-137 132l-139 -132h-29l157 149h21z" />
    <glyph glyph-name="Udieresis" unicode="&#xdc;" horiz-adv-x="614" 
d="M70 705h20v-466q0 -100 61 -163t156 -63t156 63t61 163v466h20v-466q0 -109 -66.5 -177.5t-170.5 -68.5t-170.5 68.5t-66.5 177.5v466zM392 811q0 -8 -5.5 -13.5t-13.5 -5.5q-7 0 -13 6t-6 13q0 8 5.5 13.5t13.5 5.5q19 0 19 -19zM258 811q0 -8 -5.5 -13.5t-13.5 -5.5
q-7 0 -13 6t-6 13q0 8 5.5 13.5t13.5 5.5q19 0 19 -19z" />
    <glyph glyph-name="Yacute" unicode="&#xdd;" horiz-adv-x="587" 
d="M20 705h22l251 -401l252 401h22l-264 -421v-284h-20v284zM296 789h-21l88 157h21z" />
    <glyph glyph-name="Thorn" unicode="&#xde;" horiz-adv-x="557" 
d="M80 705h20v-100h176q106 0 171 -61t65 -170v-25q0 -109 -64.5 -168t-171.5 -59h-176v-122h-20v705zM100 585v-443h176q98 0 157 54t59 153v25q0 100 -59 155.5t-157 55.5h-176z" />
    <glyph glyph-name="germandbls" unicode="&#xdf;" horiz-adv-x="484" 
d="M314 551q66 -17 90.5 -72.5t24.5 -145.5v-116q0 -51 -6.5 -87.5t-24.5 -70t-54.5 -49.5t-90.5 -14v20q48 -4 80.5 12t48 47.5t21.5 63.5t6 72v122q0 98 -32.5 153t-123.5 55v20q114 0 114 75v12q0 41 -29 61t-74 20h-17q-64 0 -90.5 -34.5t-26.5 -133.5v-561h-19v541h-71
v20h71q0 108 31 148t111 40h7q66 0 96 -28t30 -73v-12q0 -32 -17.5 -55.5t-54.5 -29.5z" />
    <glyph glyph-name="agrave" unicode="&#xe0;" horiz-adv-x="552" 
d="M269 -10q-101 0 -157.5 60.5t-56.5 165.5v133q0 102 56.5 162t157.5 60q69 0 119 -30.5t74 -86.5v108h20v-562h-20v108q-51 -118 -193 -118zM269 10q90 0 141.5 55t51.5 151v142q0 88 -52 140.5t-141 52.5q-92 0 -143 -54.5t-51 -147.5v-133q0 -96 51 -151t143 -55z
M277 639h-23l-88 157h23z" />
    <glyph glyph-name="aacute" unicode="&#xe1;" horiz-adv-x="552" 
d="M269 -10q-101 0 -157.5 60.5t-56.5 165.5v133q0 102 56.5 162t157.5 60q69 0 119 -30.5t74 -86.5v108h20v-562h-20v108q-51 -118 -193 -118zM269 10q90 0 141.5 55t51.5 151v142q0 88 -52 140.5t-141 52.5q-92 0 -143 -54.5t-51 -147.5v-133q0 -96 51 -151t143 -55z
M267 640h-21l88 157h21z" />
    <glyph glyph-name="acircumflex" unicode="&#xe2;" horiz-adv-x="552" 
d="M269 -10q-101 0 -157.5 60.5t-56.5 165.5v133q0 102 56.5 162t157.5 60q69 0 119 -30.5t74 -86.5v108h20v-562h-20v108q-51 -118 -193 -118zM269 10q90 0 141.5 55t51.5 151v142q0 88 -52 140.5t-141 52.5q-92 0 -143 -54.5t-51 -147.5v-133q0 -96 51 -151t143 -55z
M291 790l156 -149h-29l-137 132l-139 -132h-29l157 149h21z" />
    <glyph glyph-name="atilde" unicode="&#xe3;" horiz-adv-x="552" 
d="M269 -10q-101 0 -157.5 60.5t-56.5 165.5v133q0 102 56.5 162t157.5 60q69 0 119 -30.5t74 -86.5v108h20v-562h-20v108q-51 -118 -193 -118zM269 10q90 0 141.5 55t51.5 151v142q0 88 -52 140.5t-141 52.5q-92 0 -143 -54.5t-51 -147.5v-133q0 -96 51 -151t143 -55z
M441 701v-25q-46 -42 -92 -42q-28 0 -76 20t-72 20q-44 0 -93 -43v24q47 40 93 40q28 0 76 -20t72 -20q43 0 92 46z" />
    <glyph glyph-name="adieresis" unicode="&#xe4;" horiz-adv-x="552" 
d="M269 -10q-101 0 -157.5 60.5t-56.5 165.5v133q0 102 56.5 162t157.5 60q69 0 119 -30.5t74 -86.5v108h20v-562h-20v108q-51 -118 -193 -118zM269 10q90 0 141.5 55t51.5 151v142q0 88 -52 140.5t-141 52.5q-92 0 -143 -54.5t-51 -147.5v-133q0 -96 51 -151t143 -55z
M351 661q0 -8 -5.5 -13.5t-13.5 -5.5t-13.5 6t-5.5 13q0 8 5.5 13.5t13.5 5.5q19 0 19 -19zM217 661q0 -8 -5.5 -13.5t-13.5 -5.5t-13.5 6t-5.5 13q0 8 5.5 13.5t13.5 5.5q19 0 19 -19z" />
    <glyph glyph-name="aring" unicode="&#xe5;" horiz-adv-x="552" 
d="M269 -10q-101 0 -157.5 60.5t-56.5 165.5v133q0 102 56.5 162t157.5 60q69 0 119 -30.5t74 -86.5v108h20v-562h-20v108q-51 -118 -193 -118zM269 10q90 0 141.5 55t51.5 151v142q0 88 -52 140.5t-141 52.5q-92 0 -143 -54.5t-51 -147.5v-133q0 -96 51 -151t143 -55z
M264 658q17 0 29 12t12 30q0 17 -12 29t-29 12t-29 -12t-12 -29q0 -18 12 -30t29 -12zM264 638q-26 0 -43.5 18t-17.5 44t17.5 43.5t43.5 17.5t43.5 -17.5t17.5 -43.5t-17.5 -44t-43.5 -18z" />
    <glyph glyph-name="ae" unicode="&#xe6;" horiz-adv-x="939" 
d="M889 352v-71h-407v-77q2 -90 53.5 -142t140.5 -52t141 50t52 123v4h20v-4q0 -81 -58 -137t-155 -56q-71 0 -120.5 31t-73.5 87v-108h-20v108q-51 -118 -193 -118q-101 0 -157.5 60.5t-56.5 165.5v133q0 102 56.5 162t157.5 60q69 0 119 -30.5t74 -86.5v108h20v-110
q23 57 73 88.5t121 31.5q101 0 157 -58t56 -162zM269 10q90 0 141.5 55t51.5 151v142q0 88 -52 140.5t-141 52.5q-92 0 -143 -54.5t-51 -147.5v-133q0 -96 51 -151t143 -55zM482 347v-46h387v51q0 95 -50.5 147.5t-142.5 52.5t-143 -55t-51 -150z" />
    <glyph glyph-name="ccedilla" unicode="&#xe7;" 
d="M482 349h-20q0 95 -50.5 147.5t-142.5 52.5t-143 -55t-51 -150v-131q0 -94 51.5 -148.5t142.5 -54.5t142 52t51 145h20q0 -100 -53.5 -157t-150.5 -60l-68 -126h-23l68 126q-95 4 -147.5 63.5t-52.5 159.5v131q0 104 56.5 164.5t157.5 60.5t157 -58t56 -162z" />
    <glyph glyph-name="egrave" unicode="&#xe8;" 
d="M482 352v-71h-407v-68q0 -94 51.5 -148.5t142.5 -54.5q89 0 141 50t52 123v4h20v-4q0 -81 -58 -137t-155 -56q-100 0 -157 60t-57 163v134q0 104 56.5 164.5t157.5 60.5t157 -58t56 -162zM75 347v-46h387v51q0 95 -50.5 147.5t-142.5 52.5t-143 -55t-51 -150zM280 640
h-23l-88 157h23z" />
    <glyph glyph-name="eacute" unicode="&#xe9;" 
d="M482 352v-71h-407v-68q0 -94 51.5 -148.5t142.5 -54.5q89 0 141 50t52 123v4h20v-4q0 -81 -58 -137t-155 -56q-100 0 -157 60t-57 163v134q0 104 56.5 164.5t157.5 60.5t157 -58t56 -162zM75 347v-46h387v51q0 95 -50.5 147.5t-142.5 52.5t-143 -55t-51 -150zM275 640
h-21l88 157h21z" />
    <glyph glyph-name="ecircumflex" unicode="&#xea;" 
d="M482 352v-71h-407v-68q0 -94 51.5 -148.5t142.5 -54.5q89 0 141 50t52 123v4h20v-4q0 -81 -58 -137t-155 -56q-100 0 -157 60t-57 163v134q0 104 56.5 164.5t157.5 60.5t157 -58t56 -162zM75 347v-46h387v51q0 95 -50.5 147.5t-142.5 52.5t-143 -55t-51 -150zM276 789
l156 -149h-29l-137 132l-139 -132h-29l157 149h21z" />
    <glyph glyph-name="edieresis" unicode="&#xeb;" 
d="M482 352v-71h-407v-68q0 -94 51.5 -148.5t142.5 -54.5q89 0 141 50t52 123v4h20v-4q0 -81 -58 -137t-155 -56q-100 0 -157 60t-57 163v134q0 104 56.5 164.5t157.5 60.5t157 -58t56 -162zM75 347v-46h387v51q0 95 -50.5 147.5t-142.5 52.5t-143 -55t-51 -150zM347 662
q0 -8 -5.5 -13.5t-13.5 -5.5t-13.5 5.5t-5.5 13.5t5.5 13.5t13.5 5.5q19 0 19 -19zM213 662q0 -8 -5.5 -13.5t-13.5 -5.5t-13.5 5.5t-5.5 13.5t5.5 13.5t13.5 5.5q19 0 19 -19z" />
    <glyph glyph-name="igrave" unicode="&#xec;" horiz-adv-x="145" 
d="M84 0h-20v562h20v-562zM91 640h-23l-88 157h23z" />
    <glyph glyph-name="iacute" unicode="&#xed;" horiz-adv-x="152" 
d="M84 0h-20v562h20v-562zM89 640h-21l88 157h21z" />
    <glyph glyph-name="icircumflex" unicode="&#xee;" horiz-adv-x="149" 
d="M84 0h-20v562h20v-562zM87 791l156 -149h-29l-137 132l-139 -132h-29l157 149h21z" />
    <glyph glyph-name="idieresis" unicode="&#xef;" horiz-adv-x="153" 
d="M84 0h-20v562h20v-562zM159 662q0 -8 -5.5 -13.5t-13.5 -5.5t-13.5 5.5t-5.5 13.5t5.5 13.5t13.5 5.5q19 0 19 -19zM25 662q0 -8 -5.5 -13.5t-13.5 -5.5t-13.5 5.5t-5.5 13.5t5.5 13.5t13.5 5.5q19 0 19 -19z" />
    <glyph glyph-name="eth" unicode="&#xf0;" horiz-adv-x="537" 
d="M269 -9q-101 0 -157.5 60.5t-56.5 165.5v129q0 102 56.5 162t157.5 60q87 0 146 -49l-69 131h-81v19h70l-43 83h24l42 -83h88v-19h-78l56 -108q20 -41 29 -62.5t19 -59.5t10 -74v-129q0 -105 -57 -165.5t-156 -60.5zM269 11q90 0 141.5 55t51.5 151v129q0 93 -51.5 147.5
t-141.5 54.5q-92 0 -143 -54.5t-51 -147.5v-129q0 -96 51 -151t143 -55z" />
    <glyph glyph-name="ntilde" unicode="&#xf1;" horiz-adv-x="558" 
d="M498 0h-20v349q0 93 -51 147.5t-143 54.5q-89 0 -141.5 -52.5t-52.5 -140.5v-358h-20v562h20v-108q24 56 74 86.5t120 30.5q101 0 157.5 -60t56.5 -162v-349zM444 706v-25q-46 -42 -92 -42q-28 0 -76 20t-72 20q-44 0 -93 -43v24q47 40 93 40q28 0 76 -20t72 -20
q43 0 92 46z" />
    <glyph glyph-name="ograve" unicode="&#xf2;" horiz-adv-x="537" 
d="M269 -9q-101 0 -157.5 60.5t-56.5 165.5v129q0 102 56.5 162t157.5 60q99 0 156 -60t57 -162v-129q0 -105 -57 -165.5t-156 -60.5zM269 11q90 0 141.5 55t51.5 151v129q0 93 -51.5 147.5t-141.5 54.5q-92 0 -143 -54.5t-51 -147.5v-129q0 -96 51 -151t143 -55zM279 640
h-23l-88 157h23z" />
    <glyph glyph-name="oacute" unicode="&#xf3;" horiz-adv-x="537" 
d="M269 -9q-101 0 -157.5 60.5t-56.5 165.5v129q0 102 56.5 162t157.5 60q99 0 156 -60t57 -162v-129q0 -105 -57 -165.5t-156 -60.5zM269 11q90 0 141.5 55t51.5 151v129q0 93 -51.5 147.5t-141.5 54.5q-92 0 -143 -54.5t-51 -147.5v-129q0 -96 51 -151t143 -55zM269 639
h-21l88 157h21z" />
    <glyph glyph-name="ocircumflex" unicode="&#xf4;" horiz-adv-x="537" 
d="M269 -9q-101 0 -157.5 60.5t-56.5 165.5v129q0 102 56.5 162t157.5 60q99 0 156 -60t57 -162v-129q0 -105 -57 -165.5t-156 -60.5zM269 11q90 0 141.5 55t51.5 151v129q0 93 -51.5 147.5t-141.5 54.5q-92 0 -143 -54.5t-51 -147.5v-129q0 -96 51 -151t143 -55zM279 789
l156 -149h-29l-137 132l-139 -132h-29l157 149h21z" />
    <glyph glyph-name="otilde" unicode="&#xf5;" horiz-adv-x="537" 
d="M269 -9q-101 0 -157.5 60.5t-56.5 165.5v129q0 102 56.5 162t157.5 60q99 0 156 -60t57 -162v-129q0 -105 -57 -165.5t-156 -60.5zM269 11q90 0 141.5 55t51.5 151v129q0 93 -51.5 147.5t-141.5 54.5q-92 0 -143 -54.5t-51 -147.5v-129q0 -96 51 -151t143 -55zM433 702
v-25q-46 -42 -92 -42q-28 0 -76 20t-72 20q-44 0 -93 -43v24q47 40 93 40q28 0 76 -20t72 -20q43 0 92 46z" />
    <glyph glyph-name="odieresis" unicode="&#xf6;" horiz-adv-x="537" 
d="M269 -9q-101 0 -157.5 60.5t-56.5 165.5v129q0 102 56.5 162t157.5 60q99 0 156 -60t57 -162v-129q0 -105 -57 -165.5t-156 -60.5zM269 11q90 0 141.5 55t51.5 151v129q0 93 -51.5 147.5t-141.5 54.5q-92 0 -143 -54.5t-51 -147.5v-129q0 -96 51 -151t143 -55zM349 660
q0 -8 -5.5 -13.5t-13.5 -5.5t-13.5 5.5t-5.5 13.5t5.5 13.5t13.5 5.5q19 0 19 -19zM215 660q0 -8 -5.5 -13.5t-13.5 -5.5t-13.5 5.5t-5.5 13.5t5.5 13.5t13.5 5.5q19 0 19 -19z" />
    <glyph glyph-name="divide" unicode="&#xf7;" horiz-adv-x="431" 
d="M371 362v-20h-311v20h311zM232 238q0 -8 -5.5 -13.5t-13.5 -5.5q-7 0 -13 5.5t-6 13.5t5.5 13.5t13.5 5.5q19 0 19 -19zM232 464q0 -8 -5.5 -13.5t-13.5 -5.5q-7 0 -13 5.5t-6 13.5t5.5 13.5t13.5 5.5q19 0 19 -19z" />
    <glyph glyph-name="oslash" unicode="&#xf8;" horiz-adv-x="537" 
d="M269 -9q-45 0 -81 12l-25 -79h-22l28 87q-114 51 -114 206v129q0 102 56.5 162t157.5 60q39 0 74 -11l27 82h22l-29 -89q57 -24 88 -77t31 -127v-129q0 -105 -57 -165.5t-156 -60.5zM269 11q90 0 141.5 55t51.5 151v129q0 67 -27.5 114.5t-77.5 70.5l-163 -509
q30 -11 75 -11zM75 217q0 -139 100 -187l162 508q-29 10 -68 10q-92 0 -143 -54.5t-51 -147.5v-129z" />
    <glyph glyph-name="ugrave" unicode="&#xf9;" horiz-adv-x="548" 
d="M60 562h20v-370q0 -80 54 -131t140 -51t140 51t54 131v370h20v-370q0 -89 -59.5 -145.5t-154.5 -56.5t-154.5 56.5t-59.5 145.5v370zM281 640h-23l-88 157h23z" />
    <glyph glyph-name="uacute" unicode="&#xfa;" horiz-adv-x="548" 
d="M60 562h20v-370q0 -80 54 -131t140 -51t140 51t54 131v370h20v-370q0 -89 -59.5 -145.5t-154.5 -56.5t-154.5 56.5t-59.5 145.5v370zM274 641h-21l88 157h21z" />
    <glyph glyph-name="ucircumflex" unicode="&#xfb;" horiz-adv-x="548" 
d="M60 562h20v-370q0 -80 54 -131t140 -51t140 51t54 131v370h20v-370q0 -89 -59.5 -145.5t-154.5 -56.5t-154.5 56.5t-59.5 145.5v370zM284 788l156 -149h-29l-137 132l-139 -132h-29l157 149h21z" />
    <glyph glyph-name="udieresis" unicode="&#xfc;" horiz-adv-x="548" 
d="M60 562h20v-370q0 -80 54 -131t140 -51t140 51t54 131v370h20v-370q0 -89 -59.5 -145.5t-154.5 -56.5t-154.5 56.5t-59.5 145.5v370zM360 662q0 -8 -5.5 -13.5t-13.5 -5.5q-7 0 -13 5.5t-6 13.5t5.5 13.5t13.5 5.5q19 0 19 -19zM226 662q0 -8 -5.5 -13.5t-13.5 -5.5
q-7 0 -13 5.5t-6 13.5t5.5 13.5t13.5 5.5q19 0 19 -19z" />
    <glyph glyph-name="yacute" unicode="&#xfd;" horiz-adv-x="537" 
d="M200 -179h-22l78 186l-231 555h21l222 -532l222 532h22zM252 640h-21l88 157h21z" />
    <glyph glyph-name="thorn" unicode="&#xfe;" horiz-adv-x="558" 
d="M284 569q101 0 157.5 -60.5t56.5 -165.5v-126q0 -102 -56.5 -162.5t-157.5 -60.5q-70 0 -120.5 31t-73.5 87v-293h-20v927h20v-296q24 57 74 88t120 31zM284 549q-89 0 -141.5 -53t-52.5 -144v-135q0 -93 52 -148t142 -55q92 0 143 55t51 148v126q0 96 -51 151t-143 55z
" />
    <glyph glyph-name="ydieresis" unicode="&#xff;" horiz-adv-x="537" 
d="M200 -179h-22l78 186l-231 555h21l222 -532l222 532h22zM355 659q0 -8 -5.5 -13.5t-13.5 -5.5t-13.5 6t-5.5 13q0 8 5.5 13.5t13.5 5.5q19 0 19 -19zM221 659q0 -8 -5.5 -13.5t-13.5 -5.5t-13.5 6t-5.5 13q0 8 5.5 13.5t13.5 5.5q19 0 19 -19z" />
    <glyph glyph-name="Amacron" unicode="&#x100;" horiz-adv-x="603" 
d="M583 0h-22l-74 199h-369l-77 -199h-21l272 705h23zM303 684l-178 -467h355zM164 790v20h277v-20h-277z" />
    <glyph glyph-name="amacron" unicode="&#x101;" horiz-adv-x="552" 
d="M269 -10q-101 0 -157.5 60.5t-56.5 165.5v133q0 102 56.5 162t157.5 60q69 0 119 -30.5t74 -86.5v108h20v-562h-20v108q-51 -118 -193 -118zM269 10q90 0 141.5 55t51.5 151v142q0 88 -52 140.5t-141 52.5q-92 0 -143 -54.5t-51 -147.5v-133q0 -96 51 -151t143 -55z
M125 639v20h277v-20h-277z" />
    <glyph glyph-name="Abreve" unicode="&#x102;" horiz-adv-x="603" 
d="M583 0h-22l-74 199h-369l-77 -199h-21l272 705h23zM303 684l-178 -467h355zM169 935h20v-12q0 -51 30 -81t84 -30t84 28t30 81v14h20v-14q0 -62 -35.5 -95.5t-98.5 -33.5t-98.5 35.5t-35.5 95.5v12z" />
    <glyph glyph-name="abreve" unicode="&#x103;" horiz-adv-x="552" 
d="M269 -10q-101 0 -157.5 60.5t-56.5 165.5v133q0 102 56.5 162t157.5 60q69 0 119 -30.5t74 -86.5v108h20v-562h-20v108q-51 -118 -193 -118zM269 10q90 0 141.5 55t51.5 151v142q0 88 -52 140.5t-141 52.5q-92 0 -143 -54.5t-51 -147.5v-133q0 -96 51 -151t143 -55z
M127 783h20v-12q0 -51 30 -81t84 -30t84 28t30 81v14h20v-14q0 -62 -35.5 -95.5t-98.5 -33.5t-98.5 35.5t-35.5 95.5v12z" />
    <glyph glyph-name="Aogonek" unicode="&#x104;" horiz-adv-x="603" 
d="M305 682l-180 -465h355zM562 0l-75 199h-369l-77 -199h-21l272 705h23l268 -705q-5 -28 -5 -51q0 -85 86 -85q26 0 58 7v-20q-32 -7 -58 -7q-106 0 -106 105q0 28 4 51z" />
    <glyph glyph-name="aogonek" unicode="&#x105;" horiz-adv-x="552" 
d="M269 10q90 0 141.5 55t51.5 151v142q0 88 -52 140.5t-141 52.5q-92 0 -143 -54.5t-51 -147.5v-133q0 -96 51 -151t143 -55zM462 0v108q-51 -118 -193 -118q-101 0 -157.5 60.5t-56.5 165.5v133q0 102 56.5 162t157.5 60q69 0 119 -30.5t74 -86.5v108h20v-562
q-5 -28 -5 -51q0 -85 86 -85q26 0 58 7v-20q-32 -7 -58 -7q-106 0 -106 105q0 23 5 51z" />
    <glyph glyph-name="Cacute" unicode="&#x106;" horiz-adv-x="584" 
d="M534 471h-20q0 100 -60.5 163t-156.5 63t-156.5 -63t-60.5 -163v-233q0 -100 60.5 -163t156.5 -63t156.5 63t60.5 163h20q0 -109 -66 -177.5t-171 -68.5t-171 68.5t-66 177.5v233q0 109 66 177.5t171 68.5t171 -68.5t66 -177.5zM316 789h-21l88 157h21z" />
    <glyph glyph-name="cacute" unicode="&#x107;" 
d="M482 349h-20q0 95 -50.5 147.5t-142.5 52.5t-143 -55t-51 -150v-131q0 -94 51.5 -148.5t142.5 -54.5t142 52t51 145h20q0 -102 -56.5 -159.5t-156.5 -57.5t-157 60t-57 163v131q0 104 56.5 164.5t157.5 60.5t157 -58t56 -162zM276 640h-21l88 157h21z" />
    <glyph glyph-name="Ccircumflex" unicode="&#x108;" horiz-adv-x="584" 
d="M534 471h-20q0 100 -60.5 163t-156.5 63t-156.5 -63t-60.5 -163v-233q0 -100 60.5 -163t156.5 -63t156.5 63t60.5 163h20q0 -109 -66 -177.5t-171 -68.5t-171 68.5t-66 177.5v233q0 109 66 177.5t171 68.5t171 -68.5t66 -177.5zM303 940l156 -149h-29l-137 132l-139 -132
h-29l157 149h21z" />
    <glyph glyph-name="ccircumflex" unicode="&#x109;" 
d="M482 349h-20q0 95 -50.5 147.5t-142.5 52.5t-143 -55t-51 -150v-131q0 -94 51.5 -148.5t142.5 -54.5t142 52t51 145h20q0 -102 -56.5 -159.5t-156.5 -57.5t-157 60t-57 163v131q0 104 56.5 164.5t157.5 60.5t157 -58t56 -162zM286 790l156 -149h-29l-137 132l-139 -132
h-29l157 149h21z" />
    <glyph glyph-name="Cdotaccent" unicode="&#x10a;" horiz-adv-x="584" 
d="M534 471h-20q0 100 -60.5 163t-156.5 63t-156.5 -63t-60.5 -163v-233q0 -100 60.5 -163t156.5 -63t156.5 63t60.5 163h20q0 -109 -66 -177.5t-171 -68.5t-171 68.5t-66 177.5v233q0 109 66 177.5t171 68.5t171 -68.5t66 -177.5zM312 812q0 -8 -5.5 -13.5t-13.5 -5.5
q-7 0 -13 5.5t-6 13.5t5.5 13.5t13.5 5.5q19 0 19 -19z" />
    <glyph glyph-name="cdotaccent" unicode="&#x10b;" 
d="M482 349h-20q0 95 -50.5 147.5t-142.5 52.5t-143 -55t-51 -150v-131q0 -94 51.5 -148.5t142.5 -54.5t142 52t51 145h20q0 -102 -56.5 -159.5t-156.5 -57.5t-157 60t-57 163v131q0 104 56.5 164.5t157.5 60.5t157 -58t56 -162zM282 663q0 -8 -5.5 -13.5t-13.5 -5.5
q-7 0 -13 6t-6 13q0 8 5.5 13.5t13.5 5.5q19 0 19 -19z" />
    <glyph glyph-name="Ccaron" unicode="&#x10c;" horiz-adv-x="584" 
d="M534 471h-20q0 100 -60.5 163t-156.5 63t-156.5 -63t-60.5 -163v-233q0 -100 60.5 -163t156.5 -63t156.5 63t60.5 163h20q0 -109 -66 -177.5t-171 -68.5t-171 68.5t-66 177.5v233q0 109 66 177.5t171 68.5t171 -68.5t66 -177.5zM459 940l-156 -149h-21l-157 149h29
l139 -132l137 132h29z" />
    <glyph glyph-name="ccaron" unicode="&#x10d;" 
d="M482 349h-20q0 95 -50.5 147.5t-142.5 52.5t-143 -55t-51 -150v-131q0 -94 51.5 -148.5t142.5 -54.5t142 52t51 145h20q0 -102 -56.5 -159.5t-156.5 -57.5t-157 60t-57 163v131q0 104 56.5 164.5t157.5 60.5t157 -58t56 -162zM437 789l-156 -149h-21l-157 149h29
l139 -132l137 132h29z" />
    <glyph glyph-name="Dcaron" unicode="&#x10e;" horiz-adv-x="595" 
d="M298 0h-218v705h218q108 0 172.5 -66t64.5 -191v-185q0 -126 -64.5 -194.5t-172.5 -68.5zM100 20h198q98 0 157.5 63.5t59.5 179.5v185q0 116 -59 176.5t-158 60.5h-198v-665zM441 940l-156 -149h-21l-157 149h29l139 -132l137 132h29z" />
    <glyph glyph-name="dcaron" unicode="&#x10f;" horiz-adv-x="672" 
d="M269 -10q-101 0 -157.5 60.5t-56.5 165.5v133q0 102 56.5 162t157.5 60q71 0 121.5 -31t71.5 -86v292h20v-746h-20v108q-51 -118 -193 -118zM269 10q90 0 141.5 55t51.5 151v142q0 88 -52 140.5t-141 52.5q-92 0 -143 -54.5t-51 -147.5v-133q0 -96 51 -151t143 -55z
M560 423h-23l132 322h23z" />
    <glyph glyph-name="Dcroat" unicode="&#x110;" horiz-adv-x="595" 
d="M298 0h-218v345h-80v20h80v340h218q108 0 172.5 -66t64.5 -191v-185q0 -126 -64.5 -194.5t-172.5 -68.5zM100 20h198q98 0 157.5 63.5t59.5 179.5v185q0 116 -59 176.5t-158 60.5h-198v-320h198v-20h-198v-325z" />
    <glyph glyph-name="dcroat" unicode="&#x111;" horiz-adv-x="548" 
d="M269 -10q-101 0 -157.5 60.5t-56.5 165.5v133q0 102 56.5 162t157.5 60q71 0 121.5 -31t71.5 -86v191h-165v20h165v81h20v-81h66v-20h-66v-645h-20v108q-51 -118 -193 -118zM269 10q90 0 141.5 55t51.5 151v142q0 88 -52 140.5t-141 52.5q-92 0 -143 -54.5t-51 -147.5
v-133q0 -96 51 -151t143 -55z" />
    <glyph glyph-name="Emacron" unicode="&#x112;" horiz-adv-x="526" 
d="M100 349v-329h371v-20h-391v705h391v-20h-371v-316h263v-20h-263zM135 790v20h277v-20h-277z" />
    <glyph glyph-name="emacron" unicode="&#x113;" 
d="M482 352v-71h-407v-68q0 -94 51.5 -148.5t142.5 -54.5q89 0 141 50t52 123v4h20v-4q0 -81 -58 -137t-155 -56q-100 0 -157 60t-57 163v134q0 104 56.5 164.5t157.5 60.5t157 -58t56 -162zM75 347v-46h387v51q0 95 -50.5 147.5t-142.5 52.5t-143 -55t-51 -150zM130 641v20
h277v-20h-277z" />
    <glyph glyph-name="Ebreve" unicode="&#x114;" horiz-adv-x="526" 
d="M100 349v-329h371v-20h-391v705h391v-20h-371v-316h263v-20h-263zM132 935h20v-12q0 -51 30 -81t84 -30t84 28t30 81v14h20v-14q0 -62 -35.5 -95.5t-98.5 -33.5t-98.5 35.5t-35.5 95.5v12z" />
    <glyph glyph-name="ebreve" unicode="&#x115;" 
d="M482 352v-71h-407v-68q0 -94 51.5 -148.5t142.5 -54.5q89 0 141 50t52 123v4h20v-4q0 -81 -58 -137t-155 -56q-100 0 -157 60t-57 163v134q0 104 56.5 164.5t157.5 60.5t157 -58t56 -162zM75 347v-46h387v51q0 95 -50.5 147.5t-142.5 52.5t-143 -55t-51 -150zM139 783h20
v-12q0 -51 30 -81t84 -30t84 28t30 81v14h20v-14q0 -62 -35.5 -95.5t-98.5 -33.5t-98.5 35.5t-35.5 95.5v12z" />
    <glyph glyph-name="Edotaccent" unicode="&#x116;" horiz-adv-x="526" 
d="M100 349v-329h371v-20h-391v705h391v-20h-371v-316h263v-20h-263zM295 814q0 -8 -5.5 -13.5t-13.5 -5.5t-13.5 5.5t-5.5 13.5t5.5 13.5t13.5 5.5q19 0 19 -19z" />
    <glyph glyph-name="edotaccent" unicode="&#x117;" 
d="M482 352v-71h-407v-68q0 -94 51.5 -148.5t142.5 -54.5q89 0 141 50t52 123v4h20v-4q0 -81 -58 -137t-155 -56q-100 0 -157 60t-57 163v134q0 104 56.5 164.5t157.5 60.5t157 -58t56 -162zM75 347v-46h387v51q0 95 -50.5 147.5t-142.5 52.5t-143 -55t-51 -150zM284 663
q0 -8 -5.5 -13.5t-13.5 -5.5q-7 0 -13 6t-6 13q0 8 5.5 13.5t13.5 5.5q19 0 19 -19z" />
    <glyph glyph-name="Eogonek" unicode="&#x118;" horiz-adv-x="523" 
d="M80 0v705h391v-20h-371v-316h263v-20h-263v-329h371v-20q-5 -28 -5 -51q0 -85 86 -85q26 0 58 7v-20q-32 -7 -58 -7q-106 0 -106 105q0 28 4 51q2 0 -37.5 0h-92.5h-108.5h-93.5h-38z" />
    <glyph glyph-name="eogonek" unicode="&#x119;" 
d="M482 352v-71h-407v-68q0 -94 51.5 -148.5t142.5 -54.5q89 0 141 50t52 123v4h20v-4q0 -79 -55.5 -134.5t-148.5 -58.5q-3 -21 -3 -41q0 -85 86 -85q26 0 58 7v-20q-32 -7 -58 -7q-106 0 -106 105q0 27 2 41q-95 4 -148.5 63.5t-53.5 159.5v134q0 104 56.5 164.5
t157.5 60.5t157 -58t56 -162zM75 347v-46h387v51q0 95 -50.5 147.5t-142.5 52.5t-143 -55t-51 -150z" />
    <glyph glyph-name="Ecaron" unicode="&#x11a;" horiz-adv-x="526" 
d="M100 349v-329h371v-20h-391v705h391v-20h-371v-316h263v-20h-263zM432 940l-156 -149h-21l-157 149h29l139 -132l137 132h29z" />
    <glyph glyph-name="ecaron" unicode="&#x11b;" 
d="M482 352v-71h-407v-68q0 -94 51.5 -148.5t142.5 -54.5q89 0 141 50t52 123v4h20v-4q0 -81 -58 -137t-155 -56q-100 0 -157 60t-57 163v134q0 104 56.5 164.5t157.5 60.5t157 -58t56 -162zM75 347v-46h387v51q0 95 -50.5 147.5t-142.5 52.5t-143 -55t-51 -150zM432 788
l-156 -149h-21l-157 149h29l139 -132l137 132h29z" />
    <glyph glyph-name="Gcircumflex" unicode="&#x11c;" horiz-adv-x="593" 
d="M533 477h-20q-2 97 -62.5 158.5t-154.5 61.5q-95 0 -155.5 -63t-60.5 -163v-234q0 -100 60.5 -163t155.5 -63q96 0 156.5 63t60.5 163v54h-216v20h236v-74q0 -109 -66 -177.5t-171 -68.5q-104 0 -170 68.5t-66 177.5v234q0 109 66 177.5t170 68.5q103 0 169 -67t68 -173z
M307 932l156 -149h-29l-137 132l-139 -132h-29l157 149h21z" />
    <glyph glyph-name="gcircumflex" unicode="&#x11d;" horiz-adv-x="552" 
d="M269 -10q-101 0 -157.5 60.5t-56.5 165.5v133q0 102 56.5 162t157.5 60q70 0 121 -31t72 -86v108h20v-562q0 -108 -46.5 -159t-165.5 -51q-208 0 -208 169h20q0 -149 188 -149q107 0 149.5 46t42.5 144v108q-50 -118 -193 -118zM269 10q89 0 141 52.5t52 143.5v152
q0 88 -52 140.5t-141 52.5q-92 0 -143 -54.5t-51 -147.5v-133q0 -96 51 -151t143 -55zM286 790l156 -149h-29l-137 132l-139 -132h-29l157 149h21z" />
    <glyph glyph-name="Gbreve" unicode="&#x11e;" horiz-adv-x="593" 
d="M533 477h-20q-2 97 -62.5 158.5t-154.5 61.5q-95 0 -155.5 -63t-60.5 -163v-234q0 -100 60.5 -163t155.5 -63q96 0 156.5 63t60.5 163v54h-216v20h236v-74q0 -109 -66 -177.5t-171 -68.5q-104 0 -170 68.5t-66 177.5v234q0 109 66 177.5t170 68.5q103 0 169 -67t68 -173z
M162 935h20v-12q0 -51 30 -81t84 -30t84 28t30 81v14h20v-14q0 -62 -35.5 -95.5t-98.5 -33.5t-98.5 35.5t-35.5 95.5v12z" />
    <glyph glyph-name="gbreve" unicode="&#x11f;" horiz-adv-x="552" 
d="M269 -10q-101 0 -157.5 60.5t-56.5 165.5v133q0 102 56.5 162t157.5 60q70 0 121 -31t72 -86v108h20v-562q0 -108 -46.5 -159t-165.5 -51q-208 0 -208 169h20q0 -149 188 -149q107 0 149.5 46t42.5 144v108q-50 -118 -193 -118zM269 10q89 0 141 52.5t52 143.5v152
q0 88 -52 140.5t-141 52.5q-92 0 -143 -54.5t-51 -147.5v-133q0 -96 51 -151t143 -55zM134 777h20v-12q0 -51 30 -81t84 -30t84 28t30 81v14h20v-14q0 -62 -35.5 -95.5t-98.5 -33.5t-98.5 35.5t-35.5 95.5v12z" />
    <glyph glyph-name="Gdotaccent" unicode="&#x120;" horiz-adv-x="593" 
d="M533 477h-20q-2 97 -62.5 158.5t-154.5 61.5q-95 0 -155.5 -63t-60.5 -163v-234q0 -100 60.5 -163t155.5 -63q96 0 156.5 63t60.5 163v54h-216v20h236v-74q0 -109 -66 -177.5t-171 -68.5q-104 0 -170 68.5t-66 177.5v234q0 109 66 177.5t170 68.5q103 0 169 -67t68 -173z
M314 814q0 -8 -5.5 -13.5t-13.5 -5.5q-7 0 -13 5.5t-6 13.5t5.5 13.5t13.5 5.5q19 0 19 -19z" />
    <glyph glyph-name="gdotaccent" unicode="&#x121;" horiz-adv-x="552" 
d="M269 -10q-101 0 -157.5 60.5t-56.5 165.5v133q0 102 56.5 162t157.5 60q70 0 121 -31t72 -86v108h20v-562q0 -108 -46.5 -159t-165.5 -51q-208 0 -208 169h20q0 -149 188 -149q107 0 149.5 46t42.5 144v108q-50 -118 -193 -118zM269 10q89 0 141 52.5t52 143.5v152
q0 88 -52 140.5t-141 52.5q-92 0 -143 -54.5t-51 -147.5v-133q0 -96 51 -151t143 -55zM289 664q0 -8 -5.5 -13.5t-13.5 -5.5t-13.5 5.5t-5.5 13.5t5.5 13.5t13.5 5.5q19 0 19 -19z" />
    <glyph glyph-name="Gcommaaccent" unicode="&#x122;" horiz-adv-x="593" 
d="M533 477h-20q-2 97 -62.5 158.5t-154.5 61.5q-95 0 -155.5 -63t-60.5 -163v-234q0 -100 60.5 -163t155.5 -63q96 0 156.5 63t60.5 163v54h-216v20h236v-74q0 -109 -66 -177.5t-171 -68.5q-104 0 -170 68.5t-66 177.5v234q0 109 66 177.5t170 68.5q103 0 169 -67t68 -173z
M223 -281h-23l84 207h23z" />
    <glyph glyph-name="gcommaaccent" unicode="&#x123;" horiz-adv-x="552" 
d="M275 635h-23l84 207h23zM269 -10q-101 0 -157.5 60.5t-56.5 165.5v133q0 102 56.5 162t157.5 60q70 0 121 -31t72 -86v108h20v-562q0 -108 -46.5 -159t-165.5 -51q-208 0 -208 169h20q0 -149 188 -149q107 0 149.5 46t42.5 144v108q-50 -118 -193 -118zM269 10
q89 0 141 52.5t52 143.5v152q0 88 -52 140.5t-141 52.5q-92 0 -143 -54.5t-51 -147.5v-133q0 -96 51 -151t143 -55z" />
    <glyph glyph-name="Hcircumflex" unicode="&#x124;" horiz-adv-x="605" 
d="M80 705h20v-337h408v337h20v-705h-20v349h-408v-349h-20v705zM321 940l156 -149h-29l-137 132l-139 -132h-29l157 149h21z" />
    <glyph glyph-name="hcircumflex" unicode="&#x125;" horiz-adv-x="558" 
d="M498 0h-20v349q0 93 -51 147.5t-143 54.5q-89 0 -141.5 -52.5t-52.5 -140.5v-358h-20v746h20v-292q24 56 74 86.5t120 30.5q101 0 157.5 -60t56.5 -162v-349zM271 967l156 -149h-29l-137 132l-139 -132h-29l157 149h21z" />
    <glyph glyph-name="Hbar" unicode="&#x126;" horiz-adv-x="605" 
d="M80 560v145h20v-145h408v145h20v-145h76v-20h-76v-540h-20v349h-408v-349h-20v540h-80v20h80zM100 368h408v172h-408v-172z" />
    <glyph glyph-name="hbar" unicode="&#x127;" horiz-adv-x="558" 
d="M498 0h-20v349q0 93 -51 147.5t-143 54.5q-89 0 -141.5 -52.5t-52.5 -140.5v-358h-20v645h-66v20h66v81h20v-81h165v-20h-165v-191q24 56 74 86.5t120 30.5q101 0 157.5 -60t56.5 -162v-349z" />
    <glyph glyph-name="Itilde" unicode="&#x128;" horiz-adv-x="172" 
d="M80 705h20v-705h-20v705zM257 854v-25q-46 -42 -92 -42q-28 0 -76 20t-72 20q-44 0 -93 -43v24q47 40 93 40q28 0 76 -20t72 -20q43 0 92 46z" />
    <glyph glyph-name="itilde" unicode="&#x129;" horiz-adv-x="156" 
d="M84 0h-20v562h20v-562zM242 705v-25q-46 -42 -92 -42q-28 0 -76 20t-72 20q-44 0 -93 -43v24q47 40 93 40q28 0 76 -20t72 -20q43 0 92 46z" />
    <glyph glyph-name="Imacron" unicode="&#x12a;" horiz-adv-x="164" 
d="M80 705h20v-705h-20v705zM-48 790v20h277v-20h-277z" />
    <glyph glyph-name="imacron" unicode="&#x12b;" horiz-adv-x="148" 
d="M84 0h-20v562h20v-562zM-63 636v20h277v-20h-277z" />
    <glyph glyph-name="Ibreve" unicode="&#x12c;" horiz-adv-x="180" 
d="M80 705h20v-705h-20v705zM-44 935h20v-12q0 -51 30 -81t84 -30t84 28t30 81v14h20v-14q0 -62 -35.5 -95.5t-98.5 -33.5t-98.5 35.5t-35.5 95.5v12z" />
    <glyph glyph-name="ibreve" unicode="&#x12d;" horiz-adv-x="153" 
d="M84 0h-20v562h20v-562zM-60 783h20v-12q0 -51 30 -81t84 -30t84 28t30 81v14h20v-14q0 -62 -35.5 -95.5t-98.5 -33.5t-98.5 35.5t-35.5 95.5v12z" />
    <glyph glyph-name="Iogonek" unicode="&#x12e;" horiz-adv-x="180" 
d="M100 0q-4 -34 -4 -51q0 -85 86 -85q26 0 58 7v-20q-32 -7 -58 -7q-106 0 -106 105q0 28 4 51v705h20v-705z" />
    <glyph glyph-name="iogonek" unicode="&#x12f;" horiz-adv-x="148" 
d="M84 0q-4 -34 -4 -51q0 -85 86 -85q26 0 58 7v-20q-32 -7 -58 -7q-106 0 -106 105q0 28 4 51v562h20v-562zM93 690q0 -8 -5.5 -13.5t-13.5 -5.5t-13.5 5.5t-5.5 13.5t5.5 13.5t13.5 5.5q19 0 19 -19z" />
    <glyph glyph-name="Idotaccent" unicode="&#x130;" horiz-adv-x="179" 
d="M80 705h20v-705h-20v705zM109 814q0 -8 -5.5 -13.5t-13.5 -5.5t-13.5 5.5t-5.5 13.5t5.5 13.5t13.5 5.5q19 0 19 -19z" />
    <glyph glyph-name="dotlessi" unicode="&#x131;" horiz-adv-x="148" 
d="M84 0h-20v562h20v-562z" />
    <glyph glyph-name="Jcircumflex" unicode="&#x134;" horiz-adv-x="562" 
d="M40 265h20v-29q0 -102 52 -164t145 -62q94 0 145.5 62t51.5 164v469h20v-469q0 -111 -57 -178.5t-160 -67.5q-102 0 -159.5 67.5t-57.5 178.5v29zM336 940l156 -149h-29l-137 132l-139 -132h-29l157 149h21z" />
    <glyph glyph-name="jcircumflex" unicode="&#x135;" horiz-adv-x="160" 
d="M-81 -206v20q93 0 122 46t29 166v536h20v-536q0 -132 -33 -182t-138 -50zM90 789l156 -149h-29l-137 132l-139 -132h-29l157 149h21z" />
    <glyph glyph-name="Kcommaaccent" unicode="&#x136;" horiz-adv-x="555" 
d="M100 349v-349h-20v705h20v-336h80l317 336h28l-328 -345l328 -360h-28l-317 349h-80zM234 -281h-23l84 207h23z" />
    <glyph glyph-name="kcommaaccent" unicode="&#x137;" horiz-adv-x="491" 
d="M464 0h-31l-279 274h-64v-273h-20v745h20v-452h64l276 268h30l-287 -278zM187 -281h-23l84 207h23z" />
    <glyph glyph-name="kgreenlandic" unicode="&#x138;" horiz-adv-x="491" 
d="M464 0h-31l-279 274h-64v-273h-20v561h20v-268h64l276 268h30l-287 -278z" />
    <glyph glyph-name="Lacute" unicode="&#x139;" horiz-adv-x="479" 
d="M80 705h20v-685h349v-20h-369v705zM119 780h-21l88 157h21z" />
    <glyph glyph-name="lacute" unicode="&#x13a;" horiz-adv-x="164" 
d="M70 746h20v-746h-20v746zM94 832h-21l88 157h21z" />
    <glyph glyph-name="Lcommaaccent" unicode="&#x13b;" horiz-adv-x="479" 
d="M80 705h20v-685h349v-20h-369v705zM184 -281h-23l84 207h23z" />
    <glyph glyph-name="lcommaaccent" unicode="&#x13c;" horiz-adv-x="164" 
d="M70 746h20v-746h-20v746zM19 -281h-23l84 207h23z" />
    <glyph glyph-name="Lcaron" unicode="&#x13d;" horiz-adv-x="479" 
d="M80 705h20v-685h349v-20h-369v705zM247 382h-23l132 322h23z" />
    <glyph glyph-name="lcaron" unicode="&#x13e;" horiz-adv-x="270" 
d="M70 746h20v-746h-20v746zM171 423h-23l132 322h23z" />
    <glyph glyph-name="Ldot" unicode="&#x13f;" horiz-adv-x="469" 
d="M80 705h20v-685h349v-20h-369v705zM313 333q0 -8 -5.5 -13.5t-13.5 -5.5t-13.5 6t-5.5 13q0 8 5.5 13.5t13.5 5.5q19 0 19 -19z" />
    <glyph glyph-name="ldot" unicode="&#x140;" horiz-adv-x="219" 
d="M70 746h20v-746h-20v746zM187 283q0 -6 -5 -11t-12 -5t-11.5 5t-4.5 11q0 17 16 17q17 0 17 -17z" />
    <glyph glyph-name="Lslash" unicode="&#x141;" horiz-adv-x="469" 
d="M1 329l79 27v349h20v-342l82 29v-21l-82 -29v-322h349v-20h-369v335l-79 -27v21z" />
    <glyph glyph-name="lslash" unicode="&#x142;" horiz-adv-x="160" 
d="M70 746h20v-455h69v-20h-69v-271h-20v271h-70v20h70v455z" />
    <glyph glyph-name="Nacute" unicode="&#x143;" horiz-adv-x="637" 
d="M557 0h-16l-441 662v-662h-20v705h15l442 -663v663h20v-705zM333 789h-21l88 157h21z" />
    <glyph glyph-name="nacute" unicode="&#x144;" horiz-adv-x="558" 
d="M498 0h-20v349q0 93 -51 147.5t-143 54.5q-89 0 -141.5 -52.5t-52.5 -140.5v-358h-20v562h20v-108q24 56 74 86.5t120 30.5q101 0 157.5 -60t56.5 -162v-349zM275 640h-21l88 157h21z" />
    <glyph glyph-name="Ncommaaccent" unicode="&#x145;" horiz-adv-x="637" 
d="M557 0h-16l-441 662v-662h-20v705h15l442 -663v663h20v-705zM261 -281h-23l84 207h23z" />
    <glyph glyph-name="ncommaaccent" unicode="&#x146;" horiz-adv-x="558" 
d="M498 0h-20v349q0 93 -51 147.5t-143 54.5q-89 0 -141.5 -52.5t-52.5 -140.5v-358h-20v562h20v-108q24 56 74 86.5t120 30.5q101 0 157.5 -60t56.5 -162v-349zM207 -281h-23l84 207h23z" />
    <glyph glyph-name="Ncaron" unicode="&#x147;" horiz-adv-x="637" 
d="M557 0h-16l-441 662v-662h-20v705h15l442 -663v663h20v-705zM485 940l-156 -149h-21l-157 149h29l139 -132l137 132h29z" />
    <glyph glyph-name="ncaron" unicode="&#x148;" horiz-adv-x="558" 
d="M498 0h-20v349q0 93 -51 147.5t-143 54.5q-89 0 -141.5 -52.5t-52.5 -140.5v-358h-20v562h20v-108q24 56 74 86.5t120 30.5q101 0 157.5 -60t56.5 -162v-349zM445 789l-156 -149h-21l-157 149h29l139 -132l137 132h29z" />
    <glyph glyph-name="Eng" unicode="&#x14a;" horiz-adv-x="637" 
d="M386 -206v20q89 0 119 42t32 150l-437 656v-662h-20v705h15l442 -663v663h20v-703q-2 -116 -36.5 -162t-134.5 -46z" />
    <glyph glyph-name="eng" unicode="&#x14b;" horiz-adv-x="559" 
d="M328 -206v20q88 0 119.5 41.5t31.5 144.5v349q0 93 -51.5 147.5t-143.5 54.5q-89 0 -141.5 -52.5t-52.5 -140.5v-358h-20v562h20v-108q24 56 74 86.5t120 30.5q101 0 158 -60t57 -162v-323q0 -132 -33 -182t-138 -50z" />
    <glyph glyph-name="Omacron" unicode="&#x14c;" horiz-adv-x="594" 
d="M297 -7q-105 0 -171 68.5t-66 177.5v230q0 109 66 177.5t171 68.5q104 0 170.5 -68.5t66.5 -177.5v-230q0 -109 -66.5 -177.5t-170.5 -68.5zM297 13q95 0 156 63t61 163v230q0 100 -61 163t-156 63q-96 0 -156.5 -63t-60.5 -163v-230q0 -100 60.5 -163t156.5 -63z
M155 790v20h277v-20h-277z" />
    <glyph glyph-name="omacron" unicode="&#x14d;" horiz-adv-x="537" 
d="M269 -9q-101 0 -157.5 60.5t-56.5 165.5v129q0 102 56.5 162t157.5 60q99 0 156 -60t57 -162v-129q0 -105 -57 -165.5t-156 -60.5zM269 11q90 0 141.5 55t51.5 151v129q0 93 -51.5 147.5t-141.5 54.5q-92 0 -143 -54.5t-51 -147.5v-129q0 -96 51 -151t143 -55zM125 638
v20h277v-20h-277z" />
    <glyph glyph-name="Obreve" unicode="&#x14e;" horiz-adv-x="594" 
d="M297 -7q-105 0 -171 68.5t-66 177.5v230q0 109 66 177.5t171 68.5q104 0 170.5 -68.5t66.5 -177.5v-230q0 -109 -66.5 -177.5t-170.5 -68.5zM297 13q95 0 156 63t61 163v230q0 100 -61 163t-156 63q-96 0 -156.5 -63t-60.5 -163v-230q0 -100 60.5 -163t156.5 -63z
M164 938h20v-12q0 -51 30 -81t84 -30t84 28t30 81v14h20v-14q0 -62 -35.5 -95.5t-98.5 -33.5t-98.5 35.5t-35.5 95.5v12z" />
    <glyph glyph-name="obreve" unicode="&#x14f;" horiz-adv-x="537" 
d="M269 -9q-101 0 -157.5 60.5t-56.5 165.5v129q0 102 56.5 162t157.5 60q99 0 156 -60t57 -162v-129q0 -105 -57 -165.5t-156 -60.5zM269 11q90 0 141.5 55t51.5 151v129q0 93 -51.5 147.5t-141.5 54.5q-92 0 -143 -54.5t-51 -147.5v-129q0 -96 51 -151t143 -55zM126 783
h20v-12q0 -51 30 -81t84 -30t84 28t30 81v14h20v-14q0 -62 -35.5 -95.5t-98.5 -33.5t-98.5 35.5t-35.5 95.5v12z" />
    <glyph glyph-name="Ohungarumlaut" unicode="&#x150;" horiz-adv-x="594" 
d="M297 -7q-105 0 -171 68.5t-66 177.5v230q0 109 66 177.5t171 68.5q104 0 170.5 -68.5t66.5 -177.5v-230q0 -109 -66.5 -177.5t-170.5 -68.5zM297 13q95 0 156 63t61 163v230q0 100 -61 163t-156 63q-96 0 -156.5 -63t-60.5 -163v-230q0 -100 60.5 -163t156.5 -63z
M359 779h-23l88 157h23zM246 779h-23l88 157h23z" />
    <glyph glyph-name="ohungarumlaut" unicode="&#x151;" horiz-adv-x="537" 
d="M269 -9q-101 0 -157.5 60.5t-56.5 165.5v129q0 102 56.5 162t157.5 60q99 0 156 -60t57 -162v-129q0 -105 -57 -165.5t-156 -60.5zM269 11q90 0 141.5 55t51.5 151v129q0 93 -51.5 147.5t-141.5 54.5q-92 0 -143 -54.5t-51 -147.5v-129q0 -96 51 -151t143 -55zM328 633
h-23l88 157h23zM215 633h-23l88 157h23z" />
    <glyph glyph-name="OE" unicode="&#x152;" horiz-adv-x="960" 
d="M534 349v-329h371v-20h-391v137q-25 -67 -82.5 -105.5t-134.5 -38.5q-105 0 -171 68.5t-66 177.5v230q0 109 66 177.5t171 68.5q77 0 134.5 -39.5t82.5 -107.5v137h391v-20h-371v-316h263v-20h-263zM297 13q94 0 155.5 60.5t61.5 155.5v240q0 100 -61 163t-156 63
q-96 0 -156.5 -63t-60.5 -163v-230q0 -100 60.5 -163t156.5 -63z" />
    <glyph glyph-name="oe" unicode="&#x153;" horiz-adv-x="939" 
d="M889 352v-71h-407v-75q0 -90 52 -143t142 -53q89 0 141 50t52 123v4h20v-4q0 -81 -58 -137t-155 -56q-80 0 -133 38.5t-72 107.5q-19 -69 -71.5 -107t-130.5 -38q-101 0 -157.5 60.5t-56.5 165.5v129q0 102 56.5 162t157.5 60q78 0 130.5 -38t71.5 -106q19 70 72 109
t133 39q101 0 157 -58t56 -162zM269 11q89 0 141 52.5t52 143.5v148q0 89 -52 141t-141 52q-92 0 -143 -54.5t-51 -147.5v-129q0 -96 51 -151t143 -55zM482 347v-46h387v51q0 95 -50.5 147.5t-142.5 52.5q-89 0 -140.5 -52.5t-53.5 -143.5v-9z" />
    <glyph glyph-name="Racute" unicode="&#x154;" horiz-adv-x="559" 
d="M270 245h-170v-245h-20v705h196q107 0 171.5 -57t64.5 -159v-32q0 -97 -58.5 -152t-156.5 -60l215 -245h-27zM100 685v-420h176q98 0 157 50t59 142v32q0 93 -59 144.5t-157 51.5h-176zM251 789h-21l88 157h21z" />
    <glyph glyph-name="racute" unicode="&#x155;" horiz-adv-x="324" 
d="M284 571v-20q-89 0 -141.5 -52.5t-52.5 -140.5v-358h-20v562h20v-108q24 56 74 86.5t120 30.5zM139 640h-21l88 157h21z" />
    <glyph glyph-name="Rcommaaccent" unicode="&#x156;" horiz-adv-x="559" 
d="M270 245h-170v-245h-20v705h196q107 0 171.5 -57t64.5 -159v-32q0 -97 -58.5 -152t-156.5 -60l215 -245h-27zM100 685v-420h176q98 0 157 50t59 142v32q0 93 -59 144.5t-157 51.5h-176zM231 -281h-23l84 207h23z" />
    <glyph glyph-name="rcommaaccent" unicode="&#x157;" horiz-adv-x="324" 
d="M284 571v-20q-89 0 -141.5 -52.5t-52.5 -140.5v-358h-20v562h20v-108q24 56 74 86.5t120 30.5zM27 -281h-23l84 207h23z" />
    <glyph glyph-name="Rcaron" unicode="&#x158;" horiz-adv-x="559" 
d="M270 245h-170v-245h-20v705h196q107 0 171.5 -57t64.5 -159v-32q0 -97 -58.5 -152t-156.5 -60l215 -245h-27zM100 685v-420h176q98 0 157 50t59 142v32q0 93 -59 144.5t-157 51.5h-176zM436 940l-156 -149h-21l-157 149h29l139 -132l137 132h29z" />
    <glyph glyph-name="rcaron" unicode="&#x159;" horiz-adv-x="321" 
d="M284 571v-20q-89 0 -141.5 -52.5t-52.5 -140.5v-358h-20v562h20v-108q24 56 74 86.5t120 30.5zM349 791l-156 -149h-21l-157 149h29l139 -132l137 132h29z" />
    <glyph glyph-name="Sacute" unicode="&#x15a;" horiz-adv-x="581" 
d="M517 479h-20q0 105 -57.5 161.5t-146.5 56.5q-90 0 -145.5 -41t-55.5 -122q0 -44 18 -76t51.5 -51.5t67.5 -30t79 -17.5q45 -8 79 -18.5t67.5 -30.5t51.5 -53t18 -78q0 -94 -62.5 -142.5t-169.5 -48.5q-106 0 -169 63t-63 187h20q0 -113 57.5 -171.5t154.5 -58.5
q98 0 155 43t57 128q0 40 -17 70t-48.5 47.5t-62.5 27t-72 16.5q-49 8 -84.5 19.5t-72 32.5t-56 57t-19.5 85q0 90 61.5 136.5t159.5 46.5t161 -60t63 -178zM306 789h-21l88 157h21z" />
    <glyph glyph-name="sacute" unicode="&#x15b;" horiz-adv-x="507" 
d="M456 372h-20q0 89 -47.5 136t-140.5 47q-84 0 -128.5 -35t-44.5 -98q0 -30 11.5 -52t26.5 -35t45 -24t50.5 -15.5t59.5 -11.5q40 -7 61 -12t51 -16t44.5 -24t26 -36t11.5 -53q0 -75 -52 -115.5t-153 -40.5t-156.5 56.5t-55.5 153.5h20q0 -88 50 -139t142 -51t138.5 35
t46.5 101q0 25 -10.5 44.5t-24 31t-40.5 21t-47 14t-56 10.5q-43 8 -64.5 13t-54.5 17t-49 27t-28.5 41t-12.5 60q0 72 50 112.5t143 40.5q102 0 155 -52.5t53 -150.5zM253 640h-21l88 157h21z" />
    <glyph glyph-name="Scircumflex" unicode="&#x15c;" horiz-adv-x="581" 
d="M517 479h-20q0 105 -57.5 161.5t-146.5 56.5q-90 0 -145.5 -41t-55.5 -122q0 -44 18 -76t51.5 -51.5t67.5 -30t79 -17.5q45 -8 79 -18.5t67.5 -30.5t51.5 -53t18 -78q0 -94 -62.5 -142.5t-169.5 -48.5q-106 0 -169 63t-63 187h20q0 -113 57.5 -171.5t154.5 -58.5
q98 0 155 43t57 128q0 40 -17 70t-48.5 47.5t-62.5 27t-72 16.5q-49 8 -84.5 19.5t-72 32.5t-56 57t-19.5 85q0 90 61.5 136.5t159.5 46.5t161 -60t63 -178zM307 940l156 -149h-29l-137 132l-139 -132h-29l157 149h21z" />
    <glyph glyph-name="scircumflex" unicode="&#x15d;" horiz-adv-x="507" 
d="M456 372h-20q0 89 -47.5 136t-140.5 47q-84 0 -128.5 -35t-44.5 -98q0 -30 11.5 -52t26.5 -35t45 -24t50.5 -15.5t59.5 -11.5q40 -7 61 -12t51 -16t44.5 -24t26 -36t11.5 -53q0 -75 -52 -115.5t-153 -40.5t-156.5 56.5t-55.5 153.5h20q0 -88 50 -139t142 -51t138.5 35
t46.5 101q0 25 -10.5 44.5t-24 31t-40.5 21t-47 14t-56 10.5q-43 8 -64.5 13t-54.5 17t-49 27t-28.5 41t-12.5 60q0 72 50 112.5t143 40.5q102 0 155 -52.5t53 -150.5zM269 790l156 -149h-29l-137 132l-139 -132h-29l157 149h21z" />
    <glyph glyph-name="Scedilla" unicode="&#x15e;" horiz-adv-x="584" 
d="M517 479h-20q0 105 -57.5 161.5t-146.5 56.5q-90 0 -145.5 -41t-55.5 -122q0 -44 18 -76t51.5 -51.5t67.5 -30t79 -17.5q45 -8 79 -18.5t67.5 -30.5t51.5 -53t18 -78q0 -92 -59 -140t-160 -51l-69 -124h-23l69 124q-103 3 -162.5 65.5t-59.5 184.5h20q0 -113 57.5 -171.5
t154.5 -58.5q98 0 155 43t57 128q0 40 -17 70t-48.5 47.5t-62.5 27t-72 16.5q-49 8 -84.5 19.5t-72 32.5t-56 57t-19.5 85q0 90 61.5 136.5t159.5 46.5t161 -60t63 -178z" />
    <glyph glyph-name="scedilla" unicode="&#x15f;" horiz-adv-x="507" 
d="M456 372h-20q0 89 -47.5 136t-140.5 47q-84 0 -128.5 -35t-44.5 -98q0 -30 11.5 -52t26.5 -35t45 -24t50.5 -15.5t59.5 -11.5q40 -7 61 -12t51 -16t44.5 -24t26 -36t11.5 -53q0 -73 -49.5 -113.5t-145.5 -42.5l-67 -123h-23l67 123q-95 4 -147 60t-52 150h20
q0 -88 50 -139t142 -51t138.5 35t46.5 101q0 25 -10.5 44.5t-24 31t-40.5 21t-47 14t-56 10.5q-43 8 -64.5 13t-54.5 17t-49 27t-28.5 41t-12.5 60q0 72 50 112.5t143 40.5q102 0 155 -52.5t53 -150.5z" />
    <glyph glyph-name="Scaron" unicode="&#x160;" horiz-adv-x="581" 
d="M517 479h-20q0 105 -57.5 161.5t-146.5 56.5q-90 0 -145.5 -41t-55.5 -122q0 -44 18 -76t51.5 -51.5t67.5 -30t79 -17.5q45 -8 79 -18.5t67.5 -30.5t51.5 -53t18 -78q0 -94 -62.5 -142.5t-169.5 -48.5q-106 0 -169 63t-63 187h20q0 -113 57.5 -171.5t154.5 -58.5
q98 0 155 43t57 128q0 40 -17 70t-48.5 47.5t-62.5 27t-72 16.5q-49 8 -84.5 19.5t-72 32.5t-56 57t-19.5 85q0 90 61.5 136.5t159.5 46.5t161 -60t63 -178zM465 940l-156 -149h-21l-157 149h29l139 -132l137 132h29z" />
    <glyph glyph-name="scaron" unicode="&#x161;" horiz-adv-x="507" 
d="M456 372h-20q0 89 -47.5 136t-140.5 47q-84 0 -128.5 -35t-44.5 -98q0 -30 11.5 -52t26.5 -35t45 -24t50.5 -15.5t59.5 -11.5q40 -7 61 -12t51 -16t44.5 -24t26 -36t11.5 -53q0 -75 -52 -115.5t-153 -40.5t-156.5 56.5t-55.5 153.5h20q0 -88 50 -139t142 -51t138.5 35
t46.5 101q0 25 -10.5 44.5t-24 31t-40.5 21t-47 14t-56 10.5q-43 8 -64.5 13t-54.5 17t-49 27t-28.5 41t-12.5 60q0 72 50 112.5t143 40.5q102 0 155 -52.5t53 -150.5zM425 790l-156 -149h-21l-157 149h29l139 -132l137 132h29z" />
    <glyph glyph-name="Tcommaaccent" unicode="&#x162;" 
d="M275 0h-20v685h-220v20h462v-20h-222v-685zM192 -281h-23l84 207h23z" />
    <glyph glyph-name="tcommaaccent" unicode="&#x163;" horiz-adv-x="335" 
d="M294 561v-20h-193v-330q0 -105 28 -152t118 -47q22 0 46 3l2 -20q-25 -3 -48 -3q-54 0 -88 14t-50.5 45t-22 67t-5.5 93v330h-71v20h71v108h20v-108h193zM119 -281h-23l84 207h23z" />
    <glyph glyph-name="Tcaron" unicode="&#x164;" 
d="M275 0h-20v685h-220v20h462v-20h-222v-685zM432 940l-156 -149h-21l-157 149h29l139 -132l137 132h29z" />
    <glyph glyph-name="tcaron" unicode="&#x165;" horiz-adv-x="335" 
d="M183 631h-23l84 207h23zM294 561v-20h-193v-330q0 -105 28 -152t118 -47q22 0 46 3l2 -20q-25 -3 -48 -3q-54 0 -88 14t-50.5 45t-22 67t-5.5 93v330h-71v20h71v108h20v-108h193z" />
    <glyph glyph-name="Tbar" unicode="&#x166;" 
d="M255 364v321h-220v20h462v-20h-222v-321h93v-20h-93v-344h-20v344h-96v20h96z" />
    <glyph glyph-name="tbar" unicode="&#x167;" horiz-adv-x="335" 
d="M294 561v-20h-193v-241h185v-20h-185v-69q0 -105 28 -152t118 -47q22 0 46 3l2 -20q-25 -3 -48 -3q-54 0 -88 14t-50.5 45t-22 67t-5.5 93v69h-70v20h70v241h-71v20h71v108h20v-108h193z" />
    <glyph glyph-name="Utilde" unicode="&#x168;" horiz-adv-x="614" 
d="M70 705h20v-466q0 -100 61 -163t156 -63t156 63t61 163v466h20v-466q0 -109 -66.5 -177.5t-170.5 -68.5t-170.5 68.5t-66.5 177.5v466zM472 854v-25q-46 -42 -92 -42q-28 0 -76 20t-72 20q-44 0 -93 -43v24q47 40 93 40q28 0 76 -20t72 -20q43 0 92 46z" />
    <glyph glyph-name="utilde" unicode="&#x169;" horiz-adv-x="548" 
d="M60 562h20v-370q0 -80 54 -131t140 -51t140 51t54 131v370h20v-370q0 -89 -59.5 -145.5t-154.5 -56.5t-154.5 56.5t-59.5 145.5v370zM439 703v-25q-46 -42 -92 -42q-28 0 -76 20t-72 20q-44 0 -93 -43v24q47 40 93 40q28 0 76 -20t72 -20q43 0 92 46z" />
    <glyph glyph-name="Umacron" unicode="&#x16a;" horiz-adv-x="614" 
d="M70 705h20v-466q0 -100 61 -163t156 -63t156 63t61 163v466h20v-466q0 -109 -66.5 -177.5t-170.5 -68.5t-170.5 68.5t-66.5 177.5v466zM171 790v20h277v-20h-277z" />
    <glyph glyph-name="umacron" unicode="&#x16b;" horiz-adv-x="548" 
d="M60 562h20v-370q0 -80 54 -131t140 -51t140 51t54 131v370h20v-370q0 -89 -59.5 -145.5t-154.5 -56.5t-154.5 56.5t-59.5 145.5v370zM132 640v20h277v-20h-277z" />
    <glyph glyph-name="Ubreve" unicode="&#x16c;" horiz-adv-x="614" 
d="M70 705h20v-466q0 -100 61 -163t156 -63t156 63t61 163v466h20v-466q0 -109 -66.5 -177.5t-170.5 -68.5t-170.5 68.5t-66.5 177.5v466zM171 935h20v-12q0 -51 30 -81t84 -30t84 28t30 81v14h20v-14q0 -62 -35.5 -95.5t-98.5 -33.5t-98.5 35.5t-35.5 95.5v12z" />
    <glyph glyph-name="ubreve" unicode="&#x16d;" horiz-adv-x="548" 
d="M60 562h20v-370q0 -80 54 -131t140 -51t140 51t54 131v370h20v-370q0 -89 -59.5 -145.5t-154.5 -56.5t-154.5 56.5t-59.5 145.5v370zM138 786h20v-12q0 -51 30 -81t84 -30t84 28t30 81v14h20v-14q0 -62 -35.5 -95.5t-98.5 -33.5t-98.5 35.5t-35.5 95.5v12z" />
    <glyph glyph-name="Uring" unicode="&#x16e;" horiz-adv-x="614" 
d="M70 705h20v-466q0 -100 61 -163t156 -63t156 63t61 163v466h20v-466q0 -109 -66.5 -177.5t-170.5 -68.5t-170.5 68.5t-66.5 177.5v466zM309 808q17 0 29 12t12 30q0 17 -12 29t-29 12t-29 -12t-12 -29q0 -18 12 -30t29 -12zM309 788q-26 0 -43.5 18t-17.5 44t17.5 43.5
t43.5 17.5t43.5 -17.5t17.5 -43.5t-17.5 -44t-43.5 -18z" />
    <glyph glyph-name="uring" unicode="&#x16f;" horiz-adv-x="548" 
d="M60 562h20v-370q0 -80 54 -131t140 -51t140 51t54 131v370h20v-370q0 -89 -59.5 -145.5t-154.5 -56.5t-154.5 56.5t-59.5 145.5v370zM270 658q17 0 29 12t12 30q0 17 -12 29t-29 12t-29 -12t-12 -29q0 -18 12 -30t29 -12zM270 638q-26 0 -43.5 18t-17.5 44t17.5 43.5
t43.5 17.5t43.5 -17.5t17.5 -43.5t-17.5 -44t-43.5 -18z" />
    <glyph glyph-name="Uhungarumlaut" unicode="&#x170;" horiz-adv-x="614" 
d="M70 705h20v-466q0 -100 61 -163t156 -63t156 63t61 163v466h20v-466q0 -109 -66.5 -177.5t-170.5 -68.5t-170.5 68.5t-66.5 177.5v466zM375 779h-23l88 157h23zM262 779h-23l88 157h23z" />
    <glyph glyph-name="uhungarumlaut" unicode="&#x171;" horiz-adv-x="548" 
d="M60 562h20v-370q0 -80 54 -131t140 -51t140 51t54 131v370h20v-370q0 -89 -59.5 -145.5t-154.5 -56.5t-154.5 56.5t-59.5 145.5v370zM338 635h-23l88 157h23zM225 635h-23l88 157h23z" />
    <glyph glyph-name="Uogonek" unicode="&#x172;" horiz-adv-x="614" 
d="M70 705h20v-466q0 -100 61 -163t156 -63t156 63t61 163v466h20v-466q0 -106 -64 -174.5t-165 -71.5q-3 -22 -3 -44q0 -85 86 -85q26 0 58 7v-20q-32 -7 -58 -7q-106 0 -106 105q0 22 3 44q-100 5 -162.5 73t-62.5 173v466z" />
    <glyph glyph-name="uogonek" unicode="&#x173;" horiz-adv-x="548" 
d="M60 562h20v-370q0 -80 54 -131t140 -51t140 51t54 131v370h20v-370q0 -87 -56.5 -142.5t-147.5 -59.5q-3 -21 -3 -41q0 -85 86 -85q26 0 58 7v-20q-32 -7 -58 -7q-106 0 -106 105q0 20 3 41q-91 3 -147.5 59t-56.5 143v370z" />
    <glyph glyph-name="Wcircumflex" unicode="&#x174;" horiz-adv-x="840" 
d="M243 0h-16l-207 705h22l193 -658l176 658h18l176 -658l193 658h22l-208 -705h-15l-177 656zM431 940l156 -149h-29l-137 132l-139 -132h-29l157 149h21z" />
    <glyph glyph-name="wcircumflex" unicode="&#x175;" horiz-adv-x="754" 
d="M386 562l157 -519l171 519h20l-186 -562h-14l-157 520l-158 -520h-15l-184 562h22l170 -517l156 517h18zM388 790l156 -149h-29l-137 132l-139 -132h-29l157 149h21z" />
    <glyph glyph-name="Ycircumflex" unicode="&#x176;" horiz-adv-x="587" 
d="M20 705h22l251 -401l252 401h22l-264 -421v-284h-20v284zM305 940l156 -149h-29l-137 132l-139 -132h-29l157 149h21z" />
    <glyph glyph-name="ycircumflex" unicode="&#x177;" horiz-adv-x="537" 
d="M200 -179h-22l78 186l-231 555h21l222 -532l222 532h22zM286 790l156 -149h-29l-137 132l-139 -132h-29l157 149h21z" />
    <glyph glyph-name="Ydieresis" unicode="&#x178;" horiz-adv-x="587" 
d="M20 705h22l251 -401l252 401h22l-264 -421v-284h-20v284zM378 811q0 -8 -5.5 -13.5t-13.5 -5.5q-7 0 -13 6t-6 13q0 8 5.5 13.5t13.5 5.5q19 0 19 -19zM244 811q0 -8 -5.5 -13.5t-13.5 -5.5q-7 0 -13 6t-6 13q0 8 5.5 13.5t13.5 5.5q19 0 19 -19z" />
    <glyph glyph-name="Zacute" unicode="&#x179;" horiz-adv-x="536" 
d="M52 685v20h439l-425 -685h407v-20h-443l425 685h-403zM255 789h-21l88 157h21z" />
    <glyph glyph-name="zacute" unicode="&#x17a;" horiz-adv-x="482" 
d="M35 542v20h407l-375 -542h353v-20h-390l375 542h-370zM209 638h-21l88 157h21z" />
    <glyph glyph-name="Zdotaccent" unicode="&#x17b;" horiz-adv-x="536" 
d="M52 685v20h439l-425 -685h407v-20h-443l425 685h-403zM284 814q0 -8 -5.5 -13.5t-13.5 -5.5q-7 0 -13 5.5t-6 13.5t5.5 13.5t13.5 5.5q19 0 19 -19z" />
    <glyph glyph-name="zdotaccent" unicode="&#x17c;" horiz-adv-x="482" 
d="M35 542v20h407l-375 -542h353v-20h-390l375 542h-370zM259 662q0 -8 -5.5 -13.5t-13.5 -5.5t-13.5 5.5t-5.5 13.5t5.5 13.5t13.5 5.5q19 0 19 -19z" />
    <glyph glyph-name="Zcaron" unicode="&#x17d;" horiz-adv-x="536" 
d="M52 685v20h439l-425 -685h407v-20h-443l425 685h-403zM443 940l-156 -149h-21l-157 149h29l139 -132l137 132h29z" />
    <glyph glyph-name="zcaron" unicode="&#x17e;" horiz-adv-x="482" 
d="M35 542v20h407l-375 -542h353v-20h-390l375 542h-370zM402 789l-156 -149h-21l-157 149h29l139 -132l137 132h29z" />
    <glyph glyph-name="florin" unicode="&#x192;" horiz-adv-x="340" 
d="M40 -206v20q19 0 33.5 5t24 12t16 23t9.5 27.5t5 38t2 41.5v50v15v515h-71v20h71q0 113 30 154.5t110 41.5q20 0 30 -1v-19q-10 1 -30 1q-69 0 -94.5 -37.5t-25.5 -139.5h149v-20h-149v-515q0 -50 -0.5 -72.5t-3.5 -55t-9.5 -46.5t-19 -30t-31.5 -21.5t-46 -6.5z" />
    <glyph glyph-name="Scommaaccent" unicode="&#x218;" horiz-adv-x="581" 
d="M517 479h-20q0 105 -57.5 161.5t-146.5 56.5q-90 0 -145.5 -41t-55.5 -122q0 -44 18 -76t51.5 -51.5t67.5 -30t79 -17.5q45 -8 79 -18.5t67.5 -30.5t51.5 -53t18 -78q0 -94 -62.5 -142.5t-169.5 -48.5q-106 0 -169 63t-63 187h20q0 -113 57.5 -171.5t154.5 -58.5
q98 0 155 43t57 128q0 40 -17 70t-48.5 47.5t-62.5 27t-72 16.5q-49 8 -84.5 19.5t-72 32.5t-56 57t-19.5 85q0 90 61.5 136.5t159.5 46.5t161 -60t63 -178zM208 -281h-23l84 207h23z" />
    <glyph glyph-name="scommaaccent" unicode="&#x219;" horiz-adv-x="507" 
d="M456 372h-20q0 89 -47.5 136t-140.5 47q-84 0 -128.5 -35t-44.5 -98q0 -30 11.5 -52t26.5 -35t45 -24t50.5 -15.5t59.5 -11.5q40 -7 61 -12t51 -16t44.5 -24t26 -36t11.5 -53q0 -75 -52 -115.5t-153 -40.5t-156.5 56.5t-55.5 153.5h20q0 -88 50 -139t142 -51t138.5 35
t46.5 101q0 25 -10.5 44.5t-24 31t-40.5 21t-47 14t-56 10.5q-43 8 -64.5 13t-54.5 17t-49 27t-28.5 41t-12.5 60q0 72 50 112.5t143 40.5q102 0 155 -52.5t53 -150.5zM181 -281h-23l84 207h23z" />
    <glyph glyph-name="circumflex" unicode="&#x2c6;" horiz-adv-x="592" 
d="M307 740l156 -149h-29l-137 132l-139 -132h-29l157 149h21z" />
    <glyph glyph-name="caron" unicode="&#x2c7;" horiz-adv-x="592" 
d="M463 740l-156 -149h-21l-157 149h29l139 -132l137 132h29z" />
    <glyph glyph-name="breve" unicode="&#x2d8;" horiz-adv-x="530" 
d="M131 735h20v-12q0 -51 30 -81t84 -30t84 28t30 81v14h20v-14q0 -62 -35.5 -95.5t-98.5 -33.5t-98.5 35.5t-35.5 95.5v12z" />
    <glyph glyph-name="dotaccent" unicode="&#x2d9;" horiz-adv-x="485" 
d="M262 614q0 -8 -5.5 -13.5t-13.5 -5.5q-7 0 -13 5.5t-6 13.5t5.5 13.5t13.5 5.5q19 0 19 -19z" />
    <glyph glyph-name="ring" unicode="&#x2da;" horiz-adv-x="515" 
d="M260 608q17 0 29 12t12 30q0 17 -12 29t-29 12t-29 -12t-12 -29q0 -18 12 -30t29 -12zM260 588q-26 0 -43.5 18t-17.5 44t17.5 43.5t43.5 17.5t43.5 -17.5t17.5 -43.5t-17.5 -44t-43.5 -18z" />
    <glyph glyph-name="ogonek" unicode="&#x2db;" horiz-adv-x="536" 
d="M279 -118v-20q-32 -7 -58 -7q-106 0 -106 105q0 23 5 51h20q-5 -28 -5 -51q0 -85 86 -85q26 0 58 7z" />
    <glyph glyph-name="tilde" unicode="&#x2dc;" horiz-adv-x="588" 
d="M460 654v-25q-46 -42 -92 -42q-28 0 -76 20t-72 20q-44 0 -93 -43v24q47 40 93 40q28 0 76 -20t72 -20q43 0 92 46z" />
    <glyph glyph-name="hungarumlaut" unicode="&#x2dd;" horiz-adv-x="474" 
d="M300 579h-23l88 157h23zM187 579h-23l88 157h23z" />
    <glyph glyph-name="pi" unicode="&#x3c0;" horiz-adv-x="668" 
d="M337 -9q-121 0 -194 71.5t-73 197.5v183q0 126 73.5 199t193.5 73q118 0 189.5 -72.5t71.5 -199.5v-183q0 -126 -71 -197.5t-190 -71.5zM337 11q110 0 175.5 66t65.5 183v183q0 118 -66 185t-175 67q-111 0 -179 -67.5t-68 -184.5v-183q0 -117 67.5 -183t179.5 -66z
M321 253h-93v-121h-20v445h99q99 0 137.5 -39t38.5 -120v-19q0 -76 -35 -111t-127 -35zM228 557v-284h79q87 0 121.5 28.5t34.5 97.5v19q0 72 -35.5 105.5t-120.5 33.5h-79z" />
    <glyph glyph-name="Bdotaccent" unicode="&#x1e02;" horiz-adv-x="565" 
d="M279 813q0 -8 -5.5 -13.5t-13.5 -5.5t-13.5 6t-5.5 13q0 8 5.5 13.5t13.5 5.5q19 0 19 -19zM80 0v705h203q112 0 169.5 -38t57.5 -133v-10q0 -136 -126 -167q132 -33 132 -163v-8q0 -99 -58 -142.5t-168 -43.5h-210zM496 194q0 75 -49.5 114.5t-135.5 39.5h-211v-328h190
q101 0 153.5 38.5t52.5 127.5v8zM100 685v-317h211q179 0 179 156v10q0 83 -52 117t-155 34h-183z" />
    <glyph glyph-name="bdotaccent" unicode="&#x1e03;" horiz-adv-x="553" 
d="M284 -10q-70 0 -120 30.5t-74 87.5v-108h-20v746h20v-292q24 56 74 86.5t120 30.5q101 0 157.5 -60t56.5 -162v-133q0 -105 -56.5 -165.5t-157.5 -60.5zM284 10q92 0 143 55t51 151v133q0 93 -51 147.5t-143 54.5q-89 0 -141.5 -52.5t-52.5 -140.5v-142q0 -96 52 -151
t142 -55zM301 663q0 -8 -5.5 -13.5t-13.5 -5.5t-13.5 6t-5.5 13q0 8 5.5 13.5t13.5 5.5q19 0 19 -19z" />
    <glyph glyph-name="Ddotaccent" unicode="&#x1e0a;" horiz-adv-x="595" 
d="M298 0h-218v705h218q108 0 172.5 -66t64.5 -191v-185q0 -126 -64.5 -194.5t-172.5 -68.5zM100 20h198q98 0 157.5 63.5t59.5 179.5v185q0 116 -59 176.5t-158 60.5h-198v-665zM314 812q0 -8 -5.5 -13.5t-13.5 -5.5q-7 0 -13 5.5t-6 13.5t5.5 13.5t13.5 5.5q19 0 19 -19z
" />
    <glyph glyph-name="ddotaccent" unicode="&#x1e0b;" horiz-adv-x="552" 
d="M269 -10q-101 0 -157.5 60.5t-56.5 165.5v133q0 102 56.5 162t157.5 60q71 0 121.5 -31t71.5 -86v292h20v-746h-20v108q-51 -118 -193 -118zM269 10q90 0 141.5 55t51.5 151v142q0 88 -52 140.5t-141 52.5q-92 0 -143 -54.5t-51 -147.5v-133q0 -96 51 -151t143 -55z
M285 663q0 -8 -5.5 -13.5t-13.5 -5.5t-13.5 6t-5.5 13q0 8 5.5 13.5t13.5 5.5q19 0 19 -19z" />
    <glyph glyph-name="Fdotaccent" unicode="&#x1e1e;" horiz-adv-x="502" 
d="M287 815q0 -8 -5.5 -13.5t-13.5 -5.5t-13.5 6t-5.5 13q0 8 5.5 13.5t13.5 5.5q19 0 19 -19zM100 349v-349h-20v705h377v-20h-357v-316h243v-20h-243z" />
    <glyph glyph-name="fdotaccent" unicode="&#x1e1f;" horiz-adv-x="321" 
d="M208 851q0 -8 -5.5 -13.5t-13.5 -5.5q-7 0 -13 6t-6 13q0 8 5.5 13.5t13.5 5.5q19 0 19 -19zM280 561v-20h-149v-541h-20v541h-71v20h71q0 112 29.5 150t110.5 38q20 0 30 -1v-19q-10 1 -30 1q-70 0 -95 -34t-25 -135h149z" />
    <glyph glyph-name="Mdotaccent" unicode="&#x1e40;" horiz-adv-x="747" 
d="M385 102h-24l-261 550v-652h-20v705h17l276 -583l278 583h16v-705h-20v653zM392 814q0 -8 -5.5 -13.5t-13.5 -5.5q-7 0 -13 5.5t-6 13.5t5.5 13.5t13.5 5.5q19 0 19 -19z" />
    <glyph glyph-name="mdotaccent" unicode="&#x1e41;" horiz-adv-x="789" 
d="M70 562h20v-83q43 92 151 92q61 0 101.5 -30.5t57.5 -85.5q17 55 58.5 85.5t101.5 30.5q80 0 124.5 -51t44.5 -138v-382h-20v382q0 78 -39 123.5t-110 45.5q-69 0 -109.5 -44t-40.5 -118v-389h-20v382q0 78 -39.5 123.5t-109.5 45.5q-69 0 -110 -44t-41 -118v-389h-20
v562zM417 663q0 -8 -5.5 -13.5t-13.5 -5.5t-13.5 6t-5.5 13q0 8 5.5 13.5t13.5 5.5q19 0 19 -19z" />
    <glyph glyph-name="Pdotaccent" unicode="&#x1e56;" horiz-adv-x="559" 
d="M276 222h-176v-222h-20v705h196q106 0 171 -61t65 -170v-25q0 -109 -64.5 -168t-171.5 -59zM100 685v-443h176q98 0 157 54t59 153v25q0 100 -59 155.5t-157 55.5h-176zM261 813q0 -8 -5.5 -13.5t-13.5 -5.5t-13.5 6t-5.5 13q0 8 5.5 13.5t13.5 5.5q19 0 19 -19z" />
    <glyph glyph-name="pdotaccent" unicode="&#x1e57;" horiz-adv-x="558" 
d="M284 569q101 0 157.5 -60.5t56.5 -165.5v-126q0 -102 -56.5 -162.5t-157.5 -60.5q-70 0 -120.5 31t-73.5 87v-293h-20v743h20v-112q24 57 74 88t120 31zM284 549q-89 0 -141.5 -53t-52.5 -144v-135q0 -93 52 -148t142 -55q92 0 143 55t51 148v126q0 96 -51 151t-143 55z
M301 662q0 -8 -5.5 -13.5t-13.5 -5.5t-13.5 5.5t-5.5 13.5t5.5 13.5t13.5 5.5q19 0 19 -19z" />
    <glyph glyph-name="Sdotaccent" unicode="&#x1e60;" horiz-adv-x="581" 
d="M517 479h-20q0 105 -57.5 161.5t-146.5 56.5q-90 0 -145.5 -41t-55.5 -122q0 -44 18 -76t51.5 -51.5t67.5 -30t79 -17.5q45 -8 79 -18.5t67.5 -30.5t51.5 -53t18 -78q0 -94 -62.5 -142.5t-169.5 -48.5q-106 0 -169 63t-63 187h20q0 -113 57.5 -171.5t154.5 -58.5
q98 0 155 43t57 128q0 40 -17 70t-48.5 47.5t-62.5 27t-72 16.5q-49 8 -84.5 19.5t-72 32.5t-56 57t-19.5 85q0 90 61.5 136.5t159.5 46.5t161 -60t63 -178zM309 811q0 -8 -5.5 -13.5t-13.5 -5.5t-13.5 6t-5.5 13q0 8 5.5 13.5t13.5 5.5q19 0 19 -19z" />
    <glyph glyph-name="sdotaccent" unicode="&#x1e61;" horiz-adv-x="507" 
d="M456 372h-20q0 89 -47.5 136t-140.5 47q-84 0 -128.5 -35t-44.5 -98q0 -30 11.5 -52t26.5 -35t45 -24t50.5 -15.5t59.5 -11.5q40 -7 61 -12t51 -16t44.5 -24t26 -36t11.5 -53q0 -75 -52 -115.5t-153 -40.5t-156.5 56.5t-55.5 153.5h20q0 -88 50 -139t142 -51t138.5 35
t46.5 101q0 25 -10.5 44.5t-24 31t-40.5 21t-47 14t-56 10.5q-43 8 -64.5 13t-54.5 17t-49 27t-28.5 41t-12.5 60q0 72 50 112.5t143 40.5q102 0 155 -52.5t53 -150.5zM263 664q0 -8 -5.5 -13.5t-13.5 -5.5t-13.5 5.5t-5.5 13.5t5.5 13.5t13.5 5.5q19 0 19 -19z" />
    <glyph glyph-name="Tdotaccent" unicode="&#x1e6a;" 
d="M275 0h-20v685h-220v20h462v-20h-222v-685zM283 814q0 -8 -5.5 -13.5t-13.5 -5.5t-13.5 5.5t-5.5 13.5t5.5 13.5t13.5 5.5q19 0 19 -19z" />
    <glyph glyph-name="tdotaccent" unicode="&#x1e6b;" horiz-adv-x="335" 
d="M294 561v-20h-193v-330q0 -105 28 -152t118 -47q22 0 46 3l2 -20q-25 -3 -48 -3q-54 0 -88 14t-50.5 45t-22 67t-5.5 93v330h-71v20h71v108h20v-108h193zM120 764q0 -8 -5.5 -13.5t-13.5 -5.5q-7 0 -13 5.5t-6 13.5t5.5 13.5t13.5 5.5q19 0 19 -19z" />
    <glyph glyph-name="Wgrave" unicode="&#x1e80;" horiz-adv-x="840" 
d="M243 0h-16l-207 705h22l193 -658l176 658h18l176 -658l193 658h22l-208 -705h-15l-177 656zM418 789h-23l-88 157h23z" />
    <glyph glyph-name="wgrave" unicode="&#x1e81;" horiz-adv-x="754" 
d="M386 562l157 -519l171 519h20l-186 -562h-14l-157 520l-158 -520h-15l-184 562h22l170 -517l156 517h18zM375 640h-23l-88 157h23z" />
    <glyph glyph-name="Wacute" unicode="&#x1e82;" horiz-adv-x="840" 
d="M243 0h-16l-207 705h22l193 -658l176 658h18l176 -658l193 658h22l-208 -705h-15l-177 656zM435 789h-21l88 157h21z" />
    <glyph glyph-name="wacute" unicode="&#x1e83;" horiz-adv-x="754" 
d="M386 562l157 -519l171 519h20l-186 -562h-14l-157 520l-158 -520h-15l-184 562h22l170 -517l156 517h18zM392 640h-21l88 157h21z" />
    <glyph glyph-name="Wdieresis" unicode="&#x1e84;" horiz-adv-x="840" 
d="M243 0h-16l-207 705h22l193 -658l176 658h18l176 -658l193 658h22l-208 -705h-15l-177 656zM506 811q0 -8 -5.5 -13.5t-13.5 -5.5q-7 0 -13 6t-6 13q0 8 5.5 13.5t13.5 5.5q19 0 19 -19zM372 811q0 -8 -5.5 -13.5t-13.5 -5.5q-7 0 -13 6t-6 13q0 8 5.5 13.5t13.5 5.5
q19 0 19 -19z" />
    <glyph glyph-name="wdieresis" unicode="&#x1e85;" horiz-adv-x="754" 
d="M386 562l157 -519l171 519h20l-186 -562h-14l-157 520l-158 -520h-15l-184 562h22l170 -517l156 517h18zM462 662q0 -8 -5.5 -13.5t-13.5 -5.5q-7 0 -13 5.5t-6 13.5t5.5 13.5t13.5 5.5q19 0 19 -19zM328 662q0 -8 -5.5 -13.5t-13.5 -5.5q-7 0 -13 5.5t-6 13.5t5.5 13.5
t13.5 5.5q19 0 19 -19z" />
    <glyph glyph-name="Ygrave" unicode="&#x1ef2;" horiz-adv-x="587" 
d="M20 705h22l251 -401l252 401h22l-264 -421v-284h-20v284zM296 789h-23l-88 157h23z" />
    <glyph glyph-name="ygrave" unicode="&#x1ef3;" horiz-adv-x="537" 
d="M200 -179h-22l78 186l-231 555h21l222 -532l222 532h22zM274 638h-23l-88 157h23z" />
    <glyph glyph-name="endash" unicode="&#x2013;" horiz-adv-x="434" 
d="M384 291v-20h-334v20h334z" />
    <glyph glyph-name="emdash" unicode="&#x2014;" horiz-adv-x="557" 
d="M507 291v-20h-457v20h457z" />
    <glyph glyph-name="quoteleft" unicode="&#x2018;" horiz-adv-x="215" 
d="M53 384h-23l132 322h23z" />
    <glyph glyph-name="quoteright" unicode="&#x2019;" horiz-adv-x="205" 
d="M53 384h-23l132 322h23z" />
    <glyph glyph-name="quotesinglbase" unicode="&#x201a;" horiz-adv-x="205" 
d="M33 -121h-23l132 322h23z" />
    <glyph glyph-name="quotedblleft" unicode="&#x201c;" horiz-adv-x="329" 
d="M167 384h-23l132 322h23zM53 384h-23l132 322h23z" />
    <glyph glyph-name="quotedblright" unicode="&#x201d;" horiz-adv-x="319" 
d="M167 384h-23l132 322h23zM52 384h-22l132 322h23z" />
    <glyph glyph-name="quotedblbase" unicode="&#x201e;" horiz-adv-x="319" 
d="M147 -131h-23l132 322h23zM32 -131h-22l132 322h23z" />
    <glyph glyph-name="dagger" unicode="&#x2020;" horiz-adv-x="434" 
d="M227 -51h-20v593h-157v20h157v197h20v-197h157v-20h-157v-593z" />
    <glyph glyph-name="daggerdbl" unicode="&#x2021;" horiz-adv-x="434" 
d="M227 -51h-20v484h-157v20h157v89h-157v20h157v197h20v-197h157v-20h-157v-89h157v-20h-157v-484z" />
    <glyph glyph-name="bullet" unicode="&#x2022;" horiz-adv-x="505" 
d="M253 88q-92 0 -142.5 54t-50.5 150v6q0 93 51 147.5t142 54.5q89 0 140.5 -54.5t51.5 -147.5v-6q0 -95 -51 -149.5t-141 -54.5z" />
    <glyph glyph-name="ellipsis" unicode="&#x2026;" horiz-adv-x="468" 
d="M418 15q0 -8 -5.5 -13.5t-13.5 -5.5q-7 0 -13 6t-6 13q0 8 5.5 13.5t13.5 5.5q19 0 19 -19zM253 15q0 -8 -5.5 -13.5t-13.5 -5.5t-13.5 6t-5.5 13q0 8 5.5 13.5t13.5 5.5q19 0 19 -19zM88 15q0 -8 -5.5 -13.5t-13.5 -5.5q-7 0 -13 6t-6 13q0 8 5.5 13.5t13.5 5.5
q19 0 19 -19z" />
    <glyph glyph-name="perthousand" unicode="&#x2030;" horiz-adv-x="1608" 
d="M1351 -8q-95 0 -148.5 60t-53.5 165v40q0 102 53.5 162.5t148.5 60.5q94 0 148 -60.5t54 -162.5v-40q0 -104 -54 -164.5t-148 -60.5zM1351 12q85 0 133.5 54.5t48.5 150.5v40q0 93 -48.5 148t-133.5 55q-86 0 -134 -55t-48 -148v-40q0 -96 48 -150.5t134 -54.5zM861 -8
q-95 0 -148.5 60t-53.5 165v40q0 102 53.5 162.5t148.5 60.5q94 0 148 -60.5t54 -162.5v-40q0 -104 -54 -164.5t-148 -60.5zM861 12q85 0 133.5 54.5t48.5 150.5v40q0 93 -48.5 148t-133.5 55q-86 0 -134 -55t-48 -148v-40q0 -96 48 -150.5t134 -54.5zM257 227
q-95 0 -148.5 60t-53.5 165v40q0 102 53.5 162.5t148.5 60.5q94 0 148 -60.5t54 -162.5v-40q0 -104 -54 -164.5t-148 -60.5zM257 247q85 0 133.5 54.5t48.5 150.5v40q0 93 -48.5 148t-133.5 55q-86 0 -134 -55t-48 -148v-40q0 -96 48 -150.5t134 -54.5zM648 759h22
l-207 -810h-22z" />
    <glyph glyph-name="guilsinglleft" unicode="&#x2039;" horiz-adv-x="252" 
d="M180 489h22l-130 -202l130 -201h-22l-130 201z" />
    <glyph glyph-name="guilsinglright" unicode="&#x203a;" horiz-adv-x="252" 
d="M50 489h22l130 -202l-130 -201h-22l130 201z" />
    <glyph glyph-name="Euro" unicode="&#x20ac;" horiz-adv-x="633" 
d="M583 471h-20q0 100 -60.5 163t-156.5 63t-156.5 -63t-60.5 -163v-53h221v-20h-221v-86h221v-20h-221v-54q0 -100 60.5 -163t156.5 -63t156.5 63t60.5 163h20q0 -109 -66 -177.5t-171 -68.5t-171 68.5t-66 177.5v54h-69v20h69v86h-69v20h69v53q0 109 66 177.5t171 68.5
t171 -68.5t66 -177.5z" />
    <glyph glyph-name="trademark" unicode="&#x2122;" horiz-adv-x="752" 
d="M508 384h-20l-145 272v-314h-20v363h17l158 -295l157 295h17v-363h-20v312zM177 342h-20v343h-107v20h235v-20h-108v-343z" />
    <glyph glyph-name="minus" unicode="&#x2212;" horiz-adv-x="454" 
d="M394 363v-20h-334v20h334z" />
    <glyph glyph-name="notequal" unicode="&#x2260;" horiz-adv-x="759" 
d="M106 589q41 -33 81.5 -44t77 -4.5t74 20t79.5 26t86 18t100 -8t115 -48.5q-31 -112 -55 -225.5t-32 -170.5l-8 -58q-48 44 -99 56t-94.5 3.5t-85.5 -18.5t-87 -3.5t-84 42.5l31 -169l-28 -5l-113 616l28 1l60 -328zM415 322l-36 31q35 49 12 99q-17 36 -54 49.5t-73 -3.5
q-12 -6 -17 -10l6 3q29 14 60 2.5t45 -40.5q19 -41 -6 -77l-44 38l34 40l-54 9l-60 -71l35 -30l29 34l45 -37q-6 -6 -18 -11q-35 -17 -69 1q-12 7 -19 14l-12 -14l-29 -34l18 -15l28 32q49 -37 105 -11q14 7 22 15l37 -32zM100 636q2 -9 -7 -10l-33 -6q-9 -2 -10 7q-1 7 7 9
l10 2q-2 6 -12.5 10.5t-12.5 17.5q-2 11 2.5 32.5t4.5 29.5q-9 3 -9 13q0 14 14 14q5 0 9.5 -4t4.5 -10q0 -4 -4 -10q3 -7 15.5 -25.5t14.5 -30.5q3 -13 -5.5 -20.5t-7.5 -13.5l9 2q8 2 10 -7z" />
    <glyph glyph-name="commaaccent" horiz-adv-x="487" 
d="M174 -281h-23l84 207h23z" />
    <glyph glyph-name="a.salt" horiz-adv-x="522" 
d="M462 0h-20v124q-24 -59 -70 -95.5t-135 -36.5q-94 0 -143.5 42t-49.5 120q0 52 29.5 84t73.5 42t96 19t96 16t73.5 31.5t29.5 67.5q0 64 -46.5 102.5t-132.5 38.5q-93 0 -141.5 -46.5t-48.5 -136.5h-20q0 101 53.5 152t156.5 51q91 0 145 -41t54 -120v-414zM237 12
q42 0 76 10.5t55 25t36.5 37t22.5 40.5t10.5 42.5t4 34.5t0.5 25v129q-14 -31 -59 -47.5t-97.5 -23t-103.5 -16t-84.5 -37.5t-33.5 -78q0 -67 44.5 -104.5t128.5 -37.5z" />
    </font>
</defs>
</svg>
