<svg xmlns="http://www.w3.org/2000/svg" viewBox="0 0 32 32" enable-background="new 0 0 32 32"><path d="m12.58 14h16.84c1.446 0 2.58-1.415 2.58-3.222v-7.556c0-1.807-1.134-3.222-2.58-3.222h-16.84c-1.446 0-2.58 1.415-2.58 3.222v7.557c0 1.806 1.134 3.221 2.58 3.221m16.84-2h-16.84c-.199 0-.58-.476-.58-1.222v-7.556c0-.746.381-1.222.58-1.222h16.84c.199 0 .58.476.58 1.222v7.557c0 .745-.381 1.221-.58 1.221"/><path d="m0 21.22v7.557c0 1.806 1.134 3.221 2.58 3.221h16.84c1.446 0 2.58-1.415 2.58-3.222v-7.557c0-1.806-1.134-3.221-2.58-3.221h-16.84c-1.446 0-2.58 1.415-2.58 3.222m2 0c0-.746.381-1.222.58-1.222h16.84c.199 0 .58.476.58 1.222v7.557c0 .745-.381 1.221-.58 1.221h-16.84c-.199 0-.58-.476-.58-1.222v-7.556"/></svg>
