<svg xmlns="http://www.w3.org/2000/svg" viewBox="0 0 32 32" enable-background="new 0 0 32 32"><path d="M29.69,0H2.31C1.036,0,0,1.1,0,2.45v27.1C0,30.9,1.036,32,2.31,32H29.69c1.273,0,2.31-1.1,2.31-2.45V2.45
	C32,1.1,30.964,0,29.69,0z M2,7.414L7.414,2h9.172L2,16.586V7.414z M2,19.414L19.414,2h9.172L2,28.586V19.414z M30,3.414v9.172
	L12.586,30H3.414L30,3.414z M30,15.414v9.172L24.586,30h-9.172L30,15.414z M2.31,2h2.276L2,4.586V2.45C2,2.185,2.163,2,2.31,2z
	 M29.69,30h-2.276L30,27.414v2.136C30,29.815,29.837,30,29.69,30z"/></svg>
