<svg xmlns="http://www.w3.org/2000/svg" viewBox="0 0 32 32" enable-background="new 0 0 32 32"><path d="M28.631,32H3.369C1.512,32,0,30.555,0,28.778V3.222C0,1.445,1.512,0,3.369,0h25.262
			C30.488,0,32,1.445,32,3.222v25.557C32,30.555,30.488,32,28.631,32z M3.369,2C2.614,2,2,2.548,2,3.222v25.557
			C2,29.452,2.614,30,3.369,30h25.262C29.386,30,30,29.452,30,28.778V3.222C30,2.548,29.386,2,28.631,2H3.369z"/><path d="m12.27 19.938l.48-.77c.336-.525.736-.561 1.232-.227.513.35 1.249.718 2.02.718.577 0 1.201-.246 1.201-.998 0-1.401-5.202-1.523-5.202-5.287 0-1.961 1.28-3.361 3.057-3.73v-.682c0-.63.257-.962.833-.962h.096c.56 0 .816.28.816.787v.805c1.04.123 1.809.508 2.289.841.464.298.512.788.272 1.313l-.385.823c-.271.577-.672.647-1.2.332-.448-.28-1.089-.543-1.761-.543-.576 0-1.217.28-1.217.98 0 1.488 5.202 1.383 5.202 5.251 0 1.855-1.152 3.466-3.201 3.816v.63c0 .63-.256.963-.816.963h-.096c-.576 0-.833-.281-.833-.788v-.805c-1.2-.192-2.08-.718-2.625-1.137-.447-.332-.478-.839-.159-1.33"/></svg>
