<svg viewBox="0 0 1091 157" xmlns="http://www.w3.org/2000/svg" xmlns:xlink="http://www.w3.org/1999/xlink">
  <defs>
    <path id="a" d="M0 70h1024V0H0z"/>
    <path id="c" d="M0 70h1024V0H0z"/>
    <path id="e" d="M0 70h1024V0H0z"/>
    <path id="g" d="M0 70h1024V0H0z"/>
    <path id="i" d="M0 70h1024V0H0z"/>
    <path id="k" d="M0 70h1024V0H0z"/>
    <path id="m" d="M0 70h1024V0H0z"/>
    <path id="o" d="M0 70h1024V0H0z"/>
    <path id="q" d="M0 70h1024V0H0z"/>
    <path id="s" d="M0 70h1024V0H0z"/>
    <path id="u" d="M0 70h1024V0H0z"/>
    <path id="w" d="M0 70h1024V0H0z"/>
    <path id="y" d="M0 70h1024V0H0z"/>
    <path id="A" d="M0 70h1024V0H0z"/>
    <path id="C" d="M0 70h1024V0H0z"/>
    <path id="E" d="M0 70h1024V0H0z"/>
    <path id="G" d="M0 70h1024V0H0z"/>
    <path id="I" d="M0 70h1024V0H0z"/>
    <path id="K" d="M0 70h1024V0H0z"/>
    <path id="M" d="M0 70h1024V0H0z"/>
    <path id="O" d="M0 70h1024V0H0z"/>
    <path id="Q" d="M0 70h1024V0H0z"/>
    <path id="S" d="M0 70h1024V0H0z"/>
    <path id="U" d="M0 70h1024V0H0z"/>
    <path id="W" d="M0 70h1024V0H0z"/>
    <path id="Y" d="M0 70h1024V0H0z"/>
    <path id="aa" d="M0 70h1024V0H0z"/>
    <path id="ac" d="M0 70h1024V0H0z"/>
    <path id="ae" d="M0 70h1024V0H0z"/>
    <path id="ag" d="M0 70h1024V0H0z"/>
    <path id="ai" d="M0 70h1024V0H0z"/>
    <path id="ak" d="M0 70h1024V0H0z"/>
    <path id="am" d="M0 70h1024V0H0z"/>
    <path id="ao" d="M0 70h1024V0H0z"/>
    <path id="aq" d="M0 70h1024V0H0z"/>
    <path id="as" d="M0 70h1024V0H0z"/>
    <path id="au" d="M0 70h1024V0H0z"/>
    <path id="aw" d="M0 70h1024V0H0z"/>
    <path id="ay" d="M0 70h1024V0H0z"/>
    <path id="aA" d="M0 70h1024V0H0z"/>
    <path id="aC" d="M0 70h1024V0H0z"/>
    <path id="aE" d="M0 70h1024V0H0z"/>
    <path id="aG" d="M0 70h1024V0H0z"/>
    <path id="aI" d="M0 70h1024V0H0z"/>
    <path id="aK" d="M0 70h1024V0H0z"/>
    <path id="aM" d="M0 70h1024V0H0z"/>
    <path id="aO" d="M0 70h1024V0H0z"/>
    <path id="aQ" d="M0 70h1024V0H0z"/>
    <path id="aS" d="M0 70h1024V0H0z"/>
    <path id="aU" d="M0 70h1024V0H0z"/>
    <path id="aW" d="M0 70h1024V0H0z"/>
    <path id="aY" d="M0 70h1024V0H0z"/>
    <path id="ba" d="M0 70h1024V0H0z"/>
    <path id="bc" d="M0 70h1024V0H0z"/>
    <path id="be" d="M0 70h1024V0H0z"/>
    <path id="bg" d="M0 70h1024V0H0z"/>
    <path id="bi" d="M0 70h1024V0H0z"/>
    <path id="bk" d="M0 70h1024V0H0z"/>
    <path id="bm" d="M0 70h1024V0H0z"/>
    <path id="bo" d="M0 70h1024V0H0z"/>
    <path id="bq" d="M0 70h1024V0H0z"/>
    <path id="bs" d="M0 70h1024V0H0z"/>
    <path id="bu" d="M0 70h1024V0H0z"/>
    <path id="bw" d="M0 70h1024V0H0z"/>
    <path id="by" d="M0 70h1024V0H0z"/>
    <path id="bA" d="M0 70h1024V0H0z"/>
    <path id="bC" d="M0 70h1024V0H0z"/>
    <path id="bE" d="M0 70h1024V0H0z"/>
    <path id="bG" d="M0 70h1024V0H0z"/>
    <path id="bI" d="M0 70h1024V0H0z"/>
    <path id="bK" d="M0 70h1024V0H0z"/>
    <path id="bM" d="M0 70h1024V0H0z"/>
    <path id="bO" d="M0 70h1024V0H0z"/>
    <path id="bQ" d="M0 70h1024V0H0z"/>
    <path id="bS" d="M0 70h1024V0H0z"/>
    <path id="bU" d="M0 70h1024V0H0z"/>
    <path id="bW" d="M0 70h1024V0H0z"/>
    <path id="bY" d="M0 70h1024V0H0z"/>
    <path id="ca" d="M0 70h1024V0H0z"/>
    <path id="cc" d="M0 70h1024V0H0z"/>
    <path id="ce" d="M0 70h1024V0H0z"/>
    <path id="cg" d="M0 70h1024V0H0z"/>
    <path id="ci" d="M0 70h1024V0H0z"/>
    <path id="ck" d="M0 70h1024V0H0z"/>
    <path id="cm" d="M0 70h1024V0H0z"/>
    <path id="co" d="M0 70h1024V0H0z"/>
    <path id="cq" d="M0 70h1024V0H0z"/>
    <path id="cs" d="M0 70h1024V0H0z"/>
    <path id="cu" d="M0 70h1024V0H0z"/>
    <path id="cw" d="M0 70h1024V0H0z"/>
    <path id="cy" d="M0 70h1024V0H0z"/>
    <path id="cA" d="M0 70h1024V0H0z"/>
    <path id="cC" d="M0 70h1024V0H0z"/>
    <path id="cE" d="M0 70h1024V0H0z"/>
    <path id="cG" d="M0 70h1024V0H0z"/>
    <path id="cI" d="M0 70h1024V0H0z"/>
    <path id="cK" d="M0 70h1024V0H0z"/>
    <path id="cM" d="M0 70h1024V0H0z"/>
    <path id="cO" d="M0 70h1024V0H0z"/>
    <path id="cQ" d="M0 70h1024V0H0z"/>
    <path id="cS" d="M0 70h1024V0H0z"/>
  </defs>
  <g fill="none" fill-rule="evenodd">
    <path d="M109.8 112.45c0 .1-.04.16-.1.23l-4.7 4.68c-.06.07-.14.1-.22.1-.1 0-.17-.03-.23-.1l-.5-.5c-.07-.07-.1-.15-.1-.23 0-.1.03-.17.1-.23l3.94-3.95-4-3.95c-.1-.07-.1-.14-.1-.23 0-.1 0-.16.1-.23l.5-.5c0-.07.1-.1.2-.1s.1.03.2.1l4.7 4.68c0 .06.1.14.1.23" fill="#E24329"/>
    <path d="M115.1 112.45c0 .1-.04.16-.1.23l-4.7 4.68c-.06.07-.13.1-.22.1-.1 0-.17-.03-.23-.1l-.5-.5c-.07-.07-.1-.15-.1-.23 0-.1.03-.17.1-.23l3.94-3.95-4-3.95c-.1-.07-.1-.14-.1-.23 0-.1 0-.16.1-.23l.5-.5c0-.07.1-.1.2-.1s.1.03.2.1l4.7 4.68c0 .06.1.14.1.23m102 0c0 .1-.08.16-.1.23l-4.7 4.68c-.1.07-.17.1-.2.1-.1 0-.2-.03-.28-.1l-.53-.5c-.07-.07-.1-.15-.1-.23 0-.1.03-.17.1-.23l3.94-3.95-3.97-3.95c-.06-.07-.1-.14-.1-.23 0-.1.04-.16.1-.23l.5-.5c.07-.07.15-.1.24-.1.1 0 .16.03.23.1l4.7 4.68c.06.06.1.14.1.23" fill="#E24329"/>
    <path d="M222.44 112.45c0 .1-.03.16-.1.23l-4.68 4.68c-.07.07-.15.1-.23.1-.1 0-.17-.03-.23-.1l-.5-.5c-.07-.07-.1-.15-.1-.23 0-.1.03-.17.1-.23l3.94-3.95-3.95-3.95c-.1-.07-.1-.14-.1-.23 0-.1 0-.16.1-.23l.5-.5c0-.07.1-.1.2-.1s.1.03.2.1l4.7 4.68c0 .06.1.14.1.23m102 0c0 .1-.1.16-.1.23l-4.7 4.68c-.1.07-.2.1-.3.1-.1 0-.16-.03-.22-.1l-.5-.5c-.06-.07-.1-.15-.1-.23 0-.1.04-.17.1-.23l3.95-3.95-3.96-3.95c-.04-.07-.1-.14-.1-.23 0-.1.06-.16.1-.23l.5-.5c.1-.07.17-.1.26-.1.1 0 .17.03.24.1l4.68 4.68c.06.06.1.14.1.23" fill="#E24329"/>
    <path d="M329.8 112.45c0 .1-.04.16-.1.23l-4.7 4.68c-.06.07-.13.1-.22.1-.1 0-.17-.03-.23-.1l-.5-.5c-.07-.07-.1-.15-.1-.23 0-.1.03-.17.1-.23l3.94-3.95-4-3.95c-.1-.07-.1-.14-.1-.23 0-.1 0-.16.1-.23l.5-.5c0-.07.1-.1.2-.1s.1.03.2.1l4.7 4.68c0 .06.1.14.1.23m102 0c0 .1-.08.16-.1.23l-4.7 4.68c-.1.07-.18.1-.2.1-.1 0-.2-.03-.28-.1l-.53-.5c-.07-.07-.1-.15-.1-.23 0-.1.03-.17.1-.23l3.94-3.95-3.97-3.95c-.06-.07-.1-.14-.1-.23 0-.1.04-.16.1-.23l.5-.5c.07-.07.15-.1.24-.1.1 0 .16.03.23.1l4.7 4.68c.06.06.1.14.1.23" fill="#E24329"/>
    <path d="M437.14 112.45c0 .1-.03.16-.1.23l-4.68 4.68c-.07.07-.15.1-.23.1-.1 0-.17-.03-.23-.1l-.5-.5c-.07-.07-.1-.15-.1-.23 0-.1.03-.17.1-.23l3.94-3.95-3.95-3.95c-.1-.07-.1-.14-.1-.23 0-.1 0-.16.1-.23l.5-.5c0-.07.1-.1.2-.1s.1.03.2.1l4.7 4.68c0 .06.1.14.1.23m102 0c0 .1-.1.16-.1.23l-4.7 4.68c-.1.07-.2.1-.3.1-.1 0-.16-.03-.22-.1l-.5-.5c-.06-.07-.1-.15-.1-.23 0-.1.04-.17.1-.23l3.95-3.95-3.96-3.95c-.04-.07-.1-.14-.1-.23 0-.1.06-.16.1-.23l.5-.5c.1-.07.17-.1.26-.1.1 0 .17.03.24.1l4.68 4.68c.06.06.1.14.1.23" fill="#E24329"/>
    <path d="M544.5 112.45c0 .1-.04.16-.1.23l-4.7 4.68c-.06.07-.13.1-.22.1-.1 0-.17-.03-.23-.1l-.5-.5c-.07-.07-.1-.15-.1-.23 0-.1.03-.17.1-.23l3.94-3.95-4-3.95c-.1-.07-.1-.14-.1-.23 0-.1 0-.16.1-.23l.5-.5c0-.07.1-.1.2-.1s.1.03.2.1l4.7 4.68c0 .06.1.14.1.23m102 0c0 .1-.08.16-.1.23l-4.7 4.68c-.1.07-.18.1-.2.1-.1 0-.2-.03-.28-.1l-.53-.5c-.07-.07-.1-.15-.1-.23 0-.1.03-.17.1-.23l3.94-3.95-3.97-3.95c-.06-.07-.1-.14-.1-.23 0-.1.04-.16.1-.23l.5-.5c.07-.07.15-.1.24-.1.1 0 .16.03.23.1l4.7 4.68c.06.06.1.14.1.23" fill="#E24329"/>
    <path d="M651.84 112.45c0 .1-.03.16-.1.23l-4.68 4.68c-.07.07-.14.1-.23.1-.1 0-.17-.03-.23-.1l-.5-.5c-.07-.07-.1-.15-.1-.23 0-.1.03-.17.1-.23l3.94-3.95-3.94-3.95c-.07-.07-.1-.14-.1-.23 0-.1.03-.16.1-.23l.5-.5c.06-.07.14-.1.23-.1.08 0 .16.03.23.1l4.68 4.68c.07.06.1.14.1.23m102.04 0c0 .1-.03.16-.1.23l-4.68 4.68c-.07.07-.15.1-.23.1-.1 0-.17-.03-.23-.1l-.5-.5c-.07-.07-.1-.15-.1-.23 0-.1.03-.17.1-.23l3.94-3.95-3.95-3.95c-.06-.07-.1-.14-.1-.23 0-.1.04-.16.1-.23l.5-.5c.07-.07.15-.1.24-.1.08 0 .16.03.23.1l4.68 4.68c.07.06.1.14.1.23" fill="#E24329"/>
    <path d="M759.2 112.45c0 .1-.04.16-.1.23l-4.7 4.68c-.06.07-.13.1-.22.1-.1 0-.17-.03-.23-.1l-.5-.5c-.07-.07-.1-.15-.1-.23 0-.1.03-.17.1-.23l3.94-3.95-4-3.95c-.1-.07-.1-.14-.1-.23 0-.1 0-.16.1-.23l.5-.5c0-.07.1-.1.2-.1s.1.03.2.1l4.7 4.68c0 .06.1.14.1.23m102 0c0 .1-.08.16-.1.23l-4.7 4.68c-.1.07-.18.1-.2.1-.1 0-.2-.03-.28-.1l-.53-.5c-.07-.07-.1-.15-.1-.23 0-.1.03-.17.1-.23l3.94-3.95-3.97-3.95c-.06-.07-.1-.14-.1-.23 0-.1.04-.16.1-.23l.5-.5c.07-.07.15-.1.24-.1.1 0 .16.03.23.1l4.7 4.68c.06.06.1.14.1.23" fill="#E24329"/>
    <path d="M866.54 112.45c0 .1-.03.16-.1.23l-4.68 4.68c-.07.07-.14.1-.23.1-.1 0-.17-.03-.23-.1l-.5-.5c-.07-.07-.1-.15-.1-.23 0-.1.03-.17.1-.23l3.94-3.95-3.95-3.95c-.1-.07-.1-.14-.1-.23 0-.1 0-.16.1-.23l.5-.5c0-.07.1-.1.2-.1s.1.03.2.1l4.7 4.68c0 .06.1.14.1.23m102 0c0 .1-.1.16-.1.23l-4.7 4.68c-.1.07-.2.1-.3.1-.1 0-.16-.03-.22-.1l-.5-.5c-.06-.07-.1-.15-.1-.23 0-.1.04-.17.1-.23l3.95-3.95-3.96-3.95c-.04-.07-.1-.14-.1-.23 0-.1.06-.16.1-.23l.5-.5c.1-.07.17-.1.26-.1.1 0 .17.03.24.1l4.68 4.68c.06.06.1.14.1.23" fill="#E24329"/>
    <path d="M973.88 112.45c0 .1-.03.16-.1.23l-4.68 4.68c-.07.07-.14.1-.23.1-.1 0-.17-.03-.23-.1l-.5-.5c-.07-.07-.1-.15-.1-.23 0-.1.03-.17.1-.23l3.94-3.95-3.95-3.95c-.06-.07-.1-.14-.1-.23 0-.1.04-.16.1-.23l.5-.5c.07-.07.15-.1.24-.1.1 0 .16.03.23.1l4.68 4.68c.07.06.1.14.1.23M50 117.6c0 1.1-.9 2-2 2s-2-.9-2-2 .9-2 2-2 2 .9 2 2m10.8-19.4c-2.97-1.22-6.4-1.2-9.32 0-1.48.62-2.8 1.5-3.96 2.66-1.12 1.1-2.03 2.47-2.65 3.95-.62 1.5-.93 3.1-.93 4.7 0 1.3.2 2.6.6 3.8.17.5.4 1 .62 1.5-.7.7-1.16 1.7-1.16 2.8 0 2.2 1.8 4 4 4s4-1.8 4-4-1.8-4-4-4c-.4 0-.75.1-1.1.2-.18-.3-.33-.7-.46-1.1-.33-1-.5-2.1-.5-3.1 0-1.3.26-2.62.8-3.9.5-1.2 1.25-2.33 2.2-3.25.96-1 2.07-1.7 3.3-2.24 2.45-1.03 5.32-1.03 7.8 0 1.23.5 2.34 1.25 3.3 2.2 1.93 1.94 3 4.5 3 7.23 0 1.06-.18 2.1-.5 3.15-.34 1-.83 1.98-1.47 2.85-1.24 1.7-2.22 2.76-3.02 3.64l-.36.4c-1.2 1.32-2 2.2-2.3 4.03h-6c-.6 0-1 .4-1 1 0 .52.4 1 1 1h6.9c.5 0 1-.45 1-.98.1-1.8.5-2.3 1.8-3.7l.3-.4c.8-.9 1.82-2.05 3.12-3.83.76-1.07 1.34-2.2 1.74-3.4.4-1.25.6-2.5.6-3.8 0-3.26-1.27-6.3-3.58-8.64-1.18-1.13-2.5-2-3.97-2.62M57 132.6h-2c-.55 0-1 .45-1 1s.45 1 1 1h2c.55 0 1-.45 1-1s-.45-1-1-1m1-3h-4c-.55 0-1 .45-1 1s.45 1 1 1h4c.55 0 1-.45 1-1s-.45-1-1-1m1-3h-6c-.55 0-1 .45-1 1s.45 1 1 1h6c.55 0 1-.45 1-1s-.45-1-1-1m-3-32c.55 0 1-.45 1-1v-4c0-.55-.45-1-1-1s-1 .45-1 1v4c0 .55.45 1 1 1m-10.88 3.12c.4-.4.4-1.02 0-1.4l-2.83-2.84c-.4-.4-1.1-.4-1.5 0-.4.4-.4 1.02 0 1.4l2.8 2.84c.2.2.4.3.7.3.2 0 .5-.1.7-.3m-6 9.88h-4c-.6 0-1 .45-1 1s.4 1 1 1h4c.5 0 1-.45 1-1s-.5-1-1-1m29.7-14.12l-2.8 2.82c-.4.4-.4 1.03 0 1.42.2.2.4.3.7.3.2 0 .5-.1.7-.3l2.8-2.83c.4-.4.4-1.1 0-1.5-.4-.4-1-.4-1.4 0m8.3 14.2h-4c-.6 0-1 .4-1 1s.4 1 1 1h4c.5 0 1-.5 1-1s-.5-1-1-1" fill="#E24329"/>
    <g transform="translate(34 88)">
      <mask id="b" fill="#fff">
        <use xlink:href="#a"/>
      </mask>
      <path fill="#E24329" mask="url(#b)" d="M7.2 68.85h1.87V58.4H7.2"/>
    </g>
    <g transform="translate(34 88)">
      <mask id="d" fill="#fff">
        <use xlink:href="#c"/>
      </mask>
      <path d="M14.28 67.35c1.07 0 1.9-.3 2.46-.92.57-.6.85-1.57.85-2.86 0-1.28-.3-2.2-.9-2.8-.6-.58-1.4-.88-2.5-.88h-.8v7.4h.8m-2.7-8.9h2.8c1.6 0 2.82.4 3.7 1.3.9.8 1.36 2.1 1.36 3.8 0 .8-.13 1.6-.36 2.3-.23.6-.56 1.2-1 1.6-.42.43-.94.76-1.56 1-.67.2-1.37.32-2.1.32h-2.9V58.4" fill="#E24329" mask="url(#d)"/>
    </g>
    <g transform="translate(34 88)">
      <mask id="f" fill="#fff">
        <use xlink:href="#e"/>
      </mask>
      <path fill="#E24329" mask="url(#f)" d="M21.5 58.4h6.3v1.55h-4.44v2.68h3.76v1.57h-3.76v3.08h4.6v1.57H21.5"/>
    </g>
    <g transform="translate(34 88)">
      <mask id="h" fill="#fff">
        <use xlink:href="#g"/>
      </mask>
      <path d="M34.93 64.56l-.37-1.28-.5-1.7-.44-1.76h-.07l-.45 1.76c-.15.58-.3 1.15-.48 1.7l-.36 1.28h2.67m.4 1.46h-3.5L31 68.85h-1.88l3.4-10.47h2.18l3.4 10.47h-1.94l-.8-2.83" fill="#E24329" mask="url(#h)"/>
    </g>
    <g transform="translate(34 88)">
      <mask id="j" fill="#fff">
        <use xlink:href="#i"/>
      </mask>
      <path d="M132.35 33c0 1.65-1.35 3-3 3s-3-1.35-3-3 1.35-3 3-3 3 1.35 3 3m-8 0c0 2.76 2.24 5 5 5s5-2.24 5-5-2.24-5-5-5c-.37 0-.74.05-1.1.13L126.45 11h5.8l-1.38 12.2c-.07.56.33 1.05.88 1.12.54.05 1.04-.34 1.1-.9l1.5-13.3c.03-.3-.05-.58-.24-.8-.2-.2-.4-.32-.7-.32h-8c-.3 0-.5.12-.7.33-.2.2-.2.5-.2.77l2 18.92c-1.2.92-2 2.35-2 3.98" fill="#E24329" mask="url(#j)"/>
    </g>
    <g transform="translate(34 88)">
      <mask id="l" fill="#fff">
        <use xlink:href="#k"/>
      </mask>
      <path d="M145.76 6.6c.38.36.6.87.6 1.4 0 .53-.22 1.04-.6 1.4-.76.77-2.07.77-2.83 0-.38-.36-.58-.87-.58-1.4 0-.53.2-1.04.58-1.4.38-.4.88-.6 1.42-.6.53 0 1.03.2 1.4.6m4.92 7.77c-.2-.5-.8-.76-1.3-.55-.5.2-.76.8-.55 1.3 1 2.5 1.53 5.16 1.53 7.88 0 11.58-9.42 21-21 21s-21-9.42-21-21 9.42-21 21-21c4.25 0 8.3 1.27 11.78 3.64-.5.68-.78 1.5-.78 2.36 0 1.07.4 2.07 1.17 2.83.75.75 1.76 1.17 2.83 1.17 1.06 0 2.07-.42 2.82-1.17.76-.76 1.18-1.76 1.18-2.83s-.42-2.07-1.18-2.83c-1.14-1.14-2.93-1.42-4.4-.83-3.9-2.84-8.54-4.34-13.4-4.34-12.7 0-23 10.32-23 23s10.3 23 23 23c12.67 0 23-10.32 23-23 0-2.98-.58-5.88-1.7-8.63" fill="#E24329" mask="url(#l)"/>
    </g>
    <g transform="translate(34 88)">
      <mask id="n" fill="#fff">
        <use xlink:href="#m"/>
      </mask>
      <path fill="#E24329" mask="url(#n)" d="M110.4 68.85h1.86V58.4h-1.86"/>
    </g>
    <g transform="translate(34 88)">
      <mask id="p" fill="#fff">
        <use xlink:href="#o"/>
      </mask>
      <path d="M115.1 66.24c.37.35.8.64 1.28.86.48.22.96.33 1.44.33.6 0 1.05-.13 1.36-.37.3-.25.46-.57.46-.98 0-.2-.04-.4-.12-.54-.08-.15-.2-.28-.33-.4l-.6-.3-.7-.3-1.48-.62c-.27-.1-.5-.24-.77-.4-.25-.16-.48-.35-.68-.58-.2-.22-.4-.48-.5-.78-.1-.3-.2-.64-.2-1.02 0-.42.08-.8.26-1.16.2-.36.42-.67.73-.94.3-.27.66-.47 1.1-.62.42-.15.9-.23 1.4-.23.6 0 1.2.1 1.75.3.56.2 1.05.5 1.45.9l-.98 1.2c-.35-.3-.7-.5-1.07-.7-.33-.18-.74-.26-1.2-.26-.5 0-.9.1-1.2.33-.3.2-.43.5-.43.9 0 .2.06.37.15.5.1.15.23.3.4.4l.52.3c.2.1.4.2.6.26l1.42.6c.3.15.6.3.83.47.22.17.5.37.63.6.2.2.33.48.44.77.1.3.16.64.16 1.03 0 .43-.1.83-.27 1.2-.17.38-.42.7-.74 1-.34.3-.73.5-1.2.67-.46.2-.98.28-1.57.28-.7 0-1.4-.1-2.04-.4-.64-.24-1.22-.6-1.72-1.1l1.1-1.28" fill="#E24329" mask="url(#p)"/>
    </g>
    <g transform="translate(34 88)">
      <mask id="r" fill="#fff">
        <use xlink:href="#q"/>
      </mask>
      <path d="M123.82 66.24c.37.35.8.64 1.28.86.48.22.96.33 1.44.33.6 0 1.05-.13 1.36-.37.3-.25.46-.57.46-.98 0-.2-.04-.4-.12-.54-.08-.15-.2-.28-.33-.4-.1-.1-.3-.2-.5-.3l-.6-.3-1.4-.62c-.2-.1-.5-.24-.7-.4-.22-.16-.5-.35-.7-.58-.2-.22-.33-.48-.5-.78-.1-.3-.13-.64-.13-1.02 0-.42.08-.8.26-1.16.16-.36.4-.67.7-.94.3-.27.7-.47 1.1-.62.46-.15.9-.23 1.45-.23.6 0 1.2.1 1.76.3.57.2 1.06.5 1.46.9l-.93 1.2c-.34-.3-.7-.5-1.06-.7-.35-.17-.8-.25-1.2-.25-.5 0-.9.14-1.2.36-.3.2-.45.5-.45.9 0 .2.04.38.13.5.1.16.2.3.36.4l.53.3c.2.1.44.2.65.27l1.4.6c.3.12.6.3.88.44.27.18.5.38.68.6.2.23.34.5.45.78.1.3.17.62.17 1 0 .43-.1.83-.26 1.2-.16.4-.4.7-.73 1-.32.27-.7.5-1.2.66-.44.18-.96.26-1.55.26-.7 0-1.33-.13-2-.4-.63-.27-1.2-.64-1.7-1.14l1.1-1.2" fill="#E24329" mask="url(#r)"/>
    </g>
    <g transform="translate(34 88)">
      <mask id="t" fill="#fff">
        <use xlink:href="#s"/>
      </mask>
      <path d="M131.94 58.4h1.86v6c0 .57.05 1.05.15 1.44.1.4.24.7.43.94.2.23.4.4.66.5.26.1.55.15.87.15.4 0 .7-.05.9-.15.3-.1.5-.27.7-.5.2-.24.4-.55.5-.94.1-.4.2-.87.2-1.43v-6h1.8v5.9c0 .9-.1 1.6-.22 2.2-.2.6-.45 1.1-.8 1.5-.34.4-.76.7-1.24.9-.5.2-1.03.3-1.64.3-.6 0-1.14-.1-1.6-.25-.5-.2-.9-.47-1.27-.86-.37-.4-.6-.9-.8-1.5-.2-.6-.3-1.33-.3-2.2v-5.9" fill="#E24329" mask="url(#t)"/>
    </g>
    <g transform="translate(34 88)">
      <mask id="v" fill="#fff">
        <use xlink:href="#u"/>
      </mask>
      <path fill="#E24329" mask="url(#v)" d="M142.35 58.4h6.3v1.55h-4.45v2.68h3.76v1.57h-3.76v3.08h4.6v1.57h-6.45"/>
    </g>
    <g transform="translate(34 88)">
      <mask id="x" fill="#fff">
        <use xlink:href="#w"/>
      </mask>
      <path d="M219.7 17c0 1.1-.87 1.98-1.96 2h-.1c-1.08-.02-1.95-.9-1.95-2s.9-2 2-2 2 .9 2 2m0 11.98c0 1.1-.9 1.97-2 2h-.1c-1.1-.03-2-.9-2-2s.9-2 2-2 2 .9 2 2m0 11.97c0 1.1-.9 2-2 2s-2-.9-2-2 .9-2 2-2 2 .9 2 2m-4-35.9c0-1.1.9-2 2-2s2 .9 2 2c0 1.08-.9 1.96-2 1.98h-.1c-1.1-.03-2-.9-2-2m6 0c0-2.2-1.8-4-4-4s-4 1.8-4 4c0 1.86 1.3 3.42 3 3.86v4.2c-1.7.4-3 2-3 3.8 0 1.8 1.3 3.4 3 3.8V25c-1.7.45-3 2-3 3.85 0 1.88 1.3 3.4 3 3.88V37c-1.7.45-3 2-3 3.85 0 2.2 1.8 4 4 4s4-1.8 4-4c0-1.87-1.27-3.4-3-3.87v-4.2c1.7-.44 3-2 3-3.86 0-1.86-1.27-3.4-3-3.86v-4.3c1.7-.47 3-2 3-3.9 0-1.85-1.27-3.4-3-3.85V8.9c1.7-.45 3-2 3-3.86" fill="#E24329" mask="url(#x)"/>
    </g>
    <g transform="translate(34 88)">
      <mask id="z" fill="#fff">
        <use xlink:href="#y"/>
      </mask>
      <path d="M226.7 3.88h32c.55 0 1-.45 1-1 0-.56-.45-1-1-1h-32c-.55 0-1 .44-1 1 0 .55.45 1 1 1" fill="#E24329" mask="url(#z)"/>
    </g>
    <g transform="translate(34 88)">
      <mask id="B" fill="#fff">
        <use xlink:href="#A"/>
      </mask>
      <path d="M226.7 7.88h20c.55 0 1-.45 1-1 0-.56-.45-1-1-1h-20c-.55 0-1 .44-1 1 0 .55.45 1 1 1" fill="#E24329" mask="url(#B)"/>
    </g>
    <g transform="translate(34 88)">
      <mask id="D" fill="#fff">
        <use xlink:href="#C"/>
      </mask>
      <path d="M258.7 13.88h-32c-.55 0-1 .44-1 1 0 .55.45 1 1 1h32c.55 0 1-.45 1-1 0-.56-.45-1-1-1" fill="#E24329" mask="url(#D)"/>
    </g>
    <g transform="translate(34 88)">
      <mask id="F" fill="#fff">
        <use xlink:href="#E"/>
      </mask>
      <path d="M226.7 19.88h20c.55 0 1-.45 1-1 0-.56-.45-1-1-1h-20c-.55 0-1 .44-1 1 0 .55.45 1 1 1" fill="#E24329" mask="url(#F)"/>
    </g>
    <g transform="translate(34 88)">
      <mask id="H" fill="#fff">
        <use xlink:href="#G"/>
      </mask>
      <path d="M258.67 25.88h-32c-.55 0-1 .44-1 1 0 .55.45 1 1 1h32c.55 0 1-.45 1-1 0-.56-.45-1-1-1" fill="#E24329" mask="url(#H)"/>
    </g>
    <g transform="translate(34 88)">
      <mask id="J" fill="#fff">
        <use xlink:href="#I"/>
      </mask>
      <path d="M226.7 31.88h20c.55 0 1-.45 1-1 0-.56-.45-1-1-1h-20c-.55 0-1 .44-1 1 0 .55.45 1 1 1" fill="#E24329" mask="url(#J)"/>
    </g>
    <g transform="translate(34 88)">
      <mask id="L" fill="#fff">
        <use xlink:href="#K"/>
      </mask>
      <path d="M258.67 37.88h-32c-.55 0-1 .44-1 1 0 .55.45 1 1 1h32c.55 0 1-.45 1-1 0-.56-.45-1-1-1" fill="#E24329" mask="url(#L)"/>
    </g>
    <g transform="translate(34 88)">
      <mask id="N" fill="#fff">
        <use xlink:href="#M"/>
      </mask>
      <path d="M246.67 41.88h-20c-.55 0-1 .44-1 1 0 .55.45 1 1 1h20c.55 0 1-.45 1-1 0-.56-.45-1-1-1" fill="#E24329" mask="url(#N)"/>
    </g>
    <g transform="translate(34 88)">
      <mask id="P" fill="#fff">
        <use xlink:href="#O"/>
      </mask>
      <path d="M222.74 63.52c1.54 0 2.3-.64 2.3-1.9 0-.66-.2-1.12-.57-1.37-.4-.25-.96-.38-1.73-.38h-1.52v3.65h1.52m-3.38-5.14h3.52c.58 0 1.1.06 1.6.16.48.1.9.3 1.25.55.35.2.63.5.83 1 .2.4.3.9.3 1.5 0 .5-.1 1-.3 1.5-.2.4-.48.8-.84 1-.35.3-.78.5-1.26.6-.5.1-1 .2-1.58.2h-1.66v3.8h-1.86V58.4" fill="#E24329" mask="url(#P)"/>
    </g>
    <g transform="translate(34 88)">
      <mask id="R" fill="#fff">
        <use xlink:href="#Q"/>
      </mask>
      <path fill="#E24329" mask="url(#R)" d="M228.6 58.4h1.86v8.88h4.35v1.57h-6.2"/>
    </g>
    <g transform="translate(34 88)">
      <mask id="T" fill="#fff">
        <use xlink:href="#S"/>
      </mask>
      <path d="M241.6 64.56l-.36-1.28-.5-1.7-.44-1.76h-.07l-.44 1.76-.5 1.7-.4 1.28h2.6m.4 1.46h-3.57l-.8 2.83h-1.9l3.4-10.47h2.2l3.4 10.47h-1.95l-.8-2.83" fill="#E24329" mask="url(#T)"/>
    </g>
    <g transform="translate(34 88)">
      <mask id="V" fill="#fff">
        <use xlink:href="#U"/>
      </mask>
      <path d="M246.2 58.4h1.9l3.26 5.88 1.07 2.22h.06l-.2-1.75c-.1-.62-.1-1.23-.1-1.82V58.4h1.8v10.45h-1.9l-3.3-5.88-1.1-2.23h-.1l.1 1.75c.06.6.1 1.2.1 1.7v4.5H246V58.4" fill="#E24329" mask="url(#V)"/>
    </g>
    <g transform="translate(34 88)">
      <mask id="X" fill="#fff">
        <use xlink:href="#W"/>
      </mask>
      <path d="M350.05 12c-2.76 0-5-2.24-5-5s2.24-5 5-5 5 2.24 5 5-2.24 5-5 5m12-6h-5.08c-.5-3.4-3.4-6-6.92-6-3.86 0-7 3.14-7 7s3.14 7 7 7c3.52 0 6.43-2.6 6.92-6h5.08c.55 0 1 .4 1 .9v34.2c0 .5-.45.9-1 .9h-36c-.55 0-1-.4-1-.9V8.9c0-.5.45-.9 1-.9h9.2c.54 0 1-.45 1-1s-.46-1-1-1h-9.2c-1.65 0-3 1.3-3 2.9v34.2c0 1.6 1.35 2.9 3 2.9h36c1.65 0 3-1.3 3-2.9V8.9c0-1.6-1.35-2.9-3-2.9" fill="#E24329" mask="url(#X)"/>
    </g>
    <g transform="translate(34 88)">
      <mask id="Z" fill="#fff">
        <use xlink:href="#Y"/>
      </mask>
      <path d="M334.57 35.35c.2.2.45.3.7.3.26 0 .52-.1.7-.3l8.18-8.17c.4-.4.4-1.02 0-1.4l-8.17-8.18c-.4-.4-1.02-.4-1.4 0-.4.4-.4 1.03 0 1.42l7.45 7.46-7.46 7.46c-.4.4-.4 1.02 0 1.4" fill="#E24329" mask="url(#Z)"/>
    </g>
    <g transform="translate(34 88)">
      <mask id="ab" fill="#fff">
        <use xlink:href="#aa"/>
      </mask>
      <path d="M352.82 36c.55 0 1-.45 1-1s-.45-1-1-1h-6c-.55 0-1 .45-1 1s.45 1 1 1h6" fill="#E24329" mask="url(#ab)"/>
    </g>
    <g transform="translate(34 88)">
      <mask id="ad" fill="#fff">
        <use xlink:href="#ac"/>
      </mask>
      <path d="M325.8 63.65c0-.85.12-1.62.37-2.3.25-.67.6-1.25 1.03-1.72.44-.47.95-.82 1.53-1.07.6-.24 1.22-.37 1.9-.37.63 0 1.2.1 1.7.4.52.2.94.5 1.27.9l-1.04 1.1c-.27-.3-.55-.5-.86-.7-.3-.18-.66-.26-1.06-.26-.44 0-.84.1-1.2.26-.35.2-.66.44-.92.77-.26.3-.47.7-.6 1.2-.15.44-.23.96-.23 1.55 0 1.2.2 2.1.7 2.8.5.7 1.2 1 2.1 1 .4 0 .9-.1 1.2-.3.3-.18.6-.43.9-.76l1.03 1.1c-.4.5-.9.85-1.45 1.1-.54.26-1.15.4-1.8.4-.68 0-1.3-.13-1.88-.36-.6-.23-1.1-.6-1.5-1.04-.44-.45-.78-1-1-1.7-.27-.66-.4-1.43-.4-2.3" fill="#E24329" mask="url(#ad)"/>
    </g>
    <g transform="translate(34 88)">
      <mask id="af" fill="#fff">
        <use xlink:href="#ae"/>
      </mask>
      <path d="M339.26 67.43c.42 0 .8-.1 1.12-.27.33-.18.6-.44.85-.78.23-.33.4-.74.54-1.2.13-.5.2-1.02.2-1.6 0-1.18-.25-2.1-.73-2.77-.5-.6-1.15-1-1.98-1-.83 0-1.5.4-1.98 1-.48.7-.72 1.6-.72 2.8 0 .6.06 1.1.2 1.6.12.5.3.9.53 1.2.2.4.5.6.8.8.3.2.7.3 1.1.3m0 1.6c-.7 0-1.3-.1-1.9-.4-.6-.2-1.1-.6-1.5-1.1-.4-.4-.7-1-1-1.7s-.34-1.4-.34-2.3c0-.8.1-1.6.34-2.2.2-.6.54-1.2.94-1.7.4-.4.9-.8 1.43-1 .57-.22 1.2-.34 1.88-.34.7 0 1.3.1 1.87.37.58.2 1.07.6 1.48 1.03.4.44.7 1 .94 1.7.22.64.33 1.4.33 2.23 0 .85-.1 1.6-.34 2.3-.22.65-.53 1.23-.94 1.7-.46.5-.9.84-1.5 1.1-.57.24-1.2.37-1.88.37" fill="#E24329" mask="url(#af)"/>
    </g>
    <g transform="translate(34 88)">
      <mask id="ah" fill="#fff">
        <use xlink:href="#ag"/>
      </mask>
      <path d="M348.58 67.35c1.07 0 1.88-.3 2.46-.92.57-.6.85-1.57.85-2.86 0-1.28-.3-2.2-.9-2.8-.6-.58-1.4-.88-2.5-.88h-.8v7.4h.8m-2.7-9h2.8c1.6 0 2.8.4 3.7 1.3.9.8 1.34 2.1 1.34 3.8 0 .86-.13 1.62-.36 2.3-.23.64-.56 1.2-1 1.64-.4.43-.94.76-1.56 1-.64.2-1.34.32-2.1.32h-2.9V58.4" fill="#E24329" mask="url(#ah)"/>
    </g>
    <g transform="translate(34 88)">
      <mask id="aj" fill="#fff">
        <use xlink:href="#ai"/>
      </mask>
      <path fill="#E24329" mask="url(#aj)" d="M355.8 58.4h6.3v1.55h-4.43v2.68h3.76v1.57h-3.76v3.08h4.6v1.57h-6.46"/>
    </g>
    <g transform="translate(34 88)">
      <mask id="al" fill="#fff">
        <use xlink:href="#ak"/>
      </mask>
      <path d="M451.4 28c-2.76 0-5-2.24-5-5s2.24-5 5-5 5 2.24 5 5-2.24 5-5 5m7-6c-.03 0-.05 0-.08.02-.48-3.4-3.4-6.02-6.92-6.02s-6.44 2.62-6.92 6.02l-.08-.02h-8c-.55 0-1 .45-1 1s.45 1 1 1h8c.03 0 .05 0 .08-.02.48 3.4 3.4 6.02 6.92 6.02s6.44-2.62 6.92-6.02l.08.02h8c.55 0 1-.45 1-1s-.45-1-1-1h-8" fill="#E24329" mask="url(#al)"/>
    </g>
    <g transform="translate(34 88)">
      <mask id="an" fill="#fff">
        <use xlink:href="#am"/>
      </mask>
      <path d="M467.8 6.6c.4.36.6.87.6 1.4 0 .53-.2 1.04-.6 1.4-.75.77-2.06.77-2.82 0-.38-.36-.58-.87-.58-1.4 0-.53.2-1.04.58-1.4.38-.4.88-.6 1.42-.6.53 0 1.03.2 1.4.6m4.92 7.77c-.2-.5-.8-.76-1.3-.55-.5.2-.76.8-.55 1.3 1 2.5 1.53 5.16 1.53 7.88 0 11.58-9.42 21-21 21s-21-9.42-21-21 9.42-21 21-21c4.25 0 8.3 1.27 11.78 3.64-.5.68-.78 1.5-.78 2.36 0 1.07.4 2.07 1.17 2.83.75.75 1.76 1.17 2.83 1.17 1.06 0 2.07-.42 2.82-1.17.76-.76 1.18-1.76 1.18-2.83s-.42-2.07-1.18-2.83c-1.14-1.14-2.93-1.42-4.4-.83C460.9 1.5 456.28 0 451.4 0c-12.7 0-23 10.32-23 23s10.3 23 23 23c12.68 0 23-10.32 23-23 0-2.98-.57-5.88-1.68-8.63" fill="#E24329" mask="url(#an)"/>
    </g>
    <g transform="translate(34 88)">
      <mask id="ap" fill="#fff">
        <use xlink:href="#ao"/>
      </mask>
      <path d="M424.02 63.65c0-.85.13-1.62.38-2.3.25-.67.6-1.25 1.03-1.72.44-.47.95-.82 1.53-1.07.6-.24 1.22-.37 1.9-.37.63 0 1.2.1 1.7.4.52.2.94.5 1.27.9l-1.04 1.1c-.3-.3-.6-.5-.9-.7-.3-.18-.7-.26-1.1-.26-.5 0-.9.1-1.2.26-.4.2-.7.44-.9.77-.3.3-.5.7-.6 1.2-.2.44-.3.96-.3 1.55 0 1.2.22 2.1.8 2.8.5.7 1.2 1 2.1 1 .4 0 .82-.1 1.2-.3.3-.18.7-.43 1-.76l1 1.1c-.46.5-.9.85-1.5 1.1-.53.26-1.14.4-1.8.4-.67 0-1.3-.13-1.87-.36-.6-.23-1.1-.6-1.5-1.04-.46-.45-.8-1-1-1.7-.3-.66-.4-1.43-.4-2.3" fill="#E24329" mask="url(#ap)"/>
    </g>
    <g transform="translate(34 88)">
      <mask id="ar" fill="#fff">
        <use xlink:href="#aq"/>
      </mask>
      <path d="M437.5 67.43c.4 0 .78-.1 1.1-.27.34-.18.62-.44.86-.78.23-.33.4-.74.54-1.2.13-.5.2-1.02.2-1.6 0-1.18-.25-2.1-.73-2.77-.5-.6-1.15-1-1.98-1-.9 0-1.5.4-2 1-.5.7-.7 1.6-.7 2.8 0 .6 0 1.1.1 1.6s.3.9.5 1.2c.2.4.5.6.8.8.33.2.7.3 1.12.3m0 1.6c-.7 0-1.33-.1-1.9-.4-.57-.2-1.05-.6-1.46-1.1-.4-.4-.73-1-.95-1.7-.24-.7-.35-1.4-.35-2.3 0-.8.1-1.6.35-2.2.2-.6.53-1.2.93-1.7.4-.4.9-.8 1.46-1 .53-.22 1.2-.34 1.84-.34.66 0 1.3.1 1.85.37.57.2 1.06.6 1.47 1.03.4.44.7 1 .95 1.7.22.64.33 1.4.33 2.23 0 .85-.1 1.6-.3 2.3-.23.65-.54 1.23-.95 1.7-.4.5-.9.84-1.42 1.1-.55.24-1.2.37-1.86.37" fill="#E24329" mask="url(#ar)"/>
    </g>
    <g transform="translate(34 88)">
      <mask id="at" fill="#fff">
        <use xlink:href="#as"/>
      </mask>
      <path d="M444.14 58.4h2.05l1.8 5.14.7 2 .64-2 1.85-5.15h2.03v10.4h-1.76v-5.6l.06-.9.07-.9.1-.8h-.06l-.84 2.4-1.83 4.7h-.87l-1.8-4.75-.84-2.4h-.06l.06.8.1.86.06.87v5.57H444V58.4" fill="#E24329" mask="url(#at)"/>
    </g>
    <g transform="translate(34 88)">
      <mask id="av" fill="#fff">
        <use xlink:href="#au"/>
      </mask>
      <path d="M455.95 58.4H458l1.9 5.14.67 2h.07l.67-2 1.9-5.15h2.1v10.4h-1.7v-5.6c0-.3.1-.6.1-.9l.1-.9.1-.8h-.06L463 63l-1.8 4.7h-.9l-1.8-4.76-.84-2.4h-.06l.07.8.1.86.08.87.04.8v4.77H456V58.4" fill="#E24329" mask="url(#av)"/>
    </g>
    <g transform="translate(34 88)">
      <mask id="ax" fill="#fff">
        <use xlink:href="#aw"/>
      </mask>
      <path fill="#E24329" mask="url(#ax)" d="M467.75 68.85h1.86V58.4h-1.8"/>
    </g>
    <g transform="translate(34 88)">
      <mask id="az" fill="#fff">
        <use xlink:href="#ay"/>
      </mask>
      <path fill="#E24329" mask="url(#az)" d="M474.26 59.95h-3.02V58.4h7.9v1.55h-3.02v8.9h-1.86"/>
    </g>
    <g transform="translate(34 88)">
      <mask id="aB" fill="#fff">
        <use xlink:href="#aA"/>
      </mask>
      <path d="M554.75 5h26c.55 0 1-.45 1-1s-.45-1-1-1h-26c-.55 0-1 .45-1 1s.45 1 1 1" fill="#E24329" mask="url(#aB)"/>
    </g>
    <g transform="translate(34 88)">
      <mask id="aD" fill="#fff">
        <use xlink:href="#aC"/>
      </mask>
      <path d="M554.75 9h14c.55 0 1-.45 1-1s-.45-1-1-1h-14c-.55 0-1 .45-1 1s.45 1 1 1" fill="#E24329" mask="url(#aD)"/>
    </g>
    <g transform="translate(34 88)">
      <mask id="aF" fill="#fff">
        <use xlink:href="#aE"/>
      </mask>
      <path d="M541.32 9.2c.07.06.14.1.2.13l.12.07c.12.04.24.06.36.06.13 0 .27-.03.4-.08l.1-.07c.08 0 .16 0 .23-.1l2.72-2.9c.37-.4.35-1-.06-1.4-.4-.3-1.1-.3-1.5.1l-2.1 2.2-.5-.4c-.4-.4-1.03-.3-1.4.1-.37.4-.34 1.05.07 1.4l1.2 1.08" fill="#E24329" mask="url(#aF)"/>
    </g>
    <g transform="translate(34 88)">
      <mask id="aH" fill="#fff">
        <use xlink:href="#aG"/>
      </mask>
      <path d="M542.75 2c2.76 0 5 2.24 5 5s-2.24 5-5 5-5-2.24-5-5 2.24-5 5-5m0 12c3.86 0 7-3.14 7-7s-3.14-7-7-7-7 3.14-7 7 3.14 7 7 7" fill="#E24329" mask="url(#aH)"/>
    </g>
    <g transform="translate(34 88)">
      <mask id="aJ" fill="#fff">
        <use xlink:href="#aI"/>
      </mask>
      <path d="M580.75 20h-26c-.55 0-1 .45-1 1s.45 1 1 1h26c.55 0 1-.45 1-1s-.45-1-1-1" fill="#E24329" mask="url(#aJ)"/>
    </g>
    <g transform="translate(34 88)">
      <mask id="aL" fill="#fff">
        <use xlink:href="#aK"/>
      </mask>
      <path d="M554.75 26h14c.55 0 1-.45 1-1s-.45-1-1-1h-14c-.55 0-1 .45-1 1s.45 1 1 1" fill="#E24329" mask="url(#aL)"/>
    </g>
    <g transform="translate(34 88)">
      <mask id="aN" fill="#fff">
        <use xlink:href="#aM"/>
      </mask>
      <path d="M543.98 20.86l-2.04 2.2-.46-.4c-.4-.38-1.04-.35-1.4.06-.38.4-.35 1.05.06 1.42l1.18 1.06c.07.06.14.1.2.13l.12.07c.12.04.24.06.36.06.13 0 .27-.03.4-.08l.1-.07c.08 0 .16 0 .23-.1l2.72-2.9c.37-.4.35-1-.06-1.4-.4-.3-1.1-.3-1.5.1" fill="#E24329" mask="url(#aN)"/>
    </g>
    <g transform="translate(34 88)">
      <mask id="aP" fill="#fff">
        <use xlink:href="#aO"/>
      </mask>
      <path d="M542.76 28c-2.76 0-5-2.24-5-5s2.24-5 5-5 5 2.24 5 5-2.24 5-5 5m0-12c-3.86 0-7 3.14-7 7s3.14 7 7 7 7-3.14 7-7-3.14-7-7-7" fill="#E24329" mask="url(#aP)"/>
    </g>
    <g transform="translate(34 88)">
      <mask id="aR" fill="#fff">
        <use xlink:href="#aQ"/>
      </mask>
      <path d="M543.98 36.86l-2.04 2.2-.46-.4c-.4-.38-1.04-.35-1.4.06-.38.4-.35 1.05.06 1.4l1.18 1.08c.07.06.14.1.2.13l.12.07c.12.04.24.06.36.06.13 0 .27-.03.4-.08l.1-.07c.08 0 .16 0 .23-.1l2.72-2.9c.37-.4.35-1-.06-1.4-.4-.3-1.1-.3-1.5.1" fill="#E24329" mask="url(#aR)"/>
    </g>
    <g transform="translate(34 88)">
      <mask id="aT" fill="#fff">
        <use xlink:href="#aS"/>
      </mask>
      <path d="M542.76 44c-2.76 0-5-2.24-5-5s2.24-5 5-5 5 2.24 5 5-2.24 5-5 5m0-12c-3.86 0-7 3.14-7 7s3.14 7 7 7 7-3.14 7-7-3.14-7-7-7" fill="#E24329" mask="url(#aT)"/>
    </g>
    <g transform="translate(34 88)">
      <mask id="aV" fill="#fff">
        <use xlink:href="#aU"/>
      </mask>
      <path d="M580.75 37h-26c-.55 0-1 .45-1 1s.45 1 1 1h26c.55 0 1-.45 1-1s-.45-1-1-1" fill="#E24329" mask="url(#aV)"/>
    </g>
    <g transform="translate(34 88)">
      <mask id="aX" fill="#fff">
        <use xlink:href="#aW"/>
      </mask>
      <path d="M568.75 41h-14c-.55 0-1 .45-1 1s.45 1 1 1h14c.55 0 1-.45 1-1s-.45-1-1-1" fill="#E24329" mask="url(#aX)"/>
    </g>
    <g transform="translate(34 88)">
      <mask id="aZ" fill="#fff">
        <use xlink:href="#aY"/>
      </mask>
      <path fill="#E24329" mask="url(#aZ)" d="M544.78 59.95h-3.02V58.4h7.9v1.55h-3.02v8.9h-1.86"/>
    </g>
    <g transform="translate(34 88)">
      <mask id="bb" fill="#fff">
        <use xlink:href="#ba"/>
      </mask>
      <path fill="#E24329" mask="url(#bb)" d="M551.3 58.4h6.3v1.55h-4.46v2.68h3.76v1.57h-3.76v3.08h4.6v1.57h-6.45"/>
    </g>
    <g transform="translate(34 88)">
      <mask id="bd" fill="#fff">
        <use xlink:href="#bc"/>
      </mask>
      <path d="M560.3 66.24c.37.35.8.64 1.28.86.48.22.96.33 1.44.33.6 0 1.05-.13 1.36-.37.3-.25.47-.57.47-.98 0-.2-.05-.4-.13-.54-.08-.15-.2-.28-.33-.4l-.6-.3-.7-.3-1.48-.62c-.27-.1-.5-.24-.77-.4-.25-.16-.48-.35-.68-.58-.2-.22-.4-.48-.5-.78-.1-.3-.2-.64-.2-1.02 0-.42.1-.8.26-1.16.2-.36.42-.67.73-.94.3-.27.66-.47 1.1-.62.42-.15.9-.23 1.4-.23.6 0 1.2.1 1.75.3.56.2 1.05.5 1.45.9l-.98 1.2c-.35-.3-.7-.5-1.07-.7-.33-.18-.73-.26-1.2-.26-.5 0-.9.1-1.2.33-.3.2-.43.5-.43.9 0 .2.06.37.15.5.1.15.23.3.4.4l.52.3c.2.1.4.2.6.26l1.42.6c.3.15.6.3.84.47.2.17.43.37.62.6.2.2.34.48.45.77.1.3.15.64.15 1.03 0 .43-.1.83-.25 1.2-.2.38-.44.7-.76 1s-.7.5-1.2.67c-.44.2-1 .28-1.55.28-.74 0-1.4-.1-2.07-.4-.66-.24-1.24-.6-1.74-1.1l1.1-1.28" fill="#E24329" mask="url(#bd)"/>
    </g>
    <g transform="translate(34 88)">
      <mask id="bf" fill="#fff">
        <use xlink:href="#be"/>
      </mask>
      <path fill="#E24329" mask="url(#bf)" d="M570.86 59.95h-3.02V58.4h7.9v1.55h-3.03v8.9h-1.8"/>
    </g>
    <g transform="translate(34 88)">
      <mask id="bh" fill="#fff">
        <use xlink:href="#bg"/>
      </mask>
      <path d="M660.26 19.7c-.28-.5-.9-.66-1.37-.38l-6.6 3.82c-.3.17-.5.5-.5.86s.2.7.5.87l6.6 3.8c.1.1.3.14.5.14.3 0 .6-.1.8-.5.3-.4.1-1-.4-1.3l-5.1-3 5.1-2.9c.43-.2.6-.9.32-1.3" fill="#E24329" mask="url(#bh)"/>
    </g>
    <g transform="translate(34 88)">
      <mask id="bj" fill="#fff">
        <use xlink:href="#bi"/>
      </mask>
      <path d="M671.94 28.3c.2.33.52.5.87.5.2 0 .4-.03.5-.12l6.6-3.82c.3-.17.5-.5.5-.86s-.2-.7-.5-.87l-6.6-3.8c-.4-.3-1-.12-1.3.36-.3.4-.1 1 .4 1.3l5.1 2.9-5.1 2.9c-.4.24-.6.9-.3 1.33" fill="#E24329" mask="url(#bj)"/>
    </g>
    <g transform="translate(34 88)">
      <mask id="bl" fill="#fff">
        <use xlink:href="#bk"/>
      </mask>
      <path d="M668.1 15.03l-5.9 17.3c-.18.52.1 1.08.63 1.26h.32c.42 0 .8-.3.95-.7l5.88-17.3c.18-.5-.1-1.1-.62-1.3-.52-.2-1.1.1-1.27.6" fill="#E24329" mask="url(#bl)"/>
    </g>
    <g transform="translate(34 88)">
      <mask id="bn" fill="#fff">
        <use xlink:href="#bm"/>
      </mask>
      <path d="M682.5 6.6c.4.36.6.87.6 1.4 0 .53-.2 1.04-.6 1.4-.75.77-2.06.77-2.82 0-.38-.36-.58-.87-.58-1.4 0-.53.2-1.04.58-1.4.38-.4.88-.6 1.42-.6.53 0 1.03.2 1.4.6m4.92 7.77c-.2-.5-.8-.76-1.3-.55-.5.2-.76.8-.55 1.3 1 2.5 1.53 5.16 1.53 7.88 0 11.58-9.43 21-21 21-11.58 0-21-9.42-21-21s9.42-21 21-21c4.25 0 8.3 1.27 11.78 3.64-.5.68-.78 1.5-.78 2.36 0 1.07.4 2.07 1.17 2.83.75.75 1.76 1.17 2.83 1.17 1.06 0 2.07-.42 2.82-1.17.76-.76 1.18-1.76 1.18-2.83s-.42-2.07-1.18-2.83c-1.14-1.14-2.93-1.42-4.4-.83C675.6 1.5 670.98 0 666.1 0c-12.7 0-23 10.32-23 23s10.3 23 23 23c12.68 0 23-10.32 23-23 0-2.98-.57-5.88-1.68-8.63" fill="#E24329" mask="url(#bn)"/>
    </g>
    <g transform="translate(34 88)">
      <mask id="bp" fill="#fff">
        <use xlink:href="#bo"/>
      </mask>
      <path d="M642.78 63.28h1.5c.7 0 1.25-.15 1.63-.45.4-.3.6-.74.6-1.34 0-.7-.2-1.1-.5-1.3-.3-.3-.9-.4-1.6-.4h-1.5v3.4m3.9 5.6l-2.24-4.1h-1.6v4.1H641V58.4h3.53c.53 0 1.04.06 1.5.16s.88.28 1.23.52c.34.24.6.56.8.96.2.4.3.88.3 1.47 0 .8-.2 1.4-.57 1.9-.4.5-.9.9-1.5 1.1l2.5 4.4h-2.1" fill="#E24329" mask="url(#bp)"/>
    </g>
    <g transform="translate(34 88)">
      <mask id="br" fill="#fff">
        <use xlink:href="#bq"/>
      </mask>
      <path fill="#E24329" mask="url(#br)" d="M650.4 58.4h6.3v1.55h-4.44v2.68h3.76v1.57h-3.76v3.08h4.6v1.57h-6.46"/>
    </g>
    <g transform="translate(34 88)">
      <mask id="bt" fill="#fff">
        <use xlink:href="#bs"/>
      </mask>
      <path d="M657.92 58.4h1.97l1.4 5.25.4 1.7c.1.53.3 1.1.42 1.7h.05c.17-.6.33-1.17.46-1.7l.43-1.7 1.45-5.26h1.9l-3.24 10.4H661l-3.25-10.5" fill="#E24329" mask="url(#bt)"/>
    </g>
    <g transform="translate(34 88)">
      <mask id="bv" fill="#fff">
        <use xlink:href="#bu"/>
      </mask>
      <path fill="#E24329" mask="url(#bv)" d="M668 68.85h1.86V58.4H668"/>
    </g>
    <g transform="translate(34 88)">
      <mask id="bx" fill="#fff">
        <use xlink:href="#bw"/>
      </mask>
      <path fill="#E24329" mask="url(#bx)" d="M672.4 58.4h6.3v1.55h-4.45v2.68H678v1.57h-3.75v3.08h4.6v1.57h-6.45"/>
    </g>
    <g transform="translate(34 88)">
      <mask id="bz" fill="#fff">
        <use xlink:href="#by"/>
      </mask>
      <path d="M680.1 58.4h1.9l.9 5.27c.1.57.18 1.13.26 1.68.1.56.17 1.1.26 1.66h.06l.35-1.6.34-1.6 1.28-5.3h1.62l1.28 5.3c.1.57.23 1.1.35 1.7l.35 1.67h.06l.3-1.65.3-1.65.9-5.28h1.8l-2 10.44H688l-1.3-5.5c-.1-.4-.17-.8-.25-1.2l-.22-1.2h-.06l-.23 1.2-.25 1.2-1.3 5.5h-2.3l-2-10.5" fill="#E24329" mask="url(#bz)"/>
    </g>
    <g transform="translate(34 88)">
      <mask id="bB" fill="#fff">
        <use xlink:href="#bA"/>
      </mask>
      <path d="M768.44 18c0 .8-.3 1.55-.88 2.12-1.13 1.13-3.1 1.13-4.24 0-.57-.57-.88-1.32-.88-2.12s.3-1.55.88-2.12c.56-.57 1.32-.88 2.12-.88s1.55.3 2.12.88c.57.56.88 1.32.88 2.12M788 32.7l-5.66-6.47c.18-2.24.27-4.2.28-5.97 0-8.36-2.24-13.9-7.93-19.75-.4-.3-.8-.5-1.3-.5s-1 .2-1.3.6c-4.2 4.3-6.3 8-7.3 12.5-1.2.1-2.2.6-3 1.4-1 1-1.5 2.2-1.5 3.6s.5 2.6 1.44 3.6 2.2 1.48 3.55 1.48c1.33 0 2.6-.5 3.53-1.45.9-.95 1.43-2.2 1.43-3.54 0-1.34-.5-2.6-1.44-3.54-.6-.56-1.3-.96-2.06-1.2.9-4.04 2.75-7.23 6.5-11.14 5.18 5.4 7.2 10.5 7.2 18.2 0 1.8-.1 3.86-.3 6.24 0 .24.08.5.26.7l5.86 6.7-2.6 10.1H782l-3.1-6c-.2-.33-.54-.54-.9-.54h-9.3c-.4 0-.74.2-.9.53l-3.1 6H763L760.42 34l5.87-6.7c.3-.4.3-1.05-.1-1.4-.4-.37-1.1-.33-1.4.08l-6 6.84c-.4.4-.5 1-.4 1.57l2.6 10.3c.2.7.8 1.3 1.7 1.3h2.1c.4 0 .9-.2 1.2-.6.06-.07.2-.2.3-.4l2.9-5.6h8.1l2.9 5.6c.3.56.82.9 1.5.95h2.2c.45 0 .87-.2 1.17-.5.22-.26.36-.5.44-.8l2.66-10.4c.1-.55 0-1.1-.4-1.58" fill="#E24329" mask="url(#bB)"/>
    </g>
    <g transform="translate(34 88)">
      <mask id="bD" fill="#fff">
        <use xlink:href="#bC"/>
      </mask>
      <path d="M745 66.24c.37.35.8.64 1.28.86.48.22.96.33 1.44.33.6 0 1.05-.13 1.36-.37.3-.25.46-.57.46-.98 0-.2-.04-.4-.12-.54-.08-.15-.2-.28-.33-.4l-.6-.3-.7-.3-1.48-.62c-.27-.1-.5-.24-.77-.4-.25-.16-.48-.35-.68-.58-.2-.22-.4-.48-.5-.78-.1-.3-.2-.64-.2-1.02 0-.42.08-.8.26-1.16.2-.36.42-.67.73-.94.3-.27.66-.47 1.1-.62.42-.15.9-.23 1.4-.23.6 0 1.2.1 1.75.3.56.2 1.05.5 1.45.9l-.98 1.2c-.35-.3-.7-.5-1.07-.7-.33-.18-.74-.26-1.2-.26-.5 0-.9.1-1.2.33-.3.2-.43.5-.43.9 0 .2.06.37.15.5.1.15.23.3.4.4l.52.3c.2.1.4.2.6.26l1.42.6c.3.15.6.3.83.47.22.17.5.37.63.6.2.2.33.48.44.77.1.3.16.64.16 1.03 0 .43-.1.83-.27 1.2-.17.38-.42.7-.74 1-.34.3-.73.5-1.2.67-.46.2-1 .28-1.57.28-.7 0-1.4-.1-2.04-.4-.64-.24-1.22-.6-1.72-1.1l1.1-1.28" fill="#E24329" mask="url(#bD)"/>
    </g>
    <g transform="translate(34 88)">
      <mask id="bF" fill="#fff">
        <use xlink:href="#bE"/>
      </mask>
      <path fill="#E24329" mask="url(#bF)" d="M755.55 59.95h-3.02V58.4h7.9v1.55h-3.03v8.9h-1.85"/>
    </g>
    <g transform="translate(34 88)">
      <mask id="bH" fill="#fff">
        <use xlink:href="#bG"/>
      </mask>
      <path d="M765.78 64.56l-.37-1.28-.4-1.7-.4-1.76h-.03l-.43 1.76c-.17.58-.3 1.15-.5 1.7l-.4 1.28h2.7m.42 1.46h-3.52l-.8 2.83h-2l3.4-10.47h2.18l3.4 10.47h-1.93l-.8-2.83" fill="#E24329" mask="url(#bH)"/>
    </g>
    <g transform="translate(34 88)">
      <mask id="bJ" fill="#fff">
        <use xlink:href="#bI"/>
      </mask>
      <path d="M769.5 63.65c0-.85.12-1.62.37-2.3.26-.67.6-1.25 1.06-1.72.45-.47.98-.82 1.58-1.07.7-.24 1.3-.37 2-.37.4 0 .7 0 1 .1.3 0 .6.1.9.3.3.1.5.2.7.4.2.1.4.3.6.5l-1 1.1c-.3-.3-.5-.5-.9-.6-.3-.2-.7-.3-1.2-.3-.4 0-.9.1-1.2.2-.4.2-.7.44-1 .77-.25.3-.5.7-.6 1.2-.15.44-.23.96-.23 1.55 0 1.2.28 2.12.8 2.8.56.7 1.36 1.02 2.4 1.02.3 0 .6-.06.86-.14.25-.04.5-.2.64-.3v-2.2h-2v-1.5h3.66v4.6c-.34.33-.8.6-1.4.86-.6.23-1.25.35-1.97.35-.7 0-1.33-.1-1.93-.3-.6-.3-1.1-.6-1.53-1.1-.44-.47-.8-1-1.03-1.7-.23-.68-.35-1.45-.35-2.3" fill="#E24329" mask="url(#bJ)"/>
    </g>
    <g transform="translate(34 88)">
      <mask id="bL" fill="#fff">
        <use xlink:href="#bK"/>
      </mask>
      <path fill="#E24329" mask="url(#bL)" d="M780.07 68.85h1.85V58.4h-1.85"/>
    </g>
    <g transform="translate(34 88)">
      <mask id="bN" fill="#fff">
        <use xlink:href="#bM"/>
      </mask>
      <path d="M784.46 58.4h1.9l3.27 5.88 1.07 2.22h.06l-.15-1.75V58.4h1.8v10.45h-1.9l-3.2-5.88-1.06-2.23h-.1l.16 1.75c.05.6.1 1.2.1 1.7v4.5h-1.8V58.4" fill="#E24329" mask="url(#bN)"/>
    </g>
    <g transform="translate(34 88)">
      <mask id="bP" fill="#fff">
        <use xlink:href="#bO"/>
      </mask>
      <path d="M794.33 63.65c0-.85.13-1.62.38-2.3.3-.67.7-1.25 1.1-1.72.5-.47 1-.82 1.6-1.07.6-.24 1.3-.37 2-.37.4 0 .7 0 1 .1.3 0 .6.1.9.3.3.1.5.2.7.4.2.1.4.3.6.5l-1 1.1c-.27-.3-.56-.5-.87-.6-.32-.2-.72-.3-1.2-.3s-.9.1-1.3.2c-.4.2-.7.44-1 .77-.25.3-.5.7-.6 1.2-.16.44-.23.96-.23 1.55 0 1.2.26 2.12.8 2.8.54.7 1.34 1.02 2.4 1.02.3 0 .6-.06.84-.14.28-.04.5-.2.67-.3v-2.2h-1.96v-1.5h3.63v4.6c-.3.33-.8.6-1.4.86-.6.23-1.2.35-1.94.35-.66 0-1.3-.1-1.9-.3-.6-.3-1.1-.6-1.56-1.1-.42-.47-.76-1-1-1.7-.25-.68-.37-1.45-.37-2.3" fill="#E24329" mask="url(#bP)"/>
    </g>
    <g transform="translate(34 88)">
      <mask id="bR" fill="#fff">
        <use xlink:href="#bQ"/>
      </mask>
      <path d="M859.96 44c.42-1.27 1.6-2.17 3-2.17.86 0 1.67.34 2.27.97.23.23.57.35.9.3.33-.07.6-.3.74-.6.98-2.2 3.18-3.65 5.6-3.65 1.6 0 3.1.6 4.24 1.7.3.27.7.35 1.1.23.4-.12.6-.43.7-.8l1.5-10.05h1.9l1.5 10.05c.03.37.3.68.64.8.37.12.76.04 1.03-.22 1.14-1.1 2.64-1.7 4.2-1.7 2.44 0 4.64 1.43 5.6 3.65.16.3.44.6.77.6.3.1.64 0 .9-.3.6-.6 1.4-.9 2.25-.9 1.4 0 2.57.9 3 2.2H860m16.83-30c0 .6-.2 1.1-.6 1.4-.75.8-2.07.8-2.83 0-.38-.3-.6-.8-.6-1.4 0-.5.2-1 .57-1.4.38-.4.88-.6 1.42-.6.5 0 1 .2 1.4.6.4.4.6.9.6 1.4M898.6 40c-1 0-1.9.26-2.7.75-1.5-2.3-4-3.73-6.8-3.73-1.5 0-3 .4-4.2 1.17l-1.2-8.1 2.2 4.3c.2.47.7.77 1.4.8h1.7c.4-.02.7-.2 1-.47.2-.2.3-.45.4-.7l2.02-7.84c.1-.5-.05-1-.38-1.4l-4.28-4.8c.12-1.65.2-3.1.2-4.4 0-6.37-1.73-10.57-6.15-15-.53-.6-1.6-.57-2.2.04-3.3 3.3-4.92 6.1-5.65 9.66-.74.13-1.46.5-2 1.05-.78.74-1.2 1.75-1.2 2.8 0 1.07.4 2.1 1.2 2.83.77.75 1.78 1.17 2.85 1.17s2.1-.4 2.84-1.18c.74-.72 1.16-1.73 1.16-2.8s-.4-2.07-1.16-2.82c-.47-.43-1-.73-1.6-.92.64-2.9 2.03-5.27 4.76-8.08 3.85 3.97 5.28 7.62 5.3 13.3 0 1.38-.1 2.9-.2 4.7-.05.26.04.53.23.74l4.4 4.9-1.9 7.24h-1.03l-2.3-4.6c-.16-.37-.5-.6-.9-.6h-7.12c-.35 0-.7.2-.9.57l-2.3 4.6H873l-1.9-7.3 4.4-4.9c.38-.4.34-1.04-.07-1.4-.4-.36-1.04-.33-1.4.1l-4.6 5.13c-.3.37-.43.9-.32 1.4l2.1 7.8c.2.7.8 1.17 1.6 1.2h1.6c.4 0 .8-.2 1.1-.46.1-.07.2-.2.3-.4l2.2-4.3-1.2 8.1c-1.22-.76-2.65-1.17-4.15-1.17-2.8 0-5.35 1.43-6.84 3.73-.8-.5-1.72-.78-2.7-.78-2.83 0-5.14 2.3-5.14 5.18 0 .5.48 1 1 1h44c.58 0 1-.5 1-1 0-2.9-2.3-5.2-5.13-5.2" fill="#E24329" mask="url(#bR)"/>
    </g>
    <g transform="translate(34 88)">
      <mask id="bT" fill="#fff">
        <use xlink:href="#bS"/>
      </mask>
      <path d="M838.83 63.52c1.54 0 2.3-.64 2.3-1.9 0-.66-.2-1.12-.57-1.37-.4-.25-.96-.38-1.73-.38h-1.52v3.65h1.6m-3.4-5.14h3.5c.6 0 1.1.06 1.6.16s.9.3 1.3.55c.4.2.7.5.9 1 .2.4.3.9.3 1.5 0 .5-.1 1-.3 1.5-.2.4-.5.8-.85 1-.34.3-.76.5-1.25.6-.5.1-1 .2-1.58.2h-1.62v3.8h-1.88V58.4" fill="#E24329" mask="url(#bT)"/>
    </g>
    <g transform="translate(34 88)">
      <mask id="bV" fill="#fff">
        <use xlink:href="#bU"/>
      </mask>
      <path d="M846.55 63.28h1.5c.7 0 1.25-.15 1.63-.45.38-.3.57-.74.57-1.34 0-.7-.2-1.1-.57-1.3-.38-.3-.93-.4-1.64-.4h-1.5v3.4m3.87 5.6l-2.2-4.1h-1.6v4.1h-1.8V58.4h3.6c.55 0 1.06.06 1.5.16s.9.28 1.2.52c.38.24.6.56.8.96.2.4.3.88.3 1.47 0 .8-.2 1.4-.53 1.9-.37.5-.87.9-1.5 1.1l2.5 4.4h-2.1" fill="#E24329" mask="url(#bV)"/>
    </g>
    <g transform="translate(34 88)">
      <mask id="bX" fill="#fff">
        <use xlink:href="#bW"/>
      </mask>
      <path d="M858.2 67.43c.43 0 .8-.1 1.13-.27.33-.18.6-.44.85-.78.23-.33.4-.74.54-1.2.13-.5.2-1.02.2-1.6 0-1.18-.25-2.1-.73-2.77-.5-.6-1.2-1-2-1-.9 0-1.5.4-2 1-.5.7-.7 1.6-.7 2.8 0 .6 0 1.1.2 1.6.1.5.3.9.5 1.2.2.4.5.6.8.8.3.2.7.3 1.1.3m0 1.6c-.7 0-1.3-.1-1.9-.4-.6-.2-1.1-.6-1.5-1.1-.4-.4-.7-1-.94-1.7-.2-.7-.3-1.4-.3-2.3 0-.8.1-1.6.32-2.2.22-.6.54-1.2.94-1.7.4-.4.9-.8 1.44-1 .56-.22 1.2-.34 1.9-.34s1.3.1 1.85.37c.58.2 1.06.6 1.48 1.03.4.44.72 1 .95 1.7.2.64.3 1.4.3 2.23 0 .85-.1 1.6-.33 2.3-.2.65-.52 1.23-.93 1.7-.4.5-.9.84-1.47 1.1-.56.24-1.2.37-1.9.37" fill="#E24329" mask="url(#bX)"/>
    </g>
    <g transform="translate(34 88)">
      <mask id="bZ" fill="#fff">
        <use xlink:href="#bY"/>
      </mask>
      <path d="M867.53 67.35c1.07 0 1.88-.3 2.46-.92.5-.6.8-1.57.8-2.86 0-1.28-.3-2.2-.9-2.8-.6-.58-1.4-.88-2.5-.88h-.8v7.4h.8m-2.7-9h2.8c1.6 0 2.85.4 3.74 1.3.9.8 1.33 2.1 1.33 3.8 0 .86-.1 1.62-.35 2.3-.26.64-.6 1.2-1 1.64-.45.43-.97.76-1.6 1-.6.2-1.3.32-2.1.32h-2.87V58.4" fill="#E24329" mask="url(#bZ)"/>
    </g>
    <g transform="translate(34 88)">
      <mask id="cb" fill="#fff">
        <use xlink:href="#ca"/>
      </mask>
      <path d="M874.67 58.4h1.86v6c0 .57.05 1.05.15 1.44.1.4.24.7.43.94.2.23.5.4.7.5.3.1.6.15.9.15.3 0 .6-.05.9-.15.3-.1.5-.27.7-.5.2-.24.4-.55.5-.94.1-.4.2-.87.2-1.43v-6h1.76v5.9c0 .9-.1 1.6-.27 2.2-.2.6-.48 1.1-.8 1.5-.37.4-.8.7-1.27.9-.5.2-1.03.3-1.64.3-.6 0-1.17-.1-1.65-.25-.5-.2-.9-.47-1.23-.86-.34-.4-.6-.9-.8-1.5-.2-.6-.27-1.33-.27-2.2v-5.9" fill="#E24329" mask="url(#cb)"/>
    </g>
    <g transform="translate(34 88)">
      <mask id="cd" fill="#fff">
        <use xlink:href="#cc"/>
      </mask>
      <path d="M884.52 63.65c0-.85.13-1.62.38-2.3.25-.67.6-1.25 1.03-1.72.44-.47.95-.82 1.53-1.07.6-.24 1.22-.37 1.9-.37.63 0 1.2.1 1.7.4.52.2.94.5 1.27.9l-1.04 1.1c-.3-.3-.6-.5-.9-.7-.3-.18-.7-.26-1.1-.26-.5 0-.9.1-1.2.26-.4.2-.7.44-.9.77-.3.3-.5.7-.6 1.2-.2.44-.3.96-.3 1.55 0 1.2.22 2.1.8 2.8.5.7 1.2 1 2.1 1 .4 0 .82-.1 1.2-.3.3-.18.7-.43 1-.76l1 1.1c-.46.5-.9.85-1.5 1.1-.53.26-1.14.4-1.8.4-.67 0-1.3-.13-1.87-.36-.6-.23-1.1-.6-1.5-1.04-.46-.45-.8-1-1-1.7-.3-.66-.4-1.43-.4-2.3" fill="#E24329" mask="url(#cd)"/>
    </g>
    <g transform="translate(34 88)">
      <mask id="cf" fill="#fff">
        <use xlink:href="#ce"/>
      </mask>
      <path fill="#E24329" mask="url(#cf)" d="M896.62 59.95h-3.02V58.4h7.9v1.55h-3.02v8.9h-1.86"/>
    </g>
    <g transform="translate(34 88)">
      <mask id="ch" fill="#fff">
        <use xlink:href="#cg"/>
      </mask>
      <path fill="#E24329" mask="url(#ch)" d="M903.13 68.85h1.85V58.4h-1.85"/>
    </g>
    <g transform="translate(34 88)">
      <mask id="cj" fill="#fff">
        <use xlink:href="#ci"/>
      </mask>
      <path d="M911.65 67.43c.42 0 .8-.1 1.12-.27.33-.18.6-.44.85-.78.23-.33.4-.74.54-1.2.13-.5.2-1.02.2-1.6 0-1.18-.25-2.1-.73-2.77-.5-.6-1.15-1-1.98-1-.83 0-1.5.4-1.98 1-.48.7-.72 1.6-.72 2.8 0 .6.06 1.1.2 1.6.12.5.3.9.53 1.2.24.4.52.6.85.8.33.2.7.3 1.12.3m0 1.6c-.68 0-1.3-.1-1.87-.4-.57-.2-1.05-.6-1.46-1.1-.4-.4-.72-1-.94-1.7-.23-.7-.34-1.4-.34-2.3 0-.8.1-1.6.34-2.2.22-.6.54-1.2.94-1.7.4-.4.9-.8 1.46-1 .56-.22 1.2-.34 1.87-.34.68 0 1.3.1 1.87.37.57.2 1.06.6 1.47 1.03.4.44.7 1 .9 1.7.2.64.3 1.4.3 2.23 0 .85-.1 1.6-.4 2.3-.26.65-.57 1.23-.98 1.7-.4.5-.9.84-1.48 1.1-.58.24-1.2.37-1.9.37" fill="#E24329" mask="url(#cj)"/>
    </g>
    <g transform="translate(34 88)">
      <mask id="cl" fill="#fff">
        <use xlink:href="#ck"/>
      </mask>
      <path d="M918.3 58.4h1.9l3.27 5.88 1.07 2.22h.06l-.15-1.75c-.06-.62-.1-1.23-.1-1.82V58.4h1.8v10.45h-1.9l-3.28-5.88-1.07-2.23h-.06l.15 1.75v6.2h-1.8V58.4" fill="#E24329" mask="url(#cl)"/>
    </g>
    <g transform="translate(34 88)">
      <mask id="cn" fill="#fff">
        <use xlink:href="#cm"/>
      </mask>
      <path d="M989.15 2c1.1 0 2 .9 2 2s-.9 2-2 2-2-.9-2-2 .9-2 2-2m0 6c1.87 0 3.43-1.3 3.87-3.03h9.28c2.07 0 3.75 1.7 3.75 3.76v6.54c0 .55.45 1 1 1 .56 0 1-.45 1-1V8.73c0-3.18-2.58-5.76-5.75-5.76H993c-.46-1.7-2-2.97-3.85-2.97-2.2 0-4 1.8-4 4s1.8 4 4 4" fill="#E24329" mask="url(#cn)"/>
    </g>
    <g transform="translate(34 88)">
      <mask id="cp" fill="#fff">
        <use xlink:href="#co"/>
      </mask>
      <path d="M968.15 26c0 .55.45 1 1 1s1-.45 1-1v-2h2c.55 0 1-.45 1-1s-.45-1-1-1h-2v-2c0-.55-.45-1-1-1s-1 .45-1 1v2h-2c-.55 0-1 .45-1 1s.45 1 1 1h2v2" fill="#E24329" mask="url(#cp)"/>
    </g>
    <g transform="translate(34 88)">
      <mask id="cr" fill="#fff">
        <use xlink:href="#cq"/>
      </mask>
      <path d="M1010.15 22h-2v-2c0-.55-.45-1-1-1s-1 .45-1 1v2h-2c-.55 0-1 .45-1 1s.45 1 1 1h2v2c0 .55.45 1 1 1s1-.45 1-1v-2h2c.55 0 1-.45 1-1s-.45-1-1-1" fill="#E24329" mask="url(#cr)"/>
    </g>
    <g transform="translate(34 88)">
      <mask id="ct" fill="#fff">
        <use xlink:href="#cs"/>
      </mask>
      <path d="M977.98 22.15c-.3.18-.47.5-.47.85 0 .34.2.66.5.84l4.8 2.98c.2.1.4.15.6.15.37 0 .7-.17.9-.47.3-.47.13-1.1-.33-1.38L980.4 23l3.4-2.13c.47-.3.6-.9.32-1.38-.3-.5-.9-.7-1.38-.4l-4.76 2.9" fill="#E24329" mask="url(#ct)"/>
    </g>
    <g transform="translate(34 88)">
      <mask id="cv" fill="#fff">
        <use xlink:href="#cu"/>
      </mask>
      <path d="M998.07 23.85c.3-.2.47-.5.47-.85 0-.34-.18-.66-.47-.85l-4.76-2.97c-.4-.3-1-.15-1.3.32-.3.47-.1 1.08.3 1.38l3.4 2.12-3.4 2.13c-.4.3-.6.9-.3 1.37.2.3.5.47.9.47.2 0 .4-.05.57-.15l4.77-2.97" fill="#E24329" mask="url(#cv)"/>
    </g>
    <g transform="translate(34 88)">
      <mask id="cx" fill="#fff">
        <use xlink:href="#cw"/>
      </mask>
      <path d="M985.64 30.5c.1.03.2.04.3.04.43 0 .82-.27.96-.7l4.16-13.08c.17-.52-.13-1.08-.65-1.25-.5-.1-1 .2-1.2.7L985 29.3c-.18.52.1 1.1.64 1.25" fill="#E24329" mask="url(#cx)"/>
    </g>
    <g transform="translate(34 88)">
      <mask id="cz" fill="#fff">
        <use xlink:href="#cy"/>
      </mask>
      <path d="M969 16.27c.54 0 1-.45 1-1V8.73c0-2.07 1.68-3.76 3.75-3.76h5.6l-1.26 1.27c-.4.4-.4 1.02 0 1.4.2.2.4.3.7.3.2 0 .5-.1.7-.3l2.9-2.96c.4-.4.4-1.02 0-1.4l-3-3c-.4-.38-1-.38-1.4 0-.4.4-.4 1.04 0 1.43l1.3 1.3h-5.6c-3.2 0-5.8 2.6-5.8 5.8v6.6c0 .57.4 1 1 1" fill="#E24329" mask="url(#cz)"/>
    </g>
    <g transform="translate(34 88)">
      <mask id="cB" fill="#fff">
        <use xlink:href="#cA"/>
      </mask>
      <path d="M987.15 44c-1.1 0-2-.9-2-2s.9-2 2-2 2 .9 2 2-.9 2-2 2m0-6c-1.87 0-3.43 1.3-3.87 3.03h-9.53c-2.07 0-3.75-1.7-3.75-3.76v-6.54c0-.55-.45-1-1-1s-1 .45-1 1v6.54c0 3.18 2.58 5.76 5.75 5.76h9.55c.46 1.7 2 2.97 3.85 2.97 2.2 0 4-1.8 4-4s-1.8-4-4-4" fill="#E24329" mask="url(#cB)"/>
    </g>
    <g transform="translate(34 88)">
      <mask id="cD" fill="#fff">
        <use xlink:href="#cC"/>
      </mask>
      <path d="M1007.05 29.73c-.55 0-1 .45-1 1v6.54c0 2.07-1.7 3.76-3.76 3.76h-5.7l1.2-1.27c.4-.4.4-1.02 0-1.4-.4-.4-1.05-.4-1.4 0l-3 2.96c-.4.4-.4 1.02 0 1.4l2.96 3c.2.18.46.28.7.28.27 0 .53-.1.73-.3.4-.38.4-1.02 0-1.4l-1.28-1.27h5.6c3.2 0 5.76-2.6 5.76-5.76v-6.54c0-.55-.47-1-1-1" fill="#E24329" mask="url(#cD)"/>
    </g>
    <g transform="translate(34 88)">
      <mask id="cF" fill="#fff">
        <use xlink:href="#cE"/>
      </mask>
      <path fill="#E24329" mask="url(#cF)" d="M953.62 58.4h6.32v1.55h-4.46v2.97h3.8v1.56h-3.8v4.37h-1.86"/>
    </g>
    <g transform="translate(34 88)">
      <mask id="cH" fill="#fff">
        <use xlink:href="#cG"/>
      </mask>
      <path fill="#E24329" mask="url(#cH)" d="M961.6 58.4h6.3v1.55h-4.44v2.68h3.76v1.57h-3.76v3.08h4.6v1.57h-6.45"/>
    </g>
    <g transform="translate(34 88)">
      <mask id="cJ" fill="#fff">
        <use xlink:href="#cI"/>
      </mask>
      <path fill="#E24329" mask="url(#cJ)" d="M970 58.4h6.3v1.55h-4.44v2.68h3.76v1.57h-3.76v3.08h4.6v1.57H970"/>
    </g>
    <g transform="translate(34 88)">
      <mask id="cL" fill="#fff">
        <use xlink:href="#cK"/>
      </mask>
      <path d="M981.07 67.35c1.07 0 1.88-.3 2.46-.92.57-.6.85-1.57.85-2.86 0-1.28-.3-2.2-.86-2.8-.58-.58-1.4-.88-2.45-.88h-.82v7.4h.82m-2.67-9h2.8c1.6 0 2.85.4 3.74 1.3.9.8 1.35 2.1 1.35 3.8 0 .86-.2 1.62-.4 2.3-.3.64-.6 1.2-1 1.64-.4.43-1 .76-1.6 1-.6.2-1.3.32-2.1.32h-2.9V58.4" fill="#E24329" mask="url(#cL)"/>
    </g>
    <g transform="translate(34 88)">
      <mask id="cN" fill="#fff">
        <use xlink:href="#cM"/>
      </mask>
      <path d="M991.72 67.4c.77 0 1.36-.13 1.77-.42.4-.3.6-.73.6-1.33 0-.54-.2-.95-.6-1.2-.4-.27-1-.4-1.8-.4h-1.6v3.36h1.5m-.3-4.6c.75 0 1.28-.1 1.6-.4.33-.2.5-.6.5-1.1 0-.5-.17-.8-.5-1-.35-.2-.86-.3-1.55-.3H990v2.9h1.33m-3.18-4.33h3.3c.5 0 1 0 1.5.1.43.1.8.25 1.16.44.38.2.6.48.8.8.2.34.3.74.3 1.2 0 .5-.15 1-.45 1.4-.3.44-.76.73-1.37.9v.06c.72.1 1.3.4 1.7.8.4.4.6.94.6 1.65 0 .5-.1.95-.3 1.34-.2.37-.5.7-.85.95-.33.23-.76.42-1.25.55-.5.1-1 .2-1.6.2h-3.6V58.4" fill="#E24329" mask="url(#cN)"/>
    </g>
    <g transform="translate(34 88)">
      <mask id="cP" fill="#fff">
        <use xlink:href="#cO"/>
      </mask>
      <path d="M1002.4 64.56l-.36-1.28-.5-1.7-.44-1.76h-.07l-.44 1.76-.5 1.7-.4 1.28h2.6m.4 1.46h-3.57l-.8 2.83h-1.9l3.4-10.47h2.2l3.4 10.47h-1.95l-.8-2.83" fill="#E24329" mask="url(#cP)"/>
    </g>
    <g transform="translate(34 88)">
      <mask id="cR" fill="#fff">
        <use xlink:href="#cQ"/>
      </mask>
      <path d="M1006.13 63.65c0-.85.13-1.62.38-2.3.3-.67.6-1.25 1.1-1.72.5-.47 1-.82 1.6-1.07.6-.24 1.2-.37 1.9-.37.67 0 1.2.1 1.7.4.5.2.98.5 1.3.9l-1.03 1.1c-.26-.3-.54-.5-.85-.7-.3-.18-.65-.26-1.05-.26-.45 0-.85.1-1.2.26-.36.2-.67.44-.9.77-.3.3-.5.7-.6 1.2-.18.44-.26.96-.26 1.55 0 1.2.27 2.1.8 2.8.5.7 1.2 1 2.1 1 .47 0 .9-.1 1.23-.3.35-.18.68-.43.98-.76l1.04 1.1c-.45.5-.94.85-1.5 1.1-.52.26-1.13.4-1.8.4-.64 0-1.3-.13-1.84-.36-.6-.23-1.1-.6-1.5-1.04-.45-.45-.8-1-1-1.7-.28-.66-.4-1.43-.4-2.3" fill="#E24329" mask="url(#cR)"/>
    </g>
    <g transform="translate(34 88)">
      <mask id="cT" fill="#fff">
        <use xlink:href="#cS"/>
      </mask>
      <path fill="#E24329" mask="url(#cT)" d="M1015.76 58.4h1.86v4.74h.04l3.73-4.75h2l-3.2 4 3.7 6.4h-2.1l-2.8-5-1.5 1.9v3h-1.9"/>
    </g>
    <path d="M7 81c3.87 0 7-3.13 7-7s-3.13-7-7-7-7 3.13-7 7 3.13 7 7 7m0-2c-2.76 0-5-2.24-5-5s2.24-5 5-5 5 2.24 5 5-2.24 5-5 5m1077 2c3.87 0 7-3.13 7-7s-3.13-7-7-7-7 3.13-7 7 3.13 7 7 7m0-2c-2.76 0-5-2.24-5-5s2.24-5 5-5 5 2.24 5 5-2.24 5-5 5M487 30v-2H6v39h2V30m1075 37h2V28H604v2h479" fill="#E04733"/>
    <g fill="#E14329">
      <path d="M529 50c1.65 0 3 1.35 3 3s-1.35 3-3 3-3-1.35-3-3 1.35-3 3-3m47.16-18h-62.3c-3.78 0-6.85 3.1-6.85 6.93v8.14c0 3.82 3.1 6.93 6.9 6.93h10.3c.5 2.28 2.5 4 4.9 4 2.8 0 5-2.24 5-5s-2.2-5-5-5c-2.4 0-4.4 1.7-4.9 3.98h-10.3c-2.6 0-4.8-2.2-4.8-4.9v-8.15c0-2.7 2.2-4.9 4.9-4.9h62.3c2.67 0 4.84 2.2 4.84 4.9v8.14c0 2.7-2.17 4.9-4.84 4.9H542c-.57 0-1 .46-1 1.02 0 .5.43 1 1 1h34.3c3.76 0 6.83-3.1 6.83-7v-8.1c0-3.8-3.1-7-6.86-7"/>
      <path d="M567 46c-1.65 0-3-1.35-3-3s1.35-3 3-3 3 1.35 3 3-1.35 3-3 3m0-8c-2.4 0-4.43 1.72-4.9 4H519c-.56 0-1 .45-1 1s.44 1 1 1h43.1c.47 2.27 2.5 4 4.9 4 2.76 0 5-2.25 5-5 0-2.76-2.24-5-5-5M537 8c-1.65 0-3-1.35-3-3s1.35-3 3-3 3 1.35 3 3-1.35 3-3 3m39.16-4H541.9c-.46-2.28-2.48-4-4.9-4-2.76 0-5 2.24-5 5s2.24 5 5 5c2.4 0 4.42-1.7 4.9-3.97h34.25c2.68 0 4.85 2.2 4.85 4.9v8.14c0 2.7-2.17 4.9-4.85 4.9h-62.3c-2.68 0-4.85-2.2-4.85-4.9v-8.14c0-2.7 2.17-4.9 4.84-4.9h11.36c.55 0 1-.46 1-1.02 0-.5-.45-1-1-1h-11.36c-3.77 0-6.84 3.1-6.84 7v8.2c0 3.8 3.07 6.98 6.84 6.98h62.3c3.8 0 6.86-3.1 6.86-6.92V11c0-3.9-3.07-7-6.85-7"/>
      <path d="M567 18c-1.65 0-3-1.35-3-3s1.35-3 3-3 3 1.35 3 3-1.35 3-3 3m0-8c-2.4 0-4.43 1.72-4.9 4H519c-.56 0-1 .45-1 1s.44 1 1 1h43.1c.47 2.27 2.5 4 4.9 4 2.76 0 5-2.25 5-5 0-2.76-2.24-5-5-5"/>
    </g>
  </g>
</svg>
