<svg viewBox="0 0 1091 81" xmlns="http://www.w3.org/2000/svg"><g fill="none" fill-rule="evenodd"><g transform="translate(0 28)" fill="#e04733"><path d="m7 53c3.866 0 7-3.134 7-7 0-3.866-3.134-7-7-7-3.866 0-7 3.134-7 7 0 3.866 3.134 7 7 7m0-2c-2.761 0-5-2.239-5-5 0-2.761 2.239-5 5-5 2.761 0 5 2.239 5 5 0 2.761-2.239 5-5 5"/><path d="m1084 53c3.866 0 7-3.134 7-7 0-3.866-3.134-7-7-7-3.866 0-7 3.134-7 7 0 3.866 3.134 7 7 7m0-2c-2.761 0-5-2.239-5-5 0-2.761 2.239-5 5-5 2.761 0 5 2.239 5 5 0 2.761-2.239 5-5 5"/><path d="m487 2v-2h-481v39h2v-37z"/><path d="m1083 39h2v-39h-481v2h479z"/></g><g transform="translate(507)" fill="#e14329"><path d="m22 50c1.654 0 3 1.346 3 3 0 1.654-1.346 3-3 3-1.654 0-3-1.346-3-3 0-1.654 1.346-3 3-3m47.16-18h-62.31c-3.774 0-6.844 3.108-6.844 6.928v8.143c0 3.821 3.07 6.929 6.844 6.929h10.257c.464 2.279 2.484 4 4.899 4 2.757 0 5-2.243 5-5 0-2.757-2.243-5-5-5-2.406 0-4.418 1.708-4.893 3.975h-10.263c-2.672 0-4.844-2.2-4.844-4.904v-8.143c0-2.704 2.172-4.903 4.844-4.903h62.31c2.672 0 4.844 2.199 4.844 4.903v8.143c0 2.704-2.172 4.904-4.844 4.904h-34.31c-.552 0-1 .453-1 1.013 0 .559.448 1.012 1 1.012h34.31c3.774 0 6.844-3.108 6.844-6.929v-8.143c0-3.82-3.07-6.928-6.844-6.928"/><path d="m60 46c-1.654 0-3-1.346-3-3 0-1.654 1.346-3 3-3 1.654 0 3 1.346 3 3 0 1.654-1.346 3-3 3m0-8c-2.414 0-4.433 1.719-4.898 3.997h-43.11c-.548 0-.991.448-.991 1 0 .555.443 1 .991 1h43.11c.465 2.278 2.484 3.997 4.898 3.997 2.757 0 5-2.243 5-5 0-2.757-2.243-5-5-5"/><path d="m30 8c-1.654 0-3-1.346-3-3 0-1.654 1.346-3 3-3 1.654 0 3 1.346 3 3 0 1.654-1.346 3-3 3m39.16-4h-34.26c-.464-2.28-2.484-4-4.898-4-2.758 0-5 2.243-5 5 0 2.757 2.242 5 5 5 2.405 0 4.418-1.709 4.892-3.975h34.26c2.672 0 4.845 2.2 4.845 4.904v8.142c0 2.704-2.173 4.904-4.845 4.904h-62.31c-2.672 0-4.845-2.2-4.845-4.904v-8.142c0-2.704 2.173-4.904 4.845-4.904h11.353c.553 0 1-.453 1-1.013 0-.559-.447-1.012-1-1.012h-11.353c-3.775 0-6.845 3.108-6.845 6.929v8.142c0 3.821 3.07 6.929 6.845 6.929h62.31c3.775 0 6.845-3.108 6.845-6.929v-8.142c0-3.821-3.07-6.929-6.845-6.929"/><path d="m60 18c-1.654 0-3-1.346-3-3 0-1.654 1.346-3 3-3 1.654 0 3 1.346 3 3 0 1.654-1.346 3-3 3m0-8c-2.414 0-4.433 1.719-4.898 3.997h-43.11c-.548 0-.991.448-.991 1 0 .555.443 1 .991 1h43.11c.465 2.278 2.484 3.997 4.898 3.997 2.757 0 5-2.243 5-5 0-2.757-2.243-5-5-5"/></g></g></svg>
