<svg viewBox="0 0 1091 158" xmlns="http://www.w3.org/2000/svg" xmlns:xlink="http://www.w3.org/1999/xlink"><defs><path id="0" d="m0 70h1024v-70h-1024z"/><mask id="1" fill="#fff"><use xlink:href="#0"/></mask></defs><g fill="none" fill-rule="evenodd"><g transform="translate(34 88)" fill="#e24329"><path d="m75.79 24.448c0 .088-.034.165-.101.231l-4.68 4.681c-.067.067-.144.101-.231.101-.088 0-.164-.034-.231-.101l-.503-.502c-.066-.067-.1-.144-.1-.231 0-.087.034-.164.1-.231l3.948-3.948-3.948-3.947c-.066-.067-.1-.144-.1-.231 0-.087.034-.164.1-.231l.503-.502c.067-.068.143-.101.231-.101.087 0 .164.033.231.101l4.68 4.681c.067.066.101.143.101.23"/><path d="m81.09 24.448c0 .088-.034.165-.101.231l-4.68 4.681c-.067.067-.144.101-.231.101-.088 0-.164-.034-.231-.101l-.503-.502c-.066-.067-.1-.144-.1-.231 0-.087.034-.164.1-.231l3.948-3.948-3.948-3.947c-.066-.067-.1-.144-.1-.231 0-.087.034-.164.1-.231l.503-.502c.067-.068.143-.101.231-.101.087 0 .164.033.231.101l4.68 4.681c.067.066.101.143.101.23"/><path d="m183.13 24.448c0 .088-.034.165-.101.231l-4.68 4.681c-.067.067-.144.101-.231.101-.088 0-.164-.034-.231-.101l-.503-.502c-.066-.067-.1-.144-.1-.231 0-.087.034-.164.1-.231l3.948-3.948-3.948-3.947c-.066-.067-.1-.144-.1-.231 0-.087.034-.164.1-.231l.503-.502c.067-.068.143-.101.231-.101.087 0 .164.033.231.101l4.68 4.681c.067.066.101.143.101.23"/><path d="m188.44 24.448c0 .088-.034.165-.101.231l-4.68 4.681c-.067.067-.144.101-.231.101-.088 0-.164-.034-.231-.101l-.503-.502c-.066-.067-.1-.144-.1-.231 0-.087.034-.164.1-.231l3.948-3.948-3.948-3.947c-.066-.067-.1-.144-.1-.231 0-.087.034-.164.1-.231l.503-.502c.067-.068.143-.101.231-.101.087 0 .164.033.231.101l4.68 4.681c.067.066.101.143.101.23"/><path d="m290.48 24.448c0 .088-.034.165-.101.231l-4.68 4.681c-.067.067-.144.101-.231.101-.088 0-.164-.034-.231-.101l-.503-.502c-.066-.067-.1-.144-.1-.231 0-.087.034-.164.1-.231l3.948-3.948-3.948-3.947c-.066-.067-.1-.144-.1-.231 0-.087.034-.164.1-.231l.503-.502c.067-.068.143-.101.231-.101.087 0 .164.033.231.101l4.68 4.681c.067.066.101.143.101.23"/><path d="m295.79 24.448c0 .088-.034.165-.101.231l-4.68 4.681c-.067.067-.144.101-.231.101-.088 0-.164-.034-.231-.101l-.503-.502c-.066-.067-.1-.144-.1-.231 0-.087.034-.164.1-.231l3.948-3.948-3.948-3.947c-.066-.067-.1-.144-.1-.231 0-.087.034-.164.1-.231l.503-.502c.067-.068.143-.101.231-.101.087 0 .164.033.231.101l4.68 4.681c.067.066.101.143.101.23"/><path d="m397.83 24.448c0 .088-.034.165-.101.231l-4.68 4.681c-.067.067-.144.101-.231.101-.088 0-.164-.034-.231-.101l-.503-.502c-.066-.067-.1-.144-.1-.231 0-.087.034-.164.1-.231l3.948-3.948-3.948-3.947c-.066-.067-.1-.144-.1-.231 0-.087.034-.164.1-.231l.503-.502c.067-.068.143-.101.231-.101.087 0 .164.033.231.101l4.68 4.681c.067.066.101.143.101.23"/><path d="m403.14 24.448c0 .088-.034.165-.101.231l-4.68 4.681c-.067.067-.144.101-.231.101-.088 0-.164-.034-.231-.101l-.503-.502c-.066-.067-.1-.144-.1-.231 0-.087.034-.164.1-.231l3.948-3.948-3.948-3.947c-.066-.067-.1-.144-.1-.231 0-.087.034-.164.1-.231l.503-.502c.067-.068.143-.101.231-.101.087 0 .164.033.231.101l4.68 4.681c.067.066.101.143.101.23"/><path d="m505.18 24.448c0 .088-.034.165-.101.231l-4.68 4.681c-.067.067-.144.101-.231.101-.088 0-.164-.034-.231-.101l-.503-.502c-.066-.067-.1-.144-.1-.231 0-.087.034-.164.1-.231l3.948-3.948-3.948-3.947c-.066-.067-.1-.144-.1-.231 0-.087.034-.164.1-.231l.503-.502c.067-.068.143-.101.231-.101.087 0 .164.033.231.101l4.68 4.681c.067.066.101.143.101.23"/><path d="m510.49 24.448c0 .088-.034.165-.101.231l-4.68 4.681c-.067.067-.144.101-.231.101-.088 0-.164-.034-.231-.101l-.503-.502c-.066-.067-.1-.144-.1-.231 0-.087.034-.164.1-.231l3.948-3.948-3.948-3.947c-.066-.067-.1-.144-.1-.231 0-.087.034-.164.1-.231l.503-.502c.067-.068.143-.101.231-.101.087 0 .164.033.231.101l4.68 4.681c.067.066.101.143.101.23"/><path d="m612.53 24.448c0 .088-.034.165-.101.231l-4.68 4.681c-.068.067-.145.101-.232.101-.087 0-.164-.034-.23-.101l-.503-.502c-.066-.067-.101-.144-.101-.231 0-.087.035-.164.101-.231l3.948-3.948-3.948-3.947c-.066-.067-.101-.144-.101-.231 0-.087.035-.164.101-.231l.503-.502c.066-.068.143-.101.23-.101.087 0 .164.033.232.101l4.68 4.681c.067.066.101.143.101.23"/><path d="m617.84 24.448c0 .088-.033.165-.101.231l-4.68 4.681c-.067.067-.144.101-.231.101-.088 0-.164-.034-.231-.101l-.502-.502c-.067-.067-.101-.144-.101-.231 0-.087.034-.164.101-.231l3.947-3.948-3.947-3.947c-.067-.067-.101-.144-.101-.231 0-.087.034-.164.101-.231l.502-.502c.067-.068.143-.101.231-.101.087 0 .164.033.231.101l4.68 4.681c.068.066.101.143.101.23"/><path d="m719.88 24.448c0 .088-.034.165-.101.231l-4.68 4.681c-.068.067-.145.101-.232.101-.087 0-.164-.034-.23-.101l-.503-.502c-.066-.067-.101-.144-.101-.231 0-.087.035-.164.101-.231l3.948-3.948-3.948-3.947c-.066-.067-.101-.144-.101-.231 0-.087.035-.164.101-.231l.503-.502c.066-.068.143-.101.23-.101.087 0 .164.033.232.101l4.68 4.681c.067.066.101.143.101.23"/><path d="m725.19 24.448c0 .088-.033.165-.101.231l-4.68 4.681c-.067.067-.144.101-.231.101-.088 0-.164-.034-.231-.101l-.502-.502c-.067-.067-.101-.144-.101-.231 0-.087.034-.164.101-.231l3.947-3.948-3.947-3.947c-.067-.067-.101-.144-.101-.231 0-.087.034-.164.101-.231l.502-.502c.067-.068.143-.101.231-.101.087 0 .164.033.231.101l4.68 4.681c.068.066.101.143.101.23"/><path d="m827.23 24.448c0 .088-.034.165-.101.231l-4.68 4.681c-.068.067-.145.101-.232.101-.087 0-.164-.034-.23-.101l-.503-.502c-.066-.067-.101-.144-.101-.231 0-.087.035-.164.101-.231l3.948-3.948-3.948-3.947c-.066-.067-.101-.144-.101-.231 0-.087.035-.164.101-.231l.503-.502c.066-.068.143-.101.23-.101.087 0 .164.033.232.101l4.68 4.681c.067.066.101.143.101.23"/><path d="m832.54 24.448c0 .088-.033.165-.101.231l-4.68 4.681c-.067.067-.144.101-.231.101-.088 0-.164-.034-.231-.101l-.502-.502c-.067-.067-.101-.144-.101-.231 0-.087.034-.164.101-.231l3.947-3.948-3.947-3.947c-.067-.067-.101-.144-.101-.231 0-.087.034-.164.101-.231l.502-.502c.067-.068.143-.101.231-.101.087 0 .164.033.231.101l4.68 4.681c.068.066.101.143.101.23"/><path d="m934.58 24.448c0 .088-.034.165-.101.231l-4.68 4.681c-.068.067-.145.101-.232.101-.087 0-.164-.034-.23-.101l-.503-.502c-.066-.067-.101-.144-.101-.231 0-.087.035-.164.101-.231l3.948-3.948-3.948-3.947c-.066-.067-.101-.144-.101-.231 0-.087.035-.164.101-.231l.503-.502c.066-.068.143-.101.23-.101.087 0 .164.033.232.101l4.68 4.681c.067.066.101.143.101.23"/><path d="m939.88 24.448c0 .088-.033.165-.101.231l-4.68 4.681c-.067.067-.144.101-.231.101-.088 0-.164-.034-.231-.101l-.502-.502c-.067-.067-.101-.144-.101-.231 0-.087.034-.164.101-.231l3.947-3.948-3.947-3.947c-.067-.067-.101-.144-.101-.231 0-.087.034-.164.101-.231l.502-.502c.067-.068.143-.101.231-.101.087 0 .164.033.231.101l4.68 4.681c.068.066.101.143.101.23"/><path d="m15.997 29.599c0 1.103-.896 2-1.999 2-1.102 0-1.998-.897-1.998-2 0-1.103.896-2 1.998-2 1.103 0 1.999.897 1.999 2m10.808-19.386c-2.971-1.236-6.406-1.226-9.329-.002-1.472.607-2.803 1.497-3.96 2.648-1.118 1.114-2.029 2.469-2.649 3.956-.615 1.474-.928 3.046-.928 4.67 0 1.282.201 2.552.599 3.783.173.522.391 1.023.627 1.513-.719.723-1.165 1.719-1.165 2.818 0 2.206 1.794 4 3.998 4 2.205 0 3.999-1.794 3.999-4 0-2.206-1.794-4-3.999-4-.385 0-.751.072-1.104.174-.17-.367-.327-.742-.456-1.127-.331-1.025-.499-2.088-.499-3.161 0-1.359.26-2.671.788-3.935.506-1.212 1.267-2.345 2.2-3.274.969-.964 2.083-1.709 3.316-2.217 2.444-1.024 5.313-1.032 7.796.002 1.226.505 2.34 1.251 3.309 2.212 1.922 1.929 2.981 4.489 2.981 7.213.001 1.074-.167 2.14-.499 3.167-.328 1.01-.818 1.965-1.457 2.84-1.242 1.7-2.226 2.789-3.02 3.668l-.366.405c-1.202 1.32-1.993 2.188-2.269 4.03h-6.01c-.553 0-1 .447-1 1 0 .553.447 1 1 1h6.917c.532 0 .972-.417.999-.948.094-1.817.569-2.34 1.843-3.739l.377-.416c.821-.909 1.844-2.04 3.147-3.824.764-1.047 1.351-2.191 1.744-3.403.398-1.228.598-2.501.597-3.784 0-3.256-1.267-6.319-3.569-8.628-1.159-1.15-2.49-2.039-3.955-2.644"/><path d="m23 44.599h-2c-.553 0-1 .447-1 1 0 .553.447 1 1 1h2c.553 0 1-.447 1-1 0-.553-.447-1-1-1"/><path d="m24 41.599h-4c-.553 0-1 .447-1 1 0 .553.447 1 1 1h4c.553 0 1-.447 1-1 0-.553-.447-1-1-1"/><path d="m25 38.599h-6c-.553 0-1 .447-1 1 0 .553.447 1 1 1h6c.553 0 1-.447 1-1 0-.553-.447-1-1-1"/><path d="m22 6.599c.553 0 1-.447 1-1v-4c0-.553-.447-1-1-1-.553 0-1 .447-1 1v4c0 .553.447 1 1 1"/><path d="m11.121 9.72c.391-.391.391-1.023 0-1.414l-2.828-2.828c-.391-.391-1.024-.391-1.414 0-.391.39-.391 1.023 0 1.414l2.828 2.828c.195.195.451.293.707.293.256 0 .512-.098.707-.293"/><path d="m5 19.599h-4c-.553 0-1 .447-1 1 0 .553.447 1 1 1h4c.553 0 1-.447 1-1 0-.553-.447-1-1-1"/><path d="m34.707 5.478l-2.828 2.828c-.391.391-.391 1.024 0 1.414.195.195.451.293.707.293.256 0 .512-.098.707-.293l2.828-2.828c.391-.391.391-1.023 0-1.414-.391-.391-1.023-.391-1.414 0"/><path d="m43 19.599h-4c-.553 0-1 .447-1 1 0 .553.447 1 1 1h4c.553 0 1-.447 1-1 0-.553-.447-1-1-1"/><path mask="url(#1)" d="m7.215 68.852h1.855v-10.462h-1.855z"/><path d="m14.28 67.35c1.066 0 1.886-.307 2.456-.92.57-.613.857-1.565.857-2.856 0-1.28-.289-2.213-.865-2.8-.576-.586-1.391-.88-2.448-.88h-.815v7.456h.815m-2.672-8.96h2.8c1.601 0 2.849.432 3.744 1.296.897.864 1.344 2.16 1.344 3.888 0 .864-.114 1.627-.344 2.288-.229.662-.56 1.214-.992 1.656-.432.442-.954.776-1.567 1-.614.224-1.31.336-2.088.336h-2.897v-10.464" mask="url(#1)"/><path mask="url(#1)" d="m21.508 58.39h6.304v1.565h-4.448v2.675h3.756v1.57h-3.756v3.08h4.608v1.572h-6.464z"/><path d="m34.929 64.56l-.368-1.28c-.171-.554-.333-1.125-.488-1.712-.155-.586-.307-1.168-.456-1.744h-.064c-.149.587-.299 1.171-.448 1.752-.15.582-.31 1.15-.48 1.704l-.368 1.28h2.672m.416 1.456h-3.52l-.816 2.832h-1.889l3.409-10.464h2.175l3.409 10.464h-1.953l-.815-2.832" mask="url(#1)"/><path d="m132.35 33c0 1.654-1.346 3-3 3-1.654 0-3-1.346-3-3 0-1.654 1.346-3 3-3 1.654 0 3 1.346 3 3m-8 0c0 2.757 2.243 5 5 5 2.757 0 5-2.243 5-5 0-2.757-2.243-5-5-5-.374 0-.736.048-1.087.127l-1.803-17.13h5.771l-1.375 12.214c-.062.549.333 1.044.882 1.106.543.056 1.044-.334 1.106-.882l1.5-13.326c.031-.283-.058-.566-.248-.778-.19-.213-.461-.334-.746-.334h-8c-.283 0-.554.12-.743.331-.19.211-.281.492-.251.773l1.992 18.923c-1.206.914-1.998 2.347-1.998 3.973" mask="url(#1)"/><path d="m145.76 6.586c.378.378.586.88.586 1.414 0 .534-.208 1.036-.586 1.414-.756.756-2.072.756-2.828 0-.378-.378-.586-.88-.586-1.414 0-.534.208-1.036.586-1.414.378-.378.88-.586 1.414-.586.534 0 1.036.208 1.414.586m4.913 7.788c-.207-.513-.789-.76-1.302-.552-.511.207-.758.79-.551 1.302 1.012 2.503 1.526 5.152 1.526 7.876 0 11.579-9.421 21-21 21-11.579 0-21-9.421-21-21 0-11.579 9.421-21 21-21 4.253 0 8.303 1.265 11.788 3.639-.504.682-.788 1.497-.788 2.361 0 1.068.416 2.073 1.172 2.828.755.756 1.76 1.172 2.828 1.172 1.068 0 2.073-.416 2.828-1.172.756-.755 1.172-1.76 1.172-2.828 0-1.068-.416-2.073-1.172-2.828-1.145-1.146-2.936-1.419-4.394-.827-3.931-2.836-8.562-4.345-13.434-4.345-12.683 0-23 10.317-23 23 0 12.683 10.317 23 23 23 12.683 0 23-10.317 23-23 0-2.981-.563-5.884-1.673-8.626" mask="url(#1)"/><path mask="url(#1)" d="m110.4 68.852h1.86v-10.462h-1.86z"/><path d="m115.1 66.24c.374.353.8.638 1.28.856.48.219.96.329 1.44.329.597 0 1.051-.123 1.36-.369.31-.245.464-.57.464-.975 0-.214-.04-.395-.12-.544-.08-.15-.192-.28-.336-.393-.144-.112-.315-.216-.512-.311-.197-.097-.413-.193-.648-.288l-1.44-.624c-.256-.107-.509-.241-.76-.401-.25-.16-.478-.351-.68-.576-.203-.224-.365-.485-.488-.784-.122-.298-.184-.64-.184-1.024 0-.416.088-.802.264-1.16.176-.357.419-.669.728-.935.309-.267.68-.475 1.112-.624.432-.15.904-.225 1.416-.225.608 0 1.195.12 1.76.361.566.24 1.051.562 1.456.967l-.944 1.185c-.341-.277-.693-.496-1.056-.656-.362-.161-.768-.241-1.216-.241-.501 0-.901.11-1.2.328-.299.219-.448.52-.448.905 0 .202.045.376.136.519.091.145.214.273.368.384.155.112.333.214.536.305.203.091.411.178.624.263l1.424.592c.31.128.592.278.848.448.256.171.478.369.664.592.187.224.334.483.44.777.107.293.16.632.16 1.015 0 .427-.085.827-.256 1.2-.171.374-.419.702-.744.985-.325.282-.72.506-1.184.672-.464.165-.989.248-1.576.248-.704 0-1.384-.134-2.04-.401-.656-.266-1.234-.645-1.736-1.135l1.088-1.265" mask="url(#1)"/><path d="m123.82 66.24c.374.353.8.638 1.28.856.48.219.96.329 1.44.329.597 0 1.051-.123 1.36-.369.31-.245.464-.57.464-.975 0-.214-.04-.395-.12-.544-.08-.15-.192-.28-.336-.393-.144-.112-.315-.216-.512-.311-.197-.097-.413-.193-.648-.288l-1.44-.624c-.256-.107-.509-.241-.76-.401-.25-.16-.478-.351-.68-.576-.203-.224-.365-.485-.488-.784-.122-.298-.184-.64-.184-1.024 0-.416.088-.802.264-1.16.176-.357.419-.669.728-.935.309-.267.68-.475 1.112-.624.432-.15.904-.225 1.416-.225.608 0 1.195.12 1.76.361.566.24 1.051.562 1.456.967l-.944 1.185c-.341-.277-.693-.496-1.056-.656-.362-.161-.768-.241-1.216-.241-.501 0-.901.11-1.2.328-.299.219-.448.52-.448.905 0 .202.045.376.136.519.091.145.214.273.368.384.155.112.333.214.536.305.203.091.411.178.624.263l1.424.592c.31.128.592.278.848.448.256.171.478.369.664.592.187.224.334.483.44.777.107.293.16.632.16 1.015 0 .427-.085.827-.256 1.2-.171.374-.419.702-.744.985-.325.282-.72.506-1.184.672-.464.165-.989.248-1.576.248-.704 0-1.384-.134-2.04-.401-.656-.266-1.234-.645-1.736-1.135l1.088-1.265" mask="url(#1)"/><path d="m131.94 58.39h1.856v6.02c0 .565.051 1.043.152 1.432.101.389.245.701.432.936.187.234.408.402.664.504.256.101.544.152.864.152.32 0 .614-.051.88-.152.267-.102.496-.27.688-.504.192-.235.341-.547.448-.936.107-.389.16-.867.16-1.432v-6.02h1.776v5.872c0 .864-.09 1.598-.272 2.2-.181.603-.445 1.096-.792 1.48-.347.384-.763.664-1.248.84-.485.175-1.032.264-1.64.264-.608 0-1.155-.089-1.64-.264-.485-.176-.901-.456-1.248-.84-.347-.384-.613-.877-.8-1.48-.187-.602-.28-1.336-.28-2.2v-5.872" mask="url(#1)"/><path mask="url(#1)" d="m142.35 58.39h6.3v1.565h-4.45v2.675h3.76v1.57h-3.76v3.08h4.61v1.572h-6.46z"/><path d="m219.7 17.01c0 1.088-.874 1.972-1.956 1.996-.018-.001-.033-.011-.051-.011-.016 0-.03.009-.046.01-1.078-.029-1.947-.911-1.947-1.995 0-1.103.897-2 2-2 1.103 0 2 .897 2 2m0 11.972c0 1.087-.874 1.971-1.956 1.995-.018-.001-.033-.01-.051-.01-.016 0-.03.009-.046.009-1.078-.029-1.947-.91-1.947-1.994 0-1.103.897-2 2-2 1.103 0 2 .897 2 2m0 11.971c0 1.103-.897 2-2 2-1.103 0-2-.897-2-2 0-1.102.897-2 2-2 1.103 0 2 .898 2 2m-4-35.915c0-1.102.897-2 2-2 1.103 0 2 .898 2 2 0 1.088-.874 1.972-1.956 1.996-.018-.001-.033-.01-.051-.01-.016 0-.03.008-.046.009-1.078-.029-1.947-.91-1.947-1.995m6 0c0-2.206-1.794-4-4-4-2.206 0-4 1.794-4 4 0 1.857 1.276 3.407 2.993 3.856v4.26c-1.717.45-2.993 2-2.993 3.856 0 1.856 1.276 3.406 2.993 3.856v4.26c-1.717.449-2.993 1.999-2.993 3.856 0 1.856 1.276 3.406 2.993 3.856v4.259c-1.717.45-2.993 2-2.993 3.856 0 2.206 1.794 4 4 4 2.206 0 4-1.794 4-4 0-1.861-1.283-3.415-3.01-3.86v-4.251c1.724-.445 3.01-1.999 3.01-3.86 0-1.862-1.283-3.416-3.01-3.86v-4.252c1.724-.444 3.01-1.999 3.01-3.86 0-1.861-1.283-3.416-3.01-3.86v-4.252c1.724-.444 3.01-1.998 3.01-3.86" mask="url(#1)"/><path d="m226.7 3.875h32c.553 0 1-.447 1-1 0-.553-.447-1-1-1h-32c-.553 0-1 .447-1 1 0 .553.447 1 1 1" mask="url(#1)"/><path d="m226.7 7.875h20c.553 0 1-.447 1-1 0-.553-.447-1-1-1h-20c-.553 0-1 .447-1 1 0 .553.447 1 1 1" mask="url(#1)"/><path d="m258.7 13.875h-32c-.553 0-1 .447-1 1 0 .553.447 1 1 1h32c.553 0 1-.447 1-1 0-.553-.447-1-1-1" mask="url(#1)"/><path d="m226.7 19.875h20c.553 0 1-.447 1-1 0-.553-.447-1-1-1h-20c-.553 0-1 .447-1 1 0 .553.447 1 1 1" mask="url(#1)"/><path d="m258.67 25.875h-32c-.553 0-1 .447-1 1 0 .553.447 1 1 1h32c.553 0 1-.447 1-1 0-.553-.447-1-1-1" mask="url(#1)"/><path d="m226.7 31.875h20c.553 0 1-.447 1-1 0-.553-.447-1-1-1h-20c-.553 0-1 .447-1 1 0 .553.447 1 1 1" mask="url(#1)"/><path d="m258.67 37.875h-32c-.553 0-1 .447-1 1 0 .553.447 1 1 1h32c.553 0 1-.447 1-1 0-.553-.447-1-1-1" mask="url(#1)"/><path d="m246.67 41.875h-20c-.553 0-1 .447-1 1 0 .553.447 1 1 1h20c.553 0 1-.447 1-1 0-.553-.447-1-1-1" mask="url(#1)"/><path d="m222.74 63.52c1.536 0 2.304-.635 2.304-1.904 0-.661-.192-1.117-.576-1.367-.384-.251-.96-.376-1.728-.376h-1.52v3.647h1.52m-3.376-5.136h3.52c.576 0 1.106.054 1.592.16.485.107.904.289 1.256.544.352.256.629.589.832 1 .202.411.304.92.304 1.528 0 .576-.102 1.078-.304 1.505-.203.426-.483.781-.84 1.063-.358.283-.779.491-1.264.624-.486.134-1.01.2-1.576.2h-1.664v3.84h-1.856v-10.464" mask="url(#1)"/><path mask="url(#1)" d="m228.61 58.39h1.85v8.89h4.35v1.572h-6.2z"/><path d="m241.61 64.56l-.368-1.28c-.171-.554-.333-1.125-.488-1.712-.155-.586-.307-1.168-.456-1.744h-.064c-.149.587-.299 1.171-.448 1.752-.149.582-.309 1.15-.48 1.704l-.368 1.28h2.672m.416 1.456h-3.52l-.816 2.832h-1.888l3.408-10.464h2.176l3.408 10.464h-1.952l-.816-2.832" mask="url(#1)"/><path d="m246.19 58.39h1.904l3.264 5.888 1.072 2.224h.064c-.043-.545-.094-1.129-.152-1.752-.059-.624-.088-1.229-.088-1.816v-4.544h1.776v10.464h-1.904l-3.264-5.888-1.072-2.224h-.064c.043.554.093 1.136.152 1.744.059.608.088 1.206.088 1.792v4.576h-1.776v-10.464" mask="url(#1)"/><path d="m350.05 12c-2.757 0-5-2.243-5-5 0-2.757 2.243-5 5-5 2.757 0 5 2.243 5 5 0 2.757-2.243 5-5 5m12-6h-5.08c-.488-3.386-3.401-6-6.92-6-3.859 0-7 3.141-7 7 0 3.859 3.141 7 7 7 3.519 0 6.432-2.614 6.92-6h5.08c.552 0 1 .404 1 .9v34.2c0 .496-.448.9-1 .9h-36c-.552 0-1-.404-1-.9v-34.2c0-.496.448-.9 1-.9h9.185c.552 0 1-.447 1-1 0-.553-.448-1-1-1h-9.185c-1.654 0-3 1.301-3 2.9v34.2c0 1.599 1.346 2.9 3 2.9h36c1.654 0 3-1.301 3-2.9v-34.2c0-1.599-1.346-2.9-3-2.9" mask="url(#1)"/><path d="m334.57 35.35c.195.195.451.293.707.293.256 0 .512-.098.707-.293l8.165-8.165c.391-.391.391-1.023 0-1.414l-8.165-8.166c-.391-.391-1.023-.391-1.414 0-.391.391-.391 1.023 0 1.414l7.458 7.459-7.458 7.458c-.391.391-.391 1.023 0 1.414" mask="url(#1)"/><path d="m352.82 36c.553 0 1-.447 1-1 0-.553-.447-1-1-1h-6c-.553 0-1 .447-1 1 0 .553.447 1 1 1h6" mask="url(#1)"/><path d="m325.79 63.65c0-.854.125-1.618.376-2.296.25-.677.594-1.25 1.032-1.72.437-.469.949-.827 1.536-1.072.586-.245 1.216-.368 1.888-.368.64 0 1.213.134 1.72.4.506.267.925.577 1.256.928l-1.04 1.152c-.267-.266-.552-.477-.856-.631-.304-.156-.659-.233-1.064-.233-.438 0-.835.088-1.192.264-.358.177-.667.427-.928.752-.262.326-.464.723-.608 1.192-.144.47-.216.997-.216 1.584 0 1.194.258 2.131.776 2.808.517.678 1.218 1.016 2.104 1.016.469 0 .877-.09 1.224-.272.346-.181.669-.437.968-.768l1.04 1.136c-.427.491-.912.867-1.456 1.128-.544.262-1.147.393-1.808.393-.672 0-1.296-.119-1.872-.353-.576-.234-1.078-.581-1.504-1.04-.427-.458-.763-1.023-1.01-1.696-.245-.672-.368-1.44-.368-2.304" mask="url(#1)"/><path d="m339.26 67.43c.416 0 .789-.091 1.12-.272.33-.181.613-.44.848-.776.235-.336.416-.741.544-1.217.128-.473.192-1 .192-1.591 0-1.173-.243-2.093-.728-2.76-.486-.666-1.144-1-1.976-1-.832 0-1.491.334-1.976 1-.485.667-.728 1.587-.728 2.76 0 .586.064 1.118.192 1.591.128.476.309.881.544 1.217.235.336.517.595.848.776.33.181.704.272 1.12.272m0 1.616c-.683 0-1.307-.126-1.872-.376-.566-.251-1.051-.613-1.456-1.089-.405-.473-.72-1.047-.944-1.719-.224-.672-.336-1.435-.336-2.288 0-.842.112-1.597.336-2.264.224-.667.539-1.23.944-1.689.405-.458.89-.81 1.456-1.055.565-.245 1.189-.368 1.872-.368.683 0 1.307.123 1.872.368.565.245 1.053.597 1.464 1.055.411.459.728 1.022.952 1.689.224.667.336 1.422.336 2.264 0 .853-.112 1.616-.336 2.288-.224.672-.541 1.246-.952 1.719-.411.476-.899.838-1.464 1.089-.565.25-1.189.376-1.872.376" mask="url(#1)"/><path d="m348.58 67.35c1.066 0 1.885-.307 2.456-.92.57-.613.856-1.565.856-2.856 0-1.28-.288-2.213-.864-2.8-.576-.586-1.392-.88-2.448-.88h-.816v7.456h.816m-2.672-8.96h2.8c1.6 0 2.848.432 3.744 1.296.896.864 1.344 2.16 1.344 3.888 0 .864-.115 1.627-.344 2.288-.229.662-.56 1.214-.992 1.656-.432.442-.955.776-1.568 1-.613.224-1.31.336-2.088.336h-2.896v-10.464" mask="url(#1)"/><path mask="url(#1)" d="m355.81 58.39h6.3v1.565h-4.44v2.675h3.76v1.57h-3.76v3.08h4.6v1.572h-6.46z"/><path d="m451.4 28c-2.757 0-5-2.243-5-5 0-2.757 2.243-5 5-5 2.757 0 5 2.243 5 5 0 2.757-2.243 5-5 5m7-6c-.028 0-.051.013-.078.016-.481-3.394-3.398-6.02-6.922-6.02-3.524 0-6.441 2.622-6.922 6.02-.027-.003-.05-.016-.078-.016h-8c-.553 0-1 .447-1 1 0 .553.447 1 1 1h8c.028 0 .051-.013.078-.016.481 3.394 3.398 6.02 6.922 6.02 3.524 0 6.441-2.622 6.922-6.02.027.003.05.016.078.016h8c.553 0 1-.447 1-1 0-.553-.447-1-1-1h-8" mask="url(#1)"/><path d="m467.81 6.586c.378.378.586.88.586 1.414 0 .534-.208 1.036-.586 1.414-.756.756-2.072.756-2.828 0-.378-.378-.586-.88-.586-1.414 0-.534.208-1.036.586-1.414.378-.378.88-.586 1.414-.586.534 0 1.036.208 1.414.586m4.913 7.788c-.207-.513-.791-.76-1.302-.552-.511.207-.758.79-.551 1.302 1.012 2.503 1.526 5.152 1.526 7.876 0 11.579-9.421 21-21 21-11.579 0-21-9.421-21-21 0-11.579 9.421-21 21-21 4.253 0 8.303 1.265 11.788 3.639-.504.682-.788 1.497-.788 2.361 0 1.068.416 2.073 1.172 2.828.755.756 1.76 1.172 2.828 1.172 1.068 0 2.073-.416 2.828-1.172.756-.755 1.172-1.76 1.172-2.828 0-1.068-.416-2.073-1.172-2.828-1.145-1.146-2.936-1.419-4.394-.827-3.931-2.836-8.562-4.345-13.434-4.345-12.683 0-23 10.317-23 23 0 12.683 10.317 23 23 23 12.683 0 23-10.317 23-23 0-2.981-.563-5.884-1.673-8.626" mask="url(#1)"/><path d="m424.02 63.65c0-.854.125-1.618.376-2.296.25-.677.594-1.25 1.032-1.72.437-.469.949-.827 1.536-1.072.586-.245 1.216-.368 1.888-.368.64 0 1.213.134 1.72.4.506.267.925.577 1.256.928l-1.04 1.152c-.267-.266-.552-.477-.856-.631-.304-.156-.659-.233-1.064-.233-.438 0-.835.088-1.192.264-.358.177-.667.427-.928.752-.262.326-.464.723-.608 1.192-.144.47-.216.997-.216 1.584 0 1.194.258 2.131.776 2.808.517.678 1.218 1.016 2.104 1.016.469 0 .877-.09 1.224-.272.346-.181.669-.437.968-.768l1.04 1.136c-.427.491-.912.867-1.456 1.128-.544.262-1.147.393-1.808.393-.672 0-1.296-.119-1.872-.353-.576-.234-1.078-.581-1.504-1.04-.427-.458-.763-1.023-1.01-1.696-.245-.672-.368-1.44-.368-2.304" mask="url(#1)"/><path d="m437.49 67.43c.416 0 .789-.091 1.12-.272.33-.181.613-.44.848-.776.235-.336.416-.741.544-1.217.128-.473.192-1 .192-1.591 0-1.173-.243-2.093-.728-2.76-.486-.666-1.144-1-1.976-1-.832 0-1.491.334-1.976 1-.485.667-.728 1.587-.728 2.76 0 .586.064 1.118.192 1.591.128.476.309.881.544 1.217.235.336.517.595.848.776.33.181.704.272 1.12.272m0 1.616c-.683 0-1.307-.126-1.872-.376-.566-.251-1.051-.613-1.456-1.089-.405-.473-.72-1.047-.944-1.719-.224-.672-.336-1.435-.336-2.288 0-.842.112-1.597.336-2.264.224-.667.539-1.23.944-1.689.405-.458.89-.81 1.456-1.055.565-.245 1.189-.368 1.872-.368.683 0 1.307.123 1.872.368.565.245 1.053.597 1.464 1.055.411.459.728 1.022.952 1.689.224.667.336 1.422.336 2.264 0 .853-.112 1.616-.336 2.288-.224.672-.541 1.246-.952 1.719-.411.476-.899.838-1.464 1.089-.565.25-1.189.376-1.872.376" mask="url(#1)"/><path d="m444.14 58.39h2.048l1.888 5.152.688 1.984h.064l.672-1.984 1.856-5.152h2.048v10.464h-1.744v-4.784c0-.245.008-.512.024-.8.016-.288.035-.578.056-.872.021-.293.048-.581.08-.864.032-.283.058-.546.08-.792h-.064l-.848 2.384-1.808 4.752h-.864l-1.808-4.752-.832-2.384h-.064c.021.246.045.509.072.792.026.283.053.571.08.864.026.294.048.584.064.872.016.288.024.555.024.8v4.784h-1.712v-10.464" mask="url(#1)"/><path d="m455.95 58.39h2.048l1.888 5.152.688 1.984h.064l.672-1.984 1.856-5.152h2.048v10.464h-1.744v-4.784c0-.245.008-.512.024-.8.016-.288.035-.578.056-.872.021-.293.048-.581.08-.864.032-.283.058-.546.08-.792h-.064l-.848 2.384-1.808 4.752h-.864l-1.808-4.752-.832-2.384h-.064c.021.246.045.509.072.792.026.283.053.571.08.864.026.294.048.584.064.872.016.288.024.555.024.8v4.784h-1.712v-10.464" mask="url(#1)"/><path mask="url(#1)" d="m467.75 68.852h1.86v-10.462h-1.86z"/><path mask="url(#1)" d="m474.26 59.955h-3.02v-1.565h7.9v1.565h-3.02v8.896h-1.86z"/><path d="m554.75 5h26c.553 0 1-.447 1-1 0-.553-.447-1-1-1h-26c-.553 0-1 .447-1 1 0 .553.447 1 1 1" mask="url(#1)"/><path d="m554.75 9h14c.553 0 1-.447 1-1 0-.553-.447-1-1-1h-14c-.553 0-1 .447-1 1 0 .553.447 1 1 1" mask="url(#1)"/><path d="m541.32 9.196l.01.009c.061.055.133.086.201.123.039.021.073.054.113.069.115.044.235.066.356.066.135 0 .27-.028.396-.083.038-.016.067-.051.102-.072.082-.048.167-.092.235-.166l2.714-2.925c.375-.405.352-1.038-.054-1.414-.406-.376-1.038-.352-1.413.054l-2.043 2.203-.453-.409c-.409-.37-1.041-.338-1.412.072-.37.411-.338 1.043.072 1.413l1.176 1.06" mask="url(#1)"/><path d="m542.75 2c2.757 0 5 2.243 5 5 0 2.757-2.243 5-5 5-2.757 0-5-2.243-5-5 0-2.757 2.243-5 5-5m0 12c3.859 0 7-3.141 7-7 0-3.859-3.141-7-7-7-3.859 0-7 3.141-7 7 0 3.859 3.141 7 7 7" mask="url(#1)"/><path d="m580.75 20h-26c-.553 0-1 .447-1 1 0 .553.447 1 1 1h26c.553 0 1-.447 1-1 0-.553-.447-1-1-1" mask="url(#1)"/><path d="m554.75 26h14c.553 0 1-.447 1-1 0-.553-.447-1-1-1h-14c-.553 0-1 .447-1 1 0 .553.447 1 1 1" mask="url(#1)"/><path d="m543.98 20.857l-2.043 2.203-.453-.409c-.409-.37-1.041-.339-1.412.072-.37.41-.338 1.043.072 1.412l1.176 1.061.01.009c.061.055.132.086.201.123.039.021.073.053.113.069.115.043.235.065.356.065.135 0 .27-.028.396-.082.038-.016.066-.051.102-.072.082-.048.167-.092.235-.166l2.714-2.926c.375-.404.351-1.037-.054-1.413-.406-.377-1.038-.352-1.413.054" mask="url(#1)"/><path d="m542.76 28c-2.757 0-5-2.243-5-5 0-2.757 2.243-5 5-5 2.757 0 5 2.243 5 5 0 2.757-2.243 5-5 5m0-12c-3.859 0-7 3.141-7 7 0 3.859 3.141 7 7 7 3.859 0 7-3.141 7-7 0-3.859-3.141-7-7-7" mask="url(#1)"/><path d="m543.98 36.857l-2.043 2.203-.453-.409c-.409-.369-1.041-.339-1.412.072-.37.41-.338 1.043.072 1.412l1.176 1.061.01.009c.061.055.132.086.201.123.039.021.073.053.113.069.115.043.235.065.356.065.135 0 .27-.028.396-.082.038-.016.066-.051.102-.072.082-.048.167-.092.235-.166l2.714-2.926c.375-.404.351-1.037-.054-1.413-.406-.377-1.038-.352-1.413.054" mask="url(#1)"/><path d="m542.76 44c-2.757 0-5-2.243-5-5 0-2.757 2.243-5 5-5 2.757 0 5 2.243 5 5 0 2.757-2.243 5-5 5m0-12c-3.859 0-7 3.141-7 7 0 3.859 3.141 7 7 7 3.859 0 7-3.141 7-7 0-3.859-3.141-7-7-7" mask="url(#1)"/><path d="m580.75 37h-26c-.553 0-1 .447-1 1 0 .553.447 1 1 1h26c.553 0 1-.447 1-1 0-.553-.447-1-1-1" mask="url(#1)"/><path d="m568.75 41h-14c-.553 0-1 .447-1 1 0 .553.447 1 1 1h14c.553 0 1-.447 1-1 0-.553-.447-1-1-1" mask="url(#1)"/><path mask="url(#1)" d="m544.78 59.955h-3.02v-1.565h7.9v1.565h-3.02v8.896h-1.86z"/><path mask="url(#1)" d="m551.29 58.39h6.3v1.565h-4.45v2.675h3.76v1.57h-3.76v3.08h4.61v1.572h-6.46z"/><path d="m560.3 66.24c.374.353.801.638 1.28.856.481.219.96.329 1.441.329.596 0 1.05-.123 1.359-.369.31-.245.465-.57.465-.975 0-.214-.04-.395-.12-.544-.08-.15-.193-.28-.336-.393-.145-.112-.316-.216-.513-.311-.197-.097-.413-.193-.647-.288l-1.441-.624c-.256-.107-.509-.241-.759-.401-.251-.16-.478-.351-.68-.576-.203-.224-.366-.485-.488-.784-.123-.298-.185-.64-.185-1.024 0-.416.089-.802.265-1.16.175-.357.418-.669.727-.935.31-.267.681-.475 1.112-.624.432-.15.905-.225 1.416-.225.609 0 1.195.12 1.76.361.566.24 1.051.562 1.456.967l-.944 1.185c-.341-.277-.693-.496-1.056-.656-.362-.161-.767-.241-1.216-.241-.501 0-.901.11-1.2.328-.299.219-.448.52-.448.905 0 .202.046.376.137.519.09.145.213.273.368.384.154.112.333.214.535.305.203.091.411.178.624.263l1.425.592c.309.128.592.278.848.448.255.171.477.369.664.592.186.224.333.483.439.777.107.293.16.632.16 1.015 0 .427-.085.827-.256 1.2-.171.374-.419.702-.744.985-.325.282-.719.506-1.183.672-.464.165-.99.248-1.577.248-.704 0-1.383-.134-2.04-.401-.656-.266-1.234-.645-1.736-1.135l1.088-1.265" mask="url(#1)"/><path mask="url(#1)" d="m570.86 59.955h-3.02v-1.565h7.9v1.565h-3.03v8.896h-1.85z"/><path d="m660.26 19.687c-.276-.479-.89-.645-1.366-.364l-6.586 3.812c-.309.179-.499.509-.499.865 0 .357.19.687.499.866l6.586 3.812c.158.092.33.135.5.135.345 0 .68-.179.866-.499.277-.478.113-1.09-.364-1.366l-5.091-2.948 5.091-2.947c.477-.276.641-.888.364-1.366" mask="url(#1)"/><path d="m671.94 28.313c.186.32.521.499.866.499.17 0 .343-.043.5-.135l6.586-3.812c.309-.179.499-.509.499-.865 0-.357-.19-.687-.499-.866l-6.586-3.812c-.481-.28-1.09-.114-1.366.364-.277.478-.113 1.09.364 1.366l5.091 2.948-5.091 2.947c-.477.276-.641.888-.364 1.366" mask="url(#1)"/><path d="m668.09 15.03l-5.887 17.293c-.178.522.102 1.091.624 1.269.107.037.216.053.323.053.416 0 .804-.261.946-.678l5.887-17.292c.178-.523-.102-1.091-.624-1.269-.523-.183-1.09.102-1.269.624" mask="url(#1)"/><path d="m682.51 6.586c.378.378.586.88.586 1.414 0 .534-.208 1.036-.586 1.414-.756.756-2.072.756-2.828 0-.378-.378-.586-.88-.586-1.414 0-.534.208-1.036.586-1.414.378-.378.88-.586 1.414-.586.534 0 1.036.208 1.414.586m4.913 7.788c-.207-.513-.789-.76-1.302-.552-.511.207-.758.79-.551 1.302 1.012 2.503 1.526 5.152 1.526 7.876 0 11.579-9.421 21-21 21-11.579 0-21-9.421-21-21 0-11.579 9.421-21 21-21 4.253 0 8.303 1.265 11.788 3.639-.504.682-.788 1.497-.788 2.361 0 1.068.416 2.073 1.172 2.828.755.756 1.76 1.172 2.828 1.172 1.068 0 2.073-.416 2.828-1.172.756-.755 1.172-1.76 1.172-2.828 0-1.068-.416-2.073-1.172-2.828-1.145-1.146-2.936-1.419-4.394-.827-3.931-2.836-8.562-4.345-13.434-4.345-12.683 0-23 10.317-23 23 0 12.683 10.317 23 23 23 12.683 0 23-10.317 23-23 0-2.981-.563-5.884-1.673-8.626" mask="url(#1)"/><path d="m642.78 63.28h1.487c.715 0 1.262-.148 1.641-.447.378-.299.567-.747.567-1.345 0-.607-.189-1.029-.567-1.264-.379-.234-.926-.351-1.641-.351h-1.487v3.407m3.855 5.568l-2.255-4.095h-1.6v4.095h-1.856v-10.464h3.536c.544 0 1.05.054 1.519.161.47.106.875.279 1.217.519.341.24.61.558.808.952.197.395.296.886.296 1.472 0 .801-.19 1.446-.568 1.937-.379.49-.883.842-1.513 1.055l2.497 4.368h-2.081" mask="url(#1)"/><path mask="url(#1)" d="m650.4 58.39h6.31v1.565h-4.45v2.675h3.76v1.57h-3.76v3.08h4.61v1.572h-6.47z"/><path d="m657.92 58.39h1.968l1.471 5.264c.171.597.324 1.163.457 1.696.133.533.291 1.103.472 1.712h.064c.181-.609.339-1.179.471-1.712.134-.533.281-1.099.441-1.696l1.456-5.264h1.904l-3.248 10.464h-2.192l-3.264-10.464" mask="url(#1)"/><path mask="url(#1)" d="m668 68.852h1.86v-10.462h-1.86z"/><path mask="url(#1)" d="m672.4 58.39h6.3v1.565h-4.45v2.675h3.76v1.57h-3.76v3.08h4.61v1.572h-6.46z"/><path d="m680.09 58.39h1.903l.912 5.28c.086.566.171 1.125.256 1.68.086.555.171 1.109.257 1.664h.064c.117-.555.232-1.112.343-1.672.113-.56.227-1.117.345-1.672l1.279-5.28h1.617l1.28 5.28c.117.544.234 1.096.351 1.656.118.56.235 1.123.353 1.688h.063c.086-.565.168-1.125.248-1.68.081-.554.164-1.109.249-1.664l.912-5.28h1.776l-2 10.464h-2.305l-1.296-5.504c-.085-.405-.168-.808-.248-1.208-.08-.4-.151-.803-.215-1.208h-.064c-.075.405-.152.808-.232 1.208-.08.4-.163.803-.248 1.208l-1.264 5.504h-2.256l-2.08-10.464" mask="url(#1)"/><path d="m768.44 18c0 .802-.312 1.555-.879 2.121-1.133 1.133-3.109 1.133-4.242 0-.566-.566-.879-1.319-.879-2.121 0-.802.313-1.555.879-2.121.566-.567 1.319-.879 2.121-.879.802 0 1.555.312 2.121.879.567.566.879 1.319.879 2.121m19.57 14.705l-5.67-6.47c.176-2.249.27-4.204.285-5.971-.018-8.364-2.244-13.901-7.939-19.749-.323-.331-.759-.515-1.227-.515h-.002c-.483 0-.955.199-1.297.55-4.182 4.295-6.301 7.954-7.251 12.502-1.134.12-2.188.596-3 1.413-.944.943-1.465 2.199-1.465 3.535 0 1.336.521 2.592 1.465 3.535.943.944 2.199 1.465 3.535 1.465 1.336 0 2.592-.521 3.535-1.465.944-.943 1.465-2.199 1.465-3.535 0-1.336-.521-2.591-1.465-3.535-.584-.584-1.294-.983-2.061-1.22.884-4.04 2.751-7.234 6.526-11.142 5.15 5.36 7.169 10.476 7.185 18.15-.016 1.818-.118 3.859-.312 6.239-.021.27.066.537.245.74l5.87 6.697-2.579 10.07-1.767.002-3.098-6.01c-.171-.333-.515-.542-.889-.542h-9.31c-.374 0-.718.209-.889.542l-3.096 6.01h-1.768l-2.581-10.06 5.871-6.7c.364-.415.322-1.047-.093-1.411-.414-.363-1.047-.324-1.411.093l-5.981 6.825c-.331.419-.466.99-.349 1.584l2.65 10.344c.192.744.87 1.291 1.698 1.329h2.121c.459 0 .913-.197 1.244-.538.075-.076.214-.218.307-.412l2.886-5.599h8.092l2.901 5.628c.3.539.853.883 1.536.921l2.198-.003c.448-.034.863-.225 1.167-.535.233-.238.382-.5.454-.792l2.663-10.399c.104-.538-.031-1.109-.395-1.566" mask="url(#1)"/><path d="m745 66.24c.373.353.8.638 1.28.856.48.219.96.329 1.44.329.597 0 1.051-.123 1.36-.369.31-.245.464-.57.464-.975 0-.214-.04-.395-.12-.544-.08-.15-.192-.28-.336-.393-.144-.112-.315-.216-.512-.311-.197-.097-.414-.193-.648-.288l-1.44-.624c-.256-.107-.509-.241-.76-.401-.25-.16-.478-.351-.68-.576-.203-.224-.365-.485-.488-.784-.122-.298-.184-.64-.184-1.024 0-.416.088-.802.264-1.16.176-.357.419-.669.728-.935.309-.267.68-.475 1.111-.624.433-.15.905-.225 1.417-.225.608 0 1.195.12 1.76.361.566.24 1.05.562 1.456.967l-.944 1.185c-.342-.277-.693-.496-1.056-.656-.363-.161-.768-.241-1.216-.241-.501 0-.902.11-1.2.328-.299.219-.448.52-.448.905 0 .202.045.376.136.519.091.145.214.273.368.384.154.112.333.214.536.305.202.091.41.178.624.263l1.424.592c.31.128.592.278.848.448.256.171.477.369.664.592.186.224.334.483.44.777.107.293.16.632.16 1.015 0 .427-.086.827-.256 1.2-.171.374-.419.702-.744.985-.326.282-.72.506-1.184.672-.464.165-.99.248-1.576.248-.704 0-1.384-.134-2.04-.401-.656-.266-1.235-.645-1.736-1.135l1.088-1.265" mask="url(#1)"/><path mask="url(#1)" d="m755.55 59.955h-3.02v-1.565h7.9v1.565h-3.03v8.896h-1.85z"/><path d="m765.78 64.56l-.368-1.28c-.171-.554-.333-1.125-.488-1.712-.155-.586-.307-1.168-.456-1.744h-.064c-.149.587-.299 1.171-.448 1.752-.15.582-.31 1.15-.48 1.704l-.368 1.28h2.672m.416 1.456h-3.52l-.816 2.832h-1.889l3.409-10.464h2.175l3.409 10.464h-1.953l-.815-2.832" mask="url(#1)"/><path d="m769.49 63.65c0-.854.128-1.618.384-2.296.256-.677.607-1.25 1.055-1.72.449-.469.977-.827 1.584-1.072.609-.245 1.264-.368 1.968-.368.363 0 .699.038 1.01.112.309.074.592.174.848.296.256.123.49.264.704.424.213.16.399.326.559.496l-1.023 1.152c-.267-.255-.558-.463-.872-.624-.316-.16-.718-.24-1.208-.24-.47 0-.894.088-1.273.264-.379.177-.704.427-.975.752-.273.326-.484.723-.632 1.192-.149.47-.225.997-.225 1.584 0 1.194.27 2.131.809 2.808.538.678 1.336 1.016 2.392 1.016.298 0 .581-.04.847-.12.267-.08.486-.194.656-.343v-2.256h-1.983v-1.521h3.647v4.609c-.362.351-.837.647-1.423.887-.587.24-1.244.361-1.968.361-.693 0-1.339-.119-1.937-.353-.597-.234-1.114-.581-1.551-1.04-.438-.458-.779-1.023-1.025-1.696-.245-.672-.367-1.44-.367-2.304" mask="url(#1)"/><path mask="url(#1)" d="m780.07 68.852h1.85v-10.462h-1.85z"/><path d="m784.46 58.39h1.903l3.265 5.888 1.071 2.224h.065c-.043-.545-.094-1.129-.153-1.752-.058-.624-.088-1.229-.088-1.816v-4.544h1.777v10.464h-1.904l-3.264-5.888-1.072-2.224h-.065c.043.554.094 1.136.152 1.744.059.608.088 1.206.088 1.792v4.576h-1.775v-10.464" mask="url(#1)"/><path d="m794.33 63.65c0-.854.128-1.618.384-2.296.256-.677.608-1.25 1.056-1.72.448-.469.976-.827 1.584-1.072.608-.245 1.264-.368 1.968-.368.362 0 .698.038 1.01.112.31.074.592.174.848.296.256.123.491.264.704.424.214.16.4.326.56.496l-1.024 1.152c-.267-.255-.558-.463-.872-.624-.315-.16-.717-.24-1.208-.24-.47 0-.894.088-1.272.264-.379.177-.704.427-.976.752-.272.326-.483.723-.632 1.192-.149.47-.224.997-.224 1.584 0 1.194.269 2.131.808 2.808.539.678 1.336 1.016 2.392 1.016.298 0 .582-.04.848-.12.267-.08.485-.194.656-.343v-2.256h-1.984v-1.521h3.648v4.609c-.363.351-.837.647-1.424.887-.586.24-1.243.361-1.968.361-.693 0-1.339-.119-1.936-.353-.597-.234-1.115-.581-1.552-1.04-.438-.458-.779-1.023-1.024-1.696-.245-.672-.368-1.44-.368-2.304" mask="url(#1)"/><path d="m859.96 43.99c.419-1.255 1.605-2.162 3-2.162.864 0 1.671.344 2.273.968.231.239.567.351.894.29.328-.058.605-.275.74-.579.985-2.218 3.185-3.652 5.607-3.652 1.582 0 3.086.605 4.234 1.703.271.258.663.345 1.016.224.353-.122.61-.43.665-.8l1.488-10.05h1.842l1.488 10.05c.055.37.312.678.665.8.353.122.746.034 1.016-.224 1.148-1.098 2.652-1.703 4.234-1.703 2.422 0 4.622 1.434 5.607 3.652.134.304.412.521.739.579.328.06.664-.051.893-.289.604-.625 1.412-.969 2.275-.969 1.394 0 2.581.907 3 2.162h-41.676m16.838-30c0 .534-.208 1.036-.586 1.414-.756.756-2.072.756-2.828 0-.378-.378-.586-.88-.586-1.414 0-.534.208-1.036.586-1.414.378-.378.88-.586 1.414-.586.534 0 1.036.208 1.414.586.378.378.586.88.586 1.414m21.838 25.838c-.963 0-1.883.262-2.683.751-1.483-2.296-4.047-3.724-6.831-3.724-1.491 0-2.93.405-4.184 1.161l-1.197-8.08h.01l2.174 4.34c.269.475.763.778 1.378.813l1.703-.003c.399-.031.768-.199 1.041-.474.21-.212.344-.447.408-.705l2.047-7.839c.095-.478-.029-.987-.362-1.398l-4.277-4.786c.13-1.649.199-3.09.21-4.403-.013-6.368-1.74-10.584-6.159-15.03-.59-.596-1.659-.577-2.258.025-3.3 3.325-4.913 6.079-5.645 9.632-.759.143-1.478.495-2.041 1.059-.756.755-1.172 1.76-1.172 2.828 0 1.068.416 2.073 1.172 2.828.755.756 1.76 1.172 2.828 1.172 1.068 0 2.073-.416 2.828-1.172.756-.755 1.172-1.76 1.172-2.828 0-1.068-.416-2.073-1.172-2.828-.451-.451-1.01-.751-1.599-.933.658-2.912 2.046-5.263 4.771-8.07 3.827 3.964 5.264 7.618 5.275 13.31-.011 1.365-.09 2.893-.237 4.673-.023.274.067.545.25.749l4.412 4.936-1.896 7.257-1.037.002-2.302-4.602c-.17-.339-.516-.553-.895-.553h-7.14c-.379 0-.725.214-.895.553l-2.303 4.6h-1.036l-1.897-7.255 4.413-4.939c.367-.411.332-1.044-.08-1.412-.411-.366-1.042-.333-1.412.08l-4.594 5.144c-.301.373-.425.882-.317 1.419l2.034 7.78c.173.662.781 1.147 1.526 1.182h1.626c.411 0 .818-.173 1.114-.472.062-.062.191-.19.289-.388l2.15-4.293h.009l-1.197 8.08c-1.255-.756-2.693-1.161-4.184-1.161-2.785 0-5.348 1.428-6.831 3.724-.799-.489-1.72-.751-2.683-.751-2.847 0-5.162 2.315-5.162 5.162 0 .553.447 1 1 1h44c.553 0 1-.447 1-1 0-2.847-2.316-5.162-5.162-5.162" mask="url(#1)"/><path d="m838.83 63.52c1.536 0 2.304-.635 2.304-1.904 0-.661-.192-1.117-.575-1.367-.385-.251-.96-.376-1.729-.376h-1.52v3.647h1.52m-3.376-5.136h3.521c.575 0 1.106.054 1.591.16.486.107.905.289 1.256.544.352.256.629.589.832 1 .202.411.304.92.304 1.528 0 .576-.102 1.078-.304 1.505-.203.426-.482.781-.84 1.063-.357.283-.779.491-1.264.624-.486.134-1.01.2-1.575.2h-1.665v3.84h-1.856v-10.464" mask="url(#1)"/><path d="m846.55 63.28h1.488c.715 0 1.261-.148 1.64-.447.379-.299.568-.747.568-1.345 0-.607-.189-1.029-.568-1.264-.379-.234-.925-.351-1.64-.351h-1.488v3.407m3.856 5.568l-2.255-4.095h-1.601v4.095h-1.855v-10.464h3.535c.545 0 1.05.054 1.52.161.469.106.874.279 1.216.519.342.24.61.558.809.952.197.395.296.886.296 1.472 0 .801-.19 1.446-.569 1.937-.379.49-.883.842-1.512 1.055l2.497 4.368h-2.081" mask="url(#1)"/><path d="m858.21 67.43c.416 0 .789-.091 1.12-.272.33-.181.613-.44.848-.776.234-.336.416-.741.544-1.217.128-.473.192-1 .192-1.591 0-1.173-.243-2.093-.728-2.76-.486-.666-1.144-1-1.976-1-.832 0-1.491.334-1.977 1-.485.667-.727 1.587-.727 2.76 0 .586.063 1.118.191 1.591.128.476.31.881.544 1.217.236.336.518.595.849.776.33.181.704.272 1.12.272m0 1.616c-.683 0-1.307-.126-1.872-.376-.566-.251-1.051-.613-1.456-1.089-.405-.473-.72-1.047-.944-1.719-.224-.672-.336-1.435-.336-2.288 0-.842.112-1.597.336-2.264.224-.667.539-1.23.944-1.689.405-.458.89-.81 1.456-1.055.565-.245 1.189-.368 1.872-.368.683 0 1.307.123 1.872.368.565.245 1.053.597 1.464 1.055.41.459.727 1.022.952 1.689.224.667.336 1.422.336 2.264 0 .853-.112 1.616-.336 2.288-.225.672-.542 1.246-.952 1.719-.411.476-.899.838-1.464 1.089-.565.25-1.189.376-1.872.376" mask="url(#1)"/><path d="m867.53 67.35c1.066 0 1.885-.307 2.456-.92.57-.613.856-1.565.856-2.856 0-1.28-.289-2.213-.864-2.8-.576-.586-1.392-.88-2.448-.88h-.816v7.456h.816m-2.672-8.96h2.8c1.6 0 2.848.432 3.744 1.296.896.864 1.344 2.16 1.344 3.888 0 .864-.115 1.627-.344 2.288-.229.662-.56 1.214-.992 1.656-.432.442-.955.776-1.568 1-.614.224-1.31.336-2.088.336h-2.896v-10.464" mask="url(#1)"/><path d="m874.67 58.39h1.856v6.02c0 .565.051 1.043.153 1.432.1.389.245.701.431.936.187.234.409.402.664.504.256.101.544.152.865.152.319 0 .613-.051.88-.152.266-.102.496-.27.687-.504.193-.235.342-.547.448-.936.107-.389.161-.867.161-1.432v-6.02h1.776v5.872c0 .864-.091 1.598-.273 2.2-.181.603-.445 1.096-.792 1.48-.346.384-.762.664-1.248.84-.485.175-1.032.264-1.639.264-.609 0-1.156-.089-1.641-.264-.485-.176-.901-.456-1.248-.84-.347-.384-.613-.877-.8-1.48-.186-.602-.28-1.336-.28-2.2v-5.872" mask="url(#1)"/><path d="m884.52 63.65c0-.854.125-1.618.376-2.296.25-.677.594-1.25 1.031-1.72.438-.469.949-.827 1.536-1.072.587-.245 1.216-.368 1.889-.368.64 0 1.213.134 1.72.4.506.267.925.577 1.256.928l-1.04 1.152c-.267-.266-.552-.477-.857-.631-.304-.156-.658-.233-1.063-.233-.438 0-.835.088-1.193.264-.357.177-.666.427-.927.752-.262.326-.464.723-.609 1.192-.143.47-.216.997-.216 1.584 0 1.194.259 2.131.777 2.808.517.678 1.218 1.016 2.103 1.016.47 0 .878-.09 1.225-.272.346-.181.669-.437.968-.768l1.04 1.136c-.427.491-.912.867-1.456 1.128-.544.262-1.147.393-1.808.393-.673 0-1.296-.119-1.872-.353-.576-.234-1.078-.581-1.504-1.04-.427-.458-.763-1.023-1.01-1.696-.245-.672-.367-1.44-.367-2.304" mask="url(#1)"/><path mask="url(#1)" d="m896.62 59.955h-3.02v-1.565h7.9v1.565h-3.02v8.896h-1.86z"/><path mask="url(#1)" d="m903.13 68.852h1.85v-10.462h-1.85z"/><path d="m911.65 67.43c.416 0 .789-.091 1.12-.272.33-.181.613-.44.848-.776.235-.336.416-.741.544-1.217.129-.473.192-1 .192-1.591 0-1.173-.243-2.093-.727-2.76-.487-.666-1.145-1-1.977-1-.832 0-1.49.334-1.976 1-.485.667-.728 1.587-.728 2.76 0 .586.064 1.118.192 1.591.128.476.31.881.544 1.217.235.336.518.595.848.776.331.181.704.272 1.12.272m0 1.616c-.683 0-1.307-.126-1.872-.376-.566-.251-1.051-.613-1.456-1.089-.405-.473-.72-1.047-.943-1.719-.225-.672-.336-1.435-.336-2.288 0-.842.111-1.597.336-2.264.223-.667.538-1.23.943-1.689.405-.458.89-.81 1.456-1.055.565-.245 1.189-.368 1.872-.368.683 0 1.307.123 1.872.368.566.245 1.054.597 1.464 1.055.411.459.728 1.022.952 1.689.224.667.336 1.422.336 2.264 0 .853-.112 1.616-.336 2.288-.224.672-.541 1.246-.952 1.719-.41.476-.898.838-1.464 1.089-.565.25-1.189.376-1.872.376" mask="url(#1)"/><path d="m918.3 58.39h1.904l3.264 5.888 1.072 2.224h.064c-.042-.545-.093-1.129-.152-1.752-.058-.624-.088-1.229-.088-1.816v-4.544h1.776v10.464h-1.903l-3.265-5.888-1.071-2.224h-.065c.043.554.093 1.136.152 1.744.059.608.088 1.206.088 1.792v4.576h-1.776v-10.464" mask="url(#1)"/><path d="m989.15 2c1.103 0 2 .897 2 2 0 1.103-.897 2-2 2-1.103 0-2-.897-2-2 0-1.103.897-2 2-2m0 6c1.869 0 3.429-1.293 3.866-3.03h9.28c2.071 0 3.756 1.685 3.756 3.756v6.542c0 .552.448 1 1 1 .553 0 1-.448 1-1v-6.542c0-3.174-2.582-5.756-5.756-5.756h-9.296c-.457-1.707-2-2.973-3.85-2.973-2.206 0-4 1.794-4 4 0 2.206 1.794 4 4 4" mask="url(#1)"/><path d="m968.15 26c0 .553.447 1 1 1 .553 0 1-.447 1-1v-2h2c.553 0 1-.447 1-1 0-.553-.447-1-1-1h-2v-2c0-.553-.447-1-1-1-.553 0-1 .447-1 1v2h-2c-.553 0-1 .447-1 1 0 .553.447 1 1 1h2v2" mask="url(#1)"/><path d="m1010.15 22h-2v-2c0-.553-.447-1-1-1-.553 0-1 .447-1 1v2h-2c-.553 0-1 .447-1 1 0 .553.447 1 1 1h2v2c0 .553.447 1 1 1 .553 0 1-.447 1-1v-2h2c.553 0 1-.447 1-1 0-.553-.447-1-1-1" mask="url(#1)"/><path d="m977.98 22.15c-.292.183-.47.503-.47.848 0 .344.178.665.47.847l4.757 2.973c.165.103.348.152.529.152.333 0 .659-.167.849-.469.293-.469.15-1.086-.318-1.378l-3.4-2.125 3.4-2.125c.468-.292.611-.91.318-1.378-.292-.469-.908-.612-1.378-.318l-4.757 2.973" mask="url(#1)"/><path d="m998.07 23.848c.292-.183.47-.503.47-.848 0-.344-.178-.665-.47-.847l-4.757-2.973c-.47-.294-1.086-.149-1.378.317-.293.469-.15 1.086.318 1.378l3.4 2.125-3.4 2.125c-.468.292-.611.91-.318 1.378.19.304.516.47.849.47.181 0 .364-.049.529-.152l4.757-2.973" mask="url(#1)"/><path d="m985.64 30.494c.101.032.202.047.303.047.424 0 .817-.272.953-.697l4.162-13.08c.167-.526-.124-1.088-.65-1.256-.526-.169-1.089.123-1.256.65l-4.162 13.08c-.167.526.124 1.088.65 1.256" mask="url(#1)"/><path d="m968.99 16.27c.553 0 1-.447 1-1v-6.541c0-2.071 1.686-3.757 3.757-3.757h5.614l-1.267 1.267c-.39.39-.39 1.023 0 1.414.196.195.452.293.708.293.255 0 .511-.098.707-.293l2.972-2.974c.391-.39.391-1.023 0-1.414l-2.972-2.973c-.391-.39-1.024-.39-1.415 0-.39.391-.39 1.024 0 1.415l1.266 1.265h-5.613c-3.175 0-5.757 2.582-5.757 5.757v6.541c0 .553.447 1 1 1" mask="url(#1)"/><path d="m987.15 44c-1.103 0-2-.897-2-2 0-1.103.897-2 2-2 1.103 0 2 .897 2 2 0 1.103-.897 2-2 2m0-6c-1.869 0-3.429 1.293-3.866 3.03h-9.53c-2.071 0-3.756-1.685-3.756-3.756v-6.542c0-.552-.448-1-1-1-.553 0-1 .448-1 1v6.542c0 3.174 2.582 5.756 5.756 5.756h9.546c.457 1.707 2 2.973 3.85 2.973 2.206 0 4-1.794 4-4 0-2.206-1.794-4-4-4" mask="url(#1)"/><path d="m1007.05 29.729c-.553 0-1 .447-1 1v6.541c0 2.071-1.686 3.757-3.757 3.757h-5.614l1.267-1.267c.39-.39.39-1.023 0-1.414-.391-.39-1.024-.39-1.415 0l-2.972 2.974c-.391.39-.391 1.023 0 1.414l2.972 2.973c.196.195.452.293.707.293.256 0 .512-.098.708-.293.39-.391.39-1.024 0-1.415l-1.266-1.265h5.613c3.175 0 5.757-2.582 5.757-5.757v-6.541c0-.553-.447-1-1-1" mask="url(#1)"/><path mask="url(#1)" d="m953.62 58.39h6.32v1.565h-4.46v2.961h3.8v1.564h-3.8v4.372h-1.86z"/><path mask="url(#1)" d="m961.61 58.39h6.3v1.565h-4.45v2.675h3.76v1.57h-3.76v3.08h4.61v1.572h-6.46z"/><path mask="url(#1)" d="m970 58.39h6.31v1.565h-4.45v2.675h3.76v1.57h-3.76v3.08h4.61v1.572h-6.47z"/><path d="m981.07 67.35c1.066 0 1.885-.307 2.456-.92.57-.613.856-1.565.856-2.856 0-1.28-.289-2.213-.864-2.8-.576-.586-1.392-.88-2.448-.88h-.816v7.456h.816m-2.672-8.96h2.8c1.6 0 2.848.432 3.744 1.296.896.864 1.344 2.16 1.344 3.888 0 .864-.115 1.627-.344 2.288-.229.662-.56 1.214-.992 1.656-.432.442-.955.776-1.568 1-.614.224-1.31.336-2.088.336h-2.896v-10.464" mask="url(#1)"/><path d="m991.72 67.41c.768 0 1.359-.144 1.775-.432.416-.288.624-.73.624-1.328 0-.544-.202-.946-.607-1.208-.405-.261-1-.391-1.792-.391h-1.568v3.359h1.568m-.24-4.687c.736 0 1.266-.134 1.592-.401.325-.266.488-.644.488-1.136 0-.479-.171-.826-.512-1.04-.342-.213-.853-.32-1.536-.32h-1.36v2.897h1.328m-3.184-4.336h3.344c.544 0 1.042.044 1.496.135.453.091.848.236 1.184.432.336.198.597.462.784.793.186.33.28.735.28 1.216 0 .501-.147.965-.44 1.391-.293.427-.745.72-1.352.88v.065c.757.128 1.336.397 1.735.807.401.411.601.968.601 1.672 0 .524-.102.977-.305 1.361-.202.383-.482.704-.84.959-.357.256-.781.446-1.271.569-.491.122-1.024.183-1.601.183h-3.615v-10.463" mask="url(#1)"/><path d="m1002.41 64.56l-.367-1.28c-.171-.554-.334-1.125-.488-1.712-.156-.586-.307-1.168-.457-1.744h-.064c-.149.587-.299 1.171-.447 1.752-.15.582-.31 1.15-.481 1.704l-.368 1.28h2.672m.416 1.456h-3.52l-.816 2.832h-1.888l3.409-10.464h2.175l3.409 10.464h-1.953l-.816-2.832" mask="url(#1)"/><path d="m1006.13 63.65c0-.854.125-1.618.376-2.296.251-.677.595-1.25 1.032-1.72.438-.469.949-.827 1.536-1.072.586-.245 1.216-.368 1.888-.368.64 0 1.213.134 1.72.4.507.267.926.577 1.256.928l-1.04 1.152c-.267-.266-.552-.477-.856-.631-.304-.156-.659-.233-1.064-.233-.438 0-.834.088-1.192.264-.357.177-.667.427-.927.752-.262.326-.465.723-.609 1.192-.144.47-.216.997-.216 1.584 0 1.194.258 2.131.776 2.808.517.678 1.218 1.016 2.104 1.016.469 0 .877-.09 1.224-.272.346-.181.67-.437.968-.768l1.04 1.136c-.427.491-.912.867-1.455 1.128-.545.262-1.148.393-1.809.393-.672 0-1.296-.119-1.872-.353-.576-.234-1.077-.581-1.504-1.04-.427-.458-.763-1.023-1.01-1.696-.245-.672-.368-1.44-.368-2.304" mask="url(#1)"/><path mask="url(#1)" d="m1015.76 58.39h1.86v4.75h.04l3.73-4.75h2.07l-3.22 4.08 3.76 6.382h-2.05l-2.83-4.928-1.5 1.872v3.056h-1.86z"/></g><g><g transform="translate(0 28)" fill="#e04733"><path d="m7 53c3.866 0 7-3.134 7-7 0-3.866-3.134-7-7-7-3.866 0-7 3.134-7 7 0 3.866 3.134 7 7 7m0-2c-2.761 0-5-2.239-5-5 0-2.761 2.239-5 5-5 2.761 0 5 2.239 5 5 0 2.761-2.239 5-5 5"/><path d="m1084 53c3.866 0 7-3.134 7-7 0-3.866-3.134-7-7-7-3.866 0-7 3.134-7 7 0 3.866 3.134 7 7 7m0-2c-2.761 0-5-2.239-5-5 0-2.761 2.239-5 5-5 2.761 0 5 2.239 5 5 0 2.761-2.239 5-5 5"/><path d="m487 2v-2h-481v39h2v-37z"/><path d="m1083 39h2v-39h-481v2h479z"/></g><g transform="translate(507)" fill="#e14329"><path d="m22 50c1.654 0 3 1.346 3 3 0 1.654-1.346 3-3 3-1.654 0-3-1.346-3-3 0-1.654 1.346-3 3-3m47.16-18h-62.31c-3.774 0-6.844 3.108-6.844 6.928v8.143c0 3.821 3.07 6.929 6.844 6.929h10.257c.464 2.279 2.484 4 4.899 4 2.757 0 5-2.243 5-5 0-2.757-2.243-5-5-5-2.406 0-4.418 1.708-4.893 3.975h-10.263c-2.672 0-4.844-2.2-4.844-4.904v-8.143c0-2.704 2.172-4.903 4.844-4.903h62.31c2.672 0 4.844 2.199 4.844 4.903v8.143c0 2.704-2.172 4.904-4.844 4.904h-34.31c-.552 0-1 .453-1 1.013 0 .559.448 1.012 1 1.012h34.31c3.774 0 6.844-3.108 6.844-6.929v-8.143c0-3.82-3.07-6.928-6.844-6.928"/><path d="m60 46c-1.654 0-3-1.346-3-3 0-1.654 1.346-3 3-3 1.654 0 3 1.346 3 3 0 1.654-1.346 3-3 3m0-8c-2.414 0-4.433 1.719-4.898 3.997h-43.11c-.548 0-.991.448-.991 1 0 .555.443 1 .991 1h43.11c.465 2.278 2.484 3.997 4.898 3.997 2.757 0 5-2.243 5-5 0-2.757-2.243-5-5-5"/><path d="m30 8c-1.654 0-3-1.346-3-3 0-1.654 1.346-3 3-3 1.654 0 3 1.346 3 3 0 1.654-1.346 3-3 3m39.16-4h-34.26c-.464-2.28-2.484-4-4.898-4-2.758 0-5 2.243-5 5 0 2.757 2.242 5 5 5 2.405 0 4.418-1.709 4.892-3.975h34.26c2.672 0 4.845 2.2 4.845 4.904v8.142c0 2.704-2.173 4.904-4.845 4.904h-62.31c-2.672 0-4.845-2.2-4.845-4.904v-8.142c0-2.704 2.173-4.904 4.845-4.904h11.353c.553 0 1-.453 1-1.013 0-.559-.447-1.012-1-1.012h-11.353c-3.775 0-6.845 3.108-6.845 6.929v8.142c0 3.821 3.07 6.929 6.845 6.929h62.31c3.775 0 6.845-3.108 6.845-6.929v-8.142c0-3.821-3.07-6.929-6.845-6.929"/><path d="m60 18c-1.654 0-3-1.346-3-3 0-1.654 1.346-3 3-3 1.654 0 3 1.346 3 3 0 1.654-1.346 3-3 3m0-8c-2.414 0-4.433 1.719-4.898 3.997h-43.11c-.548 0-.991.448-.991 1 0 .555.443 1 .991 1h43.11c.465 2.278 2.484 3.997 4.898 3.997 2.757 0 5-2.243 5-5 0-2.757-2.243-5-5-5"/></g></g></g></svg>
