<?xml version="1.0" encoding="UTF-8"?>
<svg width="264px" height="104px" viewBox="0 0 264 104" version="1.1" xmlns="http://www.w3.org/2000/svg" xmlns:xlink="http://www.w3.org/1999/xlink">
    <!-- Generator: Sketch 41.2 (35397) - http://www.bohemiancoding.com/sketch -->
    <title>citrix-logo</title>
    <desc>Created with Sketch.</desc>
    <defs></defs>
    <g id="Desktop-EE-Page" stroke="none" stroke-width="1" fill="none" fill-rule="evenodd">
        <g id="gitlab-ee-standalone-page-v4" transform="translate(-253.000000, -804.000000)" fill="#FFFFFF">
            <g id="EE-logo-bar" transform="translate(0.000000, 622.000000)">
                <g id="@2x-org-logos" transform="translate(215.000000, 152.000000)">
                    <path d="M301.135764,61.2769124 C301.135764,58.1523457 298.58867,55.5685694 295.470219,55.5685694 C292.322961,55.5781835 289.773465,58.1259071 289.756661,61.2769124 C289.766264,64.4231107 292.322961,66.9636238 295.465418,66.9540097 L295.470219,66.9540097 C298.612676,66.9540097 301.135764,64.4303212 301.135764,61.2769124 L301.135764,61.2769124 Z M295.470219,54.6984978 C299.085605,54.7105154 302.007202,57.6548186 301.997599,61.2769124 C302.004801,64.8869887 299.085605,67.8192743 295.482222,67.8264849 L295.470219,67.8264849 C291.845231,67.8264849 288.868419,64.9134273 288.868419,61.2793159 C288.882823,57.6403975 291.835628,54.6984978 295.470219,54.6984978 L295.470219,54.6984978 Z M297.150677,59.7458747 C297.150677,58.9046453 296.430481,58.5128727 295.32618,58.5128727 L294.029826,58.5128727 L294.029826,61.1278946 L295.32618,61.1278946 C296.5001,61.1278946 297.150677,60.6760342 297.150677,59.7458747 L297.150677,59.7458747 Z M298.423024,64.8533395 L297.222697,64.8533395 L297.222697,63.9520222 C297.222697,62.3897388 296.742566,61.9979663 295.422206,61.9979663 L294.125853,61.9979663 L294.125853,64.8533395 L292.973538,64.8533395 L292.973538,57.642801 L295.422206,57.642801 C296.934619,57.642801 298.492643,57.9720823 298.492643,59.7458747 C298.492643,60.9476312 297.582795,61.3682459 296.716159,61.486018 C297.822861,61.7840536 298.351005,62.3849318 298.351005,63.6491796 L298.351005,64.850936 L298.423024,64.8533395 Z M248.895117,79.755119 L232.270583,54.9076034 L252.138401,54.9076034 L258.528944,66.3843772 L265.970974,54.9076034 L285.889206,54.9076034 L267.980322,79.8152068 L286.801455,109.077976 L267.334546,109.077976 L258.288879,93.1234574 L246.856961,109.077976 L227.197999,109.077976 L248.895117,79.755119 Z M224.410839,54.9100069 L208.146404,54.9100069 L224.410839,54.9100069 Z M216.277421,113.64465 C221.892553,113.64465 226.446595,118.20171 226.446595,123.823527 C226.446595,129.445343 221.892553,134 216.277421,134 C210.66469,134 206.11545,129.445343 206.11545,123.82593 C206.11545,118.204114 210.66469,113.649457 216.277421,113.649457 L216.277421,113.64465 Z M183.599709,72.9651953 C183.599709,71.1625607 183.150787,69.8093829 182.156916,68.8191357 C180.238792,66.8963254 176.546585,66.6247284 173.783432,66.5934828 L173.783432,79.3633464 C180.747731,79.3633464 183.599709,77.4405362 183.599709,72.9627918 L183.599709,72.9651953 Z M188.04092,87.5064479 L204.574229,109.077976 L184.111048,109.077976 L173.788233,92.9143517 L173.788233,109.077976 L157.550205,109.077976 L157.550205,54.9100069 L178.829608,54.9100069 C185.157734,54.9100069 190.259125,56.6789924 193.622442,60.0463138 C196.623261,63.0507049 198.152478,67.105431 198.152478,72.1552115 C198.152478,79.6061012 194.222606,85.374532 188.04092,87.5064479 L188.04092,87.5064479 Z M112.329072,69.0594869 L112.329072,54.9100069 L153.17141,54.9100069 L153.17141,69.0594869 L140.836846,69.0594869 L140.836846,109.077976 L124.663636,109.077976 L124.663636,69.0594869 L112.329072,69.0594869 Z M107.979085,54.9100069 L107.979085,109.077976 L91.745858,109.077976 L91.745858,54.9124104 L107.979085,54.9100069 Z M99.8480677,30.0024035 C105.455997,29.9927895 110.010039,34.5378322 110.019642,40.1524382 L110.019642,40.1572452 C110.019642,45.8055003 105.458398,50.3721747 99.8480677,50.3721747 C94.2065291,50.3721747 89.6740929,45.8055003 89.6740929,40.1572452 C89.6788942,34.5402357 94.2305356,29.995193 99.838465,30.0024035 L99.8480677,30.0024035 Z M86.7933073,62.3873353 L78.2421751,76.2075341 C75.8415204,72.2128958 71.1266345,69.6291195 66.3253251,69.6291195 C59.5146676,69.6291195 54.5333091,75.1860411 54.5333091,82.0072105 C54.5333091,88.8235729 59.5146676,94.3853016 66.3253251,94.3853016 C71.1266345,94.3853016 75.8415204,91.8015253 78.2421751,87.806887 L86.7933073,101.648717 C81.4566518,107.232078 74.0722379,110.385486 66.3565336,110.380679 C50.6946622,110.380679 38,97.6901317 38,82.0072105 C38,66.355535 50.6946622,53.6145135 66.3565336,53.6145135 C74.3987269,53.6145135 81.629499,56.9794315 86.7933073,62.3873353 L86.7933073,62.3873353 Z M208.180013,109.070765 L224.410839,109.070765 L224.410839,54.8931823 L208.180013,54.8931823 L208.180013,109.070765 Z" id="citrix-logo"></path>
                </g>
            </g>
        </g>
    </g>
</svg>