<?xml version="1.0" encoding="UTF-8"?>
<svg width="146px" height="78px" viewBox="0 0 146 78" version="1.1" xmlns="http://www.w3.org/2000/svg" xmlns:xlink="http://www.w3.org/1999/xlink">
    <!-- Generator: Sketch 41.2 (35397) - http://www.bohemiancoding.com/sketch -->
    <title>harman-logo</title>
    <desc>Created with Sketch.</desc>
    <defs></defs>
    <g id="Desktop-EE-Page" stroke="none" stroke-width="1" fill="none" fill-rule="evenodd">
        <g id="gitlab-ee-standalone-page-v4" transform="translate(-1027.000000, -774.000000)" fill="#FFFFFF">
            <g id="EE-logo-bar" transform="translate(0.000000, 622.000000)">
                <g id="org-logos" transform="translate(215.000000, 152.000000)">
                    <path d="M872.429647,40.9273899 C872.280678,44.7780228 868.123885,44.7780228 868.123885,44.7780228 L865.154393,44.7780228 L865.154393,37.3729595 L868.123885,37.3729595 C868.123885,37.3729595 872.578122,37.076757 872.429647,40.9273899 M877.032359,40.7792886 C877.032359,34.855238 868.123885,35.447643 868.123885,35.447643 L865.154393,35.447643 L860.99661,35.447643 L860.99661,37.3729595 L860.99661,44.7780228 L860.99661,46.4071367 L860.99661,55.5894152 L865.154393,55.5894152 L865.154393,46.4071367 L867.381512,46.4071367 L873.631302,53.9859722 C873.631302,53.9859722 874.805241,55.5894152 876.586441,55.5894152 L880.001851,55.5894152 L871.936217,45.9875165 C874.355363,45.4044911 877.032359,44.0266557 877.032359,40.7792886 Z M956.538169,35.4475937 C955.842318,35.4475937 955.278115,36.0103785 955.278115,36.7039861 L955.278115,49.3533152 L941.470474,35.4475937 L941.17303,35.4475937 L939.094386,35.4475937 L938.797437,35.4475937 L938.797437,55.5893658 L941.17303,55.5893658 L941.17303,40.5205557 L955.575559,55.145062 L955.576054,55.1430873 C955.806684,55.4155937 956.152135,55.5893658 956.538169,55.5893658 L957.950657,55.5893658 L957.950657,35.4475937 L956.538169,35.4475937 Z M826.402529,44.3336696 L816.157783,44.3336696 L816.157783,35.4475937 L812,35.4475937 L812,55.5893658 L816.157783,55.5893658 L816.157783,46.1108848 L826.402529,46.1108848 L826.402529,53.5159481 C826.402529,54.6607709 827.332969,55.5893658 828.480678,55.5893658 L830.559322,55.5893658 L830.559322,35.4475937 L826.402529,35.4475937 L826.402529,44.3336696 Z M906.429929,55.5893165 L908.508574,55.5893165 L908.508574,35.4475443 L906.77637,35.4475443 L904.400777,35.4475443 L904.35178,35.4475443 L904.35178,35.5378861 L896.226262,50.3435696 L887.870607,35.4475443 L886.088913,35.4475443 L885.495014,35.4475443 L883.713814,35.4475443 L883.713814,55.5893165 L886.088913,55.5893165 L886.088913,40.3551266 L894.551963,55.4135696 L894.551963,55.5893165 L895.88774,55.5893165 L895.88774,55.5004557 L904.35178,40.1823418 L904.35178,53.5158987 C904.35178,54.6612152 905.282221,55.5893165 906.429929,55.5893165 Z M845.016935,40.4180696 L848.482826,47.1477911 L842.88286,47.1477911 L841.843538,49.2212089 L849.550854,49.2212089 L852.11006,54.1900063 C852.11006,54.1900063 852.607945,55.5890696 854.352521,55.5890696 L857.13642,55.5890696 L846.743199,35.0034873 L845.258454,35.0034873 L834.568779,55.5890696 L837.092352,55.5890696 L845.016935,40.4180696 Z M923.059379,35.0033392 L912.368715,55.5894152 L914.893277,55.5894152 L918.219603,49.2210608 L925.880396,49.2210608 L924.841074,47.147643 L919.302477,47.147643 L922.817365,40.4179215 L929.910986,54.1903519 C929.910986,54.1903519 930.408871,55.5894152 932.153447,55.5894152 L934.937345,55.5894152 L924.544125,35.0033392 L923.059379,35.0033392 Z M929.650066,17.0375696 C929.707477,16.336557 929.740636,15.6113544 929.740636,14.8614684 C929.740636,7.45640506 923.356229,0.347544304 909.399619,0.49564557 C895.443009,0.643746835 880.298602,7.90070886 880.298602,7.90070886 C880.298602,7.90070886 864.560297,14.4171646 849.861314,27.4500759 L850.158263,27.4500759 L852.236907,27.4500759 C852.236907,27.4500759 874.805043,13.6667848 905.093856,13.8247595 C912.750195,13.8647468 918.717388,14.8767722 923.350785,16.3321139 C923.838772,20.9296709 920.832161,27.4500759 920.832161,27.4500759 L926.62267,27.4500759 C926.62267,27.4500759 928.664195,24.0546076 929.443192,18.8345316 C936.825348,22.7207089 938.649111,27.4500759 938.649111,27.4500759 L941.321653,27.4500759 C941.321653,27.4500759 939.199951,21.4035949 929.650066,17.0375696 Z M905.390805,12.6399494 C883.890202,12.6399494 864.296507,20.5613924 855.320229,24.8178228 C862.606866,19.2694557 881.10086,7.50182278 898.4125,5.08678481 C918.520907,2.28174684 921.848717,9.97067089 923.027605,14.6921392 C918.371938,13.450557 912.580439,12.6399494 905.390805,12.6399494 Z M872.777622,73.9763848 C881.895446,70.6436127 888.612931,66.2524101 888.612931,66.2524101 L883.119372,66.2524101 C883.119372,66.2524101 875.423439,71.1308658 865.627087,74.0701823 C848.066999,73.5069038 841.250036,66.2524101 841.250036,66.2524101 L840.210219,66.2524101 C840.210219,66.2524101 845.976972,73.4131063 862.224049,74.9844608 C859.698497,75.5818025 857.08386,76.0137646 854.463778,76.1756886 C840.061744,77.0638025 836.498355,67.7334228 836.646829,66.2524101 L835.904456,66.2524101 C835.904456,66.2524101 837.092253,77.5086 854.018849,77.6567013 C859.063521,77.700638 864.174511,76.7049038 868.864327,75.2860937 C892.687568,75.2490684 908.805968,66.2524101 908.805968,66.2524101 L907.172253,66.2524101 C896.641446,70.7734481 885.033209,73.3829924 872.777622,73.9763848 Z" id="harman-logo"></path>
                </g>
            </g>
        </g>
    </g>
</svg>