<?xml version="1.0" encoding="UTF-8"?>
<svg width="340px" height="84px" viewBox="0 0 340 84" version="1.1" xmlns="http://www.w3.org/2000/svg" xmlns:xlink="http://www.w3.org/1999/xlink">
    <!-- Generator: Sketch 41.2 (35397) - http://www.bohemiancoding.com/sketch -->
    <title>ing-logo</title>
    <desc>Created with Sketch.</desc>
    <defs></defs>
    <g id="Desktop-EE-Page" stroke="none" stroke-width="1" fill="none" fill-rule="evenodd">
        <g id="gitlab-ee-standalone-page-v4" transform="translate(-615.000000, -810.000000)" fill="#FFFFFF">
            <g id="EE-logo-bar" transform="translate(0.000000, 622.000000)">
                <g id="@2x-org-logos" transform="translate(215.000000, 152.000000)">
                    <path d="M589.223915,96.51024 L589.223915,112.59144 C580.19758,117.06744 571.672171,119.38824 563.146762,119.38824 C539.443559,119.38824 525.11879,105.46224 525.11879,87.88944 C525.11879,69.15624 541.44968,53.40744 562.143701,53.40744 C567.325979,53.40744 571.170036,54.40224 575.349253,55.72824 C578.191459,56.55744 580.029395,57.71784 581.868541,57.71784 C583.372527,57.71784 583.874662,55.06464 584.041637,53.40744 L586.381708,53.40744 L588.387829,75.12384 L585.713808,75.12384 C584.543772,70.98024 582.537651,67.33224 579.86363,64.84584 C575.516228,60.70104 569.66605,58.38024 562.812811,58.38024 C548.636868,58.38024 540.279644,69.65304 540.279644,86.39784 C540.279644,102.97584 550.477224,114.41424 563.982847,114.41424 C567.993879,114.41424 571.672171,113.41944 576.185338,111.43104 L576.185338,94.85184 C576.185338,89.54784 575.349253,87.55824 567.659929,87.55824 L567.659929,85.07184 L596.244128,85.07184 L596.244128,87.55824 C589.05573,87.55824 589.223915,89.71344 589.223915,96.51024 L589.223915,96.51024 Z M510.424982,69.98544 L510.424982,118.22784 L506.596655,118.22784 L458.037153,68.49264 C458.270676,69.81984 458.270676,70.98024 458.270676,72.30624 L458.270676,102.47784 C458.270676,111.92784 458.270676,115.24344 466.845694,115.24344 L466.845694,117.72984 L444.029395,117.72984 L444.029395,115.24344 C452.622562,115.24344 452.622562,111.26424 452.622562,102.47784 L452.622562,67.99584 C452.622562,62.85624 452.622562,57.21984 443.595018,57.21984 L443.595018,54.89904 L465.041637,54.89904 L505.007972,95.51544 C504.792598,94.52064 504.792598,93.85824 504.792598,92.19984 L504.792598,69.98544 C504.792598,61.03344 505.007972,57.21984 496.434164,57.21984 L496.434164,54.89904 L519.251673,54.89904 L519.251673,57.21984 C510.893238,57.21984 510.424982,60.86664 510.424982,69.98544 L510.424982,69.98544 Z M400,117.72984 L400,115.24344 C405.415801,115.24344 409.261068,114.91224 409.261068,106.95504 L409.261068,65.50944 C409.261068,57.55104 406.318434,57.21984 400,57.21984 L400,54.89904 L432.060427,54.89904 L432.060427,57.21984 C425.50847,57.21984 422.800569,57.55104 422.800569,65.50944 L422.800569,106.95504 C422.800569,114.91224 426.19452,115.24344 432.060427,115.24344 L432.060427,117.72984 L400,117.72984 Z M728.634804,62.02824 C725.458648,58.87824 721.947331,57.38544 719.2721,54.23544 C717.936299,52.90944 716.765053,51.58344 715.930178,49.75944 C714.760142,48.59904 714.091032,47.93664 712.754021,47.27304 C712.920996,47.93664 713.256157,48.59904 713.421922,49.26264 L713.256157,49.26264 C712.084911,49.26264 710.914875,48.59904 710.08,47.93664 L710.914875,47.10744 C710.74911,46.61064 710.08,46.61064 709.577865,46.61064 C706.066548,45.94704 702.557651,47.93664 699.047544,48.59904 L699.047544,49.09704 C701.220641,49.75944 701.721566,52.41264 703.058577,53.73864 L704.396797,53.73864 C704.897722,53.73864 705.565623,54.23544 706.066548,54.23544 C706.066548,53.73864 705.565623,52.90944 705.565623,52.90944 C706.066548,52.41264 706.401708,52.41264 706.903843,52.90944 C708.073879,53.57304 709.577865,52.41264 710.74911,54.23544 C709.41089,54.23544 708.073879,54.23544 706.903843,54.89904 C706.903843,55.06464 707.572954,55.56264 707.404769,56.05944 C706.234733,55.56264 704.897722,56.05944 704.396797,55.06464 L704.228612,55.39704 C705.565623,56.88864 707.572954,58.21464 709.577865,58.87824 C712.587046,59.37504 714.927117,58.04904 717.936299,58.71144 C728.299644,63.51984 735.488043,75.12384 735.488043,86.72904 C735.488043,103.30704 725.959573,109.93824 719.94121,109.93824 C718.771174,109.93824 716.933238,109.27584 716.264128,108.61224 C716.933238,106.12584 717.434164,103.47264 717.434164,99.49464 C717.434164,89.87904 713.588897,79.59984 708.407829,74.29584 C706.066548,71.80944 703.226762,69.81984 700.384555,69.81984 C699.047544,69.81984 697.709324,69.81984 696.706263,70.98024 C695.703203,71.80944 695.035302,73.63224 695.202278,74.79264 C693.363132,76.11864 690.522135,76.78224 688.180854,76.78224 C685.673808,76.78224 682.665836,75.78744 679.656655,73.63224 L679.656655,70.31664 C678.988754,69.98544 676.815658,68.65944 677.817509,67.66464 C678.485409,67.83024 678.988754,68.32704 679.15452,68.49264 C678.988754,67.00104 678.988754,65.17704 677.817509,63.85104 C677.483559,63.85104 676.815658,63.85104 676.146548,63.35424 C675.477438,62.69064 674.808327,61.86144 674.808327,60.70104 C675.477438,61.86144 676.480498,61.36464 677.149609,62.02824 C676.146548,59.37504 676.480498,58.21464 674.474377,54.23544 C674.140427,52.24704 671.967331,51.08544 670.62911,49.75944 C669.96121,49.26264 669.794235,48.59904 668.958149,48.59904 C667.955089,48.43344 667.955089,47.27304 667.955089,46.61064 C668.290249,46.61064 668.958149,47.10744 669.29331,47.27304 C667.955089,44.12304 667.120214,40.80744 664.111032,38.98464 L663.441922,39.48144 L659.931815,39.48144 C660.43395,38.98464 661.268826,38.81784 661.937936,38.32104 C661.268826,37.65744 660.7679,37.49184 659.42968,37.49184 C658.761779,37.65744 657.925694,38.32104 656.922633,38.32104 L656.755658,38.32104 C656.755658,37.65744 656.588683,36.82944 657.925694,36.33144 C656.588683,36.16584 655.418648,36.16584 653.746477,36.33144 C653.579502,37.49184 652.911601,38.15544 652.911601,38.98464 C652.242491,39.48144 652.074306,40.14504 651.407616,40.80744 C651.407616,39.48144 652.074306,38.15544 652.242491,36.82944 C651.407616,36.99504 650.23637,37.65744 649.735445,37.65744 C648.063274,36.82944 645.723203,36.00024 644.887117,36.00024 C646.224128,36.82944 645.556228,38.32104 645.723203,39.48144 L644.887117,38.98464 C644.553167,38.15544 643.550107,37.49184 643.216157,36.33144 C641.879146,36.33144 641.04306,36.82944 639.871815,37.49184 L639.871815,37.65744 C640.540925,37.65744 641.543986,38.32104 641.879146,38.98464 C640.37395,38.98464 639.203915,38.32104 637.698719,38.32104 C637.698719,38.32104 637.698719,38.15544 637.364769,38.15544 C636.695658,38.32104 636.028968,38.98464 635.693808,39.48144 C634.021637,40.80744 632.852811,41.96784 632.183701,43.95744 C632.684626,43.95744 633.353737,43.95744 633.520712,44.12304 C632.684626,44.45544 632.183701,45.44904 631.346406,45.78144 L631.346406,49.09704 C630.679715,49.75944 629.84242,50.42304 629.341495,51.74904 C628.171459,55.39704 628.004484,59.37504 628.004484,63.85104 C627.669324,64.68024 627.335374,64.84584 626.834448,65.17704 L626.834448,68.65944 C626.834448,68.65944 628.171459,67.33224 628.839359,67.00104 L628.839359,69.81984 C628.004484,69.81984 627.335374,70.98024 627.335374,71.64264 C627.335374,72.47184 627.503559,73.30104 627.503559,74.29584 C627.503559,74.79264 627.503559,74.79264 627.669324,75.12384 C627.669324,74.79264 628.171459,74.29584 628.839359,74.13024 C628.839359,74.13024 629.341495,73.63224 630.17758,73.63224 C629.50847,74.29584 629.341495,75.12384 628.839359,76.11864 L628.171459,76.78224 C628.171459,76.78224 628.004484,77.11344 628.004484,77.44584 C628.839359,82.08744 630.17758,86.06544 632.015516,90.54264 C630.17758,93.52584 628.171459,98.99664 626.834448,104.30184 C625.664413,103.30704 624.159217,102.97584 622.823416,102.97584 C621.485196,103.30704 620.148185,103.63824 619.145125,104.96544 C617.808114,104.30184 616.135943,104.63304 615.132883,105.46224 C613.127972,107.28624 613.127972,108.11544 613.127972,109.44144 C612.625836,109.93824 611.789751,111.09864 611.789751,112.59144 C611.789751,114.57984 611.956726,115.90704 613.127972,117.72984 L647.394164,117.72984 C647.060214,117.06744 646.559288,116.23824 646.224128,115.74144 C645.556228,114.41424 645.890178,112.59144 645.890178,111.26424 C646.559288,109.93824 647.394164,108.61224 648.231459,107.45184 C648.397224,106.78824 648.231459,106.78824 648.397224,106.62264 L650.069395,106.12584 C650.90548,106.12584 651.573381,105.46224 652.743416,105.46224 C653.412527,106.62264 653.412527,104.79864 654.583772,104.30184 C656.922633,103.97064 659.42968,104.30184 660.7679,106.12584 C660.7679,106.62264 661.101851,106.62264 661.101851,106.78824 L659.931815,106.78824 C658.594804,106.12584 656.922633,105.46224 655.418648,106.12584 C655.418648,106.78824 655.250463,106.78824 655.250463,107.45184 L655.250463,108.61224 C656.087758,108.61224 656.755658,109.44144 657.591744,109.93824 C658.092669,109.27584 659.42968,108.61224 660.43395,108.61224 C661.437011,108.61224 663.107972,109.27584 663.107972,111.09864 L663.107972,113.58504 C663.944057,114.41424 665.114093,114.57984 666.117153,115.07784 C665.781993,115.90704 665.114093,115.90704 664.444982,115.90704 L662.605836,115.90704 C662.438861,115.74144 661.937936,115.74144 661.937936,115.07784 C661.268826,115.90704 660.7679,116.90184 660.43395,117.72984 L686.676868,117.72984 C686.175943,116.90184 685.673808,116.23824 685.506833,115.74144 C685.005907,114.41424 685.005907,112.59144 685.005907,111.26424 L687.512954,107.94864 C688.849964,107.94864 690.02121,107.45184 692.528256,107.28624 C692.862206,106.62264 692.528256,106.12584 694.533167,106.12584 C696.037153,106.12584 697.208399,106.62264 697.709324,106.78824 C697.877509,107.28624 697.877509,107.28624 697.709324,107.78304 C697.208399,108.11544 696.372313,107.28624 695.704413,107.45184 C695.202278,107.94864 695.871388,108.11544 695.871388,108.61224 C696.372313,109.11024 693.864057,108.11544 693.864057,108.11544 C693.864057,108.11544 693.363132,109.44144 693.197367,109.93824 L694.533167,111.26424 C695.035302,111.92784 693.864057,112.59144 693.864057,113.25384 C693.363132,113.08824 692.528256,112.42464 692.528256,112.59144 C692.026121,114.41424 692.528256,115.90704 692.194306,117.72984 L694.701352,117.72984 L695.035302,113.91744 C695.202278,111.76224 697.877509,107.78304 699.54847,107.78304 C700.384555,107.78304 701.052456,108.11544 701.721566,108.61224 C702.223701,109.44144 703.226762,109.93824 703.226762,110.43624 C703.226762,110.76744 702.557651,111.09864 701.554591,111.09864 C701.052456,111.09864 701.052456,110.43624 700.384555,109.93824 L699.047544,111.26424 C699.047544,111.26424 700.55153,112.59144 700.55153,113.58504 C700.55153,114.57984 700.384555,115.07784 699.715445,115.74024 L698.378434,113.08824 C697.709324,113.08824 696.539288,114.41424 696.539288,115.07784 C696.539288,115.90704 696.037153,116.40384 696.037153,117.72984 L710.08,117.72984 C711.583986,117.72984 712.920996,117.23304 714.591957,116.40384 L717.267189,116.40384 C722.783416,116.40384 727.296584,114.91224 731.308826,110.76744 C736.823843,105.46224 740,97.00704 740,88.71864 C740,78.93744 735.821993,69.15624 728.634804,62.02824 L728.634804,62.02824 Z M706.735658,50.42304 C706.234733,49.75944 705.565623,50.42304 705.064698,50.42304 C704.562562,50.42304 704.396797,50.42304 703.559502,49.75944 C704.897722,49.75944 705.565623,49.09704 706.735658,48.59904 C707.572954,49.26264 708.407829,49.59384 709.07694,50.42304 L706.735658,50.42304 Z M713.924057,53.73864 C713.256157,52.90944 712.253096,51.74904 711.415801,51.74904 C712.084911,51.74904 712.920996,51.08544 714.091032,51.08544 C714.591957,52.24704 715.429253,52.90944 715.595018,53.73864 L715.930178,55.06464 C715.429253,54.23544 714.591957,53.73864 713.924057,53.73864 L713.924057,53.73864 Z M676.815658,83.24784 L675.644413,83.57904 C673.137367,83.57904 671.967331,82.91664 670.96427,82.08744 C671.800356,82.08744 672.970391,80.92704 672.970391,80.92704 C674.140427,82.08744 675.644413,82.91664 676.815658,83.24784 L676.815658,83.24784 Z M665.114093,80.76144 C663.944057,80.92704 663.107972,79.93224 661.937936,79.43544 C661.437011,78.10824 661.437011,76.78224 661.101851,76.11864 C661.937936,76.78224 663.944057,76.78224 663.441922,78.77184 C663.441922,79.43544 664.444982,79.93224 665.114093,80.76144 L665.114093,80.76144 Z M665.114093,88.05504 C665.781993,88.38624 666.952028,89.04984 667.621139,89.38224 L666.952028,89.38224 C664.444982,90.37584 662.440071,88.71864 660.43395,87.39264 C661.437011,87.06024 663.107972,86.72904 664.444982,86.72904 L665.114093,88.05504 Z M665.448043,84.57384 C666.451103,83.91024 667.621139,83.91024 667.955089,83.57904 C668.958149,84.57384 669.794235,86.06544 671.298221,87.06024 C670.463345,87.06024 668.958149,87.06024 667.955089,86.39784 C666.618078,85.56864 666.117153,85.23744 665.448043,84.57384 L665.448043,84.57384 Z M663.107972,98.33424 C663.107972,97.67064 663.441922,97.00824 664.444982,96.51024 C665.781993,97.00824 666.952028,94.18944 668.290249,95.68104 C668.958149,95.84664 669.62726,95.84664 669.96242,95.84664 C671.632171,96.51024 671.967331,97.83624 672.802206,98.99664 C671.632171,98.99664 670.62911,98.99664 669.96242,97.83624 C669.794235,97.83624 669.29331,97.17264 669.125125,97.67064 C667.955089,98.49984 666.952028,97.00824 665.448043,97.17264 C664.778932,97.83624 664.111032,98.33424 663.107972,98.49984 L663.107972,98.33424 Z M674.307402,74.79264 C674.140427,75.62184 673.137367,74.79264 672.970391,74.79264 L670.96427,74.79264 C670.62911,74.29584 670.463345,74.13024 670.463345,73.63224 C671.298221,73.30104 671.967331,72.96984 672.802206,73.30104 C673.137367,74.13024 673.639502,74.79264 674.307402,74.79264 L674.307402,74.79264 Z M669.96242,65.17704 C670.463345,66.00624 670.463345,66.50424 670.96427,67.00104 C671.800356,66.50424 671.800356,67.66464 671.967331,67.83024 C672.301281,68.49264 672.802206,69.15624 672.802206,69.81984 C671.298221,69.81984 670.62911,69.15624 669.96242,67.83024 C669.96242,67.16664 669.794235,66.17184 669.96242,65.17704 L669.96242,65.17704 Z M668.290249,76.11864 L670.463345,78.10824 C669.125125,78.10824 667.621139,78.77184 666.952028,77.44584 C667.287189,77.11344 667.788114,76.45104 668.290249,76.11864 L668.290249,76.11864 Z M667.955089,59.04384 C667.955089,59.37504 667.621139,61.36464 667.621139,61.36464 L665.781993,61.86144 L666.952028,56.88864 C667.287189,57.71784 667.955089,58.71144 667.955089,59.04384 L667.955089,59.04384 Z M636.028968,42.79704 C636.529893,42.79704 637.197794,42.63144 637.364769,42.13344 C638.536014,41.96784 639.205125,40.80744 640.540925,41.47104 C641.543986,41.47104 642.380071,41.96784 643.047972,42.13344 C643.047972,42.63144 643.047972,42.79704 643.550107,43.29504 C644.887117,43.29504 644.887117,44.62104 645.556228,45.78144 C646.224128,45.94704 646.893238,45.94704 647.394164,45.94704 C648.732384,46.44384 649.735445,46.44384 650.23637,47.10744 C652.075516,45.94704 653.746477,45.78144 655.919573,45.94704 C656.087758,45.28344 656.588683,44.45544 656.755658,43.29504 C656.922633,43.95744 656.922633,43.29504 657.423559,43.29504 C658.260854,42.63144 659.42968,41.47104 661.101851,41.96784 C661.937936,42.63144 663.441922,42.13344 664.444982,43.29504 C665.114093,44.12304 665.448043,45.44904 666.117153,46.61064 C665.448043,47.93664 666.117153,49.75944 664.778932,50.42304 L663.441922,51.74904 C663.107972,51.74904 663.107972,52.24704 662.438861,52.24704 C663.107972,53.73864 662.605836,56.05944 661.937936,57.55104 C662.438861,57.38544 663.107972,57.38544 663.107972,56.72304 C663.274947,56.88864 663.107972,57.38544 663.107972,57.55104 L663.107972,58.21464 C663.107972,59.37504 662.438861,60.53544 661.437011,61.36464 C661.101851,62.69064 659.931815,64.51464 658.260854,64.68024 L658.260854,65.17704 C661.770961,65.17704 664.444982,66.00624 667.621139,67.66464 L667.621139,69.15624 C664.778932,67.66464 661.937936,66.50424 658.594804,66.17184 C658.594804,67.00104 658.594804,67.66464 658.260854,67.83024 C661.101851,69.15624 663.441922,70.31664 665.781993,72.30624 L665.781993,74.29584 C663.441922,71.97504 661.101851,69.81984 658.092669,69.15624 C657.925694,69.65304 656.922633,69.98544 656.755658,70.98024 C655.250463,69.81984 653.412527,68.65944 651.573381,68.49264 C650.90548,68.49264 650.403345,66.00624 650.403345,66.00624 C651.573381,65.50944 652.242491,64.84584 652.743416,63.85104 L653.579502,63.85104 C654.248612,63.85104 654.248612,63.35424 654.248612,62.69064 C654.248612,61.36464 651.407616,61.36464 650.069395,61.36464 C648.397224,61.36464 647.394164,61.36464 646.392313,62.02824 C645.890178,62.02824 646.224128,62.69064 646.224128,63.18864 C646.224128,63.35424 646.893238,63.85104 646.893238,63.85104 C647.394164,63.85104 647.729324,63.35424 648.231459,63.35424 C648.063274,64.68024 648.397224,65.34384 649.735445,66.00624 L649.56726,68.32704 C646.893238,68.32704 645.055302,69.32184 643.047972,70.31664 C642.380071,69.81984 641.879146,69.15624 641.543986,68.49264 C638.702989,69.32184 634.021637,72.96984 634.021637,72.96984 L634.021637,71.31144 C636.028968,69.65304 638.702989,68.65944 640.874875,67.66464 L640.874875,66.00624 C639.871815,65.50944 639.03694,66.00624 638.033879,66.00624 C636.028968,66.17184 634.021637,67.16664 632.684626,68.32704 C632.684626,67.66464 632.517651,66.66984 632.517651,66.66984 C635.025907,65.34384 638.033879,64.18344 641.04306,64.68024 L641.04306,63.85104 C640.874875,63.35424 640.874875,62.69064 640.37395,62.69064 C639.03694,61.36464 637.698719,59.37504 637.698719,58.04904 L638.536014,57.55104 C638.033879,56.22504 637.698719,52.90944 638.536014,51.74904 C637.197794,51.08544 635.860783,49.92504 635.359858,49.09704 C635.025907,47.93664 634.522562,47.27304 634.356797,45.94704 C635.025907,44.62104 635.359858,44.12304 636.028968,42.79704 L636.028968,42.79704 Z M656.922633,84.57384 C655.919573,83.91024 653.746477,83.57904 654.248612,82.25304 C654.749537,81.25824 655.418648,80.92704 655.919573,80.59584 C656.087758,82.08744 656.253523,83.24784 656.922633,84.57384 L656.922633,84.57384 Z M643.047972,78.10824 L642.380071,80.92704 C641.712171,79.59984 641.04306,78.27384 640.874875,76.78224 L643.047972,78.10824 Z M640.206975,81.58944 C638.702989,81.25824 637.197794,79.93224 636.529893,78.77184 C636.028968,77.77704 635.860783,76.78224 635.860783,76.11864 C636.696868,76.11864 637.364769,76.78224 637.698719,77.11344 L637.698719,77.44584 C638.702989,78.77184 639.871815,79.93224 640.206975,81.58944 L640.206975,81.58944 Z M637.698719,84.24264 C637.698719,85.23744 637.197794,86.39784 636.028968,87.39264 C635.860783,87.72384 635.191673,88.05504 635.191673,88.05504 C635.191673,86.72904 635.860783,85.56864 635.860783,84.57384 C636.529893,84.24264 637.197794,83.91024 637.698719,84.24264 L637.698719,84.24264 Z M639.871815,87.06024 C640.206975,86.72904 640.37395,87.06024 640.874875,87.06024 L639.871815,90.37584 C638.702989,91.20504 637.197794,90.70824 635.860783,90.70824 C637.698719,90.37584 639.03694,88.38624 639.871815,87.06024 L639.871815,87.06024 Z M632.015516,51.74904 C632.517651,51.08544 632.684626,50.42304 633.353737,49.75944 L633.353737,52.41264 L631.849751,52.90944 L632.015516,51.74904 Z M632.015516,56.22504 L633.855872,55.56264 L632.684626,56.88864 C632.852811,59.04384 632.015516,60.70104 632.015516,62.69064 L630.84548,59.04384 C631.180641,58.21464 631.347616,57.38544 632.015516,56.22504 L632.015516,56.22504 Z M631.849751,82.08744 C632.015516,81.25824 632.684626,80.76024 632.852811,80.59584 C633.520712,80.76024 634.021637,80.76024 635.025907,80.92704 C633.855872,82.08744 632.684626,82.58424 632.183701,83.91024 C632.183701,83.24784 632.015516,82.58424 631.849751,82.08744 L631.849751,82.08744 Z M617.474164,111.92784 C617.139004,111.92784 616.471103,111.26424 615.801993,111.26424 C615.132883,112.59144 615.801993,113.58504 615.801993,115.07784 C615.801993,115.74024 615.635018,116.40384 615.635018,116.40384 C615.132883,116.40384 614.298007,115.57464 614.129822,114.57984 L614.129822,111.09864 L616.135943,108.61224 C617.474164,109.44144 617.808114,110.76744 617.474164,111.92784 L617.474164,111.92784 Z M622.655231,111.92784 C622.321281,111.09864 621.652171,109.93824 620.482135,109.93824 C619.64726,111.76224 619.479075,112.42464 620.31516,115.07784 C619.64726,115.74024 619.145125,115.90704 618.309039,116.40384 C617.808114,115.57464 617.808114,113.91744 617.808114,113.08824 C617.808114,111.43104 618.142064,109.93824 618.477224,108.61224 C619.145125,107.94864 619.64726,106.78824 620.31516,106.12584 L622.823416,106.12584 C621.652171,106.12584 621.652171,107.28624 621.652171,107.94864 C622.321281,108.11544 623.324342,108.44664 623.324342,109.44144 C623.324342,110.43624 622.989181,111.26424 622.655231,111.92784 L622.655231,111.92784 Z M628.171459,115.07784 C628.171459,113.91744 628.840569,112.59144 628.840569,111.26424 C628.840569,111.26424 628.004484,110.43624 627.001423,110.43624 C626.333523,110.76744 626.333523,111.26424 626.165338,111.92784 C625.497438,113.25384 624.159217,114.57984 623.992242,115.90704 C623.658292,115.90704 623.658292,115.74024 623.658292,115.74024 C623.658292,113.58504 623.992242,109.77264 625.330463,108.11544 C626.333523,106.78824 627.335374,106.78824 628.673594,106.62264 L629.84242,106.78824 L628.840569,108.11544 C629.84242,108.61224 631.180641,109.44144 631.180641,110.76744 C631.180641,112.59144 628.171459,115.07784 628.171459,115.07784 L628.171459,115.07784 Z M636.696868,110.76744 L635.191673,106.78824 C633.353737,104.96544 631.347616,104.79864 630.17758,103.97064 C629.341495,103.63824 629.341495,104.30184 628.840569,103.97064 C628.840569,103.47264 628.840569,102.81024 629.50847,102.14664 L630.84548,102.14664 L632.183701,102.81024 C632.852811,103.47264 634.522562,103.47264 634.522562,104.79864 C634.522562,104.96544 634.356797,105.29664 635.025907,106.12584 L637.197794,106.78824 L637.364769,108.61224 L636.696868,110.76744 Z M639.205125,106.78824 C638.702989,106.12584 639.205125,104.96544 638.536014,104.30184 C638.536014,103.97064 639.03694,103.63824 638.702989,103.47264 C638.536014,102.97584 635.860783,102.14664 635.860783,102.14664 C635.025907,101.48424 633.855872,100.82064 632.852811,99.99144 C632.015516,99.66024 631.347616,100.15704 630.17758,100.32264 L630.17758,99.99144 C630.679715,98.99664 630.679715,97.83624 632.015516,97.83624 C632.684626,97.83624 633.520712,97.83624 634.021637,98.49984 C635.025907,98.49984 635.359858,99.49464 636.028968,99.66024 C637.197794,100.82064 638.033879,101.31744 638.702989,101.64984 C638.702989,102.31224 639.03694,102.81024 639.37089,102.97584 C640.874875,102.97584 640.37395,104.30184 640.874875,105.29664 L639.205125,106.78824 Z M641.712171,101.64984 C641.210036,100.15704 640.206975,98.49984 638.702989,98.49984 C638.033879,97.83624 637.364769,97.17264 637.197794,96.51024 C636.529893,95.84664 635.860783,96.51024 635.025907,95.84664 C634.021637,95.84664 632.852811,95.84664 632.015516,96.51024 L632.015516,95.84664 L633.520712,94.18944 C635.191673,94.35504 637.197794,94.18944 637.698719,95.18424 C638.702989,95.84664 639.871815,96.51024 640.206975,97.00704 L640.206975,97.67064 C640.540925,97.83624 641.543986,98.16864 641.879146,98.33424 C641.879146,98.99664 641.712171,101.64984 641.712171,101.64984 L641.712171,101.64984 Z M644.219217,90.70824 C643.550107,90.70824 642.380071,91.20504 641.04306,90.70824 C641.712171,90.37584 642.380071,90.04464 643.216157,89.38224 L645.055302,87.72384 L646.893238,87.72384 C646.224128,89.04984 645.556228,90.37584 644.219217,90.70824 L644.219217,90.70824 Z M644.887117,80.76024 C645.556228,80.76024 646.224128,80.76024 646.893238,81.25824 C646.893238,82.25304 647.394164,83.24784 647.394164,84.57384 C645.890178,83.24784 644.887117,82.08744 644.887117,80.76024 L644.887117,80.76024 Z M645.556228,94.18944 C645.723203,93.52584 646.392313,93.19464 646.893238,92.53104 C647.394164,91.86864 648.231459,90.70824 648.397224,90.04464 C649.56847,89.38224 650.069395,89.38224 650.90548,89.38224 C650.738505,90.70824 650.069395,91.20504 648.899359,92.69784 C648.231459,93.19464 646.893238,93.52584 645.556228,94.18944 L645.556228,94.18944 Z M648.732384,98.33424 L647.394164,96.51024 L650.738505,96.51024 L651.407616,97.83624 C650.403345,98.49984 649.735445,98.49984 648.732384,98.33424 L648.732384,98.33424 Z M650.23637,85.23744 L649.735445,82.91664 C650.403345,82.58424 651.072456,82.08744 652.074306,80.92704 C652.074306,82.58424 651.741566,84.57384 650.23637,85.23744 L650.23637,85.23744 Z M652.911601,73.63224 C652.743416,73.63224 652.911601,74.29584 652.743416,74.29584 C652.743416,74.79264 652.242491,75.62184 652.242491,76.45104 C651.741566,76.78224 650.90548,77.11344 650.069395,76.78224 L650.069395,76.11864 C649.735445,75.62184 649.735445,74.79264 649.735445,74.29584 L649.56726,74.13024 C648.899359,74.29584 648.899359,74.79264 648.899359,75.12384 C648.732384,75.62184 648.231459,76.11864 648.231459,76.78224 C647.394164,76.78224 646.893238,76.45104 646.224128,76.11864 L646.224128,74.13024 C646.224128,73.63224 646.224128,73.63224 645.890178,73.63224 L644.887117,74.79264 C643.885267,74.13024 643.717082,72.30624 643.717082,71.14584 C647.394164,69.15624 651.741566,69.81984 654.583772,70.98024 C654.916512,71.14584 655.418648,71.14584 655.919573,71.31144 C655.585623,72.63744 655.250463,74.79264 653.746477,75.62184 C653.746477,74.79264 653.412527,74.29584 652.911601,73.63224 L652.911601,73.63224 Z M656.922633,97.67064 C656.755658,97.67064 655.250463,97.00704 654.749537,96.51024 C654.583772,95.84664 654.583772,95.18424 654.583772,95.18424 L656.253523,95.18424 L657.423559,97.67064 L656.922633,97.67064 Z M656.922633,91.70304 C655.585623,90.54264 654.749537,89.21544 653.412527,87.39264 L656.922633,88.05504 C657.591744,88.55304 658.928754,90.04464 659.597865,90.70824 C659.263915,91.20504 657.925694,91.70304 656.922633,91.70304 L656.922633,91.70304 Z M659.42968,83.24784 C658.092669,81.25824 658.761779,79.43544 659.42968,77.77704 C659.931815,79.10304 660.09879,80.59584 660.43395,81.58944 C660.599715,82.58424 661.937936,82.91664 662.438861,83.57904 C661.437011,83.91024 659.931815,84.24264 659.42968,83.24784 L659.42968,83.24784 Z M660.43395,102.97584 L661.437011,100.32264 C662.440071,100.32264 663.107972,99.99144 663.441922,99.99144 C664.444982,99.66024 665.114093,99.66024 665.781993,99.66024 L665.781993,99.99144 C668.290249,99.99144 671.131246,99.66024 672.970391,101.64984 L673.137367,103.47264 C672.301281,102.81024 670.96427,102.81024 670.463345,101.64984 C669.62726,101.48424 668.958149,101.48424 667.788114,101.48424 C666.952028,101.64984 665.781993,101.64984 664.778932,101.64984 C664.613167,101.64984 664.778932,101.48424 664.444982,101.31744 C663.107972,101.64984 661.770961,101.64984 660.43395,102.97584 L660.43395,102.97584 Z M667.621139,111.26424 L666.952028,111.92784 C666.117153,111.26424 666.618078,109.44144 665.448043,109.27584 C664.444982,109.27584 663.441922,108.11544 663.107972,107.94864 L663.944057,107.45184 C663.944057,107.45184 664.444982,107.28624 664.778932,107.45184 C665.279858,107.94864 665.781993,108.11544 665.781993,108.61224 C666.117153,109.27584 666.952028,108.61224 667.287189,109.27584 C667.621139,109.93824 667.788114,110.76744 667.621139,111.26424 L667.621139,111.26424 Z M674.474377,110.76744 C674.140427,109.44144 673.639502,107.45184 671.967331,107.45184 C671.800356,106.62264 671.632171,106.12584 670.62911,105.46224 L668.958149,105.29664 C669.125125,106.12584 670.463345,106.12584 669.62726,107.45184 C670.463345,108.11544 671.131246,108.11544 671.632171,109.27584 C671.967331,109.93824 671.632171,110.76744 671.800356,111.26424 L670.463345,111.92784 C670.463345,110.76744 670.62911,108.61224 669.125125,108.11544 C667.788114,108.61224 667.621139,106.78824 666.618078,106.12584 C666.117153,106.12584 666.117153,104.96544 665.448043,105.46224 C664.444982,106.12584 663.107972,105.46224 661.937936,106.12584 L663.107972,104.30184 C663.944057,103.63824 664.778932,103.97064 665.781993,103.63824 L667.621139,103.47264 C669.29331,103.47264 670.96427,104.30184 672.802206,104.96544 C673.639502,105.46224 674.140427,106.12584 674.140427,107.28624 C674.474377,107.45184 675.477438,107.45184 675.477438,108.11544 C675.143488,108.61224 674.808327,109.93824 674.474377,110.76744 L674.474377,110.76744 Z M677.650534,107.45184 C677.149609,106.78824 676.981423,106.12584 676.480498,106.12584 C677.149609,103.63824 675.812598,101.64984 675.477438,99.66024 L675.477438,98.99664 C676.146548,100.15704 677.817509,101.31744 677.650534,102.31224 C677.818719,104.30184 677.818719,106.12584 677.818719,107.45184 L677.650534,107.45184 Z M675.477438,79.59984 L677.149609,78.77184 C677.817509,79.43544 678.820569,79.59984 679.15452,79.93224 C678.485409,80.59584 676.815658,80.76144 675.477438,79.59984 L675.477438,79.59984 Z M690.6879,83.24784 C691.190036,83.57904 691.525196,83.91024 692.026121,84.57384 L692.026121,86.39784 C690.02121,85.23744 688.849964,83.24784 687.179004,81.25824 C688.849964,81.25824 689.3521,82.91664 690.68911,83.24784 L690.6879,83.24784 Z M680.658505,83.57904 C681.327616,84.24264 682.164911,85.23744 682.164911,85.89984 C682.164911,86.56344 681.661566,86.72904 681.327616,87.22584 C681.327616,87.22584 680.324555,86.06544 680.324555,85.56864 C680.324555,84.73944 680.324555,84.24264 680.658505,83.57904 L680.658505,83.57904 Z M682.665836,100.32264 C682.665836,98.99664 682.330676,97.83624 681.495801,97.00824 C681.495801,96.51024 682.164911,96.51024 681.661566,95.84664 C681.661566,95.84664 680.325765,95.18424 680.325765,94.35504 C680.325765,93.52584 681.327616,92.69784 681.661566,92.03424 C681.661566,91.86864 682.665836,92.53104 682.665836,93.85824 C682.665836,94.18944 682.665836,94.85184 682.330676,95.18424 C682.164911,95.84664 683.668897,95.84664 683.668897,96.51024 C683.668897,97.83624 682.832811,98.99664 682.665836,100.32264 L682.665836,100.32264 Z M685.005907,90.70824 C685.005907,91.20504 684.336797,91.70304 684.169822,91.70304 C684.169822,91.70304 682.999786,90.54264 682.832811,89.38224 C682.665836,88.55304 683.500712,87.06024 683.500712,87.06024 C683.668897,87.06024 684.002847,87.39264 684.169822,87.39264 C684.336797,87.72384 684.169822,88.38624 684.336797,89.04984 C685.005907,89.38224 685.506833,90.37584 685.005907,90.70824 L685.005907,90.70824 Z M687.179004,102.31224 C687.512954,101.31744 687.512954,98.99664 687.179004,98.99664 C686.676868,98.83104 685.673808,98.99664 685.673808,98.49984 C685.673808,97.83624 686.007758,97.00824 686.007758,96.51024 C686.007758,95.68104 685.341068,95.18424 685.341068,94.85184 C685.341068,93.52584 686.845053,93.19464 687.345979,92.36544 C687.512954,93.19464 687.512954,94.18944 687.512954,95.18424 C687.512954,95.68104 688.180854,97.00824 687.512954,98.16864 C687.512954,98.83104 688.849964,98.33424 688.849964,98.99664 C688.849964,100.15704 687.512954,101.48424 687.179004,102.31224 L687.179004,102.31224 Z M690.6879,97.00824 C690.02121,97.00824 690.02121,96.51024 690.02121,95.68104 C689.853025,94.35504 689.3521,93.19464 688.849964,91.86864 C688.516014,90.04464 687.345979,88.55304 686.342918,86.56344 C686.175943,85.56864 685.005907,85.23744 684.169822,84.57384 C685.341068,84.57384 686.342918,84.57384 687.345979,85.40304 C687.345979,85.89984 687.512954,86.06544 688.180854,86.72904 C689.853025,86.72904 689.3521,88.71864 690.6879,89.71344 C690.02121,90.37584 689.853025,90.70824 689.3521,91.20504 C690.02121,91.70304 690.6879,91.86864 690.856085,92.53104 C690.856085,93.85824 690.6879,95.51544 690.6879,97.00824 L690.6879,97.00824 Z M693.864057,94.85184 C693.363132,93.52584 692.528256,92.03424 692.026121,90.70824 C692.026121,90.54264 691.859146,90.54264 692.194306,90.37584 C692.528256,90.37584 693.363132,90.37584 693.363132,90.54264 C693.698292,91.03944 694.032242,91.70304 694.032242,92.36544 C694.032242,93.19464 693.698292,93.85824 693.864057,94.85184 L693.864057,94.85184 Z M706.066548,88.05504 C705.565623,87.72384 706.066548,86.72904 704.897722,86.72904 C704.396797,86.72904 703.727687,87.39264 703.727687,87.39264 C703.226762,87.72384 701.888541,86.72904 701.888541,87.39264 C701.888541,88.55304 701.052456,89.04984 699.88242,89.04984 C699.54847,89.04984 699.047544,89.04984 698.545409,88.71864 L698.545409,86.56344 C701.554591,86.56344 701.220641,85.56864 702.557651,85.56864 C703.559502,85.56864 704.228612,86.06544 704.897722,86.06544 C706.066548,86.06544 705.399858,85.56864 706.401708,85.56864 C707.572954,85.56864 708.073879,86.56344 708.741779,86.72904 C708.741779,87.39264 709.41089,88.38624 709.41089,89.21544 C707.738719,89.21544 706.234733,88.71864 706.066548,88.05504 L706.066548,88.05504 Z M707.404769,94.18944 C706.735658,93.85824 705.064698,93.69144 705.064698,93.02904 C705.064698,92.03424 704.562562,91.86864 703.560712,91.86864 C702.557651,91.86864 701.888541,92.03424 700.55153,92.53104 C700.55153,92.53104 699.88242,91.70304 699.715445,90.70824 C700.21637,90.54264 701.888541,90.04464 702.891601,90.04464 C704.396797,90.04464 706.066548,90.04464 706.066548,90.70824 C706.066548,91.70304 707.404769,91.86864 707.404769,94.18944 L707.404769,94.18944 Z M704.897722,81.58944 C705.565623,81.58944 706.066548,81.25824 706.401708,81.25824 C707.572954,81.25824 708.407829,82.91664 708.741779,84.24264 C706.903843,83.24784 704.228612,82.58424 702.557651,82.58424 C701.721566,82.58424 699.047544,83.57904 698.044484,84.57384 L697.709324,82.58424 C699.047544,82.25304 699.047544,81.25824 699.88242,81.25824 C700.55153,81.25824 701.554591,80.92704 702.223701,80.92704 C702.891601,80.92704 703.226762,80.59584 703.559502,80.59584 C704.562562,80.59584 704.228612,81.58944 704.897722,81.58944 L704.897722,81.58944 Z M697.877509,78.77184 C698.545409,78.10824 699.715445,77.11344 700.55153,77.11344 C702.223701,77.11344 703.560712,78.27384 703.560712,79.43544 C702.223701,79.43544 701.888541,79.10304 701.052456,79.10304 C699.88242,79.10304 698.545409,79.59984 697.877509,80.76144 C697.375374,79.93224 697.709324,79.43544 697.877509,78.77184 L697.877509,78.77184 Z M698.545409,72.96984 C699.54847,72.47184 699.88242,72.63744 700.384555,72.96984 C700.384555,74.29584 701.888541,73.63224 702.891601,74.13024 C703.226762,74.79264 703.559502,75.12384 703.727687,76.11864 C702.223701,75.62184 701.220641,74.95824 699.88242,74.95824 C699.54847,74.95824 697.375374,75.62184 697.208399,76.11864 C696.539288,75.12384 697.709324,73.30104 698.545409,72.96984 L698.545409,72.96984 Z M702.891601,106.78824 C701.721566,106.12584 701.052456,105.96024 699.715445,105.96024 C699.715445,104.96544 699.047544,103.97064 698.545409,103.97064 C697.208399,103.97064 697.375374,104.79864 696.372313,104.79864 L698.378434,102.81024 C698.545409,102.31224 698.545409,102.31224 699.047544,102.31224 C699.715445,102.81024 699.88242,102.97584 700.55153,102.97584 C700.55153,103.47264 700.55153,103.63824 700.384555,104.30184 C701.052456,104.79864 701.554591,104.13624 701.888541,104.79864 C702.557651,104.96544 703.226762,105.29664 703.226762,106.12584 C703.226762,106.45704 702.891601,106.78824 702.891601,106.78824 L702.891601,106.78824 Z M705.064698,103.63824 C703.560712,103.47264 703.560712,101.64984 703.226762,101.48424 C702.223701,100.15704 700.55153,101.31744 699.54847,101.31744 C699.047544,99.99144 699.715445,99.99144 699.715445,98.99664 C700.384555,98.99664 701.052456,98.49984 701.721566,98.99664 C702.891601,98.49984 703.560712,99.66024 704.562562,99.66024 C704.897722,100.15704 705.399858,101.31744 705.565623,101.48424 C705.565623,102.31224 705.399858,102.64464 705.064698,103.63824 L705.064698,103.63824 Z M706.234733,98.99664 C704.562562,98.99664 705.565623,95.84664 702.223701,95.84664 C701.554591,95.84664 701.052456,97.00824 700.21637,97.17264 C700.21637,97.00824 700.384555,95.68104 700.384555,95.68104 C700.384555,95.18424 700.55153,94.35504 701.554591,93.85824 C703.226762,93.85824 702.891601,94.52064 704.228612,95.01864 C704.897722,95.18424 705.399858,95.68104 706.234733,95.68104 L706.234733,98.99664 Z M709.41089,109.27584 C709.41089,108.11544 708.073879,107.45184 707.069609,105.46224 L708.073879,103.97064 C708.741779,104.30184 709.577865,104.96544 709.577865,106.12584 C709.577865,106.12584 709.41089,106.78824 709.577865,107.28624 C709.577865,107.45184 710.08,107.45184 710.08,107.94864 C709.577865,108.61224 709.577865,108.61224 709.41089,109.27584 L709.41089,109.27584 Z M710.914875,104.79864 L709.577865,102.81024 C710.08,102.14664 710.08,101.31744 710.74911,100.15704 C710.914875,100.15704 711.583986,101.64984 711.583986,101.98104 C711.583986,103.30704 711.583986,103.63824 710.914875,104.79864 L710.914875,104.79864 Z M688.849964,109.44144 C689.853025,109.93824 689.853025,111.09864 689.853025,111.26424 C689.853025,111.92784 689.3521,112.59144 688.849964,113.08824 C688.516014,112.59144 688.516014,111.92784 688.013879,111.26424 C687.512954,111.26424 687.345979,112.42464 687.345979,112.92264 C687.345979,114.91224 688.180854,116.40384 688.849964,117.72984 L690.856085,117.72984 C690.6879,115.90704 690.186975,114.41424 690.186975,112.42464 C690.186975,111.26424 690.856085,109.93824 691.190036,109.27584 L688.849964,109.44144 Z M659.931815,110.76744 C659.42968,110.76744 658.260854,111.43104 658.260854,111.92784 C658.260854,112.92264 657.925694,117.72984 657.925694,117.72984 L659.42968,117.72984 C660.09879,115.74144 661.437011,113.08824 661.437011,111.92784 C661.437011,111.09864 660.7679,110.76744 659.931815,110.76744 L659.931815,110.76744 Z M654.583772,109.93824 C654.081637,109.93824 653.412527,111.26424 653.412527,111.76224 C653.412527,113.58504 653.746477,115.90704 654.583772,117.72984 L656.253523,117.72984 C656.253523,115.74024 656.588683,113.58504 656.588683,111.76224 C656.253523,111.76224 656.755658,112.09344 654.583772,109.93824 L654.583772,109.93824 Z M652.075516,108.11544 L649.56847,108.61224 C648.899359,109.44144 648.732384,109.93824 648.732384,110.43624 L649.735445,109.93824 C650.069395,109.93824 650.23637,110.43624 650.403345,110.76744 C650.23637,111.92784 648.899359,111.92784 648.397224,112.42464 C647.729324,114.57984 649.735445,115.90704 650.069395,117.72984 L652.743416,117.72984 C651.573381,115.74144 651.407616,112.59144 651.407616,111.92784 C651.407616,110.76744 651.407616,109.27584 652.075516,108.11544 L652.075516,108.11544 Z M661.770961,50.42304 L662.438861,50.42304 C663.107972,49.75944 663.441922,50.42304 663.944057,49.75944 C664.444982,48.59904 664.444982,46.61064 663.441922,45.44904 C663.107972,44.62104 661.937936,44.12304 660.7679,43.29504 L659.263915,44.12304 C658.260854,44.62104 657.925694,45.44904 657.925694,46.61064 C659.42968,47.27304 661.101851,49.09704 661.770961,50.42304 L661.770961,50.42304 Z M652.743416,49.26264 C653.746477,49.26264 653.412527,50.91984 654.248612,51.08544 L656.253523,51.08544 C656.253523,50.42304 656.087758,50.42304 655.919573,50.42304 C654.749537,50.42304 654.749537,48.59904 653.746477,49.09704 C653.412527,49.09704 652.911601,48.59904 652.242491,49.09704 C652.242491,49.26264 652.242491,49.26264 652.743416,49.26264 L652.743416,49.26264 Z M653.412527,54.23544 L652.911601,54.23544 C653.412527,56.05944 653.412527,58.04904 653.412527,60.03864 C654.248612,60.20424 655.250463,60.70104 655.250463,62.02824 C656.087758,62.52504 656.922633,62.69064 657.925694,63.35424 C658.260854,63.18864 658.594804,62.52504 658.761779,61.86144 C657.925694,60.70104 655.919573,61.36464 655.919573,59.37504 L654.583772,58.87824 C654.583772,57.55104 654.583772,56.22504 654.248612,55.39704 L654.583772,55.06464 C654.583772,55.39704 654.749537,55.56264 655.250463,56.05944 C656.087758,56.05944 656.922633,56.22504 657.925694,55.56264 C658.260854,55.39704 658.260854,54.23544 658.761779,54.23544 C659.263915,54.23544 659.597865,54.23544 659.931815,53.73864 C659.931815,53.73864 660.43395,53.73864 659.931815,53.57304 L654.916512,52.90944 C654.583772,53.57304 653.412527,53.57304 653.412527,54.23544 L653.412527,54.23544 Z M648.732384,49.09704 C648.231459,48.59904 646.893238,49.26264 646.224128,49.59384 C645.221068,49.75944 644.553167,50.42304 644.553167,51.08544 L647.060214,51.08544 C647.394164,50.42304 648.231459,49.59384 648.732384,49.09704 L648.732384,49.09704 Z M639.37089,49.26264 C640.37395,48.59904 642.547046,47.10744 643.717082,46.61064 C643.550107,44.45544 641.04306,44.12304 639.871815,43.29504 L639.03694,43.29504 C637.197794,43.95744 636.696868,45.78144 636.529893,47.27304 C637.197794,49.26264 638.536014,47.93664 639.37089,49.26264 L639.37089,49.26264 Z M654.583772,66.17184 L656.922633,67.16664 L656.922633,66.00624 L654.749537,66.00624 L654.583772,66.17184 Z M641.712171,54.23544 C641.712171,55.06464 642.380071,55.39704 642.547046,55.56264 C643.216157,56.05944 643.550107,56.05944 644.219217,55.56264 C644.887117,56.05944 645.055302,55.06464 645.221068,55.56264 C645.221068,56.88864 645.221068,57.55104 645.055302,58.71144 C644.887117,60.20424 643.550107,60.03864 642.380071,60.70104 C642.380071,61.36464 641.712171,62.52504 642.380071,63.18864 C643.047972,62.69064 643.550107,62.52504 644.553167,62.02824 C644.553167,61.36464 645.221068,60.70104 646.224128,60.20424 C646.224128,58.21464 646.893238,56.22504 646.893238,54.23544 C646.893238,53.73864 646.392313,53.24184 645.723203,52.90944 L640.37395,52.90944 C640.37395,53.73864 641.04306,54.23544 641.712171,54.23544 L641.712171,54.23544 Z M642.380071,65.50944 C642.380071,66.00624 642.380071,66.50424 643.047972,67.00104 C643.717082,66.17184 644.887117,66.00624 645.055302,66.00624 C644.553167,65.17704 643.550107,66.00624 642.380071,65.50944 L642.380071,65.50944 Z" id="ing-logo"></path>
                </g>
            </g>
        </g>
    </g>
</svg>