<?xml version="1.0" encoding="utf-8"?>
<!-- Generator: Adobe Illustrator 21.0.0, SVG Export Plug-In . SVG Version: 6.00 Build 0)  -->
<svg version="1.1" id="Layer_1" xmlns="http://www.w3.org/2000/svg" xmlns:xlink="http://www.w3.org/1999/xlink" x="0px" y="0px"
	 viewBox="0 0 200 132" style="enable-background:new 0 0 200 132;" xml:space="preserve">
<style type="text/css">
	.st0{fill:#FFFFFF;}
</style>
<title>intel-logo</title>
<desc>Created with Sketch.</desc>
<g id="Desktop-EE-Page">
	<g id="gitlab-ee-standalone-page-v4" transform="translate(-1485.000000, -786.000000)">
		<g id="EE-logo-bar" transform="translate(0.000000, 622.000000)">
			<g id="_x40_2x-org-logos" transform="translate(215.000000, 152.000000)">
				<path id="intel-logo" class="st0" d="M1364.9,129.3c-39.5,3.7-80.6-2-86.4-32.8c-2.9-15.2,4.1-31.4,13.3-41.4v-5.4
					c-16.6,14.5-25.6,32.9-20.4,54.5c6.6,27.9,41.9,43.6,95.8,38.4c21.4-2,49.3-8.9,68.6-19.6V108
					C1418.4,118.4,1389.2,127.1,1364.9,129.3L1364.9,129.3z M1469.1,49.4c-9.5-45.7-98.3-48.6-155.5-13.8v3.8
					c57.1-29.4,138.3-29.2,145.6,12.9c2.5,13.9-5.3,28.4-19.4,36.8v10.9C1456.8,93.9,1474,73.9,1469.1,49.4L1469.1,49.4z
					 M1432.9,42.8h-10.4v46.1c0,5.4,2.6,10.1,10.4,10.8V42.8z M1309.5,59.6h-10.4v30.2c0,5.4,2.6,10.1,10.4,10.8V59.6z M1299.1,54
					h10.4v-9.8h-10.4V54z M1371.6,100.1c-8.4,0-12-5.8-12-11.6v-40h10.2v11.1h7.8v8.3h-7.8v20c0,2.4,1.2,3.6,3.6,3.6h4.2v8.6H1371.6
					L1371.6,100.1z M1390.4,83.1c0,5.2,3.3,9.1,9.2,9.1c4.5,0,6.8-1.3,9.4-3.9l6.4,6.1c-4.1,3.9-8.3,6.4-15.8,6.4
					c-9.8,0-19.3-5.3-19.3-21c0-13.3,8.2-20.9,19.1-20.9c10.9,0,17.1,8.8,17.1,20.4v3.7H1390.4L1390.4,83.1z M1398.8,67.4
					c-3.6,0-6.2,1.8-7.4,4.3c-0.7,1.5-0.9,2.6-1,4.4h15.9C1406,71.7,1404,67.4,1398.8,67.4L1398.8,67.4z M1337.4,67.9
					c3,0,4.2,1.5,4.2,3.9v28.4h10.3V71.8c0-5.8-3.1-12.1-12.1-12.1h-21.2v40.6h10.2V67.9H1337.4z M1441.3,46h0.8
					c0.4,0,0.6-0.1,0.8-0.2c0.1-0.1,0.2-0.2,0.2-0.4c0-0.1,0-0.2-0.1-0.3c0-0.1-0.2-0.1-0.3-0.2c-0.1,0-0.3-0.1-0.6-0.1h-0.7V46z
					 M1440.7,48.1v-3.7h1.3c0.5,0,0.8,0,1,0.1c0.2,0.1,0.4,0.2,0.5,0.4c0.1,0.2,0.2,0.4,0.2,0.6c0,0.3-0.1,0.5-0.3,0.7
					c-0.2,0.2-0.5,0.3-0.8,0.3c0.2,0.1,0.3,0.1,0.4,0.2c0.1,0.1,0.3,0.4,0.5,0.7l0.5,0.7h-0.8l-0.3-0.6c-0.3-0.5-0.6-0.8-0.8-0.9
					c-0.1-0.1-0.3-0.1-0.5-0.1h-0.3v1.6H1440.7z M1442.3,43.2c-0.5,0-1,0.1-1.5,0.4c-0.5,0.2-0.8,0.6-1.1,1.1
					c-0.3,0.5-0.4,0.9-0.4,1.4c0,0.5,0.1,1,0.4,1.4c0.3,0.5,0.6,0.8,1.1,1.1c0.5,0.2,1,0.4,1.5,0.4c0.5,0,1-0.1,1.5-0.4
					c0.5-0.3,0.8-0.6,1.1-1.1c0.3-0.5,0.4-0.9,0.4-1.4c0-0.5-0.1-1-0.4-1.4c-0.3-0.5-0.6-0.8-1.1-1.1
					C1443.3,43.4,1442.8,43.2,1442.3,43.2L1442.3,43.2z M1442.3,42.7c0.6,0,1.2,0.1,1.8,0.4c0.5,0.3,1,0.7,1.3,1.3
					c0.3,0.6,0.5,1.1,0.5,1.7c0,0.6-0.2,1.2-0.5,1.7c-0.3,0.6-0.7,1-1.3,1.3c-0.5,0.3-1.1,0.5-1.8,0.5s-1.2-0.2-1.8-0.5
					c-0.5-0.3-1-0.7-1.3-1.3c-0.3-0.6-0.5-1.1-0.5-1.7c0-0.6,0.2-1.2,0.5-1.7c0.3-0.6,0.8-1,1.3-1.3
					C1441.1,42.8,1441.7,42.7,1442.3,42.7L1442.3,42.7z"/>
			</g>
		</g>
	</g>
</g>
</svg>
