<?xml version="1.0" encoding="utf-8"?>
<!-- Generator: Adobe Illustrator 21.0.0, SVG Export Plug-In . SVG Version: 6.00 Build 0)  -->
<svg version="1.1" id="Layer_1" xmlns="http://www.w3.org/2000/svg" xmlns:xlink="http://www.w3.org/1999/xlink" x="0px" y="0px"
	 viewBox="0 0 188 160" style="enable-background:new 0 0 188 160;" xml:space="preserve">
<style type="text/css">
	.st0{fill:#FFFFFF;}
	.st1{fill:#CCCCCC;}
</style>
<title>nasa-logo</title>
<desc>Created with Sketch.</desc>
<g id="Desktop-EE-Page">
	<g id="gitlab-ee-standalone-page-v4" transform="translate(-1091.000000, -777.000000)">
		<g id="EE-logo-bar" transform="translate(0.000000, 622.000000)">
			<g id="_x40_2x-org-logos" transform="translate(215.000000, 152.000000)">
				<g id="nasa-logo" transform="translate(876.000000, 2.000000)">
					<path id="Stroke-1" class="st0" d="M162.9,81c0,41.6-34.2,75.8-75.7,75.8c-41.5,0-75.7-34.2-75.7-75.8
						c0-41.6,34.2-75.8,75.7-75.8C128.7,5.2,162.9,39.4,162.9,81h3.2c0-43.4-35.6-79-78.9-79C43.9,2,8.2,37.6,8.2,81
						c0,43.4,35.6,79,78.9,79c43.3,0,78.9-35.7,78.9-79H162.9z"/>
					<path id="Fill-3" class="st0" d="M104.6,121.8c33,13.6,27.3-20.8,9.7-47.2c-10-14.9-23-27.4-31.2-33.4
						c-27.3-20-44-7.8-24.8,31.4c6.2,12.7,14.2,21.3,20.4,29.3c4.8,6.2,14,9.3,10.8,12.2c-3.7,3.3-12.6-11.3-12.6-11.3
						C70.3,95,64,86.5,57.6,74.8C42.8,48.2,44.9,21,71.7,32.9c22.7,10,44.4,38.2,53.1,58.2c4,9.3,14.9,45.8-20,31"/>
					<path id="Fill-5" class="st1" d="M1.9,104c14.5-9.7,28.3-16,51.8-23.7c33-10.9,57.8-18.2,88.2-33.6
						c14.8-7.5,36.7-21.9,45.5-35.9c-2.5,5.2-10.2,15.5-13.8,20C132.3,82.6,44.4,79.6,2.4,104.5"/>
					<path id="Fill-7" class="st0" d="M23,66.1c13.2,0.1,12,0,12.2,0.1c0.2,0,10.6,17.9,10.6,18.1c0,0.1-0.1-6.4-0.1-14.4
						c0-0.9-2.6-3.6-2.5-3.6c3.8,0,8.8,0.1,8.8,0.1c-1.9,2.2-2.2,2-2.2,3.3c-0.1,4.3-0.1,12.3,0,21.3c0,1.3,1,1.9,2.6,4.2H40.1
						c-4-6.6-11.2-19-11.2-18.9c0.1,0.1-0.2,7.8,0.1,14c0.1,2,1,2.7,2.7,4.6c0,0,2-0.1-9.5,0.1c3.5-1.9,3-4.2,3-4.3
						c-0.1-8.6,0-15.9,0-20.6c0-0.8-0.1-0.7-2.5-3.6"/>
					<path id="Fill-9" class="st0" d="M64.5,79.3c1.1-3.9,2.1-7.4,2.5-9.6c0.1-0.4-0.9-1.8-2.3-3.2l-0.1-0.2
						c7.1,0,14.5,0.1,14.5,0.1c1.9,4.7,6.4,18,9.7,26.2c0.9,2.2,2.4,2.6,2.4,2.6C85.2,95,74,95.1,74,95c3-2.7,2.6-2.7,1.3-6.7h-9.5
						c-1.9,4.5,0.6,6.6,0.9,6.6c-2.2,0.1-9.5,0-9.5,0c4-2.8,3.7-3.6,3.7-3.6C62.2,87.4,63.4,83.2,64.5,79.3l3.9,0
						c-0.8,2.7-1.7,5.4-1.7,5.4h7.5L70.1,74c0,0-0.8,2.7-1.7,5.4H64.5"/>
					<path id="Fill-11" class="st0" d="M129.5,79.7c1.1-3.9,2.1-7.4,2.5-9.6c0.1-0.4-0.9-1.8-2.3-3.2l-0.1-0.2
						c7.1,0,14.5,0.1,14.5,0.1c1.9,4.7,6.4,18,9.7,26.2c0.9,2.2,2.4,2.6,2.4,2.6c-6-0.1-17.3,0-17.2-0.1c3-2.7,2.6-2.7,1.3-6.7h-9.5
						c-1.9,4.5,0.6,6.6,0.9,6.6c-2.2,0.1-9.5,0-9.5,0c4-2.8,3.7-3.6,3.7-3.6C127.1,87.8,128.4,83.6,129.5,79.7l3.9,0
						c-0.8,2.7-1.7,5.4-1.7,5.4h7.5l-4.2-10.7c0,0-0.8,2.7-1.7,5.4H129.5"/>
					<path id="Fill-13" class="st0" d="M117.3,73.4c-0.2-5.5,0-7.3,0-7.3c-2.4,1.9-1.2,1.7-7.2,0.7c-17.4-2.9-18.7,13.3-9.2,17
						c7.9,3.1,10.7,3.7,9.5,6.5c-0.4,0.9-7.6,4.3-15-2.6l0.2,9.6c0.9-1,3.5-2.7,3.5-2.7c0.1,0,8.1,3.5,15.3-0.2
						c11.1-5.7,5.6-14.8-6.3-18.5C98.1,73,107.4,65.9,117.3,73.4"/>
					<path id="Fill-15" class="st1" d="M187.5,11c-11.8,35-59,62.1-98.8,87.9c-24,15.6-47.8,33.5-64.2,48.8c-4.3,4,0.9-1.5-0.8,0.2
						c22.9-26.4,49.2-42.1,63.7-52c24.6-16.7,38.6-21,81-60.1"/>
					<path id="Fill-17" class="st0" d="M104.6,121.8c33,13.6,27.3-20.8,9.7-47.2c-10-14.9-22.3-26.8-31.2-33.4
						c-10.4-7.7-11.4-8.3-11.4-8.3c23.3,11.1,44.4,38.2,53.1,58.2c4,9.3,14.9,45.8-20,31"/>
					<path id="Fill-19" class="st0" d="M88.2,10.6c0,0.3-0.3,0.6-0.6,0.6c-0.3,0-0.6-0.3-0.6-0.6c0-0.3,0.3-0.6,0.6-0.6
						C88,10,88.2,10.3,88.2,10.6"/>
					<path id="Fill-21" class="st0" d="M92.6,20.2c0,0.4-0.3,0.8-0.8,0.8S91,20.6,91,20.2c0-0.4,0.3-0.8,0.8-0.8
						C92.3,19.4,92.6,19.7,92.6,20.2"/>
					<path id="Fill-23" class="st0" d="M103.9,35.8c0,0.4-0.4,0.8-0.8,0.8c-0.4,0-0.8-0.4-0.8-0.8c0-0.4,0.3-0.8,0.8-0.8
						C103.6,35,103.9,35.4,103.9,35.8"/>
					<path id="Fill-25" class="st0" d="M85.7,25.5c0,0.3-0.3,0.6-0.6,0.6c-0.3,0-0.6-0.3-0.6-0.6c0-0.3,0.3-0.6,0.6-0.6
						C85.4,24.9,85.7,25.2,85.7,25.5"/>
					<path id="Fill-27" class="st0" d="M92.5,29.1c0,0.3-0.3,0.6-0.6,0.6s-0.6-0.3-0.6-0.6s0.3-0.6,0.6-0.6S92.5,28.8,92.5,29.1"/>
					<path id="Fill-29" class="st0" d="M83.7,19.1c0,0.4-0.3,0.8-0.8,0.8s-0.8-0.4-0.8-0.8c0-0.4,0.4-0.8,0.8-0.8
						C83.3,18.3,83.7,18.7,83.7,19.1"/>
					<path id="Fill-31" class="st0" d="M73.4,25.4c0,0.3-0.3,0.6-0.6,0.6c-0.3,0-0.6-0.3-0.6-0.6s0.3-0.6,0.6-0.6
						C73.1,24.7,73.4,25,73.4,25.4"/>
					<path id="Fill-33" class="st0" d="M75.3,26.6c0,0.3-0.3,0.6-0.6,0.6c-0.3,0-0.6-0.3-0.6-0.6c0-0.3,0.3-0.6,0.6-0.6
						C75,26,75.3,26.3,75.3,26.6"/>
					<path id="Fill-35" class="st0" d="M77.1,27.9c0,0.3-0.3,0.6-0.6,0.6c-0.3,0-0.6-0.3-0.6-0.6s0.3-0.6,0.6-0.6
						C76.8,27.2,77.1,27.5,77.1,27.9"/>
					<path id="Fill-37" class="st0" d="M74.3,30.3c0,0.3-0.3,0.6-0.6,0.6c-0.3,0-0.6-0.3-0.6-0.6s0.3-0.6,0.6-0.6
						C74,29.7,74.3,30,74.3,30.3"/>
					<path id="Fill-39" class="st0" d="M59.6,40.6c0,0.3-0.3,0.6-0.6,0.6c-0.3,0-0.6-0.3-0.6-0.6c0-0.3,0.3-0.6,0.6-0.6
						C59.4,40,59.6,40.2,59.6,40.6"/>
					<path id="Fill-41" class="st0" d="M62.4,43.9c0,0.3-0.3,0.6-0.6,0.6c-0.3,0-0.6-0.3-0.6-0.6c0-0.3,0.3-0.6,0.6-0.6
						C62.1,43.3,62.4,43.5,62.4,43.9"/>
					<path id="Fill-43" class="st0" d="M60.2,97.2c0,0.3-0.3,0.6-0.6,0.6S59,97.5,59,97.2c0-0.3,0.3-0.6,0.6-0.6
						S60.2,96.8,60.2,97.2"/>
					<path id="Fill-45" class="st0" d="M60.6,111.9c0,0.4-0.4,0.8-0.8,0.8c-0.4,0-0.8-0.3-0.8-0.8c0-0.4,0.3-0.8,0.8-0.8
						C60.3,111.1,60.6,111.4,60.6,111.9"/>
					<path id="Fill-47" class="st0" d="M52.3,119.4c0,0.3-0.3,0.6-0.6,0.6c-0.3,0-0.6-0.3-0.6-0.6c0-0.3,0.3-0.6,0.6-0.6
						C52,118.7,52.3,119,52.3,119.4"/>
					<path id="Fill-49" class="st0" d="M42.3,122.4c0,0.4-0.3,0.8-0.8,0.8c-0.4,0-0.8-0.4-0.8-0.8c0-0.4,0.4-0.8,0.8-0.8
						C42,121.7,42.3,122,42.3,122.4"/>
					<path id="Fill-51" class="st0" d="M40.3,115.6c0,0.4-0.4,0.8-0.8,0.8c-0.4,0-0.8-0.3-0.8-0.8c0-0.4,0.3-0.8,0.8-0.8
						C39.9,114.9,40.3,115.2,40.3,115.6"/>
					<path id="Fill-53" class="st0" d="M39.1,120c0,0.3-0.3,0.6-0.6,0.6c-0.3,0-0.6-0.3-0.6-0.6c0-0.3,0.3-0.6,0.6-0.6
						C38.8,119.3,39.1,119.6,39.1,120"/>
					<path id="Fill-55" class="st0" d="M31.6,116.4c0,0.3-0.3,0.6-0.6,0.6s-0.6-0.3-0.6-0.6c0-0.3,0.3-0.6,0.6-0.6
						S31.6,116,31.6,116.4"/>
					<path id="Fill-57" class="st0" d="M57.7,128.5c0,0.3-0.3,0.6-0.6,0.6c-0.3,0-0.6-0.3-0.6-0.6c0-0.3,0.3-0.6,0.6-0.6
						C57.4,127.9,57.7,128.1,57.7,128.5"/>
					<path id="Fill-59" class="st0" d="M65.6,122.7c0,0.4-0.4,0.8-0.8,0.8c-0.4,0-0.8-0.3-0.8-0.8c0-0.4,0.3-0.8,0.8-0.8
						C65.2,121.9,65.6,122.3,65.6,122.7"/>
					<path id="Fill-61" class="st0" d="M66.4,130.1c0,0.3-0.3,0.6-0.6,0.6c-0.3,0-0.6-0.3-0.6-0.6c0-0.3,0.3-0.6,0.6-0.6
						C66.1,129.5,66.4,129.8,66.4,130.1"/>
					<path id="Fill-63" class="st0" d="M98.7,123.1c0,0.3-0.3,0.6-0.6,0.6c-0.3,0-0.6-0.3-0.6-0.6c0-0.3,0.3-0.6,0.6-0.6
						C98.4,122.4,98.7,122.7,98.7,123.1"/>
					<path id="Fill-65" class="st0" d="M83.7,128.4c0,0.3-0.3,0.6-0.6,0.6c-0.3,0-0.6-0.3-0.6-0.6c0-0.3,0.3-0.6,0.6-0.6
						C83.4,127.8,83.7,128.1,83.7,128.4"/>
					<path id="Fill-67" class="st0" d="M124.1,136.1c0,0.3-0.3,0.6-0.6,0.6c-0.3,0-0.6-0.3-0.6-0.6c0-0.3,0.3-0.6,0.6-0.6
						C123.8,135.4,124.1,135.7,124.1,136.1"/>
					<path id="Fill-69" class="st0" d="M127.4,106.2c0,0.4-0.4,0.8-0.8,0.8c-0.4,0-0.8-0.4-0.8-0.8c0-0.4,0.4-0.8,0.8-0.8
						C127,105.4,127.4,105.8,127.4,106.2"/>
					<path id="Fill-71" class="st0" d="M121.2,110.4c0,0.3-0.3,0.6-0.6,0.6c-0.3,0-0.6-0.3-0.6-0.6c0-0.3,0.3-0.6,0.6-0.6
						C120.9,109.8,121.2,110.1,121.2,110.4"/>
					<path id="Fill-73" class="st0" d="M127.3,111.7c0,0.4-0.4,0.8-0.8,0.8c-0.4,0-0.8-0.4-0.8-0.8c0-0.4,0.4-0.8,0.8-0.8
						C126.9,110.9,127.3,111.2,127.3,111.7"/>
					<path id="Fill-75" class="st0" d="M121.2,119.2c0,0.3-0.3,0.6-0.6,0.6c-0.3,0-0.6-0.3-0.6-0.6c0-0.3,0.3-0.6,0.6-0.6
						C120.9,118.5,121.2,118.8,121.2,119.2"/>
					<path id="Fill-77" class="st0" d="M137,102c0,0.3-0.3,0.6-0.6,0.6c-0.3,0-0.6-0.3-0.6-0.6c0-0.3,0.3-0.6,0.6-0.6
						C136.7,101.4,137,101.7,137,102"/>
					<path id="Fill-79" class="st0" d="M138.5,105.8c0,0.4-0.3,0.8-0.8,0.8s-0.8-0.4-0.8-0.8c0-0.4,0.4-0.8,0.8-0.8
						C138.2,105.1,138.5,105.4,138.5,105.8"/>
					<path id="Fill-81" class="st0" d="M149.4,110.4c0,0.4-0.4,0.8-0.8,0.8s-0.8-0.3-0.8-0.8c0-0.4,0.3-0.8,0.8-0.8
						S149.4,110,149.4,110.4"/>
					<path id="Fill-83" class="st0" d="M138.3,118.5c0,0.3-0.3,0.6-0.6,0.6c-0.3,0-0.6-0.3-0.6-0.6c0-0.3,0.3-0.6,0.6-0.6
						C138.1,117.9,138.3,118.2,138.3,118.5"/>
					<path id="Fill-85" class="st0" d="M145.3,111.9c0,0.3-0.3,0.6-0.6,0.6c-0.3,0-0.6-0.3-0.6-0.6c0-0.3,0.3-0.6,0.6-0.6
						C145,111.3,145.3,111.6,145.3,111.9"/>
					<path id="Fill-87" class="st0" d="M144.1,122.1c0,0.3-0.3,0.6-0.6,0.6c-0.3,0-0.6-0.3-0.6-0.6c0-0.3,0.3-0.6,0.6-0.6
						C143.8,121.5,144.1,121.7,144.1,122.1"/>
					<path id="Fill-89" class="st0" d="M147,105.2c0,0.5-0.4,1-1,1s-1-0.4-1-1c0-0.5,0.4-1,1-1C146.6,104.2,147,104.6,147,105.2"/>
					<polygon id="Fill-91" class="st0" points="146,102.2 145.7,104.9 143.1,105.2 145.8,105.4 146.1,108.2 146.3,105.4 149,105.1 
						146.3,104.9 					"/>
					<path id="Fill-93" class="st0" d="M140.2,122c0,0.5-0.4,1-1,1c-0.5,0-1-0.4-1-1c0-0.5,0.4-1,1-1
						C139.8,121.1,140.2,121.5,140.2,122"/>
					<polygon id="Fill-95" class="st0" points="139.2,119.1 139,121.8 136.3,122 139,122.3 139.3,125.1 139.6,122.3 142.2,122 
						139.5,121.8 					"/>
					<path id="Fill-97" class="st0" d="M67.9,41.9c0,0.5-0.4,1-1,1c-0.5,0-1-0.4-1-1c0-0.5,0.4-1,1-1C67.5,40.9,67.9,41.4,67.9,41.9
						"/>
					<polygon id="Fill-99" class="st0" points="66.9,38.9 66.7,41.6 64,41.9 66.7,42.2 67,45 67.3,42.2 69.9,41.8 67.2,41.6 					
						"/>
					<path id="Fill-101" class="st0" d="M104,18.4c0,0.5-0.4,1-1,1c-0.5,0-1-0.4-1-1c0-0.5,0.4-1,1-1C103.5,17.4,104,17.9,104,18.4"
						/>
					<polygon id="Fill-103" class="st0" points="103,15.5 102.7,18.1 100.1,18.4 102.7,18.7 103,21.5 103.3,18.7 105.9,18.4 
						103.3,18.1 					"/>
					<path id="Fill-105" class="st0" d="M60.2,137.6c0,0.5-0.4,1-1,1c-0.5,0-1-0.4-1-1c0-0.5,0.4-1,1-1
						C59.7,136.6,60.2,137,60.2,137.6"/>
					<polygon id="Fill-107" class="st0" points="59.2,134.6 58.9,137.3 56.3,137.6 58.9,137.9 59.2,140.6 59.5,137.9 62.1,137.5 
						59.5,137.3 					"/>
					<path id="Fill-109" class="st1" d="M11.7,97.8c-4.2,2.1-8,4.1-11.2,6.1l2,0.7c2.8-1.7,6.2-3.5,9.8-5.1"/>
					<path id="Fill-112" class="st1" d="M34,137.1c-3.9,3.4-7.9,7-11.9,10.8l-0.2,2.7c3.7-3.8,8.2-7.9,13.4-12.2"/>
				</g>
			</g>
		</g>
	</g>
</g>
</svg>
