<?xml version="1.0" encoding="utf-8"?>
<!-- Generator: Adobe Illustrator 21.0.0, SVG Export Plug-In . SVG Version: 6.00 Build 0)  -->
<svg version="1.1" id="Layer_1" xmlns="http://www.w3.org/2000/svg" xmlns:xlink="http://www.w3.org/1999/xlink" x="0px" y="0px"
	 viewBox="0 0 154 42" style="enable-background:new 0 0 154 42;" xml:space="preserve">
<style type="text/css">
	.st0{fill:#FFFFFF;}
</style>
<title>nasdaq-logo</title>
<desc>Created with Sketch.</desc>
<g id="Desktop-EE-Page">
	<g id="gitlab-ee-standalone-page-v4" transform="translate(-1224.000000, -792.000000)">
		<g id="EE-logo-bar" transform="translate(0.000000, 622.000000)">
			<g id="org-logos" transform="translate(215.000000, 152.000000)">
				<path id="nasdaq-logo" class="st0" d="M1038.4,48.3c-0.3,0.8-1.1,1.4-2,1.4h11.8c0.9,0,1.7-0.6,2-1.4l11.2-30.3h-11.8
					L1038.4,48.3z M1034.5,28.3h-11.8c-0.9,0-1.7,0.6-2,1.4L1009.5,60h11.8l11.2-30.3C1032.8,28.9,1033.6,28.3,1034.5,28.3z
					 M1037,48.2l3.9-10.5l-2.9-7.8c-0.3-0.8-1.1-1.4-2-1.4c-0.9,0-1.7,0.6-2,1.4l-3.9,10.5l2.9,7.9c0.3,0.8,1.1,1.5,2,1.5h0
					C1035.9,49.7,1036.7,49.1,1037,48.2z M1125.7,34.4c-1-0.1-2-0.2-2.6-0.2l-0.4,0c-4.8,0-7.8,3.1-7.8,8c0,4.8,3.3,7.7,8.5,7.7
					c2.5,0,5.8-0.5,5.8-0.5V28.3h-3.5V34.4z M1125.7,47.3c-1,0.1-1.6,0.1-2.2,0.1c-3.1,0-5-2-5-5.2c0-3.6,1.6-5.3,4.9-5.3
					c0.7,0,1.4,0.1,2.4,0.2V47.3z M1078.5,45.2l-9.4-15.5h-4.5v20h3.2l0-15.7l9.1,15.7h4.5v-20h-3V45.2z M1107.5,40.4
					c-1.8-0.4-3.4-0.7-3.4-1.9c0-1.4,1.9-1.7,3.5-1.7c1.4,0,3,0.2,4.3,0.5l0.4,0.1v-2.7l-0.6-0.1c-1.1-0.2-2.6-0.4-4.5-0.4
					c-4,0-6.4,1.6-6.4,4.5c0,2.9,2.4,3.8,4.6,4.4c0.2,0.1,0.5,0.1,0.8,0.2l0.1,0c1.5,0.3,3.4,0.6,3.4,2.1c0,1.7-2.7,1.9-3.9,1.9
					c-1.5,0-2.9-0.3-4.6-0.7l-0.3-0.1v2.8l0.2,0c1.9,0.4,3.5,0.5,5.1,0.5c4.4,0,7-1.8,7-4.9C1113.1,41.6,1110,40.9,1107.5,40.4z
					 M1138.4,34.2c-1.8,0-3.6,0.2-5.4,0.5l-0.3,0v2.7l0.4-0.1c1.5-0.3,3.3-0.6,4.9-0.6c4,0,4,0.6,4,3.3c-0.4,0-1.8-0.1-2.1-0.1
					c-3,0-8,0-8,4.8c0,4.4,3.2,5,6.8,5c1.8,0,4,0,6.7-0.3l0.3,0V39.3C1145.6,34.6,1142.2,34.2,1138.4,34.2z M1142.1,47.4
					c-0.5,0-1.8,0.1-2.6,0.1c-2.1,0-4.4-0.2-4.4-2.6c0-2.1,1.8-2.5,4.7-2.5c0.2,0,1.9,0.1,2.4,0.1V47.4z M1090.8,34.2
					c-1.8,0-3.4,0.2-5.2,0.5l-0.1,0v2.7l0.2-0.1c1.5-0.3,3.2-0.6,4.8-0.6c4,0,4,0.6,4,3.3c-0.4,0-1.9-0.1-2.2-0.1c-3,0-8,0-8,4.8
					c0,4.4,3.2,5,6.8,5c1.8,0,3.9,0,6.6-0.3l0.2,0V39.3C1097.9,34.6,1094.6,34.2,1090.8,34.2z M1094.9,47.4c-0.5,0-2,0.1-2.8,0.1
					c-2.1,0-4.5-0.2-4.5-2.6c0-2.1,1.9-2.5,4.8-2.5c0.2,0,1.5,0.1,2.5,0.1V47.4z M1160.5,34.4c-1.2-0.1-2.4-0.1-3.4-0.1
					c-2.5,0-4.2,0.4-5.7,1.2c-2.8,1.7-3.3,4.8-3.3,6.5c0,3.4,1.5,6.1,4.1,7.2c1.2,0.5,2.7,0.8,4,0.8c0.6,0,1.2,0,2.7-0.2v6.5
					l3.5-1.5V34.5L1160.5,34.4z M1159,47.1c-1.5,0.2-2,0.2-2.5,0.2c-2.2,0-4.8-0.9-4.8-5.3c0-3.4,1.8-5.1,5.2-5.1
					c0.5,0,1.1,0,2.1,0.1V47.1z"/>
			</g>
		</g>
	</g>
</g>
</svg>
