<?xml version="1.0" encoding="UTF-8"?>
<svg width="145px" height="23px" viewBox="0 0 145 23" version="1.1" xmlns="http://www.w3.org/2000/svg" xmlns:xlink="http://www.w3.org/1999/xlink">
    <!-- Generator: Sketch 42 (36781) - http://www.bohemiancoding.com/sketch -->
    <title>siemens-logo</title>
    <desc>Created with Sketch.</desc>
    <defs>
        <polygon id="path-1" points="145 22.8728 145 0 9.99999993e-05 0 9.99999993e-05 22.8728 145 22.8728"></polygon>
    </defs>
    <g id="Desktop-EE-Page" stroke="none" stroke-width="1" fill="none" fill-rule="evenodd">
        <g id="gitlab-ee-standalone-page-v4" transform="translate(-814.000000, -807.000000)">
            <g id="EE-logo-bar" transform="translate(0.000000, 622.000000)">
                <g id="org-logos" transform="translate(215.000000, 152.000000)">
                    <g id="siemens-logo" transform="translate(599.000000, 33.000000)">
                        <mask id="mask-2" fill="white">
                            <use xlink:href="#path-1"></use>
                        </mask>
                        <g id="Clip-2"></g>
                        <path d="M143.2866,5.0883 C142.1781,4.6848 141.1211,4.3833 140.1126,4.1308 C139.1061,3.9298 138.1481,3.8288 137.2921,3.8288 C136.1836,3.8288 135.3271,4.0298 134.7226,4.3833 C134.1181,4.7353 133.8151,5.1888 133.8151,5.7438 C133.8151,6.1458 133.9656,6.4988 134.2686,6.8008 C134.5701,7.1038 135.1251,7.3553 135.9821,7.6578 L140.0626,9.6228 C141.6751,10.3783 142.8841,11.2343 143.7406,12.2928 C144.5966,13.3008 145.0001,14.5603 145.0001,16.0208 C144.9496,18.0863 144.0936,19.7488 142.3301,20.9583 C140.6171,22.2178 138.2486,22.8223 135.3271,22.8728 C134.2686,22.8728 133.1096,22.8228 131.8501,22.6718 C130.6411,22.5698 129.3811,22.3188 128.0711,22.0173 L128.0711,17.5318 C129.3811,17.9858 130.5901,18.2888 131.7496,18.4898 C132.9086,18.6908 133.9656,18.7913 134.9231,18.7913 C136.1326,18.7913 136.9891,18.5903 137.6441,18.2383 C138.2486,17.8848 138.5511,17.4313 138.5511,16.8768 C138.5511,16.4743 138.4496,16.0708 138.1981,15.7693 C137.9466,15.4663 137.5441,15.1648 137.0396,14.9623 L132.5556,13.0478 C130.8421,12.2928 129.6326,11.4363 128.8276,10.3783 C128.0716,9.3708 127.6681,8.1113 127.6681,6.5993 C127.7191,4.5843 128.5256,2.9718 130.1366,1.8128 C131.7996,0.6048 134.0171,0.0503 136.8381,-0.0002 C137.7961,-0.0002 138.8531,0.1008 139.9621,0.2518 C141.0701,0.4023 142.1781,0.6048 143.2866,0.8063 L143.2866,5.0883 Z M124.1926,22.4693 L117.1391,22.4693 L109.2286,8.3128 L109.2286,22.4693 L104.7451,22.4693 L104.7451,0.4023 L111.9991,0.4023 L119.7086,14.3078 L119.7086,0.4023 L124.1921,0.4023 L124.1926,22.4693 Z M100.8656,4.4838 L91.0406,4.4838 L91.0406,9.3708 L99.6061,9.3708 L99.6061,13.0478 L91.0406,13.0478 L91.0406,18.1878 L101.0666,18.1878 L101.0666,22.4693 L84.5916,22.4693 L84.5916,0.4023 L100.8656,0.4023 L100.8656,4.4838 Z M79.4531,22.4693 L73.2561,22.4693 L73.2561,7.9093 L66.8076,22.6718 L62.9786,22.6718 L56.7816,7.9093 L56.7816,22.4693 L52.2976,22.4693 L52.2976,0.4023 L60.4086,0.4023 L65.9506,13.9053 L71.7441,0.4023 L79.4531,0.4023 L79.4531,22.4693 Z M48.4186,4.4838 L38.5431,4.4838 L38.5431,9.3708 L47.1076,9.3708 L47.1076,13.0478 L38.5431,13.0478 L38.5431,18.1878 L48.6196,18.1878 L48.6196,22.4693 L32.1451,22.4693 L32.1451,0.4023 L48.4186,0.4023 L48.4186,4.4838 Z M20.3551,22.4693 L27.0051,22.4693 L27.0051,0.4023 L20.3551,0.4023 L20.3551,22.4693 Z M15.6691,5.0883 C14.5616,4.6848 13.5031,4.3833 12.4946,4.1308 C11.4876,3.9298 10.5301,3.8288 9.6736,3.8288 C8.5656,3.8288 7.7591,4.0298 7.1546,4.3833 C6.5501,4.7353 6.2476,5.1888 6.2476,5.7438 C6.2476,6.1458 6.3996,6.4988 6.7516,6.8008 C7.1046,7.1038 7.6591,7.3553 8.3641,7.6578 L12.4446,9.6223 C14.0571,10.3783 15.2666,11.2343 16.1226,12.2423 C16.9801,13.2503 17.3821,14.4598 17.3821,15.8198 C17.3321,17.9853 16.4756,19.6988 14.7126,20.9583 C12.9991,22.2178 10.6821,22.8228 7.7596,22.8728 C6.6511,22.8728 5.4921,22.8228 4.2326,22.6718 C3.0236,22.5703 1.7636,22.3188 0.4536,22.0173 L0.4536,17.5318 C1.7636,17.9858 2.9726,18.2888 4.1316,18.4898 C5.2911,18.6908 6.3481,18.7913 7.3061,18.7913 C8.5151,18.7913 9.4226,18.5903 10.0261,18.1883 C10.6821,17.8348 10.9841,17.3308 10.9841,16.6758 C10.9841,16.3238 10.8831,16.0208 10.6306,15.7693 C10.3796,15.4663 9.9761,15.2148 9.4731,14.9623 L4.9376,13.0478 C3.2256,12.2928 1.9656,11.3863 1.2096,10.2773 C0.4036,9.2193 9.99999993e-05,8.0098 9.99999993e-05,6.5993 C0.0501,4.5843 0.9076,2.9718 2.5191,1.8128 C4.1821,0.6048 6.3996,0.0503 9.2201,-0.0002 C10.2286,-0.0002 11.3361,0.1008 12.4446,0.2518 C13.6036,0.4023 14.6616,0.6048 15.6691,0.8063 L15.6691,5.0883 Z" id="Fill-1" fill="#FFFFFF" mask="url(#mask-2)"></path>
                    </g>
                </g>
            </g>
        </g>
    </g>
</svg>