<?xml version="1.0" encoding="utf-8"?>
<!-- Generator: Adobe Illustrator 19.2.1, SVG Export Plug-In . SVG Version: 6.00 Build 0)  -->
<svg version="1.1" xmlns="http://www.w3.org/2000/svg" xmlns:xlink="http://www.w3.org/1999/xlink" x="0px" y="0px"
	 viewBox="0 0 340 160" style="enable-background:new 0 0 340 160;" xml:space="preserve">
<style type="text/css">
	.st0{display:none;}
	.st1{display:inline;fill:#F2F2F2;}
	.st2{fill:#444444;}
	.st3{fill:#FFFFFF;}
	.st4{fill:#969898;}
	.st5{opacity:0.15;fill:#444444;}
	.st6{fill-rule:evenodd;clip-rule:evenodd;fill:#444444;}
	.st7{fill-rule:evenodd;clip-rule:evenodd;fill:#969898;}
</style>
<g id="Layer_2" class="st0">
	<rect class="st1" width="340" height="160"/>
</g>
<g id="Layer_1">
	<g>
		<path class="st2" d="M128.3,68.7c-0.5,0.5-3.1,2.2-6.5,2.2c-4.7,0-8.1-3.2-8.1-8.6c0-4.5,2.7-8.6,8.3-8.6c3.3,0,5.4,1.4,6,2.4h0.2
			c0.2-1,0.4-1.5,0.5-2.2c-2-0.7-4.3-1.3-6.5-1.3c-6.5,0-11.6,3.6-11.6,9.7c0,5.9,4.2,9.7,10.8,9.7c2.3,0,4.9-0.4,6.7-1.4
			L128.3,68.7z"/>
		<path class="st2" d="M141,70.1L141,70.1c-2,0.2-5,0.2-7,0.2V62h6c0.9,0,1.8,0.3,2.7,0.3c0-0.2-0.2-0.5-0.2-0.7
			c0-0.2,0.2-0.6,0.2-0.8c-0.9,0-1.8,0.1-2.7,0.1h-6v-7h3.7l3.1,0.3c0.9,0,1.8,0.2,2.7,0.2c0-0.2-0.2-0.5-0.2-0.6
			c0-0.4,0.2-0.8,0.2-0.8H131v19h12.7c0-1-0.2-0.8-0.2-0.9c0-0.4,0.3-0.6,0.3-1C142.9,70.2,142,70.1,141,70.1z"/>
		<path class="st2" d="M127.1,77L127.1,77l0-1.2l-3-0.1l0,1c0,3.8,0.5,7.6,1.4,11.3c1,4.1,2.6,7.9,4.6,11.5c1.6,0.9,3.3,1.7,5.1,2.4
			c-3.1-4.3-5.5-9.1-6.8-14.4C127.5,84,127.1,80,127.1,77z"/>
		<path class="st2" d="M170.6,120L170.6,120c-2.1,0-4.1-0.2-6.1-0.5l-2.4,2.6c2.8,0.5,5.6,0.8,8.5,0.8c13.2,0,25.2-5.5,33.6-14.3
			l-0.8-3.4C195.5,114.2,183.7,120,170.6,120z"/>
		<path class="st2" d="M209.4,102.1c3.8-5.7,6.3-12.2,7.3-19.3l0.2,0l7.5-53l-2.9-0.4l-5.3,37.7c-3.1-14.8-13.4-27-27.1-32.9
			c1.2,1.6,2.3,3.3,3.4,5c13,7.5,21.7,21.5,21.7,37.4c0,7.8-2.1,15.1-5.7,21.4L209.4,102.1z"/>
		<path class="st2" d="M133.8,48.5L133.8,48.5l3.8,0c4.7-6.1,16.8-15.1,33.1-15.1c3.5,0,7,0.4,10.3,1.2c-1.3-1.3-2.7-2.6-4.1-3.8
			c-2-0.3-4-0.4-6.1-0.4C156.1,30.5,142.6,37,133.8,48.5z"/>
		<path class="st2" d="M161.2,69.4l-6.3-7.2c3.1-0.4,6.3-1.9,6.3-5.2c0-2.7-2.2-4.1-6.9-4.1H147v18.7c0-0.2,0.5-0.2,1.1-0.2
			c0.4,0,0.9,0,0.9,0.2V63h2.8l2.4,2.3l3.6,4c0.7,0.9,1.3,1.6,2,2.5c0.5-0.2,1.1-0.2,1.8-0.2c0.5,0,1.1,0,1.6,0.2l-0.5-0.7
			L161.2,69.4z M149,61.5L149,61.5l0-7.5c1,0,4.7-0.2,5.8,0c2.3,0.4,3.5,1.6,3.5,3.4c0,2.2-1.6,3.6-4,3.9
			C152.8,61.7,149.6,61.5,149,61.5z"/>
		<path class="st2" d="M150.8,17.1c-25.7,0-46.6,20.7-46.6,46.2c0,3.8,0.4,7.6,1.4,11.3c0.1,0.4,0.2,0.8,0.3,1.1l0,0l11.7,41.5
			l2.9-0.8l-7.3-25.8c8.6,11.6,22.3,19,37.6,19c7.6,0,14.8-1.8,21.2-5.1L134.7,145h4l46.3-50.5l0,0c6.3-6.8,10.5-15.5,11.8-25.1
			l17.8,75.7h3L196,52.8l0,0C192.4,37.7,181.4,25,167,20h69v-2.9L150.8,17.1z M194.3,63.3c0,23.9-19.5,43.3-43.6,43.3
			c-20,0-37.4-13.4-42.2-32.7c-0.9-3.4-1.3-7-1.3-10.6c0-23.9,19.5-43.3,43.6-43.3C174.7,20,194.3,39.5,194.3,63.3z"/>
		<path class="st2" d="M138.1,109.5c4.8,4.7,10.6,8.4,17,10.7l2.3-2.4c-4.9-1.6-9.4-3.9-13.4-7v0C142,110.5,140,110.1,138.1,109.5z"
			/>
		<path class="st2" d="M181,67h-0.3L166,52.9V53h-1v18.7c0-0.2,0.7-0.2,1.1-0.2c0.2,0-0.1,0,0.9,0.2V57h0l13.2,13.2
			c0.7,0.7,1.3,0.8,1.6,1.8h1.2V52.9c-1,0-0.6,0.2-1,0.2c-0.4,0-1-0.2-1-0.2V67z"/>
	</g>
</g>
</svg>
