<?xml version="1.0" encoding="utf-8"?>
<!-- Generator: Adobe Illustrator 19.2.1, SVG Export Plug-In . SVG Version: 6.00 Build 0)  -->
<svg version="1.1" xmlns="http://www.w3.org/2000/svg" xmlns:xlink="http://www.w3.org/1999/xlink" x="0px" y="0px"
	 viewBox="0 0 340 160" style="enable-background:new 0 0 340 160;" xml:space="preserve">
<style type="text/css">
	.st0{display:none;}
	.st1{display:inline;fill:#F2F2F2;}
	.st2{fill:#444444;}
	.st3{fill:#FFFFFF;}
	.st4{fill:#969898;}
	.st5{opacity:0.15;fill:#444444;}
	.st6{fill-rule:evenodd;clip-rule:evenodd;fill:#444444;}
	.st7{fill-rule:evenodd;clip-rule:evenodd;fill:#969898;}
	.st8{fill-rule:evenodd;clip-rule:evenodd;fill:#C9CACB;}
</style>
<g id="Layer_2" class="st0">
	<rect class="st1" width="340" height="160"/>
</g>
<g id="Layer_1">
	<path class="st2" d="M233.3,49.1c0.6,0,1.1,0.1,1.6,0.4c0.5,0.3,0.9,0.6,1.1,1.1c0.3,0.5,0.4,1,0.4,1.5c0,0.5-0.1,1-0.4,1.5
		c-0.2,0.5-0.6,0.9-1.1,1.1c-0.5,0.3-1,0.4-1.6,0.4c-0.6,0-1.1-0.1-1.6-0.4c-0.5-0.3-0.9-0.6-1.1-1.1c-0.3-0.5-0.4-1-0.4-1.5
		c0-0.5,0.1-1,0.4-1.5c0.3-0.5,0.7-0.9,1.1-1.1C232.3,49.2,232.8,49.1,233.3,49.1L233.3,49.1z M233.3,49.6c-0.4,0-0.9,0.1-1.3,0.3
		c-0.4,0.2-0.7,0.5-1,0.9c-0.2,0.4-0.4,0.8-0.4,1.3c0,0.4,0.1,0.9,0.4,1.3c0.2,0.4,0.6,0.7,1,1c0.4,0.2,0.8,0.3,1.3,0.3
		c0.5,0,0.9-0.1,1.3-0.3c0.4-0.2,0.7-0.5,1-1c0.2-0.4,0.4-0.8,0.4-1.3c0-0.4-0.1-0.9-0.4-1.3c-0.2-0.4-0.6-0.7-1-0.9
		C234.2,49.7,233.7,49.6,233.3,49.6z M231.9,53.8v-3.3h1.1c0.4,0,0.7,0,0.9,0.1c0.2,0.1,0.3,0.2,0.4,0.3c0.1,0.1,0.2,0.3,0.2,0.5
		c0,0.2-0.1,0.4-0.3,0.6c-0.2,0.2-0.4,0.3-0.7,0.3c0.2,0.1,0.3,0.1,0.4,0.2c0.1,0.1,0.3,0.3,0.5,0.7l0.4,0.6h-0.7l-0.3-0.5
		c-0.3-0.4-0.5-0.7-0.7-0.8c-0.1-0.1-0.2-0.1-0.4-0.1h-0.3v1.4C232.5,53.8,231.9,53.8,231.9,53.8z M232.5,52h0.7
		c0.3,0,0.5,0,0.7-0.1c0.1-0.1,0.2-0.2,0.2-0.4c0-0.1,0-0.2-0.1-0.3c0-0.1-0.1-0.1-0.3-0.2c-0.1,0-0.3-0.1-0.5-0.1h-0.6L232.5,52
		L232.5,52z M141.5,71.3c2.6,0,3.7,1.3,3.7,3.4v24.9h9v-25c0-5.1-2.7-10.7-10.6-10.7h-18.6v35.7h9V71.3 M195.2,70.9
		c-3.1,0-5.4,1.6-6.5,3.7c-0.6,1.3-0.8,2.3-0.9,3.9h13.9C201.6,74.6,199.8,70.9,195.2,70.9 M187.9,84.6c0,4.6,2.9,8,8,8
		c3.9,0,6-1.1,8.2-3.4l5.6,5.4c-3.6,3.5-7.3,5.6-13.9,5.6c-8.6,0-16.9-4.7-16.9-18.5c0-11.7,7.2-18.4,16.7-18.4
		c9.5,0,15,7.8,15,17.9v3.3L187.9,84.6 M171.4,99.6c-7.4,0-10.5-5.1-10.5-10.2V54.3h9V64h6.8v7.3h-6.8v17.6c0,2.1,1,3.2,3.1,3.2h3.7
		v7.5L171.4,99.6 M108,50.4h9.1v8.6H108V50.4z M117.1,64H108v26.5c0,4.7,2.3,8.8,9.1,9.5 M225.1,49.2H216v40.5
		c0,4.7,2.3,8.8,9.1,9.5 M256.7,55c-8.3-40.1-86-42.7-136-12.1v3.4c50-25.8,121-25.6,127.4,11.3c2.2,12.3-4.7,25-17,32.3v9.6
		C246,94.1,261,76.5,256.7,55 M165.6,125.3c-34.5,3.2-70.5-1.8-75.6-28.9C87.5,83,93.6,68.8,101.6,60v-4.7
		c-14.5,12.8-22.4,28.9-17.8,47.9c5.8,24.5,36.7,38.3,83.9,33.7c18.7-1.8,43.1-7.8,60.1-17.2v-13.3
		C212.4,115.7,186.9,123.3,165.6,125.3z"/>
</g>
</svg>
