<?xml version="1.0" encoding="utf-8"?>
<!-- Generator: Adobe Illustrator 19.2.1, SVG Export Plug-In . SVG Version: 6.00 Build 0)  -->
<svg version="1.1" xmlns="http://www.w3.org/2000/svg" xmlns:xlink="http://www.w3.org/1999/xlink" x="0px" y="0px"
	 viewBox="0 0 340 160" style="enable-background:new 0 0 340 160;" xml:space="preserve">
<style type="text/css">
	.st0{display:none;}
	.st1{display:inline;fill:#F2F2F2;}
	.st2{fill:#444444;}
	.st3{fill:#FFFFFF;}
	.st4{fill:#969898;}
	.st5{opacity:0.15;fill:#444444;}
	.st6{fill-rule:evenodd;clip-rule:evenodd;fill:#444444;}
	.st7{fill-rule:evenodd;clip-rule:evenodd;fill:#969898;}
	.st8{fill-rule:evenodd;clip-rule:evenodd;fill:#C9CACB;}
</style>
<g id="Layer_2" class="st0">
	<rect class="st1" width="340" height="160"/>
</g>
<g id="Layer_1">
	<g>
		<g>
			<path class="st2" d="M214.9,44.9h1.1v-5.3h2v-0.9h-5v0.9h2L214.9,44.9L214.9,44.9z M219.7,40.1L219.7,40.1l1.7,4.8h0.9l1.7-4.8h0
				v4.8h1v-6.2h-1.5l-1.7,4.8h0l-1.7-4.8h-1.5v6.2h1V40.1z M188.4,38.7h-67.8l-10.3,16.5H178L188.4,38.7z M202.2,38.8l-41.4,66h-46
				l10.6-16.5H153l10.5-16.5H99.8L89.3,88.3h15.1l-20.9,33h87.4l32.3-50.9l11.8,17.9h-10.6l-10,16.5h31.4l10.9,16.5h20L202.2,38.8z"
				/>
		</g>
	</g>
</g>
</svg>
