<?xml version="1.0" encoding="utf-8"?>
<!-- Generator: Adobe Illustrator 19.2.1, SVG Export Plug-In . SVG Version: 6.00 Build 0)  -->
<svg version="1.1" xmlns="http://www.w3.org/2000/svg" xmlns:xlink="http://www.w3.org/1999/xlink" x="0px" y="0px"
	 viewBox="0 0 340 160" style="enable-background:new 0 0 340 160;" xml:space="preserve">
<style type="text/css">
	.st0{fill:#F2F2F2;}
	.st1{fill:#444444;}
	.st2{fill:#FFFFFF;}
	.st3{fill:#969898;}
	.st4{opacity:0.15;fill:#444444;}
	.st5{fill-rule:evenodd;clip-rule:evenodd;fill:#444444;}
	.st6{fill-rule:evenodd;clip-rule:evenodd;fill:#969898;}
	.st7{clip-path:url(#SVGID_2_);fill:#444444;}
	.st8{clip-path:url(#SVGID_4_);fill:#444444;}
	.st9{clip-path:url(#SVGID_6_);fill:#444444;}
	.st10{fill:#444445;}
</style>
<g id="Layer_2">
</g>
<g id="Layer_1">
	<g id="layer1_2_" transform="translate(-304.0625,-519.85074)">
		<path id="path7122" class="st10" d="M395.6,573.7c-5.8,0-11.8,1.9-16,5.9c-5.2,5-7.5,12.2-7.6,19.2c-0.2,5.9,1,12,4.2,17.1
			c2.5,4.1,6.4,7.2,11,8.8c5,1.7,10.6,1.8,15.8,0.4c5.5-1.6,10.3-5.4,12.9-10.5c3.4-6.2,4-13.5,3-20.4c-0.9-5.5-3.2-10.9-7.4-14.8
			c-4.1-3.8-9.7-5.7-15.2-5.7C395.9,573.7,395.7,573.7,395.6,573.7z M325.7,575.6v48.5h8.4v-32.6l25.4,32.6h6.9v-48.5h-7.9v26.7
			l-21.1-26.7H325.7z M435.2,575.6l-17.8,48.5h8.6l12-32.8l12.2,32.8h13l-18.4-48.5H435.2z M453.7,575.6l-3.1,8.3l4.4,11.6l1.6-4.2
			l11.9,32.8h13.7l-18.3-48.5H453.7z M483.3,575.6c0,11.2-0.1,22.5,0,33.7c0.2,4.4,1.7,9,5.1,12c3.5,3.2,8.5,4.4,13.1,4.6
			c4.5,0.2,9-0.3,13.1-2.3c3.8-1.9,6.5-5.5,7.6-9.4c1.4-4.6,0.7-9.4,0.8-14.1c0-8.2,0-16.4,0-24.6c-3,0-5.9,0-8.9,0
			c0,10.6,0,21.2,0,31.8c0,3.1-0.3,6.6-2.7,9c-2.5,2.2-6.1,2.2-9.3,1.8c-3-0.4-5.4-2.7-5.9-5.6c-1-3.8-0.4-7.8-0.6-11.7
			c0-8.4,0-16.8,0-25.2C491.5,575.6,487.4,575.6,483.3,575.6z M531.1,575.6c0,16.2,0,32.3,0,48.5c4.1,0,8.1,0,12.2,0
			c0-13.9,0-27.8,0-41.7c2.6,0.1,5.3-0.2,7.8,0.3c2.5,0.5,4.6,2.2,5.4,4.6c0.9,2.5,0.9,5.5-0.1,8c-1,2.4-3.6,3.7-6.1,4.2
			c-1.6,0.4-3.3,0.5-4.9,0.7c4.2,8,8.5,16,12.7,24c4.4,0,8.7,0,13.1,0c-3.9-7.1-7.7-14.3-11.6-21.4c3.3-1.2,6.5-3,8.2-6.1
			c1.5-2.7,1.8-5.8,1.6-8.8c-0.4-4-2.7-7.8-6.3-9.9c-3-2-6.8-2.5-10.4-2.3C545.5,575.6,538.3,575.6,531.1,575.6z M591.7,575.6
			l-19.2,48.5h8.4l5.2-13.4h17.6l5.4,13.4h13.5L603,575.6H591.7z M395.9,580.3c0.7,0,1.5,0.2,2.2,0.4c4,1.2,6.6,5,7.7,8.8
			c1.3,3.8,1.5,7.8,1.4,11.8c-0.2,5.3-1.2,10.9-4.9,15c-1.8,1.8-4.2,3.2-6.8,3.1c-4.6,0.1-8.1-3.7-9.7-7.6
			c-2.2-5.3-2.4-11.2-1.8-16.9c0.6-4.5,2-9.3,5.6-12.4C391.4,581.1,393.6,580.3,395.9,580.3z M594.8,588.6l6,15.2h-12L594.8,588.6z
			 M441.4,607.2l-6.2,16.9h7.8l2.4-6.4L441.4,607.2z"/>
	</g>
</g>
</svg>
