<?xml version="1.0" encoding="utf-8"?>
<!-- Generator: Adobe Illustrator 19.2.1, SVG Export Plug-In . SVG Version: 6.00 Build 0)  -->
<svg version="1.1" xmlns="http://www.w3.org/2000/svg" xmlns:xlink="http://www.w3.org/1999/xlink" x="0px" y="0px"
	 viewBox="0 0 340 160" style="enable-background:new 0 0 340 160;" xml:space="preserve">
<style type="text/css">
	.st0{display:none;}
	.st1{display:inline;fill:#F2F2F2;}
	.st2{fill:#444444;}
	.st3{fill:#FFFFFF;}
	.st4{fill:#969898;}
	.st5{opacity:0.15;fill:#444444;}
	.st6{fill-rule:evenodd;clip-rule:evenodd;fill:#444444;}
	.st7{fill-rule:evenodd;clip-rule:evenodd;fill:#969898;}
</style>
<g id="Layer_2" class="st0">
	<rect class="st1" width="340" height="160"/>
</g>
<g id="Layer_1">
	<g>
		<path class="st2" d="M164.8,52H156c0,0-1.1,0.8-1.1,2.5c0,2,1.1,2.5,1.1,2.5h7.9c11.4,0,18.6,7.7,18.6,22.8
			c0,16.2-7.1,23.2-19.7,23.2h-5.1c-0.7,0-1.7-1-1.7-1.4c0-3,0-22,0-23.6c0-7.8-5.2-12.1-13.8-12.1c-5.9,0-10.2,2.6-12.2,7.1
			c0-1.5,0-4.1,0-4.9c0-0.7-0.5-1-1.1-1c-0.7,0-14.6,0-14.6,0s-1,1-1,2.5c0,1.6,0.9,2.5,0.9,2.5s2.3,0,3.3,0c0.8,0,1.5,0.4,1.5,1.5
			c0,0.9,0,28.1,0,28.1c0,0.7-0.5,1.4-1.1,1.4h-3.2l-1.4,4c9.5,0,20.9,0,20.9,0s0.7-0.6,0.7-2.1c0-1.4-0.7-1.9-0.7-1.9h-2.5
			c-0.7,0-0.7-0.7-0.7-1.4V79.8c2-5.6,5.8-8.9,9.2-8.9c3.1,0,4.8,2.4,4.8,5.9c0,1.8,0,21.3,0,24.6c0,0.9-0.7,1.7-1.3,1.7h-3
			c0,0-0.8,0.5-0.8,1.9c0,1.5,0.8,2.1,0.8,2.1h24.6c24.5,0,30.8-15,30.8-27.4C196.1,59.8,182.5,52,164.8,52z"/>
		<path class="st2" d="M109.9,102.9c-2.7-0.2-2.9-1.9-2.9-3.7V77.8c0-3.1-1.3-6.8-3.9-8.9c-3.3-2.8-8.2-3.5-12.3-3.5
			c-5.4,0-9.7,0.7-14.1,2.1c-0.5,0.2-0.7,0.7-0.7,1.3c0,2.2,0,3.4,0,5.9c0,0.5,0.3,1.3,0.8,1.3c0,0,2,0,2.3,0c0.5,0,1-0.5,1.3-1
			c1.3-1.7,2.8-3.2,4.1-3.9c1.1-0.6,3.2-1.4,5-1.4c4.5,0,6.5,3.2,6.5,7v5.9c-17-1-23.9,4-23.9,11.9c0,9.1,6.2,12.9,12.4,12.9
			c5.5,0,9.7-2.1,12-5.3c0.5,2.8,2.2,4.8,4.4,4.8c1.1,0,4.6,0,8.8,0l1.5-4h-1.3L109.9,102.9z M96,97h-0.1c-1.7,2-4.5,4.1-7.6,4.1
			c-3.8,0-5.9-1.9-5.9-6.2c0-5,2.6-7.7,13.6-7.7V97z"/>
		<path class="st2" d="M47.9,72.1L47.9,72.1c-7.8-2.7-9.4-5-9.4-8.1c0-3.4,3.2-6.9,10-6.9c2.4,0,4.8,0.8,7.2,2.3
			c1.4,0.9,2.9,2.3,4.6,5.2c0.2,0.3,0.6,0.4,0.8,0.4c0.7,0,2.4,0,2.4,0c0.3,0,0.4-0.1,0.4-0.5c0-1.7,0-6.4,0-9.3
			c0-0.5-0.3-0.8-0.8-1.1c-4.6-1.5-9.2-2.2-15.2-2.2c-11.1,0-18.5,6.3-18.5,16c0,9.5,7.2,13.5,16.6,16.4c6,1.8,13.1,4.3,13.1,10.2
			c0,3.5-3.3,7.6-9.7,7.6c-4.9,0-8.1-1.8-10-3.7c-2-2-3.7-3.8-5.4-7.4c-0.2-0.4-0.5-0.8-0.9-0.8c-1,0-2.6-0.1-2.6-0.1
			C30.1,90.2,30,90.4,30,91c0,2.3,0,8.3,0,10.8c0,0.4,0,1.1,0.4,1.3c5.6,3.2,12.7,4.4,18.8,4.4c10.7-0.1,18.9-7.2,18.9-18.5
			C68.1,76.7,56.8,75.2,47.9,72.1z"/>
		<path class="st2" d="M245.8,81.6L245.8,81.6c-8.1-2-9.8-3.4-9.8-6.3c0-2.4,2.1-5,6.4-5c4.2,0,8.1,2.4,10,5.2
			c0.2,0.4,0.6,0.4,1.1,0.4c0.7,0,1.6,0,2,0s0.5,0,0.5-0.2c0-0.2,0-5,0-7.1c0-0.5-0.2-1-0.8-1.1c-3.1-0.9-7.8-1.5-12.9-1.5
			c-6.9,0-14.4,4-14.4,12.4c0,7.3,5.9,11.3,10.9,12.6c8.6,2.4,11.1,3.6,11.1,7.2c0,3.2-2.5,5.1-6.8,5.1c-4.4,0-8.5-3.2-10.8-8.9
			c-0.4-0.6-0.7-0.7-1.1-0.7c-1.1-0.1-2.3,0-2.6,0c-0.4,0-0.7,0.2-0.7,0.7c0,2,0,7.8,0,8.4c0,0.7,0.8,1.3,0.8,1.3s2.4,1.5,5.2,2.5
			c2.4,0.7,5.2,1.4,9.2,1.4c10.2,0,15-6.3,15-13.7C258.1,87.8,254.4,83.7,245.8,81.6z"/>
		<path class="st2" d="M223.2,103h-4.6c-0.7,0-1.6-0.6-1.6-1.2c0,0,0-32.5,0-33.3c0-1,0.1-1.5-1-1.5c-1.1,0-14.2,0-14.2,0
			s-1,0.6-1,2c0,1.3,1,2,1,2s3.7,0,4,0c0.2,0,0.3,0.6,0.3,1c0,0.4,0,29.7,0,29.7c0,0.7-0.3,1.3-0.8,1.3h-4.6c0,0-0.9,0.5-0.9,1.9
			c0,1.3,0.9,2.1,0.9,2.1h22.6c0,0,0.7-0.8,0.7-2.1C224,103.6,223.2,103,223.2,103z"/>
		<path class="st2" d="M207,61.1V61h10.3c0.6,0,1-0.1,1.1-0.6l2.4-7.4c0.2-0.6-0.2-1-0.8-1h-10.7c-0.6,0-0.9,0.5-1,1l-2,6.7
			C206,60.5,206,61.1,207,61.1z"/>
		<path class="st2" d="M309.7,103c0,0-0.7,0-1.7,0v0c-2,0-4-0.8-5.1-2.4c-0.5-0.7-13.1-20.1-13.4-20.6c3.3-4.4,4.9-6.1,7.8-7.6
			c1.9-1,5.4-1.7,8-1.7c0,0,0.6-0.5,0.6-1.9c0-1.5-0.6-2-0.6-2l-12.8,0.1c-0.5,0-1.1,0.3-1.6,1c-0.2,0.4-10,14.7-13,18.5
			c0-13.9,0-32.3,0-32.6c0-0.8-0.5-1.4-1.4-1.4c-1,0-15.9-0.1-15.9-0.1s-0.8,0.4-0.8,1.7c0,1.4,0.8,1.9,0.8,1.9s4.6,0,5.1,0
			c0.7,0,1.2,0.7,1.2,1.4c0,0.7,0,44.5,0,44.5c0,0.7-0.6,1.1-1,1.1h-4.9c0,0-0.8,0.6-0.8,1.9s0.8,2.1,0.8,2.1h21.2
			c0,0,0.7-0.9,0.7-2.1s-0.7-1.9-0.7-1.9h-3.4c-0.5,0-0.9-0.6-0.9-1c0,0,0-4.3,0-10.3c1-1.1,2.9-2.9,3-3.2c0.7-0.7,1.4-0.4,1.7,0.2
			c0.5,0.7,8.5,13.1,8.7,13.5c0.4,0.6,0.2,0.9-0.2,0.9h-2.5c0,0-0.7,1-0.7,2c0,1.1,0.6,2,0.6,2h21.2c0,0,0.7-0.8,0.7-2
			S309.7,103,309.7,103z"/>
	</g>
</g>
</svg>
