<?xml version="1.0" encoding="utf-8"?>
<!-- Generator: Adobe Illustrator 19.2.1, SVG Export Plug-In . SVG Version: 6.00 Build 0)  -->
<svg version="1.1" xmlns="http://www.w3.org/2000/svg" xmlns:xlink="http://www.w3.org/1999/xlink" x="0px" y="0px"
	 viewBox="0 0 340 160" style="enable-background:new 0 0 340 160;" xml:space="preserve">
<style type="text/css">
	.st0{display:none;}
	.st1{display:inline;fill:#F2F2F2;}
	.st2{fill:#444444;}
	.st3{fill:#FFFFFF;}
	.st4{fill:#969898;}
	.st5{opacity:0.15;fill:#444444;}
	.st6{fill-rule:evenodd;clip-rule:evenodd;fill:#444444;}
	.st7{fill-rule:evenodd;clip-rule:evenodd;fill:#969898;}
	.st8{fill-rule:evenodd;clip-rule:evenodd;fill:#C9CACB;}
</style>
<g id="Layer_2" class="st0">
	<rect class="st1" width="340" height="160"/>
</g>
<g id="Layer_1">
	<path class="st2" d="M227.3,45.4c-9.4,0-15.9,3.7-20.3,8.9c-0.7-1.6-1.3-2.2-2.1-3.1c-3.6-4.1-9.4-6-17.2-6
		c-7.6,0-13.9,2.4-18.3,6.1c-2.3-3.7-7.7-6.2-14.3-6.2c-8.6,0-17.9,1.2-23.4,10.1c-0.1-3.2-0.4-4.9-2.2-6.8
		c-2.2-2.3-5.7-2.9-9.2-2.9c-6.3,0-11,2.8-14.5,8.4c-5,7.9-17,33.9-16.7,46.5c0.2,8.1,5.6,14,15.4,14.2c7.6,0.2,13.6-1.9,17.4-5.7
		c3.4,3.7,8.6,5.9,14.9,5.9c7,0,14-2.1,18.1-6.6c3.5,4.3,9,6.8,16,6.7c9.2-0.1,17.3-4.4,22.6-11.1c2.9,7.9,10.2,11,18.3,11
		c17.6,0,25.3-12.1,31.8-31.2c1.4-4.3,3.4-11.5,3.7-17.5C247.8,56,243.6,45.4,227.3,45.4L227.3,45.4z M251.1,72.9
		c-0.8,6.5-5.2,18.6-7.6,23.5c-6.3,13-14.7,22.9-30.9,22.9c-8.7,0-15.8-2.8-19.9-8.1c-6.1,5.3-13.6,8.1-21.8,8.1
		c-6.3,0-11.8-1.8-16-5.2c-4.7,3.3-10.9,5.1-17.9,5.1c-5.8,0-11-1.6-15.1-4.5c-4.5,3-10.5,4.5-17.4,4.3
		c-11.6-0.3-19.6-7.6-19.8-18.3c-0.3-14.2,11.6-40.1,17.3-49.1c4.2-6.9,10.6-10.6,18.5-10.6c8.6,0,11.7,2.4,13.2,5.6
		c6.6-5.6,15.3-5.9,21.6-5.9c6.9,0,11.2,1.8,14.9,4.7c5.1-3,10.9-4.6,17.8-4.6c8.9,0,15.4,2.1,20,6.6c5.3-4.5,12-6.5,19.5-6.5
		c9.9,0,16.4,3.6,20.3,8.9C253.1,57.3,252.1,64.9,251.1,72.9 M155.2,46.4c-8.5,0-17.2,1.2-22.4,9.5l-2.1,3.5l-0.2-4.1
		c-0.1-3.2-0.4-4.5-1.9-6c-1.6-1.7-4.3-2.5-8.3-2.5c-5.8,0-10.2,2.5-13.4,7.8c-4.9,7.8-16.8,33.6-16.5,45.9
		c0.2,7.9,5.5,12.8,14.2,13c7.2,0.2,12.9-1.7,16.5-5.3l0.9-0.9l0.9,1c3.3,3.5,8.2,5.5,14,5.5c7.3,0,13.6-2.3,17.2-6.2l1-1.1l0.9,1.1
		c3.4,4.1,8.6,6.3,15,6.3c8.4-0.1,16.3-3.9,21.6-10.6l1.4-1.8l0.8,2.1c3.3,8.9,12.1,10.2,17.1,10.2c16.9,0,24.3-11.6,30.6-30.4
		c1.6-4.7,3.3-11.6,3.6-17.2c0.2-4.2-0.3-10.1-4.3-14.3c-3.2-3.4-8-5-14.4-5c-8.1,0-14.6,2.9-19.3,8.5l-1.3,1.5l-0.8-1.8
		c-0.7-1.4-1.2-2-1.9-2.8c-3.3-3.7-8.7-5.6-16.2-5.6c-6.9,0-13.1,2.1-17.5,5.8l-1.1,0.9l-0.8-1.2C166.3,48.6,161.1,46.4,155.2,46.4
		L155.2,46.4z M155.5,50.5c4.6,0,9.8,2,9.8,6.3c0,6-5.1,8.3-10.1,8.6c-2.1,0.1-5.4,0.2-7.4,0.1c0,0-1.7,2.6-3.5,7.1
		c9.3-1.3,13.3,0.8,11.7,6.2c-2.1,7.3-8.4,7.8-16.1,6.4c-0.6,1.6-1.7,5-2.7,8.7c3-0.7,5.2-1.3,9.1-1.2c4.4,0.1,7.2,1.9,7.2,5.5
		c0,8.8-9.7,11.3-16.4,11.3c-7.4,0-13.9-4.2-13.9-12.3c0-9.5,5.1-23.8,9.9-33.4C139,52,145.1,50.5,155.5,50.5L155.5,50.5z M188,50.7
		c8.8,0,15.7,3.2,14.7,11.4c-0.7,6-3.8,9.6-9.2,10c-1.5,0.1-7.8-0.1-5.7-6c0.7-2.1,1-3.7-2.1-3.7c-2.5,0-4.2,1.6-5.4,3.3
		c-2.7,3.8-8.5,19-9.5,25.2c-0.6,4.3,1.2,5.1,3.2,5.1c3.2,0,6.9-3.4,8.1-9.1c0,0-6.2-0.2-4.5-5.6c1.6-5.3,4.8-6.4,10-6.7
		c10.2-0.4,9.2,7.1,8.4,11.1c-2.7,13.1-12,23.6-25.1,23.6c-9,0-14.6-5-14.6-14.2c0-6.5,3.2-16.8,5.8-22.8
		C167.6,59.7,173.4,50.7,188,50.7L188,50.7z M228,50.8c17.4,0.2,14.3,15.7,12.9,22.4c-1.5,7.7-5,16.8-8.8,23.6
		c-6.2,11.1-13.6,12.6-20.2,12.6c-6.5-0.1-13.9-2.5-14-12.6c-0.1-7.2,3.1-17.5,5.7-24.1C208.3,60.5,213,50.6,228,50.8z M120.4,51.1
		c4.4,0,5.5,2.2,5.4,4.9c-0.2,7.2-11.8,29-15.6,37.5c9.1-1.6,11.4,1.7,11.1,4.8c-0.9,9.1-9.2,11.2-16.5,11c-5.3-0.1-10-2.5-10.1-8.7
		c-0.2-10.7,10.7-35.5,15.8-43.7C112.9,53,115.8,51.1,120.4,51.1L120.4,51.1z M226.2,62.7c-1.5,0-2.8,0.3-4,2.1
		c-2.6,3.4-10.3,24.4-10.2,28.6c0.1,1.5,0.9,2.8,2.7,2.8c2.1,0,3.3-1.5,4.4-3.2c2.4-4.1,9.2-22.7,9.4-27.3
		C228.6,64.3,228.3,62.7,226.2,62.7z M250.2,44.8v-1.2h0.8c0.6,0,0.9,0.2,0.9,0.6c0,0.3-0.2,0.6-0.8,0.6L250.2,44.8L250.2,44.8z
		 M253.2,47.3l-0.5-0.9c-0.5-0.8-0.6-0.9-1-1.1v0c0.8-0.1,1.2-0.6,1.2-1.3c0-0.7-0.5-1.3-1.4-1.3h-2.2v4.5h0.9v-1.8h0.2
		c0.4,0,0.6,0,0.7,0.2c0.2,0.2,0.5,0.6,0.6,0.9l0.4,0.7L253.2,47.3L253.2,47.3z M251,41.6c1.9,0,3.5,1.6,3.5,3.5
		c0,1.9-1.6,3.5-3.5,3.5c-1.9,0-3.5-1.6-3.5-3.5C247.5,43.1,249.1,41.6,251,41.6z M251,40.7c-2.4,0-4.4,1.9-4.4,4.3c0,0,0,0,0,0
		c0,2.4,1.9,4.3,4.3,4.4c0,0,0,0,0,0c2.4,0,4.4-1.9,4.4-4.4C255.4,42.6,253.4,40.7,251,40.7"/>
</g>
</svg>
