<?xml version="1.0" encoding="utf-8"?>
<!-- Generator: Adobe Illustrator 19.2.1, SVG Export Plug-In . SVG Version: 6.00 Build 0)  -->
<svg version="1.1" xmlns="http://www.w3.org/2000/svg" xmlns:xlink="http://www.w3.org/1999/xlink" x="0px" y="0px"
	 viewBox="0 0 340 160" style="enable-background:new 0 0 340 160;" xml:space="preserve">
<style type="text/css">
	.st0{display:none;}
	.st1{display:inline;fill:#F2F2F2;}
	.st2{fill:#444444;}
	.st3{fill:#FFFFFF;}
	.st4{fill:#969898;}
	.st5{opacity:0.15;fill:#444444;}
	.st6{fill-rule:evenodd;clip-rule:evenodd;fill:#444444;}
	.st7{fill-rule:evenodd;clip-rule:evenodd;fill:#969898;}
	.st8{fill-rule:evenodd;clip-rule:evenodd;fill:#C9CACB;}
</style>
<g id="Layer_2" class="st0">
	<rect class="st1" width="340" height="160"/>
</g>
<g id="Layer_1">
	<path class="st2" d="M121.3,131.7h3.2c1.4,0,2.7-0.8,2.7-2.4c0-1.4-1.2-2.4-2.6-2.4h-3.3L121.3,131.7z M115.7,122.7h10.5
		c2.8,0,6.8,1.2,6.8,5.7c0,2.8-1.3,4.4-3.7,5.2c0.1,0,1.4,0.6,1.9,2.2c0,0,3,8.3,3,8.3H128l-2.2-6.4c-0.3-1-1.1-1.6-2.1-1.6h-2.3
		v8.1h-5.7L115.7,122.7z M211.7,122.2c6,0,10.6,3.5,10.6,11.2c0,7.4-4.6,11.1-10.6,11.1c-6,0-10.6-3.7-10.6-11.1
		C201.1,125.7,205.7,122.2,211.7,122.2z M207.1,133.4c0,3.2,1.4,6.9,4.6,6.9c3.3,0,4.6-3.7,4.7-6.9c0-2.9-1.4-6.9-4.7-6.9
		C208.5,126.5,207.1,130.2,207.1,133.4z M237.8,144.1l-7.4-14v14h-5.4v-21.3h7.4l7,13.8v-13.8h5.3v21.3H237.8z M198.4,123.1
		l-0.4,4.4c-2.9-1.6-8.5-1.7-8.5,0.9c0,3.7,9.9,1,9.9,9.1c0,7.9-9.4,8-15.5,6.1l0.4-4.7c3.8,1.8,9.2,2.2,9.2-0.9
		c0-3.4-9.9-1.5-9.9-9.1C183.6,122.6,191.4,120.9,198.4,123.1z M180.9,123.1l-0.4,4.4c-2.9-1.6-8.5-1.7-8.5,0.9c0,3.7,9.9,1,9.9,9.1
		c0,7.9-9.4,8-15.5,6.1l0.4-4.7c3.8,1.8,9.2,2.2,9.2-0.9c0-3.4-9.9-1.5-9.9-9.1C166.1,122.6,173.9,120.9,180.9,123.1z M163.8,123.4
		l-0.4,4.6c-4.7-2.7-11.9-1.8-12,5.3c-0.1,7.1,7.4,8.1,12.2,5.7l0.3,4.7c-8.4,2.6-18.5,0-18.4-10.4
		C145.5,123.1,155.6,120.3,163.8,123.4L163.8,123.4z M142.7,144.1h-5.8v-21.3h5.8V144.1z M111.1,135.6H101v4h10.7v4.5H95.2v-21.3
		h16.3v4.4H101v3.9h10.1L111.1,135.6z M148.7,100.9c-4.6,1.6-9.6-0.7-11.2-5.3c-1.6-4.5,0.7-9.5,5.2-11.2l48.6-17.8
		c4.6-1.7,9.6,0.7,11.3,5.2c1.7,4.6-0.7,9.6-5.2,11.3c0,0,0,0,0,0L148.7,100.9z M148.7,74.6c-4.6,1.6-9.6-0.7-11.2-5.3
		c-1.6-4.5,0.7-9.5,5.2-11.2l48.6-17.8c4.6-1.7,9.6,0.7,11.3,5.2c1.7,4.6-0.7,9.6-5.2,11.3c0,0,0,0,0,0L148.7,74.6z M148.7,48.3
		c-4.6,1.6-9.6-0.8-11.2-5.4c-1.6-4.5,0.7-9.4,5.1-11.1L191.3,14c4.6-1.7,9.6,0.7,11.3,5.2c1.7,4.6-0.7,9.6-5.2,11.3c0,0,0,0,0,0
		L148.7,48.3z"/>
</g>
</svg>
