<?xml version="1.0" encoding="utf-8"?>
<!-- Generator: Adobe Illustrator 19.2.1, SVG Export Plug-In . SVG Version: 6.00 Build 0)  -->
<svg version="1.1" xmlns="http://www.w3.org/2000/svg" xmlns:xlink="http://www.w3.org/1999/xlink" x="0px" y="0px"
	 viewBox="0 0 340 160" style="enable-background:new 0 0 340 160;" xml:space="preserve">
<style type="text/css">
	.st0{display:none;}
	.st1{display:inline;fill:#F2F2F2;}
	.st2{fill:#444444;}
	.st3{fill:#FFFFFF;}
	.st4{fill:#969898;}
	.st5{opacity:0.15;fill:#444444;}
	.st6{fill-rule:evenodd;clip-rule:evenodd;fill:#444444;}
	.st7{fill-rule:evenodd;clip-rule:evenodd;fill:#969898;}
	.st8{fill-rule:evenodd;clip-rule:evenodd;fill:#C9CACB;}
</style>
<g id="Layer_2" class="st0">
	<rect class="st1" width="340" height="160"/>
</g>
<g id="Layer_1">
	<path class="st2" d="M296,62.4c0.5,0,0.8-0.3,0.8-0.6v0c0-0.4-0.3-0.6-0.8-0.6h-1v1.3L296,62.4z M294.5,60.2h1.5
		c0.6,0,1,0.2,1.3,0.5c0.3,0.2,0.4,0.6,0.4,1v0c0,0.7-0.4,1.1-0.9,1.4c0,0,0.9,1.1,0.9,1.2c0,0.3-0.2,0.5-0.5,0.5
		c-0.2,0-0.4-0.1-0.5-0.3l-1-1.2h-0.8v1c0,0.3-0.2,0.5-0.5,0.5c-0.3,0-0.5-0.2-0.5-0.5v-3.6C294.1,60.3,294.3,60.2,294.5,60.2
		L294.5,60.2z M299.6,62.5L299.6,62.5c0-2.1-1.6-3.8-3.8-3.8c-2.1,0-3.8,1.7-3.8,3.8v0c0,2.1,1.6,3.8,3.8,3.8
		C298,66.3,299.6,64.6,299.6,62.5 M291.2,62.5L291.2,62.5c0-2.6,2-4.7,4.6-4.7c2.6,0,4.7,2.1,4.7,4.7v0c0,2.5-2,4.7-4.7,4.7
		C293.2,67.2,291.2,65.1,291.2,62.5 M49.8,60.3c-1.2-2.7-4.3-3.9-7.1-2.7c-2.8,1.3-3.9,4.4-2.6,7.1L52,90.7c1.9,4.1,3.9,6.2,7.6,6.2
		c4,0,5.7-2.3,7.6-6.2c0,0,10.4-22.7,10.5-22.9c0.1-0.2,0.4-1,1.5-1c0.9,0,1.7,0.7,1.7,1.7v22.2c0,3.4,1.9,6.2,5.5,6.2
		c3.6,0,5.6-2.8,5.6-6.2V72.5c0-3.5,2.5-5.8,5.9-5.8c3.4,0,5.7,2.3,5.7,5.8v18.1c0,3.4,1.9,6.2,5.5,6.2c3.6,0,5.6-2.8,5.6-6.2V72.5
		c0-3.5,2.5-5.8,5.9-5.8c3.4,0,5.7,2.3,5.7,5.8v18.1c0,3.4,1.9,6.2,5.5,6.2c3.6,0,5.6-2.8,5.6-6.2V70c0-7.6-6.1-12.9-13.4-12.9
		c-7.3,0-11.9,5.1-11.9,5.1c-2.4-3.2-5.8-5.1-11.5-5.1c-6,0-11.3,5.1-11.3,5.1c-2.4-3.2-6.6-5.1-10-5.1c-5.3,0-9.5,2.3-12.1,8.2
		l-7.6,18L49.8,60.3 M222.8,82.2v-3.6c-2.8-0.8-6.5-1.6-11.1-1.6c-7,0-11,3.1-11,7.8v0.1c0,4.7,4.4,7.5,9.4,7.5
		C217.1,92.4,222.8,88.2,222.8,82.2 M195.1,85.1V85c0-7.9,6.5-12.1,16.1-12.1c4.8,0,8.2,0.7,11.6,1.6v-1.3c0-6.8-4.2-10.2-11.2-10.2
		c-3.8,0-6,0.5-8.7,1.7c-0.4,0.1-0.7,0.2-1,0.2c-1.3,0-2.5-1.1-2.5-2.4c0-1.2,0.5-1.9,1.5-2.3c3.7-1.6,6.5-2.1,11.3-2.1
		c5.3,0,9.4,1.4,12.1,4.1c2.5,2.5,3.9,6.2,3.9,11v20.7c0,1.6-1.2,2.8-2.7,2.8c-1.6,0-2.7-1.2-2.7-2.6v-3.6c-2.6,3.4-7,6.5-13.6,6.5
		C202.1,96.8,195.1,92.8,195.1,85.1 M285.2,75.2c-0.6-6.8-4.4-12.7-11.8-12.7c-6.4,0-11.3,5.4-12,12.7H285.2z M274.2,96.8
		c-10.1,0-18.4-7.9-18.4-19.4v-0.2c0-10.7,7.5-19.4,17.7-19.4c10.9,0,17.1,9,17.1,18.9c0,1.5-1.2,2.6-2.6,2.6h-26.7
		c0.8,8.1,6.4,12.6,13,12.6c4.6,0,7.9-1.8,10.6-4.3c0.4-0.4,0.9-0.6,1.6-0.6c1.3,0,2.4,1.1,2.4,2.4c0,0.6-0.3,1.3-0.9,1.8
		C284.7,94.6,280.5,96.8,274.2,96.8 M234.9,60.7c0-1.5,1.2-2.8,2.8-2.8c1.6,0,2.8,1.2,2.8,2.8v6.5c2.8-6.3,8.9-9.2,13-9.2
		c1.7,0,2.8,1.2,2.8,2.8c0,1.5-1,2.6-2.5,2.8c-7.3,0.9-13.3,6.3-13.3,17.2v12.8c0,1.5-1.2,2.8-2.8,2.8c-1.6,0-2.8-1.2-2.8-2.8V60.7
		 M151.6,94l-11.4-31.8c-0.1-0.4-0.4-1-0.4-1.5c0-1.4,1.2-2.7,2.8-2.7c1.5,0,2.4,0.9,2.8,2.3l9.5,27.4l9.5-27.5
		c0.4-1.3,1.3-2.2,2.8-2.2h0.3c1.5,0,2.5,0.9,2.9,2.2l9.5,27.5l9.6-27.6c0.4-1.2,1.2-2.2,2.7-2.2c1.6,0,2.8,1.2,2.8,2.6
		c0,0.5-0.2,1.1-0.4,1.5L183.1,94c-0.6,1.7-1.7,2.5-3.1,2.5h-0.2c-1.5,0-2.6-0.9-3.1-2.5l-9.4-27l-9.5,27c-0.5,1.7-1.6,2.5-3.1,2.5
		h-0.1C153.3,96.5,152.2,95.6,151.6,94"/>
</g>
</svg>
