<?xml version="1.0" encoding="utf-8"?>
<!-- Generator: Adobe Illustrator 19.2.1, SVG Export Plug-In . SVG Version: 6.00 Build 0)  -->
<svg version="1.1" xmlns="http://www.w3.org/2000/svg" xmlns:xlink="http://www.w3.org/1999/xlink" x="0px" y="0px"
	 viewBox="0 0 340 160" style="enable-background:new 0 0 340 160;" xml:space="preserve">
<style type="text/css">
	.st0{display:none;}
	.st1{display:inline;fill:#F2F2F2;}
	.st2{fill:#444444;}
	.st3{fill:#FFFFFF;}
	.st4{fill:#969898;}
	.st5{opacity:0.15;fill:#444444;}
	.st6{fill-rule:evenodd;clip-rule:evenodd;fill:#444444;}
	.st7{fill-rule:evenodd;clip-rule:evenodd;fill:#969898;}
	.st8{fill-rule:evenodd;clip-rule:evenodd;fill:#C9CACB;}
</style>
<g id="Layer_2" class="st0">
	<rect class="st1" width="340" height="160"/>
</g>
<g id="Layer_1">
	<g>
		<polygon id="polygon5_1_" class="st2" points="52.6,40.7 52.6,96 88.1,70.8 107.1,84.3 107.1,40.7 		"/>
		<path class="st2" d="M88.1,81.1l-35.5,25.2v15.9h54.5V94.6L88.1,81.1z M93.4,110.4H82.8V95.7h10.5V110.4z"/>
		<path id="path19_1_" class="st2" d="M121.3,47.4c0-3.9,0.2-5-4.1-5c-0.6,0-2-0.1-2-0.9c0-0.6,0.5-0.8,1.1-0.8c2,0,3.9,0.2,5.9,0.2
			c7.1,0,14.3-0.2,21.5-0.2c1.2,0,1,1.3,1,2.2v4.4c0,0.5,0.3,2.4-0.6,2.4c-0.6,0-0.9-0.9-1-1.3c-1.7-5.9-5.5-6-11-6
			c-1.1,0-4.3,0-5.3,0.4c-0.9,0.4-0.8,2.2-0.8,3v8.9c0,2.9,0.6,2.9,3.1,2.9c1.9,0,5.1,0.1,7.6-0.2c1.6-0.2,1.9-2.5,2.2-4.3
			c0.1-0.4,0.2-1.1,0.8-1.1c0.3,0,0.7,0.1,0.7,0.6c-0.1,1.8-0.2,3.6-0.3,5.4c0.1,2,0.3,3.9,0.3,5.9c0,1-0.4,1.1-0.7,1.1
			c-0.6,0-0.8-0.7-0.8-1.1c-0.3-1.8-0.8-3.7-2.2-4c-2.4-0.6-5.7-0.6-7.6-0.6c-2.5,0-3.1,0-3.1,2.1v11.6c0,4-0.2,5.1,4.1,5.2
			c0.6,0,1.6-0.1,1.6,0.8c0,0.7-0.5,0.8-1.1,0.8c-2.4,0-4.6-0.3-7-0.3c-2.4,0-4.8,0.3-7.1,0.3c-0.6,0-1.1-0.1-1.1-0.8
			c0-0.8,1.3-0.8,1.9-0.8c4.4,0,4.1-1.3,4.1-5.2V47.4L121.3,47.4z"/>
		<path id="path21_2_" class="st2" d="M148.9,63c0-0.8,0.1-3.1-0.6-3.7c-0.3-0.4-1.2-0.5-1.7-0.5h-0.7c-0.3,0-0.7-0.1-0.7-0.5
			c0-0.7,0.8-0.8,1.3-1c1.4-0.4,3.9-1.9,4.8-3c0.3-0.3,0.6-0.7,1-0.7c0.6,0,0.5,0.5,0.5,0.9v2.8c0,0.2-0.1,1.2,0.3,1.2
			c0.6,0,2.8-4.6,6.8-4.6c1.7,0,3.3,1,3.3,2.8c0,1.4-1,2.3-2.4,2.3c-2,0-2.1-2.2-3.7-2.2c-1.3,0-2.3,1.2-2.9,2.1
			c-1.4,2-1.3,3.5-1.3,5.8v9.1c0,2.5-0.5,4.4,2.6,4.7c0.6,0.1,1.6,0,1.6,0.7c0,0.5-0.3,0.6-0.7,0.6c-1.8,0-3.7-0.2-5.4-0.2
			c-1.8,0-3.7,0.2-5.5,0.2c-0.4,0-0.8-0.1-0.8-0.6c0-0.9,1-0.7,1.6-0.8c3.1-0.3,2.6-2.3,2.6-4.7L148.9,63L148.9,63z"/>
		<path id="path23_1_" class="st2" d="M169.3,64.1c-1.8,0-2.4-0.1-2.4,1.8c0,6.5,4.2,12,11.2,12c5.7,0,7.8-3.7,8.5-3.7
			c0.3,0,0.5,0.2,0.5,0.5c0,0.7-1.8,2.2-2.2,2.6c-2.7,2.3-5.5,3.2-9.1,3.2c-7.6,0-13.1-6.1-13.1-13.3c0-3.9,1.1-7,4.1-9.6
			c2.9-2.5,6.5-3.9,10.4-3.9c3.1,0,6.3,1.1,8.3,3.6c1.2,1.4,2,3.9,2,5.8c0,0.5-0.1,1-0.7,1L169.3,64.1L169.3,64.1z M174.1,62.7
			c1.8,0,5-0.1,6.7-0.5c1.3-0.3,2.1-0.9,2.1-2.3c0-1.2-0.7-2.5-1.5-3.4c-1.3-1.3-3.2-1.4-5-1.4c-2.9,0-5.8,1.4-7.5,3.8
			c-0.5,0.6-1.4,2.1-1.4,3c0,0.9,1.3,0.8,2,0.8H174.1L174.1,62.7z"/>
		<path id="path25_2_" class="st2" d="M269.3,64.1c-1.8,0-2.4-0.1-2.4,1.8c0,6.5,4.2,12,11.2,12c5.7,0,7.8-3.7,8.5-3.7
			c0.3,0,0.5,0.2,0.5,0.5c0,0.7-1.8,2.2-2.2,2.6c-2.7,2.3-5.5,3.2-9.1,3.2c-7.6,0-13.1-6.1-13.1-13.3c0-3.9,1.1-7,4.1-9.6
			c2.9-2.5,6.5-3.9,10.4-3.9c3.1,0,6.3,1.1,8.3,3.6c1.2,1.4,2,3.9,2,5.8c0,0.5-0.1,1-0.7,1L269.3,64.1L269.3,64.1z M274,62.7
			c1.8,0,5-0.1,6.7-0.5c1.3-0.3,2.1-0.9,2.1-2.3c0-1.2-0.7-2.5-1.5-3.4c-1.3-1.3-3.2-1.4-5-1.4c-2.9,0-5.8,1.4-7.5,3.8
			c-0.5,0.6-1.4,2.1-1.4,3c0,0.9,1.3,0.8,2,0.8H274L274,62.7z"/>
		<path id="path27_2_" class="st2" d="M258.8,73.9c0,2.5-0.5,4.4,2.6,4.7c0.6,0.1,1.6,0,1.6,0.7c0,0.5-0.3,0.6-0.7,0.6
			c-1.9,0-3.7-0.2-5.4-0.2c-1.8,0-3.7,0.2-5.5,0.2c-0.4,0-0.8-0.1-0.8-0.6c0-0.9,1-0.8,1.6-0.8c3.1-0.3,2.6-2.2,2.6-4.7V63
			c0-0.8,0.1-3.1-0.6-3.7c-0.3-0.4-1.2-0.5-1.7-0.5h-0.7c-0.3,0-0.7-0.1-0.7-0.5c0-0.7,0.8-0.8,1.3-1c1.4-0.4,3.9-1.9,4.8-3
			c0.3-0.3,0.6-0.7,1-0.7c0.6,0,0.5,0.5,0.5,0.9L258.8,73.9L258.8,73.9z M254.3,45.9c0-1.5,1-2.9,2.6-2.9c1.5,0,2.4,1.4,2.4,2.8
			c0,1.6-0.9,2.9-2.5,2.9C255.3,48.7,254.3,47.4,254.3,45.9"/>
		<path id="path35_1_" class="st2" d="M220.2,76.4c-0.5,0-1.2,1.4-2.6,1.4c-1.8,0-2-2.8-2-3.5V40.3c0-0.5,0.1-0.9-0.5-0.9
			c-0.4,0-0.9,0.4-1.2,0.6c-1.4,0.9-3.6,1.5-5.2,1.8c-0.3,0.1-0.8,0.2-0.8,0.6c0,0.7,1,0.6,1.5,0.6c2.8,0,2.2,2.5,2.2,4.7v5.5
			c0,0.3,0.2,2.1-0.5,2.1c-0.3,0-0.8-0.2-1.1-0.3c-1.9-0.7-4-1.3-6.2-1.2c-4.7,0.1-7.3,1.7-9.8,4.1c-2.6,2.5-4,5.6-4,9.3
			c0,6.9,5.1,13.3,12.4,13.3c4.7,0,8-3.9,8.9-3.9c0.6,0,1,1.6,1.2,1.9c0.5,1.5,1.2,1.9,2.6,1.9c1.5,0,2.9-0.9,4.1-1.7
			c0.4-0.3,1.4-1.1,1.4-1.8C220.6,76.6,220.5,76.4,220.2,76.4 M211.1,75.2c-1.6,1.9-4.4,2.7-6.8,2.7c-6.4,0-10-5.9-10-11.7
			c0-5.8,3.8-10.7,10-11.3c1.9-0.2,4.5,0.5,5.9,1.8c1.5,1.4,1.4,3.3,1.4,5.1v10.4C211.7,73.5,211.9,74.3,211.1,75.2"/>
		<path id="path37_1_" class="st2" d="M249.4,76.4c-0.5,0-1.2,1.4-2.6,1.4c-1.8,0-2-2.8-2-3.5V40.3c0-0.5,0.1-0.9-0.5-0.9
			c-0.4,0-0.9,0.4-1.2,0.6c-1.4,0.9-3.6,1.5-5.2,1.8c-0.3,0.1-0.8,0.2-0.8,0.6c0,0.7,1,0.6,1.5,0.6c2.8,0,2.3,2.5,2.3,4.7v5.5
			c0,0.3,0.2,2.1-0.5,2.1c-0.3,0-0.8-0.2-1.1-0.3c-1.9-0.7-4-1.3-6.2-1.2c-4.7,0.1-7.3,1.7-9.8,4.1c-2.6,2.5-4,5.6-4,9.3
			c0,6.9,5.1,13.3,12.4,13.3c4.7,0,8-3.9,8.9-3.9c0.6,0,1,1.6,1.2,1.9c0.5,1.5,1.2,1.9,2.6,1.9c1.5,0,2.9-0.9,4.1-1.7
			c0.4-0.3,1.4-1.1,1.4-1.8C249.8,76.6,249.7,76.4,249.4,76.4 M240.3,75.2c-1.6,1.9-4.4,2.7-6.8,2.7c-6.4,0-10-5.9-10-11.7
			c0-5.8,3.7-10.7,10-11.3c1.9-0.2,4.6,0.5,5.9,1.8c1.5,1.4,1.4,3.3,1.4,5.1v10.4C240.9,73.5,241.1,74.3,240.3,75.2"/>
		<g>
			<path id="path29_1_" class="st2" d="M138.1,114l11.9-27.2c0.3-0.7,0.9-0.7,1.6-0.7h6.4c0.6,0,1.7-0.3,1.7,0.6
				c0,0.8-0.8,0.9-1.4,0.9c-0.7,0-2-0.2-2.5,0.5c-0.7,0.8-0.5,3-0.5,4.1V116c0,0.9-0.1,3.2,0.6,4c0.6,0.7,1.4,0.8,2.2,0.8
				c0.6,0,1.8-0.1,1.8,0.7c0,0.6-0.6,0.7-1.1,0.7c-1.9,0-3.7-0.2-5.5-0.2c-2.3,0-4.6,0.2-6.9,0.2c-0.5,0-1.1-0.1-1.1-0.7
				c0-0.9,1.2-0.7,1.8-0.7c0.9,0,2.1-0.3,2.7-0.8c1-0.8,0.9-2.9,0.9-4V89.9h-0.4l-12.8,30c-0.2,0.4-0.4,1-0.9,1
				c-0.6,0-0.8-0.7-0.9-1.1l-11.4-29.2H124v23.7c0.1,3.6-0.3,6.5,3.8,6.5c0.6,0,1.8-0.1,1.8,0.7c0,0.7-0.8,0.7-1.3,0.7
				c-1.7,0-3.5-0.2-5.2-0.2c-1.7,0-3.5,0.2-5.1,0.2c-0.5,0-0.9-0.1-0.9-0.7c0-0.7,1-0.7,1.5-0.7c3.2,0,3.4-1.5,3.6-4.3V90.9
				c0-3.1,0-3.3-3.1-3.3c-0.6,0-1.4-0.1-1.4-0.9c0-0.9,1-0.6,1.7-0.6h6.7c1.1,0,1.2,0.7,1.5,1.7L138.1,114z"/>
		</g>
		<path id="path31_1_" class="st2" d="M174.3,108c2.1-1,2.1-1,2.1-3.2v-2.5c0-2.8-0.1-4.9-3.7-4.9c-3.5,0-5.3,1.6-6.6,4.5
			c-0.4,0.9-0.7,1.7-1.6,2.1c-0.6,0.3-1.8,0.7-2.5,0.7c-0.5,0-0.7-0.1-0.7-0.7c0-1.5,1.3-3.2,2.4-4.1c2.7-2.4,6.6-4,10.3-4
			c1.8,0,3.9,0.3,5.3,1.5c1.4,1.2,1.1,2.7,1.1,4.2v13.6c0,1.3-0.1,4.6,2,4.6c1.4,0,2.1-1.4,2.6-1.4c0.2,0,0.4,0.2,0.4,0.5
			c0,0.6-1,1.4-1.4,1.8c-1.1,0.8-2.6,1.7-4.1,1.7c-2.8,0-3.1-4-3.9-4c-0.5,0-4.3,4.4-9.3,4.4c-2.7,0-5.4-1.7-5.4-4.6
			c0-4.1,5.4-6.5,8.5-8.1L174.3,108z M170.2,111.2c-2.2,1.1-4.5,2.6-4.5,5.4c0,2.3,1.8,3.3,4,3.3c2,0,4-0.9,5.4-2.3
			c1.4-1.4,1.4-2.3,1.4-4.2v-3.5c0-0.2,0.2-1.6-0.4-1.6c-0.2,0-0.5,0.2-0.6,0.2L170.2,111.2z"/>
		<path id="path33_1_" class="st2" d="M206.4,103.3c-1.8,0-2.9-6.2-7.5-6.2c-2,0-4.3,1-5.8,2.3c-2.7,2.3-4.2,5.8-4.2,9.3
			c0,5.9,4.3,11.9,10.8,11.9c2.5,0,4.8-0.8,6.6-2.5c0.2-0.2,0.6-0.7,0.9-0.7c0.2,0,0.4,0.2,0.4,0.5c0,0.6-1.3,1.7-1.7,2.1
			c-2.4,1.9-5.2,2.8-8.4,2.8c-7.1,0-12.9-5.9-12.9-12.8c0-7.8,7.3-13.9,15-13.9c2.2,0,5.2,0.6,7.1,1.9c0.7,0.5,0.5,1.8,0.5,2.5
			C207.1,100.8,207.4,103.3,206.4,103.3"/>
	</g>
</g>
</svg>
