<svg width="800" height="126.195" xmlns="http://www.w3.org/2000/svg"><path fill="#444" d="m86.448997,28.073999c-6.110001,-2.226999 -11.949997,-3.890999 -17.512001,-5.283998c-5.555996,-1.109001 -10.839996,-1.665001 -15.562996,-1.665001c-6.116001,0 -10.563,1.108999 -13.897999,3.059999c-3.336002,1.941 -5.007,4.444 -5.007,7.504c0,2.220001 0.838997,4.167999 2.780998,5.833c1.948002,1.671001 5.007,3.059002 8.896999,4.729l22.513004,10.839001c8.896996,4.168999 15.568993,8.893002 20.292999,14.453999c4.728996,5.562004 6.948997,12.233002 6.948997,19.737c-0.277,11.950005 -5.000999,21.402 -14.731003,28.352005c-9.451996,6.948997 -22.233997,10.284996 -38.358997,10.562996c-6.116001,0 -12.511,-0.277 -19.460001,-1.109001c-6.671999,-0.561996 -13.620999,-1.946999 -20.847999,-3.612l0,-24.747002c7.227,2.504005 13.898,4.175003 20.292,5.284004c6.395,1.109001 12.229002,1.664001 17.512999,1.664001c6.671001,0 11.678001,-1.108002 15.008003,-3.328003c3.619999,-1.948997 5.284,-4.728996 5.284,-8.344002c0,-1.940994 -0.555,-3.612 -1.948002,-5.000999c-1.388,-1.670998 -3.612999,-3.058998 -6.388,-4.451996l-25.022999,-10.562004c-9.446001,-4.167999 -16.396001,-9.168999 -20.570001,-15.285999c-4.445,-5.839001 -6.672,-12.510998 -6.672,-20.292c0.277,-11.118 5.007,-20.015999 13.898,-26.409999c9.176,-6.665 21.409999,-9.724 36.972999,-10.001c5.562,0 11.672001,0.556 17.789005,1.388c6.394997,0.832 12.232994,1.948 17.788994,3.059l0,23.626999zm62.543007,95.895002l-36.688004,0l0,-121.750002l36.688004,0l0,121.750002zm118.143982,-99.231001l-54.483994,0l0,26.963999l47.250992,0l0,20.286999l-47.250992,0l0,28.358002l55.594009,0l0,23.621002l-90.89502,0l0,-121.749002l89.785004,0l0,22.519001l0,0zm171.226013,99.231001l-34.190002,0l0,-80.331001l-35.57901,81.446999l-21.125,0l-34.189972,-81.446999l0,80.331001l-24.738007,0l0,-121.750002l44.747986,0l30.576996,74.499002l31.964996,-74.499002l42.53302,0l0,121.750002l-0.001007,0zm118.138,-99.231001l-54.207001,0l0,26.963999l47.258026,0l0,20.286999l-47.258026,0l0,28.358002l55.31601,0l0,23.621002l-90.895996,0l0,-121.749002l89.786987,0l0,22.519001zm128.698975,99.231001l-38.914001,0l-43.644958,-78.105003l0,78.105003l-24.737,0l0,-121.750002l40.02301,0l42.533997,76.720003l0,-76.720003l24.737976,0l0.000977,121.750002l0,0zm105.348999,-95.895002c-6.117004,-2.226999 -11.950012,-3.890999 -17.512024,-5.283998c-5.555969,-1.109001 -10.839966,-1.665001 -15.562988,-1.665001c-6.115967,0 -10.841003,1.108999 -14.175964,3.059999c-3.335999,1.941 -5.007019,4.444 -5.007019,7.504c0,2.220001 0.832031,4.167999 2.502991,5.833c1.665039,1.671001 4.723999,3.059002 9.453003,4.729l22.513,10.84c8.897034,4.168999 15.569031,8.893002 20.291992,14.730999c4.725037,5.562004 6.949036,12.511002 6.949036,20.57c-0.277039,11.395004 -5.001038,20.568001 -14.730042,27.240005c-9.451965,6.948997 -22.518982,10.284996 -38.638,10.562996c-5.838989,0 -12.231995,-0.277 -19.182983,-1.109001c-6.671021,-0.561996 -13.619995,-1.946999 -20.848999,-3.612l0,-24.746002c7.229004,2.504005 13.89801,4.175003 20.292969,5.284004c6.395996,1.109001 12.229004,1.664001 17.513,1.664001c6.671997,0 11.395996,-1.108002 15.009033,-3.052002c3.335999,-1.947998 5.007019,-4.452003 5.007019,-7.511002c0,-2.220001 -0.562012,-4.445 -1.947998,-6.110001c-1.388,-1.670998 -3.612,-3.335999 -6.39502,-4.451996l-24.738037,-10.562004c-9.452942,-4.167999 -16.125,-8.891998 -20.56897,-14.73c-4.169983,-5.556999 -6.395996,-12.506001 -6.395996,-20.848c0.28302,-11.118 4.729004,-20.015999 13.620972,-26.409999c9.175049,-6.665 21.408081,-9.724 36.972046,-10.001c5.283997,0 11.117981,0.556 17.234009,1.388c6.117004,0.832 12.227966,1.948 18.344971,3.059l0,23.626999l0,0z"/></svg>
