<?xml version="1.0" encoding="utf-8"?>
<!-- Generator: Adobe Illustrator 19.2.1, SVG Export Plug-In . SVG Version: 6.00 Build 0)  -->
<svg version="1.1" xmlns="http://www.w3.org/2000/svg" xmlns:xlink="http://www.w3.org/1999/xlink" x="0px" y="0px"
	 viewBox="0 0 340 160" style="enable-background:new 0 0 340 160;" xml:space="preserve">
<style type="text/css">
	.st0{display:none;}
	.st1{display:inline;fill:#F2F2F2;}
	.st2{fill:#444444;}
	.st3{fill:#FFFFFF;}
	.st4{fill:#969898;}
	.st5{opacity:0.15;fill:#444444;}
	.st6{fill-rule:evenodd;clip-rule:evenodd;fill:#444444;}
	.st7{fill-rule:evenodd;clip-rule:evenodd;fill:#969898;}
</style>
<g id="Layer_2" class="st0">
	<rect class="st1" width="340" height="160"/>
</g>
<g id="Layer_1">
	<g>
		<path class="st2" d="M55.1,71l-2.6-7.9c-1.5-4.5-2.8-8.5-3-9.1c-0.2-0.6-0.4-0.9-0.5-0.9s-0.4,1.1-0.8,2.2c-0.3,1.1-1.7,5.2-2.9,9
			l-2.3,6.9l-9.8,0.1l-9.8,0.1l4.7,3.4c2.6,1.9,6.2,4.4,7.9,5.7c1.7,1.3,3.2,2.4,3.1,2.4c0,0.2-2.4,7.4-4.1,12.6
			c-0.9,2.7-1.7,5.2-1.7,5.4l-0.1,0.4l0.6-0.4c0.3-0.2,1.4-1,2.5-1.8c5.2-3.8,12.5-9.1,12.7-9.1c0.2,0,4.5,3.1,7.9,5.5
			c2,1.5,7,5.1,7.4,5.4l0.5,0.3l-0.2-0.5c-0.3-1.1-5.7-17.6-5.8-17.8c-0.1-0.2,2.2-1.9,10.9-8.2c2.3-1.7,4.4-3.7,4.2-3.7
			c-0.2,0-0.9-0.3-9.2-0.3H55.1z"/>
		<path class="st2" d="M145.7,56c-1.6-1.1-2.3-1.4-4.2-2c-2.4-0.8-3.4-0.9-5.8-0.9c-2.5,0-3.8,0.2-6.3,1.1c-3.5,1.2-6.5,3.7-8.8,7.2
			c-0.5,0.8-1.1,1.8-1.3,2.2l-0.3,0.7l-0.7-1.4c-1.5-2.7-3.1-4.7-5.3-6.3c-3.5-2.6-8.3-3.9-12.6-3.5c-2,0.2-4.7,1-6.1,1.6
			c-2.5,1.3-5.5,3.7-6.8,5.8l-0.7,1l0-3.8l0-3.8h-1.5h-1.2L84,77.7v23.5l1.4,0l1.3,0l0.1-16.7l0.1-16.7l0.6-1.7
			c0.7-2,1.3-3.1,2.6-4.8c1.2-1.5,2.1-2.3,4-3.5c2.7-1.8,5.4-2.4,8.8-2.3c2.5,0.1,3.9,0.5,6,1.5c3.2,1.5,5.6,3.9,7.2,7.1
			c1.7,3.6,1.6,2,1.7,20.7l0,16.2h1.2h1.3l0-16.5l0-16.5l0.4-1.1c1.4-4.5,4.3-7.9,8.3-9.9c2.4-1.2,4.6-1.6,7.6-1.5
			c2.3,0.1,3.5,0.4,5.4,1.3c4.6,2.1,7.6,5.9,8.7,10.6l0.3,1.8v16v16l1.5,0.1l1.5,0.1V86c0-16.8-0.1-17.5-1-20.4
			C151.6,61.5,149.2,58.3,145.7,56z"/>
		<path class="st2" d="M293,45l1,0.7l-0.6,1.7c-0.3,0.9-0.6,1.7-0.6,1.7c0,0,0.6-0.3,1.3-0.8c0.7-0.5,1.4-1,1.5-1
			c0.2-0.1,0.6,0.1,1.7,0.9c0.8,0.6,1.5,1,1.5,1s-0.3-0.8-0.6-1.8l-0.6-1.7l0.8-0.5c0.4-0.3,1.1-0.8,1.4-1l0.6-0.5l-1.8-0.1
			l-1.8-0.1l-0.6-1.7c-0.3-1-0.6-1.6-0.7-1.5c0,0.1-0.3,0.9-0.5,1.7l-0.4,1.5l-1.9,0l-1.9,0l0.5,0.4C291.7,44.1,292.4,44.6,293,45z"
			/>
		<path class="st2" d="M249.6,86l-0.5,1.2c-1.2,2.3-4.1,5.7-6.6,7.4c-1.5,1-4.1,2.4-6,3c-3.9,1.3-8.9,1.3-12.9,0
			c-1.7-0.6-5-2.2-6.2-3.2c-1.6-1.2-3.8-3.5-4.9-5c-1.7-2.4-3.1-6-3.6-8.7c-0.3-1.8-0.3-5.4,0-7.2c0.5-3,2.2-6.9,3.9-9.2
			c3.3-4.4,8.4-7.5,13.7-8.5c1.9-0.3,5.5-0.3,7.4,0c4.3,0.7,9,3.3,11.9,6.3c1.4,1.5,2.7,3.3,3.4,4.6l0.5,1.1l1.3-0.1
			c0.7,0,1.4-0.1,1.4-0.2c0.1-0.1-1.2-2.6-2.2-4.2c-0.4-0.6-1.6-2-2.6-3.1c-3.6-3.7-7.8-5.9-13.2-7c-2.3-0.4-6.4-0.4-8.7,0.1
			c-5.3,1.1-9.2,3.2-12.8,6.9c-0.9,1-2.1,2.4-2.6,3.1c-3,4.6-4.1,8.4-4.1,13.7c0,2.4,0.1,3.1,0.4,5c1,4.8,3,8.5,6.6,12.1
			c4,4,8.8,6.3,14.5,6.9c2.7,0.3,5.1,0.2,8.1-0.5c4.2-0.9,8.2-3.1,11.6-6.5c2-2.1,3.1-3.7,4.5-6.3l0.9-1.8h-1.5H249.6z"/>
		<path class="st2" d="M314.8,81.5c-2.2-3.3-5.6-5.6-12-8c-4.9-1.9-6.9-3.4-7.9-6.1c-0.5-1.3-0.6-4.2-0.2-5.6c1.3-4.5,5.2-7,9.8-6.5
			c2.1,0.2,3.6,1,5.3,2.7c1.5,1.5,2.4,3.1,2.7,4.8l0.2,1.2h1.2h1.2l-0.1-1.1c-0.3-2.5-1.3-4.6-3.2-6.5c-2.4-2.4-5.1-3.5-8.5-3.5
			c-2,0-3.1,0.3-5.1,1.2c-3.7,1.8-6.1,5.8-6,10c0,1.8,0.4,3.6,1.1,5c1.4,2.9,4.1,4.8,9.9,7c5.4,2,8.9,4.6,10.3,7.5
			c0.8,1.7,1.1,3,1,4.9c-0.3,4.3-2.8,7.9-6.8,9.8c-1.3,0.6-3.3,1.1-4.6,1.1c-3.1,0-6.3-1.6-8.7-4.2c-1.7-1.8-3.1-5.4-3.5-8.7
			l-0.1-0.8l-1.1,0l-1.1,0l0.1,1.2c0.1,3,1.5,6.6,3.7,9.4c0.7,1,2.8,2.7,4,3.4c1.1,0.7,3,1.3,4.5,1.6c2.2,0.4,4.2,0.3,6.6-0.4
			c1.6-0.5,2.3-0.8,3.7-1.8c1.6-1.2,2.5-2.1,3.4-3.4c1.8-2.6,2.5-4.8,2.5-7.9C316.5,85.2,316,83.4,314.8,81.5z"/>
		<path class="st2" d="M201.8,54l0,5.9c0,3.8,0,5.8-0.1,5.8c-0.1,0-0.5-0.6-0.9-1.3c-2.5-4.4-7.8-8.7-12.7-10.2
			c-5.6-1.8-10.2-1.8-15.8,0c-6.9,2.2-13,8.4-15.1,15.4c-0.9,3-1.1,4.2-1.1,7.5c0,3.2,0.2,4.2,1,7.2c1.5,5.3,5.4,10.4,10.3,13.3
			c3.4,2.1,6.4,3.1,10.4,3.5c1.9,0.2,2.8,0.2,4.7,0c3.4-0.3,6.5-1.3,8.9-2.6c4.3-2.4,7.6-5.5,9.7-9.3l0.6-1l0,6.4l0,6.4h1.3h1.8
			V77.7V54h-1.8H201.8z M200.2,85.3c-0.8,2-1.7,3.5-3.3,5.4c-3.2,3.9-7.9,6.7-13,7.6c-1.7,0.3-5.6,0.3-7.4,0
			c-2.8-0.5-6.8-2.2-8.9-3.8c-3.6-2.7-6-5.9-7.6-10c-1.7-4.2-1.8-9.5-0.3-14c0.5-1.6,2-4.6,3-6c1.1-1.5,3.1-3.6,4.6-4.7
			c2.5-1.9,6.3-3.6,9.4-4.1c1.7-0.3,5.1-0.3,6.8-0.1c3,0.4,7.2,2.2,9.6,4c3.2,2.4,5.7,5.6,7.1,9.1C202.4,74.4,202.4,79.7,200.2,85.3
			z"/>
		<path class="st2" d="M291,54.3c0.1-0.2-0.2-0.2-1.4-0.2c-1.5,0.1-1.5,0.1-1.7,0.5c-0.1,0.2-0.8,2.1-1.6,4c-0.8,2-1.9,4.6-2.4,5.7
			c-1.2,3.1-3.9,9.7-5.2,12.8c-0.6,1.5-1.5,3.6-2,4.8c-1.4,3.4-4.5,11.1-5.3,13.1c-0.4,1-0.8,1.8-0.8,1.8c-0.1,0-2.3-5.3-3.1-7.3
			c-0.2-0.6-1-2.5-1.7-4.2c-0.7-1.7-1.5-3.6-1.7-4.3c-0.2-0.7-0.9-2.3-1.5-3.8c-0.6-1.4-1.5-3.7-2.1-5.1c-0.5-1.4-2.1-5.3-3.5-8.7
			c-1.4-3.4-2.8-7-3.1-7.8l-0.6-1.6l-1.4-0.1c-0.9-0.1-1.4,0-1.4,0.1c0,0.1,0.7,1.6,1.4,3.3c0.7,1.7,1.9,4.7,2.7,6.6
			c0.8,1.9,1.7,4.3,2.1,5.3c0.8,2.1,2.7,6.8,5,12.6c0.9,2.1,1.8,4.5,2.1,5.3c0.6,1.6,2.7,6.7,4.3,10.8l1,2.5l-0.3,0.7
			c-0.5,1.2-2.3,5.7-3.7,9.2c-0.8,1.8-1.7,4.1-2.1,5.1c-0.4,1-0.7,1.9-0.8,2.1c-0.1,0.3,0,0.3,1.3,0.3h1.4l1-2.4
			c0.6-1.3,1.3-3.1,1.6-3.9c0.3-0.8,1.2-3.1,2.1-5.1c0.8-2,1.6-3.8,1.6-4c0.1-0.2,0.8-2.1,1.7-4.1c0.9-2,1.6-3.9,1.7-4.1
			c0.1-0.2,0.9-2.2,1.7-4.3c0.9-2.1,1.9-4.6,2.2-5.4c0.6-1.4,1.4-3.5,5-12.1c0.9-2.2,2.1-5.1,2.6-6.5c1.5-3.8,2.8-6.9,3.8-9.3
			C290.5,55.5,290.9,54.4,291,54.3z"/>
	</g>
</g>
</svg>
