<?xml version="1.0" encoding="utf-8"?>
<!-- Generator: Adobe Illustrator 19.2.1, SVG Export Plug-In . SVG Version: 6.00 Build 0)  -->
<svg version="1.1" xmlns="http://www.w3.org/2000/svg" xmlns:xlink="http://www.w3.org/1999/xlink" x="0px" y="0px"
	 viewBox="0 0 340 160" style="enable-background:new 0 0 340 160;" xml:space="preserve">
<style type="text/css">
	.st0{display:none;}
	.st1{display:inline;fill:#F2F2F2;}
	.st2{fill:#444444;}
	.st3{fill:#FFFFFF;}
	.st4{fill:#969898;}
	.st5{opacity:0.15;fill:#444444;}
	.st6{fill-rule:evenodd;clip-rule:evenodd;fill:#444444;}
	.st7{fill-rule:evenodd;clip-rule:evenodd;fill:#969898;}
</style>
<g id="Layer_2" class="st0">
	<rect x="0.5" class="st1" width="340" height="160"/>
</g>
<g id="Layer_1">
	<g>
		<g>
			<path class="st2" d="M26.6,60.6c-1.3,0-2.4,1.1-2.4,2.4c0,1.3,1,2.3,2.4,2.3c1.3,0,2.3-1,2.3-2.3C29,61.7,27.9,60.6,26.6,60.6z"
				/>
			<path class="st2" d="M160.3,69.1c-7.2,0-10.9,5.3-10.9,11.9c0,6.7,3.1,11.9,10.9,11.9c7.2,0,10.9-5.3,10.9-11.9
				C171.1,74.3,168,69.1,160.3,69.1z M160.3,89.8c-4.6,0-7.1-3.5-7.1-8.8c0-5.4,2.5-8.8,7.1-8.8c4.6,0,7.1,3.5,7.1,8.8
				C167.4,86.3,164.8,89.8,160.3,89.8z"/>
			<path class="st2" d="M9.3,69.1c-3.2,0-6.3,1-9.3,3.3V104h4V92.4c1,0.3,2.2,0.5,3.5,0.5c8.1,0,13.1-4.6,13.1-12.7
				C20.6,73.3,16.1,69.1,9.3,69.1z M7.7,89.8c-1.6,0-2.7-0.2-3.7-0.6V74H3.6c1.5-1,3.3-1.6,5.4-1.6c4.9,0,7.8,3.2,7.8,8
				C16.8,86.5,13.6,89.8,7.7,89.8z"/>
			<rect x="25" y="70" class="st2" width="3" height="22"/>
			<path class="st2" d="M225.8,79.6c0-6.4-3.3-10.4-9.6-10.4c-7.1,0-10.6,5.2-10.6,11.9c0,7.6,3.9,11.9,11.6,11.9
				c3.1,0,5.8-0.5,7.8-1.6v-3c-2,0.9-4.5,1.6-7.3,1.6c-5.5,0-8.3-2.9-8.5-7.9h16.4C225.7,81,225.8,80.1,225.8,79.6z M209.3,79
				c0.4-4,2.6-6.7,6.6-6.7c4.1,0,6.1,1.7,6.3,6.7H209.3z"/>
			<path class="st2" d="M40,86.5V73h6v-3h-6v-6h-4v6h-4v3h4v14.1c0,4.1,2,5.8,5.3,5.8c1.9,0,3.7-0.3,4.7-0.8v-2.9
				c-1,0.4-2,0.6-3.6,0.6C40.8,89.8,40,89.4,40,86.5z"/>
			<path class="st2" d="M134.8,69.1c-2,0-3.8,0.4-5.8,1.2V59h-3v33h-0.4c2.2,0,4.6,1.1,7.2,1.1c8.3,0,13.2-4.7,13.2-12.8
				C146,73.3,141.7,69.1,134.8,69.1z M133,89.8c-1.6,0-3-0.2-4-0.6V73.4c2-0.8,3.3-1.2,5.5-1.2c4.9,0,7.7,3.3,7.7,8.1
				C142.2,86.4,138.9,89.8,133,89.8z"/>
			<polygon class="st2" points="195.6,87.9 190.3,70 186.4,70 181.2,88.1 176.5,70 172.7,70 179.2,92 182.9,92 188.4,73.9 193.6,92 
				197.3,92 203.9,70 200.4,70 			"/>
			<g>
				<path class="st2" d="M92,88v0.2c0.1-0.1,0.3-0.1,0.4-0.2H92z"/>
				<path class="st2" d="M93,79.6c0-6.4-3.3-10.5-9.6-10.5c-7.1,0-10.6,5.2-10.6,12c0,7.6,3.8,11.9,11.5,11.9c3.1,0,6.6-0.5,7.6-1.6
					v-3.1c-1.8,0.9-4.4,1.5-7,1.5c-5.5,0-8.4-2.7-8.6-7.7h16.4C92.9,81,93,80.1,93,79.6z M76.6,79c0.4-4,2.6-6.7,6.6-6.7
					c4.1,0,6.1,1.7,6.3,6.7H76.6z"/>
			</g>
			<polygon class="st2" points="105.8,88.6 99,70 95,70 104.1,92.6 99.7,104 103.3,104 107.6,92.6 116.7,70 112.8,70 			"/>
			<path class="st2" d="M60.2,69.1c-3.4,0-7.2,0.8-10.2,1.9v21h3V73.3c2-0.6,3.8-1,5.8-1c4.2,0,6.2,1.4,6.2,6.4V92h4v0.4V77.5
				C69,71,65.2,69.1,60.2,69.1z"/>
			<path class="st2" d="M229.4,91.3c1.4,1,3.9,1.7,6.4,1.7c5.3,0,8.5-2.7,8.5-7.2c0-3.5-1.8-5.3-6.8-6.9c-3.3-1.1-4.7-2.1-4.7-3.7
				c0-2.1,1.7-3.1,4.3-3.1c2.3,0,4.5,0.6,6.4,1.8v-3.1c-1.3-1-4-1.7-6.3-1.7c-4.9,0-7.9,2.3-7.9,6.2c0,3,1.7,5.1,5.9,6.5
				c4,1.3,5.5,2.1,5.5,4.3c0,2.4-1.9,3.8-5,3.8c-2.5,0-5-0.7-6.4-1.7C229.4,88.1,229.4,91.3,229.4,91.3z"/>
		</g>
		<g>
			<path class="st2" d="M287,89.8c-1.9-2.6-2.9-5.6-2.9-8.8c0-3.2,1-6.3,2.9-8.8c0.5-0.7,0.3-1.6-0.5-2.2c-0.8-0.6-1.7-0.6-2.3,0.1
				c-2.4,3.2-3.6,7-3.6,10.9c0,4,1.3,7.8,3.6,10.9c0.6,0.7,1.4,0.7,2.3,0.1C287.3,91.4,287.5,90.5,287,89.8z"/>
			<path class="st2" d="M286.7,99.2c-6.1-4.1-9.8-10.9-9.8-18.2c0-7.3,3.7-14.2,9.8-18.2c0.6-0.4,0.7-1.1,0.2-1.9
				c-0.5-0.7-1.2-1-1.8-0.5c-6.9,4.6-11.1,12.3-11.1,20.6c0,8.3,4.1,16,11.1,20.6c0.6,0.4,1.3,0.2,1.8-0.5
				C287.4,100.4,287.4,99.7,286.7,99.2z"/>
			<path class="st2" d="M286.8,106.7c-9.6-4.5-16.3-14.3-16.3-25.6c0-11.3,6.6-21.1,16.2-25.6c0.5-0.2,0.7-0.8,0.4-1.4
				c-0.3-0.6-0.8-0.8-1.3-0.6c-10.4,4.9-17.5,15.4-17.5,27.6c0,12.2,7.2,22.8,17.6,27.7c0.5,0.3,1,0,1.3-0.6
				C287.4,107.4,287.3,106.9,286.8,106.7L286.8,106.7z"/>
			<path class="st2" d="M298.8,45.1c-0.6,0-1.1,0-1.6,0c-0.4,0-0.6,0.3-0.6,0.7l0,0c0,0.4,0.2,0.7,0.6,0.7c0.5,0,1.1,0,1.6,0
				c19.1,0,34.5,15.4,34.5,34.5c0,19.1-15.5,34.5-34.5,34.5c-19.1,0-34.5-15.4-34.5-34.5c0-14.9,9.4-27.5,22.6-32.4
				c0.3-0.1,0.5-0.5,0.3-0.8c-0.1-0.4-0.4-0.6-0.8-0.4C272.7,52.4,263,65.6,263,81c0,19.8,16.1,35.9,35.9,35.9
				c19.8,0,35.9-16.1,35.9-35.9C334.7,61.2,318.7,45.1,298.8,45.1z"/>
			<path class="st2" d="M297.8,59.1c0.3,0,0.7,0,1,0c12.1,0,21.9,9.8,21.9,21.9c0,12.1-9.8,21.9-21.9,21.9c-0.3,0-0.7,0-1,0
				c-0.8,0-1.2,0.6-1.2,1.4c0,0.9,0.4,1.4,1.2,1.4c0.3,0,0.7,0,1,0c13.7,0,24.8-11.1,24.8-24.8c0-13.7-11.1-24.8-24.8-24.8
				c-0.3,0-0.7,0-1,0c-0.8,0-1.2,0.6-1.2,1.4C296.6,58.6,297.1,59.1,297.8,59.1z"/>
			<path class="st2" d="M298.8,52.7c15.7,0,28.4,12.7,28.4,28.3c0,15.6-12.7,28.3-28.4,28.3c-0.4,0-0.9,0-1.3,0
				c-0.6,0-0.9,0.4-0.9,1.1c0,0.7,0.3,1.1,0.9,1.1c0.4,0,0.9,0,1.3,0c16.9,0,30.6-13.7,30.6-30.6c0-16.9-13.7-30.6-30.6-30.6
				c-0.4,0-0.9,0-1.3,0c-0.6,0-0.9,0.4-0.9,1.1c0,0.7,0.4,1.1,0.9,1.1C298,52.7,298.4,52.7,298.8,52.7z"/>
			<path class="st2" d="M298.8,39.9c-22.7,0-41.2,18.4-41.2,41.1c0,22.7,18.4,41.1,41.2,41.1c22.7,0,41.2-18.4,41.2-41.1
				C340,58.3,321.6,39.9,298.8,39.9z M298.8,121.2c-22.2,0-40.2-18-40.2-40.2c0-22.2,18-40.2,40.2-40.2c22.2,0,40.2,18,40.2,40.2
				C339,103.2,321,121.2,298.8,121.2z"/>
			<path class="st2" d="M292.4,67.9c1.5-0.4,2.9-1.3,6.6-1.3c7.6,0,14.2,6.2,14.2,14.4c0,8.1-6.6,14.4-14.4,14.4c-0.1,0-0.3,0-0.4,0
				c-1.1,0-1.8,0.8-1.8,2.1c0,1.3,0.7,2.2,1.8,2.2l0.4,0c10.3,0,18.7-8.4,18.7-18.7c0-10.3-8.4-18.7-18.8-18.7
				c-1.6,0-2.8,0.2-4.8,0.6V47.3c0-1.2-0.7-1.8-2-1.8c-1.3,0-2,0.7-2,1.8V66C290,67.2,290.9,68.3,292.4,67.9z"/>
			<path class="st2" d="M290,109c0,1.3,0.7,1.9,2,1.9c1.2,0,2-0.6,2-1.9V75.5c1-1.1,3-1.6,4.8-1.6c3.9,0,7.1,3.2,7.1,7.1
				c0,3.9-3.2,7.1-7.1,7.1c-0.1,0-0.4,0-0.4,0c-1.1,0-1.8,0.8-1.8,2.1c0,1.3,0.7,2.1,1.8,2.1c0.1,0,0.3,0,0.4,0
				c3.1,0,5.9-1.2,8.1-3.3c2.2-2.2,3.3-5,3.3-8.1c0-3-1.2-5.9-3.3-8.1c-2.1-2.2-5-3.3-8.1-3.3c-4.1,0-8.7,2.1-8.9,4.1
				c0,0.3,0.1,2,0.1,2V109z"/>
		</g>
	</g>
</g>
</svg>
