<?xml version="1.0" encoding="utf-8"?>
<!-- Generator: Adobe Illustrator 19.2.1, SVG Export Plug-In . SVG Version: 6.00 Build 0)  -->
<svg version="1.1" xmlns="http://www.w3.org/2000/svg" xmlns:xlink="http://www.w3.org/1999/xlink" x="0px" y="0px"
	 viewBox="0 0 340 160" style="enable-background:new 0 0 340 160;" xml:space="preserve">
<style type="text/css">
	.st0{display:none;}
	.st1{display:inline;fill:#F2F2F2;}
	.st2{fill:#444444;}
	.st3{fill:#FFFFFF;}
	.st4{fill:#969898;}
	.st5{opacity:0.15;fill:#444444;}
	.st6{fill-rule:evenodd;clip-rule:evenodd;fill:#444444;}
	.st7{fill-rule:evenodd;clip-rule:evenodd;fill:#969898;}
	.st8{fill-rule:evenodd;clip-rule:evenodd;fill:#C9CACB;}
</style>
<g id="Layer_2" class="st0">
	<rect class="st1" width="340" height="160"/>
</g>
<g id="Layer_1">
	<g>
		<polygon class="st2" points="92.1,50.2 88.6,50.2 88.6,47.8 97,47.8 97,50.2 111.8,66.4 111.8,50.2 108.1,50.2 108.1,47.8 
			118.4,47.8 118.4,50.2 114.8,50.2 114.8,74 112,74 95,55.7 95,71.6 98.7,71.6 98.7,74 88.6,74 88.6,71.6 92.1,71.6 92.1,50.2 		
			"/>
		<path class="st2" d="M119,64.7c0,4.1,2.7,9.9,10.5,9.9c7.3,0,10.5-5.2,10.5-9.9c0-4.9-3.5-9.9-10.4-9.9
			C122,54.8,119,60.3,119,64.7L119,64.7L119,64.7z M124.7,64.6c0-4.4,1.5-7.8,4.9-7.8c3.2,0,4.9,3,4.9,8.1c0,4.8-1.9,7.7-4.9,7.7
			C126.5,72.5,124.7,69.6,124.7,64.6L124.7,64.6z"/>
		<path class="st2" d="M144.8,57.3h-3.3v-2h8.3v3.2h0.1c0.8-1.2,1.5-2.1,2.3-2.7c0.7-0.6,1.5-1,2.3-1c0.9,0,2.2,0.8,3,1.9
			c-0.2,1.7-0.9,3.8-1.8,5.3c-1-1.9-1.9-2.7-3.1-2.7c-1.1,0-1.6,0.6-2.7,1.8V72h3.2v2h-11.6v-2h3.3V57.3L144.8,57.3z"/>
		<path class="st2" d="M158.7,57.8l7.8-7.5v5.1h5.3v2.5h-5.3v10.7c0,2.4,0.8,4.1,2.5,4.1c1.5,0,2.4-1.4,3.1-1.4
			c0.3,0,0.6,0.2,0.6,0.5c0,0.9-1.7,2.9-5.6,2.9c-3.9,0-5.7-2-5.7-6.3V57.8H158.7L158.7,57.8z"/>
		<path class="st2" d="M182.7,57.5c2.3-1.7,4.7-2.8,6.7-2.8c3,0,5.2,2.3,5.2,5.5V72h3.3v2h-11v-2h2.7V61.3c0-2.2-1-3.4-2.8-3.4
			c-1,0-2.4,0.6-3.9,1.5V72h2.7v2h-11.1v-2h3.3V47.2h-3.3v-2h8.4V57.5L182.7,57.5z"/>
		<polygon class="st2" points="196.5,57.3 196.5,55.3 206.8,55.3 206.8,57.3 204.3,57.3 208.5,66.7 211.9,57.3 209.3,57.3 
			209.3,55.3 218.9,55.3 218.9,57.3 216.5,57.3 220.7,66.7 224.2,57.3 221.3,57.3 221.3,55.3 229,55.3 229,57.3 226.4,57.3 
			219.9,74.4 218.9,74.4 212.7,61.1 207.7,74.4 206.8,74.4 198.9,57.3 196.5,57.3 		"/>
		<path class="st2" d="M246.7,63.5c-0.6-5.3-3.9-8.7-8.6-8.7c-5.1,0-8.6,3.9-8.6,9.5c0,4.4,2.3,10.3,10.1,10.3
			c2.7,0,4.6-0.5,7.1-1.9l0.3-2.5c-1.4,1.1-4,1.9-5.9,1.9c-3.7,0-6.2-3.5-6.2-8.6H246.7L246.7,63.5L246.7,63.5z M235,61.4
			c0-2.3,1-4.6,3.1-4.6c1.8,0,3.1,1.7,3.5,4.6H235L235,61.4z"/>
		<path class="st2" d="M250,68.5h1.3c0.8,2.6,2.5,4,4.6,4c1.4,0,2.6-0.7,2.6-2.2c0-3-8.7-3.9-8.7-9.8c0-3.3,2.8-5.8,6.4-5.8
			c1.3,0,2.4,0.3,3.6,1.1l0.3-1h1.4v5h-1.4c-0.8-2.2-1.7-3.1-3.4-3.1c-1.6,0-2.6,0.7-2.6,1.8c0,3.8,8.9,3.8,8.9,10.1
			c0,3.5-2.8,5.8-6.7,5.8c-1.6,0-3.2-0.3-4.6-1.1l-0.2,0.9H250V68.5L250,68.5z"/>
		<path class="st2" d="M264.4,57.8l7.8-7.5v5.1h5.3v2.5h-5.3v10.7c0,2.4,0.8,4.1,2.5,4.1c1.5,0,2.4-1.4,3.1-1.4
			c0.3,0,0.6,0.2,0.6,0.5c0,0.9-1.7,2.9-5.6,2.9c-3.9,0-5.7-2-5.7-6.3V57.8H264.4L264.4,57.8z"/>
		<path class="st2" d="M296.3,63.5c-0.6-5.3-3.9-8.7-8.5-8.7c-5.1,0-8.6,3.9-8.6,9.5c0,4.4,2.3,10.3,10.1,10.3
			c2.7,0,4.6-0.5,7.1-1.9l0.4-2.5c-1.5,1.1-4,1.9-6,1.9c-3.7,0-6.2-3.5-6.2-8.6H296.3L296.3,63.5L296.3,63.5z M284.5,61.4
			c0-2.3,1-4.6,3.1-4.6c1.8,0,3.1,1.7,3.5,4.6H284.5L284.5,61.4z"/>
		<path class="st2" d="M301.8,57.3h-3.3v-2h8.3v3.2h0.1c0.8-1.2,1.5-2.1,2.3-2.7c0.7-0.6,1.5-1,2.3-1c0.9,0,2.2,0.8,3,1.9
			c-0.2,1.7-0.9,3.8-1.8,5.3c-1-1.9-1.9-2.7-3.2-2.7c-1,0-1.6,0.6-2.7,1.8V72h3.2v2h-11.6v-2h3.3V57.3L301.8,57.3z"/>
		<path class="st2" d="M319.8,57.3h-3.3v-2h8.3v2.3c2.5-1.7,4.3-2.8,6.6-2.8c3.3,0,5.2,2.2,5.2,5.8V72h3.3v2h-11v-2h2.7V60.8
			c0-1.9-1.3-2.9-2.7-2.9c-1.2,0-2.4,0.4-4.1,1.5V72h2.6v2h-10.9v-2h3.3V57.3L319.8,57.3z"/>
		<polygon class="st2" points="92,90.1 88.4,90.1 88.4,87.7 98,87.7 98,90.1 105.5,105.6 112.9,90.1 112.9,87.7 122.7,87.7 
			122.7,90.1 119.2,90.1 119.2,111.5 122.7,111.5 122.7,113.9 110.2,113.9 110.2,111.5 113.9,111.5 113.9,94.9 113.8,94.9 
			104.8,113.9 103.8,113.9 95.1,95.7 95,95.7 95,111.5 98.5,111.5 98.5,113.9 88.4,113.9 88.4,111.5 92,111.5 92,90.1 		"/>
		<path class="st2" d="M146.5,111.9v2h-8.3v-1.8c-2.5,1.7-4.7,2.3-6.4,2.3c-4.1,0-5.3-2.5-5.3-5.3v-12h-3.3v-2h8.3v13.6
			c0,1.7,0.9,3,2.5,3c1.1,0,2.3-0.5,4.2-1.6v-13h-3.2v-2h8.3v16.7H146.5L146.5,111.9z"/>
		<path class="st2" d="M146.9,97.7l7.9-7.5v5.1h5.2v2.5h-5.2v10.7c0,2.4,0.8,4.1,2.5,4.1c1.5,0,2.4-1.4,3.1-1.4
			c0.3,0,0.6,0.2,0.6,0.5c0,0.9-1.7,2.9-5.6,2.9c-3.9,0-5.7-2-5.7-6.3V97.7H146.9L146.9,97.7z"/>
		<path class="st2" d="M185.1,111.9v2h-8.3v-1.8c-2.5,1.7-4.6,2.3-6.4,2.3c-4.1,0-5.4-2.5-5.4-5.3v-12h-3.3v-2h8.3v13.6
			c0,1.7,0.9,3,2.5,3c1.1,0,2.3-0.5,4.2-1.6v-13h-3.2v-2h8.3v16.7H185.1L185.1,111.9z"/>
		<path class="st2" d="M204.5,111.3c-0.5,0.3-0.9,0.4-1.4,0.4c-1.1,0-2.2-0.9-2.2-2.4v-8.3c0-3.6-2.7-6.2-6.3-6.2
			c-2.5,0-5.4,1.2-7.5,3.2l0.3,1.5c2.2-1.4,3.8-1.9,5.2-1.9c2.1,0,3.2,1.3,3.2,3.7v2.2l-4.5,1.1c-3.4,0.9-4.9,2.3-4.9,4.8
			c0,2.9,1.8,5.1,4.4,5.1c1.7,0,3.3-0.7,5.4-2.3c0.6,1.4,2.1,2.3,3.8,2.3c1.5,0,3-0.4,4.4-1.3V111.3L204.5,111.3L204.5,111.3z
			 M195.8,105.6v4.5c-0.9,0.7-1.9,1.2-2.7,1.2c-1.1,0-2-1-2-2.3C191.1,107.3,192.1,106.4,195.8,105.6L195.8,105.6z"/>
		<polygon class="st2" points="209.1,87.1 205.9,87.1 205.9,85.1 214.2,85.1 214.2,111.9 217.4,111.9 217.4,113.9 205.9,113.9 
			205.9,111.9 209.1,111.9 209.1,87.1 		"/>
		<path class="st2" d="M19.3,78c5.9,0,11,9.4,11.9,24.1l0.2,0c0.8-3,1.2-6.1,1.1-9.2c0-10.7-5-20.2-11.8-20.2
			c-6.4,0-6.9,5.3-5.4,7.6C15.8,79.6,16.9,78,19.3,78L19.3,78L19.3,78z M25.8,104.7c0.3-1.4,0.5-2.4,0.5-4.3c0-6.7-4-17.7-11.7-17.7
			c-5.9,0-6.7,5.6-4.8,7.4c0.4-1.2,1.7-2.9,4.1-2.9c6.2,0,10.8,9.8,11.8,17.5H25.8L25.8,104.7L25.8,104.7z M64.4,80.4
			c0.6-0.8,0.9-2,0.9-2.7c0-2.6-2.4-5-5.9-5c-10.2,0-14,17.9-11.1,29.3h0.1c1-15.7,6-24.1,11.8-24.1C63.1,77.9,64.1,79.7,64.4,80.4
			L64.4,80.4L64.4,80.4z M64.8,82.9c-9.7,0-13.2,16.2-11.3,21.9h0.1c1.1-8.2,5.6-17.4,11.6-17.4c3.2,0,4.1,2,4.2,2.9
			C71.6,88,70.3,82.9,64.8,82.9L64.8,82.9L64.8,82.9z M41.5,110.2c-5.8,0-11.8,1.4-16.7,4.5l0.1,0.2c2.4-0.4,8.2-1,15.4-1
			c7.9,0,10.7,1,12.1,1c0.9,0,1.3-0.5,1.3-1.3C53.6,111.2,47.9,110.2,41.5,110.2L41.5,110.2L41.5,110.2z M41.5,104.1
			c-4.9,0-11.7,1.3-16.7,4.5l0.1,0.2c2-0.3,8.4-1.1,15.6-1.1c6.9,0,10.8,1.1,11.8,1.1c0.9,0,1.3-0.5,1.3-1.3
			C53.6,105.1,47.9,104.1,41.5,104.1L41.5,104.1L41.5,104.1z M64.4,65.2c-0.7,0.1-1.8,1.2-1.8,2.9c0,1.9,1.4,5.7,6.8,5.7
			c5.6,0,9.4-4.2,9.4-9.9c0-5.6-4.1-10.8-13-10.8c-10.7,0-24.4,9.5-24.4,32.7c0,4.4,0.5,9.2,1.6,14.4h0.2
			c0-28.4,10.7-41.8,22.2-41.8c4.9,0,7.6,3.1,7.6,6.4c0,3-1.8,5.1-4.6,5.1C65,70,63.9,67,64.4,65.2L64.4,65.2L64.4,65.2z M14.4,68.7
			c-0.4,0.7-1.6,1.8-3.8,1.8c-2.7,0-4.9-2.2-4.9-5.4c0-2.8,2.5-5.7,6.9-5.7c10.9,0,23.7,15.7,23.8,35.6c0,1.3-0.1,3.5-0.3,5.3l0.2,0
			c1.2-3.4,2.1-8.8,2.1-12.5c0-17.4-11.9-34.1-25.9-34.1C4.2,53.7,0,59.3,0,64.1c0,5.5,3.2,9.7,8.3,9.7
			C12.2,73.8,14.4,70.9,14.4,68.7L14.4,68.7L14.4,68.7z M12.9,47.8c-1.1,0-1.7,0.6-1.7,1.4c0,1,0.6,1.5,1.9,2
			c3.9,1.6,11.3,2.5,19.7,2.5c14.8,0,30-2.1,36.7-4.8l-0.1-0.2c-5.5,0.4-14.9,1-29.9,1C19.2,49.7,14.9,47.8,12.9,47.8L12.9,47.8
			L12.9,47.8z M24.8,55.5l0,0.2c1.7,0.6,9.9,4.2,13.5,17.6c0.2,0.8,0.6,1.1,1.1,1.1c0.9,0,1.2-0.6,1.2-1.8c0-6.3-3.4-11.8-6.4-14.2
			C31.2,55.9,27.1,55.4,24.8,55.5L24.8,55.5L24.8,55.5z M44.8,57.5c2.6-2.7,6.3-3.7,10.3-3.4l0,0.2c-1.3,0.4-4.4,1.5-7.6,4.8
			c-2.6,2.8-4.4,6.1-5.3,9C41.3,62.6,43.1,59.3,44.8,57.5L44.8,57.5z"/>
		<path class="st2" d="M221.1,89h1c0.3,0,0.8-0.1,0.8-0.6c0-0.3-0.2-0.6-0.7-0.6h-1.1V89L221.1,89L221.1,89z M221.1,91.5h-0.9v-4.4
			h2c0.3,0,1.7,0,1.7,1.3c0,0.8-0.6,1.1-0.8,1.2l0.8,1.9h-1l-0.7-1.7h-1.1V91.5L221.1,91.5L221.1,91.5z M221.9,92.7
			c1.8,0,3.4-1.5,3.4-3.4c0-1.9-1.5-3.4-3.4-3.4c-1.8,0-3.4,1.5-3.4,3.4C218.5,91.1,220.1,92.7,221.9,92.7L221.9,92.7L221.9,92.7z
			 M221.9,85.2c2.2,0,4.1,1.8,4.1,4.1c0,2.2-1.8,4.1-4.1,4.1c-2.3,0-4.1-1.8-4.1-4.1C217.8,87,219.7,85.2,221.9,85.2L221.9,85.2z"/>
	</g>
</g>
</svg>
