<?xml version="1.0" encoding="utf-8"?>
<!-- Generator: Adobe Illustrator 19.2.1, SVG Export Plug-In . SVG Version: 6.00 Build 0)  -->
<svg version="1.1" xmlns="http://www.w3.org/2000/svg" xmlns:xlink="http://www.w3.org/1999/xlink" x="0px" y="0px"
	 viewBox="0 0 340 160" style="enable-background:new 0 0 340 160;" xml:space="preserve">
<style type="text/css">
	.st0{display:none;}
	.st1{display:inline;fill:#F2F2F2;}
	.st2{fill:#444444;}
	.st3{fill:#FFFFFF;}
	.st4{fill:#969898;}
	.st5{opacity:0.15;fill:#444444;}
	.st6{fill-rule:evenodd;clip-rule:evenodd;fill:#444444;}
	.st7{fill-rule:evenodd;clip-rule:evenodd;fill:#969898;}
	.st8{fill-rule:evenodd;clip-rule:evenodd;fill:#C9CACB;}
</style>
<g id="Layer_2" class="st0">
	<rect class="st1" width="340" height="160"/>
</g>
<g id="Layer_1">
	<path class="st2" d="M229.8,68.8c0,0.4,0,0.8,0.6,1.2c0.6-0.7,1.5-0.8,1.7-0.8C231.6,68.6,230.8,69.3,229.8,68.8L229.8,68.8z
		 M229.3,59.5c0,0.7,0.6,1,0.7,1.1c0.6,0.4,0.8,0.4,1.4,0c0.6,0.4,0.7-0.4,0.8,0c0,1.1,0,1.7-0.1,2.6c-0.1,1.2-1.2,1.1-2.2,1.7
		c0,0.6-0.6,1.5,0,2.1c0.6-0.4,1-0.6,1.8-1c0-0.6,0.6-1.1,1.4-1.5c0-1.7,0.6-3.3,0.6-5c0-0.4-0.4-0.8-1-1.1h-4.4
		C228.2,59,228.7,59.5,229.3,59.5z M239.9,69.4l1.9,0.8v-1H240L239.9,69.4L239.9,69.4z M227.3,55.3c0.8-0.6,2.6-1.8,3.6-2.2
		c-0.1-1.8-2.2-2.1-3.2-2.8h-0.7c-1.5,0.6-1.9,2.1-2.1,3.3C225.5,55.3,226.6,54.2,227.3,55.3z M235.1,55.2c-0.4-0.4-1.5,0.1-2.1,0.4
		c-0.8,0.1-1.4,0.7-1.4,1.2h2.1C234,56.3,234.7,55.6,235.1,55.2z M238.9,59.5h-0.4c0.4,1.5,0.4,3.2,0.4,4.8c0.7,0.1,1.5,0.6,1.5,1.7
		c0.7,0.4,1.4,0.6,2.2,1.1c0.3-0.1,0.6-0.7,0.7-1.2c-0.7-1-2.3-0.4-2.3-2.1l-1.1-0.4c0-1.1,0-2.2-0.3-2.9l0.3-0.3
		c0,0.3,0.1,0.4,0.6,0.8c0.7,0,1.4,0.1,2.2-0.4c0.3-0.1,0.3-1.1,0.7-1.1s0.7,0,1-0.4c0,0,0.4,0,0-0.1l-4.1-0.6
		C239.9,58.9,238.9,58.9,238.9,59.5L238.9,59.5z M238.4,55.3c0.8,0,0.6,1.4,1.2,1.5h1.7c0-0.6-0.1-0.6-0.3-0.6c-1,0-1-1.5-1.8-1.1
		c-0.3,0-0.7-0.4-1.2,0C238,55.3,238,55.3,238.4,55.3z M245.8,56.3h0.6c0.6-0.6,0.8,0,1.2-0.6c0.4-1,0.4-2.6-0.4-3.6
		c-0.3-0.7-1.2-1.1-2.2-1.8l-1.2,0.7c-0.8,0.4-1.1,1.1-1.1,2.1C243.9,53.6,245.3,55.2,245.8,56.3L245.8,56.3z M237.8,104.4l-2.1,0.4
		c-0.6,0.7-0.7,1.1-0.7,1.5l0.8-0.4c0.3,0,0.4,0.4,0.6,0.7c-0.1,1-1.2,1-1.7,1.4c-0.6,1.8,1.1,2.9,1.4,4.4h2.2
		c-1-1.7-1.1-4.3-1.1-4.8C237.3,106.6,237.3,105.3,237.8,104.4z M239.9,105.9c-0.4,0-1,1.1-1,1.5c0,1.5,0.3,3.5,1,5h1.4
		c0-1.7,0.3-3.5,0.3-5C241.3,107.4,241.7,107.7,239.9,105.9z M244.3,106.6c-0.4,0-1.4,0.6-1.4,1c0,0.8-0.3,4.8-0.3,4.8h1.2
		c0.6-1.7,1.7-3.9,1.7-4.8C245.6,106.8,245,106.6,244.3,106.6z M268.2,105.5c0.8,0.4,0.8,1.4,0.8,1.5c0,0.6-0.4,1.1-0.8,1.5
		c-0.3-0.4-0.3-1-0.7-1.5c-0.4,0-0.6,1-0.6,1.4c0,1.7,0.7,2.9,1.2,4h1.7c-0.1-1.5-0.6-2.8-0.6-4.4c0-1,0.6-2.1,0.8-2.6L268.2,105.5
		L268.2,105.5z M286.5,101.6l-1.1-1.7c0.4-0.6,0.4-1.2,1-2.2c0.1,0,0.7,1.2,0.7,1.5C287,100.3,287,100.6,286.5,101.6z M285.2,105.3
		c0-1-1.1-1.5-1.9-3.2l0.8-1.2c0.6,0.3,1.2,0.8,1.2,1.8c0,0-0.1,0.6,0,1c0,0.1,0.4,0.1,0.4,0.6C285.4,104.8,285.4,104.8,285.2,105.3
		L285.2,105.3z M282.6,96.8c-1.4,0-0.6-2.6-3.3-2.6c-0.6,0-1,1-1.7,1.1c0-0.1,0.1-1.2,0.1-1.2c0-0.4,0.1-1.1,1-1.5
		c1.4,0,1.1,0.6,2.2,1c0.6,0.1,1,0.6,1.7,0.6L282.6,96.8L282.6,96.8z M281.6,100.6c-1.2-0.1-1.2-1.7-1.5-1.8c-0.8-1.1-2.2-0.1-3-0.1
		c-0.4-1.1,0.1-1.1,0.1-1.9c0.6,0,1.1-0.4,1.7,0c1-0.4,1.5,0.6,2.3,0.6c0.3,0.4,0.7,1.4,0.8,1.5C282,99.5,281.9,99.8,281.6,100.6z
		 M279.8,103.2c-1-0.6-1.5-0.7-2.6-0.7c0-0.8-0.6-1.7-1-1.7c-1.1,0-1,0.7-1.8,0.7l1.7-1.7c0.1-0.4,0.1-0.4,0.6-0.4
		c0.6,0.4,0.7,0.6,1.2,0.6c0,0.4,0,0.6-0.1,1.1c0.6,0.4,1-0.1,1.2,0.4c0.6,0.1,1.1,0.4,1.1,1.1C280.1,103,279.8,103.2,279.8,103.2
		L279.8,103.2z M276.2,75.1c0.8-0.4,1.1-0.3,1.5,0c0,1.1,1.2,0.6,2.1,1c0.3,0.6,0.6,0.8,0.7,1.7c-1.2-0.4-2.1-1-3.2-1
		c-0.3,0-2.1,0.6-2.2,1C274.6,76.9,275.5,75.3,276.2,75.1z M275.7,79.9c0.6-0.6,1.5-1.4,2.2-1.4c1.4,0,2.5,1,2.5,1.9
		c-1.1,0-1.4-0.3-2.1-0.3c-1,0-2.1,0.4-2.6,1.4C275.3,80.9,275.5,80.5,275.7,79.9L275.7,79.9z M281.5,82.2c0.6,0,1-0.3,1.2-0.3
		c1,0,1.7,1.4,1.9,2.5c-1.5-0.8-3.7-1.4-5.1-1.4c-0.7,0-2.9,0.8-3.7,1.7l-0.3-1.7c1.1-0.3,1.1-1.1,1.8-1.1c0.6,0,1.4-0.3,1.9-0.3
		c0.6,0,0.8-0.3,1.1-0.3C281.2,81.4,280.9,82.2,281.5,82.2z M283.6,92.7c-0.6-0.3-1.9-0.4-1.9-1c0-0.8-0.4-1-1.2-1
		c-0.8,0-1.4,0.1-2.5,0.6c0,0-0.6-0.7-0.7-1.5c0.4-0.1,1.8-0.6,2.6-0.6c1.2,0,2.6,0,2.6,0.6C282.5,90.7,283.6,90.8,283.6,92.7z
		 M282.5,87.6c-0.4-0.3,0-1.1-1-1.1c-0.4,0-1,0.6-1,0.6c-0.4,0.3-1.5-0.6-1.5,0c0,1-0.7,1.4-1.7,1.4c-0.3,0-0.7,0-1.1-0.3v-1.8
		c2.5,0,2.2-0.8,3.3-0.8c0.8,0,1.4,0.4,1.9,0.4c1,0,0.4-0.4,1.2-0.4c1,0,1.4,0.8,1.9,1c0,0.6,0.6,1.4,0.6,2.1
		C283.8,88.6,282.6,88.2,282.5,87.6L282.5,87.6z M272.4,93.3c-0.4-1.1-1.1-2.3-1.5-3.5c0-0.1-0.1-0.1,0.1-0.3c0.3,0,1,0,1,0.1
		c0.3,0.4,0.6,1,0.6,1.5C272.5,91.9,272.2,92.5,272.4,93.3L272.4,93.3z M269.7,95.1c-0.6,0-0.6-0.4-0.6-1.1c-0.1-1.1-0.6-2.1-1-3.2
		c-0.3-1.5-1.2-2.8-2.1-4.4c-0.1-0.8-1.1-1.1-1.8-1.7c1,0,1.8,0,2.6,0.7c0,0.4,0.1,0.6,0.7,1.1c1.4,0,1,1.7,2.1,2.5
		c-0.6,0.6-0.7,0.8-1.1,1.2c0.6,0.4,1.1,0.6,1.2,1.1C269.9,92.5,269.7,93.9,269.7,95.1L269.7,95.1z M266.8,99.5
		c0.3-0.8,0.3-2.8,0-2.8c-0.4-0.1-1.2,0-1.2-0.4c0-0.6,0.3-1.2,0.3-1.7c0-0.7-0.6-1.1-0.6-1.4c0-1.1,1.2-1.4,1.7-2.1
		c0.1,0.7,0.1,1.5,0.1,2.3c0,0.4,0.6,1.5,0,2.5c0,0.6,1.1,0.1,1.1,0.7C268.2,97.7,267.1,98.8,266.8,99.5L266.8,99.5z M265,89.8
		c0,0.4-0.6,0.8-0.7,0.8c0,0-1-1-1.1-1.9c-0.1-0.7,0.6-1.9,0.6-1.9c0.1,0,0.4,0.3,0.6,0.3c0.1,0.3,0,0.8,0.1,1.4
		C265,88.7,265.5,89.6,265,89.8L265,89.8z M263.1,97.9c0-1.1-0.3-2.1-1-2.8c0-0.4,0.6-0.4,0.1-1c0,0-1.1-0.6-1.1-1.2
		c0-0.7,0.8-1.4,1.1-1.9c0-0.1,0.8,0.4,0.8,1.5c0,0.3,0,0.8-0.3,1.1c-0.1,0.6,1.1,0.6,1.1,1.1C263.9,95.8,263.3,96.8,263.1,97.9
		L263.1,97.9z M261.5,83.9c0.6,0.6,1.2,1.4,1.2,1.9c0,0.6-0.4,0.7-0.7,1.1c0,0-0.8-1-0.8-1.4C261.2,84.9,261.2,84.5,261.5,83.9
		L261.5,83.9z M269.7,83.6c0.4,0.3,0.7,0.6,1.1,1.1v1.5c-1.7-1-2.6-2.6-4-4.3C268.2,82,268.6,83.4,269.7,83.6L269.7,83.6z
		 M257.2,80.6l1.4-0.7c0.6,0.6,1.4,0.7,1.7,1C259.7,81.4,258.3,81.6,257.2,80.6z M259,103.8c-0.4-0.6-0.6-1.1-1-1.1
		c0.6-2.1-0.6-3.7-0.8-5.4v-0.6c0.6,1,1.9,1.9,1.8,2.8c0.1,1.7,0.1,3.2,0.1,4.3C259.1,103.8,259,103.8,259,103.8z M256.3,106.6
		c-0.3-1.1-0.7-2.8-2.1-2.8c-0.1-0.7-0.3-1.1-1.1-1.7l-1.4-0.1c0.1,0.7,1.2,0.7,0.6,1.8c0.7,0.6,1.2,0.6,1.7,1.5
		c0.3,0.6,0,1.2,0.1,1.7l-1.1,0.6c0-1,0.1-2.8-1.1-3.2c-1.1,0.4-1.2-1.1-2.1-1.7c-0.4,0-0.4-1-1-0.6c-0.8,0.6-1.9,0-2.9,0.6l1-1.5
		c0.7-0.6,1.4-0.3,2.2-0.6l1.5-0.1c1.4,0,2.8,0.7,4.3,1.2c0.7,0.4,1.1,1,1.1,1.9c0.3,0.1,1.1,0.1,1.1,0.7
		C256.9,104.8,256.6,105.9,256.3,106.6z M250.7,107l-0.6,0.6c-0.7-0.6-0.3-2.1-1.2-2.2c-0.8,0-1.7-1-1.9-1.1l0.7-0.4
		c0,0,0.4-0.1,0.7,0c0.4,0.4,0.8,0.6,0.8,1c0.3,0.6,1,0,1.2,0.6C250.7,105.9,250.8,106.6,250.7,107L250.7,107z M244.7,100.1l0.8-2.2
		c0.8,0,1.4-0.3,1.7-0.3c0.8-0.3,1.4-0.3,1.9-0.3v0.3c2.1,0,4.4-0.3,5.9,1.4l0.1,1.5c-0.7-0.6-1.8-0.6-2.2-1.5
		c-0.7-0.1-1.2-0.1-2.2-0.1c-0.7,0.1-1.7,0.1-2.5,0.1c-0.1,0,0-0.1-0.3-0.3C247,99,245.8,99,244.7,100.1z M243.9,83.6
		c-1.1-1.7-0.6-3.2,0-4.6c0.4,1.1,0.6,2.3,0.8,3.2c0.1,0.8,1.2,1.1,1.7,1.7C245.6,84.2,244.3,84.5,243.9,83.6z M241.8,90.7
		c-1.1-1-1.8-2.1-2.9-3.6l2.9,0.6c0.6,0.4,1.7,1.7,2.2,2.2C243.8,90.3,242.7,90.7,241.8,90.7z M241.8,95.6c-0.1,0-1.4-0.6-1.8-1
		c-0.1-0.6-0.1-1.1-0.1-1.1h1.4l1,2.1H241.8L241.8,95.6z M238.5,75.6c-0.1,0,0,0.6-0.1,0.6c0,0.4-0.4,1.1-0.4,1.8
		c-0.4,0.3-1.1,0.6-1.8,0.3v-0.6c-0.3-0.4-0.3-1.1-0.3-1.5l-0.1-0.1c-0.6,0.1-0.6,0.6-0.6,0.8c-0.1,0.4-0.6,0.8-0.6,1.4
		c-0.7,0-1.1-0.3-1.7-0.6V76c0-0.4,0-0.4-0.3-0.4l-0.8,1c-0.8-0.6-1-2.1-1-3c3-1.7,6.6-1.1,9-0.1c0.3,0.1,0.7,0.1,1.1,0.3
		c-0.3,1.1-0.6,2.9-1.8,3.6C239.2,76.6,238.9,76.2,238.5,75.6L238.5,75.6z M236.3,85.3l-0.4-1.9c0.6-0.3,1.1-0.7,1.9-1.7
		C237.8,83.1,237.6,84.7,236.3,85.3L236.3,85.3z M235.1,96.2l-1.1-1.5h2.8l0.6,1.1C236.5,96.3,235.9,96.3,235.1,96.2L235.1,96.2z
		 M232.4,92.7c0.1-0.6,0.7-0.8,1.1-1.4s1.1-1.5,1.2-2.1c1-0.6,1.4-0.6,2.1-0.6c-0.1,1.1-0.7,1.5-1.7,2.8
		C234.7,91.9,233.5,92.2,232.4,92.7z M231.9,81.6c0.6,0,1.1,0,1.7,0.4c0,0.8,0.4,1.7,0.4,2.8C232.7,83.6,231.9,82.7,231.9,81.6z
		 M231.3,89.8c-0.6,0-1.5,0.4-2.6,0c0.6-0.3,1.1-0.6,1.8-1.1l1.5-1.4h1.5C233,88.5,232.4,89.6,231.3,89.8L231.3,89.8z M229.3,99
		c-0.4-1.2-1.2-2.6-2.5-2.6c-0.6-0.6-1.1-1.1-1.2-1.7c-0.6-0.6-1.1,0-1.8-0.6c-0.8,0-1.8,0-2.5,0.6v-0.6l1.2-1.4
		c1.4,0.1,3,0,3.5,0.8c0.8,0.6,1.8,1.1,2.1,1.5v0.6c0.3,0.1,1.1,0.4,1.4,0.6C229.4,96.8,229.3,99,229.3,99L229.3,99z M227.2,103.2
		c-0.4-0.6,0-1.5-0.6-2.1c0-0.3,0.4-0.6,0.1-0.7c-0.1-0.4-2.3-1.1-2.3-1.1c-0.7-0.6-1.7-1.1-2.5-1.8c-0.7-0.3-1.2,0.1-2.2,0.3v-0.3
		c0.4-0.8,0.4-1.8,1.5-1.8c0.6,0,1.2,0,1.7,0.6c0.8,0,1.1,0.8,1.7,1c1,1,1.7,1.4,2.2,1.7c0,0.6,0.3,1,0.6,1.1c1.2,0,0.8,1.1,1.2,1.9
		C228.6,102,227.2,103.2,227.2,103.2z M225.1,106.6l-1.2-3.3c-1.5-1.5-3.2-1.7-4.1-2.3c-0.7-0.3-0.7,0.3-1.1,0c0-0.4,0-1,0.6-1.5
		h1.1l1.1,0.6c0.6,0.6,1.9,0.6,1.9,1.7c0,0.1-0.1,0.4,0.4,1.1l1.8,0.6l0.1,1.5L225.1,106.6L225.1,106.6z M218.1,110.2
		c0-1,0.6-2.1,0.6-3.2c0,0-0.7-0.7-1.5-0.7c-0.6,0.3-0.6,0.7-0.7,1.2c-0.6,1.1-1.7,2.2-1.8,3.3c-0.3,0-0.3-0.1-0.3-0.1
		c0-1.8,0.3-5,1.4-6.4c0.8-1.1,1.7-1.1,2.8-1.2l1,0.1l-0.8,1.1c0.8,0.4,1.9,1.1,1.9,2.2C220.6,108.1,218.1,110.2,218.1,110.2
		L218.1,110.2z M213.5,107.5c-0.3-0.7-0.8-1.7-1.8-1.7c-0.7,1.5-0.8,2.1-0.1,4.3c-0.6,0.6-1,0.7-1.7,1.1c-0.4-0.7-0.4-2.1-0.4-2.8
		c0-1.4,0.3-2.6,0.6-3.7c0.6-0.6,1-1.5,1.5-2.1h2.1c-1,0-1,1-1,1.5c0.6,0.1,1.4,0.4,1.4,1.2S213.8,107,213.5,107.5z M209.2,107.5
		c-0.3,0-0.8-0.6-1.4-0.6c-0.6,1.1,0,1.9,0,3.2c0,0.6-0.1,1.1-0.1,1.1c-0.4,0-1.1-0.7-1.2-1.5v-2.9l1.7-2.1
		C209.2,105.5,209.5,106.6,209.2,107.5z M221.1,82.7c0.1-0.7,0.7-1.1,0.8-1.2c0.6,0.1,1,0.1,1.8,0.3c-1,1-1.9,1.4-2.3,2.5
		C221.4,83.6,221.3,83.1,221.1,82.7L221.1,82.7z M221.3,61.1l1.5-0.6l-1,1.1c0.1,1.8-0.6,3.2-0.6,4.8l-1-3
		C220.6,62.8,220.7,62.1,221.3,61.1L221.3,61.1z M221.3,57.4c0.4-0.6,0.6-1.1,1.1-1.7v2.2l-1.2,0.4L221.3,57.4L221.3,57.4z
		 M227.7,86.8c0.3-0.3,0.4,0,0.8,0l-0.8,2.8c-1,0.7-2.2,0.3-3.3,0.3C226,89.6,227.1,87.9,227.7,86.8z M226,84.5
		c0,0.8-0.4,1.8-1.4,2.6c-0.1,0.3-0.7,0.6-0.7,0.6c0-1.1,0.6-2.1,0.6-2.9C225,84.5,225.5,84.2,226,84.5z M228,82.2
		c-1.2-0.3-2.5-1.4-3-2.3c-0.4-0.8-0.6-1.7-0.6-2.2c0.7,0,1.2,0.6,1.5,0.8v0.3C226.8,79.9,227.7,80.9,228,82.2L228,82.2z
		 M230.4,79.3l-0.6,2.3c-0.6-1.1-1.1-2.2-1.2-3.5L230.4,79.3L230.4,79.3z M241.8,84.7c-0.8-0.6-2.6-0.8-2.2-1.9
		c0.4-0.8,1-1.1,1.4-1.4C241.1,82.7,241.3,83.6,241.8,84.7z M224.6,49.9c0.4,0,1-0.1,1.1-0.6c1-0.1,1.5-1.1,2.6-0.6
		c0.8,0,1.5,0.4,2.1,0.6c0,0.4,0,0.6,0.4,1c1.1,0,1.1,1.1,1.7,2.1c0.6,0.1,1.1,0.1,1.5,0.1c1.1,0.4,1.9,0.4,2.3,1
		c1.5-1,2.9-1.1,4.7-1c0.1-0.6,0.6-1.2,0.7-2.2c0.1,0.6,0.1,0,0.6,0c0.7-0.6,1.7-1.5,3-1.1c0.7,0.6,1.9,0.1,2.8,1.1
		c0.6,0.7,0.8,1.8,1.4,2.8c-0.6,1.1,0,2.6-1.1,3.2l-1.1,1.1c-0.3,0-0.3,0.4-0.8,0.4c0.6,1.2,0.1,3.2-0.4,4.4c0.4-0.1,1-0.1,1-0.7
		c0.1,0.1,0,0.6,0,0.7v0.6c0,1-0.6,1.9-1.4,2.6c-0.3,1.1-1.2,2.6-2.6,2.8v0.4c2.9,0,5.1,0.7,7.7,2.1v1.2c-2.3-1.2-4.7-2.2-7.5-2.5
		c0,0.7,0,1.2-0.3,1.4c2.3,1.1,4.3,2.1,6.2,3.7v1.7c-1.9-1.9-3.9-3.7-6.4-4.3c-0.1,0.4-1,0.7-1.1,1.5c-1.2-1-2.8-1.9-4.3-2.1
		c-0.6,0-1-2.1-1-2.1c1-0.4,1.5-1,1.9-1.8h0.7c0.6,0,0.6-0.4,0.6-1c0-1.1-2.3-1.1-3.5-1.1c-1.4,0-2.2,0-3,0.6c-0.4,0-0.1,0.6-0.1,1
		c0,0.1,0.6,0.6,0.6,0.6c0.4,0,0.7-0.4,1.1-0.4c-0.1,1.1,0.1,1.7,1.2,2.2l-0.1,1.9c-2.2,0-3.7,0.8-5.4,1.7c-0.6-0.4-1-1-1.2-1.5
		c-2.3,0.7-6.2,3.7-6.2,3.7v-1.4c1.7-1.4,3.9-2.2,5.7-3v-1.4c-0.8-0.4-1.5,0-2.3,0c-1.7,0.1-3.3,1-4.4,1.9c0-0.6-0.1-1.4-0.1-1.4
		c2.1-1.1,4.6-2.1,7-1.7v-0.7c-0.1-0.4-0.1-1-0.6-1c-1.1-1.1-2.2-2.8-2.2-3.9l0.7-0.4c-0.4-1.1-0.7-3.9,0-4.8
		c-1.1-0.6-2.2-1.5-2.6-2.2c-0.3-1-0.7-1.5-0.8-2.6C223.7,51.4,224,51,224.6,49.9L224.6,49.9z M251,63.5c0,0.3-0.3,1.9-0.3,1.9
		l-1.5,0.4l1-4.1C250.4,62.4,251,63.2,251,63.5z M251.2,77.7l1.8,1.7c-1.1,0-2.3,0.6-2.9-0.6C250.4,78.5,250.8,78,251.2,77.7z
		 M252.6,68.6c0.4,0.7,0.4,1.1,0.8,1.5c0.7-0.4,0.7,0.6,0.8,0.7c0.3,0.6,0.7,1.1,0.7,1.7c-1.2,0-1.8-0.6-2.3-1.7
		C252.6,70.2,252.5,69.4,252.6,68.6L252.6,68.6z M256.2,76.6c-0.1,0.7-1,0-1.1,0h-1.7c-0.3-0.4-0.4-0.6-0.4-1
		c0.7-0.3,1.2-0.6,1.9-0.3C255.2,76,255.7,76.6,256.2,76.6L256.2,76.6z M247,96.2c0-0.6,0.3-1.1,1.1-1.5c1.1,0.4,2.1-1.9,3.2-0.7
		c0.6,0.1,1.1,0.1,1.4,0.1c1.4,0.6,1.7,1.7,2.3,2.6c-1,0-1.8,0-2.3-1c-0.1,0-0.6-0.6-0.7-0.1c-1,0.7-1.8-0.6-3-0.4
		c-0.6,0.6-1.1,1-1.9,1.1L247,96.2L247,96.2z M248.9,84.7c0.8-0.6,1.8-0.6,2.1-0.8c0.8,0.8,1.5,2.1,2.8,2.9c-0.7,0-1.9,0-2.8-0.6
		C249.9,85.6,249.4,85.3,248.9,84.7z M248.6,87.6c0.6,0.3,1.5,0.8,2.1,1.1h-0.6c-2.1,0.8-3.7-0.6-5.4-1.7c0.8-0.3,2.2-0.6,3.3-0.6
		C248.1,86.5,248.6,87.6,248.6,87.6z M248.6,81.6c-1,0.1-1.7-0.7-2.6-1.1c-0.4-1.1-0.4-2.2-0.7-2.8c0.7,0.6,2.3,0.6,1.9,2.2
		C247.2,80.5,248.1,80.9,248.6,81.6z M258.3,83.6l-1,0.3c-2.1,0-3-0.6-3.9-1.2c0.7,0,1.7-1,1.7-1C256.1,82.7,257.3,83.4,258.3,83.6z
		 M288.9,59c-0.6-0.7-1.4-1.7-2.1-1.7c0.6,0,1.2-0.6,2.2-0.6c0.4,1,1.1,1.5,1.2,2.2l0.3,1.1C290.2,59.5,289.5,59,288.9,59z
		 M283,56.3c-0.4-0.6-1,0-1.4,0s-0.6,0-1.2-0.6c1.1,0,1.7-0.6,2.6-1c0.7,0.6,1.4,0.8,1.9,1.5C284.9,56.3,283,56.3,283,56.3z
		 M301.1,65.9c-2.6-2.6-5.5-3.9-7.7-6.5c-1.1-1.1-2.1-2.2-2.8-3.7c-1-1-1.5-1.5-2.6-2.1c0.1,0.6,0.4,1.1,0.6,1.7h-0.1
		c-1,0-1.9-0.6-2.6-1.1l0.7-0.7c-0.1-0.4-0.7-0.4-1.1-0.4c-2.9-0.6-5.8,1.1-8.7,1.7v0.4c1.8,0.6,2.2,2.8,3.3,3.9h1.1
		c0.4,0,1,0.4,1.4,0.4c0-0.4-0.4-1.1-0.4-1.1c0.4-0.4,0.7-0.4,1.1,0c1,0.6,2.2-0.4,3.2,1.1c-1.1,0-2.2,0-3.2,0.6
		c0,0.1,0.6,0.6,0.4,1c-1-0.4-2.1,0-2.5-0.8l-0.1,0.3c1.1,1.2,2.8,2.3,4.4,2.9c2.5,0.4,4.4-0.7,6.9-0.1c8.6,4,14.5,13.7,14.5,23.3
		c0,13.8-7.9,19.3-12.8,19.3c-1,0-2.5-0.6-3-1.1c0.6-2.1,1-4.3,1-7.6c0-8-3.2-16.6-7.5-21c-1.9-2.1-4.3-3.7-6.6-3.7
		c-1.1,0-2.2,0-3,1c-0.8,0.7-1.4,2.2-1.2,3.2c-1.5,1.1-3.9,1.7-5.8,1.7c-2.1,0-4.6-0.8-7-2.6v-2.8c-0.6-0.3-2.3-1.4-1.5-2.2
		c0.6,0.1,1,0.6,1.1,0.7c-0.1-1.2-0.1-2.8-1.1-3.9c-0.3,0-0.8,0-1.4-0.4c-0.6-0.6-1.1-1.2-1.1-2.2c0.6,1,1.4,0.6,1.9,1.1
		c-0.8-2.2-0.6-3.2-2.2-6.5c-0.3-1.7-2.1-2.6-3.2-3.7c-0.6-0.4-0.7-1-1.4-1c-0.8-0.1-0.8-1.1-0.8-1.7c0.3,0,0.8,0.4,1.1,0.6
		c-1.1-2.6-1.8-5.4-4.3-6.9l-0.6,0.4h-2.9c0.4-0.4,1.1-0.6,1.7-1c-0.6-0.6-1-0.7-2.1-0.7c-0.6,0.1-1.2,0.7-2.1,0.7h-0.1
		c0-0.6-0.1-1.2,1-1.7c-1.1-0.1-2.1-0.1-3.5,0c-0.1,1-0.7,1.5-0.7,2.2c-0.6,0.4-0.7,1-1.2,1.5c0-1.1,0.6-2.2,0.7-3.3
		c-0.7,0.1-1.7,0.7-2.1,0.7c-1.4-0.7-3.3-1.4-4-1.4c1.1,0.7,0.6,1.9,0.7,2.9l-0.7-0.4c-0.3-0.7-1.1-1.2-1.4-2.2
		c-1.1,0-1.8,0.4-2.8,1v0.1c0.6,0,1.4,0.6,1.7,1.1c-1.2,0-2.2-0.6-3.5-0.6c0,0,0-0.1-0.3-0.1c-0.6,0.1-1.1,0.7-1.4,1.1
		c-1.4,1.1-2.3,2.1-2.9,3.7c0.4,0,1,0,1.1,0.1c-0.7,0.3-1.1,1.1-1.8,1.4v2.8c-0.6,0.6-1.2,1.1-1.7,2.2c-1,3-1.1,6.4-1.1,10.1
		c-0.3,0.7-0.6,0.8-1,1.1v2.9c0,0,1.1-1.1,1.7-1.4v2.3c-0.7,0-1.2,1-1.2,1.5c0,0.7,0.1,1.4,0.1,2.2c0,0.4,0,0.4,0.1,0.7
		c0-0.3,0.4-0.7,1-0.8c0,0,0.4-0.4,1.1-0.4c-0.6,0.6-0.7,1.2-1.1,2.1l-0.6,0.6c0,0-0.1,0.3-0.1,0.6c0.7,3.9,1.8,7.2,3.3,10.9
		c-1.5,2.5-3.2,7-4.3,11.5c-1-0.8-2.2-1.1-3.3-1.1c-1.1,0.3-2.2,0.6-3,1.7c-1.1-0.6-2.5-0.3-3.3,0.4c-1.7,1.5-1.7,2.2-1.7,3.3
		c-0.4,0.4-1.1,1.4-1.1,2.6c0,1.7,0.1,2.8,1.1,4.3H234c-0.3-0.6-0.7-1.2-1-1.7c-0.6-1.1-0.3-2.6-0.3-3.7c0.6-1.1,1.2-2.2,1.9-3.2
		c0.1-0.6,0-0.6,0.1-0.7l1.4-0.4c0.7,0,1.2-0.6,2.2-0.6c0.6,1,0.6-0.6,1.5-1c1.9-0.3,4,0,5.1,1.5c0,0.4,0.3,0.4,0.3,0.6h-1
		c-1.1-0.6-2.5-1.1-3.7-0.6c0,0.6-0.1,0.6-0.1,1.1v1c0.7,0,1.2,0.7,1.9,1.1c0.4-0.6,1.5-1.1,2.3-1.1c0.8,0,2.2,0.6,2.2,2.1v2.1
		c0.7,0.7,1.7,0.8,2.5,1.2c-0.3,0.7-0.8,0.7-1.4,0.7h-1.5c-0.1-0.1-0.6-0.1-0.6-0.7c-0.6,0.7-1,1.5-1.2,2.2h21.7
		c-0.4-0.7-0.8-1.2-1-1.7c-0.4-1.1-0.4-2.6-0.4-3.7l2.1-2.8c1.1,0,2.1-0.4,4.1-0.6c0.3-0.6,0-1,1.7-1c1.2,0,2.2,0.4,2.6,0.6
		c0.1,0.4,0.1,0.4,0,0.8c-0.4,0.3-1.1-0.4-1.7-0.3c-0.4,0.4,0.1,0.6,0.1,1c0.4,0.4-1.7-0.4-1.7-0.4s-0.4,1.1-0.6,1.5l1.1,1.1
		c0.4,0.6-0.6,1.1-0.6,1.7c-0.4-0.1-1.1-0.7-1.1-0.6c-0.4,1.5,0,2.8-0.3,4.3h2.1l0.3-3.2c0.1-1.8,2.3-5.1,3.7-5.1
		c0.7,0,1.2,0.3,1.8,0.7c0.4,0.7,1.2,1.1,1.2,1.5c0,0.3-0.6,0.6-1.4,0.6c-0.4,0-0.4-0.6-1-1l-1.1,1.1c0,0,1.2,1.1,1.2,1.9
		c0,0.8-0.1,1.2-0.7,1.8l-1.1-2.2c-0.6,0-1.5,1.1-1.5,1.7c0,0.7-0.4,1.1-0.4,2.2h11.6c1.2,0,2.3-0.4,3.7-1.1h2.2
		c4.6,0,8.3-1.2,11.6-4.7c4.6-4.4,7.2-11.5,7.2-18.4C310.5,80,307,71.9,301.1,65.9 M29.5,112.4v-2.1c4.5,0,7.7-0.3,7.7-6.9V68.8
		c0-6.6-2.4-6.9-7.7-6.9V60H56v1.9c-5.4,0-7.7,0.3-7.7,6.9v34.5c0,6.6,2.8,6.9,7.7,6.9v2.1H29.5z M120.8,72.6v40.2h-3.2L77.5,71.3
		c0.2,1.1,0.2,2.1,0.2,3.2v25.1c0,7.9,0,10.6,7.1,10.6v2.1H65.9v-2.1c7.1,0,7.1-3.3,7.1-10.6V70.9c0-4.3,0-9-7.5-9V60h17.7l33,33.8
		c-0.2-0.8-0.2-1.4-0.2-2.8V72.6c0-7.5,0.2-10.6-6.9-10.6V60h18.9v1.9C121.1,61.9,120.8,65,120.8,72.6z M185.9,94.7v13.4
		c-7.5,3.7-14.5,5.7-21.6,5.7c-19.6,0-31.4-11.6-31.4-26.2c0-15.6,13.5-28.7,30.6-28.7c4.3,0,7.5,0.8,10.9,1.9
		c2.3,0.7,3.9,1.7,5.4,1.7c1.2,0,1.7-2.2,1.8-3.6h1.9l1.7,18.1H183c-1-3.5-2.6-6.5-4.8-8.6c-3.6-3.5-8.4-5.4-14.1-5.4
		c-11.7,0-18.6,9.4-18.6,23.3c0,13.8,8.4,23.3,19.6,23.3c3.3,0,6.4-0.8,10.1-2.5V93.3c0-4.4-0.7-6.1-7-6.1v-2.1h23.6v2.1
		C185.7,87.2,185.9,89,185.9,94.7"/>
</g>
</svg>
