<?xml version="1.0" encoding="utf-8"?>
<!-- Generator: Adobe Illustrator 19.2.1, SVG Export Plug-In . SVG Version: 6.00 Build 0)  -->
<svg version="1.1" xmlns="http://www.w3.org/2000/svg" xmlns:xlink="http://www.w3.org/1999/xlink" x="0px" y="0px"
	 viewBox="0 0 340 160" style="enable-background:new 0 0 340 160;" xml:space="preserve">
<style type="text/css">
	.st0{fill:#F2F2F2;}
	.st1{fill:#444444;}
	.st2{fill:#FFFFFF;}
	.st3{fill:#969898;}
	.st4{opacity:0.15;fill:#444444;}
	.st5{fill-rule:evenodd;clip-rule:evenodd;fill:#444444;}
	.st6{fill-rule:evenodd;clip-rule:evenodd;fill:#969898;}
	.st7{clip-path:url(#SVGID_2_);fill:#444444;}
	.st8{clip-path:url(#SVGID_4_);fill:#444444;}
	.st9{clip-path:url(#SVGID_6_);fill:#444444;}
	.st10{fill:#444445;}
</style>
<g id="Layer_2">
</g>
<g id="Layer_1">
	<g>
		<path class="st5" d="M170,12.3c-37.2,0-67.7,30.5-67.7,67.7c0,37.1,30.5,67.7,67.7,67.7c37.1,0,67.7-30.5,67.7-67.7
			C237.7,42.8,207.1,12.3,170,12.3z M217,122.3c-11.9,13.2-29.2,20.9-47,20.9c-15.5,0-30.8-5.9-42.3-16.3
			c-13.3-11.9-20.9-29.2-20.9-47c0-15.5,5.8-30.8,16.2-42.4c11.9-13.2,29.3-20.9,47.1-20.9c15.5,0,30.8,5.9,42.3,16.3
			c13.3,11.9,20.9,29.2,20.9,47.1C233.3,95.5,227.4,110.8,217,122.3z"/>
		<polygon class="st5" points="169.5,77.5 175.7,69.2 182.1,69.2 172.1,82.1 172.1,90.2 166.9,90.2 166.9,82.1 156.9,69.2 
			163.4,69.2 169.5,77.5 		"/>
		<polygon class="st5" points="203.5,86.4 203.5,90.2 183.2,90.2 183.2,69.2 202.9,69.2 202.9,73 188.5,73 188.5,77.6 202.4,77.6 
			202.4,81.3 188.5,81.3 188.5,86.4 203.5,86.4 		"/>
		<polygon class="st5" points="181.5,109.6 181.5,113.3 159.7,113.3 159.7,92.4 181,92.4 181,96.2 165,96.2 165,100.7 180.5,100.7 
			180.5,104.5 165,104.5 165,109.6 181.5,109.6 		"/>
		<path class="st5" d="M151.1,69.2h-5.6l-10.3,20.9h5.9L143,86h10.6l1.9,4.1h5.9L151.1,69.2z M144.8,82.2l3.5-7.6l0,0l0,0l3.5,7.6
			H144.8z"/>
		<path class="st5" d="M130.3,78.6c2-0.8,3.3-2,3.3-4.3c0-4.5-4.2-5.1-7.9-5.1h-12.9v20.9h14.6c4,0,7.3-1.6,7.3-6.1
			C134.7,81.2,133,79.2,130.3,78.6z M118,73h7.7c1.5,0,2.9,0.4,2.8,2.2c-0.1,1.6-1.3,2.1-2.8,2.1H118V73z M125.7,86.4H118v-5.5h7.7
			c2,0,3.6,0.2,3.6,2.7C129.3,85.8,127.7,86.4,125.7,86.4z"/>
		<path class="st5" d="M223.4,81.8c3.3-0.7,5.4-2.7,5.4-6.3c0-4.8-4.1-6.2-8.2-6.2h-14.1v20.9h5.2v-8.3h6.1l5.5,8.3h6.2L223.4,81.8z
			 M220.1,78h-8.2V73h8.2c1.7,0,3.4,0.5,3.4,2.5C223.5,77.6,221.8,78,220.1,78z"/>
		<path class="st5" d="M176.2,31.9c2-0.9,3.3-2,3.3-4.3c0-4.5-4.2-5.1-7.9-5.1h-12.9v21h14.6c4,0,7.3-1.6,7.3-6.1
			C180.7,34.6,179,32.6,176.2,31.9z M164,26.4h7.7c1.5,0,2.9,0.4,2.8,2.2c-0.1,1.6-1.4,2.1-2.8,2.1H164V26.4z M171.7,39.7H164v-5.4
			h7.7c2,0,3.7,0.2,3.7,2.6C175.3,39.1,173.7,39.7,171.7,39.7z"/>
		<path class="st5" d="M172.6,45.9h-5.6l-10.3,20.9h5.9l2-4.1h10.6l1.9,4.1h5.9L172.6,45.9z M166.2,58.8l3.5-7.6l0,0.1v-0.1l3.5,7.6
			H166.2z"/>
		<path class="st5" d="M176.6,128.3c3.3-0.7,5.4-2.7,5.4-6.4c0-4.8-4-6.2-8.1-6.2h-14.1v21h5.3v-8.3h6l5.5,8.3h6.2L176.6,128.3z
			 M173.2,124.5H165v-5h8.2c1.7,0,3.4,0.5,3.4,2.5C176.6,124.1,175,124.5,173.2,124.5z"/>
	</g>
</g>
</svg>
