<?xml version="1.0" encoding="utf-8"?>
<!-- Generator: Adobe Illustrator 19.2.1, SVG Export Plug-In . SVG Version: 6.00 Build 0)  -->
<svg version="1.1" xmlns="http://www.w3.org/2000/svg" xmlns:xlink="http://www.w3.org/1999/xlink" x="0px" y="0px"
	 viewBox="0 0 340 160" style="enable-background:new 0 0 340 160;" xml:space="preserve">
<style type="text/css">
	.st0{display:none;}
	.st1{display:inline;fill:#F2F2F2;}
	.st2{fill:#444444;}
	.st3{fill:#FFFFFF;}
	.st4{fill:#969898;}
	.st5{opacity:0.15;fill:#444444;}
	.st6{fill-rule:evenodd;clip-rule:evenodd;fill:#444444;}
	.st7{fill-rule:evenodd;clip-rule:evenodd;fill:#969898;}
	.st8{fill-rule:evenodd;clip-rule:evenodd;fill:#C9CACB;}
</style>
<g id="Layer_2" class="st0">
	<rect x="0.1" class="st1" width="340" height="160"/>
</g>
<g id="Layer_1">
	<g>
		<g>
			<path class="st2" d="M11.4,109.5c-4.8,0-8.3-1.1-11.4-4.2l3.2-3.2c2.3,2.3,4.9,3.1,8.2,3.1c4.2,0,6.6-1.8,6.6-4.9
				c0-1.4-0.4-2.6-1.3-3.3c-0.8-0.8-1.6-1.1-3.5-1.4L9.5,95c-2.6-0.4-4.7-1.3-6.1-2.6c-1.6-1.5-2.3-3.5-2.3-6.1
				c0-5.6,4.1-9.4,10.7-9.4c4.2,0,7.2,1.1,10,3.7l-3.1,3.1c-2-1.9-4.3-2.5-7-2.5c-3.8,0-5.9,2.2-5.9,5c0,1.2,0.4,2.2,1.2,3
				c0.8,0.7,2.1,1.3,3.6,1.5l3.7,0.5c3,0.5,4.6,1.2,6,2.4c1.8,1.5,2.6,3.8,2.6,6.6C22.9,106,18.1,109.5,11.4,109.5z"/>
			<path class="st2" d="M35.7,109.2c-4.3,0-6.3-3.1-6.3-6.4V90.3h-2.6v-3.5h2.6v-6.9H34v6.9h4.4v3.5H34v12.4c0,1.7,0.8,2.7,2.5,2.7
				h1.9v3.9H35.7z"/>
			<path class="st2" d="M56.5,109.2v-2.1c-1.7,1.7-3.2,2.3-6.1,2.3c-2.8,0-4.7-0.7-6.1-2.1c-1.2-1.2-1.8-3-1.8-4.9
				c0-3.8,2.7-6.6,7.9-6.6h6v-1.6c0-2.9-1.4-4.3-5-4.3c-2.5,0-3.7,0.6-5,2.2l-3-2.8c2.2-2.5,4.4-3.3,8.2-3.3c6.3,0,9.4,2.7,9.4,7.8
				v15.3H56.5z M56.4,99.1H51c-2.7,0-4.1,1.2-4.1,3.3c0,2.1,1.3,3.2,4.2,3.2c1.8,0,3.1-0.1,4.3-1.3c0.7-0.7,1-1.8,1-3.4V99.1z"/>
			<path class="st2" d="M77.1,109.5c-5.1,0-10.2-3.2-10.2-11.7s5-11.7,10.2-11.7c3.2,0,5.4,0.9,7.5,3.2l-3.2,3.1
				c-1.4-1.6-2.6-2.2-4.4-2.2c-1.8,0-3.2,0.7-4.2,2c-1,1.3-1.4,2.9-1.4,5.5s0.4,4.3,1.4,5.6c1,1.3,2.5,2,4.2,2
				c1.8,0,2.9-0.6,4.4-2.2l3.2,3C82.5,108.6,80.3,109.5,77.1,109.5z"/>
			<path class="st2" d="M104.3,109.2l-6.4-10.6l-3.4,3.8v6.7h-4.6V77.1h4.6v19.8l8.9-10.6h5.6l-7.9,9l8.9,13.9H104.3z"/>
			<path class="st2" d="M114.7,109.2V77.1h21.1v5.6H121v7.5h12.7v5.6H121v7.8h14.9v5.6H114.7z"/>
			<path class="st2" d="M154.5,109.2l-4.3-7l-4.3,7h-7l8.1-12l-7.8-11.5h7l4,6.7l4-6.7h7l-7.8,11.5l8.1,12H154.5z"/>
			<path class="st2" d="M173.8,109.5c-4.7,0-10.5-2.5-10.5-12c0-9.5,5.8-12,10.5-12c3.2,0,5.7,1,7.8,3.2l-4,4
				c-1.2-1.3-2.3-1.8-3.8-1.8c-1.4,0-2.5,0.5-3.3,1.5c-0.9,1.1-1.3,2.7-1.3,5.2c0,2.5,0.4,4.1,1.3,5.2c0.9,1,1.9,1.5,3.3,1.5
				c1.5,0,2.6-0.5,3.8-1.8l4,3.9C179.4,108.5,177,109.5,173.8,109.5z"/>
			<path class="st2" d="M199.6,109.2V94.9c0-3.1-2-4.1-3.8-4.1c-1.8,0-3.8,1.1-3.8,4.1v14.3h-5.9V77.1h5.9v10.8
				c1.6-1.6,3.6-2.4,5.6-2.4c5.1,0,7.8,3.6,7.8,8.6v15.2H199.6z"/>
			<path class="st2" d="M223.8,109.2v-2c-1.6,1.6-3.1,2.3-5.8,2.3c-2.7,0-4.6-0.7-6-2.1c-1.3-1.3-1.9-3.2-1.9-5.3
				c0-3.7,2.6-6.8,8-6.8h5.5v-1.2c0-2.6-1.3-3.7-4.4-3.7c-2.3,0-3.3,0.5-4.5,1.9l-3.7-3.7c2.3-2.5,4.6-3.2,8.5-3.2
				c6.6,0,10,2.8,10,8.3v15.5H223.8z M223.6,99.3H219c-2.1,0-3.3,1-3.3,2.7c0,1.6,1.1,2.7,3.4,2.7c1.6,0,2.7-0.1,3.7-1.1
				c0.6-0.6,0.9-1.5,0.9-3V99.3z"/>
			<path class="st2" d="M249.5,109.2V95c0-3.2-2-4.3-3.9-4.3c-1.8,0-3.9,1.1-3.9,4.3v14.2h-5.9V85.8h5.7v2.2
				c1.5-1.6,3.7-2.4,5.9-2.4c2.3,0,4.2,0.8,5.5,2.1c1.9,1.9,2.4,4.1,2.4,6.7v15H249.5z"/>
			<path class="st2" d="M269.7,118.1c-3.6,0-6.1-0.7-8.5-3.1l3.7-3.7c1.3,1.3,2.6,1.8,4.6,1.8c3.5,0,4.7-2.5,4.7-4.9v-2.4
				c-1.5,1.7-3.3,2.3-5.6,2.3c-2.3,0-4.3-0.8-5.6-2.1c-2.2-2.2-2.4-5.2-2.4-9.3c0-4.1,0.2-7.1,2.4-9.3c1.3-1.3,3.3-2.1,5.6-2.1
				c2.5,0,4.1,0.7,5.7,2.5v-2.2h5.7v22.6C280.1,114,276.1,118.1,269.7,118.1z M270.3,90.8c-3.5,0-3.8,3-3.8,6.1
				c0,3.1,0.4,6.1,3.8,6.1c3.5,0,3.9-3,3.9-6.1C274.2,93.7,273.8,90.8,270.3,90.8z"/>
			<path class="st2" d="M291.3,99.3c0,3,1.8,5.2,5.1,5.2c2.6,0,3.8-0.7,5.3-2.2l3.6,3.5c-2.4,2.4-4.7,3.7-8.9,3.7
				c-5.5,0-10.9-2.5-10.9-12c0-7.7,4.1-12,10.2-12c6.5,0,10.2,4.8,10.2,11.2v2.6H291.3z M299.6,92.8c-0.6-1.4-1.9-2.4-3.9-2.4
				s-3.3,1-3.9,2.4c-0.4,0.9-0.5,1.5-0.5,2.5h8.9C300.1,94.3,300,93.6,299.6,92.8z"/>
		</g>
		<rect x="306.7" y="57.9" class="st2" width="33.3" height="6.8"/>
		<rect x="306.7" y="49.1" class="st2" width="33.3" height="6.8"/>
		<path class="st2" d="M334.7,39.9H312c-2.9,0-5.3,2.5-5.3,5.5v1.8H340v-1.8C340,42.3,337.6,39.9,334.7,39.9z"/>
		<path class="st2" d="M306.7,66.7v1.8c0,3,2.4,5.5,5.3,5.5h14.2v7.2l7-7.2h1.5c2.9,0,5.3-2.5,5.3-5.5v-1.8H306.7z"/>
	</g>
</g>
</svg>
