<?xml version="1.0" encoding="utf-8"?>
<!-- Generator: Adobe Illustrator 19.2.1, SVG Export Plug-In . SVG Version: 6.00 Build 0)  -->
<svg version="1.1" xmlns="http://www.w3.org/2000/svg" xmlns:xlink="http://www.w3.org/1999/xlink" x="0px" y="0px"
	 viewBox="0 0 340 160" style="enable-background:new 0 0 340 160;" xml:space="preserve">
<style type="text/css">
	.st0{display:none;}
	.st1{display:inline;fill:#F2F2F2;}
	.st2{fill:#444444;}
	.st3{fill:#FFFFFF;}
	.st4{fill:#969898;}
	.st5{opacity:0.15;fill:#444444;}
	.st6{fill-rule:evenodd;clip-rule:evenodd;fill:#444444;}
	.st7{fill-rule:evenodd;clip-rule:evenodd;fill:#969898;}
	.st8{fill-rule:evenodd;clip-rule:evenodd;fill:#C9CACB;}
</style>
<g id="Layer_2" class="st0">
	<rect x="0.3" class="st1" width="340" height="160"/>
</g>
<g id="Layer_1">
	<g id="g3_1_" transform="matrix(0.9141682,0,0,0.9141682,12.432996,1.9892794)">
		<path id="path5_1_" class="st2" d="M269.6,61.6h-33.6l8.3-30.7l-28.5,30.7H81.9c0,0-0.5,0-0.5,0.3c0,0.2,0.2,0.3,0.5,0.3
			l131.4,2.1l-16.5,17.7c0,0-0.3,0.3-0.1,0.5c0.1,0.1,0.3,0,0.5-0.1l18.7-18l16.7,0.3l-3.2,14.3l-53.9,29c0,0-0.4,0.2-0.3,0.4
			c0.1,0.2,0.3,0.1,0.5,0l53-26.3l-6,27.1c0,0-0.1,0.4,0.1,0.5c0.2,0,0.3-0.1,0.4-0.3l7.6-28.3L269.6,61.6 M218.7,61.6l18.4-17.8
			l-4,17.8H218.7z M235.3,64.7l20,0.3l-23.5,12.6L235.3,64.7z"/>
		<polyline id="polyline7_1_" class="st2" points="-10.5,122.5 -4.6,122.5 -6.9,133.2 -1.5,133.2 -2.4,137.2 -13.6,137.2 
			-10.5,122.5 		"/>
		<path id="path9_1_" class="st2" d="M15.8,129.8c0.7-3.3,1.5-3.9,2.4-3.9c0.9,0,1.5,0.6,0.7,3.9c-0.7,3.4-1.5,3.9-2.4,3.9
			C15.6,133.7,15,133.2,15.8,129.8 M9.7,129.8c-1,4.6,0.9,7.8,6,7.8c5.1,0,8.3-3.2,9.3-7.8c1-4.6-0.9-7.8-6-7.8
			C13.9,122.1,10.7,125.2,9.7,129.8z"/>
		<path id="path11_1_" class="st2" d="M50,131.7c-0.9,4.1-4.5,5.8-8.1,5.8c-5.2,0-6.9-3.1-5.9-7.8c0.8-4.6,4.2-7.7,9.2-7.7
			c3.7,0,6.5,1.5,5.6,5.8h-5.4c0.3-1.7-0.3-2-1-2c-1.5,0-2,1.5-2.5,3.9c-0.5,2.2-0.7,3.9,0.8,3.9c0.8,0,1.4-0.4,1.8-2H50"/>
		<polyline id="polyline13_1_" class="st2" points="64.8,122.5 70.5,122.5 69.2,128.8 69.2,128.8 73.6,122.5 79.7,122.5 74.3,129.4 
			77.1,137.2 70.8,137.2 68.8,130.6 68.8,130.6 67.4,137.2 61.7,137.2 64.8,122.5 		"/>
		<polyline id="polyline15_1_" class="st2" points="98.5,131.8 96,131.8 94.8,137.2 89,137.2 92.1,122.5 98,122.5 96.9,127.4 
			99.4,127.4 100.5,122.5 106.3,122.5 103.2,137.2 97.3,137.2 98.5,131.8 		"/>
		<polyline id="polyline17_1_" class="st2" points="119.9,122.5 131.1,122.5 130.3,126.3 124.7,126.3 124.3,127.9 129.5,127.9 
			128.7,131.7 123.5,131.7 123.2,133.4 129,133.4 128.2,137.2 116.8,137.2 119.9,122.5 		"/>
		<polyline id="polyline19_1_" class="st2" points="145.1,122.5 156.3,122.5 155.5,126.3 149.9,126.3 149.5,127.9 154.7,127.9 
			153.9,131.7 148.7,131.7 148.4,133.4 154.2,133.4 153.3,137.2 141.9,137.2 145.1,122.5 		"/>
		<path id="path21_3_" class="st2" d="M175.4,125.8h0.6c0.9,0,1.4,0.3,1.7,0.9c0.3,0.6,0.2,1.7-0.2,3.1c-0.3,1.4-0.6,2.5-1.2,3.1
			c-0.5,0.6-1.1,0.9-2.1,0.9h-0.6L175.4,125.8 M167.2,137.2h7.3c4.5,0,8-2.8,9-7.2c0.9-4.4-0.3-7.5-6.2-7.5h-6.9L167.2,137.2z"/>
		<polyline id="polyline23_1_" class="st2" points="222.3,126.7 222.2,126.7 217.9,137.2 212.5,137.2 212.7,126.7 212.7,126.7 
			210.4,137.2 205.5,137.2 208.6,122.5 216.7,122.5 216.5,131.2 216.5,131.2 220,122.5 228.1,122.5 225,137.2 220,137.2 
			222.3,126.7 		"/>
		<path id="path25_3_" class="st2" d="M245.2,131.2l2.5-5.6h0v5.6H245.2 M236.9,137.2h5.6l1.1-2.4h4.2l0.1,2.4h6l-1.6-14.7h-7.6
			L236.9,137.2z"/>
		<path id="path27_3_" class="st2" d="M274.4,128.6l0.6-2.8h0.5c1.1,0,1.8,0.2,1.6,1.3c-0.2,1.1-1.1,1.5-2.3,1.5H274.4 M266.8,137.2
			h5.7l1.1-5.3h0.7c1,0,1.2,0.3,1.2,1c-0.1,1.3-0.3,3.1-0.2,4.2h5.7c-0.2-2.2,0.3-4.3,0.2-5.6c0-1.1-0.7-1.8-2.1-1.9v0
			c2.3-0.5,3.3-1.8,3.7-3.5c0.6-2.8-1.1-3.7-4.2-3.7H270L266.8,137.2z"/>
		<polyline id="polyline29_1_" class="st2" points="299.6,126.4 296,126.4 296.8,122.5 309.9,122.5 309.1,126.4 305.4,126.4 
			303.1,137.2 297.3,137.2 299.6,126.4 		"/>
		<polyline id="polyline31_1_" class="st2" points="323.3,122.5 329.2,122.5 326,137.2 320.2,137.2 323.3,122.5 		"/>
		<polyline id="polyline33_1_" class="st2" points="343.4,122.5 350.4,122.5 351.6,131.4 351.7,131.4 353.6,122.5 358.3,122.5 
			355.2,137.2 348.2,137.2 347,128.2 346.9,128.2 345,137.2 340.3,137.2 343.4,122.5 		"/>
	</g>
</g>
</svg>
