<?xml version="1.0" encoding="utf-8"?>
<!-- Generator: Adobe Illustrator 19.2.1, SVG Export Plug-In . SVG Version: 6.00 Build 0)  -->
<svg version="1.1" xmlns="http://www.w3.org/2000/svg" xmlns:xlink="http://www.w3.org/1999/xlink" x="0px" y="0px"
	 viewBox="0 0 340 160" style="enable-background:new 0 0 340 160;" xml:space="preserve">
<style type="text/css">
	.st0{display:none;}
	.st1{display:inline;fill:#F2F2F2;}
	.st2{fill:#444444;}
	.st3{fill:#FFFFFF;}
	.st4{fill:#969898;}
	.st5{opacity:0.15;fill:#444444;}
	.st6{fill-rule:evenodd;clip-rule:evenodd;fill:#444444;}
	.st7{fill-rule:evenodd;clip-rule:evenodd;fill:#969898;}
	.st8{fill-rule:evenodd;clip-rule:evenodd;fill:#C9CACB;}
</style>
<g id="Layer_2" class="st0">
	<rect class="st1" width="340" height="160"/>
</g>
<g id="Layer_1">
	<g>
		<g>
			<g>
				<path class="st2" d="M228.9,80c0,35.4-29.2,64.5-64.6,64.5S99.7,115.4,99.7,80c0-35.4,29.2-64.5,64.6-64.5
					C199.7,15.5,228.9,44.6,228.9,80"/>
				<path class="st3" d="M178.9,114c27.5,11.3,22.8-17.3,8.1-39.3c-8.3-12.4-19.2-22.8-26.1-27.8c-22.8-16.7-36.7-6.5-20.7,26.2
					c5.2,10.6,11.9,17.7,17.1,24.5c4,5.1,11.7,7.7,9,10.2c-3.1,2.8-10.5-9.4-10.5-9.4c-5.5-6.6-10.7-13.7-16.1-23.4
					c-12.3-22.2-10.6-44.8,11.8-35c19,8.4,37.1,31.9,44.4,48.5c3.4,7.7,12.5,38.1-16.7,25.9"/>
				<path class="st4" d="M93.1,99.1c12.1-8.1,23.6-13.3,43.2-19.8c27.5-9.1,48.2-15.2,73.7-28c12.4-6.2,30.7-18.3,38-29.9
					c-2.1,4.3-8.5,12.9-11.5,16.7C202,81.3,128.6,78.8,93.5,99.6"/>
				<path class="st3" d="M110.7,67.6c11.1,0.1,10,0,10.2,0.1c0.2,0,8.9,14.9,8.9,15.1c0,0.1-0.1-5.3-0.1-12c0-0.8-2.1-3-2.1-3
					c3.2,0,7.3,0.1,7.3,0.1c-1.6,1.8-1.9,1.7-1.9,2.8c0,3.6-0.1,10.3,0,17.7c0,1.1,0.8,1.6,2.2,3.5H125c-3.3-5.5-9.4-15.8-9.3-15.8
					c0,0-0.1,6.5,0.1,11.6c0.1,1.7,0.8,2.3,2.3,3.8c0,0,1.6,0-8,0.1c2.9-1.6,2.5-3.5,2.5-3.6c-0.1-7.1,0-13.3,0-17.2
					c0-0.6,0-0.6-2.1-3"/>
				<path class="st3" d="M145.4,78.6c0.9-3.2,1.7-6.1,2.1-8c0.1-0.3-0.7-1.5-1.9-2.7l-0.1-0.2c5.9,0,12.1,0,12.1,0
					c1.6,3.9,5.3,15,8.1,21.8c0.7,1.8,2,2.1,2,2.1c-5.1-0.1-14.4,0-14.4-0.1c2.5-2.3,2.2-2.3,1.1-5.6h-7.9c-1.6,3.8,0.5,5.5,0.8,5.5
					c-1.8,0.1-7.9,0-7.9,0c3.3-2.3,3.1-3,3.1-3C143.4,85.3,144.5,81.8,145.4,78.6l3.2,0c-0.7,2.2-1.4,4.5-1.4,4.5h6.3l-3.5-8.9
					c0,0-0.7,2.2-1.4,4.5H145.4"/>
				<path class="st3" d="M199.6,78.9c0.9-3.2,1.7-6.1,2.1-8c0.1-0.3-0.7-1.5-1.9-2.7l-0.1-0.2c5.9,0,12.1,0.1,12.1,0.1
					c1.6,3.9,5.3,15,8.1,21.8c0.7,1.8,2,2.1,2,2.1c-5.1-0.1-14.4,0-14.4-0.1c2.5-2.3,2.2-2.3,1.1-5.6h-7.9c-1.6,3.8,0.5,5.5,0.8,5.5
					c-1.8,0.1-7.9,0-7.9,0c3.3-2.3,3.1-3,3.1-3C197.7,85.7,198.7,82.1,199.6,78.9l3.2,0c-0.7,2.2-1.4,4.5-1.4,4.5h6.3l-3.5-8.9
					c0,0-0.7,2.2-1.4,4.5H199.6"/>
				<path class="st3" d="M189.5,73.6c-0.1-4.6,0-6.1,0-6.1c-2,1.6-1,1.4-6,0.6c-14.5-2.4-15.6,11.1-7.7,14.2c6.6,2.5,9,3,8,5.4
					c-0.3,0.8-6.3,3.6-12.6-2.1l0.1,8c0.8-0.8,2.9-2.3,2.9-2.3c0.1,0,6.7,2.9,12.8-0.1c9.3-4.7,4.6-12.4-5.2-15.4
					C173.5,73.3,181.2,67.4,189.5,73.6"/>
				<path class="st4" d="M248.1,21.7c-9.8,29.2-49.3,51.7-82.5,73.3c-20,13-39.9,27.9-53.6,40.7c-3.6,3.4,0.7-1.3-0.6,0.2
					c19.1-22,41.1-35.1,53.2-43.3c20.5-13.9,32.2-17.5,67.6-50.1"/>
				<path class="st3" d="M178.9,114c27.5,11.3,22.8-17.3,8.1-39.3c-8.3-12.4-18.6-22.3-26.1-27.8c-8.7-6.4-9.5-7-9.5-7
					c19.4,9.2,37.1,31.9,44.4,48.5c3.4,7.7,12.5,38.1-16.7,25.9"/>
				<path class="st3" d="M165.2,21.3c0,0.3-0.2,0.5-0.5,0.5c-0.3,0-0.5-0.2-0.5-0.5c0-0.3,0.2-0.5,0.5-0.5
					C165,20.8,165.2,21,165.2,21.3"/>
				<path class="st3" d="M168.8,29.3c0,0.4-0.3,0.6-0.6,0.6c-0.4,0-0.6-0.3-0.6-0.6c0-0.4,0.3-0.6,0.6-0.6
					C168.5,28.7,168.8,28.9,168.8,29.3"/>
				<path class="st3" d="M178.3,42.3c0,0.4-0.3,0.6-0.6,0.6c-0.4,0-0.6-0.3-0.6-0.6c0-0.4,0.3-0.6,0.6-0.6
					C178,41.7,178.3,42,178.3,42.3"/>
				<path class="st3" d="M163.1,33.8c0,0.3-0.2,0.5-0.5,0.5s-0.5-0.2-0.5-0.5c0-0.3,0.2-0.5,0.5-0.5
					C162.8,33.3,163.1,33.5,163.1,33.8"/>
				<path class="st3" d="M168.7,36.8c0,0.3-0.2,0.5-0.5,0.5c-0.3,0-0.5-0.2-0.5-0.5c0-0.3,0.2-0.5,0.5-0.5
					C168.5,36.3,168.7,36.5,168.7,36.8"/>
				<path class="st3" d="M161.4,28.4c0,0.4-0.3,0.6-0.6,0.6c-0.4,0-0.6-0.3-0.6-0.6s0.3-0.6,0.6-0.6
					C161.1,27.8,161.4,28.1,161.4,28.4"/>
				<path class="st3" d="M152.8,33.6c0,0.3-0.2,0.5-0.5,0.5c-0.3,0-0.5-0.2-0.5-0.5c0-0.3,0.2-0.5,0.5-0.5
					C152.6,33.1,152.8,33.3,152.8,33.6"/>
				<path class="st3" d="M154.3,34.7c0,0.3-0.2,0.5-0.5,0.5c-0.3,0-0.5-0.2-0.5-0.5c0-0.3,0.2-0.5,0.5-0.5
					C154.1,34.2,154.3,34.4,154.3,34.7"/>
				<path class="st3" d="M155.9,35.7c0,0.3-0.2,0.5-0.5,0.5c-0.3,0-0.5-0.2-0.5-0.5c0-0.3,0.2-0.5,0.5-0.5
					C155.6,35.2,155.9,35.4,155.9,35.7"/>
				<path class="st3" d="M153.5,37.8c0,0.3-0.2,0.5-0.5,0.5c-0.3,0-0.5-0.2-0.5-0.5c0-0.3,0.2-0.5,0.5-0.5
					C153.3,37.2,153.5,37.5,153.5,37.8"/>
				<path class="st3" d="M141.3,46.3c0,0.3-0.2,0.5-0.5,0.5c-0.3,0-0.5-0.2-0.5-0.5c0-0.3,0.2-0.5,0.5-0.5
					C141.1,45.8,141.3,46,141.3,46.3"/>
				<path class="st3" d="M143.6,49.1c0,0.3-0.2,0.5-0.5,0.5c-0.3,0-0.5-0.2-0.5-0.5c0-0.3,0.2-0.5,0.5-0.5
					C143.3,48.5,143.6,48.8,143.6,49.1"/>
				<path class="st3" d="M141.8,93.5c0,0.3-0.2,0.5-0.5,0.5c-0.3,0-0.5-0.2-0.5-0.5c0-0.3,0.2-0.5,0.5-0.5
					C141.6,92.9,141.8,93.2,141.8,93.5"/>
				<path class="st3" d="M142.1,105.7c0,0.4-0.3,0.6-0.6,0.6c-0.4,0-0.6-0.3-0.6-0.6c0-0.4,0.3-0.6,0.6-0.6
					C141.8,105.1,142.1,105.4,142.1,105.7"/>
				<path class="st3" d="M135.2,112c0,0.3-0.2,0.5-0.5,0.5c-0.3,0-0.5-0.2-0.5-0.5s0.2-0.5,0.5-0.5
					C134.9,111.5,135.2,111.7,135.2,112"/>
				<path class="st3" d="M126.8,114.5c0,0.4-0.3,0.6-0.6,0.6c-0.4,0-0.6-0.3-0.6-0.6c0-0.4,0.3-0.6,0.6-0.6
					C126.5,113.9,126.8,114.2,126.8,114.5"/>
				<path class="st3" d="M125.1,108.9c0,0.4-0.3,0.6-0.6,0.6c-0.4,0-0.6-0.3-0.6-0.6c0-0.4,0.3-0.6,0.6-0.6
					C124.8,108.2,125.1,108.5,125.1,108.9"/>
				<path class="st3" d="M124.2,112.5c0,0.3-0.2,0.5-0.5,0.5c-0.3,0-0.5-0.2-0.5-0.5c0-0.3,0.2-0.5,0.5-0.5
					C123.9,111.9,124.2,112.2,124.2,112.5"/>
				<path class="st3" d="M117.9,109.5c0,0.3-0.2,0.5-0.5,0.5c-0.3,0-0.5-0.2-0.5-0.5c0-0.3,0.2-0.5,0.5-0.5
					C117.7,108.9,117.9,109.2,117.9,109.5"/>
				<path class="st3" d="M139.7,119.6c0,0.3-0.2,0.5-0.5,0.5c-0.3,0-0.5-0.2-0.5-0.5c0-0.3,0.2-0.5,0.5-0.5
					C139.5,119.1,139.7,119.3,139.7,119.6"/>
				<path class="st3" d="M146.3,114.8c0,0.4-0.3,0.6-0.6,0.6c-0.4,0-0.6-0.3-0.6-0.6c0-0.4,0.3-0.6,0.6-0.6
					C146,114.1,146.3,114.4,146.3,114.8"/>
				<path class="st3" d="M147,121c0,0.3-0.2,0.5-0.5,0.5c-0.3,0-0.5-0.2-0.5-0.5c0-0.3,0.2-0.5,0.5-0.5
					C146.7,120.4,147,120.7,147,121"/>
				<path class="st3" d="M173.9,115.1c0,0.3-0.2,0.5-0.5,0.5c-0.3,0-0.5-0.2-0.5-0.5c0-0.3,0.2-0.5,0.5-0.5
					C173.7,114.5,173.9,114.8,173.9,115.1"/>
				<path class="st3" d="M161.4,119.5c0,0.3-0.2,0.5-0.5,0.5c-0.3,0-0.5-0.2-0.5-0.5c0-0.3,0.2-0.5,0.5-0.5
					C161.1,119,161.4,119.2,161.4,119.5"/>
				<path class="st3" d="M195.1,125.9c0,0.3-0.2,0.5-0.5,0.5c-0.3,0-0.5-0.2-0.5-0.5c0-0.3,0.2-0.5,0.5-0.5
					C194.9,125.4,195.1,125.6,195.1,125.9"/>
				<path class="st3" d="M197.9,101c0,0.4-0.3,0.6-0.6,0.6c-0.4,0-0.6-0.3-0.6-0.6c0-0.4,0.3-0.6,0.6-0.6
					C197.6,100.4,197.9,100.7,197.9,101"/>
				<path class="st3" d="M192.7,104.5c0,0.3-0.2,0.5-0.5,0.5c-0.3,0-0.5-0.2-0.5-0.5c0-0.3,0.2-0.5,0.5-0.5
					C192.5,104,192.7,104.3,192.7,104.5"/>
				<path class="st3" d="M197.8,105.6c0,0.4-0.3,0.6-0.6,0.6c-0.4,0-0.6-0.3-0.6-0.6c0-0.4,0.3-0.6,0.6-0.6
					C197.5,104.9,197.8,105.2,197.8,105.6"/>
				<path class="st3" d="M192.7,111.8c0,0.3-0.2,0.5-0.5,0.5c-0.3,0-0.5-0.2-0.5-0.5c0-0.3,0.2-0.5,0.5-0.5
					C192.5,111.3,192.7,111.5,192.7,111.8"/>
				<path class="st3" d="M205.9,97.5c0,0.3-0.2,0.5-0.5,0.5c-0.3,0-0.5-0.2-0.5-0.5c0-0.3,0.2-0.5,0.5-0.5
					C205.7,97,205.9,97.2,205.9,97.5"/>
				<path class="st3" d="M207.2,100.7c0,0.4-0.3,0.6-0.6,0.6c-0.4,0-0.6-0.3-0.6-0.6c0-0.4,0.3-0.6,0.6-0.6
					C206.9,100.1,207.2,100.3,207.2,100.7"/>
				<path class="st3" d="M216.3,104.5c0,0.4-0.3,0.6-0.6,0.6s-0.6-0.3-0.6-0.6c0-0.4,0.3-0.6,0.6-0.6S216.3,104.1,216.3,104.5"/>
				<path class="st3" d="M207,111.3c0,0.3-0.2,0.5-0.5,0.5c-0.3,0-0.5-0.2-0.5-0.5c0-0.3,0.2-0.5,0.5-0.5
					C206.8,110.7,207,111,207,111.3"/>
				<path class="st3" d="M212.9,105.8c0,0.3-0.2,0.5-0.5,0.5c-0.3,0-0.5-0.2-0.5-0.5c0-0.3,0.2-0.5,0.5-0.5
					C212.6,105.2,212.9,105.5,212.9,105.8"/>
				<path class="st3" d="M211.8,114.2c0,0.3-0.2,0.5-0.5,0.5c-0.3,0-0.5-0.2-0.5-0.5c0-0.3,0.2-0.5,0.5-0.5
					C211.6,113.7,211.8,114,211.8,114.2"/>
				<path class="st3" d="M214.3,100.1c0,0.4-0.4,0.8-0.8,0.8c-0.4,0-0.8-0.4-0.8-0.8c0-0.4,0.4-0.8,0.8-0.8S214.3,99.7,214.3,100.1"
					/>
				<polyline class="st3" points="213.4,97.7 213.2,99.9 211,100.1 213.2,100.4 213.5,102.7 213.7,100.4 215.9,100.1 213.7,99.9 
					213.4,97.7 				"/>
				<path class="st3" d="M208.6,114.2c0,0.4-0.4,0.8-0.8,0.8c-0.4,0-0.8-0.4-0.8-0.8c0-0.4,0.4-0.8,0.8-0.8
					C208.2,113.4,208.6,113.8,208.6,114.2"/>
				<polyline class="st3" points="207.8,111.7 207.5,114 205.3,114.2 207.6,114.4 207.8,116.7 208,114.4 210.2,114.2 208,114 
					207.8,111.7 				"/>
				<path class="st3" d="M148.2,47.4c0,0.4-0.4,0.8-0.8,0.8c-0.4,0-0.8-0.4-0.8-0.8s0.4-0.8,0.8-0.8C147.8,46.6,148.2,47,148.2,47.4
					"/>
				<polyline class="st3" points="147.4,44.9 147.2,47.2 145,47.4 147.2,47.7 147.4,50 147.7,47.7 149.9,47.4 147.6,47.2 
					147.4,44.9 				"/>
				<path class="st3" d="M178.3,27.8c0,0.4-0.4,0.8-0.8,0.8c-0.4,0-0.8-0.4-0.8-0.8c0-0.4,0.4-0.8,0.8-0.8
					C178,27,178.3,27.4,178.3,27.8"/>
				<polyline class="st3" points="177.5,25.4 177.3,27.6 175.1,27.8 177.3,28.1 177.5,30.4 177.8,28.1 180,27.8 177.8,27.6 
					177.5,25.4 				"/>
				<path class="st3" d="M141.7,127.1c0,0.4-0.4,0.8-0.8,0.8c-0.4,0-0.8-0.4-0.8-0.8s0.4-0.8,0.8-0.8
					C141.4,126.3,141.7,126.7,141.7,127.1"/>
				<polyline class="st3" points="140.9,124.7 140.7,126.9 138.5,127.1 140.7,127.4 140.9,129.7 141.2,127.4 143.4,127.1 
					141.2,126.9 140.9,124.7 				"/>
				<path class="st4" d="M101.3,94c-3.5,1.7-6.7,3.4-9.4,5.1l1.6,0.6c2.3-1.4,5.2-3,8.1-4.3"/>
				<path class="st4" d="M119.9,126.7c-3.2,2.8-6.6,5.8-9.9,9l-0.1,2.2c3.1-3.2,6.8-6.6,11.2-10.2"/>
			</g>
		</g>
	</g>
</g>
</svg>
