<?xml version="1.0" encoding="utf-8"?>
<!-- Generator: Adobe Illustrator 19.2.1, SVG Export Plug-In . SVG Version: 6.00 Build 0)  -->
<svg version="1.1" xmlns="http://www.w3.org/2000/svg" xmlns:xlink="http://www.w3.org/1999/xlink" x="0px" y="0px"
	 viewBox="0 0 340 160" style="enable-background:new 0 0 340 160;" xml:space="preserve">
<style type="text/css">
	.st0{fill:#F2F2F2;}
	.st1{fill:#444444;}
	.st2{fill:#FFFFFF;}
	.st3{fill:#969898;}
	.st4{opacity:0.15;fill:#444444;}
	.st5{fill-rule:evenodd;clip-rule:evenodd;fill:#444444;}
	.st6{fill-rule:evenodd;clip-rule:evenodd;fill:#969898;}
	.st7{clip-path:url(#SVGID_2_);fill:#444444;}
	.st8{clip-path:url(#SVGID_4_);fill:#444444;}
	.st9{clip-path:url(#SVGID_6_);fill:#444444;}
	.st10{fill:#444445;}
</style>
<g id="Layer_2">
</g>
<g id="Layer_1">
	<g>
		<path class="st10" d="M183.7,86.2l6.3-22.7l6.2,22.7H183.7 M196.9,53.5c-0.6-0.4-1.3-0.6-2.1-0.7l-13,0L165.3,107H178l2.9-10.6
			h18.2l2.9,10.6h12.7l-15.6-50.9C198.8,55,198,54.1,196.9,53.5"/>
		<path class="st10" d="M244,52.7L232.5,96L221,52.7h-12.6l15.3,54.3h13.4c2.4-0.1,4.4-1.6,5.1-3.8l0,0l14.3-50.5H244"/>
		<path class="st10" d="M154.4,130.6H154v0.7h0.4c0.2,0,0.4-0.2,0.4-0.4C154.8,130.8,154.7,130.6,154.4,130.6 M154.8,132.9l-0.5-1
			H154v1h-0.6v-2.7h1.1c0.6,0,0.9,0.4,0.9,0.8c0,0.4-0.3,0.6-0.5,0.7l0.6,1.2H154.8z M154.3,129.5c-1.1,0-2,0.8-2,2c0,1.1,0.9,2,2,2
			c1.1,0,2-0.9,2-2C156.4,130.3,155.5,129.5,154.3,129.5 M154.3,134.1c-1.5,0-2.7-1.2-2.7-2.6c0-1.4,1.2-2.6,2.7-2.6
			c1.5,0,2.7,1.2,2.7,2.6C157,132.9,155.8,134.1,154.3,134.1"/>
		<path class="st10" d="M306.7,103.7h-0.4v0.7h0.4c0.2,0,0.4-0.2,0.4-0.4C307.1,103.9,306.9,103.7,306.7,103.7 M307,105.9l-0.5-1
			h-0.3v1h-0.6v-2.7h1.1c0.6,0,0.9,0.4,0.9,0.8c0,0.4-0.2,0.6-0.5,0.7l0.6,1.1H307z M306.6,102.6c-1.1,0-2,0.8-2,2c0,1.1,0.9,2,2,2
			c1.1,0,2-0.9,2-2C308.6,103.4,307.7,102.6,306.6,102.6 M306.6,107.1c-1.5,0-2.7-1.2-2.7-2.6c0-1.4,1.2-2.6,2.7-2.6
			c1.5,0,2.7,1.1,2.7,2.6C309.2,106,308,107.1,306.6,107.1"/>
		<path class="st10" d="M48.7,73.2c0,1.3,1.1,2.4,2.4,2.4h45.7l-9.9-40.2l0-0.2c0-2,1.7-3.7,3.7-3.7h1.3l-0.4-4
			c-0.1-1.3-1.2-2.2-2.4-2.2H86c-1.2,0-2.3,0.9-2.4,2.2l-1.2,13c-0.1,0.4-0.5,0.7-1,0.7c-0.5,0-1-0.4-1-1l-1.2-12.7
			c-0.1-1.3-1.2-2.3-2.4-2.3h-3.1c-1.3,0-2.3,1-2.4,2.2l-1.2,12.9c-0.1,0.4-0.5,0.8-1,0.8c-0.6,0-1-0.4-1-1l-1.2-12.8
			c-0.1-1.2-1.2-2.2-2.4-2.2h-3.1c-1.3,0-2.3,1-2.4,2.3l-1.1,12.9c-0.1,0.5-0.5,0.8-1,0.8c-0.5,0-1-0.4-1-1l-1.1-12.7
			c-0.1-1.3-1.2-2.3-2.4-2.3H51c-1.3,0-2.4,1.1-2.4,2.4L48.7,73.2L48.7,73.2"/>
		<path class="st10" d="M102.5,27.8c0-1.3-1.1-2.5-2.4-2.5h-1.3c-1.2,0-2.3,0.9-2.4,2.2l0,0l-0.4,4h6.6V27.8"/>
		<path class="st10" d="M134.9,40.7L134.9,40.7l14.4-1c1.3-0.1,2.2-1.1,2.2-2.3V36c0-1.3-1.1-2.4-2.4-2.4H92c-1.3,0-2.4,1-2.4,2.3
			l10.1,40.7l0,0l1.1,4.2l44.1-10.9l0.2,0c2,0,3.7,1.7,3.7,3.8v2.1l0.7-0.1c1.3-0.1,2.2-1.1,2.2-2.3v-3.1c0-1.2-0.9-2.2-2.2-2.4
			l-14.7-1.2c-0.5-0.1-0.8-0.5-0.8-1c0-0.5,0.4-1,1-1l14.4-1.1c1.3-0.1,2.3-1.1,2.3-2.4v-3.1c0-1.2-1-2.2-2.2-2.3l-14.6-1.2
			c-0.5-0.1-0.8-0.5-0.8-1c0-0.6,0.4-1,1-1l14.5-1.1c1.2-0.1,2.2-1.1,2.2-2.4v-3c0-1.2-1-2.3-2.3-2.4l-14.6-1.1
			c-0.5-0.1-0.8-0.5-0.8-1C133.9,41.1,134.3,40.7,134.9,40.7"/>
		<path class="st10" d="M149.4,79.9L149.4,79.9l-0.7-0.1V86h0.5c1.3,0,2.4-1.1,2.4-2.4v-1.3C151.5,81.1,150.6,80.1,149.4,79.9"/>
		<path class="st10" d="M94.9,132.2c0,1.3,1,2.4,2.3,2.4h1.3c1.2,0,2.2-0.9,2.3-2.2h0l0.2-2.8h-6.2V132.2"/>
		<path class="st10" d="M144.3,72.5l-43.4,11l10.3,42.4c0.2,1-0.1,1.8-0.6,2.5c-0.7,0.8-1.8,1.3-3.1,1.3h-2.7l0.2,2.8
			c0.1,1.3,1.1,2.3,2.3,2.3h3c1.2,0,2.2-0.9,2.3-2.2l1.2-14.8c0.1-0.5,0.5-0.8,1-0.8c0.5,0,1,0.4,1,1l1.1,14.5
			c0.1,1.3,1.1,2.3,2.3,2.3h3c1.2,0,2.2-1,2.3-2.3l1.1-14.7c0.1-0.5,0.5-0.8,1-0.8c0.5,0,1,0.4,1,1l1.1,14.6
			c0.1,1.2,1.1,2.2,2.3,2.2h3c1.2,0,2.2-1,2.3-2.3l1.1-14.7c0.1-0.5,0.5-0.8,1-0.8c0.5,0,1,0.4,1,1h0l1,14.5
			c0.1,1.3,1.1,2.3,2.3,2.3h1.3c1.3,0,2.3-1.1,2.3-2.5V74.9C146.6,73.6,145.6,72.5,144.3,72.5"/>
		<path class="st10" d="M108.9,126.8c0.3-0.4,0.4-0.8,0.4-1.4L98.5,82.7l0,0l-1.1-4.4H50.7c-1.8,0-3.4-1.3-3.7-3h-1.7
			c-1.4,0-2.5,1-2.5,2.4v1.3c0,1.2,0.9,2.2,2.2,2.3l0,0l14.8,1.2c0.5,0.1,0.8,0.5,0.8,1c0,0.5-0.4,1-1,1L45,85.6
			c-1.3,0.1-2.3,1.1-2.3,2.4V91c0,1.2,0.9,2.2,2.2,2.4l14.8,1.2c0.5,0.1,0.8,0.5,0.8,1c0,0.6-0.4,1-1,1h0L45,97.6
			c-1.3,0.1-2.3,1.1-2.3,2.4v3.1c0,1.2,1,2.2,2.3,2.3l14.6,1.1l0.2,0c0.5,0.1,0.8,0.5,0.8,1c0,0.5-0.4,1-1,1h0l-14.7,1.1
			c-1.2,0.1-2.2,1.1-2.2,2.4v3.1c0,1.2,1,2.3,2.3,2.4l14.7,1.1c0.5,0.1,0.8,0.5,0.8,1c0,0.5-0.4,1-1,1l-14.6,1
			c-1.3,0.1-2.3,1.1-2.3,2.4v1.3c0,1.3,1.1,2.4,2.5,2.4h61.5C107.7,127.6,108.5,127.3,108.9,126.8"/>
		<path class="st10" d="M288.9,83v12.5h-11.7c-3,0-5.4-2.4-5.4-5.4V69.8c0-3,2.4-5.5,5.4-5.5h16.1l3.5-11.6h-21
			c-8.9,0-16.1,7.3-16.1,16.4v21.6c0,9,7.2,16.4,16.1,16.4h24.5V79.6h-15.2L288.9,83"/>
	</g>
</g>
</svg>
