<?xml version="1.0" encoding="utf-8"?>
<!-- Generator: Adobe Illustrator 19.2.1, SVG Export Plug-In . SVG Version: 6.00 Build 0)  -->
<svg version="1.1" xmlns="http://www.w3.org/2000/svg" xmlns:xlink="http://www.w3.org/1999/xlink" x="0px" y="0px"
	 viewBox="0 0 340 160" style="enable-background:new 0 0 340 160;" xml:space="preserve">
<style type="text/css">
	.st0{display:none;}
	.st1{display:inline;fill:#F2F2F2;}
	.st2{fill:#444444;}
	.st3{fill:#FFFFFF;}
	.st4{fill:#969898;}
	.st5{opacity:0.15;fill:#444444;}
	.st6{fill-rule:evenodd;clip-rule:evenodd;fill:#444444;}
	.st7{fill-rule:evenodd;clip-rule:evenodd;fill:#969898;}
	.st8{fill-rule:evenodd;clip-rule:evenodd;fill:#C9CACB;}
</style>
<g id="Layer_2" class="st0">
	<rect class="st1" width="340" height="160"/>
</g>
<g id="Layer_1">
	<g>
		<path class="st2" d="M142.1,86.9c0-4.3-0.1-7.5-0.3-10.3h7l0.3,6.1h0.2c1.6-4.5,5.3-6.8,8.8-6.8c0.8,0,1.3,0,1.9,0.2v7.7
			c-0.8-0.1-1.5-0.2-2.4-0.2c-3.9,0-6.6,2.5-7.3,6.1c-0.1,0.7-0.2,1.6-0.2,2.5v16.7H142L142.1,86.9z"/>
		<path class="st2" d="M184,89.2c0-3-1.3-7.8-6.7-7.8c-5,0-7.1,4.5-7.4,7.8H184z M169.9,94.8c0.2,5.8,4.7,8.4,9.9,8.4
			c3.7,0,6.4-0.6,8.9-1.5l1.2,5.6c-2.8,1.2-6.6,2-11.2,2c-10.4,0-16.5-6.4-16.5-16.3c0-8.9,5.4-17.3,15.7-17.3
			c10.4,0,13.8,8.6,13.8,15.6c0,1.5-0.1,2.7-0.3,3.5L169.9,94.8z"/>
		<path class="st2" d="M283.9,91.8c-6.9-0.2-16,0.8-16,8.4c0,4.6,3,6.6,6.3,6.6c5.3,0,8.3-3.3,9.4-6.3c0.2-0.7,0.3-1.4,0.3-1.9V91.8
			z M287,101.2c0,2.5,0.1,5.1,0.5,7.5h-2.9l-0.5-4.5H284c-1.5,2.4-5.1,5.3-10.1,5.3c-6.4,0-9.3-4.5-9.3-8.7
			c0-7.3,6.5-11.7,19.3-11.6v-0.8c0-3.1-0.6-9.4-8.1-9.3c-2.8,0-5.7,0.7-8,2.4l-1-2.3c2.9-2,6.4-2.7,9.3-2.7
			c9.1,0,10.9,6.9,10.9,12.5V101.2z"/>
		<path class="st2" d="M299.5,70.1v7h9v2.5h-9v20.6c0,4,1.3,6.6,4.7,6.6c1.6,0,2.8-0.2,3.6-0.5l0.4,2.4c-1,0.4-2.5,0.8-4.4,0.8
			c-2.3,0-4.2-0.7-5.5-2.2c-1.4-1.7-1.9-4.3-1.9-7.6v-20H291V77h5.3v-5.8L299.5,70.1z"/>
		<path class="st2" d="M247.9,76.3c-2.4,0-4.6,0.7-6.4,1.8c-1.9,1.1-3.4,2.8-4.3,4.6h-0.1V67l-3.1-0.9v42.5h3.1V89.4
			c0-1.3,0.1-2.2,0.4-3.1c1.4-3.9,5.1-7.2,9.6-7.2c6.5,0,8.7,5.2,8.7,10.9v18.8h3.1V89.6C258.9,77.8,250.9,76.3,247.9,76.3"/>
		<path class="st2" d="M218.6,94.8c0,0.9-0.1,1.6-0.2,2.4c-0.8,3.5-3.7,5.8-7,5.8c-5.1,0-8-4.3-8-10.2c0-6,2.9-10.6,8.1-10.6
			c3.7,0,6.3,2.6,7,5.7c0.1,0.7,0.2,1.5,0.2,2.1V94.8z M226.7,64.2l-8.1-2.2v18h-0.1c-1.4-2.4-4.6-4.2-9-4.2
			c-7.7,0-14.5,6.4-14.4,17.2c0,9.9,6.1,16.4,13.7,16.4c4.6,0,8.5-2.2,10.4-5.8h0.1l0.4,5.1h7.2c-0.1-2.2-0.3-5.7-0.3-9V64.2z"/>
		<path class="st2" d="M81.6,105.2c0.2,0.2,0.7,1,0.1,2c-0.3,0.5-0.6,0.9-1.1,1.3c-0.7,0.5-1.9,1.1-3.7,0c-1-0.6-1-0.8-2.3-0.6
			c-0.9,0.1-1.3-0.8-1-1.6c0.3-0.8,1.7-1.4,3.4-0.4c0.8,0.5,2,1.4,3,0.6c0.4-0.4,0.7-0.6,1.3-1.3C81.5,105.1,81.5,105.1,81.6,105.2
			C81.6,105.1,81.6,105.1,81.6,105.2"/>
		<g>
			<path class="st2" d="M66,57.8c-2.3,0-3.9,0.3-5.3,0.3c-1.4,0-2.5-1-3-1.6c-0.4-0.5-1.8-1-2.5,0.7c-0.7,1.7,0.6,3.5,1.8,3.8
				c0,0,1.9,3.5,3.3,2c1-1.1,1.6-1.7,7-2.1c2.6-0.2,2.8-0.8,2.8-1.4C69.9,58.6,68.3,57.8,66,57.8z"/>
			<path class="st2" d="M79,50.3c-0.1,0-0.2,0-0.3,0c-0.5,0-1,0-1.6,0.1c-1.8,0.2-3.4,0.6-4.4,1.2c-0.1,0-0.1,0.1-0.1,0.1
				c0,0.1,0.1,0.1,0.2,0.1c0,0,0,0,0,0c0.3,0,0.6-0.1,0.9-0.1c2.9-0.3,5.4,0.2,5.5,1.1c0.1,0.7-1.2,1.4-3.1,1.8
				c-0.1,0-0.2,0.1-0.2,0.2s0.1,0.2,0.2,0.2c0.8,0.2,1.7,0.4,2.7,0.4c3,0.1,5.5-1,5.5-2.4C84.4,51.6,82,50.4,79,50.3z"/>
			<path class="st2" d="M70.8,38.5c-25.9,0-46.9,21-46.9,46.9c0,5.2,0.9,10.3,2.4,15l3.3,0c2.9,0,5.6-0.7,7.8-1.9
				c0.6-0.3,1.2-0.5,1.9-0.5c1.4,0,2.7,0.6,3.5,1.8c0.7,1.2,1.3,1.9,2.1,2.4c0.7,0.4,1.6,0.8,2.9,0.7c0.6,0,1.5-0.2,1.8-0.8
				c0.3-0.7-0.1-1.3-1-1.7c-1.3-0.5-1.6-1.3-2.3-2.5c-0.7-1.2-2.1-1.8-2.4-4.1c-0.2-2.2,1.5-5,4.9-4.1c2.5,0.6,4.1,3.7,4.7,4.8
				c0.3,0.6,1.4,1.2,2.3,0.4c0.9-0.8,1.7-0.8,2.4,0.2c0.6,0.9,4.8,6.5,9.4,6.7c4.6,0.1,7.1-1,9.1-1c1.4,0.1,2.1,0.8,2.9,0.9
				c1.4,0.2,2.4-1.1,4-1c1.3,0.1,2.7,0.9,4.1,0.9c1.4,0,4.4-1.7,4.4-1c-0.1,1.3-1,3.5-1.3,4.5c-0.2,0.7,0,2.4-0.4,3.8
				c-0.4,1.4-1.7,3.2-2,3.7c-1.1,1.7-2,2.2-2.9,4c-1,2-2.8,3.9-3.2,4.5c-0.6,0.8,3.3,0,4.6-1.3c1.2-1.1,3.2-4.4,6.4-5.1
				c2.2-0.5,2.6-1.3,2.3-2.1c0-0.1-0.1-0.2-0.1-0.3c0-0.3,0.2-0.5,0.4-0.7c2.2-0.9,5.2-1.5,8.6-1.5c1.9,0,3.9,0.3,5.7,0.7
				c4.8-7.3,7.5-16.1,7.5-25.5C117.7,59.5,96.7,38.5,70.8,38.5z M109,84.4c-2.2,12.3-22.4,16.5-42.1,10.5
				c-18.7-5.7-35.1-17-33.2-23.6c1.1-3.9,7.2-5.5,15.3-4.6c-1.2,2.5-1.1,5.5,4.2,8.8c6.6,3.7,17.7,6.9,20.7,6.6
				c1.1-0.1,2.1-0.7,1.1-1.3c-1-0.7-1.9-2-2.5-4.4c-0.3-1.3-0.7-3.1-7.7-4.5c-15.2-2.9-14.6-7.2-14.1-9.6c0,0,1.3-6.1,1.9-8.2
				c0.6-2.1,2-7,11.8-4.8c5.6,1.3,8.7-0.3,10.2-0.7c4.2-1.1,8.9-0.3,11.5,2.3c2.7,2.8,6.4,11.2,8.1,17.6c0.9,3.2,0.7,4.8,0.2,5.9
				c-0.3,0.7-0.5,1.2-1.6,3.1c-0.2,0.3,0,0.7,0.4,0.5c2.9-1.5,3.6-3.5,4.1-5.1C105.2,74.7,110,78.8,109,84.4z"/>
		</g>
		<path class="st2" d="M313.3,107v-0.7h0.5c0.2,0,0.5,0.1,0.5,0.3c0,0.4-0.3,0.4-0.6,0.4H313.3z M313.3,107.3h0.4l0.6,1h0.4l-0.7-1
			c0.3,0,0.6-0.2,0.6-0.7c0-0.5-0.3-0.7-0.8-0.7H313v2.4h0.4V107.3z"/>
		<path class="st2" d="M313.8,105.3c-1.1,0-1.9,0.9-1.9,1.9c0,1.1,0.9,1.9,1.9,1.9c1.1,0,1.9-0.9,1.9-1.9
			C315.7,106.1,314.8,105.3,313.8,105.3 M316.1,107.2c0,1.3-1,2.3-2.3,2.3c-1.3,0-2.3-1-2.3-2.3c0-1.3,1-2.3,2.3-2.3
			C315,104.8,316.1,105.9,316.1,107.2"/>
		<path class="st2" d="M117.7,107v-0.7h0.5c0.2,0,0.5,0.1,0.5,0.3c0,0.4-0.3,0.4-0.6,0.4H117.7z M117.7,107.3h0.4l0.6,1h0.4l-0.7-1
			c0.3,0,0.6-0.2,0.6-0.7c0-0.5-0.3-0.7-0.8-0.7h-0.9v2.4h0.4V107.3z"/>
		<path class="st2" d="M118.1,105.3c-1.1,0-1.9,0.9-1.9,1.9c0,1.1,0.9,1.9,1.9,1.9c1.1,0,1.9-0.9,1.9-1.9
			C120,106.1,119.2,105.3,118.1,105.3 M120.4,107.2c0,1.3-1,2.3-2.3,2.3c-1.3,0-2.3-1-2.3-2.3c0-1.3,1-2.3,2.3-2.3
			C119.4,104.8,120.4,105.9,120.4,107.2"/>
	</g>
</g>
</svg>
