<svg xmlns="http://www.w3.org/2000/svg" viewBox="0 0 340 160" enable-background="new 0 0 340 160"><path d="m50.3 66.6c-2.3-.9-4.6-1.5-6.7-2-2.1-.4-4.1-.6-5.9-.6-2.3 0-4 .4-5.3 1.2-1.3.7-1.9 1.7-1.9 2.9 0 .8.3 1.6 1.1 2.2.7.6 1.9 1.2 3.4 1.8l8.6 4.1c3.4 1.6 5.9 3.4 7.8 5.5 1.8 2.1 2.7 4.7 2.7 7.5-.1 4.6-1.9 8.2-5.6 10.8-3.6 2.7-8.5 3.9-14.6 4-2.3 0-4.8-.1-7.4-.4-2.5-.2-5.2-.7-8-1.4v-9.5c2.8 1 5.3 1.6 7.7 2 2.4.4 4.7.6 6.7.6 2.5 0 4.5-.4 5.7-1.3 1.4-.7 2-1.8 2-3.2 0-.7-.2-1.4-.7-1.9-.5-.6-1.4-1.2-2.4-1.7l-9.6-4c-3.6-1.6-6.3-3.5-7.9-5.8-1.7-2.2-2.5-4.8-2.5-7.7.1-4.2 1.9-7.6 5.3-10.1 3.5-2.5 8.2-3.7 14.1-3.8 2.1 0 4.5.2 6.8.5 2.4.3 4.7.7 6.8 1.2-.2.1-.2 9.1-.2 9.1m23.8 36.6h-14v-46.5h14v46.5m45.2-37.9h-20.9v10.3h18v7.7h-18v10.8h21.2v9h-34.6v-46.4h34.3v8.6c0 0 0 0 0 0m65.4 37.9h-13.1v-30.6l-13.6 31.1h-8.1l-13.1-31.1v30.7h-9.4v-46.6h17.1l11.7 28.5 12.2-28.5h16.2l.1 46.5m45.1-37.9h-20.7v10.3h18v7.7h-18v10.8h21.1v9h-34.7v-46.4h34.3c0 0 0 8.6 0 8.6m49.1 37.9h-14.9l-16.7-29.8v29.8h-9.4v-46.5h15.3l16.3 29.3v-29.3h9.4v46.5m40.3-36.6c-2.3-.9-4.6-1.5-6.7-2-2.1-.4-4.1-.6-5.9-.6-2.3 0-4.1.4-5.4 1.2-1.3.7-1.9 1.7-1.9 2.9 0 .8.3 1.6 1 2.2.6.6 1.8 1.2 3.6 1.8l8.6 4.1c3.4 1.6 5.9 3.4 7.7 5.6 1.8 2.1 2.7 4.8 2.7 7.9-.1 4.4-1.9 7.9-5.6 10.4-3.6 2.7-8.6 3.9-14.8 4-2.2 0-4.7-.1-7.3-.4-2.5-.2-5.2-.7-8-1.4v-9.5c2.8 1 5.3 1.6 7.8 2 2.4.4 4.7.6 6.7.6 2.5 0 4.4-.4 5.7-1.2 1.3-.7 1.9-1.7 1.9-2.9 0-.8-.2-1.7-.7-2.3-.5-.6-1.4-1.3-2.4-1.7l-9.4-4c-3.6-1.6-6.2-3.4-7.9-5.6-1.6-2.1-2.4-4.8-2.4-8 .1-4.2 1.8-7.6 5.2-10.1 3.5-2.5 8.2-3.7 14.1-3.8 2 0 4.2.2 6.6.5 2.3.3 4.7.7 7 1.2v9.1c-.2 0-.2 0-.2 0" fill="#444"/></svg>