<?xml version="1.0" encoding="utf-8"?>
<!-- Generator: Adobe Illustrator 19.2.1, SVG Export Plug-In . SVG Version: 6.00 Build 0)  -->
<svg version="1.1" xmlns="http://www.w3.org/2000/svg" xmlns:xlink="http://www.w3.org/1999/xlink" x="0px" y="0px"
	 viewBox="0 0 340 160" style="enable-background:new 0 0 340 160;" xml:space="preserve">
<style type="text/css">
	.st0{display:none;}
	.st1{display:inline;fill:#F2F2F2;}
	.st2{fill:#444444;}
	.st3{fill:#FFFFFF;}
	.st4{fill:#969898;}
	.st5{opacity:0.15;fill:#444444;}
	.st6{fill-rule:evenodd;clip-rule:evenodd;fill:#444444;}
	.st7{fill-rule:evenodd;clip-rule:evenodd;fill:#969898;}
	.st8{fill-rule:evenodd;clip-rule:evenodd;fill:#C9CACB;}
</style>
<g id="Layer_2" class="st0">
	<rect class="st1" width="340" height="160"/>
</g>
<g id="Layer_1">
	<g id="g4346_1_" transform="matrix(1.25 0 0 -1.25 -607.14 914.86)">
		<g id="g4352_1_" transform="translate(510.41 323.86)">
			<path id="path4354_1_" class="st2" d="M106.7,325.9h-7.4c0,0-0.1,0-0.1,0l-6.4,7.8l-6.4-7.8c0,0,0,0-0.1,0h-5.9
				c0,0-0.1,0-0.1,0.1c0,0,0,0.1,0,0.1l9.4,11.5l-9.3,11.4c0,0,0,0.1,0,0.1c0,0,0.1,0.1,0.1,0.1h7.4c0,0,0.1,0,0.1,0l5.6-6.9
				l5.7,6.9c0,0,0,0,0.1,0h6c0,0,0.1,0,0.1-0.1c0,0,0-0.1,0-0.1l-8.8-10.5l10-12.3C106.8,326,106.8,325.9,106.7,325.9
				C106.8,325.9,106.8,325.9,106.7,325.9"/>
		</g>
		<g id="g4356_1_" transform="translate(577.97 356.2)">
			<path id="path4358_1_" class="st2" d="M79.1,312.6c-3.3,0-5.5-2-6.1-5.4H84v0.2C84,310.2,82,312.6,79.1,312.6 M89.8,303.7
				C89.8,303.6,89.7,303.6,89.8,303.7l-17,0c0.4-3.9,2.9-6.2,7-6.2c2.5,0,5.2,0.9,9.1,2.9c0.1,0,0.1,0,0.1-0.1l0-5.2
				c0,0,0-0.1-0.1-0.1c-3.6-1.5-7.1-2.5-9.9-2.5c-7.3,0-12.5,5.3-12.5,12.6c0,7.3,5.3,12.6,12.5,12.6c6.6,0,10.9-4.5,10.9-10.6
				C90,306,89.8,303.7,89.8,303.7"/>
		</g>
		<g id="g4360_1_" transform="translate(654.14 371.23)">
			<path id="path4362_1_" class="st2" d="M47.9,306.5c-2.1,0-3.8,1.7-3.8,3.7c0,2.1,1.7,3.8,3.8,3.8c2.1,0,3.8-1.7,3.8-3.8
				C51.6,308.1,50,306.5,47.9,306.5 M44.8,278.5C44.8,278.5,44.8,278.5,44.8,278.5l-0.1,23.1c0,0,0,0.1,0.1,0.1h6.1
				c0.1,0,0.1,0,0.1-0.1v-23c0-0.1,0-0.1-0.1-0.1C50.9,278.5,44.8,278.5,44.8,278.5z"/>
		</g>
		<g id="g4364_1_" transform="translate(529.28 329.72)">
			<path id="path4366_1_" class="st2" d="M99,323.5c-1.1,0-2.2,0.2-3.5,0.5l0,14.8c1.5,0.5,2.8,0.7,4.1,0.7c4.2,0,7.1-3.1,7.1-7.7
				C106.7,326.7,103.7,323.5,99,323.5 M100.7,344.1c-1.7,0-3.5-0.3-5.3-0.9h-6.1c-0.1,0-0.1,0-0.1-0.1v-37.7
				c1.8,0.3,4.1,0.9,6.3,2.5l0,11.5c1.5-0.2,2.7-0.4,3.9-0.4c8.3,0,13.7,5,13.7,12.7C113.1,339,108,344.1,100.7,344.1"/>
		</g>
		<g id="g4368_1_" transform="translate(630.22 332.96)">
			<path id="path4370_1_" class="st2" d="M57.7,322.1c-1.9-1-3.6-1.5-5.2-1.5c-3.8,0-6,2.7-6,7.1c0,5.1,2.9,8.5,7.3,8.5
				c1.2,0,2.4-0.3,3.9-1C57.7,335.3,57.7,322.1,57.7,322.1z M57.7,352.1v-12c-1.8,0.5-3.3,0.7-4.9,0.7c-7.2,0-12.7-5.5-12.7-12.7
				c0-7.2,4.8-12.4,11.4-12.4c2.3,0,4.4,0.6,7,1.9l0-2.1c1.7,0.3,3.6,1,5.5,2.3v36.8C62.1,354.3,59.9,353.7,57.7,352.1"/>
		</g>
		<g id="g4372_1_" transform="translate(695.17 333.04)">
			<path id="path4374_1_" class="st2" d="M31.1,322.1c-1.8-1.1-3.4-1.6-4.8-1.6c-4,0-6.4,2.7-6.4,7.1c0,5.1,2.8,8.5,7.1,8.5
				c1.1,0,2.5-0.4,4.2-1.3C31.1,334.8,31.1,322.1,31.1,322.1z M37.3,340.1c0,0.1-0.1,0.3-0.3,0.3l-4.9,0c-0.1,0-0.3-0.1-0.3-0.3
				v-0.8h-0.1c-2.3,1-4.2,1.5-6.1,1.5c-6.8,0-12.2-5.7-12.2-12.9c0-7.3,4.8-12.2,11.9-12.2c1.9,0,4.3,0.1,6.6,2.8v-3
				c1.6,0.3,3.5,1,5.3,2.3L37.3,340.1z"/>
		</g>
		<g id="g4376_1_" transform="translate(437.61 333.6)">
			<path id="path4378_1_" class="st2" d="M136.5,321.9l15.3,0c-0.2-1.7-0.8-3.7-2.1-5.8h-13.1l-2.6,0c-0.1,0-0.1,0-0.2,0
				c-1.9,0-3.6,1.5-3.7,3.4c0,0,0,0.1,0,0.1v15.7v14.5c0,0,0,0.1,0,0.1c0.2,1.9,1.8,3.4,3.7,3.4c0.1,0,0.1,0,0.2,0l17.8,0
				c-0.2-1.7-0.8-3.8-2.1-5.8h-13.1v-8.2h13c0.1,0,0.1,0,0.1-0.1v-5.7c0,0,0-0.1-0.1-0.1h-13L136.5,321.9
				C136.5,321.9,136.5,321.9,136.5,321.9z"/>
		</g>
		<g id="g4380_1_" transform="translate(405.18 323.06)">
			<path id="path4382_1_" class="st2" d="M149.8,326.2c-1.5,0-2.4,1.2-2.4,2.6c0,1.5,1.1,2.6,2.4,2.6c1.4,0,2.4-1.1,2.4-2.6
				C152.2,327.3,151.2,326.2,149.8,326.2 M149.8,331.7c-1.5,0-2.9-1.2-2.9-2.9c0-1.7,1.2-2.9,2.9-2.9c1.5,0,2.9,1.2,2.9,2.9
				C152.7,330.6,151.3,331.7,149.8,331.7"/>
		</g>
		<g id="g4384_1_" transform="translate(404.02 327.92)">
			<path id="path4386_1_" class="st2" d="M150.3,324.2v1.1h0.7c0.4,0,0.8-0.1,0.8-0.5c0-0.5-0.4-0.6-0.8-0.6
				C150.9,324.2,150.3,324.2,150.3,324.2z M152.3,324.7c0,0.7-0.4,1-1.3,1h-1.3v-3.5h0.6v1.5h0.5l0.9-1.5h0.6l-1,1.5
				C151.9,323.8,152.3,324.1,152.3,324.7"/>
		</g>
		<g id="g4388_1_" transform="translate(714.3 356.64)">
			<path id="path4390_1_" class="st2" d="M23.3,312.4c-1.5,0-2.5,1.2-2.5,2.6c0,1.5,1.1,2.6,2.5,2.6c1.4,0,2.4-1.1,2.4-2.6
				C25.7,313.5,24.6,312.4,23.3,312.4 M23.3,318c-1.5,0-2.9-1.2-2.9-2.9c0-1.7,1.2-2.9,2.9-2.9c1.5,0,2.9,1.2,2.9,2.9
				C26.1,316.8,24.8,318,23.3,318"/>
		</g>
		<g id="g4392_1_" transform="translate(713.13 361.5)">
			<path id="path4394_1_" class="st2" d="M23.7,310.4v1.1h0.7c0.4,0,0.8-0.1,0.8-0.5c0-0.5-0.4-0.6-0.8-0.6
				C24.4,310.4,23.7,310.4,23.7,310.4z M25.8,310.9c0,0.7-0.4,1-1.3,1h-1.3v-3.5h0.6v1.5h0.5l0.9-1.5h0.6l-1,1.5
				C25.4,310.1,25.8,310.3,25.8,310.9"/>
		</g>
		<g id="g4396_1_" transform="translate(371.76 377.05)">
			<path id="path4398_1_" class="st2" d="M163.5,304.1l-1.1,3.1l-9.4,12.6l1.7,0.4l16.2-14l9.5,2.7c1.1,0.3,2.4,0.4,3.4,0.3
				c-3,6.5-8.5,11.8-15.7,14.4c-14.3,5.1-30.1-2.4-35.2-16.7c-1.6-4.4-1.9-9-1.3-13.4l22.9,7.9C154.4,301.5,163.5,304.1,163.5,304.1
				z"/>
		</g>
		<g id="g4400_1_" transform="translate(407.86 381.64)">
			<path id="path4402_1_" class="st2" d="M148.7,302.2c-0.8-0.5-2.1-1.3-3.3-1.7l-9.6-2.7l-6.4-20.5l-1.7-0.5l1.4,15.7l-0.8,3.3
				l-9-2.6l-23.7-5.6c1.9-9.1,8.3-17.1,17.7-20.4c14.3-5.1,30.1,2.4,35.2,16.7C150.9,290,150.7,296.5,148.7,302.2"/>
		</g>
	</g>
</g>
</svg>
