<?xml version="1.0" encoding="utf-8"?>
<!-- Generator: Adobe Illustrator 19.2.1, SVG Export Plug-In . SVG Version: 6.00 Build 0)  -->
<svg version="1.1" xmlns="http://www.w3.org/2000/svg" xmlns:xlink="http://www.w3.org/1999/xlink" x="0px" y="0px"
	 viewBox="0 0 340 160" style="enable-background:new 0 0 340 160;" xml:space="preserve">
<style type="text/css">
	.st0{display:none;}
	.st1{display:inline;fill:#F2F2F2;}
	.st2{fill:#444444;}
	.st3{fill:#FFFFFF;}
	.st4{fill:#969898;}
	.st5{opacity:0.15;fill:#444444;}
	.st6{fill-rule:evenodd;clip-rule:evenodd;fill:#444444;}
	.st7{fill-rule:evenodd;clip-rule:evenodd;fill:#969898;}
	.st8{fill-rule:evenodd;clip-rule:evenodd;fill:#C9CACB;}
</style>
<g id="Layer_2" class="st0">
	<rect class="st1" width="340" height="160"/>
</g>
<g id="Layer_1">
	<path class="st2" d="M288.2,58.3h26.3v5.5h-5.2c-2.2,0-4,0.8-5.5,2.3l-17.6,18.7v9.1c0,1.5,0.8,2.3,2.3,2.3h6.5v5.5h-31.7v-5.5h6.5
		c1.5,0,2.3-0.8,2.3-2.3v-8.5l-18-19.3c-1.5-1.5-3.3-2.3-5.5-2.3h-5.1v-5.5h32.2v5.5h-3.2c-0.8,0-1.3,0.3-1.5,0.8
		c-0.2,0.5-0.1,1,0.3,1.5L282,77.5l10.6-11.4c0.4-0.4,0.5-0.9,0.2-1.5c-0.2-0.5-0.7-0.8-1.5-0.8h-3.2L288.2,58.3z M230.3,101.7h-9
		l-35.7-30.6v22.7c0,1.5,0.8,2.3,2.3,2.3h6.5v5.5h-26.7v-5.5h6.5c1.5,0,2.3-0.8,2.3-2.3V66.1c0-1.5-0.8-2.3-2.3-2.3h-6.5v-5.5h22.4
		l31.1,26.6V66.1c0-1.5-0.8-2.3-2.3-2.3h-6.5v-5.5h26.7v5.5h-6.5c-1.5,0-2.3,0.8-2.3,2.3L230.3,101.7z M128.3,55.6
		C107.9,55.6,94.5,66,94.5,80s13.5,24.4,33.8,24.4c20.3,0,33.8-10.5,33.8-24.4S148.6,55.6,128.3,55.6z M128.3,62.1
		c11.7,0,19.4,7.7,19.4,17.9c0,10.2-7.7,17.9-19.4,17.9c-11.7,0-19.4-7.7-19.4-17.9C108.9,69.7,116.6,62.1,128.3,62.1z M76.2,57.7
		h5.5v14.7h-5.5C73.5,63.3,59.7,62,51.1,62c-7.5,0-13.2,2-13.2,5.8c0,4.4,10.6,4.6,19.2,5.7c11,1.5,27.2,1.2,27.2,15.7
		c0,11.4-15.1,15.3-24.6,15.3c-17,0-22.2-4.8-26.1-4.8c-1.1,0-1.6,1-1.6,3.1h-5.5V86.2h5.5c2.1,9.9,17.4,12.1,23.8,12.1
		c4.6,0,16.3-0.9,16.3-6.3c0-5.1-7.5-4.9-16.7-6.2c-10-1.4-29.8-1.7-29.8-15.1C25.5,60.5,37,55.6,50,55.6c15,0,22.5,4.9,24.7,4.9
		C75.7,60.4,76.2,59.5,76.2,57.7z"/>
</g>
</svg>
