<?xml version="1.0" encoding="utf-8"?>
<!-- Generator: Adobe Illustrator 19.2.1, SVG Export Plug-In . SVG Version: 6.00 Build 0)  -->
<svg version="1.1" xmlns="http://www.w3.org/2000/svg" xmlns:xlink="http://www.w3.org/1999/xlink" x="0px" y="0px"
	 viewBox="0 0 340 160" style="enable-background:new 0 0 340 160;" xml:space="preserve">
<style type="text/css">
	.st0{display:none;}
	.st1{display:inline;fill:#F2F2F2;}
	.st2{fill:#444444;}
	.st3{fill:#FFFFFF;}
	.st4{fill:#969898;}
	.st5{opacity:0.15;fill:#444444;}
	.st6{fill-rule:evenodd;clip-rule:evenodd;fill:#444444;}
	.st7{fill-rule:evenodd;clip-rule:evenodd;fill:#969898;}
	.st8{fill-rule:evenodd;clip-rule:evenodd;fill:#C9CACB;}
</style>
<g id="Layer_2" class="st0">
	<rect class="st1" width="340" height="160"/>
</g>
<g id="Layer_1">
	<g>
		<path class="st2" d="M79.3,74.5H50.5l-1,0.8v25.5h7.9v-9.6l0.7-0.7h21.1c5.3,0,7.8-1.4,7.8-5.1v-5.8
			C87.1,75.9,84.6,74.5,79.3,74.5 M79.3,83.9c0,1.7-1.1,2.1-3.7,2.1H58.2l-0.8-0.7v-5.4l0.7-0.7h17.4c2.5,0,3.7,0.3,3.7,2.1
			C79.3,81.2,79.3,83.9,79.3,83.9z"/>
		<polyline class="st2" points="101.6,79.3 108.5,89.4 108.1,90.3 92.9,90.3 89,95.1 111.6,95.1 113.2,96 116.7,100.9 125.8,100.9 
			105.8,74.2 		"/>
		<polyline class="st2" points="192.1,95.7 192.1,88.6 193,87.8 208.2,87.8 208.2,83.3 184,83.3 184,100.9 219.7,100.9 219.7,96.4 
			193.1,96.4 		"/>
		<rect x="184" y="74.5" class="st2" width="36" height="4.9"/>
		<path class="st2" d="M144,79.2h29c-0.4-3.7-2.8-4.7-8.5-4.7h-20.8c-6.6,0-8.6,1.2-8.6,6.3v13.9c0,4.9,2.1,6.3,8.6,6.3h20.8
			c5.8,0,8.1-1.1,8.3-4.9H144l-0.8-0.8V79.8"/>
		<path class="st2" d="M30,84.8H9l-0.6-0.7v-4.5L9,79h28.4l0.4-0.9c-0.9-2.5-3.5-3.7-8.1-3.7H9.9c-6.6,0-8.6,1.2-8.6,6.3v3
			c0,4.9,2.1,6.3,8.6,6.3h21l0.6,0.6v4.7l-0.5,0.7H7l0,0H0.7c0,0-0.7,0.4-0.7,0.5c0.5,3.5,2.9,4.4,8.5,4.4H30c6.6,0,8.7-1.2,8.7-6.3
			V91C38.8,86.1,36.6,84.8,30,84.8"/>
		<path class="st2" d="M242.7,74.4h-11.9l-0.6,1.2l13.1,9.6c2.5-1.4,5.2-2.9,8.1-4.3"/>
		<path class="st2" d="M253.4,92.5l11.6,8.4h11.9l0.5-1.1l-17.2-12.6C257.9,88.9,255.5,90.6,253.4,92.5"/>
		<path class="st2" d="M241,100.9h-10.8l-0.9-1.4c7.3-7.1,39.9-37.2,110.7-40.4C340,59,280.6,61.1,241,100.9"/>
	</g>
</g>
</svg>
