<?xml version="1.0" encoding="utf-8"?>
<!-- Generator: Adobe Illustrator 19.2.1, SVG Export Plug-In . SVG Version: 6.00 Build 0)  -->
<svg version="1.1" xmlns="http://www.w3.org/2000/svg" xmlns:xlink="http://www.w3.org/1999/xlink" x="0px" y="0px"
	 viewBox="0 0 340 160" style="enable-background:new 0 0 340 160;" xml:space="preserve">
<style type="text/css">
	.st0{display:none;}
	.st1{display:inline;fill:#F2F2F2;}
	.st2{fill:#444444;}
	.st3{fill:#FFFFFF;}
	.st4{fill:#969898;}
	.st5{opacity:0.15;fill:#444444;}
	.st6{fill-rule:evenodd;clip-rule:evenodd;fill:#444444;}
	.st7{fill-rule:evenodd;clip-rule:evenodd;fill:#969898;}
	.st8{fill-rule:evenodd;clip-rule:evenodd;fill:#C9CACB;}
</style>
<g id="Layer_2" class="st0">
	<rect class="st1" width="340" height="160"/>
</g>
<g id="Layer_1">
	<g>
		<path class="st2" d="M108.1,108.6v21.1c0,11.8,7.2,13.7,13.2,13.7c8.9,0,13-5.9,13-13.8v-20.9h-5.9v21.7c0,2.7-0.9,7.8-7.1,7.7
			c-5.7-0.1-6.7-5.3-6.7-8.7v-20.7H108.1z"/>
		<path class="st2" d="M158.9,110c0,0-3.8-1.9-8-1.9c-5.3,0-12,2.7-12,10.2c0,5.2,3.8,7.6,6.4,8.9c1.4,0.7,3.1,1.4,4.4,2.2
			c0.7,0.4,3.5,1.3,3.5,4.4c0,3.3-3.6,4.4-5.2,4.4c-5.7,0-9.6-2.6-9.6-2.6l0.6,6.6c0,0,2.3,1.2,9.4,1.2c6.7,0,11.5-4.3,11.5-10.2
			c0-4.6-3.1-7.3-5.8-8.6c-2.1-1-3.3-1.6-5.1-2.4c-1.8-0.9-3.7-2.3-3.7-4.6c0-2.5,2.2-4.2,5.6-4.2c4.9,0,6.8,2.2,8,2.9V110z"/>
		<path class="st2" d="M199.1,132.1l4.7-13.3l4.2,13.3H199.1z M170.9,132.1l4.7-13.3l4.2,13.3H170.9z M206.7,108.6h-7.1l1.1,2.8
			l-11,29.3l-11.3-32.1h-7.1l1.1,2.8l-11.7,31.2h6.4l2-5.9h12.1l2,5.9h12l2-5.9h12.1l2,5.9h7.1L206.7,108.6z"/>
		<path class="st2" d="M107.8,70.3l0.3,10.6c0,0,2.6-1.9,5.5-1.9c2.9,0,6.2,2.1,6.2,2.1L146,96.4l2.2-9.6l-28.4-16.6
			c0,0-3.3-2.1-6.2-2.1C110.7,68.1,107.8,70.3,107.8,70.3"/>
		<path class="st2" d="M107.8,56.4l0.3,10.6c0,0,2.6-1.9,5.5-1.9c2.9,0,6.2,2.1,6.2,2.1l29,16.9l2.2-9.6l-31.2-18.2
			c0,0-3.3-2.1-6.2-2.1C110.7,54.2,107.8,56.4,107.8,56.4"/>
		<path class="st2" d="M107.8,42.5l0.3,10.6c0,0,2.6-1.9,5.5-1.9c2.9,0,6.2,2.1,6.2,2.1l31.8,18.6l2.2-9.6l-34-19.9
			c0,0-3.3-2.1-6.2-2.1C110.7,40.3,107.8,42.5,107.8,42.5"/>
		<path class="st2" d="M162.3,25.5l2.9,12.6L205,61.4c0,0,3.1,2.1,6.2,2.1c3.1,0,5.8-2.2,5.8-2.2l-0.3-10.6c0,0-2.5,1.9-5.5,1.9
			c-3,0-6.2-2.1-6.2-2.1l-30.8-18l-2.1-8.1c0-0.3,0.3-0.5,0.4-0.5l5.2-1.6c0.7,0,1.1,0.6,1.1,1.1l0.3,0.6c0.2,0.1,1-0.3,1-0.3v-3.2
			c0-2.1-1.7-4-4-4h-5.2c0,0-0.8-1.8-3-1.8h-9.9c-2.6,0-3.2,2.5-3.2,2.5l-6.9,27.8l-28.1-16.5c0,0-3-2.1-6.2-2.1
			c-3.2,0-5.8,2.2-5.8,2.2l0.3,10.6c0,0,2.4-1.9,5.5-1.9c3.2,0,6.2,2.1,6.2,2.1l34.6,20.2L162.3,25.5z"/>
		<path class="st2" d="M166,41.5l2.9,12.6L205,75.3c0,0,3.2,2.1,6.2,2.1c3,0,5.8-2.2,5.8-2.2l-0.3-10.6c0,0-2.3,1.9-5.5,1.9
			c-3.2,0-6.2-2.1-6.2-2.1L166,41.5z"/>
		<path class="st2" d="M169.7,57.6l2.9,12.6l32.4,19c0,0,3.2,2.1,6.2,2.1c3,0,5.8-2.2,5.8-2.2l-0.3-10.6c0,0-2.3,1.9-5.5,1.9
			c-3.2,0-6.2-2.1-6.2-2.1L169.7,57.6z"/>
		<path class="st2" d="M173.4,73.7l2.9,12.6l28.7,16.8c0,0,3.2,2.1,6.2,2.1c3,0,5.8-2.2,5.8-2.2l-0.3-10.6c0,0-2.3,1.9-5.5,1.9
			c-3.2,0-6.2-2.1-6.2-2.1L173.4,73.7z"/>
		<path class="st2" d="M225.3,106.6c3.9,0,7,3.2,7,7.1c0,4-3.1,7.1-7,7.1c-3.9,0-7-3.1-7-7.1C218.2,109.8,221.4,106.6,225.3,106.6
			L225.3,106.6z M225.2,107.7c-3.1,0-5.7,2.7-5.7,6c0,3.4,2.6,6,5.7,6c3.2,0,5.7-2.6,5.7-6C230.9,110.4,228.4,107.7,225.2,107.7
			L225.2,107.7z M223.9,117.8h-1.3v-7.9c0.7-0.1,1.3-0.2,2.2-0.2c1.2,0,2,0.2,2.5,0.6c0.5,0.3,0.7,0.9,0.7,1.6c0,1-0.7,1.7-1.5,1.9
			v0.1c0.7,0.1,1.2,0.8,1.3,1.9c0.2,1.2,0.4,1.7,0.5,2H227c-0.2-0.3-0.4-1-0.5-2c-0.2-1-0.7-1.4-1.7-1.4h-0.9V117.8z M223.9,113.5
			h0.9c1,0,1.9-0.4,1.9-1.4c0-0.7-0.5-1.4-1.9-1.4c-0.4,0-0.7,0-0.9,0.1V113.5z"/>
	</g>
</g>
</svg>
