<?xml version="1.0" encoding="utf-8"?>
<!-- Generator: Adobe Illustrator 19.2.1, SVG Export Plug-In . SVG Version: 6.00 Build 0)  -->
<svg version="1.1" xmlns="http://www.w3.org/2000/svg" xmlns:xlink="http://www.w3.org/1999/xlink" x="0px" y="0px"
	 viewBox="0 0 340 160" style="enable-background:new 0 0 340 160;" xml:space="preserve">
<style type="text/css">
	.st0{display:none;}
	.st1{display:inline;fill:#F2F2F2;}
	.st2{fill:#444444;}
	.st3{fill:#FFFFFF;}
	.st4{fill:#969898;}
	.st5{opacity:0.15;fill:#444444;}
	.st6{fill-rule:evenodd;clip-rule:evenodd;fill:#444444;}
	.st7{fill-rule:evenodd;clip-rule:evenodd;fill:#969898;}
</style>
<g id="Layer_2" class="st0">
	<rect class="st1" width="340" height="160"/>
</g>
<g id="Layer_1">
	<g>
		<path class="st2" d="M294.5,50.2c2-0.1,4-0.1,6-0.1c-6,12.5-11.8,25.2-17.7,37.8c-1.6,0-3.3,0-4.9,0c-2.7-6.3-5.9-12.5-8.6-18.8
			c2-0.1,3.9-0.1,5.9,0c1.7,3.9,3.7,7.6,5.2,11.5C285.1,70.5,289.9,60.4,294.5,50.2z"/>
		<path class="st2" d="M143.6,55.6c3.8,0.1,7.8,0.1,11.6,0c-0.1,3.4-0.1,6.9,0,10.3c-3.8-0.1-7.8,0-11.6-0.1
			C143.6,62.4,143.5,59,143.6,55.6z"/>
		<g>
			<path class="st2" d="M85.2,70.3c7.9-4.5,19.4-3,24.7,4.8c3.3,4.6,4.2,10.4,4.2,15.9C105,91,96,91,86.9,91
				c0.4,2.8,1.6,5.7,4.2,7.2c3.7,2.2,9.5,1.5,11.3-2.7c3.7-0.1,7.4-0.1,11.2,0c-1.2,4.3-4.3,7.9-8.2,9.9c-4.2,2.3-9.3,2.7-14,2
				c-5-0.8-9.5-3.6-12.3-7.8c-3.1-4.4-3.8-10.1-3.2-15.3C76.7,78.6,80.1,73.2,85.2,70.3z M91.4,76.9c-2.6,1.2-3.8,4-4.4,6.7
				c5.2,0,10.3,0,15.5,0c-0.3-2.1-1-4.2-2.6-5.6C97.6,75.8,94.1,75.8,91.4,76.9z"/>
		</g>
		<g>
			<path class="st2" d="M206.8,68.3c6.2-1.1,13.1,0.2,17.9,4.5c8.2,7.3,8.5,21.4,0.9,29.1c-6,6.3-16.1,7.4-23.8,3.9
				c-6-2.7-10-8.7-10.7-15.2c-0.3-3.7-0.1-7.6,1.4-11.1C194.9,73.7,200.5,69.4,206.8,68.3z M208.1,76.9c-3.3,1.2-4.8,4.7-5.3,7.9
				c-0.4,4-0.3,8.5,2.3,11.9c2.8,3.6,9,3.5,11.8-0.1c2.3-2.9,2.7-6.8,2.4-10.4c-0.2-3.2-1.3-6.5-3.9-8.5
				C213.2,76.3,210.5,76.1,208.1,76.9z"/>
		</g>
		<path class="st2" d="M248.1,70.5c3.8-3,9.3-3.3,13.8-1.5c3.2,1.4,5.5,4.2,6.6,7.4c1.3,3.3,0.9,6.9,0.9,10.4
			c0,6.6-0.1,13.3,0.1,19.9c-3.8,0.1-7.7,0-11.6,0.1c0-7.6,0-15.2,0-22.8c0-2-0.7-4.1-2.4-5.3c-2.5-1.7-6.1-1.4-8.2,0.7
			c-1.7,1.7-2.4,4.1-2.4,6.4c0,7,0,13.9,0,20.9c-3.8-0.1-7.6,0-11.4-0.1c0-12.5,0.1-25.1,0-37.6c3.7,0.1,7.4-0.1,11.2,0.1
			c-0.1,1.7-0.1,3.5-0.1,5.2C245.8,73,246.7,71.5,248.1,70.5z"/>
		<path class="st2" d="M39.5,69.1c4,0,8,0,12,0c2.4,8.1,5,16.1,7.3,24.3c2.8-8,4.9-16.2,7.5-24.3c3.8-0.1,7.8,0,11.6-0.1
			c-4.4,12.5-8.8,25.1-13.1,37.6c-4,0-8-0.1-12,0.1C48.2,94.2,44.1,81.5,39.5,69.1z"/>
		<path class="st2" d="M116.7,69c3.7,0,7.4,0,11.1,0c-0.1,2.1,0,4.2-0.1,6.3c0.9-1,1.6-2.4,2.6-3.4c2.5-2.7,6.5-3.8,10.1-2.9
			c-0.1,3.3-0.1,6.6,0,9.9c-2.8-0.3-6-0.2-8.4,1.5c-2.6,1.8-3.7,5.1-3.7,8.2c-0.1,6,0,12,0,18c-3.8,0-7.8-0.1-11.6,0.1
			C116.8,94.1,116.8,81.6,116.7,69z"/>
		<path class="st2" d="M143.6,69.1c3.9-0.1,7.8,0,11.6-0.1c-0.1,12.5,0,25.1,0,37.6c-3.8-0.1-7.8,0-11.6,0
			C143.6,94.1,143.6,81.6,143.6,69.1z"/>
		<path class="st2" d="M158.3,69c10.5,0.1,21,0,31.4,0.1c-0.1,2.9,0,5.7-0.1,8.6c-0.4,0.7-1,1.3-1.5,1.9c-5.4,6-10.7,12.1-16.1,18
			c6.2,0.1,12.3,0,18.5,0.1c0,3,0,6.1,0,9.1c-10.8-0.1-21.5-0.1-32.3,0c0-2.9,0-5.8,0-8.7c5.6-6.3,11.2-12.6,16.9-18.9
			c0.2-0.3,0.8-0.6,0.5-1c-5.8,0.2-11.6,0-17.4,0.1C158.3,75.1,158.3,72.1,158.3,69z"/>
	</g>
</g>
</svg>
