<?xml version="1.0" encoding="utf-8"?>
<!-- Generator: Adobe Illustrator 19.2.1, SVG Export Plug-In . SVG Version: 6.00 Build 0)  -->
<svg version="1.1" xmlns="http://www.w3.org/2000/svg" xmlns:xlink="http://www.w3.org/1999/xlink" x="0px" y="0px"
	 viewBox="0 0 340 160" style="enable-background:new 0 0 340 160;" xml:space="preserve">
<style type="text/css">
	.st0{display:none;}
	.st1{display:inline;fill:#F2F2F2;}
	.st2{fill:#444444;}
	.st3{fill:#FFFFFF;}
	.st4{fill:#969898;}
	.st5{opacity:0.15;fill:#444444;}
	.st6{fill-rule:evenodd;clip-rule:evenodd;fill:#444444;}
	.st7{fill-rule:evenodd;clip-rule:evenodd;fill:#969898;}
	.st8{fill-rule:evenodd;clip-rule:evenodd;fill:#C9CACB;}
</style>
<g id="Layer_2" class="st0">
	<rect class="st1" width="340" height="160"/>
</g>
<g id="Layer_1">
	<path class="st2" d="M66.5,35.6v5.7h40.3v-5.7H66.5z M112.5,35.6v5.7h57.4c0,0-5.9-5.7-13.6-5.7H112.5z M181.2,35.6v5.7h34.7
		l-2.1-5.7H181.2L181.2,35.6z M240.8,35.6l-2,5.7h34.4v-5.7H240.8z M66.5,46.6v5.7h40.3v-5.7H66.5z M112.5,46.6v5.7h64.1
		c0,0-0.8-4.4-2.1-5.7H112.5z M181.2,46.6v5.7h38.5l-1.9-5.7H181.2L181.2,46.6z M236.7,46.6l-1.9,5.7h38.4v-5.7H236.7L236.7,46.6z
		 M78.1,57.6v5.7h17.5v-5.7H78.1z M124.1,57.6v5.7h17.5v-5.7H124.1z M158.5,57.6v5.7h17.4c0,0,1.1-3,1.1-5.7H158.5z M192.8,57.6v5.7
		h30.9l-2.1-5.7H192.8z M232.9,57.6l-2.1,5.7h31.1v-5.7H232.9L232.9,57.6z M78.1,68.7v5.7h17.5v-5.7H78.1z M124.1,68.7v5.7h44.6
		c0,0,3.7-2.9,4.9-5.7H124.1z M192.8,68.7v5.7h17.4v-3.2l1.1,3.2h32l1.2-3.2v3.2h17.5v-5.7h-32.8l-1.7,4.8l-1.7-4.8H192.8z
		 M78.1,79.7v5.7h17.5v-5.7H78.1z M124.1,79.7v5.7h49.5c-1.2-2.8-4.9-5.7-4.9-5.7H124.1z M192.8,79.7v5.7h17.4v-5.7H192.8z
		 M213.4,79.7l2.1,5.7h24l2-5.7H213.4z M244.5,79.7v5.7h17.5v-5.7H244.5z M78.1,90.7v5.7h17.5v-5.7H78.1z M124.1,90.7v5.7h17.5v-5.7
		H124.1z M158.5,90.7v5.7h18.5c0-2.7-1.1-5.7-1.1-5.7H158.5z M192.8,90.7v5.7h17.4v-5.7H192.8z M217.3,90.7l2,5.7h16.1l2.1-5.7
		H217.3z M244.5,90.7v5.7h17.5v-5.7H244.5z M66.8,101.7v5.7h40.3v-5.7H66.8z M112.5,101.7v5.7h62c1.3-1.3,2.1-5.7,2.1-5.7H112.5z
		 M181.5,101.7v5.7h28.7v-5.7H181.5z M221.3,101.7l2.1,5.7h8.2l2-5.7H221.3z M244.5,101.7v5.7h29v-5.7H244.5z M66.8,112.7v5.7h40.3
		v-5.7H66.8z M112.5,112.7v5.7h43.8c7.8,0,13.6-5.7,13.6-5.7H112.5z M181.5,112.7v5.7h28.7v-5.7H181.5z M225.3,112.7l2,5.6l0.3,0
		l2.1-5.7L225.3,112.7L225.3,112.7z M244.5,112.7v5.7h29v-5.7H244.5z"/>
</g>
</svg>
