<?xml version="1.0" encoding="utf-8"?>
<!-- Generator: Adobe Illustrator 19.2.1, SVG Export Plug-In . SVG Version: 6.00 Build 0)  -->
<svg version="1.1" xmlns="http://www.w3.org/2000/svg" xmlns:xlink="http://www.w3.org/1999/xlink" x="0px" y="0px"
	 viewBox="0 0 340 160" style="enable-background:new 0 0 340 160;" xml:space="preserve">
<style type="text/css">
	.st0{display:none;}
	.st1{display:inline;fill:#F2F2F2;}
	.st2{fill:#444444;}
	.st3{fill:#FFFFFF;}
	.st4{fill:#969898;}
	.st5{opacity:0.15;fill:#444444;}
	.st6{fill-rule:evenodd;clip-rule:evenodd;fill:#444444;}
	.st7{fill-rule:evenodd;clip-rule:evenodd;fill:#969898;}
	.st8{fill-rule:evenodd;clip-rule:evenodd;fill:#C9CACB;}
</style>
<g id="Layer_2" class="st0">
	<rect class="st1" width="340" height="160"/>
</g>
<g id="Layer_1">
	<g>
		<path class="st2" d="M93.3,56.8v25.8c0,8.6-3.8,12.2-12.7,12.2c-8.9,0-12.7-3.6-12.7-12.2V55.6h-8.6c-0.8,0-1.1,0.4-1.1,1.1v26.2
			c0,14.4,9.2,19.4,22.5,19.4c13.3,0,22.5-5,22.5-19.4V55.6h-8.6C93.6,55.6,93.3,56,93.3,56.8z"/>
		<path class="st2" d="M218,63.1c0.7,0,1-0.2,1.3-0.8l2.5-6.2c0.1-0.4,0-0.6-0.4-0.6h-34.7c-3.2,0-4.5,1-4.5,3.2v40
			c0,1.9,0.9,2.7,3.4,2.7H218c0.7,0,1-0.2,1.3-0.8l2.5-6.2c0.1-0.4,0-0.6-0.4-0.6h-29.6V86c0-2.8,1.6-4.1,5.7-4.1h12.8
			c0.7,0,1-0.2,1.3-0.8l2.4-5.9c0.1-0.4,0-0.6-0.4-0.6h-21.9V63.1H218z"/>
		<path class="st2" d="M157,77.4c3.8-2,5.3-5.7,5.3-10.1c0-10.2-8.3-11.7-16.8-11.7h-19.6c-3.2,0-4.5,1-4.5,3.2v40
			c0,1.9,0.9,2.7,3.4,2.7H149c9.1,0,15.6-3.5,15.6-12.7C164.5,83.4,162.2,78.7,157,77.4z M131,63h15.2c5.1,0,6.5,1.9,6.5,5.9
			c0,4-1.4,5.9-6.5,5.9H131V63z M148,94.2h-17v-8.4c0-2.8,1.6-4.1,5.7-4.1H148c5.4,0,6.9,2.1,6.9,6.3
			C154.9,92.2,153.4,94.2,148,94.2z"/>
		<path class="st2" d="M281.8,100.8l-10.3-17.7c5.1-1.3,9.3-4.7,9.3-13.3c0-11.1-6.9-14.2-18.3-14.2h-19.7c-3.2,0-4.5,1-4.5,3.2
			v41.6c0,0.8,0.4,1.1,1.1,1.1h8.4V88.2c0-2.8,1.6-4.1,5.7-4.1h8.5l9.3,16.7c0.3,0.5,0.6,0.8,1.3,0.8h8.7
			C282,101.6,282,101.1,281.8,100.8z M263.9,76.9h-16V63h16c6,0,7.3,2.3,7.3,7C271.2,74.7,269.8,76.9,263.9,76.9z"/>
	</g>
</g>
</svg>
