<svg xmlns="http://www.w3.org/2000/svg" viewBox="0 0 340 160"><g fill="#444"><path d="M26.6 60.6c-1.3 0-2.4 1.1-2.4 2.4 0 1.3 1 2.3 2.4 2.3 1.3 0 2.3-1 2.3-2.3.1-1.3-1-2.4-2.3-2.4zm133.7 8.5c-7.2 0-10.9 5.3-10.9 11.9 0 6.7 3.1 11.9 10.9 11.9 7.2 0 10.9-5.3 10.9-11.9-.1-6.7-3.2-11.9-10.9-11.9zm0 20.7c-4.6 0-7.1-3.5-7.1-8.8 0-5.4 2.5-8.8 7.1-8.8s7.1 3.5 7.1 8.8c0 5.3-2.6 8.8-7.1 8.8zM9.3 69.1c-3.2 0-6.3 1-9.3 3.3V104h4V92.4c1 .3 2.2.5 3.5.5 8.1 0 13.1-4.6 13.1-12.7 0-6.9-4.5-11.1-11.3-11.1zM7.7 89.8c-1.6 0-2.7-.2-3.7-.6V74h-.4c1.5-1 3.3-1.6 5.4-1.6 4.9 0 7.8 3.2 7.8 8 0 6.1-3.2 9.4-9.1 9.4zM25 70h3v22h-3zm200.8 9.6c0-6.4-3.3-10.4-9.6-10.4-7.1 0-10.6 5.2-10.6 11.9 0 7.6 3.9 11.9 11.6 11.9 3.1 0 5.8-.5 7.8-1.6v-3c-2 .9-4.5 1.6-7.3 1.6-5.5 0-8.3-2.9-8.5-7.9h16.4c.1-1.1.2-2 .2-2.5zm-16.5-.6c.4-4 2.6-6.7 6.6-6.7 4.1 0 6.1 1.7 6.3 6.7h-12.9zM40 86.5V73h6v-3h-6v-6h-4v6h-4v3h4v14.1c0 4.1 2 5.8 5.3 5.8 1.9 0 3.7-.3 4.7-.8v-2.9c-1 .4-2 .6-3.6.6s-2.4-.4-2.4-3.3zm94.8-17.4c-2 0-3.8.4-5.8 1.2V59h-3v33h-.4c2.2 0 4.6 1.1 7.2 1.1 8.3 0 13.2-4.7 13.2-12.8 0-7-4.3-11.2-11.2-11.2zM133 89.8c-1.6 0-3-.2-4-.6V73.4c2-.8 3.3-1.2 5.5-1.2 4.9 0 7.7 3.3 7.7 8.1 0 6.1-3.3 9.5-9.2 9.5zm62.6-1.9L190.3 70h-3.9l-5.2 18.1-4.7-18.1h-3.8l6.5 22h3.7l5.5-18.1 5.2 18.1h3.7l6.6-22h-3.5zM92 88v.2c.1-.1.3-.1.4-.2H92z"/><path d="M93 79.6c0-6.4-3.3-10.5-9.6-10.5-7.1 0-10.6 5.2-10.6 12 0 7.6 3.8 11.9 11.5 11.9 3.1 0 6.6-.5 7.6-1.6v-3.1c-1.8.9-4.4 1.5-7 1.5-5.5 0-8.4-2.7-8.6-7.7h16.4c.2-1.1.3-2 .3-2.5zM76.6 79c.4-4 2.6-6.7 6.6-6.7 4.1 0 6.1 1.7 6.3 6.7H76.6zm29.2 9.6L99 70h-4l9.1 22.6-4.4 11.4h3.6l4.3-11.4 9.1-22.6h-3.9zM60.2 69.1c-3.4 0-7.2.8-10.2 1.9v21h3V73.3c2-.6 3.8-1 5.8-1 4.2 0 6.2 1.4 6.2 6.4V92h4v.4-14.9c0-6.5-3.8-8.4-8.8-8.4zm169.2 22.2c1.4 1 3.9 1.7 6.4 1.7 5.3 0 8.5-2.7 8.5-7.2 0-3.5-1.8-5.3-6.8-6.9-3.3-1.1-4.7-2.1-4.7-3.7 0-2.1 1.7-3.1 4.3-3.1 2.3 0 4.5.6 6.4 1.8v-3.1c-1.3-1-4-1.7-6.3-1.7-4.9 0-7.9 2.3-7.9 6.2 0 3 1.7 5.1 5.9 6.5 4 1.3 5.5 2.1 5.5 4.3 0 2.4-1.9 3.8-5 3.8-2.5 0-5-.7-6.4-1.7.1-.1.1 3.1.1 3.1zM287 89.8c-1.9-2.6-2.9-5.6-2.9-8.8 0-3.2 1-6.3 2.9-8.8.5-.7.3-1.6-.5-2.2-.8-.6-1.7-.6-2.3.1-2.4 3.2-3.6 7-3.6 10.9 0 4 1.3 7.8 3.6 10.9.6.7 1.4.7 2.3.1.8-.6 1-1.5.5-2.2z"/><path d="M286.7 99.2c-6.1-4.1-9.8-10.9-9.8-18.2 0-7.3 3.7-14.2 9.8-18.2.6-.4.7-1.1.2-1.9-.5-.7-1.2-1-1.8-.5C278.2 65 274 72.7 274 81s4.1 16 11.1 20.6c.6.4 1.3.2 1.8-.5s.5-1.4-.2-1.9z"/><path d="M286.8 106.7c-9.6-4.5-16.3-14.3-16.3-25.6s6.6-21.1 16.2-25.6c.5-.2.7-.8.4-1.4-.3-.6-.8-.8-1.3-.6-10.4 4.9-17.5 15.4-17.5 27.6 0 12.2 7.2 22.8 17.6 27.7.5.3 1 0 1.3-.6.2-.8.1-1.3-.4-1.5z"/><path d="M298.8 45.1h-1.6c-.4 0-.6.3-.6.7 0 .4.2.7.6.7h1.6c19.1 0 34.5 15.4 34.5 34.5s-15.5 34.5-34.5 34.5c-19.1 0-34.5-15.4-34.5-34.5 0-14.9 9.4-27.5 22.6-32.4.3-.1.5-.5.3-.8-.1-.4-.4-.6-.8-.4-13.7 5-23.4 18.2-23.4 33.6 0 19.8 16.1 35.9 35.9 35.9 19.8 0 35.9-16.1 35.9-35.9-.1-19.8-16.1-35.9-36-35.9z"/><path d="M297.8 59.1h1c12.1 0 21.9 9.8 21.9 21.9 0 12.1-9.8 21.9-21.9 21.9h-1c-.8 0-1.2.6-1.2 1.4 0 .9.4 1.4 1.2 1.4h1c13.7 0 24.8-11.1 24.8-24.8 0-13.7-11.1-24.8-24.8-24.8h-1c-.8 0-1.2.6-1.2 1.4 0 1.1.5 1.6 1.2 1.6z"/><path d="M298.8 52.7c15.7 0 28.4 12.7 28.4 28.3 0 15.6-12.7 28.3-28.4 28.3h-1.3c-.6 0-.9.4-.9 1.1 0 .7.3 1.1.9 1.1h1.3c16.9 0 30.6-13.7 30.6-30.6 0-16.9-13.7-30.6-30.6-30.6h-1.3c-.6 0-.9.4-.9 1.1 0 .7.4 1.1.9 1.1.5.2.9.2 1.3.2z"/><path d="M298.8 39.9c-22.7 0-41.2 18.4-41.2 41.1 0 22.7 18.4 41.1 41.2 41.1 22.7 0 41.2-18.4 41.2-41.1 0-22.7-18.4-41.1-41.2-41.1zm0 81.3c-22.2 0-40.2-18-40.2-40.2 0-22.2 18-40.2 40.2-40.2 22.2 0 40.2 18 40.2 40.2 0 22.2-18 40.2-40.2 40.2z"/><path d="M292.4 67.9c1.5-.4 2.9-1.3 6.6-1.3 7.6 0 14.2 6.2 14.2 14.4 0 8.1-6.6 14.4-14.4 14.4h-.4c-1.1 0-1.8.8-1.8 2.1s.7 2.2 1.8 2.2h.4c10.3 0 18.7-8.4 18.7-18.7 0-10.3-8.4-18.7-18.8-18.7-1.6 0-2.8.2-4.8.6V47.3c0-1.2-.7-1.8-2-1.8s-2 .7-2 1.8V66c.1 1.2 1 2.3 2.5 1.9z"/><path d="M290 109c0 1.3.7 1.9 2 1.9 1.2 0 2-.6 2-1.9V75.5c1-1.1 3-1.6 4.8-1.6 3.9 0 7.1 3.2 7.1 7.1 0 3.9-3.2 7.1-7.1 7.1h-.4c-1.1 0-1.8.8-1.8 2.1s.7 2.1 1.8 2.1h.4c3.1 0 5.9-1.2 8.1-3.3 2.2-2.2 3.3-5 3.3-8.1 0-3-1.2-5.9-3.3-8.1-2.1-2.2-5-3.3-8.1-3.3-4.1 0-8.7 2.1-8.9 4.1 0 .3.1 2 .1 2V109z"/></g></svg>
