<?xml version="1.0" encoding="utf-8"?>
<!-- Generator: Adobe Illustrator 19.2.1, SVG Export Plug-In . SVG Version: 6.00 Build 0)  -->
<svg version="1.1" xmlns="http://www.w3.org/2000/svg" xmlns:xlink="http://www.w3.org/1999/xlink" x="0px" y="0px"
	 viewBox="0 0 340 160" style="enable-background:new 0 0 340 160;" xml:space="preserve">
<style type="text/css">
	.st0{display:none;}
	.st1{display:inline;fill:#F2F2F2;}
	.st2{fill:#444444;}
	.st3{fill:#FFFFFF;}
	.st4{fill:#969898;}
	.st5{opacity:0.15;fill:#444444;}
	.st6{fill-rule:evenodd;clip-rule:evenodd;fill:#444444;}
	.st7{fill-rule:evenodd;clip-rule:evenodd;fill:#969898;}
	.st8{fill-rule:evenodd;clip-rule:evenodd;fill:#C9CACB;}
</style>
<g id="Layer_2" class="st0">
	<rect class="st1" width="340" height="160"/>
</g>
<g id="Layer_1">
	<g>
		<path class="st6" d="M121.1,82.2c-0.6-0.1-1.3-0.5-1.9-0.9c-5.5-5.3,1.5-11.5,9.5-15.1V56.1c1.9,1.1,2.8,1.2,3,1.4l6.2-6.2l-2-5.2
			c17.9-6.3,25.1-8.7,39.7-11.1l-2.6-2.5l4.4-2.5c9.7,3.3,19,4.2,17.3,12.4c0.5-5.6-6.4-7.7-17.1-10.8l-2,1.3l3.9,3.2
			c-17.4,3.1-28.2,6.5-41,11l1.8,4.5l-6.4,6.4c1.1,0.2,12.2,4.2,23.8-4.1c0.1,0,0.2-0.1,0.2-0.2c-0.4-0.6-1.1-1.2-2-2
			c3.3,0.2,5.6,3.3,5.1,6.4h-1.5c0.2-0.9,0-2.1-0.5-2.8c-8.9,6.6-19.4,7.6-28.3,4.5v7.8c-4.3,1.5-12.1,6.3-12,10.9
			C118.9,80.8,120.1,81.6,121.1,82.2L121.1,82.2z"/>
		<path class="st7" d="M157.7,80.2c-9.7,5-19,8.9-33.2,9.5C106,89.3,103,76.9,111.8,63.8c8.3-13.2,21.5-24.9,42.4-32.4
			c6-2.1,15.1-4.6,23.6-4.7c12.4-0.1,24.4,3.8,23.7,15.8c-0.5,9.1-13.6,22.1-20.5,31.4c-3,4-3.4,6.6,1.5,6.4
			c18.4-1.2,35-7.6,50.4-14.2c-10.4,7.1-64.4,34.1-64.6,15.7c0.1-2.3,1.2-4.7,2.8-7.4c1.8-2.6,4.2-5.5,6.6-8.2
			c3.7-4.3,12.8-14.3,15.8-20.5c5.2-11.5-6.4-12.1-16.2-15.7l-4.4,2.5l2.6,2.5c-14.6,2.5-21.8,4.9-39.7,11.1l2,5.2l-6.2,6.2
			c-0.1-0.2-1.1-0.4-3-1.4v10.1c-7.9,3.6-14.9,9.7-9.5,15.1c0.6,0.5,1.3,0.8,1.9,0.9l0,0C131,87.8,157.7,80.2,157.7,80.2L157.7,80.2
			z"/>
		<path class="st6" d="M79.1,107.7v-6H88v6H79.1L79.1,107.7z M79.3,132.7V111h8.3v21.7H79.3L79.3,132.7z M177.4,121.3
			c0-2-0.5-3.6-1.5-4.7c-1.1-1.2-2.6-1.8-4.4-1.8c0,0,0,0-0.1,0c-1.9,0.1-3.3,0.6-4.4,1.8c-1.1,1.2-1.5,2.8-1.5,5
			c0,2.1,0.5,3.8,1.5,5c1.1,1.2,2.5,1.7,4.4,1.7c1.9,0,3.4-0.6,4.5-1.8C176.9,125.2,177.4,123.5,177.4,121.3L177.4,121.3z
			 M171.3,110.9c1.1-0.2,2.3-0.4,3.4-0.4c3.4,0,6.2,0.9,8.2,3c1.9,2,3,4.7,3,8.2c0,3.7-0.9,6.5-3,8.5c-1.9,2-4.6,3.1-8.1,3.1
			c-1.2,0-2.4-0.2-3.6-0.5c-0.6-0.2-1.2-0.5-1.8-0.7c-1.5-0.8-3-1.9-4.1-3.4v0.7c0,0.6,0,1.1,0,1.7c0,0.6-0.1,1.2-0.2,1.7h-8.3
			c0.1-0.8,0.1-1.7,0.2-2.5c0-0.8,0.1-1.7,0.1-2.4v-26.2h8.2v12.4c1.3-1.2,2.7-2.1,4.3-2.7C170.2,111.1,170.7,111,171.3,110.9
			L171.3,110.9z M265.7,113.6c4.4,0,7.9,3.7,7.9,8.1c0,4.4-3.6,7.9-7.9,7.9c-4.4,0-8.1-3.6-8.1-7.9
			C257.6,117.3,261.3,113.6,265.7,113.6L265.7,113.6z M265.7,133.3c6.4,0,11.6-5.2,11.6-11.6c0-6.5-5.2-11.7-11.6-11.7
			c-6.4,0-11.7,5.2-11.7,11.7C253.9,128.1,259.3,133.3,265.7,133.3L265.7,133.3z M223,129.4h3.7v3.3H223V129.4L223,129.4z M251,130
			c-1.2,0.9-3.6,3.3-8.2,3.3c-5.9,0-11.6-4.6-11.6-11.6c0-7,5.7-11.7,11.6-11.7c4.4,0,7,2.4,8.2,3.3c-0.7,1.1-1.3,3-1.5,3.8
			c-2.3-3-5-3.4-6.6-3.4c-4.4,0-7.9,3.7-7.9,8.1c0,4.3,3.6,7.9,7.9,7.9c2.5,0,4.9-1.1,6.6-3.4C249.9,128.1,250.6,129.3,251,130
			L251,130z M282.5,132.7V111h3.3v3.1c0.7-1.1,1.7-1.9,2.7-2.6c1.2-0.6,2.5-0.9,3.9-0.9c1.5,0,2.8,0.4,3.9,0.9
			c1.1,0.7,1.8,1.7,2.3,2.8c1.7-2.5,3.9-3.8,6.6-3.8c2.1,0,3.8,0.6,5,1.8c1.2,1.2,1.8,3.1,1.8,5.6v14.8h-3.7v-13.6
			c0-1.5-0.1-2.5-0.4-3.2c-0.2-0.6-0.7-1.2-1.3-1.5c-0.6-0.4-1.4-0.6-2.3-0.6c-1.5,0-2.7,0.5-3.8,1.5c-0.9,0.9-1.5,2.6-1.5,4.9v12.6
			h-3.7v-14.1c0-1.7-0.2-2.8-0.8-3.7c-0.6-0.8-1.7-1.2-3-1.2c-1.1,0-2,0.2-2.8,0.8c-0.9,0.5-1.5,1.3-1.9,2.4
			c-0.5,1.1-0.6,2.6-0.6,4.5v11.3H282.5L282.5,132.7z M310.6,106.3v-4.2h-1.5v-0.5h3.8v0.5h-1.5v4.2H310.6L310.6,106.3z
			 M313.5,106.3v-4.6h0.9l1.1,3.3c0.1,0.2,0.1,0.5,0.2,0.6c0-0.1,0.1-0.4,0.2-0.7l1.1-3.2h0.8v4.6h-0.6v-3.9l-1.3,3.9h-0.6l-1.3-3.9
			v3.9H313.5L313.5,106.3z M207.5,129.5c-0.8,1.3-2.1,2.1-3.9,2.8c-0.4,0.1-0.8,0.2-1.2,0.4c-1.4,0.4-3.1,0.6-5,0.6
			c-2.7,0-4.9-0.6-6.4-1.8c-1.4-1.1-2.3-2.7-2.3-4.9c0-1.3,0.4-2.5,0.9-3.6c0.6-0.9,1.4-1.8,2.5-2.5c0.8-0.6,2.1-0.9,3.7-1.2
			c1.4-0.2,3.6-0.4,6.5-0.4c0.2,0,0.6,0,0.9,0h4c0-0.1,0-0.1,0-0.4c0-0.1,0-0.2,0-0.2c0-1.2-0.4-2.1-1.1-2.7c-0.7-0.6-1.7-0.9-3-0.9
			c-0.4,0-0.7,0.1-0.9,0.1c-1.1,0-1.9,0.2-2.5,0.6c-0.7,0.4-1.2,1.1-1.3,2h-8.4c0.2-2.4,1.5-4.2,3.7-5.3c1.9-1.1,4.7-1.5,8.5-1.7
			c0.4,0,0.7,0,1.1,0c4,0,7.1,0.7,9,2c1.9,1.3,2.8,3.4,2.8,6.3v11c0,0.6,0.1,1.2,0.1,1.7c0.1,0.4,0.2,0.8,0.4,1.2h-7.7
			c-0.2-0.4-0.4-0.8-0.5-1.3c0-0.4-0.1-0.9-0.1-1.4V129.5L207.5,129.5z M202.4,128.6c1.4-0.1,2.6-0.6,3.4-1.3
			c0.9-0.8,1.5-2.1,1.5-3.7v-0.5h-0.7c-1.7,0-3.1,0-4.3,0.1c-1.3,0.1-2.3,0.2-3,0.6c-1.3,0.4-2,1.2-2,2.4c0,0.7,0.4,1.3,1.1,1.8
			c0.7,0.4,1.8,0.6,3.1,0.6C201.9,128.6,202.1,128.6,202.4,128.6L202.4,128.6z M143.7,129.5c-0.9,1.3-2.3,2.1-4,2.8
			c-0.4,0.1-0.7,0.2-1.2,0.4c-1.4,0.4-3.1,0.6-5,0.6c-2.7,0-4.9-0.6-6.3-1.8c-1.5-1.1-2.3-2.7-2.3-4.9c0-1.3,0.2-2.5,0.8-3.6
			c0.6-0.9,1.4-1.8,2.5-2.5c0.9-0.6,2.1-0.9,3.7-1.2c1.4-0.2,3.6-0.4,6.5-0.4c0.4,0,0.6,0,0.9,0h4c0-0.1,0-0.1,0-0.4
			c0-0.1,0-0.2,0-0.2c0-1.2-0.4-2.1-1.1-2.7c-0.7-0.6-1.7-0.9-3-0.9c-0.4,0-0.6,0.1-0.9,0.1c-1.1,0-1.9,0.2-2.5,0.6
			c-0.7,0.4-1.1,1.1-1.3,2h-8.4c0.4-2.4,1.5-4.2,3.7-5.3c2-1.1,4.9-1.5,8.5-1.7c0.4,0,0.7,0,1.1,0c4,0,7.1,0.7,9,2
			c1.9,1.3,3,3.4,3,6.3v11c0,0.6,0,1.2,0,1.7c0.1,0.4,0.2,0.8,0.4,1.2h-7.7c-0.2-0.4-0.4-0.8-0.4-1.3c-0.1-0.4-0.1-0.9-0.1-1.4
			V129.5L143.7,129.5z M138.5,128.6c1.5-0.1,2.6-0.6,3.4-1.3c1.1-0.8,1.5-2.1,1.5-3.7v-0.5h-0.7c-1.7,0-3.1,0-4.3,0.1
			c-1.2,0.1-2.1,0.2-2.8,0.6c-1.4,0.4-2,1.2-2,2.4c0,0.7,0.4,1.3,0.9,1.8c0.7,0.4,1.8,0.6,3.2,0.6
			C138,128.6,138.2,128.6,138.5,128.6L138.5,128.6z M113.4,121.3c0-2-0.5-3.6-1.5-4.7c-1.1-1.2-2.5-1.8-4.4-1.8
			c-2,0.1-3.4,0.6-4.5,1.8c-1.1,1.2-1.5,2.8-1.5,5c0,2.1,0.5,3.8,1.5,5c1.1,1.2,2.6,1.7,4.4,1.7h0.1c1.9,0,3.3-0.6,4.4-1.8
			C113,125.2,113.4,123.5,113.4,121.3L113.4,121.3z M107.5,110.9c1.1-0.2,2.1-0.4,3.3-0.4c3.4,0,6.2,0.9,8.2,3c2,2,3,4.7,3,8.2
			c0,3.7-0.9,6.5-2.8,8.5c-2,2-4.6,3.1-8.1,3.1c-1.3,0-2.5-0.2-3.6-0.5c-0.7-0.2-1.3-0.5-1.8-0.7c-1.7-0.8-3.1-1.9-4.2-3.4v0.7
			c0,0.6,0,1.1-0.1,1.7c0,0.6-0.1,1.2-0.1,1.7h-8.4c0.1-0.8,0.2-1.7,0.2-2.5c0.1-0.8,0.1-1.7,0.1-2.4v-26.2h8.3v12.4
			c1.2-1.2,2.6-2.1,4.2-2.7C106.3,111.1,106.9,111,107.5,110.9L107.5,110.9z M42.9,101.6h6l15.2,31.1h-10l-2.7-6.3h-8.5h-8.4l-3,6.3
			h-9.4l16.2-31.1H42.9L42.9,101.6z M42.9,120.4h5.7l-5.3-12l-0.4,0.6l-5.6,11.4H42.9L42.9,120.4z M65.5,132.7v-31.1h8.3v31.1H65.5
			L65.5,132.7z"/>
	</g>
</g>
</svg>
